<?xml version="1.0" encoding="UTF-8" standalone="no"?>
<!-- Generator: Adobe Illustrator 24.0.2, SVG Export Plug-In . SVG Version: 6.00 Build 0)  -->

<svg
   version="1.1"
   id="Layer_1"
   x="0px"
   y="0px"
   viewBox="0 0 2499.9999 2499.9999"
   xml:space="preserve"
   sodipodi:docname="logo-Daycoval- maior.svg"
   width="2500"
   height="2500"
   inkscape:version="1.2.2 (732a01da63, 2022-12-09)"
   xmlns:inkscape="http://www.inkscape.org/namespaces/inkscape"
   xmlns:sodipodi="http://sodipodi.sourceforge.net/DTD/sodipodi-0.dtd"
   xmlns="http://www.w3.org/2000/svg"
   xmlns:svg="http://www.w3.org/2000/svg"><defs
   id="defs17" /><sodipodi:namedview
   id="namedview15"
   pagecolor="#505050"
   bordercolor="#eeeeee"
   borderopacity="1"
   inkscape:showpageshadow="0"
   inkscape:pageopacity="0"
   inkscape:pagecheckerboard="0"
   inkscape:deskcolor="#505050"
   showgrid="false"
   inkscape:zoom="0.23426693"
   inkscape:cx="1891.0052"
   inkscape:cy="1570.8576"
   inkscape:window-width="1920"
   inkscape:window-height="1009"
   inkscape:window-x="-8"
   inkscape:window-y="-8"
   inkscape:window-maximized="1"
   inkscape:current-layer="Layer_1" />
<style
   type="text/css"
   id="style2">
	.st0{fill:#001C55;}
	.st1{fill-rule:evenodd;clip-rule:evenodd;fill:#FFFFFF;}
	.st2{fill:#FFFFFF;}
	.st3{fill:#DDDDDD;}
</style>

<g
   id="g12"
   transform="matrix(48.405136,0,0,48.405136,-844.25259,-497.99909)">
	<path
   class="st1"
   d="m 37,12 v 26 c 0,2.7 2.3,4.1 6.9,4.1 3.4,0 6.2,-1.3 8.2,-4 2,-2.7 3.1,-6.2 3.1,-10.7 C 55.2,23 54,19.4 51.5,16.5 50,14.8 48.4,13.6 46.7,13 44.9,12.3 42.5,12 39.2,12 Z M 32.9,43.6 V 16.3 c 0,-1.8 -0.2,-2.9 -0.7,-3.5 C 31.8,12.2 30.8,12 29.4,12 H 29 v -1.3 h 12 c 4.1,0.1 7,0.3 8.7,0.8 1.7,0.4 3.5,1.3 5.4,2.7 3.2,2.5 4.8,6.4 4.8,11.6 0,5 -1.5,9.3 -4.4,12.8 -1.5,1.9 -3.4,3.2 -5.4,3.9 C 48,43.2 45,43.6 41,43.6 Z"
   id="path6" />
	<rect
   x="43.299999"
   y="50.900002"
   class="st2"
   width="10.5"
   height="10.7"
   id="rect8" />
	<rect
   x="32.799999"
   y="50.900002"
   class="st3"
   width="10.5"
   height="10.7"
   id="rect10" />
</g>
</svg>
