<?xml version="1.0" encoding="UTF-8" standalone="no"?>
<!-- Created with Inkscape (http://www.inkscape.org/) -->

<svg
   version="1.1"
   id="svg4003"
   width="2500"
   height="2500"
   viewBox="0 0 2500 2500"
   sodipodi:docname="banco rendimento logo nova .svg"
   inkscape:version="1.2.2 (732a01da63, 2022-12-09)"
   xmlns:inkscape="http://www.inkscape.org/namespaces/inkscape"
   xmlns:sodipodi="http://sodipodi.sourceforge.net/DTD/sodipodi-0.dtd"
   xmlns="http://www.w3.org/2000/svg"
   xmlns:svg="http://www.w3.org/2000/svg">
  <defs
     id="defs4007" />
  <sodipodi:namedview
     id="namedview4005"
     pagecolor="#505050"
     bordercolor="#eeeeee"
     borderopacity="1"
     inkscape:showpageshadow="0"
     inkscape:pageopacity="0"
     inkscape:pagecheckerboard="0"
     inkscape:deskcolor="#505050"
     showgrid="false"
     inkscape:zoom="0.12673673"
     inkscape:cx="-710.13351"
     inkscape:cy="623.33941"
     inkscape:window-width="1920"
     inkscape:window-height="1009"
     inkscape:window-x="-8"
     inkscape:window-y="-8"
     inkscape:window-maximized="1"
     inkscape:current-layer="g4009" />
  <g
     inkscape:groupmode="layer"
     inkscape:label="Image"
     id="g4009">
    <path
       style="fill:#0a1d6f;fill-opacity:1;stroke-width:9.48276"
       d="m 1507.3585,2158.0167 c 0,-2.4503 24.9445,-50.4568 55.4322,-106.681 30.4877,-56.2242 101.4725,-189.7042 157.7441,-296.6223 56.2715,-106.9181 139.6936,-264.8059 185.3823,-350.862 114.7365,-216.109 313.721,-592.0073 438.3785,-828.1335 57.355,-108.64165 109.8265,-199.65796 116.6032,-202.25847 6.7769,-2.6005 20.4706,-3.32392 30.4308,-1.60759 15.7361,2.71166 4.9127,27.97376 -82.594,192.77571 -55.3869,104.31032 -204.6128,385.94816 -331.6133,625.86185 -127.0004,239.9138 -261.6966,493.8145 -299.3247,564.224 -37.6281,70.4095 -101.6463,190.959 -142.2627,267.8879 -68.8658,130.4343 -75.6805,139.8706 -101.0122,139.8706 -14.9402,0 -27.1642,-2.0048 -27.1642,-4.4552 z M 1.1808071,1841.7204 c 1.738505,-4.3012 33.8883469,-58.7086 71.4440939,-120.9051 l 68.283179,-113.0846 66.23786,-369.8275 c 102.01741,-569.59616 95.14578,-498.26146 61.22889,-635.62103 -15.98877,-64.75271 -26.81856,-119.98414 -24.0662,-122.7365 9.06874,-9.06875 705.96814,-5.04724 817.36037,4.71664 133.5129,11.70281 204.6249,28.79581 282.5871,67.92471 67.1581,33.70641 109.5242,76.69732 137.1682,139.1912 14.9506,33.79848 17.843,56.37781 14.2979,111.61822 -10.6357,165.72649 -120.7206,283.78926 -330.7006,354.66646 -73.2917,24.739 -232.36446,56.5334 -282.84665,56.5334 -40.05437,0 -60.822,23.8041 -31.3374,35.9193 9.03922,3.7142 81.12887,6.7531 160.19925,6.7531 h 143.7642 l 93.3047,194.2775 c 70.3762,146.5365 111.4363,218.7744 167.0898,293.9654 l 73.7852,99.688 -290.9593,2.5098 c -160.0275,1.3804 -292.89991,0.569 -295.27194,-1.803 -10.31417,-10.3142 -182.45967,-635.7328 -182.45967,-662.8908 0,-12.4599 9.15605,-15.8331 42.97698,-15.8331 118.86596,0 203.60189,-91.6262 250.56993,-270.94492 22.5533,-86.10586 25.6461,-207.78038 6.4493,-253.72463 C 992.92623,576.6317 923.56854,541.0725 823.01519,540.97355 l -53.74006,-0.0529 -9.53379,45.04309 c -5.24358,24.7737 -27.14642,149.59048 -48.67297,277.37061 -21.52656,127.78014 -60.16455,347.70125 -85.86222,488.71355 l -46.72303,256.3861 28.23093,107.6034 c 15.52701,59.1819 28.23094,113.4309 28.23094,120.5535 0,10.6879 -55.63167,12.9501 -318.46255,12.9501 -175.15441,0 -317.04013843,-3.5193 -315.3016329,-7.8206 z"
       id="path4013" />
  </g>
</svg>
