<?xml version="1.0" encoding="UTF-8" standalone="no"?>
<!-- Created with Inkscape (http://www.inkscape.org/) -->

<svg
   version="1.1"
   id="svg3981"
   width="2500"
   height="2500"
   viewBox="0 0 2500 2500"
   sodipodi:docname="banco rendimento logo.svg"
   inkscape:version="1.2.2 (732a01da63, 2022-12-09)"
   xmlns:inkscape="http://www.inkscape.org/namespaces/inkscape"
   xmlns:sodipodi="http://sodipodi.sourceforge.net/DTD/sodipodi-0.dtd"
   xmlns="http://www.w3.org/2000/svg"
   xmlns:svg="http://www.w3.org/2000/svg">
  <defs
     id="defs3985" />
  <sodipodi:namedview
     id="namedview3983"
     pagecolor="#505050"
     bordercolor="#eeeeee"
     borderopacity="1"
     inkscape:showpageshadow="0"
     inkscape:pageopacity="0"
     inkscape:pagecheckerboard="0"
     inkscape:deskcolor="#505050"
     showgrid="false"
     inkscape:zoom="0.19961035"
     inkscape:cx="2880.6121"
     inkscape:cy="1247.4303"
     inkscape:window-width="1920"
     inkscape:window-height="1009"
     inkscape:window-x="-8"
     inkscape:window-y="-8"
     inkscape:window-maximized="1"
     inkscape:current-layer="g3987" />
  <g
     inkscape:groupmode="layer"
     inkscape:label="Image"
     id="g3987">
    <g
       id="g3991"
       transform="matrix(10.416783,0,0,10.416783,-0.03724973,0.01073072)">
      <path
         style="fill:#002d5b"
         d="M 76,201.75142 C 27.309723,162.94262 15.01287,126.75582 38.51333,91.436813 58.204369,61.843007 110.77254,23.43921 119.56076,32.22743 120.1224,32.789065 83.670077,207.00798 83,206.96463 c -0.275,-0.0178 -3.425,-2.36374 -7,-5.21321 z M 138.47592,170.92383 120.5,134.84766 l -3.44341,-8.48694 c -3.65498,-9.00839 5.19161,-13.7574 15.21644,-29.00114 15.91658,-24.202726 15.01387,-37.996854 -3.73782,-57.116851 -8.87221,-9.04647 -8.60251,-8.417122 -3.28521,-7.666043 16.93353,2.391894 33.8853,12.780837 54.51277,33.40831 45.16598,45.165984 45.60702,75.313964 1.74886,119.547004 -8.52869,8.60159 -23.29995,21.468 -24.6463,21.468 -0.22742,0 -8.50265,-16.23428 -18.38941,-36.07617 z"
         id="path3993"
         sodipodi:nodetypes="sssssscssssssss" />
    </g>
  </g>
</svg>
