<?xml version="1.0" encoding="UTF-8" standalone="no"?>
<!-- Created with Inkscape (http://www.inkscape.org/) -->

<svg
   version="1.1"
   id="svg2"
   width="2500"
   height="2500"
   viewBox="0 0 2500 2500"
   sodipodi:docname="banco-mercantil-novo-branco.svg"
   inkscape:version="1.2.2 (732a01da63, 2022-12-09)"
   xmlns:inkscape="http://www.inkscape.org/namespaces/inkscape"
   xmlns:sodipodi="http://sodipodi.sourceforge.net/DTD/sodipodi-0.dtd"
   xmlns="http://www.w3.org/2000/svg"
   xmlns:svg="http://www.w3.org/2000/svg">
  <defs
     id="defs6" />
  <sodipodi:namedview
     id="namedview4"
     pagecolor="#505050"
     bordercolor="#eeeeee"
     borderopacity="1"
     inkscape:showpageshadow="0"
     inkscape:pageopacity="0"
     inkscape:pagecheckerboard="0"
     inkscape:deskcolor="#505050"
     showgrid="false"
     inkscape:zoom="0.22583333"
     inkscape:cx="828.04428"
     inkscape:cy="1589.6679"
     inkscape:window-width="1920"
     inkscape:window-height="1009"
     inkscape:window-x="-8"
     inkscape:window-y="-8"
     inkscape:window-maximized="1"
     inkscape:current-layer="g8" />
  <g
     inkscape:groupmode="layer"
     inkscape:label="Image"
     id="g8">
    <g
       id="g316"
       transform="matrix(4.201863,0,0,4.201863,-4.8578106,-0.89999065)">
      <path
         style="fill:#e1e1e1;fill-opacity:1;stroke-width:1.99631"
         d="m 469.1873,353.93433 c 2.47044,-0.47584 6.51296,-0.47584 8.9834,0 2.47043,0.47582 0.44917,0.86514 -4.4917,0.86514 -4.94087,0 -6.96213,-0.38932 -4.4917,-0.86514 z"
         id="path344" />
      <path
         style="fill:#d3d3d3;fill-opacity:1;stroke-width:1.99631"
         d="m 191.09645,338.37455 c -7.6e-4,-36.23303 0.26904,-51.33727 0.59957,-33.56498 0.33053,17.77229 0.33115,47.4175 0.001,65.87823 -0.32977,18.46074 -0.60019,3.91978 -0.60095,-32.31325 z"
         id="path342" />
      <path
         style="fill:#c1c1c1;fill-opacity:1;stroke-width:1.99631"
         d="m 536.02775,299.4465 c 0,-3.84289 0.41084,-5.41499 0.91298,-3.49354 0.50211,1.92145 0.50211,5.06564 0,6.98709 -0.50214,1.92145 -0.91298,0.34935 -0.91298,-3.49355 z"
         id="path340" />
      <path
         style="fill:#b8b8b8;fill-opacity:1;stroke-width:1.99631"
         d="m 488.3507,331.38747 c 0,-9.33275 0.34389,-13.1507 0.76419,-8.48432 0.42028,4.66637 0.42028,12.30226 0,16.96863 -0.4203,4.66638 -0.76419,0.84843 -0.76419,-8.48431 z m 0,-63.88193 c 0,-9.33274 0.34389,-13.15069 0.76419,-8.48431 0.42028,4.66637 0.42028,12.30226 0,16.96863 -0.4203,4.66638 -0.76419,0.84843 -0.76419,-8.48432 z"
         id="path338" />
      <path
         style="fill:#b5b5b5;fill-opacity:1;stroke-width:1.99631"
         d="m 392.75802,297.45019 c 0,-56.54548 0.25558,-79.67772 0.56799,-51.40498 0.3124,28.27274 0.3124,74.53723 0,102.80997 -0.31241,28.27274 -0.56799,5.1405 -0.56799,-51.40499 z"
         id="path336" />
      <path
         style="fill:#9b9b9b;fill-opacity:1;stroke-width:1.99631"
         d="m 412.25653,299.4465 c 0,-3.84289 0.41084,-5.41499 0.91298,-3.49354 0.50211,1.92145 0.50211,5.06564 0,6.98709 -0.50214,1.92145 -0.91298,0.34935 -0.91298,-3.49355 z"
         id="path334" />
      <path
         style="fill:#959595;fill-opacity:1;stroke-width:1.99631"
         d="m 460.40236,331.38747 c 0,-9.33275 0.34389,-13.1507 0.76419,-8.48432 0.42028,4.66637 0.42028,12.30226 0,16.96863 -0.4203,4.66638 -0.76419,0.84843 -0.76419,-8.48431 z m 0,-63.88193 c 0,-9.33274 0.34389,-13.15069 0.76419,-8.48431 0.42028,4.66637 0.42028,12.30226 0,16.96863 -0.4203,4.66638 -0.76419,0.84843 -0.76419,-8.48432 z"
         id="path332" />
      <path
         style="fill:#858585;fill-opacity:1;stroke-width:1.99631"
         d="m 173.73342,0.49934545 c 69.44664,-0.29101602 183.08658,-0.29101602 252.53322,0 69.44663,0.29101601 12.62666,0.52912005 -126.26661,0.52912005 -138.89327,0 -195.71324,-0.23810404 -126.26661,-0.52912005 z"
         id="path330" />
      <path
         style="fill:#7a7a7a;fill-opacity:1;stroke-width:1.99631"
         d="m 231.01981,262.51477 c 8e-4,-35.13506 0.27244,-49.22733 0.60363,-31.31618 0.33119,17.91118 0.33053,46.65804 -10e-4,63.88193 -0.33199,17.2239 -0.60296,2.56931 -0.60217,-32.56575 z"
         id="path328" />
      <path
         style="fill:#6b6b6b;fill-opacity:1;stroke-width:1.99631"
         d="m 471.20689,242.13791 c 2.48323,-0.47749 6.07659,-0.45937 7.98524,0.0403 1.90865,0.49966 -0.12317,0.89035 -4.51498,0.86819 -4.39188,-0.0221 -5.95349,-0.43098 -3.47026,-0.90848 z"
         id="path326" />
      <path
         style="fill:#6a6a6a;fill-opacity:1;stroke-width:1.99631"
         d="m 200.68361,188.19521 c 4.11739,-0.4307 10.85493,-0.4307 14.97232,0 4.11739,0.43069 0.74862,0.78307 -7.48616,0.78307 -8.23478,0 -11.60355,-0.35238 -7.48616,-0.78307 z m 162.65474,0.0134 c 3.54391,-0.44101 9.83229,-0.44825 13.97417,-0.0162 4.14187,0.43215 1.24231,0.79298 -6.44348,0.80183 -7.6858,0.009 -11.07461,-0.34472 -7.53069,-0.78573 z"
         id="path324" />
      <path
         style="fill:#696969;fill-opacity:1;stroke-width:1.99631"
         d="m 352.79618,335.38009 c 0,-35.68405 0.2707,-50.28206 0.60157,-32.44004 0.33085,17.84202 0.33085,47.03805 0,64.88007 -0.33087,17.84202 -0.60157,3.24401 -0.60157,-32.44003 z"
         id="path322" />
      <path
         style="fill:#555555;fill-opacity:1;stroke-width:1.99631"
         d="m 40.47973,596.8967 c -1.799254,-1.16277 -2.045479,-1.94738 -0.6169,-1.96575 1.307663,-0.016 2.932779,0.86778 3.611365,1.96575 1.531769,2.47848 0.840686,2.47848 -2.994465,0 z m 516.51193,-0.24772 c 1.35418,-1.36432 2.965,-1.97769 3.57965,-1.36304 0.61464,0.61464 -0.49331,1.7309 -2.46211,2.48057 -2.84514,1.08336 -3.07444,0.85406 -1.11754,-1.11753 z M 27.386192,591.79579 c -3.813092,-3.05491 -3.811215,-3.0752 0.117583,-1.2679 2.195941,1.01017 5.340129,2.33632 6.987085,2.94699 2.586699,0.95911 2.570708,1.13177 -0.117583,1.2679 -1.711596,0.0866 -4.855784,-1.23945 -6.987085,-2.94699 z m 538.123068,1.67909 c 1.64696,-0.61067 4.79114,-1.93682 6.98709,-2.94699 3.92873,-1.8073 3.93061,-1.78701 0.11758,1.2679 -2.1313,1.70754 -5.27549,3.03367 -6.98709,2.94699 -2.68823,-0.13615 -2.70422,-0.30879 -0.11758,-1.2679 z m -550.108993,-11.05143 -5.863342,-6.48801 6.488008,5.86335 c 6.047741,5.46545 7.405611,7.11267 5.863342,7.11267 -0.343565,0 -3.263169,-2.9196 -6.488008,-6.48801 z m 562.086853,5.86334 c 0,-0.34356 2.9196,-3.26316 6.48801,-6.488 l 6.488,-5.86335 -5.86334,6.48801 c -5.46545,6.04774 -7.11267,7.40561 -7.11267,5.86334 z M 7.4585267,572.80817 c -0.7237222,-1.17102 -0.8877191,-2.55728 -0.3644264,-3.08057 0.5232728,-0.52329 1.4833782,0.43482 2.1335564,2.12912 1.3498653,3.51772 0.1994313,4.13648 -1.76913,0.95145 z M 590.59148,572.3558 c 0.74967,-1.9688 1.86593,-3.07675 2.48057,-2.46211 0.61465,0.61465 10e-4,2.22547 -1.36304,3.57965 -1.97159,1.9569 -2.20089,1.7276 -1.11753,-1.11754 z M 2.7074487,557.8023 c 0.095823,-2.3256 0.5688285,-2.79863 1.2060906,-1.20611 0.5766741,1.44108 0.5057652,3.16291 -0.1575088,3.82627 -0.6633738,0.66335 -1.1351818,-0.51573 -1.048502,-2.62016 z m 592.9040713,0 c 0.0958,-2.3256 0.56883,-2.79863 1.20609,-1.20611 0.57667,1.44108 0.50576,3.16291 -0.15751,3.82627 -0.66335,0.66335 -1.13518,-0.51573 -1.0485,-2.62016 z M 2.0132518,43.758799 C 2.719167,41.05938 3.6240744,40.154467 4.1224532,41.649595 4.6025258,43.089815 4.0461941,45.217317 2.8861184,46.377376 1.4047167,47.858774 1.1449169,47.079351 2.0132518,43.758799 Z M 596.1428,44.830879 c -0.65018,-1.69431 -0.73608,-3.52662 -0.19085,-4.0718 0.54517,-0.545182 1.4704,0.841072 2.05604,3.080562 1.244,4.757065 -0.13815,5.491631 -1.86515,0.991238 z M 4.6317518,35.933581 C 4.5528975,32.591588 11.758798,19.9631 13.744647,19.9631 c 0.699567,0 0.288647,1.18478 -0.913132,2.632846 -1.201798,1.448065 -3.5224688,5.715178 -5.1570873,9.482472 -1.6345986,3.767295 -3.0038078,5.502118 -3.0426759,3.855163 z M 591.95905,31.441883 c -2.14621,-5.865756 -2.09245,-6.116355 0.56048,-2.61291 2.53883,3.352741 4.03818,9.100918 2.3739,9.100918 -0.30827,0 -1.62875,-2.919604 -2.93438,-6.488008 z M 27.969514,7.7375226 c 1.354177,-1.364315 2.964999,-1.977687 3.579643,-1.3630489 0.614644,0.6146381 -0.493308,1.7308958 -2.462109,2.4805729 -2.845141,1.0833667 -3.074437,0.8540633 -1.117534,-1.117524 z M 569.50188,7.9852401 c -1.79925,-1.1627699 -2.04548,-1.9473733 -0.6169,-1.9657409 1.30766,-0.016813 2.93278,0.8677704 3.61137,1.9657409 1.53176,2.4784689 0.84068,2.4784689 -2.99447,0 z M 169.7408,2.4956397 c 71.64258,-0.2905334 188.87588,-0.2905334 260.51846,0 71.64257,0.2905334 13.02592,0.5282424 -130.25923,0.5282424 -143.28515,0 -201.901803,-0.237709 -130.25923,-0.5282424 z"
         id="path320" />
      <path
         style="fill:#ffffff;fill-opacity:1;stroke-width:1.99631"
         d="m 69.475514,407.71576 c 1.12506,-0.80667 8.820117,-10.00089 17.100092,-20.43161 57.913114,-72.95615 77.793764,-98.1074 84.729684,-107.19261 8.84926,-11.59143 12.14495,-13.70878 16.15626,-10.37969 2.22381,1.8456 2.74143,14.81028 2.74143,68.6627 0,54.45203 0.50221,66.80432 2.7934,68.70583 1.79462,1.4894 9.29254,2.11213 20.97004,1.74168 l 18.17662,-0.57666 55.46006,-69.87085 c 39.12744,-49.29434 56.6149,-69.87085 59.38144,-69.87085 3.8012,0 3.952,2.08065 4.91955,67.87454 0.54899,37.331 1.72493,68.99747 2.61321,70.36993 2.16366,3.34304 33.58554,3.428 36.91373,0.0998 1.80235,-1.80234 2.39557,-28.33484 2.39557,-107.14447 0,-94.6685 -0.31795,-105.10023 -3.30387,-108.39963 -2.69534,-2.97833 -6.35655,-3.65074 -19.87794,-3.65074 h -16.57408 l -26.62996,33.4382 c -14.64647,18.391 -40.41218,50.77309 -57.25713,71.96017 -20.36098,25.60946 -31.70529,38.31481 -33.84356,37.90395 -2.85979,-0.5495 -3.32709,-8.21401 -4.21457,-69.12856 -1.16539,-79.9884 0.71176,-74.17376 -23.94566,-74.17376 -14.57099,0 -15.44723,0.2674 -21.26104,6.48801 -5.21476,5.57965 -107.554175,131.74035 -120.051954,147.99617 -4.110682,5.34673 -4.427696,7.85993 -4.427696,35.10177 0,31.55178 0.786386,34.95783 7.036374,30.47667 z M 487.25391,352.94761 c 1.51977,-1.51977 2.39557,-9.18302 2.39557,-20.96125 v -18.56568 h 22.91954 c 26.01756,0 25.92424,0.0687 24.62416,-18.12692 l -0.63041,-8.82327 -23.45665,-0.56244 -23.45664,-0.56242 v -18.75901 c 0,-21.93463 -1.78961,-25.03311 -14.45865,-25.03311 -13.37079,0 -15.486,3.44202 -15.486,25.19992 v 18.5922 l -23.45664,0.56242 -23.45664,0.56244 -0.63042,8.82327 c -1.30008,18.19561 -1.3934,18.12692 24.62416,18.12692 h 22.91954 v 18.56568 c 0,11.77823 0.8758,19.44148 2.39557,20.96125 1.31757,1.31757 6.97711,2.39558 12.57675,2.39558 5.59965,0 11.25919,-1.07801 12.57676,-2.39558 z"
         id="path318"
         sodipodi:nodetypes="ssssssscsssssssscsssssssssssscsscccssscccsscssss" />
    </g>
  </g>
</svg>
