<?xml version="1.0" encoding="UTF-8" standalone="no"?>
<svg
   width="2500"
   height="2500"
   viewBox="0 0 2499.9999 2499.9999"
   version="1.1"
   id="svg18"
   sodipodi:docname="logo_fgts.svg"
   inkscape:version="1.2.2 (732a01da63, 2022-12-09)"
   xmlns:inkscape="http://www.inkscape.org/namespaces/inkscape"
   xmlns:sodipodi="http://sodipodi.sourceforge.net/DTD/sodipodi-0.dtd"
   xmlns="http://www.w3.org/2000/svg"
   xmlns:svg="http://www.w3.org/2000/svg">
  <defs
     id="defs22" />
  <sodipodi:namedview
     id="namedview20"
     pagecolor="#505050"
     bordercolor="#eeeeee"
     borderopacity="1"
     inkscape:showpageshadow="0"
     inkscape:pageopacity="0"
     inkscape:pagecheckerboard="0"
     inkscape:deskcolor="#505050"
     showgrid="false"
     inkscape:zoom="0.14549787"
     inkscape:cx="164.95087"
     inkscape:cy="144.33201"
     inkscape:window-width="1920"
     inkscape:window-height="1009"
     inkscape:window-x="-8"
     inkscape:window-y="-8"
     inkscape:window-maximized="1"
     inkscape:current-layer="svg18" />
  <g
     id="Grupo_379"
     data-name="Grupo 379"
     transform="matrix(9.4896823,0,0,9.4896823,2.4757957,1174.4876)">
    <g
       id="Grupo_382"
       data-name="Grupo 382"
       transform="translate(0,-7)">
      <path
         id="Caminho_188"
         data-name="Caminho 188"
         d="m 223.078,41.553 a 0.639,0.639 0 0 1 0,0.549 c -0.026,0.038 -0.1,0.156 -0.387,0.156 h -8.928 a 0.407,0.407 0 0 1 -0.347,-0.139 c -0.058,-0.076 -0.126,-0.221 -0.06,-0.567 L 217.839,29.3 c 0.082,-0.227 0.216,-0.363 0.359,-0.363 0.107,0 0.251,0.086 0.313,0.362 z m 9.435,7.806 -9.987,-25.987 a 2.154,2.154 0 0 0 -2,-1.424 h -4.694 a 2.155,2.155 0 0 0 -2.005,1.432 l -10.478,27.57 -0.139,0.385 a 1.1,1.1 0 0 0 1.031,1.47 h 4.07 0.181 l 1.786,-5.263 h 1.069 13.857 0.963 l 1.772,5.084 0.05,0.184 h 4.233 a 1.1,1.1 0 0 0 1.027,-1.483 z"
         transform="translate(-63.647,-6.877)"
         fill="#ffffff" />
      <path
         id="Caminho_189"
         data-name="Caminho 189"
         d="m 188.59,44.084 -2.357,-1.947 a 1.159,1.159 0 0 0 -0.86,-0.3 1.37,1.37 0 0 0 -0.845,0.566 l -0.03,0.045 a 9.888,9.888 0 0 1 -3.983,3.726 13.764,13.764 0 0 1 -6.068,1.182 11.189,11.189 0 0 1 -7.324,-2.2 c -1.761,-1.461 -2.617,-3.716 -2.617,-6.9 v -1.73 c 0.013,-6.01 3.358,-9.057 9.941,-9.057 4.468,0 7.736,1.527 9.727,4.556 l 0.038,0.047 a 1.135,1.135 0 0 0 1.762,0.136 l 2.32,-2.171 a 1.152,1.152 0 0 0 0.461,-0.738 1.329,1.329 0 0 0 -0.259,-0.926 c -2.663,-4.275 -7.389,-6.443 -14.05,-6.443 -10.291,0 -15.294,4.788 -15.294,14.635 v 1.648 c 0,9.877 5,14.678 15.294,14.678 6.616,0 11.446,-2.368 14.346,-7.023 l 0.045,-0.063 a 1.124,1.124 0 0 0 0.233,-0.891 1.216,1.216 0 0 0 -0.481,-0.839"
         transform="translate(-49.864,-6.873)"
         fill="#ffffff" />
      <path
         id="Caminho_190"
         data-name="Caminho 190"
         d="m 278.092,21.938 h -3.247 a 1,1 0 0 0 -0.779,0.363 1.34,1.34 0 0 0 -0.332,0.911 v 17.183 a 1.2,1.2 0 0 1 -2.131,0.743 L 256.627,22.284 a 0.742,0.742 0 0 0 -0.7,-0.346 h -3.988 a 0.952,0.952 0 0 0 -0.751,0.364 1.389,1.389 0 0 0 -0.32,0.911 v 28.334 a 1.372,1.372 0 0 0 0.319,0.91 0.954,0.954 0 0 0 0.751,0.366 h 3.286 A 1,1 0 0 0 256,52.46 1.345,1.345 0 0 0 256.332,51.547 V 30.872 l 17.107,21.6 a 0.742,0.742 0 0 0 0.7,0.348 h 3.948 a 1.009,1.009 0 0 0 0.767,-0.361 1.323,1.323 0 0 0 0.344,-0.915 V 23.212 a 1.308,1.308 0 0 0 -0.346,-0.928 1.036,1.036 0 0 0 -0.765,-0.347"
         transform="translate(-78.6,-6.873)"
         fill="#ffffff" />
      <path
         id="Caminho_191"
         data-name="Caminho 191"
         d="m 343.91,21.938 h -3.41 a 0.952,0.952 0 0 0 -0.75,0.365 1.384,1.384 0 0 0 -0.321,0.91 v 28.334 a 1.385,1.385 0 0 0 0.32,0.91 0.954,0.954 0 0 0 0.751,0.366 h 3.407 a 0.941,0.941 0 0 0 0.762,-0.368 1.415,1.415 0 0 0 0.308,-0.908 V 23.212 a 1.381,1.381 0 0 0 -0.323,-0.924 0.959,0.959 0 0 0 -0.748,-0.35"
         transform="translate(-106.348,-6.873)"
         fill="#ffffff" />
      <path
         id="Caminho_192"
         data-name="Caminho 192"
         d="m 373.608,47.4 a 1.053,1.053 0 0 0 -0.775,-0.358 h -12.422 a 1.721,1.721 0 0 1 -1.719,-1.72 V 23.213 a 1.358,1.358 0 0 0 -0.322,-0.924 0.962,0.962 0 0 0 -0.748,-0.352 h -3.407 a 0.953,0.953 0 0 0 -0.751,0.365 1.369,1.369 0 0 0 -0.32,0.91 v 28.335 a 1.364,1.364 0 0 0 0.32,0.91 0.951,0.951 0 0 0 0.751,0.366 h 18.619 a 1.036,1.036 0 0 0 0.785,-0.36 1.322,1.322 0 0 0 0.346,-0.916 v -3.232 a 1.3,1.3 0 0 0 -0.356,-0.917"
         transform="translate(-110.644,-6.873)"
         fill="#ffffff" />
      <path
         id="Caminho_193"
         data-name="Caminho 193"
         d="m 137.727,31.957 a 4.953,4.953 0 0 1 -1.39,3.857 5.669,5.669 0 0 1 -3.973,1.31 h -11.415 v -7.89 a 1.728,1.728 0 0 1 1.737,-1.669 h 9.677 a 6.976,6.976 0 0 1 4.046,0.977 c 0.887,0.635 1.317,1.752 1.317,3.415 m 5.588,0 c 0,-3.6 -0.892,-6.2 -2.651,-7.734 -1.736,-1.516 -4.393,-2.285 -7.9,-2.285 h -16.171 a 0.95,0.95 0 0 0 -0.751,0.365 1.386,1.386 0 0 0 -0.319,0.91 v 28.334 a 1.388,1.388 0 0 0 0.319,0.91 0.95,0.95 0 0 0 0.751,0.365 h 3.247 a 1.01,1.01 0 0 0 0.767,-0.361 1.321,1.321 0 0 0 0.343,-0.914 v -8.93 h 9.983 l 6.263,9.344 a 1.957,1.957 0 0 0 1.681,0.858 h 2.706 a 1.255,1.255 0 0 0 1.242,-0.812 1.6,1.6 0 0 0 -0.232,-1.655 l -5.72,-8.43 0.561,-0.2 c 3.9,-1.382 5.881,-4.669 5.881,-9.769"
         transform="translate(-36.194,-6.873)"
         fill="#ffffff" />
      <path
         id="Caminho_194"
         data-name="Caminho 194"
         d="m 322.238,22.457 v 0 l 0.183,-0.171 a 1.031,1.031 0 0 0 -0.764,-0.347 h -24.813 a 1.011,1.011 0 0 0 -0.768,0.361 1.321,1.321 0 0 0 -0.343,0.914 v 3.121 a 1.228,1.228 0 0 0 0.35,0.91 1.064,1.064 0 0 0 0.761,0.321 h 9.632 v 23.981 a 1.324,1.324 0 0 0 0.345,0.916 1.006,1.006 0 0 0 0.765,0.359 h 3.368 a 1,1 0 0 0 0.779,-0.363 1.348,1.348 0 0 0 0.332,-0.913 V 29.13 l 0.012,-0.065 a 1.664,1.664 0 0 1 1.71,-1.5 h 7.874 a 1.048,1.048 0 0 0 0.762,-0.334 1.241,1.241 0 0 0 0.349,-0.9 v -3.118 a 1.309,1.309 0 0 0 -0.346,-0.927 z"
         transform="translate(-92.657,-6.874)"
         fill="#ffffff" />
      <path
         id="Caminho_195"
         data-name="Caminho 195"
         d="M 98.6,47.029 H 83.8 V 40.36 h 4.6 a 0.973,0.973 0 0 0 0.893,-1.035 V 35.184 A 0.973,0.973 0 0 0 88.4,34.149 H 83.8 V 29.1 a 1.664,1.664 0 0 1 1.715,-1.535 H 98.44 a 0.972,0.972 0 0 0 0.746,-0.337 1.281,1.281 0 0 0 0.325,-0.893 V 23.212 A 1.367,1.367 0 0 0 99.188,22.287 0.961,0.961 0 0 0 98.44,21.937 H 79.376 a 1.051,1.051 0 0 0 -0.814,0.376 1.385,1.385 0 0 0 -0.311,0.9 v 10.936 h -4.4 a 0.973,0.973 0 0 0 -0.893,1.035 v 4.141 a 0.973,0.973 0 0 0 0.893,1.035 h 4.378 l 0.025,0.46 V 50.9 a 2.176,2.176 0 0 0 0.4,1.489 1.543,1.543 0 0 0 1.289,0.428 H 98.6 a 1,1 0 0 0 0.754,-0.334 1.513,1.513 0 0 0 0.357,-1.027 v -3.13 A 1.361,1.361 0 0 0 99.362,47.383 1.024,1.024 0 0 0 98.6,47.029"
         transform="translate(-22.857,-6.873)"
         fill="#ffffff" />
      <path
         id="Caminho_196"
         data-name="Caminho 196"
         d="M 45.355,21.938 H 41.407 A 0.735,0.735 0 0 0 40.716,22.27 L 25.359,41.67 A 0.938,0.938 0 0 1 24.306,41.987 1.023,1.023 0 0 1 23.635,41.01 V 23.213 A 1.321,1.321 0 0 0 23.29,22.297 1.008,1.008 0 0 0 22.524,21.938 H 18.576 A 0.736,0.736 0 0 0 17.885,22.27 L 0.533,43.734 A 2.069,2.069 0 0 0 0.086,45.006 L 0,51.757 a 0.829,0.829 0 0 0 0.449,0.834 0.6,0.6 0 0 0 0.675,-0.2 L 16.407,33.152 a 0.94,0.94 0 0 1 1.053,-0.316 1.025,1.025 0 0 1 0.67,0.978 V 51.5 a 1.5,1.5 0 0 0 0.253,0.871 0.973,0.973 0 0 0 0.817,0.45 h 3.961 a 0.857,0.857 0 0 0 0.773,-0.411 l 15.34,-19.306 a 0.95,0.95 0 0 1 1.053,-0.316 1.025,1.025 0 0 1 0.67,0.978 v 17.7 a 1.505,1.505 0 0 0 0.356,1.022 1,1 0 0 0 0.755,0.336 H 45.3 a 1.1,1.1 0 0 0 0.733,-0.266 1.291,1.291 0 0 0 0.43,-1.01 V 23.213 a 1.321,1.321 0 0 0 -0.345,-0.916 1.008,1.008 0 0 0 -0.766,-0.359"
         transform="translate(0,-6.873)"
         fill="#ffffff" />
      <path
         id="Caminho_197"
         data-name="Caminho 197"
         d="m 32.745,7.4 c 0.751,0 1.129,-0.306 1.129,-0.91 0,-0.545 -0.339,-0.817 -1.022,-0.817 H 28.646 A 0.13,0.13 0 0 0 28.5,5.826 v 1.426 c -0.007,0.1 0.047,0.146 0.146,0.146 z M 32.214,4.046 c 0.6,0 1,-0.325 1,-0.83 0,-0.505 -0.306,-0.738 -0.917,-0.738 H 28.646 A 0.129,0.129 0 0 0 28.5,2.63 v 1.262 a 0.129,0.129 0 0 0 0.146,0.153 z M 26.607,9.538 A 0.391,0.391 0 0 1 26.202,9.133 v -8.37 a 0.391,0.391 0 0 1 0.405,-0.405 h 6.1 c 1.833,0 2.856,0.8 2.856,2.272 a 2.133,2.133 0 0 1 -1.009,1.94 c -0.087,0.073 -0.087,0.126 0.013,0.165 a 2.126,2.126 0 0 1 1.66,2.106 c 0,1.8 -1.149,2.7 -3.088,2.7 z"
         transform="translate(-8.209,-0.112)"
         fill="#ffffff" />
      <path
         id="Caminho_198"
         data-name="Caminho 198"
         d="m 49.385,6.283 c 0.126,0 0.167,-0.06 0.119,-0.179 L 48.01,2.69 c -0.033,-0.126 -0.152,-0.126 -0.206,0 L 46.336,6.1 c -0.027,0.119 0.013,0.179 0.126,0.179 z m -6.323,3.249 a 0.434,0.434 0 0 1 -0.4,-0.206 0.441,0.441 0 0 1 -0.027,-0.445 l 3.714,-8.33 a 0.343,0.343 0 0 1 0.339,-0.212 h 2.451 a 0.315,0.315 0 0 1 0.325,0.212 l 3.753,8.33 A 0.445,0.445 0 0 1 52.799,9.532 H 51.138 A 0.334,0.334 0 0 1 50.799,9.286 l -0.438,-1 A 0.178,0.178 0 0 0 50.188,8.173 h -4.516 a 0.183,0.183 0 0 0 -0.179,0.113 l -0.432,1 a 0.34,0.34 0 0 1 -0.345,0.246 z"
         transform="translate(-13.344,-0.106)"
         fill="#ffffff" />
      <path
         id="Caminho_199"
         data-name="Caminho 199"
         d="m 70.236,0.358 a 0.387,0.387 0 0 1 0.405,0.405 v 8.37 a 0.391,0.391 0 0 1 -0.405,0.405 h -1.8 a 0.289,0.289 0 0 1 -0.26,-0.119 l -4.742,-5.5 C 63.361,3.813 63.241,3.846 63.241,3.985 v 5.148 a 0.391,0.391 0 0 1 -0.405,0.405 h -1.488 a 0.39,0.39 0 0 1 -0.4,-0.405 v -8.37 a 0.39,0.39 0 0 1 0.4,-0.405 h 1.8 a 0.314,0.314 0 0 1 0.259,0.106 l 4.729,5.493 c 0.093,0.093 0.192,0.06 0.192,-0.079 V 0.763 a 0.392,0.392 0 0 1 0.406,-0.405 z"
         transform="translate(-19.094,-0.112)"
         fill="#ffffff" />
      <path
         id="Caminho_200"
         data-name="Caminho 200"
         d="m 88.575,6.961 a 0.385,0.385 0 0 1 0.087,0.571 5.942,5.942 0 0 1 -5.049,2.139 q -5.4,0 -5.4,-4.61 V 4.6 q 0,-4.594 5.4,-4.6 3.428,0 4.9,1.9 a 0.386,0.386 0 0 1 -0.066,0.558 l -1.13,0.97 A 0.481,0.481 0 0 1 86.606,3.362 3.8,3.8 0 0 0 83.617,2.173 q -3.039,0 -3.035,2.411 v 0.505 q 0,2.4 3.035,2.4 a 3.707,3.707 0 0 0 3.129,-1.275 0.475,0.475 0 0 1 0.7,-0.1 z"
         transform="translate(-24.505)"
         fill="#ffffff" />
      <path
         id="Caminho_201"
         data-name="Caminho 201"
         d="m 103.239,6.928 a 2.019,2.019 0 0 0 0.889,-1.84 V 4.583 q 0,-2.4 -3.247,-2.411 a 4.39,4.39 0 0 0 -2.259,0.512 2.058,2.058 0 0 0 -0.97,1.9 v 0.505 a 2,2 0 0 0 0.9,1.84 4.265,4.265 0 0 0 2.332,0.564 4.33,4.33 0 0 0 2.358,-0.564 M 95.288,5.062 V 4.6 c 0,-3.009 1.873,-4.6 5.593,-4.6 3.74,0 5.612,1.588 5.612,4.6 v 0.465 c 0,3.029 -1.873,4.61 -5.612,4.61 -3.739,0 -5.593,-1.535 -5.593,-4.61"
         transform="translate(-29.855)"
         fill="#ffffff" />
    </g>
  </g>
</svg>
