<?xml version="1.0" encoding="UTF-8" standalone="no"?>
<svg
   width="2500"
   height="2500"
   viewBox="0 0 2500 2500"
   fill="none"
   version="1.1"
   id="svg32"
   sodipodi:docname="grafeno.svg"
   inkscape:version="1.2.2 (732a01da63, 2022-12-09)"
   xmlns:inkscape="http://www.inkscape.org/namespaces/inkscape"
   xmlns:sodipodi="http://sodipodi.sourceforge.net/DTD/sodipodi-0.dtd"
   xmlns="http://www.w3.org/2000/svg"
   xmlns:svg="http://www.w3.org/2000/svg">
  <defs
     id="defs36" />
  <sodipodi:namedview
     id="namedview34"
     pagecolor="#505050"
     bordercolor="#eeeeee"
     borderopacity="1"
     inkscape:showpageshadow="0"
     inkscape:pageopacity="0"
     inkscape:pagecheckerboard="0"
     inkscape:deskcolor="#505050"
     showgrid="false"
     inkscape:zoom="0.0625"
     inkscape:cx="3680"
     inkscape:cy="-1872"
     inkscape:window-width="1920"
     inkscape:window-height="1009"
     inkscape:window-x="-8"
     inkscape:window-y="-8"
     inkscape:window-maximized="1"
     inkscape:current-layer="svg32" />
  <path
     d="m 998.30758,995.15958 c 0,-89.42963 72.52492,-162.31511 161.77432,-162.31511 h 467.6748 c 0,0 41.4477,0 70.7111,41.44203 29.4438,41.44204 502.7572,697.2481 502.7572,697.2481 0,0 62.5264,100.5153 0,187.2186 -62.5263,86.6976 -497.1241,691.7897 -497.1241,691.7897 0,0 -33.0827,47.0807 -82.7039,47.0807 h -462.2276 c -89.0635,0 -161.76874,-72.8912 -161.76874,-162.3152 V 995.15958 Z"
     fill="#fcc23d"
     id="path24"
     style="stroke-width:56.3301" />
  <path
     d="m 1462.3491,1502.4626 c 0,89.4296 -72.525,162.3151 -161.7687,162.3151 H 832.89994 c 0,0 -41.44202,0 -70.7055,-41.442 -29.44598,-41.442 -503.66856,-697.24806 -503.66856,-697.24806 0,0 -62.5269,-100.51539 0,-187.21864 62.52689,-86.69762 497.1247,-691.791927 497.1247,-691.791927 0,0 33.08096,-47.077073 82.70211,-47.077073 h 462.22771 c 89.0634,0 161.7687,72.887514 161.7687,162.31545 z"
     fill="#fcc23d"
     id="path26"
     style="stroke-width:56.3301" />
  <path
     d="m 1160.0876,831.93192 c -89.0635,0 -161.77439,72.88548 -161.77439,162.31511 V 1822.547 H 1463.2672 V 831.93192 Z"
     fill="#f94144"
     id="path28"
     style="stroke-width:56.3301" />
  <path
     d="m 1462.3603,1833.6328 c 0,-91.2435 -72.5249,-165.9484 -161.7687,-168.8551 H 998.31321 v 663.2585 c 0,-57.2595 27.62989,-107.0609 70.71109,-137.4172 0,0 3.6333,-3.6333 6.3597,-4.5402 l 311.5447,-212.1222 c 45.0754,-30.3562 75.4316,-82.1574 75.4316,-141.0505 v 0.9126 z"
     fill="#ff7c1e"
     id="path30"
     style="stroke-width:56.3301" />
</svg>
