<?xml version="1.0" encoding="UTF-8" standalone="no"?>
<svg
   id="Layer_1"
   data-name="Layer 1"
   viewBox="0 0 2499.9999 2500.0001"
   version="1.1"
   sodipodi:docname="store.svg"
   width="2500"
   height="2500"
   inkscape:version="1.2.2 (732a01da63, 2022-12-09)"
   xmlns:inkscape="http://www.inkscape.org/namespaces/inkscape"
   xmlns:sodipodi="http://sodipodi.sourceforge.net/DTD/sodipodi-0.dtd"
   xmlns="http://www.w3.org/2000/svg"
   xmlns:svg="http://www.w3.org/2000/svg">
  <sodipodi:namedview
     id="namedview35"
     pagecolor="#505050"
     bordercolor="#eeeeee"
     borderopacity="1"
     inkscape:showpageshadow="0"
     inkscape:pageopacity="0"
     inkscape:pagecheckerboard="0"
     inkscape:deskcolor="#505050"
     showgrid="false"
     inkscape:zoom="0.10806802"
     inkscape:cx="-999.3706"
     inkscape:cy="1434.2819"
     inkscape:window-width="1920"
     inkscape:window-height="1009"
     inkscape:window-x="-8"
     inkscape:window-y="-8"
     inkscape:window-maximized="1"
     inkscape:current-layer="Layer_1" />
  <defs
     id="defs4">
    <style
       id="style2">.cls-1{fill:#001e27;}.cls-2{fill:#00e2f4;}</style>
  </defs>
  <path
     class="cls-2"
     d="m 0.55537054,1245.8533 c 0,722.0253 554.77838946,1205.2466 1248.46182946,1205.2466 693.6835,0 1248.1812,-483.2213 1248.1812,-1205.2466 0,-349.64826 -125.4355,-663.37701 -316.8159,-858.12513 -584.2429,-593.50341 -1092.7197,-259.00882 -1218.15517,37.88325 -24.41356,58.36837 -10.94402,109.72107 65.10297,148.72667 l 1015.831,636.15731 a 64.261127,64.261127 0 0 1 0,112.2466 L 808.44966,1928.5924 a 64.261127,64.261127 0 0 1 -94.5677,-56.123 V 815.38754 c 0,-396.79148 45.45983,-542.15058 79.13382,-637.84061 25.536,-72.11854 -11.78593,-96.251611 -63.69993,-70.1542 C 640.92173,151.73007 0.55537054,572.6543 0.55537054,1245.8533 Z"
     id="path20"
     style="stroke-width:28.0616" />
</svg>
