<?xml version="1.0" encoding="UTF-8" standalone="no"?>
<svg
   id="Layer_1"
   data-name="Layer 1"
   viewBox="0 0 2499.9999 2500.0001"
   version="1.1"
   sodipodi:docname="omie-nome.svg"
   width="2500"
   height="2500"
   inkscape:version="1.2.2 (732a01da63, 2022-12-09)"
   xmlns:inkscape="http://www.inkscape.org/namespaces/inkscape"
   xmlns:sodipodi="http://sodipodi.sourceforge.net/DTD/sodipodi-0.dtd"
   xmlns="http://www.w3.org/2000/svg"
   xmlns:svg="http://www.w3.org/2000/svg">
  <sodipodi:namedview
     id="namedview35"
     pagecolor="#505050"
     bordercolor="#eeeeee"
     borderopacity="1"
     inkscape:showpageshadow="0"
     inkscape:pageopacity="0"
     inkscape:pagecheckerboard="0"
     inkscape:deskcolor="#505050"
     showgrid="false"
     inkscape:zoom="0.21613604"
     inkscape:cx="689.38064"
     inkscape:cy="1337.1208"
     inkscape:window-width="1920"
     inkscape:window-height="1009"
     inkscape:window-x="-8"
     inkscape:window-y="-8"
     inkscape:window-maximized="1"
     inkscape:current-layer="Layer_1" />
  <defs
     id="defs4">
    <style
       id="style2">.cls-1{fill:#001e27;}.cls-2{fill:#00e2f4;}</style>
  </defs>
  <path
     class="cls-2"
     d="m 1811.3235,1080.0687 h 3.4737 a 16.619205,16.619205 0 0 1 16.6191,16.6191 v 529.2264 a 16.619205,16.619205 0 0 1 -16.6191,16.6192 h -107.3437 a 16.619205,16.619205 0 0 1 -16.6192,-16.6192 v -474.056 a 16.619205,16.619205 0 0 1 8.7863,-14.644 l 103.9381,-55.2384 a 16.959763,16.959763 0 0 1 7.7648,-1.9071 z"
     id="path14"
     style="stroke-width:6.81115" />
  <path
     class="cls-2"
     d="m 1690.8343,915.98804 v 86.50156 a 16.619205,16.619205 0 0 0 24.2476,14.7803 l 107.4118,-55.71528 a 16.755429,16.755429 0 0 0 8.9226,-14.78019 v -30.78639 a 16.619205,16.619205 0 0 0 -16.6191,-16.61921 h -107.3437 a 16.619205,16.619205 0 0 0 -16.6192,16.61921 z"
     id="path16"
     style="stroke-width:6.81115" />
  <path
     class="cls-2"
     d="m 2362.4818,1489.2825 a 16.755429,16.755429 0 0 0 -19.3437,2.7925 177.49857,177.49857 0 0 1 -129.4119,52.0373 c -78.4645,0 -141.74,-50.4025 -151.1394,-133.6348 h 412.2789 a 16.619205,16.619205 0 0 0 16.6192,-16.6191 v -22.0001 c 0,-195.6844 -106.6626,-305.8887 -263.6596,-305.8887 -169.9382,0 -305.8206,118.3777 -305.8206,295.3314 0,176.9537 135.8824,295.2634 305.8206,295.2634 82.7555,0 160.4707,-27.2446 223.6782,-96.1054 a 16.619205,16.619205 0 0 0 -4.3592,-26.0186 z M 2208.141,1171.4743 c 87.932,0 141.8082,51.5603 143.0342,133.5667 h -288.316 c 10.5573,-80.8484 62.1177,-133.5667 145.2818,-133.5667 z"
     id="path18"
     style="stroke-width:6.81115" />
  <path
     class="cls-2"
     d="m 7.7991168,1359.0534 c 0,175.2508 134.6564332,292.5388 303.0280632,292.5388 168.37163,0 302.95995,-117.288 302.95995,-292.5388 0,-84.867 -30.44584,-161.0156 -76.89789,-208.2851 -141.80814,-144.0558 -265.22618,-62.8669 -295.67202,9.1951 -5.92569,14.1672 -2.65635,26.6316 15.80187,36.0991 l 246.56363,154.4088 a 15.597533,15.597533 0 0 1 0,27.2446 l -299.69059,147.0527 a 15.597533,15.597533 0 0 1 -22.95358,-13.6222 v -256.5761 c 0,-96.3097 11.03406,-131.5914 19.20745,-154.8174 6.19813,-17.5047 -2.86069,-23.3623 -15.46132,-17.0279 -21.45512,10.7616 -176.8855632,112.9288 -176.8855632,276.3284 z"
     id="path20"
     style="stroke-width:6.81115" />
  <path
     class="cls-2"
     d="m 1373.7071,1065.8333 a 315.96924,315.96924 0 0 0 -202.4274,71.9939 c -32.8297,-48.291 -86.2973,-71.9939 -158.4954,-71.9939 -64.36538,0 -127.57285,19.0713 -172.25399,71.9939 h -2.3158 l -105.36848,-55.9876 a 23.498467,23.498467 0 0 0 -11.57896,-1.9072 16.619205,16.619205 0 0 0 -16.61921,16.6192 v 529.2263 a 16.619205,16.619205 0 0 0 16.61921,16.6193 H 828.6108 a 16.619205,16.619205 0 0 0 16.6192,-16.6193 v -290.2911 c 0,-74.9226 36.30343,-143.0342 128.86698,-143.0342 68.11142,0 96.10532,45.7028 96.10532,114.836 v 318.5574 a 16.687317,16.687317 0 0 0 16.6191,16.6193 h 107.4119 a 16.687317,16.687317 0 0 0 16.6192,-16.6193 v -287.9754 c 0,-72.6749 32.7616,-145.3499 120.6936,-145.3499 83.1641,0 104.2787,61.3004 104.2787,131.2509 v 302.1426 a 16.619205,16.619205 0 0 0 16.6192,16.6192 h 107.3437 a 16.619205,16.619205 0 0 0 16.6192,-16.6192 v -318.5575 c 0,-134.7245 -52.7183,-241.5234 -202.6998,-241.5234 z"
     id="path22"
     style="stroke-width:6.81115" />
</svg>
