<?xml version="1.0" encoding="UTF-8" standalone="no"?>
<svg
   viewBox="0 0 2500 2499.9999"
   version="1.1"
   id="svg22"
   sodipodi:docname="pagseguro.svg"
   width="2500"
   height="2500"
   inkscape:version="1.2.2 (732a01da63, 2022-12-09)"
   xmlns:inkscape="http://www.inkscape.org/namespaces/inkscape"
   xmlns:sodipodi="http://sodipodi.sourceforge.net/DTD/sodipodi-0.dtd"
   xmlns="http://www.w3.org/2000/svg"
   xmlns:svg="http://www.w3.org/2000/svg">
  <sodipodi:namedview
     id="namedview24"
     pagecolor="#505050"
     bordercolor="#eeeeee"
     borderopacity="1"
     inkscape:showpageshadow="0"
     inkscape:pageopacity="0"
     inkscape:pagecheckerboard="0"
     inkscape:deskcolor="#505050"
     showgrid="false"
     inkscape:zoom="0.1118101"
     inkscape:cx="-518.73667"
     inkscape:cy="2244.8776"
     inkscape:window-width="1920"
     inkscape:window-height="1009"
     inkscape:window-x="-8"
     inkscape:window-y="-8"
     inkscape:window-maximized="1"
     inkscape:current-layer="svg22" />
  <defs
     id="defs4">
    <style
       id="style2">.a{fill:#dde460;}.b{fill:#a7dcda;}.c{fill:#f6df3f;}</style>
  </defs>
  <path
     d="M 609.99394,1151.7423 C 542.96372,989.45181 357.34157,912.3155 195.66984,979.47462 33.998107,1046.6337 -42.803055,1232.6168 24.252945,1394.9331 c 67.056,162.3162 252.652365,239.401 414.298315,172.2419 161.64595,-67.1592 238.52446,-253.1422 171.44268,-415.4327 z"
     id="path6"
     style="stroke-width:2.57809" />
  <path
     d="M 431.02325,997.88215 C 279.38027,934.9253 105.46263,1007.2406 42.583132,1159.3992 c -62.879502,152.1586 9.100641,326.5145 160.717838,389.4456 151.6172,62.931 325.53484,-9.3327 388.41434,-161.4913 62.8795,-152.1586 -9.07486,-326.5661 -160.69206,-389.47135 z"
     id="path8"
     style="stroke-width:2.57809" />
  <path
     class="a"
     d="m 580.68111,1230.2192 c 0,-146.229 -117.97319,-264.53734 -263.58345,-264.53734 -145.61026,0 -263.454542,118.30834 -263.454542,264.53734 0,146.229 117.973182,264.5373 263.454542,264.5373 145.48136,0 263.58345,-118.4372 263.58345,-264.5373 z"
     id="path10"
     style="stroke-width:2.57809" />
  <path
     d="m 317.09766,1501.64 c -151.0758,0 -273.534856,-122.8457 -273.534856,-274.5403 0,-151.6945 122.459056,-274.59185 273.534856,-274.59185 151.0758,0 273.56064,122.94885 273.56064,274.59185 0,151.643 -122.45906,274.5403 -273.56064,274.5403 z m 0,-528.81684 A 254.79217,254.79217 0 1 0 570.75548,1227.0997 C 570.67813,1086.5683 457.16504,972.53957 317.09766,972.38488 Z"
     id="path12"
     style="stroke-width:2.57809" />
  <path
     class="b"
     d="m 491.76294,1351.3634 c 0,-121.17 -97.96724,-219.6013 -218.77632,-219.6013 -120.80908,0 -218.853666,98.3282 -218.853666,219.6013 0,121.2732 97.967246,219.5756 218.750546,219.5756 120.78329,0 218.77632,-98.3282 218.77632,-219.5756 z"
     id="path14"
     style="stroke-width:2.57809" />
  <path
     d="m 273.45067,1580.9419 a 229.4496,229.4496 0 0 1 -48.39066,-5.1561 C 101.59551,1549.283 22.963902,1427.2623 49.440839,1303.3079 a 228.65039,228.65039 0 0 1 271.472391,-176.341 c 123.51606,26.5543 202.14767,148.5493 175.74807,272.5036 a 229.01132,229.01132 0 0 1 -222.90126,181.4714 z m -0.51561,-439.2542 a 209.54678,209.54678 0 1 0 162.41937,77.884 209.21163,209.21163 0 0 0 -162.41937,-77.884 z"
     id="path16"
     style="stroke-width:2.57809" />
  <path
     class="c"
     d="M 599.78472,1360.593 A 135.71041,135.71041 0 1 0 464.04852,1496.8448 135.94244,135.94244 0 0 0 599.75894,1360.593 Z"
     id="path18"
     style="stroke-width:2.57809" />
  <path
     d="M 464.04852,1506.7962 A 146.20322,146.20322 0 1 1 609.68457,1360.593 145.91963,145.91963 0 0 1 464.04852,1506.7962 Z m 0,-272.4521 a 126.32618,126.32618 0 1 0 125.78479,126.3262 125.81056,125.81056 0 0 0 -125.78479,-126.3262 z m 396.76734,54.1398 h -47.90083 l -19.46454,92.5017 h -54.73275 l 53.21168,-249.868 h 103.12341 c 41.94545,0 70.58798,29.3902 70.58798,63.292 -0.0773,67.0044 -53.46949,93.997 -104.79917,93.997 z m 6.75458,-120.6544 h -29.18392 l -18.0466,83.9941 h 18.7169 c 36.71193,0 70.66532,-8.3273 70.66532,-52.1547 0.0773,-19.9544 -20.77937,-31.9167 -42.12592,-31.9167 z m 272.42626,146.3837 a 352.60473,352.60473 0 0 0 -8.9975,66.6951 h -52.8507 c 0.7734,-9.3327 4.1765,-26.9926 7.167,-44.1626 -13.5091,24.3113 -35.5002,48.3133 -72.3153,48.3133 -37.84626,0 -56.97565,-25.3684 -56.97565,-59.9405 0,-84.3292 75.33165,-136.4323 147.10555,-136.4323 21.7333,0 49.8602,3.764 62.9311,8.6366 z m -46.8954,-90.6712 c -43.1055,0 -82.4987,45.6321 -82.4987,95.9563 0,16.8349 5.9812,30.7308 25.3684,30.7308 26.2191,0 51.3039,-36.0932 61.874,-81.1582 l 10.1319,-43.4665 a 42.306381,42.306381 0 0 0 -14.9013,-2.0624 z m 247.4962,132.2557 c -16.8349,75.7184 -44.6008,110.1616 -127.7441,110.1616 a 209.80459,209.80459 0 0 1 -65.2255,-10.3123 l 9.9256,-37.2791 a 112.68811,112.68811 0 0 0 53.9593,12.8904 c 46.818,0 64.8131,-24.7238 73.4497,-59.9663 l 5.9811,-24.698 c -18.0466,24.0019 -36.7119,34.4432 -67.8036,34.4432 -38.6713,0 -57.3624,-23.9504 -57.3624,-55.7898 0,-84.6901 77.1879,-136.0198 149.168,-136.0198 a 236.7198,236.7198 0 0 1 60.9202,8.1984 z m -36.7119,-131.8432 c -43.1056,0 -83.1948,44.2141 -83.1948,96.6524 0,16.8349 5.9812,29.2097 24.3629,29.2097 35.2424,0 54.707,-44.936 62.5701,-78.2965 l 10.8538,-45.1422 a 50.14376,50.14376 0 0 0 -14.592,-2.4234 z m 256.5453,-47.1532 a 120.113,120.113 0 0 0 -51.7422,-12.3748 c -22.816,0 -56.9499,10.4928 -56.9499,36.351 0,36.3252 98.9469,30.7565 98.9469,99.6687 0,54.7328 -51.7422,84.6901 -115.0342,84.6901 a 224.00984,224.00984 0 0 1 -73.0887,-10.9053 l 13.1483,-40.5532 a 127.12539,127.12539 0 0 0 61.5131,13.999 c 26.6316,-0.361 56.2022,-12.3748 56.2022,-40.1408 0,-39.29 -98.1219,-35.1909 -98.1219,-98.5344 0,-59.528 59.528,-81.648 116.6326,-81.648 a 172.73172,172.73172 0 0 1 61.4615,11.2147 z m 59.2959,124.7535 a 55.867109,55.867109 0 0 0 -2.578,17.6083 c 0,25.3684 19.4645,35.5003 42.3321,35.5003 a 111.52797,111.52797 0 0 0 57.6718,-17.2474 l -1.8305,33.3862 a 162.00688,162.00688 0 0 1 -71.5934,14.592 c -40.8369,0 -79.4308,-17.6341 -79.4308,-63.7045 0,-74.584 56.7179,-132.2558 123.284,-132.2558 30.4215,0 64.8131,10.8537 64.8131,45.3227 0.2063,58.9608 -85.6182,66.7982 -132.6167,66.7982 z m 63.292,-82.0347 c -28.3589,0 -48.9836,29.5965 -58.4194,53.9336 33.7214,0 80.9003,-5.9812 80.9003,-35.5002 0.4383,-13.9217 -9.6936,-18.4591 -22.2746,-18.4591 z m 242.3401,136.355 c -16.8607,75.7183 -44.5494,110.1616 -127.7957,110.1616 a 209.59834,209.59834 0 0 1 -65.174,-10.3124 l 10.1576,-37.1502 a 112.61077,112.61077 0 0 0 53.9594,12.8904 c 46.8438,0 64.813,-24.7238 73.4238,-59.9662 l 6.0327,-24.6981 c -18.0466,24.002 -36.7119,34.4432 -67.8552,34.4432 -38.6712,0 -57.285,-23.9504 -57.285,-55.7897 0,-84.6901 77.1621,-136.0198 149.0907,-136.0198 a 236.90026,236.90026 0 0 1 60.8686,7.9921 z m -36.712,-131.8433 c -43.1056,0 -83.169,44.2142 -83.169,96.6524 0,16.8349 5.9812,29.2097 24.3371,29.2097 35.2167,0 54.6812,-44.936 62.5959,-78.2964 l 10.8538,-45.1423 a 49.653924,49.653924 0 0 0 -14.6436,-2.4234 z m 244.2994,114.6474 a 419.91854,419.91854 0 0 0 -7.1413,42.3064 h -48.3391 l 5.1562,-33.6698 c -16.1131,22.0684 -36.0932,37.8205 -67.0303,37.8205 -30.937,0 -51.5617,-15.2107 -51.5617,-46.4055 a 104.67027,104.67027 0 0 1 1.8563,-21.3981 l 26.58,-124.7535 h 51.7422 l -23.4864,113.4357 a 94.048553,94.048553 0 0 0 -2.9905,19.4903 c 0,14.2568 6.7545,24.7497 24.7496,24.7497 28.1011,0 41.2493,-25.7809 46.4055,-49.8602 l 23.2028,-107.9187 h 51.5617 z m 168.9935,-100.8289 a 43.131368,43.131368 0 0 0 -15.2107,-2.5781 c -34.1339,0 -53.2117,33.0253 -59.6053,63.0085 l -17.5826,82.7565 h -52.1289 l 30.937,-146.1259 a 413.34442,413.34442 0 0 0 7.5281,-41.5845 h 48.6742 l -7.0897,38.6713 c 11.6014,-23.2028 34.4948,-43.1056 61.4615,-43.1056 a 50.556254,50.556254 0 0 1 14.9529,1.882 z m 75.6668,147.286 c -41.5845,0 -79.9207,-22.8676 -79.9207,-68.2161 0,-72.6762 46.8439,-127.7441 121.4021,-127.7441 41.5845,0 79.4308,22.12 79.4308,67.8036 0,71.9286 -47.5915,128.1566 -121.0153,128.1566 z m 32.6128,-161.1045 c -38.6713,0 -58.0585,54.6554 -58.0585,87.2682 0,22.4809 8.6108,39.0064 32.9479,39.0064 37.8463,0 59.6054,-55.0679 59.6054,-87.3455 0,-22.5325 -10.1577,-39.0064 -34.4948,-39.0064 z"
     id="path20"
     style="stroke-width:2.57809" />
</svg>
