<?xml version="1.0" encoding="UTF-8" standalone="no"?>
<svg
   version="1.1"
   id="svg2"
   x="0"
   y="0"
   viewBox="0 0 2500 2500.0001"
   xml:space="preserve"
   sodipodi:docname="banestes-nome.svg"
   width="2500"
   height="2500"
   inkscape:version="1.2.2 (732a01da63, 2022-12-09)"
   xmlns:inkscape="http://www.inkscape.org/namespaces/inkscape"
   xmlns:sodipodi="http://sodipodi.sourceforge.net/DTD/sodipodi-0.dtd"
   xmlns="http://www.w3.org/2000/svg"
   xmlns:svg="http://www.w3.org/2000/svg"><defs
     id="defs14" /><sodipodi:namedview
     id="namedview12"
     pagecolor="#505050"
     bordercolor="#eeeeee"
     borderopacity="1"
     inkscape:showpageshadow="0"
     inkscape:pageopacity="0"
     inkscape:pagecheckerboard="0"
     inkscape:deskcolor="#505050"
     showgrid="false"
     inkscape:zoom="0.15325"
     inkscape:cx="965.74225"
     inkscape:cy="1442.0881"
     inkscape:window-width="1920"
     inkscape:window-height="1009"
     inkscape:window-x="-8"
     inkscape:window-y="-8"
     inkscape:window-maximized="1"
     inkscape:current-layer="svg2" /><style
     id="style2">.st2{fill-rule:evenodd;clip-rule:evenodd;fill:#004b8d}</style><g
     id="Layer1000"
     transform="matrix(0.47673396,0,0,-0.47673396,714.67696,1506.0151)"><path
       id="path2"
       d="m -600.6,718.4 -895.1,-521.9 302.7,-506.2 809,276.5 C -257.9,9.9 -94.8,187 -157.4,426.5 -212,635.7 -412.1,725.9 -600.6,718.4 Z"
       style="clip-rule:evenodd;fill:#007dc3;fill-rule:evenodd" /><path
       id="path4"
       d="m -600.6,718.4 -895.1,-521.9 v 1229.6 h 608 c 204.9,0 373.8,-102 425.9,-278 55.6,-188.2 -48,-376.8 -138.8,-429.7 z"
       style="clip-rule:evenodd;fill:#78bde8;fill-rule:evenodd" /><path
       id="path6"
       class="st2"
       d="m 146.9,145.8 c 57.9,-3.3 134.8,-2.4 192.3,-0.2 203.3,7.9 233.4,175.1 173,254.6 -17.7,23.3 -30.8,25.3 -54.4,44.6 l 24.1,21.5 c 56.5,54.7 59.2,164.9 -14.1,218.5 -70.1,51.3 -218.4,45.2 -319.2,41.4 z m 984.6,0.2 105.6,-0.6 1.2,364.6 c 17.4,-14.7 52.4,-67.3 69,-90.4 l 203,-277.5 74.7,-0.1 0.9,583.8 -104,0.7 c -9.3,-32.4 2.2,-281.4 -3.6,-350 -19.8,20.1 -46.2,60.2 -63.8,84.7 l -194.9,265 -86,0.2 z m -576.2,0.1 111.2,-0.5 c 9.9,28.6 19.7,58.2 28.7,86.4 6.1,19.2 19.3,76.7 33.9,85.7 l 180.6,-0.6 56.6,-171.8 h 116.2 c -2.9,25.3 -130.8,377.6 -150.4,433.1 -16,45.3 -39.7,102.6 -50.8,146.8 l -128,0.7 z m 2402.3,14.6 c 69.3,-18 280.1,-66.2 350.9,-51.1 l 0.2,98.1 c -64.1,13.6 -142.4,5.9 -241.5,38 l -1.2,144.3 173.4,1.9 0.4,96.7 -173.4,1.7 -0.4,134.2 224.5,1.7 1,99.5 -333.8,0.4 z M 1701.2,145.3 h 332.6 l 1.4,99.4 -223.2,0.8 -0.8,143.4 c 25.6,8.2 136.3,1.4 173.4,3.4 l 0.5,97.1 -173,0.8 -0.8,136 h 222.8 l 0.9,99.5 -333.9,0.5 z m 1667.7,64.6 0.1,-101.5 c 93,-7.1 217.8,14.6 283.5,55.7 67.3,42.1 122.8,134.7 59.3,230.1 -47.8,71.8 -140.6,82.4 -207.5,133.4 -38.5,29.4 -40.9,84 9.9,104.1 57.1,22.6 94.9,-14 129,-30.1 16.1,20.2 57,52.6 66.5,75.2 -37.2,25.1 -56.6,46.9 -119.5,56.6 -52.8,8.1 -108.9,-2.8 -147.6,-25.8 -78.9,-46.9 -109.4,-161.8 -35.3,-244.3 22.2,-24.7 68.1,-49.3 109,-67.8 37.7,-17.1 94.8,-37.7 102.7,-78.7 19.8,-103.2 -169.5,-98.5 -250.1,-106.9 z m -1203.2,67.3 c -16.6,-9.3 -64.3,-57.7 -70.2,-75.7 34,-25.8 57.7,-45.1 114.3,-58.5 203.2,-48.3 303.3,124.4 242.5,239.3 -42.6,80.3 -153.3,102.2 -209.2,144.2 -37.1,27.8 -44.3,83.6 7.1,105 50.7,21.1 101.3,-8.6 140.3,-21.1 l 0.8,106.2 c -245,82.5 -369.8,-135.1 -233.8,-263.4 49,-46.2 170.7,-77.3 195.9,-124.4 39.8,-74.1 -83.6,-137.8 -187.7,-51.6 z m 311.9,349.6 144,-0.7 0.4,-483.7 108.8,-0.6 1.5,484 143.6,0.5 0.9,99.4 -399.2,0.5 z M 255.4,241.9 c 183.7,-37 221,114 118.7,147.1 -25,8.1 -94,13.2 -118.6,4.8 z m 0,241.4 c 70,-0.3 154.8,-2.1 158.1,72.7 3.6,82 -89.9,75.6 -157.7,75.4 z m 497.9,-71.9 125.2,-0.5 c -4.1,25.7 -33.4,108.7 -44.4,143.1 -5.6,17.4 -9.6,37.9 -20.1,48.9 z" /><path
       id="path8"
       d="M -1193,-309.8 V 718.4 h 592.4"
       style="fill:none" /><path
       id="path10"
       d="M -1193,-309.8 V 373 l -302.7,-176.5 z"
       style="clip-rule:evenodd;fill:#51b948;fill-rule:evenodd" /><path
       id="path12"
       class="st2"
       d="m -1193,373 592.4,345.4 H -1193 Z" /></g></svg>
