<?xml version="1.0" encoding="UTF-8" standalone="no"?>
<svg
   version="1.1"
   id="svg2"
   x="0"
   y="0"
   viewBox="0 0 2500 2500.0001"
   xml:space="preserve"
   sodipodi:docname="banestes.svg"
   width="2500"
   height="2500"
   inkscape:version="1.2.2 (732a01da63, 2022-12-09)"
   xmlns:inkscape="http://www.inkscape.org/namespaces/inkscape"
   xmlns:sodipodi="http://sodipodi.sourceforge.net/DTD/sodipodi-0.dtd"
   xmlns="http://www.w3.org/2000/svg"
   xmlns:svg="http://www.w3.org/2000/svg"><defs
     id="defs14" /><sodipodi:namedview
     id="namedview12"
     pagecolor="#505050"
     bordercolor="#eeeeee"
     borderopacity="1"
     inkscape:showpageshadow="0"
     inkscape:pageopacity="0"
     inkscape:pagecheckerboard="0"
     inkscape:deskcolor="#505050"
     showgrid="false"
     inkscape:zoom="0.054182057"
     inkscape:cx="-4115.7537"
     inkscape:cy="-627.51401"
     inkscape:window-width="1920"
     inkscape:window-height="1009"
     inkscape:window-x="-8"
     inkscape:window-y="-8"
     inkscape:window-maximized="1"
     inkscape:current-layer="svg2" /><style
     id="style2">.st2{fill-rule:evenodd;clip-rule:evenodd;fill:#004b8d}</style><g
     id="Layer1000"
     transform="matrix(1.4397998,0,0,-1.4397998,2592.8834,2053.5869)"><path
       id="path2"
       d="m -600.6,718.4 -895.1,-521.9 302.7,-506.2 809,276.5 C -257.9,9.9 -94.8,187 -157.4,426.5 -212,635.7 -412.1,725.9 -600.6,718.4 Z"
       style="clip-rule:evenodd;fill:#007dc3;fill-rule:evenodd" /><path
       id="path4"
       d="m -600.6,718.4 -895.1,-521.9 v 1229.6 h 608 c 204.9,0 373.8,-102 425.9,-278 55.6,-188.2 -48,-376.8 -138.8,-429.7 z"
       style="clip-rule:evenodd;fill:#78bde8;fill-rule:evenodd" /><path
       id="path8"
       d="M -1193,-309.8 V 718.4 h 592.4"
       style="fill:none" /><path
       id="path10"
       d="M -1193,-309.8 V 373 l -302.7,-176.5 z"
       style="clip-rule:evenodd;fill:#51b948;fill-rule:evenodd" /><path
       id="path12"
       class="st2"
       d="m -1193,373 592.4,345.4 H -1193 Z" /></g></svg>
