<?xml version="1.0" encoding="UTF-8" standalone="no"?>
<svg
   fill="none"
   class="undefined icon icon--banco-color fill-white"
   viewBox="0 0 2500 2500"
   data-testid="icon"
   version="1.1"
   id="svg3237"
   sodipodi:docname="inter.svg"
   width="2500"
   height="2500"
   inkscape:version="1.2.2 (732a01da63, 2022-12-09)"
   xmlns:inkscape="http://www.inkscape.org/namespaces/inkscape"
   xmlns:sodipodi="http://sodipodi.sourceforge.net/DTD/sodipodi-0.dtd"
   xmlns="http://www.w3.org/2000/svg"
   xmlns:svg="http://www.w3.org/2000/svg">
  <defs
     id="defs3241" />
  <sodipodi:namedview
     id="namedview3239"
     pagecolor="#505050"
     bordercolor="#eeeeee"
     borderopacity="1"
     inkscape:showpageshadow="0"
     inkscape:pageopacity="0"
     inkscape:pagecheckerboard="0"
     inkscape:deskcolor="#505050"
     showgrid="false"
     inkscape:zoom="0.12427077"
     inkscape:cx="1617.4358"
     inkscape:cy="1408.2153"
     inkscape:window-width="1920"
     inkscape:window-height="1009"
     inkscape:window-x="-8"
     inkscape:window-y="-8"
     inkscape:window-maximized="1"
     inkscape:current-layer="svg3237" />
  <g
     id="g7451"
     transform="matrix(60.882039,0,0,60.882039,3.3331536,182.08157)">
    <path
       fill="#ff7a00"
       d="M 4.447,3.182 C 4.445,3.24 4.445,3.309 4.445,3.447 v 0.514 c 0,0.138 0,0.207 0.002,0.265 0.065,1.73 1.535,3.118 3.367,3.18 0.062,0.002 0.135,0.002 0.282,0.002 0.146,0 0.219,0 0.28,-0.002 1.833,-0.062 3.304,-1.45 3.368,-3.18 0.003,-0.058 0.003,-0.127 0.003,-0.265 V 3.447 c 0,-0.138 0,-0.207 -0.003,-0.265 C 11.68,1.452 10.209,0.063 8.377,0.002 8.315,0 8.242,0 8.096,0 7.949,0 7.876,0 7.814,0.002 5.982,0.063 4.512,1.452 4.447,3.182 Z"
       id="path3231"
       sodipodi:nodetypes="cssccsccssccscc" />
    <path
       fill="#ff7a00"
       d="m 31.589,9.948 c -4.424,0 -7.154,2.614 -8.52,5.185 l -0.317,-4.339 h -6.56 V 38.097 H 23.07 V 22.752 c 0,-4.529 2.402,-7.301 6.032,-7.301 3.63,0 4.974,2.402 4.974,6.56 v 16.086 h 6.878 V 20.53 C 40.965,14.435 38.319,9.948 31.589,9.948 Z M 0,10.794 v 4.651 h 4.654 v 22.652 h 6.881 V 10.794 Z"
       id="path3235"
       sodipodi:nodetypes="scccccssscccsccccccc" />
  </g>
</svg>
