<?xml version="1.0" encoding="UTF-8" standalone="no"?>
<svg
   width="2500"
   height="2500"
   fill="none"
   version="1.1"
   id="svg297"
   sodipodi:docname="stone.svg"
   inkscape:version="1.2.2 (732a01da63, 2022-12-09)"
   xml:space="preserve"
   xmlns:inkscape="http://www.inkscape.org/namespaces/inkscape"
   xmlns:sodipodi="http://sodipodi.sourceforge.net/DTD/sodipodi-0.dtd"
   xmlns="http://www.w3.org/2000/svg"
   xmlns:svg="http://www.w3.org/2000/svg"><defs
     id="defs301" /><sodipodi:namedview
     id="namedview299"
     pagecolor="#505050"
     bordercolor="#eeeeee"
     borderopacity="1"
     inkscape:showpageshadow="0"
     inkscape:pageopacity="0"
     inkscape:pagecheckerboard="0"
     inkscape:deskcolor="#505050"
     showgrid="false"
     inkscape:zoom="0.12475647"
     inkscape:cx="328.64027"
     inkscape:cy="1450.8266"
     inkscape:window-width="1920"
     inkscape:window-height="1009"
     inkscape:window-x="-8"
     inkscape:window-y="-8"
     inkscape:window-maximized="1"
     inkscape:current-layer="svg297" /><path
     d="m 600.77504,646.70082 a 77.973205,77.973205 0 0 0 -110.20213,0 L 41.447254,1141.8827 a 155.32262,155.32262 0 0 0 0,211.2554 v 0.3118 l 449.229626,495.1819 a 77.973205,77.973205 0 0 0 132.9703,-55.309 V 701.69792 A 77.973205,77.973205 0 0 0 600.77504,646.59685 Z M 1247.4328,2420.5392 a 74.854277,74.854277 0 0 0 79.1168,74.5424 C 1978.7175,2453.9118 2495.1081,1911.2183 2495.1081,1247.6143 2495.0041,584.01036 1978.5096,41.108927 1326.4457,0.14700378 A 74.334455,74.334455 0 0 0 1247.4328,74.689388 V 542.73655 a 85.666561,85.666561 0 0 0 76.2058,84.41899 623.47375,623.47375 0 0 1 390.5938,206.47304 625.657,625.657 0 0 1 0,827.55562 623.47375,623.47375 0 0 1 -390.5938,206.473 85.458633,85.458633 0 0 0 -76.3097,84.523 v 468.359 z"
     fill="#ffffff"
     id="path295"
     style="stroke-width:103.964;fill:#00a868;fill-opacity:1" /><g
     style="fill:none"
     id="g429"
     transform="translate(-3965.7739,-1517.3831)"><path
       d="m 1418.2022,1488.451 h 111.0824 a 8.1180863,8.1180863 0 0 0 5.9533,-2.0566 7.8474834,7.8474834 0 0 0 2.5978,-5.6285 v -301.3975 c 0,-85.4835 42.7552,-130.5118 116.5216,-130.5118 73.7934,0 115.7639,45.0283 115.7639,130.5118 V 1480.82 a 7.7392423,7.7392423 0 0 0 5.3579,7.2521 8.1180863,8.1180863 0 0 0 3.1931,0.4059 h 111.0825 a 8.1180863,8.1180863 0 0 0 5.9533,-2.0295 7.8474834,7.8474834 0 0 0 2.5978,-5.6556 v -300.6398 c 0,-128.9964 -73.0087,-241.94601 -243.9485,-241.94601 -170.9669,0 -244.7062,112.94961 -244.7062,241.91901 v 300.6668 a 7.712182,7.712182 0 0 0 2.5978,5.6286 8.0098452,8.0098452 0 0 0 5.9533,2.0024 z m -764.4802,6.8733 c 40.401,0 66.83891,-4.6003 78.47483,-9.1734 a 9.9040653,9.9040653 0 0 0 6.22387,-8.3887 v -90.1108 c 0,-5.3579 -2.35425,-8.3887 -9.3358,-8.3887 -5.43912,0 -20.97173,3.0308 -33.41946,3.0308 -48.16731,0 -69.11197,-17.5351 -69.11197,-58.7479 v -254.0961 h 102.55849 a 8.7134126,8.7134126 0 0 0 6.00738,-2.4354 8.3886892,8.3886892 0 0 0 2.51661,-5.9533 v -98.44532 a 8.3886892,8.3886892 0 0 0 -2.51661,-5.89915 8.7134126,8.7134126 0 0 0 -6.03444,-2.48954 H 622.65679 V 868.7704 c 0,-9.17344 -3.89669,-12.98894 -10.87824,-12.98894 H 506.89287 c -8.52399,0 -12.42067,3.84256 -12.42067,12.98894 v 467.7912 c 0,113.7344 64.45761,158.7627 159.2498,158.7627 z m -445.89943,6.0886 c 125.09971,0 214.45278,-75.5524 214.45278,-173.9977 0,-110.6766 -74.60521,-142.6889 -176.35189,-164.0665 l -50.52156,-10.6888 c -38.04676,-8.3887 -59.04554,-25.9779 -59.04554,-55.7172 0,-38.155 38.85857,-58.7478 92.465,-58.7478 75.3629,0 126.64214,33.5547 134.38139,33.5547 a 12.123009,12.123009 0 0 0 10.12054,-6.8733 l 20.18698,-74.00988 c 3.92374,-9.93113 3.11193,-12.20419 -3.89668,-16.01969 -45.05538,-22.89301 -93.22269,-35.88195 -161.60404,-35.88195 -126.64214,0 -214.425717,71.73682 -214.425717,167.15142 0,90.1107 70.708532,139.6311 171.751647,161.0357 l 51.27924,10.6889 c 41.1587,8.3887 64.40349,24.4083 64.40349,58.7478 0,35.0972 -27.98034,65.6212 -94.0345,65.6212 -93.2227,0 -156.922609,-36.6125 -167.016097,-36.6125 -6.223866,0 -8.55105,3.0578 -10.878235,12.9619 l -13.205421,61.8327 c -3.896681,12.9619 0,21.3776 8.551051,25.1661 31.877019,17.535 118.875842,35.8549 183.387562,35.8549 z m 847.58233,-106.0764 c -81.58676,0 -156.13785,-60.2903 -156.13785,-173.9976 0,-113.7073 74.57815,-172.5635 156.13785,-172.5635 82.3444,0 155.3801,58.775 155.3801,172.5635 0,114.465 -73.0627,173.9976 -155.3801,173.9976 z m 0,109.8919 c 163.1464,0 281.9682,-119.7959 281.9682,-283.8895 0,-164.0936 -118.8218,-283.13181 -281.9682,-283.13181 -162.36172,0 -282.02231,119.06531 -282.02231,283.13181 0,164.0665 119.63353,283.8895 282.02231,283.8895 z m 1447.7254,-290.0051 c 0,-168.6939 -98.6889,-277.01621 -255.6656,-277.01621 -147.6139,0 -275.0137,111.43431 -275.0137,280.83171 0,180.8709 130.5117,286.1896 270.3322,286.1896 117.3334,0 185.0112,-45.4072 226.8735,-100.7184 8.1181,-10.7159 9.7417,-15.3432 9.7417,-18.3469 0,-2.9766 -1.9213,-5.3309 -8.984,-11.5006 l -48.9521,-41.9435 c -11.69,-9.9311 -15.6138,-12.9889 -19.4834,-12.9889 -3.9237,0 -6.2509,2.3001 -9.3628,6.1156 -33.3924,44.2706 -80.0173,69.4367 -142.9325,69.4367 -79.3678,0 -132.2707,-52.984 -145.6926,-138.9004 h 358.4947 c 25.0037,0.054 40.6446,-7.6852 40.6446,-41.1317 z m -260.2659,-170.9399 c 84.7799,0 129.6188,56.1772 132.0542,118.2805 h -269.0334 c 14.7479,-66.6765 60.8045,-118.2805 136.9792,-118.2805 z"
       fill="#00a868"
       id="path2"
       style="stroke-width:27.0603" /></g></svg>
