<?xml version="1.0" encoding="UTF-8" standalone="no"?>
<!-- Generator: Adobe Illustrator 25.2.1, SVG Export Plug-In . SVG Version: 6.00 Build 0)  -->

<svg
   version="1.1"
   id="Camada_1"
   x="0px"
   y="0px"
   viewBox="0 0 2500 2500"
   xml:space="preserve"
   sodipodi:docname="banrisul-logo-2023.svg"
   width="2500"
   height="2500"
   inkscape:export-filename="C:\Users\suitedoalex\sites\banrisul-logo-0.png"
   inkscape:export-xdpi="561.73712"
   inkscape:export-ydpi="561.73712"
   inkscape:version="1.2.2 (732a01da63, 2022-12-09)"
   xmlns:inkscape="http://www.inkscape.org/namespaces/inkscape"
   xmlns:sodipodi="http://sodipodi.sourceforge.net/DTD/sodipodi-0.dtd"
   xmlns:xlink="http://www.w3.org/1999/xlink"
   xmlns="http://www.w3.org/2000/svg"
   xmlns:svg="http://www.w3.org/2000/svg"
   xmlns:rdf="http://www.w3.org/1999/02/22-rdf-syntax-ns#"
   xmlns:cc="http://creativecommons.org/ns#"
   xmlns:dc="http://purl.org/dc/elements/1.1/"><metadata
     id="metadata41"><rdf:RDF><cc:Work
         rdf:about=""><dc:format>image/svg+xml</dc:format><dc:type
           rdf:resource="http://purl.org/dc/dcmitype/StillImage" /></cc:Work></rdf:RDF></metadata><defs
     id="defs39"><clipPath
       id="SVGID_2_-1"><use
         height="100%"
         width="100%"
         y="0"
         x="0"
         xlink:href="#SVGID_1_-2"
         style="overflow:visible"
         id="use7-0" /></clipPath><clipPath
       id="clipPath4541"><use
         height="100%"
         width="100%"
         y="0"
         x="0"
         xlink:href="#SVGID_1_-2"
         style="overflow:visible"
         id="use4539" /></clipPath><clipPath
       id="clipPath4545"><use
         height="100%"
         width="100%"
         y="0"
         x="0"
         xlink:href="#SVGID_1_-2"
         style="overflow:visible"
         id="use4543" /></clipPath><clipPath
       id="clipPath4549"><use
         height="100%"
         width="100%"
         y="0"
         x="0"
         xlink:href="#SVGID_1_-2"
         style="overflow:visible"
         id="use4547" /></clipPath><clipPath
       id="clipPath4553"><use
         height="100%"
         width="100%"
         y="0"
         x="0"
         xlink:href="#SVGID_1_-2"
         style="overflow:visible"
         id="use4551" /></clipPath><clipPath
       id="clipPath4557"><use
         height="100%"
         width="100%"
         y="0"
         x="0"
         xlink:href="#SVGID_1_-2"
         style="overflow:visible"
         id="use4555" /></clipPath><clipPath
       id="clipPath4561"><use
         height="100%"
         width="100%"
         y="0"
         x="0"
         xlink:href="#SVGID_1_-2"
         style="overflow:visible"
         id="use4559" /></clipPath><clipPath
       id="clipPath4565"><use
         height="100%"
         width="100%"
         y="0"
         x="0"
         xlink:href="#SVGID_1_-2"
         style="overflow:visible"
         id="use4563" /></clipPath><clipPath
       id="clipPath4569"><use
         height="100%"
         width="100%"
         y="0"
         x="0"
         xlink:href="#SVGID_1_-2"
         style="overflow:visible"
         id="use4567" /></clipPath><clipPath
       id="clipPath4573"><use
         height="100%"
         width="100%"
         y="0"
         x="0"
         xlink:href="#SVGID_1_-2"
         style="overflow:visible"
         id="use4571" /></clipPath><clipPath
       id="clipPath4577"><use
         height="100%"
         width="100%"
         y="0"
         x="0"
         xlink:href="#SVGID_1_-2"
         style="overflow:visible"
         id="use4575" /></clipPath><clipPath
       id="clipPath4581"><use
         height="100%"
         width="100%"
         y="0"
         x="0"
         xlink:href="#SVGID_1_-2"
         style="overflow:visible"
         id="use4579" /></clipPath><rect
       id="SVGID_1_-2"
       x="56.400002"
       y="70.099998"
       width="911.59998"
       height="171" /></defs><sodipodi:namedview
     pagecolor="#ffffff"
     bordercolor="#666666"
     borderopacity="1"
     objecttolerance="10"
     gridtolerance="10"
     guidetolerance="10"
     inkscape:pageopacity="0"
     inkscape:pageshadow="2"
     inkscape:window-width="1920"
     inkscape:window-height="1009"
     id="namedview37"
     showgrid="false"
     inkscape:zoom="0.14155947"
     inkscape:cx="1893.1973"
     inkscape:cy="1377.513"
     inkscape:window-x="-8"
     inkscape:window-y="-8"
     inkscape:window-maximized="1"
     inkscape:current-layer="Camada_1"
     inkscape:showpageshadow="0"
     inkscape:pagecheckerboard="0"
     inkscape:deskcolor="#d1d1d1" /><style
     type="text/css"
     id="style2">
	.st0{clip-path:url(#SVGID_2_);fill:#000051;}
	.st1{clip-path:url(#SVGID_2_);fill:#0788FE;}
	.st2{clip-path:url(#SVGID_2_);fill:#A06FFE;}
	.st3{clip-path:url(#SVGID_2_);fill:#00D9CB;}
</style><g
     id="g34"
     transform="matrix(13.440304,0,0,13.440304,-756.9789,-870.4478)"
     inkscape:export-filename="C:\Users\suitedoalex\sites\banrisul-logo-4.png"
     inkscape:export-xdpi="66.663544"
     inkscape:export-ydpi="66.663544"><defs
       id="defs5"><rect
         id="SVGID_1_"
         x="56.400002"
         y="70.099998"
         width="911.59998"
         height="171" /></defs><clipPath
       id="SVGID_2_"><use
         xlink:href="#SVGID_1_"
         style="overflow:visible"
         id="use7"
         x="0"
         y="0"
         width="100%"
         height="100%" /></clipPath><path
       class="st1"
       d="M 202.6,113.5 181.1,76 C 179,72.3 175,70 170.8,70 h -43 c -4.3,0 -8.2,2.3 -10.3,6 L 96,113.5 c -2.1,3.7 -2.1,8.3 0,12 l 21.5,37.5 c 2.1,3.7 6.1,6 10.3,6 h 15.6 l 5.9,-10.3 h -21.5 c -0.6,0 -1.2,-0.3 -1.5,-0.9 l -21.5,-37.5 c -0.3,-0.5 -0.3,-1.2 0,-1.7 l 21.5,-37.5 c 0.3,-0.5 0.9,-0.9 1.5,-0.9 h 43 c 0.6,0 1.2,0.3 1.5,0.9 l 21.5,37.5 c 0.3,0.5 0.3,1.2 0,1.7 l -12.5,21.8 h 11.8 l 9.6,-16.6 c 2.1,-3.7 2.1,-8.3 -0.1,-12"
       clip-path="url(#SVGID_2_)"
       id="path28"
       inkscape:connector-curvature="0"
       style="fill:#0788fe" /><path
       class="st2"
       d="M 164.7,185.6 155.1,169 h -11.8 l 12.5,21.8 c 0.3,0.5 0.3,1.2 0,1.7 L 134.3,230 c -0.3,0.5 -0.9,0.9 -1.5,0.9 h -43 c -0.6,0 -1.2,-0.3 -1.5,-0.9 L 66.8,192.5 c -0.3,-0.5 -0.3,-1.2 0,-1.7 l 21.5,-37.5 c 0.3,-0.5 0.9,-0.9 1.5,-0.9 h 21.5 l -5.9,-10.3 H 89.9 c -4.3,0 -8.2,2.3 -10.3,6 L 58,185.6 c -2.1,3.7 -2.1,8.3 0,12 l 21.5,37.5 c 2.1,3.7 6.1,6 10.3,6 h 43 c 4.3,0 8.2,-2.3 10.3,-6 l 21.5,-37.5 c 2.3,-3.7 2.3,-8.3 0.1,-12"
       clip-path="url(#SVGID_2_)"
       id="path30"
       inkscape:connector-curvature="0"
       style="fill:#a06ffe" /><path
       class="st3"
       d="M 240.5,185.6 219,148.2 c -2.1,-3.7 -6.1,-6 -10.3,-6 h -43 c -4.3,0 -8.2,2.3 -10.3,6 l -12,20.8 h 11.8 l 9,-15.7 c 0.3,-0.5 0.9,-0.9 1.5,-0.9 h 43 c 0.6,0 1.2,0.3 1.5,0.9 l 21.5,37.5 c 0.3,0.5 0.3,1.2 0,1.7 L 210.2,230 c -0.3,0.5 -0.9,0.9 -1.5,0.9 h -43 c -0.6,0 -1.2,-0.3 -1.5,-0.9 l -9,-15.6 -5.9,10.3 6.1,10.5 c 2.1,3.7 6.1,6 10.3,6 h 43 c 4.3,0 8.2,-2.3 10.3,-6 l 21.5,-37.5 c 2.2,-3.8 2.2,-8.4 0,-12.1"
       clip-path="url(#SVGID_2_)"
       id="path32"
       inkscape:connector-curvature="0"
       style="fill:#00d9cb" /></g></svg>
