<?xml version="1.0" encoding="UTF-8" standalone="no"?>
<!-- Generator: Adobe Illustrator 25.2.1, SVG Export Plug-In . SVG Version: 6.00 Build 0)  -->

<svg
   version="1.1"
   id="Camada_1"
   x="0px"
   y="0px"
   viewBox="0 0 2500 2500"
   xml:space="preserve"
   sodipodi:docname="banrisul-logo-nome-2023.svg"
   width="2500"
   height="2500"
   inkscape:export-filename="C:\Users\suitedoalex\sites\banrisul-logo-0.png"
   inkscape:export-xdpi="561.73712"
   inkscape:export-ydpi="561.73712"
   inkscape:version="1.2.2 (732a01da63, 2022-12-09)"
   xmlns:inkscape="http://www.inkscape.org/namespaces/inkscape"
   xmlns:sodipodi="http://sodipodi.sourceforge.net/DTD/sodipodi-0.dtd"
   xmlns:xlink="http://www.w3.org/1999/xlink"
   xmlns="http://www.w3.org/2000/svg"
   xmlns:svg="http://www.w3.org/2000/svg"
   xmlns:rdf="http://www.w3.org/1999/02/22-rdf-syntax-ns#"
   xmlns:cc="http://creativecommons.org/ns#"
   xmlns:dc="http://purl.org/dc/elements/1.1/"><metadata
     id="metadata41"><rdf:RDF><cc:Work
         rdf:about=""><dc:format>image/svg+xml</dc:format><dc:type
           rdf:resource="http://purl.org/dc/dcmitype/StillImage" /></cc:Work></rdf:RDF></metadata><defs
     id="defs39"><clipPath
       id="SVGID_2_-1"><use
         height="100%"
         width="100%"
         y="0"
         x="0"
         xlink:href="#SVGID_1_-2"
         style="overflow:visible"
         id="use7-0" /></clipPath><clipPath
       id="clipPath4541"><use
         height="100%"
         width="100%"
         y="0"
         x="0"
         xlink:href="#SVGID_1_-2"
         style="overflow:visible"
         id="use4539" /></clipPath><clipPath
       id="clipPath4545"><use
         height="100%"
         width="100%"
         y="0"
         x="0"
         xlink:href="#SVGID_1_-2"
         style="overflow:visible"
         id="use4543" /></clipPath><clipPath
       id="clipPath4549"><use
         height="100%"
         width="100%"
         y="0"
         x="0"
         xlink:href="#SVGID_1_-2"
         style="overflow:visible"
         id="use4547" /></clipPath><clipPath
       id="clipPath4553"><use
         height="100%"
         width="100%"
         y="0"
         x="0"
         xlink:href="#SVGID_1_-2"
         style="overflow:visible"
         id="use4551" /></clipPath><clipPath
       id="clipPath4557"><use
         height="100%"
         width="100%"
         y="0"
         x="0"
         xlink:href="#SVGID_1_-2"
         style="overflow:visible"
         id="use4555" /></clipPath><clipPath
       id="clipPath4561"><use
         height="100%"
         width="100%"
         y="0"
         x="0"
         xlink:href="#SVGID_1_-2"
         style="overflow:visible"
         id="use4559" /></clipPath><clipPath
       id="clipPath4565"><use
         height="100%"
         width="100%"
         y="0"
         x="0"
         xlink:href="#SVGID_1_-2"
         style="overflow:visible"
         id="use4563" /></clipPath><clipPath
       id="clipPath4569"><use
         height="100%"
         width="100%"
         y="0"
         x="0"
         xlink:href="#SVGID_1_-2"
         style="overflow:visible"
         id="use4567" /></clipPath><clipPath
       id="clipPath4573"><use
         height="100%"
         width="100%"
         y="0"
         x="0"
         xlink:href="#SVGID_1_-2"
         style="overflow:visible"
         id="use4571" /></clipPath><clipPath
       id="clipPath4577"><use
         height="100%"
         width="100%"
         y="0"
         x="0"
         xlink:href="#SVGID_1_-2"
         style="overflow:visible"
         id="use4575" /></clipPath><clipPath
       id="clipPath4581"><use
         height="100%"
         width="100%"
         y="0"
         x="0"
         xlink:href="#SVGID_1_-2"
         style="overflow:visible"
         id="use4579" /></clipPath><rect
       id="SVGID_1_-2"
       x="56.400002"
       y="70.099998"
       width="911.59998"
       height="171" /></defs><sodipodi:namedview
     pagecolor="#ffffff"
     bordercolor="#666666"
     borderopacity="1"
     objecttolerance="10"
     gridtolerance="10"
     guidetolerance="10"
     inkscape:pageopacity="0"
     inkscape:pageshadow="2"
     inkscape:window-width="1920"
     inkscape:window-height="1009"
     id="namedview37"
     showgrid="false"
     inkscape:zoom="0.20019532"
     inkscape:cx="3171.9024"
     inkscape:cy="979.04389"
     inkscape:window-x="-8"
     inkscape:window-y="-8"
     inkscape:window-maximized="1"
     inkscape:current-layer="Camada_1"
     inkscape:showpageshadow="0"
     inkscape:pagecheckerboard="0"
     inkscape:deskcolor="#d1d1d1" /><style
     type="text/css"
     id="style2">
	.st0{clip-path:url(#SVGID_2_);fill:#000051;}
	.st1{clip-path:url(#SVGID_2_);fill:#0788FE;}
	.st2{clip-path:url(#SVGID_2_);fill:#A06FFE;}
	.st3{clip-path:url(#SVGID_2_);fill:#00D9CB;}
</style><g
     id="g34"
     transform="matrix(2.7422677,0,0,2.7422677,-154.59091,909.05461)"
     inkscape:export-filename="C:\Users\suitedoalex\sites\banrisul-logo-4.png"
     inkscape:export-xdpi="66.663544"
     inkscape:export-ydpi="66.663544"><defs
       id="defs5"><rect
         id="SVGID_1_"
         x="56.400002"
         y="70.099998"
         width="911.59998"
         height="171" /></defs><clipPath
       id="SVGID_2_"><use
         xlink:href="#SVGID_1_"
         style="overflow:visible"
         id="use7"
         x="0"
         y="0"
         width="100%"
         height="100%" /></clipPath><path
       class="st0"
       d="m 332.2,126.4 c -12.8,0 -24.3,5.1 -32.3,14.1 V 94.8 c 0,-1.8 -1.4,-3.2 -3.2,-3.2 h -9.4 c -1.8,0 -3.2,1.5 -3.2,3.2 v 119.6 c 0,1.8 1.4,3.2 3.2,3.2 h 9.4 c 1.8,0 3.2,-1.5 3.2,-3.2 v -8.9 c 8,9 19.5,14.1 32.3,14.1 25.8,0 45.2,-20 45.2,-46.6 0.1,-26.6 -19.4,-46.6 -45.2,-46.6 m -1.6,15.6 c 17.5,0 30.7,13.3 30.7,31 0,17.7 -13.2,31 -30.7,31 -17.5,0 -30.7,-13.3 -30.7,-31 0,-17.7 13.2,-31 30.7,-31"
       clip-path="url(#SVGID_2_)"
       id="path10"
       inkscape:connector-curvature="0"
       style="fill:#000051" /><path
       class="st0"
       d="m 488.1,128.4 h -9.4 c -1.8,0 -3.2,1.5 -3.2,3.2 v 8.9 c -8,-9 -19.5,-14.1 -32.3,-14.1 -25.7,0 -45.1,20 -45.1,46.6 0,26.6 19.4,46.6 45.1,46.6 12.8,0 24.3,-5.1 32.3,-14.1 v 8.9 c 0,1.8 1.4,3.2 3.2,3.2 h 9.4 c 1.8,0 3.2,-1.5 3.2,-3.2 v -82.8 c 0,-1.8 -1.4,-3.2 -3.2,-3.2 M 444.8,204 c -17.4,0 -30.5,-13.3 -30.5,-31 0,-17.7 13.1,-31 30.5,-31 17.5,0 30.7,13.3 30.7,31 0,17.7 -13.2,31 -30.7,31"
       clip-path="url(#SVGID_2_)"
       id="path12"
       inkscape:connector-curvature="0"
       style="fill:#000051" /><path
       class="st0"
       d="m 567.1,126.4 c -11.8,0 -21.7,3.9 -28.8,11 v -5.8 c 0,-1.8 -1.4,-3.2 -3.2,-3.2 h -9.4 c -1.8,0 -3.2,1.5 -3.2,3.2 v 82.8 c 0,1.8 1.4,3.2 3.2,3.2 h 9.4 c 1.8,0 3.2,-1.5 3.2,-3.2 v -47.1 c 0,-15.4 10.2,-25.3 26,-25.3 15,0 24.7,9.8 24.7,25 v 47.4 c 0,1.8 1.4,3.2 3.2,3.2 h 9.4 c 1.8,0 3.2,-1.5 3.2,-3.2 v -50.2 c 0.1,-22.6 -15.1,-37.8 -37.7,-37.8"
       clip-path="url(#SVGID_2_)"
       id="path14"
       inkscape:connector-curvature="0"
       style="fill:#000051" /><path
       class="st0"
       d="m 681.1,128.7 h -2.4 c -11.1,0 -20.8,4.1 -27.8,11.7 v -8.7 c 0,-1.8 -1.4,-3.2 -3.2,-3.2 h -9.4 c -1.8,0 -3.2,1.5 -3.2,3.2 v 82.8 c 0,1.8 1.4,3.2 3.2,3.2 h 9.4 c 1.8,0 3.2,-1.5 3.2,-3.2 v -41.1 c 0,-17.5 10.6,-28.4 27.8,-28.4 h 2.4 c 1.8,0 3.2,-1.5 3.2,-3.2 v -9.7 c 0.1,-2 -1.4,-3.4 -3.2,-3.4"
       clip-path="url(#SVGID_2_)"
       id="path16"
       inkscape:connector-curvature="0"
       style="fill:#000051" /><path
       class="st0"
       d="m 718.9,128.4 h -9.4 c -1.8,0 -3.2,1.5 -3.2,3.2 v 82.8 c 0,1.8 1.4,3.2 3.2,3.2 h 9.4 c 1.8,0 3.2,-1.5 3.2,-3.2 v -82.8 c 0.1,-1.8 -1.4,-3.2 -3.2,-3.2"
       clip-path="url(#SVGID_2_)"
       id="path18"
       inkscape:connector-curvature="0"
       style="fill:#000051" /><path
       class="st0"
       d="m 714.2,95.4 c -5.5,0 -10,4.4 -10,9.9 0,5.6 4.4,10.1 10,10.1 5.7,0 10.2,-4.4 10.2,-10.1 0,-5.5 -4.4,-9.9 -10.2,-9.9"
       clip-path="url(#SVGID_2_)"
       id="path20"
       inkscape:connector-curvature="0"
       style="fill:#000051" /><path
       class="st0"
       d="m 786.9,165.1 c -12.5,-3 -20.8,-5.5 -20.8,-12.9 0,-7 8.8,-10.7 17.4,-10.7 8.3,0 16.1,3.2 21.2,8.9 0.6,0.7 1.6,1.1 2.5,1 1,0 1.8,-0.5 2.4,-1.3 l 5.3,-7 c 1,-1.3 0.9,-3.1 -0.3,-4.3 -8,-8 -19.1,-12.5 -31.4,-12.5 -19.7,0 -33.4,10.9 -33.4,26.5 0,19 17.6,23.5 31.9,27.2 12.3,3 20.3,5.5 20.3,12.8 0,6.9 -8,11.7 -19.4,11.7 -10,0 -18.7,-3.6 -24.6,-10.3 -0.6,-0.7 -1.6,-1.1 -2.5,-1.1 -1,0 -1.9,0.5 -2.4,1.2 l -5.3,6.8 c -1,1.3 -0.9,3.1 0.2,4.3 8.6,9 21.3,14.2 34.8,14.2 21.2,0 35.4,-11.2 35.4,-27.8 0.1,-18.9 -18.1,-23.4 -31.3,-26.7"
       clip-path="url(#SVGID_2_)"
       id="path22"
       inkscape:connector-curvature="0"
       style="fill:#000051" /><path
       class="st0"
       d="m 918.6,128.4 h -9.4 c -1.8,0 -3.2,1.5 -3.2,3.2 v 48.9 c 0,14.3 -9.3,23.5 -23.7,23.5 -14.5,0 -23.9,-9.2 -23.9,-23.5 v -48.9 c 0,-1.8 -1.4,-3.2 -3.2,-3.2 h -9.4 c -1.8,0 -3.2,1.5 -3.2,3.2 v 50.2 c 0,22.6 16,37.8 39.7,37.8 23.7,0 39.6,-15.2 39.6,-37.8 v -50.2 c -0.1,-1.8 -1.5,-3.2 -3.3,-3.2"
       clip-path="url(#SVGID_2_)"
       id="path24"
       inkscape:connector-curvature="0"
       style="fill:#000051" /><path
       class="st0"
       d="m 964.8,91.5 h -9.4 c -1.8,0 -3.2,1.5 -3.2,3.2 v 119.6 c 0,1.8 1.4,3.2 3.2,3.2 h 9.4 c 1.8,0 3.2,-1.5 3.2,-3.2 V 94.8 c 0,-1.8 -1.4,-3.3 -3.2,-3.3"
       clip-path="url(#SVGID_2_)"
       id="path26"
       inkscape:connector-curvature="0"
       style="fill:#000051" /><path
       class="st1"
       d="M 202.6,113.5 181.1,76 C 179,72.3 175,70 170.8,70 h -43 c -4.3,0 -8.2,2.3 -10.3,6 L 96,113.5 c -2.1,3.7 -2.1,8.3 0,12 l 21.5,37.5 c 2.1,3.7 6.1,6 10.3,6 h 15.6 l 5.9,-10.3 h -21.5 c -0.6,0 -1.2,-0.3 -1.5,-0.9 l -21.5,-37.5 c -0.3,-0.5 -0.3,-1.2 0,-1.7 l 21.5,-37.5 c 0.3,-0.5 0.9,-0.9 1.5,-0.9 h 43 c 0.6,0 1.2,0.3 1.5,0.9 l 21.5,37.5 c 0.3,0.5 0.3,1.2 0,1.7 l -12.5,21.8 h 11.8 l 9.6,-16.6 c 2.1,-3.7 2.1,-8.3 -0.1,-12"
       clip-path="url(#SVGID_2_)"
       id="path28"
       inkscape:connector-curvature="0"
       style="fill:#0788fe" /><path
       class="st2"
       d="M 164.7,185.6 155.1,169 h -11.8 l 12.5,21.8 c 0.3,0.5 0.3,1.2 0,1.7 L 134.3,230 c -0.3,0.5 -0.9,0.9 -1.5,0.9 h -43 c -0.6,0 -1.2,-0.3 -1.5,-0.9 L 66.8,192.5 c -0.3,-0.5 -0.3,-1.2 0,-1.7 l 21.5,-37.5 c 0.3,-0.5 0.9,-0.9 1.5,-0.9 h 21.5 l -5.9,-10.3 H 89.9 c -4.3,0 -8.2,2.3 -10.3,6 L 58,185.6 c -2.1,3.7 -2.1,8.3 0,12 l 21.5,37.5 c 2.1,3.7 6.1,6 10.3,6 h 43 c 4.3,0 8.2,-2.3 10.3,-6 l 21.5,-37.5 c 2.3,-3.7 2.3,-8.3 0.1,-12"
       clip-path="url(#SVGID_2_)"
       id="path30"
       inkscape:connector-curvature="0"
       style="fill:#a06ffe" /><path
       class="st3"
       d="M 240.5,185.6 219,148.2 c -2.1,-3.7 -6.1,-6 -10.3,-6 h -43 c -4.3,0 -8.2,2.3 -10.3,6 l -12,20.8 h 11.8 l 9,-15.7 c 0.3,-0.5 0.9,-0.9 1.5,-0.9 h 43 c 0.6,0 1.2,0.3 1.5,0.9 l 21.5,37.5 c 0.3,0.5 0.3,1.2 0,1.7 L 210.2,230 c -0.3,0.5 -0.9,0.9 -1.5,0.9 h -43 c -0.6,0 -1.2,-0.3 -1.5,-0.9 l -9,-15.6 -5.9,10.3 6.1,10.5 c 2.1,3.7 6.1,6 10.3,6 h 43 c 4.3,0 8.2,-2.3 10.3,-6 l 21.5,-37.5 c 2.2,-3.8 2.2,-8.4 0,-12.1"
       clip-path="url(#SVGID_2_)"
       id="path32"
       inkscape:connector-curvature="0"
       style="fill:#00d9cb" /></g></svg>
