<?xml version="1.0" encoding="UTF-8"?>
<svg id="Camada_2" xmlns="http://www.w3.org/2000/svg" version="1.1" viewBox="0 0 2500 2500">
  <!-- Generator: Adobe Illustrator 29.6.0, SVG Export Plug-In . SVG Version: 2.1.1 Build 207)  -->
  <defs>
    <style>
      .st0 {
        fill: #1b6b2f;
      }

      .st1 {
        fill: #ef7d00;
        fill-rule: evenodd;
      }
    </style>
  </defs>
  <g id="Camada_1-2">
    <g>
      <path class="st0" d="M525.92,1605.47l75.08-4.74c1.58,12.24,4.91,21.48,9.91,27.89,8.16,10.32,19.73,15.48,34.88,15.48,11.24,0,19.98-2.66,26.05-7.91,6.08-5.33,9.16-11.4,9.16-18.4s-2.91-12.57-8.74-17.81c-5.83-5.24-19.31-10.16-40.46-14.82-34.63-7.82-59.35-18.15-74.09-31.05-14.9-12.9-22.31-29.3-22.31-49.36,0-13.15,3.83-25.56,11.4-37.21,7.58-11.65,19.06-20.81,34.38-27.55,15.32-6.66,36.21-9.99,62.85-9.99,32.63,0,57.52,6.08,74.67,18.23,17.15,12.15,27.3,31.47,30.63,57.94l-74.42,4.33c-2-11.49-6.16-19.89-12.49-25.06-6.33-5.24-15.07-7.82-26.22-7.82-9.16,0-16.07,2-20.73,5.83-4.66,3.91-6.99,8.66-6.99,14.23,0,4.08,1.91,7.74,5.74,10.99,3.75,3.33,12.57,6.49,26.47,9.41,34.55,7.41,59.27,14.98,74.17,22.56,14.9,7.58,25.8,17.06,32.63,28.3,6.83,11.24,10.16,23.89,10.16,37.79,0,16.4-4.5,31.47-13.57,45.28-9.07,13.82-21.73,24.31-37.96,31.47s-36.79,10.74-61.52,10.74c-43.45,0-73.59-8.41-90.32-25.06-16.73-16.73-26.22-37.96-28.39-63.76"/>
      <path class="st0" d="M963.77,1434.5h78.83v152.25c0,15.07-2.33,29.38-7.08,42.79s-12.07,25.14-22.14,35.21c-10.07,10.07-20.56,17.15-31.63,21.14-15.32,5.66-33.8,8.57-55.27,8.57-12.4,0-25.97-.83-40.71-2.58-14.73-1.75-26.97-5.16-36.88-10.32-9.91-5.16-18.9-12.49-27.14-22.06-8.16-9.49-13.82-19.31-16.81-29.47-4.91-16.23-7.33-30.63-7.33-43.2v-152.25h78.83v155.83c0,13.9,3.83,24.81,11.57,32.63,7.74,7.82,18.4,11.74,32.13,11.74s24.22-3.83,31.96-11.57c7.74-7.74,11.57-18.65,11.57-32.8v-155.83l.08-.08Z"/>
      <polygon class="st0" points="1094.88 1434.5 1173.79 1434.5 1173.79 1627.03 1297.07 1627.03 1297.07 1689.96 1094.88 1689.96 1094.88 1434.5"/>
      <path class="st0" d="M1497.02,1585.41l69.17,20.89c-4.66,19.4-11.99,35.63-21.98,48.61-9.99,12.99-22.39,22.81-37.21,29.47-14.82,6.66-33.71,9.91-56.52,9.91-27.8,0-50.44-4-68.09-12.07-17.65-8.07-32.8-22.31-45.62-42.62-12.82-20.31-19.15-46.37-19.15-78.08,0-42.29,11.24-74.75,33.71-97.48s54.27-34.05,95.4-34.05c32.21,0,57.52,6.49,75.92,19.56,18.4,12.99,32.13,32.96,41.04,59.93l-69.76,15.48c-2.41-7.82-4.99-13.49-7.66-17.06-4.41-6.08-9.82-10.74-16.23-13.9-6.41-3.25-13.57-4.91-21.48-4.91-17.9,0-31.63,7.24-41.12,21.56-7.24,10.65-10.82,27.47-10.82,50.28,0,28.3,4.33,47.78,12.9,58.27,8.57,10.49,20.64,15.73,36.29,15.73s26.55-4.25,34.21-12.74c7.74-8.49,13.32-20.81,16.81-36.96"/>
      <path class="st0" d="M1605.57,1689.96v-255.55h131.61c24.39,0,43.04,2.08,55.94,6.24,12.9,4.16,23.31,11.9,31.22,23.31,7.91,11.32,11.82,25.14,11.82,41.37,0,14.15-3,26.39-9.07,36.71-6.08,10.32-14.32,18.65-24.97,24.97-6.74,4.08-15.98,7.41-27.72,10.16,9.41,3.16,16.23,6.24,20.56,9.41,2.91,2.08,7.08,6.58,12.65,13.4,5.49,6.91,9.24,12.15,11.07,15.9l38.21,74.09h-89.24l-42.2-78.08c-5.33-10.07-10.07-16.65-14.32-19.65-5.66-4-12.15-5.91-19.31-5.91h-6.99v103.72h-79.33l.08-.08ZM1684.9,1537.97h33.3c3.58,0,10.57-1.17,20.89-3.5,5.24-1,9.49-3.75,12.82-7.99,3.33-4.33,4.99-9.24,4.99-14.82,0-8.24-2.58-14.57-7.82-18.98s-15.07-6.66-29.47-6.66h-34.71v51.94Z"/>
      <polygon class="st0" points="1882.01 1434.5 2093.61 1434.5 2093.61 1489.02 1961.18 1489.02 1961.18 1529.64 2084.04 1529.64 2084.04 1581.75 1961.18 1581.75 1961.18 1632.11 2097.53 1632.11 2097.53 1689.96 1882.01 1689.96 1882.01 1434.5"/>
      <path class="st0" d="M2141.06,1434.5h117.29c23.14,0,41.79,3.16,56.02,9.41,14.23,6.24,25.97,15.32,35.29,27.05,9.32,11.74,16.07,25.39,20.23,40.95,4.16,15.57,6.24,32.05,6.24,49.53,0,27.3-3.08,48.45-9.32,63.51s-14.82,27.64-25.89,37.79c-11.07,10.16-22.89,16.9-35.54,20.31-17.31,4.66-32.96,6.99-47.03,6.99h-117.29v-255.55h0ZM2220.06,1492.35v139.6h19.31c16.48,0,28.22-1.83,35.21-5.49,6.99-3.66,12.4-10.07,16.4-19.15,4-9.16,5.91-23.89,5.91-44.37,0-27.05-4.41-45.62-13.24-55.61-8.82-9.99-23.47-14.98-43.95-14.98h-19.73.08Z"/>
      <rect class="st0" x="2420.84" y="1434.5" width="79.16" height="255.55"/>
      <path class="st1" d="M440.77,1217.65c16.48,3.33,29.63-8.66,41.29-15.32l498.95-288.93c36.54-21.31,39.37-29.88,23.06-81.08-9.41-29.55-43.45,3.25-72.59,24.72-90.98,67.34-189.21,134.77-281.69,202.28l-194.12,139.76c-8.41,5.91-13.57,6.66-14.9,18.56Z"/>
      <path class="st1" d="M472.23,1293.07c12.15,4.08,398.48-54.02,446.51-60.85,26.89-3.83,52.11-4.91,61.68-24.47,4.58-9.41,13.82-65.76,5.91-73.09-10.82-9.99-113.63,26.64-130.77,31.63-83.91,24.31-176.31,54.27-260.8,79.58l-98.31,30.05c-13.73,4.16-25.56,4.33-24.14,17.15h-.08Z"/>
      <path class="st1" d="M407.63,1273.01c14.98,2.16,124.61-38.62,145.76-46.28,48.36-17.56,95.56-33.38,142.93-49.7,22.48-7.82,199.36-67.09,212.35-77.08,11.82-8.99,12.07-17.65,11.65-37.04-1.25-64.68,13.65-68.01-133.69,9.16-82.66,43.29-173.48,87.65-256.05,129.11l-96.56,49.03c-10.49,5.41-26.39,8.32-26.47,22.73l.08.08Z"/>
      <path class="st1" d="M380.91,1168.45c9.49,2.75,12.74-2.5,18.48-8.41,72.67-75.42,163.57-163.9,237.66-237.57,16.4-16.32,208.69-206.69,220.09-220.84,21.89-27.14-14.07-75.58-42.87-45.03l-73,85.41c-40.87,47.36-92.9,104.88-132.19,152.5-19.31,23.31-108.55,128.44-130.94,151.75l-44.45,51.86c-10.07,11.82-18.65,21.73-28.72,33.46-7.16,8.24-27.64,25.47-23.97,37.04l-.08-.17Z"/>
      <path class="st1" d="M370.34,1229.39c12.74,2.83,13.65-.42,21.06-6.49l443.35-353.03c19.73-15.98,57.77-33.63,29.05-68.76-20.56-25.06-38.79,1.25-68.76,28.8-21.39,19.65-40.12,37.04-61.6,56.1-41.79,37.21-80.74,75-122.95,112.54-67.01,59.68-147.09,133.69-214.68,196.45-5.83,5.49-10.49,9.16-15.82,14.15-6.08,5.74-10.24,9.07-9.66,20.23Z"/>
      <path class="st1" d="M441.35,1335.77c14.73,8.41,99.31,4.08,124.2,4.08l261.21.67c67.76.17,54.27,2,75.75-58.1-17.31-13.65-25.39-8.82-54.19-5.41l-385.08,45.28c-13.82,1.83-20.48,1.33-21.89,13.49Z"/>
      <path class="st1" d="M316.24,1202.92c11.74,1.08,12.99-5.91,25.97-23.06l247.98-327.89c15.73-20.81,29.97-38.87,45.03-59.77,8.57-11.9,47.7-49.45,29.47-68.09-19.81-20.14-48.11,31.63-54.69,40.95-84.82,121.12-172.64,250.72-256.3,373.09-10.99,16.07-40.37,52.44-37.54,64.85l.08-.08Z"/>
      <path class="st1" d="M309.41,1152.14c13.24.83,17.56-13.57,23.81-24.14,6.08-10.32,13.4-22.23,19.31-32.05l231.08-383.33c6.58-10.74,41.2-56.69,26.05-70.67-20.23-18.73-43.12,33.13-49.86,45.2l-236.16,429.61c-5.49,9.99-15.4,22.64-14.32,35.38h.08Z"/>
      <path class="st1" d="M258.05,1192.18c14.65-1.25,13.98-8.07,18.9-19.98,22.64-55.52,58.77-124.61,83.82-183.88,7.49-17.81,15.98-34.88,23.47-51.44l47.45-104.47c3.16-6.99,27.14-48.03,12.49-57.27-8.07-5.08-20.39,5.83-23.39,10.32-3.58,5.41-72.25,175.47-78,189.04l-66.26,161.41c-5.83,13.49-20.06,41.29-18.4,56.27h-.08Z"/>
      <path class="st1" d="M246.06,1154.64c9.99-1.17,6.91,1.25,10.49-7.16,1.25-2.91,3.16-10.24,4.58-14.65,3.16-9.32,5.74-17.48,8.99-27.47,5.99-18.15,12.15-36.46,18.15-54.61l72.17-218.93c17.81-54.77,18.48-58.35,31.05-114.62-33.96-5.08-40.79,52.36-52.11,92.15-15.9,56.19-95.31,324.73-93.31,345.37v-.08Z"/>
      <path class="st1" d="M183.55,1177.28c13.32.17,11.99-20.39,13.9-33.38l45.53-313.07c-13.15.67-16.15,7.57-24.97,26.05-12.82,26.8-16.4,102.97-19.31,135.18-2.58,28.72-19.73,168.48-15.15,185.21Z"/>
      <path class="st1" d="M120.28,1229.22c9.49-1.08,8.66-4.83,9.24-29.3,1.91-82.66,10.9-195.37,10.74-270.54-11.74,2.08-7.99,1.91-19.31,23.06-18.23,34.13-10.57,70.84-9.07,114.71.83,25.64.75,148.5,8.41,162.07Z"/>
      <path class="st1" d="M209.85,1198.26c11.32,3.16,12.65-18.06,15.48-30.63,22.39-98.89,38.62-184.55,57.6-284.1-15.98-3.75-19.48,10.07-24.47,22.56-5.08,12.82-6.74,24.64-9.32,39.79l-29.13,168.07c-2.66,15.73-16.4,73.5-10.24,84.32h.08Z"/>
      <path class="st1" d="M25.31,1127.08c0,28.97,20.06,112.21,27.47,150.58,5.41,27.97,1.58,18.48,16.07,41.79,10.24-10.32,1.25-44.37-.42-58.85l-16.48-157.08c-1.66-15.73-.25-21.56-6.58-31.05-8.74,2-10.32,4.58-15.57,22.39-2.75,9.49-4.5,20.98-4.5,32.13v.08Z"/>
      <path class="st1" d="M151.08,1220.56c9.99-3.75,9.32-2.66,11.07-24.31l18.65-212.52c-30.13,2.91-26.22,74.17-27.39,107.05-1.17,33.71-6.24,99.89-2.33,129.77Z"/>
      <path class="st1" d="M97.06,1274.5l-5.66-169.81c-13.4,2.25-12.9,11.15-13.9,37.29-.92,23.56,7.74,86.99,10.65,115.79,1.08,10.99,0,14.73,8.82,16.73h.08Z"/>
      <polygon class="st0" points="323.89 1246.54 223.84 1547.29 123.78 1246.54 0 1618.79 98.81 1618.79 98.23 1690.05 148.25 1690.05 148.84 1618.79 298.84 1618.79 298.34 1690.05 348.37 1690.05 348.95 1618.79 447.76 1618.79 323.89 1246.54"/>
    </g>
  </g>
</svg>