<?xml version="1.0" encoding="UTF-8"?>
<svg id="Camada_2" xmlns="http://www.w3.org/2000/svg" version="1.1" viewBox="0 0 2500 2500">
  <!-- Generator: Adobe Illustrator 29.6.0, SVG Export Plug-In . SVG Version: 2.1.1 Build 207)  -->
  <defs>
    <style>
      .st0 {
        fill: #c37916;
      }

      .st1 {
        fill: #1b6b2f;
      }

      .st2 {
        fill: #2b2322;
      }

      .st3 {
        fill: #ef7d00;
        fill-rule: evenodd;
      }
    </style>
  </defs>
  <g id="Camada_1-2">
    <g>
      <path class="st3" d="M2049.99,956.27c5.91,1.17,10.57-3.08,14.82-5.49l178.55-103.39c13.07-7.66,14.07-10.65,8.24-29.05-3.41-10.57-15.57,1.17-25.97,8.82-32.55,24.06-67.68,48.2-100.81,72.42l-69.51,50.03c-3,2.08-4.83,2.33-5.33,6.66h0Z"/>
      <path class="st3" d="M2061.32,983.24c4.33,1.5,142.59-19.31,159.82-21.73,9.66-1.33,18.65-1.75,22.06-8.74,1.66-3.33,4.99-23.56,2.08-26.14-3.91-3.58-40.62,9.49-46.78,11.32-30.05,8.74-63.1,19.4-93.31,28.47l-35.21,10.74c-4.91,1.5-9.16,1.58-8.66,6.16v-.08Z"/>
      <path class="st3" d="M2038.17,976.08c5.41.75,44.62-13.82,52.19-16.57,17.31-6.24,34.21-11.9,51.11-17.81,8.07-2.75,71.34-24.06,76-27.55,4.25-3.25,4.33-6.33,4.16-13.24-.42-23.14,4.91-24.39-47.86,3.33-29.55,15.48-62.1,31.38-91.65,46.2l-34.55,17.56c-3.75,1.91-9.41,3-9.49,8.16l.08-.08Z"/>
      <path class="st3" d="M2028.6,938.62c3.41,1,4.58-.92,6.58-3,25.97-26.97,58.52-58.69,85.07-85.07,5.83-5.83,74.67-74,78.75-79.08,7.82-9.74-4.99-27.05-15.32-16.15l-26.14,30.55c-14.65,16.98-33.21,37.54-47.28,54.61-6.91,8.32-38.87,45.95-46.87,54.27l-15.9,18.56c-3.58,4.25-6.66,7.74-10.32,11.99-2.58,3-9.91,9.16-8.57,13.24v.08Z"/>
      <path class="st3" d="M2024.86,960.43c4.58,1,4.91-.17,7.58-2.33l158.66-126.36c7.08-5.74,20.64-12.07,10.41-24.64-7.33-8.99-13.9.42-24.64,10.32-7.66,7.08-14.4,13.24-22.06,20.06-14.98,13.32-28.88,26.8-44.03,40.29-23.97,21.39-52.69,47.86-76.83,70.34-2.08,1.91-3.75,3.25-5.66,5.08-2.16,2.08-3.66,3.25-3.5,7.24h.08Z"/>
      <path class="st3" d="M2050.24,998.56c5.24,3,35.54,1.5,44.45,1.5l93.48.25c24.22,0,19.4.67,27.14-20.81-6.16-4.91-9.07-3.16-19.4-1.91l-137.85,16.23c-4.91.67-7.33.5-7.82,4.83v-.08Z"/>
      <path class="st3" d="M2005.46,951.03c4.25.42,4.66-2.08,9.32-8.24l88.74-117.37c5.66-7.41,10.74-13.9,16.15-21.39,3.08-4.25,17.06-17.73,10.57-24.39-7.08-7.24-17.23,11.32-19.56,14.65-30.38,43.37-61.77,89.73-91.73,133.52-3.91,5.74-14.4,18.81-13.4,23.22h-.08Z"/>
      <path class="st3" d="M2003.05,932.8c4.74.25,6.33-4.83,8.57-8.66,2.16-3.66,4.83-7.99,6.91-11.49l82.74-137.18c2.33-3.83,14.73-20.31,9.32-25.31-7.24-6.66-15.4,11.82-17.81,16.15l-84.49,153.75c-2,3.58-5.49,8.07-5.08,12.65l-.17.08Z"/>
      <path class="st3" d="M1984.65,947.12c5.24-.42,4.99-2.91,6.74-7.16,8.07-19.89,21.06-44.62,29.97-65.84,2.66-6.41,5.74-12.49,8.41-18.4l16.98-37.38c1.17-2.5,9.74-17.23,4.49-20.48-2.91-1.83-7.33,2.08-8.41,3.66-1.33,1.91-25.89,62.85-27.89,67.68l-23.72,57.77c-2.08,4.83-7.16,14.82-6.58,20.14h0Z"/>
      <path class="st3" d="M1980.32,933.71c3.58-.42,2.5.42,3.75-2.58.42-1.08,1.08-3.66,1.66-5.24,1.08-3.33,2.08-6.24,3.25-9.82,2.16-6.49,4.33-13.07,6.49-19.56l25.8-78.33c6.41-19.65,6.66-20.89,11.07-41.04-12.15-1.83-14.65,18.73-18.65,32.96-5.66,20.14-34.13,116.21-33.38,123.61Z"/>
      <path class="st3" d="M1957.93,941.79c4.74,0,4.25-7.33,4.99-11.9l16.32-112.04c-4.74.25-5.74,2.75-8.91,9.32-4.58,9.57-5.91,36.88-6.91,48.36-.92,10.24-7.08,60.27-5.41,66.26h-.08Z"/>
      <path class="st3" d="M1935.29,960.43c3.41-.42,3.08-1.75,3.33-10.49.67-29.55,3.91-69.92,3.83-96.81-4.25.75-2.83.67-6.91,8.24-6.58,12.24-3.75,25.39-3.25,41.04.33,9.16.25,53.11,3,58.02Z"/>
      <path class="st3" d="M1967.42,949.36c4.08,1.17,4.49-6.49,5.58-10.99,7.99-35.38,13.82-66.01,20.64-101.72-5.74-1.33-6.99,3.58-8.74,8.07-1.83,4.58-2.41,8.82-3.33,14.23l-10.41,60.18c-1,5.66-5.83,26.3-3.66,30.13l-.08.08Z"/>
      <path class="st3" d="M1901.33,923.89c0,10.32,7.16,40.12,9.82,53.94,1.91,9.99.58,6.58,5.74,14.98,3.66-3.66.42-15.9-.17-21.06l-5.91-56.19c-.58-5.66,0-7.74-2.33-11.15-3.16.75-3.66,1.66-5.58,7.99-1,3.41-1.58,7.49-1.58,11.49h0Z"/>
      <path class="st3" d="M1946.36,957.27c3.58-1.33,3.33-.92,4-8.74l6.66-76.08c-10.82,1-9.41,26.55-9.82,38.29-.42,12.07-2.25,35.71-.83,46.45v.08Z"/>
      <path class="st3" d="M1926.96,976.58l-2-60.77c-4.74.83-4.58,4-4.99,13.32-.33,8.41,2.75,31.13,3.83,41.45.42,3.91,0,5.24,3.16,5.99Z"/>
      <polygon class="st1" points="2008.21 966.59 1972.41 1074.23 1936.62 966.59 1892.25 1099.78 1927.63 1099.78 1927.46 1125.34 1945.36 1125.34 1945.53 1099.78 1999.22 1099.78 1999.05 1125.34 2016.95 1125.34 2017.2 1099.78 2052.49 1099.78 2008.21 966.59"/>
      <path class="st0" d="M1410.53,744.92v-21.81c0-19.73,5.66-39.71,16.9-59.93,11.24-20.23,29.22-37.29,53.94-51.19,24.64-13.9,55.69-20.89,92.65-20.89,43.04,0,79.08,8.24,108.13,24.47,29.22,16.48,50.94,36.96,65.18,61.85,14.23,24.97,21.31,49.78,21.31,74.92,0,22.48-4.58,44.12-13.73,65.01-9.16,20.89-23.89,40.46-44.45,58.85-20.56,18.31-47.45,34.46-80.49,47.95v1.91c46.95,6.83,85.41,24.64,115.46,53.77,30.05,29.05,44.87,67.18,44.87,114.46,0,31.13-8.41,61.35-25.47,90.4-16.9,29.22-42.04,52.94-75.25,71.5-33.21,18.31-73.09,27.47-119.37,27.47-34.13,0-65.93-5.66-95.15-16.9-29.05-11.24-55.19-28.8-78.25-52.36-23.06-23.72-41.7-53.11-56.27-88.24l4.74-1.91c24.64,33.38,54.11,60.52,88.24,81.58,34.13,21.06,70.67,31.47,109.88,31.47,25.14,0,48.86-5.83,71.34-17.4,22.64-11.57,40.95-28.97,54.86-52.36,14.07-23.22,21.14-50.78,21.14-82.24,0-34.96-11.07-66.59-33.21-95.06-21.98-28.3-57.35-46.78-106.22-55.52v-5.99c37.63-13.9,67.51-34.96,89.32-63.1,21.98-27.97,32.88-60.68,32.88-98.14,0-28.64-6.33-52.53-19.15-71.34-12.82-18.81-28.3-32.13-46.45-40.04-18.31-7.91-35.54-11.82-51.86-11.82-14.57,0-31.63,2.83-51.19,8.57-19.65,5.66-37.63,15.98-53.94,30.63-16.32,14.57-27.22,35.13-32.38,61.35h-7.91l-.08.08ZM1605.9,932.88l-3.83,5.49c23.56,8.99,43.04,20.73,58.69,35.38,15.65,14.73,27.22,31.3,34.63,50.11,7.41,18.65,11.07,38.71,11.07,60.43,0,25.89-5.83,51.36-17.56,76.33-11.82,24.97-29.88,45.87-54.19,62.26-24.39,16.57-53.94,24.81-88.4,24.81-14.57,0-27.39-.92-38.54-2.83-11.07-1.75-21.23-4.25-30.22-7.24-9.16-3.16-18.48-6.49-28.14-9.82v4.58c21.31,10.24,40.79,17.73,58.35,22.31,17.73,4.58,35.88,6.99,54.69,6.99,31.13,0,60.43-7.58,87.74-22.89,27.39-15.32,49.2-36.38,65.26-63.26,16.32-26.89,24.39-55.94,24.39-87.57,0-24.97-5.99-48.2-18.06-69.84-12.15-21.64-28.14-39.54-48.03-53.77-19.89-14.23-42.54-24.64-67.84-31.47h0ZM1603.07,915.82l3.83,3.66c36.04-17.56,64.18-38.12,84.41-61.68,20.23-23.39,30.38-52.94,30.38-88.4,0-31.96-7.08-59.43-21.48-82.99-14.4-23.39-33.8-41.45-58.35-53.94-24.47-12.49-50.44-18.81-77.66-18.81s-49.78,5.24-71.92,15.48c-21.98,10.41-39.37,25.14-52.03,44.45l2.66,2.25c32.38-28.64,70.67-43.04,114.79-43.04,21.98,0,43.04,5.24,63.26,15.48,20.23,10.41,36.54,25.64,49.03,45.87,12.49,20.23,18.81,44.12,18.81,71.59,0,64.18-28.64,114.12-85.66,150l-.08.08Z"/>
      <path class="st0" d="M2090.95,606.41v7.24c48.86,10.57,86.65,31.96,113.54,64.18,26.89,32.21,45.2,71.01,55.02,116.37,9.66,45.2,14.57,95.15,14.57,149.75,0,64.35-6.66,118.29-19.89,161.74-13.32,43.45-33.38,77.91-60.27,103.22-26.89,25.47-60.85,43.04-101.97,52.78l-.92,6.99c49.45-8.07,89.32-24.97,119.54-50.94,30.38-25.89,52.53-55.94,66.43-90.15,13.9-34.13,22.64-66.76,26.05-97.73,3.66-30.97,5.41-62.1,5.41-93.31,0-78.08-10.16-140.26-30.55-186.38-20.39-46.2-46.37-79.5-77.75-99.89-31.3-20.39-67.68-34.96-109.13-43.95M2045.58,608.32v-7.41c-23.72,3.66-48.53,10.16-74.33,19.48-25.8,9.32-52.53,25.89-80.16,49.95-27.47,24.22-50.61,58.94-69.09,104.47-18.48,45.53-27.8,102.97-27.8,172.06,0,61.52,10.57,116.04,31.8,163.82,21.06,47.78,50.61,85.24,88.57,112.54,37.96,27.39,82.08,43.79,132.02,49.36v-5.99c-39.87-8.07-73.84-21.64-101.8-40.79-28.14-19.15-50.78-43.29-68.18-72.59-17.23-29.05-29.55-61.02-36.96-95.81-7.41-34.8-11.07-73.67-11.07-117.04,0-108.96,20.73-188.79,62.02-239.4,41.45-50.61,93.15-81.58,155.08-92.65h-.08ZM2068.31,622.56c-41.45,0-78.75,16.48-112.13,49.2-13.9,13.73-25.64,29.05-34.96,45.87-9.49,16.57-17.23,36.04-23.39,58.02-6.16,22.14-10.74,47.28-13.9,75.42-3,27.97-4.58,59.6-4.58,94.9,0,44.28,3,82.24,8.82,114.12,5.83,32.13,14.23,59.27,25.14,81.91,11.07,22.48,25.31,42.54,42.87,60.1,33.05,33.05,70.34,49.61,112.13,49.61s81.58-17.06,115.71-51.36c17.06-17.06,31.13-38.46,42.2-64.18,11.07-25.8,19.15-55.02,24.06-87.74,4.91-32.71,7.41-69.76,7.41-110.79,0-69.42-6.49-124.86-19.31-166.15-12.82-41.45-32.55-75.25-59.43-101.47-31.47-31.47-68.42-47.28-110.71-47.28l.08-.17ZM2072.89,591.09c42.87,0,85.99,10.24,129.19,30.97,43.29,20.73,80.33,57.35,110.96,109.88,30.8,52.53,46.2,122.86,46.2,211.27,0,59.6-8.24,111.13-24.81,154.66-16.48,43.62-38.54,78.91-66.26,105.97-27.64,27.05-58.69,46.95-93.15,60.1-34.3,13.15-69.76,19.73-105.8,19.73-46.95,0-92.48-11.07-136.6-33.05-44.28-22.14-80.91-58.85-110.05-110.05-29.22-51.36-43.79-117.12-43.79-197.28,0-68.59,9.49-126.44,28.47-173.73,18.98-47.28,43.2-83.66,72.75-109.13,29.38-25.47,60.85-43.29,94.23-53.77,33.38-10.24,66.26-15.48,98.64-15.48v-.08Z"/>
      <path class="st1" d="M2145.89,1296.81l-3.5-28.14c-7.99,8.99-24.89,26.3-51.03,51.78,7.66,1.75,12.99,3.91,15.82,6.74,2.83,2.83,6.83,8.32,11.99,16.4,8.74-3.58,15.48-8.49,20.14-14.73,4.66-6.24,7.08-14.73,7.08-25.47v-3.5c0-1.08-.17-2-.33-3.08M2074.05,1326.28v-4.58c33.13-34.88,55.94-59.43,68.34-73.42,2.83-15.82,9.66-23.64,20.48-23.64,2.66,0,5.58.75,8.57,2.33l1.17,3.66c-.5,1.5-.75,3.75-.75,6.49,0,2.5.92,6.99,2.83,13.57,1.83,6.66,3.25,12.15,4.33,16.73,1,4.5,1.5,9.57,1.5,15.15,0,8.49-1.91,16.65-5.83,24.39-3.83,7.74-9.41,15.15-16.73,22.31-7.33,7.08-16.73,14.4-28.3,21.81,4.58.75,8.24,1.17,10.99,1.17,5.24,0,10.9-1.33,17.06-3.91,6.08-2.66,12.32-6.16,18.65-10.57,6.41-4.5,13.82-10.16,22.23-17.23v12.9c-16.4,16.07-31.05,28.22-44.03,36.46-12.99,8.24-24.22,12.4-33.55,12.4-12.07,0-23.31-5.16-33.55-15.4-6.08-6.16-9.82-12.07-11.24-17.73-1.5-5.66-2.25-13.32-2.25-22.97l.08.08ZM2035.51,1269.93c-10.65,6.41-19.81,12.24-27.3,17.4-7.58,5.16-13.98,10.49-19.23,15.73-5.24,5.33-8.82,10.74-10.57,16.07-3.25,14.4-4.83,22.14-4.83,23.31,0,8.49,5.91,12.65,17.65,12.65,5.49,0,14.82-4.74,27.72-14.23-2.16-6.08-3.25-11.82-3.25-17.31,0-8.07,1.66-16.32,4.99-24.72,3.33-8.41,8.32-18.06,14.82-28.97v.08ZM2075.13,1320.62v12.9c-8.49,7.66-15.23,12.82-20.39,15.4s-12.57,3.58-22.14,3.08c-16.73,19.81-31.38,29.63-44.12,29.63-7.16,0-13.73-2.33-19.56-7.08-5.91-4.83-10.65-11.24-14.15-19.48-3.58-8.24-5.33-17.4-5.33-27.55,0-8.24,2.66-17.31,8.16-27.3,5.49-9.99,12.57-19.31,21.23-27.97,8.57-8.66,17.9-15.65,27.8-20.98,9.82-5.33,18.98-7.99,27.47-7.99,6.08,0,10.82.92,14.23,2.75,3.5,1.91,5.16,4.5,5.16,7.82,0,2.58-1.42,5.49-4.41,8.91,4.83,1,8.24,2.66,9.99,5.16,1.75,2.33,2.66,6.74,2.66,12.99s-1.42,13.9-4.33,23.31c-2.91,9.32-6.83,18.15-11.82,26.39l3.5,3.5h2.91c2.16,0,4.33-.58,6.41-1.66s4-2.25,5.66-3.5c1.75-1.17,5.33-3.91,10.99-8.16l.08-.17ZM1937.12,1286.08c-22.56,25.14-33.88,42.7-33.88,52.53,0,5.49,2.25,8.24,6.74,8.24,3.75,0,8.57-1.91,14.57-5.83,5.99-3.91,15.32-10.82,27.97-20.89v13.32c-18.23,17.98-32.21,30.97-41.95,38.87-9.74,7.99-17.65,11.99-23.89,11.99-10.49,0-15.82-6.99-15.82-20.81,0-4.08.67-8.16,1.91-12.07,1.33-4,3.08-8.16,5.33-12.4,2.25-4.33,5.66-10.49,10.24-18.48,4.58-8.07,9.91-17.15,15.98-27.3-7.33,3.75-16.48,11.07-27.47,22.14-7.24,6.91-13.32,13.57-18.31,19.73-4.99,6.24-10.32,13.15-16.07,20.81-5.74,7.66-9.82,12.74-12.57,15.4-2.66,2.66-5.24,3.91-7.99,3.91-4.16,0-7.91-4.25-11.4-12.9-3.5-8.57-5.16-18.56-5.16-30.05,0-7.08.75-12.65,2.41-16.57,1.58-4,4.74-9.66,9.49-16.98,8.82-13.57,16.48-23.56,22.89-29.88,6.41-6.41,12.65-9.49,18.48-9.49,4.16,0,7.41.67,9.91,2.08s3.75,3.58,3.75,6.49c0,1.33-.33,2.66-1.08,4.08-.75,1.42-1.66,2.66-2.66,3.83-.92,1.17-3,3.41-6.08,6.74-20.31,22.48-30.47,37.04-30.47,43.7,0,3.75,1.25,5.58,3.66,5.58,1.5,0,4.49-2.5,8.91-7.41,4.41-4.91,10.16-11.4,17.06-19.48,7.08-7.99,15.32-16.4,24.81-25.14,9.57-8.74,20.48-17.15,32.63-25.22,6.74-4.74,12.4-7.08,16.9-7.08,2.08,0,4.08,2.83,6.08,8.49,2,5.66,3,11.4,3,17.06,0,2.83-2.75,7.16-8.24,12.99h.33ZM1689.14,1258.52l62.35-1.17c7.33-12.4,13.24-22.56,17.81-30.22,4.49-7.66,9.49-16.07,14.98-25.14,5.49-9.07,10.16-16.73,14.07-22.97,3.91-6.33,8.24-13.4,12.99-21.39-9.24,5.74-18.65,12.15-28.3,19.23-9.57,6.99-20.48,15.57-32.55,25.47-12.07,9.91-22.72,19.23-32.13,27.72-9.41,8.49-19.15,17.98-29.22,28.39v.08ZM1725.44,1302.22c-15.4.5-26.72.75-33.88.75-11.07,0-26.39-.25-45.87-.75-4.08,4.5-9.07,9.82-14.98,15.82-5.91,6.08-11.49,11.74-16.73,16.98-5.24,5.16-9.82,9.66-13.57,13.32-3.75,3.58-6.91,6.74-9.32,9.16-14.23,13.9-23.56,22.89-27.8,27.14-4.33,4.25-8.82,7.99-13.57,11.4-4.74,3.41-9.07,5.16-13.07,5.16-4.49,0-6.74-2.08-6.74-6.16,0-4.5,3.16-11.4,9.57-20.81,6.41-9.32,13.65-17.65,21.73-24.81,8.07-7.24,14.73-10.82,19.81-10.82,1.42,0,3.41.67,5.99,2l36.54-39.12c-4.58-.67-10.65-1.08-18.06-1.25-7.41-.17-12.4-.75-15.07-1.66-2.58-.92-3.83-3.08-3.83-6.58,0-5.49,5.91-14.15,17.65-25.97,6.41-6.58,12.49-10.74,18.15-12.57,5.66-1.75,16.4-2.75,32.38-2.91-9.41,1.33-16.07,2.83-19.89,4.58-3.91,1.75-6.08,4.33-6.41,7.82h22.56c5.08,0,8.82-.17,11.24-.33,21.14-20.48,40.21-38.37,57.35-53.61,17.23-15.23,35.38-29.72,54.44-43.29,19.06-13.65,39.37-26.22,60.93-37.63,4.25,5.49,6.41,11.32,6.41,17.31,0,4.99-1.66,10.74-4.91,17.31s-10.16,18.9-20.81,36.88c-10.57,17.98-21.39,37.21-32.3,57.44,3.58,0,6.58,0,8.91.17,2.41,0,4.91.17,7.66.25,7.33,0,11.74.17,13.4.42,1.58.25,2.33,1.5,2.33,3.91,0,1-1,2.83-3,5.49-2,2.66-5.49,6.99-10.49,13.07-4.99,6.08-9.82,12.32-14.57,18.56l-28.3,2.33c-15.07,28.3-22.56,44.2-22.56,47.78,0,5.24,2.75,7.91,8.32,7.91,2.66,0,13.9-5.66,33.55-16.98l-1.58,10.16c-10.49,7.99-18.65,14.23-24.56,18.81-5.83,4.5-10.9,8.32-15.23,11.4-4.25,3-8.24,5.24-11.74,6.74-3.58,1.5-7.08,2.25-10.74,2.25-4.25,0-8.41-2-12.49-5.83-4.16-3.91-6.16-9.49-6.16-16.73,0-3,1.08-7.16,3.25-12.65,2.16-5.49,4.58-10.65,7.08-15.73,2.5-4.99,8.82-16.98,18.9-35.96l.08-.17Z"/>
      <path class="st1" d="M525.92,1605.47l75.08-4.74c1.58,12.24,4.91,21.48,9.91,27.89,8.16,10.32,19.73,15.48,34.88,15.48,11.24,0,19.98-2.66,26.05-7.91,6.08-5.33,9.16-11.4,9.16-18.4s-2.91-12.57-8.74-17.81c-5.83-5.24-19.31-10.16-40.46-14.82-34.63-7.82-59.35-18.15-74.09-31.05-14.9-12.9-22.31-29.3-22.31-49.36,0-13.15,3.83-25.56,11.4-37.21,7.58-11.65,19.06-20.81,34.38-27.55,15.32-6.66,36.21-9.99,62.85-9.99,32.63,0,57.52,6.08,74.67,18.23,17.15,12.15,27.3,31.47,30.63,57.94l-74.42,4.33c-2-11.49-6.16-19.89-12.49-25.06-6.33-5.24-15.07-7.82-26.22-7.82-9.16,0-16.07,2-20.73,5.83-4.66,3.91-6.99,8.66-6.99,14.23,0,4.08,1.91,7.74,5.74,10.99,3.75,3.33,12.57,6.49,26.47,9.41,34.55,7.41,59.27,14.98,74.17,22.56,14.9,7.58,25.8,17.06,32.63,28.3,6.83,11.24,10.16,23.89,10.16,37.79,0,16.4-4.5,31.47-13.57,45.28-9.07,13.82-21.73,24.31-37.96,31.47s-36.79,10.74-61.52,10.74c-43.45,0-73.59-8.41-90.32-25.06-16.73-16.73-26.22-37.96-28.39-63.76"/>
      <path class="st1" d="M963.77,1434.5h78.83v152.25c0,15.07-2.33,29.38-7.08,42.79s-12.07,25.14-22.14,35.21c-10.07,10.07-20.56,17.15-31.63,21.14-15.32,5.66-33.8,8.57-55.27,8.57-12.4,0-25.97-.83-40.71-2.58-14.73-1.75-26.97-5.16-36.88-10.32-9.91-5.16-18.9-12.49-27.14-22.06-8.16-9.49-13.82-19.31-16.81-29.47-4.91-16.23-7.33-30.63-7.33-43.2v-152.25h78.83v155.83c0,13.9,3.83,24.81,11.57,32.63,7.74,7.82,18.4,11.74,32.13,11.74s24.22-3.83,31.96-11.57c7.74-7.74,11.57-18.65,11.57-32.8v-155.83l.08-.08Z"/>
      <polygon class="st1" points="1094.88 1434.5 1173.79 1434.5 1173.79 1627.03 1297.07 1627.03 1297.07 1689.96 1094.88 1689.96 1094.88 1434.5"/>
      <path class="st1" d="M1497.02,1585.41l69.17,20.89c-4.66,19.4-11.99,35.63-21.98,48.61-9.99,12.99-22.39,22.81-37.21,29.47-14.82,6.66-33.71,9.91-56.52,9.91-27.8,0-50.44-4-68.09-12.07-17.65-8.07-32.8-22.31-45.62-42.62-12.82-20.31-19.15-46.37-19.15-78.08,0-42.29,11.24-74.75,33.71-97.48s54.27-34.05,95.4-34.05c32.21,0,57.52,6.49,75.92,19.56,18.4,12.99,32.13,32.96,41.04,59.93l-69.76,15.48c-2.41-7.82-4.99-13.49-7.66-17.06-4.41-6.08-9.82-10.74-16.23-13.9-6.41-3.25-13.57-4.91-21.48-4.91-17.9,0-31.63,7.24-41.12,21.56-7.24,10.65-10.82,27.47-10.82,50.28,0,28.3,4.33,47.78,12.9,58.27,8.57,10.49,20.64,15.73,36.29,15.73s26.55-4.25,34.21-12.74c7.74-8.49,13.32-20.81,16.81-36.96"/>
      <path class="st1" d="M1605.57,1689.96v-255.55h131.61c24.39,0,43.04,2.08,55.94,6.24,12.9,4.16,23.31,11.9,31.22,23.31,7.91,11.32,11.82,25.14,11.82,41.37,0,14.15-3,26.39-9.07,36.71-6.08,10.32-14.32,18.65-24.97,24.97-6.74,4.08-15.98,7.41-27.72,10.16,9.41,3.16,16.23,6.24,20.56,9.41,2.91,2.08,7.08,6.58,12.65,13.4,5.49,6.91,9.24,12.15,11.07,15.9l38.21,74.09h-89.24l-42.2-78.08c-5.33-10.07-10.07-16.65-14.32-19.65-5.66-4-12.15-5.91-19.31-5.91h-6.99v103.72h-79.33l.08-.08ZM1684.9,1537.97h33.3c3.58,0,10.57-1.17,20.89-3.5,5.24-1,9.49-3.75,12.82-7.99,3.33-4.33,4.99-9.24,4.99-14.82,0-8.24-2.58-14.57-7.82-18.98s-15.07-6.66-29.47-6.66h-34.71v51.94Z"/>
      <polygon class="st1" points="1882.01 1434.5 2093.61 1434.5 2093.61 1489.02 1961.18 1489.02 1961.18 1529.64 2084.04 1529.64 2084.04 1581.75 1961.18 1581.75 1961.18 1632.11 2097.53 1632.11 2097.53 1689.96 1882.01 1689.96 1882.01 1434.5"/>
      <path class="st1" d="M2141.06,1434.5h117.29c23.14,0,41.79,3.16,56.02,9.41,14.23,6.24,25.97,15.32,35.29,27.05,9.32,11.74,16.07,25.39,20.23,40.95,4.16,15.57,6.24,32.05,6.24,49.53,0,27.3-3.08,48.45-9.32,63.51s-14.82,27.64-25.89,37.79c-11.07,10.16-22.89,16.9-35.54,20.31-17.31,4.66-32.96,6.99-47.03,6.99h-117.29v-255.55h0ZM2220.06,1492.35v139.6h19.31c16.48,0,28.22-1.83,35.21-5.49,6.99-3.66,12.4-10.07,16.4-19.15,4-9.16,5.91-23.89,5.91-44.37,0-27.05-4.41-45.62-13.24-55.61-8.82-9.99-23.47-14.98-43.95-14.98h-19.73.08Z"/>
      <rect class="st1" x="2420.84" y="1434.5" width="79.16" height="255.55"/>
      <polygon class="st2" points="774.48 1873.85 774.48 1778.37 830.67 1778.37 830.67 1795.6 794.88 1795.6 794.88 1815.24 830.67 1815.24 830.67 1832.56 794.88 1832.56 794.88 1873.85 774.48 1873.85"/>
      <path class="st2" d="M912.16,1842.13c0,9.82-3.33,17.98-10.07,24.56-6.74,6.49-15.23,9.74-25.56,9.74s-18.98-3.25-25.72-9.74c-6.74-6.49-10.07-14.73-10.07-24.56s3.41-17.98,10.16-24.47c6.83-6.58,15.32-9.82,25.64-9.82s18.9,3.25,25.56,9.74,10.07,14.65,10.07,24.64M893.18,1841.96c0-5.24-1.5-9.41-4.58-12.49-3.08-3.08-7.16-4.66-12.24-4.66s-9.16,1.5-12.15,4.66c-3,3.08-4.5,7.24-4.5,12.49s1.5,9.41,4.5,12.49c3,3.16,7.08,4.66,12.15,4.66s9.16-1.58,12.24-4.66c3.08-3.16,4.58-7.33,4.58-12.49Z"/>
      <path class="st2" d="M944.04,1826.31c1.83-6.24,4.58-10.9,8.07-13.98s7.82-4.66,12.99-4.66c1.17,0,3.08.25,5.83.67.5.08.92.17,1.17.25l-2.83,19.98c-1.42-.58-2.83-1-4.16-1.25-1.42-.25-2.91-.42-4.5-.42-5.66,0-9.74,1.42-12.15,4.33-2.5,2.91-3.75,7.74-3.75,14.48v28.14h-18.56v-63.93h18.31l-.42,16.48v-.08Z"/>
      <path class="st2" d="M1027.62,1871.93c-2.5,1.5-5.16,2.66-7.99,3.33-2.75.75-5.83,1.08-9.16,1.08-10.07,0-18.31-3.16-24.64-9.57-6.33-6.41-9.49-14.73-9.49-24.97s3.16-18.23,9.57-24.56c6.41-6.33,14.65-9.49,24.81-9.49,3.41,0,6.41.33,9.16,1,2.66.67,5.24,1.66,7.66,3.08l-.17,18.65c-1.91-2-4.25-3.58-6.74-4.66-2.58-1.08-5.24-1.66-8.16-1.66-5.24,0-9.41,1.58-12.49,4.83-3.16,3.16-4.66,7.41-4.66,12.65s1.58,9.66,4.83,12.9c3.16,3.16,7.49,4.83,12.9,4.83,3,0,5.66-.58,7.99-1.66,2.33-1.08,4.5-2.75,6.41-5.08l.17,19.4v-.08ZM990.83,1902.4v-8.24c3.5.92,6.66,1.58,9.57,2.08,2.91.5,5.33.75,7.24.75,2.25,0,3.83-.42,4.91-1.17,1.08-.83,1.58-2,1.58-3.66s-.58-2.75-1.83-3.41c-1.17-.67-3.25-1-6.08-1h-2.08c-.58,0-1.08,0-1.66.08v-13.9h6.66v5.91h1c5.08,0,8.82,1.08,11.4,3.16,2.58,2.08,3.91,5.24,3.91,9.41s-1.42,7.49-4.33,9.66c-2.91,2.16-7.24,3.25-12.99,3.25-2.16,0-4.66-.25-7.74-.75-3-.5-6.24-1.17-9.66-2.08l.08-.08Z"/>
      <path class="st2" d="M1105.78,1873.85h-17.98l.25-9.16c-2.5,4.08-5.58,6.99-9.07,8.91-3.58,1.91-7.82,2.83-12.99,2.83-8.49,0-15.32-3.16-20.48-9.49s-7.82-14.65-7.82-24.97,2.58-19.15,7.66-25.22c5.08-5.99,12.24-8.99,21.31-8.99,4.74,0,8.91,1.08,12.49,3.16,3.58,2.08,6.58,5.33,8.99,9.49v-10.57h17.56v63.93l.08.08ZM1088.8,1841.8c0-5.74-1.42-10.32-4.33-13.65-2.91-3.33-6.83-4.99-11.74-4.99s-8.99,1.66-11.9,4.99c-2.91,3.33-4.33,7.91-4.33,13.65s1.42,10.24,4.25,13.49c2.83,3.25,6.83,4.83,11.82,4.83s9.07-1.58,11.9-4.83,4.25-7.74,4.25-13.49h.08Z"/>
      <path class="st2" d="M1228.32,1873.85h-17.98l.25-9.16c-2.5,4.08-5.58,6.99-9.07,8.91-3.58,1.91-7.82,2.83-12.9,2.83-8.49,0-15.32-3.16-20.48-9.49-5.16-6.33-7.82-14.65-7.82-24.97s2.58-19.23,7.66-25.31,12.24-9.07,21.31-9.07c4.66,0,8.74,1.08,12.24,3.16,3.5,2.16,6.83,5.49,9.91,10.07-.25-1.58-.42-3.33-.5-5.16-.08-1.91-.17-4.08-.17-6.49v-36.46h17.65v101.06l-.08.08ZM1211.42,1841.8c0-5.74-1.42-10.32-4.33-13.65-2.91-3.33-6.83-4.99-11.74-4.99s-8.99,1.66-11.9,4.91c-2.91,3.25-4.33,7.82-4.33,13.57s1.42,10.32,4.25,13.57c2.83,3.25,6.83,4.91,11.82,4.91s9.07-1.58,11.9-4.83,4.25-7.74,4.25-13.49h.08Z"/>
      <path class="st2" d="M1308.98,1846.46h-48.03c.75,4.58,2.41,8.07,4.99,10.32,2.58,2.25,6.16,3.41,10.65,3.41,3.41,0,6.33-.67,8.74-2,2.41-1.33,4.49-3.25,6.16-5.91l14.98,7.49c-3.5,5.66-7.66,9.82-12.65,12.49-4.91,2.75-10.82,4.08-17.65,4.08-10.32,0-18.56-3.08-24.56-9.24-6.08-6.16-9.07-14.48-9.07-24.89s3.16-18.31,9.49-24.81c6.33-6.49,14.4-9.74,24.31-9.74s18.23,3,24.14,9.07c5.91,6.08,8.91,14.32,8.91,24.81v1.83c0,.67-.08,1.66-.25,3M1290.58,1835.22c-.5-4.08-2-7.08-4.41-9.16s-5.66-3.08-9.91-3.08-7.49,1-9.99,3.08-4.08,5.16-4.74,9.16h29.05Z"/>
      <path class="st2" d="M1428.18,1902.9h-18.48v-26.55c0-2.08,0-4.08.17-5.99.17-2,.33-3.91.58-5.66-2.5,4.08-5.58,6.99-9.07,8.91-3.58,1.91-7.82,2.83-12.9,2.83-8.49,0-15.32-3.16-20.48-9.49-5.16-6.33-7.82-14.65-7.82-24.97s2.58-19.15,7.66-25.22c5.08-5.99,12.24-8.99,21.31-8.99,4.74,0,8.91,1.08,12.49,3.16,3.58,2.08,6.58,5.33,9.07,9.49v-10.57h17.56v93.06h-.08ZM1411.2,1841.8c0-5.74-1.42-10.32-4.33-13.65-2.91-3.33-6.83-4.99-11.74-4.99s-8.99,1.66-11.9,4.99c-2.91,3.33-4.33,7.91-4.33,13.65s1.42,10.24,4.25,13.49,6.83,4.83,11.82,4.83,9.07-1.58,11.9-4.83,4.25-7.74,4.25-13.49h.08Z"/>
      <path class="st2" d="M1464.56,1809.92v33.63c0,5.66,1.08,9.74,3.33,12.15,2.16,2.41,5.74,3.66,10.74,3.66s8.49-1.25,10.65-3.66c2.25-2.5,3.33-6.49,3.33-12.07v-33.63h18.56v33.63c0,11.24-2.66,19.56-7.91,24.89-5.24,5.33-13.4,7.99-24.47,7.99s-19.56-2.66-24.81-7.99c-5.24-5.33-7.91-13.57-7.91-24.89v-33.63h18.48v-.08Z"/>
      <path class="st2" d="M1591.5,1846.46h-48.03c.75,4.58,2.41,8.07,4.99,10.32,2.58,2.25,6.16,3.41,10.65,3.41,3.41,0,6.33-.67,8.74-2,2.5-1.33,4.49-3.25,6.16-5.91l14.98,7.49c-3.5,5.66-7.66,9.82-12.65,12.49-4.99,2.75-10.82,4.08-17.65,4.08-10.32,0-18.56-3.08-24.56-9.24-6.08-6.16-9.07-14.48-9.07-24.89s3.16-18.31,9.49-24.81c6.33-6.49,14.4-9.74,24.31-9.74s18.23,3,24.14,9.07c5.91,6.08,8.91,14.32,8.91,24.81v1.83c0,.67-.17,1.66-.25,3M1573.1,1835.22c-.5-4.08-2-7.08-4.41-9.16s-5.66-3.08-9.91-3.08-7.49,1-9.99,3.08-4.08,5.16-4.74,9.16h29.05Z"/>
      <path class="st2" d="M1623.96,1873.85h-18.56v-63.93h18.56v10.07c3.08-4.25,6.33-7.33,9.74-9.24,3.5-1.91,7.41-2.91,11.82-2.91,5.33,0,9.57,1.08,12.9,3.25,3.33,2.16,5.66,5.49,7.08,9.82,3-4.33,6.33-7.66,10.07-9.82,3.75-2.16,7.91-3.25,12.32-3.25s8.32.83,11.49,2.5c3.16,1.66,5.58,4.16,7.33,7.49.92,1.83,1.58,3.91,1.91,6.16.42,2.33.58,5.83.58,10.49v39.37h-18.56v-31.63c0-7.82-.83-12.99-2.41-15.48-1.58-2.58-4.33-3.83-8.32-3.83-4.74,0-8.24,1.75-10.41,5.33s-3.25,9.41-3.25,17.48v28.14h-18.56v-31.63c0-7.49-.75-12.65-2.25-15.23-1.5-2.66-4-4-7.66-4-4.91,0-8.49,1.83-10.74,5.41-2.25,3.58-3.33,9.41-3.33,17.31v28.14h.25Z"/>
      <path class="st2" d="M1815.17,1871.93c-2.5,1.5-5.16,2.66-7.99,3.33-2.75.75-5.83,1.08-9.16,1.08-10.07,0-18.31-3.16-24.64-9.57-6.33-6.41-9.49-14.73-9.49-24.97s3.16-18.23,9.57-24.56c6.41-6.33,14.65-9.49,24.81-9.49,3.41,0,6.41.33,9.16,1,2.66.67,5.24,1.66,7.66,3.08v18.65c-2.08-2-4.33-3.58-6.91-4.66s-5.24-1.66-8.16-1.66c-5.24,0-9.41,1.58-12.49,4.83-3.16,3.16-4.66,7.41-4.66,12.65s1.58,9.66,4.83,12.9,7.49,4.83,12.9,4.83c3,0,5.66-.58,7.99-1.66,2.33-1.08,4.49-2.75,6.41-5.08v19.4l.17-.08Z"/>
      <path class="st2" d="M1896.5,1842.13c0,9.82-3.33,17.98-10.07,24.56-6.74,6.49-15.23,9.74-25.56,9.74s-18.98-3.25-25.72-9.74c-6.74-6.49-10.07-14.73-10.07-24.56s3.41-17.98,10.16-24.47c6.74-6.58,15.32-9.82,25.64-9.82s18.9,3.25,25.56,9.74,10.07,14.65,10.07,24.64M1877.52,1841.96c0-5.24-1.5-9.41-4.58-12.49-3.08-3.08-7.16-4.66-12.24-4.66s-9.16,1.5-12.24,4.66c-3,3.08-4.49,7.24-4.49,12.49s1.5,9.41,4.49,12.49c3,3.16,7.08,4.66,12.24,4.66s9.16-1.58,12.24-4.66c3.08-3.16,4.58-7.33,4.58-12.49Z"/>
      <path class="st2" d="M1977.74,1842.13c0,9.82-3.33,17.98-10.07,24.56-6.74,6.49-15.23,9.74-25.56,9.74s-18.98-3.25-25.72-9.74c-6.74-6.49-10.07-14.73-10.07-24.56s3.41-17.98,10.16-24.47c6.74-6.58,15.32-9.82,25.64-9.82s18.9,3.25,25.56,9.74c6.74,6.49,10.07,14.65,10.07,24.64M1958.85,1841.96c0-5.24-1.5-9.41-4.58-12.49-3.08-3.08-7.16-4.66-12.24-4.66s-9.24,1.5-12.24,4.66c-3,3.08-4.49,7.24-4.49,12.49s1.5,9.41,4.49,12.49c3,3.16,7.08,4.66,12.24,4.66s9.16-1.58,12.24-4.66c3.08-3.16,4.58-7.33,4.58-12.49Z"/>
      <path class="st2" d="M1991.81,1902.9v-93.06h17.81v10.57c2.41-4.25,5.41-7.41,8.99-9.57,3.58-2.16,7.66-3.16,12.32-3.16,9.07,0,16.23,3,21.31,8.99,5.16,5.99,7.66,14.4,7.66,25.22s-2.58,18.73-7.74,24.97c-5.16,6.24-11.99,9.41-20.39,9.41-5.08,0-9.41-.92-12.99-2.83-3.58-1.91-6.58-4.83-9.07-8.91.25,1.58.42,3.33.5,5.24.08,1.91.17,4.08.17,6.49v26.55h-18.56v.08ZM2008.71,1841.8c0,5.74,1.42,10.24,4.25,13.49,2.83,3.25,6.83,4.83,11.9,4.83s9.07-1.58,11.9-4.83,4.25-7.74,4.25-13.49-1.42-10.32-4.33-13.65-6.91-4.99-11.99-4.99-8.82,1.66-11.74,4.99c-2.91,3.33-4.33,7.91-4.33,13.65h.08Z"/>
      <path class="st2" d="M2136.57,1846.46h-48.03c.75,4.58,2.41,8.07,4.99,10.32,2.58,2.25,6.16,3.41,10.65,3.41,3.41,0,6.33-.67,8.74-2,2.41-1.33,4.49-3.25,6.16-5.91l14.98,7.49c-3.5,5.66-7.66,9.82-12.65,12.49-4.91,2.75-10.82,4.08-17.65,4.08-10.32,0-18.56-3.08-24.56-9.24-6.08-6.16-9.07-14.48-9.07-24.89s3.16-18.31,9.49-24.81c6.33-6.49,14.4-9.74,24.31-9.74s18.23,3,24.14,9.07c5.91,6.08,8.91,14.32,8.91,24.81v1.83c0,.67-.08,1.66-.25,3M2118.17,1835.22c-.5-4.08-2-7.08-4.41-9.16s-5.66-3.08-9.91-3.08-7.49,1-9.99,3.08-4.08,5.16-4.83,9.16h29.13Z"/>
      <path class="st2" d="M2168.53,1826.31c1.83-6.24,4.58-10.9,8.07-13.98,3.5-3.08,7.82-4.66,12.99-4.66,1.17,0,3.08.25,5.83.67.5.08.92.17,1.17.25l-2.83,19.98c-1.42-.58-2.83-1-4.25-1.25s-2.91-.42-4.5-.42c-5.66,0-9.74,1.42-12.15,4.33-2.5,2.91-3.75,7.74-3.75,14.48v28.14h-18.56v-63.93h18.31l-.42,16.48.08-.08Z"/>
      <path class="st2" d="M2269.09,1873.85h-17.98l.25-9.16c-2.5,4.08-5.58,6.99-9.07,8.91-3.58,1.91-7.82,2.83-12.9,2.83-8.49,0-15.32-3.16-20.48-9.49-5.16-6.33-7.82-14.65-7.82-24.97s2.58-19.15,7.66-25.22c5.08-5.99,12.24-8.99,21.31-8.99,4.74,0,8.91,1.08,12.49,3.16s6.58,5.33,8.99,9.49v-10.57h17.56v64.01ZM2252.11,1841.8c0-5.74-1.42-10.32-4.33-13.65-2.91-3.33-6.83-4.99-11.74-4.99s-8.99,1.66-11.9,4.99c-2.91,3.33-4.33,7.91-4.33,13.65s1.42,10.24,4.25,13.49,6.83,4.83,11.82,4.83,9.07-1.58,11.9-4.83,4.25-7.74,4.25-13.49h.08Z"/>
      <path class="st3" d="M440.77,1217.65c16.48,3.33,29.63-8.66,41.29-15.32l498.95-288.93c36.54-21.31,39.37-29.88,23.06-81.08-9.41-29.55-43.45,3.25-72.59,24.72-90.98,67.34-189.21,134.77-281.69,202.28l-194.12,139.76c-8.41,5.91-13.57,6.66-14.9,18.56Z"/>
      <path class="st3" d="M472.23,1293.07c12.15,4.08,398.48-54.02,446.51-60.85,26.89-3.83,52.11-4.91,61.68-24.47,4.58-9.41,13.82-65.76,5.91-73.09-10.82-9.99-113.63,26.64-130.77,31.63-83.91,24.31-176.31,54.27-260.8,79.58l-98.31,30.05c-13.73,4.16-25.56,4.33-24.14,17.15h-.08Z"/>
      <path class="st3" d="M407.63,1273.01c14.98,2.16,124.61-38.62,145.76-46.28,48.36-17.56,95.56-33.38,142.93-49.7,22.48-7.82,199.36-67.09,212.35-77.08,11.82-8.99,12.07-17.65,11.65-37.04-1.25-64.68,13.65-68.01-133.69,9.16-82.66,43.29-173.48,87.65-256.05,129.11l-96.56,49.03c-10.49,5.41-26.39,8.32-26.47,22.73l.08.08Z"/>
      <path class="st3" d="M380.91,1168.45c9.49,2.75,12.74-2.5,18.48-8.41,72.67-75.42,163.57-163.9,237.66-237.57,16.4-16.32,208.69-206.69,220.09-220.84,21.89-27.14-14.07-75.58-42.87-45.03l-73,85.41c-40.87,47.36-92.9,104.88-132.19,152.5-19.31,23.31-108.55,128.44-130.94,151.75l-44.45,51.86c-10.07,11.82-18.65,21.73-28.72,33.46-7.16,8.24-27.64,25.47-23.97,37.04l-.08-.17Z"/>
      <path class="st3" d="M370.34,1229.39c12.74,2.83,13.65-.42,21.06-6.49l443.35-353.03c19.73-15.98,57.77-33.63,29.05-68.76-20.56-25.06-38.79,1.25-68.76,28.8-21.39,19.65-40.12,37.04-61.6,56.1-41.79,37.21-80.74,75-122.95,112.54-67.01,59.68-147.09,133.69-214.68,196.45-5.83,5.49-10.49,9.16-15.82,14.15-6.08,5.74-10.24,9.07-9.66,20.23Z"/>
      <path class="st3" d="M441.35,1335.77c14.73,8.41,99.31,4.08,124.2,4.08l261.21.67c67.76.17,54.27,2,75.75-58.1-17.31-13.65-25.39-8.82-54.19-5.41l-385.08,45.28c-13.82,1.83-20.48,1.33-21.89,13.49Z"/>
      <path class="st3" d="M316.24,1202.92c11.74,1.08,12.99-5.91,25.97-23.06l247.98-327.89c15.73-20.81,29.97-38.87,45.03-59.77,8.57-11.9,47.7-49.45,29.47-68.09-19.81-20.14-48.11,31.63-54.69,40.95-84.82,121.12-172.64,250.72-256.3,373.09-10.99,16.07-40.37,52.44-37.54,64.85l.08-.08Z"/>
      <path class="st3" d="M309.41,1152.14c13.24.83,17.56-13.57,23.81-24.14,6.08-10.32,13.4-22.23,19.31-32.05l231.08-383.33c6.58-10.74,41.2-56.69,26.05-70.67-20.23-18.73-43.12,33.13-49.86,45.2l-236.16,429.61c-5.49,9.99-15.4,22.64-14.32,35.38h.08Z"/>
      <path class="st3" d="M258.05,1192.18c14.65-1.25,13.98-8.07,18.9-19.98,22.64-55.52,58.77-124.61,83.82-183.88,7.49-17.81,15.98-34.88,23.47-51.44l47.45-104.47c3.16-6.99,27.14-48.03,12.49-57.27-8.07-5.08-20.39,5.83-23.39,10.32-3.58,5.41-72.25,175.47-78,189.04l-66.26,161.41c-5.83,13.49-20.06,41.29-18.4,56.27h-.08Z"/>
      <path class="st3" d="M246.06,1154.64c9.99-1.17,6.91,1.25,10.49-7.16,1.25-2.91,3.16-10.24,4.58-14.65,3.16-9.32,5.74-17.48,8.99-27.47,5.99-18.15,12.15-36.46,18.15-54.61l72.17-218.93c17.81-54.77,18.48-58.35,31.05-114.62-33.96-5.08-40.79,52.36-52.11,92.15-15.9,56.19-95.31,324.73-93.31,345.37v-.08Z"/>
      <path class="st3" d="M183.55,1177.28c13.32.17,11.99-20.39,13.9-33.38l45.53-313.07c-13.15.67-16.15,7.57-24.97,26.05-12.82,26.8-16.4,102.97-19.31,135.18-2.58,28.72-19.73,168.48-15.15,185.21Z"/>
      <path class="st3" d="M120.28,1229.22c9.49-1.08,8.66-4.83,9.24-29.3,1.91-82.66,10.9-195.37,10.74-270.54-11.74,2.08-7.99,1.91-19.31,23.06-18.23,34.13-10.57,70.84-9.07,114.71.83,25.64.75,148.5,8.41,162.07Z"/>
      <path class="st3" d="M209.85,1198.26c11.32,3.16,12.65-18.06,15.48-30.63,22.39-98.89,38.62-184.55,57.6-284.1-15.98-3.75-19.48,10.07-24.47,22.56-5.08,12.82-6.74,24.64-9.32,39.79l-29.13,168.07c-2.66,15.73-16.4,73.5-10.24,84.32h.08Z"/>
      <path class="st3" d="M25.31,1127.08c0,28.97,20.06,112.21,27.47,150.58,5.41,27.97,1.58,18.48,16.07,41.79,10.24-10.32,1.25-44.37-.42-58.85l-16.48-157.08c-1.66-15.73-.25-21.56-6.58-31.05-8.74,2-10.32,4.58-15.57,22.39-2.75,9.49-4.5,20.98-4.5,32.13v.08Z"/>
      <path class="st3" d="M151.08,1220.56c9.99-3.75,9.32-2.66,11.07-24.31l18.65-212.52c-30.13,2.91-26.22,74.17-27.39,107.05-1.17,33.71-6.24,99.89-2.33,129.77Z"/>
      <path class="st3" d="M97.06,1274.5l-5.66-169.81c-13.4,2.25-12.9,11.15-13.9,37.29-.92,23.56,7.74,86.99,10.65,115.79,1.08,10.99,0,14.73,8.82,16.73h.08Z"/>
      <polygon class="st1" points="323.89 1246.54 223.84 1547.29 123.78 1246.54 0 1618.79 98.81 1618.79 98.23 1690.05 148.25 1690.05 148.84 1618.79 298.84 1618.79 298.34 1690.05 348.37 1690.05 348.95 1618.79 447.76 1618.79 323.89 1246.54"/>
    </g>
  </g>
</svg>