<?xml version="1.0" encoding="UTF-8"?>
<svg id="Camada_2" xmlns="http://www.w3.org/2000/svg" version="1.1" viewBox="0 0 2500 2500">
  <!-- Generator: Adobe Illustrator 29.6.0, SVG Export Plug-In . SVG Version: 2.1.1 Build 207)  -->
  <defs>
    <style>
      .st0 {
        fill: #1b6b2f;
      }

      .st1 {
        fill: #ef7d00;
        fill-rule: evenodd;
      }
    </style>
  </defs>
  <g id="Camada_1-2">
    <g>
      <path class="st1" d="M1161.96,1370.61c37.06,7.49,66.62-19.46,92.83-34.44l1121.77-649.59c82.16-47.91,88.52-67.19,51.84-182.28-21.15-66.44-97.69,7.3-163.19,55.58-204.55,151.4-425.39,302.99-633.31,454.77l-436.43,314.22c-18.9,13.29-30.51,14.97-33.5,41.73Z"/>
      <path class="st1" d="M1232.7,1540.16c27.32,9.17,895.88-121.46,1003.86-136.81,60.45-8.61,117.15-11.04,138.68-55.02,10.29-21.15,31.07-147.85,13.29-164.32-24.33-22.46-255.46,59.89-294.01,71.12-188.65,54.65-396.38,122.02-586.34,178.91l-221.02,67.56c-30.88,9.36-57.45,9.73-54.27,38.55h-.19Z"/>
      <path class="st1" d="M1087.47,1495.06c33.69,4.87,280.16-86.84,327.7-104.05,108.73-39.49,214.85-75.05,321.33-111.73,50.53-17.59,448.22-150.84,477.42-173.3,26.58-20.21,27.14-39.68,26.2-83.28-2.81-145.41,30.69-152.9-300.56,20.59-185.84,97.32-390.02,197.07-575.67,290.27l-217.09,110.23c-23.58,12.16-59.33,18.71-59.51,51.09l.19.19Z"/>
      <path class="st1" d="M1027.4,1260c21.33,6.18,28.63-5.61,41.55-18.9,163.38-169.56,367.75-368.5,534.31-534.12,36.87-36.68,469.18-464.69,494.82-496.5,49.22-61.01-31.63-169.93-96.38-101.25l-164.13,192.01c-91.89,106.49-208.86,235.81-297.19,342.86-43.42,52.4-244.04,288.77-294.38,341.17l-99.94,116.59c-22.64,26.58-41.92,48.85-64.57,75.23-16.09,18.53-62.13,57.27-53.9,83.28l-.19-.37Z"/>
      <path class="st1" d="M1003.63,1397c28.63,6.36,30.69-.94,47.35-14.6l996.75-793.7c44.35-35.93,129.88-75.61,65.31-154.58-46.23-56.33-87.21,2.81-154.58,64.75-48.1,44.17-90.21,83.28-138.49,126.14-93.95,83.66-181.53,168.62-276.42,253.02-150.65,134.19-330.69,300.56-482.66,441.67-13.1,12.35-23.58,20.59-35.56,31.82-13.66,12.91-23.02,20.4-21.71,45.48Z"/>
      <path class="st1" d="M1163.27,1636.17c33.13,18.9,223.27,9.17,279.23,9.17l587.27,1.5c152.34.37,122.02,4.49,170.3-130.63-38.93-30.69-57.08-19.84-121.83-12.16l-865.75,101.81c-31.07,4.12-46.04,2.99-49.22,30.32Z"/>
      <path class="st1" d="M881.98,1337.48c26.39,2.43,29.2-13.29,58.39-51.84l557.52-737.18c35.37-46.79,67.37-87.4,101.25-134.37,19.28-26.76,107.24-111.17,66.25-153.09-44.54-45.29-108.17,71.12-122.96,92.08-190.7,272.3-388.15,563.69-576.23,838.8-24.7,36.12-90.77,117.9-84.4,145.79l.19-.19Z"/>
      <path class="st1" d="M866.64,1223.32c29.76,1.87,39.49-30.51,53.52-54.27,13.66-23.21,30.13-49.97,43.42-72.05L1483.11,235.18c14.78-24.14,92.64-127.45,58.58-158.89-45.48-42.11-96.94,74.49-112.1,101.62l-530.94,965.87c-12.35,22.46-34.62,50.9-32.19,79.54h.19Z"/>
      <path class="st1" d="M751.17,1313.34c32.94-2.81,31.44-18.15,42.48-44.92,50.9-124.83,132.13-280.16,188.46-413.41,16.84-40.05,35.93-78.42,52.78-115.66l106.67-234.87c7.11-15.72,61.01-107.98,28.07-128.76-18.15-11.42-45.85,13.1-52.59,23.21-8.05,12.16-162.44,394.51-175.36,425.01l-148.97,362.88c-13.1,30.32-45.1,92.83-41.36,126.51h-.19Z"/>
      <path class="st1" d="M724.22,1228.94c22.46-2.62,15.53,2.81,23.58-16.09,2.81-6.55,7.11-23.02,10.29-32.94,7.11-20.96,12.91-39.3,20.21-61.76,13.47-40.8,27.32-81.97,40.8-122.77l162.26-492.2c40.05-123.14,41.55-131.19,69.81-257.7-76.36-11.42-91.7,117.72-117.15,207.17-35.75,126.33-214.28,730.07-209.79,776.48v-.19Z"/>
      <path class="st1" d="M583.67,1279.84c29.94.37,26.95-45.85,31.25-75.05l102.37-703.87c-29.57,1.5-36.31,17.03-56.14,58.58-28.82,60.26-36.87,231.5-43.42,303.93-5.8,64.57-44.35,378.79-34.06,416.41Z"/>
      <path class="st1" d="M441.44,1396.62c21.33-2.43,19.46-10.85,20.77-65.88,4.3-185.84,24.52-439.24,24.14-608.23-26.39,4.68-17.97,4.3-43.42,51.84-40.99,76.73-23.77,159.26-20.4,257.89,1.87,57.64,1.68,333.87,18.9,364.38Z"/>
      <path class="st1" d="M642.81,1327c25.45,7.11,28.45-40.61,34.81-68.87,50.34-222.33,86.84-414.91,129.51-638.74-35.93-8.42-43.79,22.64-55.02,50.72-11.42,28.82-15.16,55.4-20.96,89.46l-65.5,377.85c-5.99,35.37-36.87,165.25-23.02,189.58h.19Z"/>
      <path class="st1" d="M227.9,1166.99c0,65.13,45.1,252.28,61.76,338.55,12.16,62.88,3.56,41.55,36.12,93.95,23.02-23.21,2.81-99.75-.94-132.31l-37.06-353.15c-3.74-35.37-.56-48.47-14.78-69.81-19.65,4.49-23.21,10.29-35,50.34-6.18,21.33-10.11,47.16-10.11,72.24v.19Z"/>
      <path class="st1" d="M510.68,1377.16c22.46-8.42,20.96-5.99,24.89-54.65l41.92-477.79c-67.75,6.55-58.95,166.75-61.57,240.67-2.62,75.8-14.04,224.58-5.24,291.76Z"/>
      <path class="st1" d="M389.22,1498.43l-12.73-381.78c-30.13,5.05-29.01,25.08-31.25,83.84-2.06,52.96,17.4,195.57,23.95,260.32,2.43,24.7,0,33.13,19.84,37.62h.19Z"/>
      <polygon class="st0" points="899.2 1435.55 674.25 2111.71 449.3 1435.55 171.01 2272.48 393.15 2272.48 391.84 2432.67 504.32 2432.67 505.63 2272.48 842.87 2272.48 841.75 2432.67 954.22 2432.67 955.53 2272.48 1177.68 2272.48 899.2 1435.55"/>
    </g>
  </g>
</svg>