<?xml version="1.0" encoding="UTF-8" standalone="no"?>
<svg
   id="Layer_1"
   data-name="Layer 1"
   viewBox="0 0 2500.0001 2499.9999"
   version="1.1"
   sodipodi:docname="logo-ailos.svg"
   width="2500"
   height="2500"
   inkscape:version="1.2.2 (732a01da63, 2022-12-09)"
   xmlns:inkscape="http://www.inkscape.org/namespaces/inkscape"
   xmlns:sodipodi="http://sodipodi.sourceforge.net/DTD/sodipodi-0.dtd"
   xmlns="http://www.w3.org/2000/svg"
   xmlns:svg="http://www.w3.org/2000/svg">
  <sodipodi:namedview
     id="namedview110"
     pagecolor="#505050"
     bordercolor="#eeeeee"
     borderopacity="1"
     inkscape:showpageshadow="0"
     inkscape:pageopacity="0"
     inkscape:pagecheckerboard="0"
     inkscape:deskcolor="#505050"
     showgrid="false"
     inkscape:zoom="0.067580084"
     inkscape:cx="3669.7202"
     inkscape:cy="-29.594518"
     inkscape:window-width="1920"
     inkscape:window-height="1009"
     inkscape:window-x="-8"
     inkscape:window-y="-8"
     inkscape:window-maximized="1"
     inkscape:current-layer="Layer_1" />
  <defs
     id="defs41">
    <style
       id="style2">.cls-1{fill:#165c7d;}.cls-2{fill:url(#linear-gradient);}.cls-3{fill:url(#linear-gradient-2);}.cls-4{fill:#886b25;}.cls-5{fill:url(#linear-gradient-3);}.cls-6{fill:#007d8a;}.cls-7{fill:#007041;}</style>
    <linearGradient
       id="linear-gradient"
       x1="49.209999"
       y1="98.5"
       x2="117.21"
       y2="98.5"
       gradientUnits="userSpaceOnUse"
       gradientTransform="matrix(26.061133,0,0,26.061133,-629.89904,-628.62666)">
      <stop
         offset="0"
         stop-color="#00a9ce"
         id="stop4" />
      <stop
         offset="0.41"
         stop-color="#00a7cb"
         id="stop6" />
      <stop
         offset="0.66"
         stop-color="#009fc3"
         id="stop8" />
      <stop
         offset="0.86"
         stop-color="#0091b5"
         id="stop10" />
      <stop
         offset="1"
         stop-color="#0083a6"
         id="stop12" />
    </linearGradient>
    <linearGradient
       id="linear-gradient-2"
       x1="59.400002"
       y1="50.610001"
       x2="119.95"
       y2="50.610001"
       gradientUnits="userSpaceOnUse"
       gradientTransform="matrix(26.061133,0,0,26.061133,-629.89904,-628.62666)">
      <stop
         offset="0"
         stop-color="#ffa300"
         id="stop15" />
      <stop
         offset="0.35"
         stop-color="#fca200"
         id="stop17" />
      <stop
         offset="0.56"
         stop-color="#f49d00"
         id="stop19" />
      <stop
         offset="0.73"
         stop-color="#e69600"
         id="stop21" />
      <stop
         offset="0.89"
         stop-color="#d28b00"
         id="stop23" />
      <stop
         offset="1"
         stop-color="#bd8000"
         id="stop25" />
    </linearGradient>
    <linearGradient
       id="linear-gradient-3"
       x1="24.17"
       y1="68.400002"
       x2="59.400002"
       y2="68.400002"
       gradientUnits="userSpaceOnUse"
       gradientTransform="matrix(26.061133,0,0,26.061133,-629.89904,-628.62666)">
      <stop
         offset="0"
         stop-color="#00b140"
         id="stop28" />
      <stop
         offset="0.39"
         stop-color="#00ae40"
         id="stop30" />
      <stop
         offset="0.62"
         stop-color="#01a63e"
         id="stop32" />
      <stop
         offset="0.82"
         stop-color="#02983b"
         id="stop34" />
      <stop
         offset="0.99"
         stop-color="#038437"
         id="stop36" />
      <stop
         offset="1"
         stop-color="#038237"
         id="stop38" />
    </linearGradient>
  </defs>
  <path
     class="cls-1"
     d="M 1866.4969,1398.9295 1625.4314,808.64482 c -23.7156,-54.46777 -41.4372,-93.82008 -78.1834,-93.82008 -36.7462,0 -53.9466,41.69782 -75.8379,93.55947 l -146.7242,340.61899 -144.118,-340.35838 c -21.8914,-52.12226 -39.0917,-93.55947 -75.8379,-93.82008 -36.7462,-0.26061 -53.686,39.35231 -78.1834,94.60191 L 786.0023,1399.4507 a 113.62654,113.62654 0 0 0 111.80226,163.4033 h 106.06884 v 134.4754 a 87.826017,87.826017 0 0 0 87.5654,87.5655 h 30.4915 a 87.826017,87.826017 0 0 0 87.5654,-87.5655 v -65.674 c 0,-2.3455 0,-4.691 0,-7.0365 v -61.7649 h 234.5502 v 61.7649 a 63.589164,63.589164 0 0 0 0,7.0365 v 65.674 a 87.826017,87.826017 0 0 0 87.5654,87.5655 h 30.4915 a 87.826017,87.826017 0 0 0 87.5654,-87.5655 V 1562.854 h 106.0689 a 113.62654,113.62654 0 0 0 111.5416,-163.9245 z m -642.1463,98.7717 h -80.2683 v 199.6282 a 22.151963,22.151963 0 0 1 -22.152,22.152 h -30.2309 a 22.151963,22.151963 0 0 1 -22.152,-22.152 v -79.747 -119.8812 H 897.80456 a 49.255541,49.255541 0 0 1 -52.12226,-74.0136 l 240.2836,-588.98165 c 3.388,-7.29711 10.4245,-23.45502 17.2004,-37.26742 4.4304,9.38201 9.9032,21.63074 16.1579,36.7462 l 169.658,398.47477 -64.8923,166.7912 a 125.87527,125.87527 0 0 0 0.2607,98.2505 z m 142.0331,-22.152 a 52.122265,52.122265 0 0 1 -39.8735,21.1095 52.122265,52.122265 0 0 1 -40.1341,-21.1095 58.116326,58.116326 0 0 1 0,-52.1223 l 38.3098,-102.1596 40.916,102.1596 a 57.595103,57.595103 0 0 1 0.7818,52.1223 z m 438.0877,1.3031 a 57.334492,57.334492 0 0 1 -49.5162,20.8489 H 1583.473 v 199.6282 a 22.151963,22.151963 0 0 1 -22.152,22.152 h -30.7521 a 22.151963,22.151963 0 0 1 -22.152,-22.152 v -199.6282 h -79.4865 a 127.17833,127.17833 0 0 0 0,-98.2505 l -66.9771,-166.7912 171.2217,-398.73538 c 6.2547,-14.85485 11.7275,-26.06113 16.1579,-36.48559 6.7759,13.55179 13.5518,29.7097 16.6791,36.7462 l 240.5443,588.98157 a 57.334492,57.334492 0 0 1 -2.0849,53.686 z"
     id="path95"
     style="stroke-width:26.0611" />
  <path
     class="cls-2"
     d="m 1995.7601,1848.7446 a 912.13965,912.13965 0 0 1 -671.0742,291.8847 q -41.9584,0 -82.8744,-3.9092 a 995.01405,995.01405 0 0 1 -590.28464,-26.0611 988.49876,988.49876 0 0 0 1772.15704,-602.0122 1018.4691,1018.4691 0 0 0 -8.6002,-130.3056 992.66855,992.66855 0 0 1 -419.3236,470.4034 z"
     id="path97"
     style="fill:url(#linear-gradient);stroke-width:26.0611" />
  <path
     class="cls-3"
     d="m 1481.0527,324.42897 a 915.7882,915.7882 0 0 1 667.165,498.54947 985.37143,985.37143 0 0 1 268.9509,556.40516 A 988.49876,988.49876 0 0 0 918.13225,196.20819 c 23.19441,-1.56367 46.64943,-2.3455 70.10444,-2.3455 a 984.85021,984.85021 0 0 1 492.81601,130.56628 z"
     id="path99"
     style="fill:url(#linear-gradient-2);stroke-width:26.0611" />
  <path
     class="cls-4"
     d="m 2240.7347,1226.1442 a 910.57598,910.57598 0 0 1 -244.9746,622.6004 992.66855,992.66855 0 0 0 420.3661,-469.1004 985.37143,985.37143 0 0 0 -268.9509,-556.66576 909.79414,909.79414 0 0 1 93.5594,403.16576 z"
     id="path101"
     style="stroke-width:26.0611" />
  <path
     class="cls-5"
     d="M 448.25002,1484.6706 A 915.52759,915.52759 0 0 1 552.49456,738.80099 990.32304,990.32304 0 0 1 918.13225,196.20819 988.23815,988.23815 0 0 0 652.56931,2111.4408 984.58959,984.58959 0 0 1 447.98941,1508.3862 c 0,-7.2971 0,-15.376 0.26061,-23.7156 z"
     id="path103"
     style="fill:url(#linear-gradient-3);stroke-width:26.0611" />
  <path
     class="cls-6"
     d="M 1242.854,2136.7201 A 915.26698,915.26698 0 0 1 448.25002,1485.1918 c 0,8.3396 0,16.4185 0,26.0612 a 984.58959,984.58959 0 0 0 204.5799,602.0121 995.01405,995.01405 0 0 0 590.28468,26.0612 z"
     id="path105"
     style="stroke-width:26.0611" />
  <path
     class="cls-7"
     d="M 551.45211,738.80099 A 914.48515,914.48515 0 0 1 1324.6859,311.39841 940.80689,940.80689 0 0 1 1478.9678,324.42897 984.85021,984.85021 0 0 0 987.19425,194.1233 c -23.45502,0 -46.91004,0 -70.10445,2.3455 A 990.32304,990.32304 0 0 0 551.45211,738.80099 Z"
     id="path107"
     style="stroke-width:26.0611" />
</svg>
