<?xml version="1.0" encoding="UTF-8" standalone="no"?>
<svg
   viewBox="0 0 2500 2500"
   version="1.1"
   id="svg15"
   sodipodi:docname="banco-bmg-logo.svg"
   width="2500"
   height="2500"
   style="fill:none"
   inkscape:version="1.3.2 (091e20e, 2023-11-25, custom)"
   inkscape:export-filename="C:\Users\suitedoalex\sites\banco-bmg-logo-0.png"
   inkscape:export-xdpi="561.73999"
   inkscape:export-ydpi="561.73999"
   xmlns:inkscape="http://www.inkscape.org/namespaces/inkscape"
   xmlns:sodipodi="http://sodipodi.sourceforge.net/DTD/sodipodi-0.dtd"
   xmlns="http://www.w3.org/2000/svg"
   xmlns:svg="http://www.w3.org/2000/svg"
   xmlns:rdf="http://www.w3.org/1999/02/22-rdf-syntax-ns#"
   xmlns:cc="http://creativecommons.org/ns#"
   xmlns:dc="http://purl.org/dc/elements/1.1/">
  <metadata
     id="metadata19">
    <rdf:RDF>
      <cc:Work
         rdf:about="">
        <dc:format>image/svg+xml</dc:format>
        <dc:type
           rdf:resource="http://purl.org/dc/dcmitype/StillImage" />
      </cc:Work>
    </rdf:RDF>
  </metadata>
  <sodipodi:namedview
     pagecolor="#ffffff"
     bordercolor="#666666"
     borderopacity="1"
     objecttolerance="10"
     gridtolerance="10"
     guidetolerance="10"
     inkscape:pageopacity="0"
     inkscape:pageshadow="2"
     inkscape:window-width="2400"
     inkscape:window-height="1261"
     id="namedview17"
     showgrid="false"
     inkscape:zoom="0.24132948"
     inkscape:cx="3864.012"
     inkscape:cy="1626.4072"
     inkscape:window-x="4791"
     inkscape:window-y="-9"
     inkscape:window-maximized="1"
     inkscape:current-layer="svg15"
     inkscape:showpageshadow="2"
     inkscape:pagecheckerboard="0"
     inkscape:deskcolor="#d1d1d1" />
  <g
     clip-path="url(#clip0)"
     id="g8"
     transform="matrix(14.312209,0,0,14.312209,11.179557,486.44361)"
     inkscape:export-filename="C:\Users\suitedoalex\sites\banco-bmg-logo-4.png"
     inkscape:export-xdpi="72.662964"
     inkscape:export-ydpi="72.662964">
    <path
       d="m 119.467,38.857 c -4.555,0 -7.466,1.716 -10.187,6.037 -1.962,-4.703 -5.569,-5.974 -8.986,-5.974 -2.594,0 -6.137,0.827 -8.099,4.385 l -0.443,-2.542 c -0.126,-0.635 -0.633,-1.08 -1.329,-1.08 h -5.378 c -0.76,0 -1.33,0.572 -1.33,1.335 v 29.55 c 0,0.762 0.57,1.334 1.33,1.334 h 6.327 c 0.76,0 1.33,-0.572 1.33,-1.335 V 54.68 c 0,-3.622 1.834,-7.117 5.378,-7.117 3.67,0 5.378,2.796 5.378,7.054 v 15.95 c 0,0.763 0.57,1.335 1.329,1.335 h 6.201 c 0.76,0 1.329,-0.572 1.329,-1.335 v -15.95 c 0,-3.622 1.645,-6.863 5.189,-6.863 3.607,0 5.189,2.669 5.189,6.736 v 16.077 c 0,0.763 0.569,1.335 1.328,1.335 h 6.391 c 0.76,0 1.329,-0.572 1.329,-1.335 V 54.236 C 131.68,42.289 125.858,38.856 119.467,38.856 Z M 62.455,38.666 c -3.797,0 -7.404,1.208 -10.188,4.64 V 25.511 c 0,-0.763 -0.57,-1.335 -1.329,-1.335 h -6.77 c -0.76,0 -1.33,0.572 -1.33,1.335 v 44.992 c 0,0.762 0.57,1.334 1.33,1.334 h 5.947 c 0.697,0 1.203,-0.508 1.33,-1.143 l 0.442,-2.987 c 3.038,3.876 6.708,4.83 10.757,4.83 9.492,0 16.01,-6.8 16.01,-16.904 -0.064,-10.55 -6.645,-16.968 -16.2,-16.968 z m -0.95,25.292 c -4.619,0 -8.352,-3.749 -8.352,-8.388 0,-4.639 3.733,-8.388 8.352,-8.388 4.62,0 8.353,3.749 8.353,8.388 -0.063,4.639 -3.797,8.388 -8.353,8.388 z M 113.33,23.605 c -1.392,0 -2.342,0.636 -2.848,1.335 v -3.686 c 0,-0.127 -0.126,-0.254 -0.253,-0.254 h -1.519 c -0.126,0 -0.253,0.127 -0.253,0.254 v 11.249 c 0,0.126 0.127,0.253 0.253,0.253 h 1.392 a 0.273,0.273 0 0 0 0.254,-0.254 v -1.207 c 0.569,0.89 1.645,1.461 2.974,1.461 2.594,0 4.113,-2.097 4.113,-4.575 0,-2.478 -1.519,-4.576 -4.113,-4.576 z m -0.443,7.372 c -1.519,0 -2.468,-1.207 -2.468,-2.796 0,-1.589 0.949,-2.796 2.468,-2.796 1.518,0 2.467,1.207 2.467,2.796 0.064,1.589 -0.885,2.796 -2.467,2.796 z m 21.957,-7.372 c -1.456,0 -2.341,0.7 -2.721,1.335 v -0.826 c 0,-0.127 -0.127,-0.254 -0.253,-0.254 h -1.392 c -0.127,0 -0.253,0.127 -0.253,0.254 v 8.452 c 0,0.127 0.126,0.254 0.253,0.254 h 1.518 c 0.127,0 0.253,-0.127 0.253,-0.254 v -5.021 c 0,-1.398 0.823,-2.16 2.089,-2.16 0.949,0 1.708,0.826 1.708,1.78 v 5.401 c 0,0.127 0.127,0.254 0.253,0.254 h 1.519 c 0.126,0 0.253,-0.127 0.253,-0.254 V 27.1 c 0.063,-2.034 -1.076,-3.495 -3.227,-3.495 z m 9.491,1.78 c 1.013,0 1.772,0.572 2.089,1.398 v 0.063 c 0,0.128 0.126,0.191 0.253,0.191 h 1.518 c 0.127,0 0.253,-0.127 0.253,-0.254 0,0 0,-0.509 -0.379,-1.144 v -0.063 l -0.064,-0.064 c 0,-0.064 -0.063,-0.064 -0.063,-0.127 a 3.827,3.827 0 0 0 -1.202,-1.144 4.42,4.42 0 0 0 -2.341,-0.636 c -2.595,0 -4.43,2.034 -4.43,4.576 0,2.542 1.835,4.575 4.43,4.575 0.949,0 1.771,-0.254 2.341,-0.635 0,0 0.696,-0.381 1.202,-1.144 0,0 0,-0.064 0.063,-0.064 l 0.064,-0.063 v -0.064 c 0.379,-0.635 0.379,-1.144 0.379,-1.144 0,-0.127 -0.126,-0.254 -0.253,-0.254 h -1.518 c -0.127,0 -0.19,0.064 -0.253,0.191 v 0.063 c -0.317,0.827 -1.076,1.399 -2.089,1.399 -1.455,0 -2.341,-1.144 -2.341,-2.797 -0.063,-1.652 0.886,-2.86 2.341,-2.86 z m 10.062,-1.78 c -2.785,0 -4.556,2.098 -4.556,4.576 0,2.478 1.771,4.575 4.556,4.575 2.847,0 4.619,-2.097 4.619,-4.575 0,-2.478 -1.835,-4.576 -4.619,-4.576 z m 0,7.372 c -1.456,0 -2.532,-1.08 -2.532,-2.796 0,-1.716 1.076,-2.796 2.532,-2.796 1.455,0 2.594,1.08 2.594,2.796 -0.063,1.716 -1.139,2.796 -2.594,2.796 z M 127.504,23.86 h -1.392 c -0.127,0 -0.253,0.127 -0.253,0.254 v 1.017 c -0.57,-0.89 -1.582,-1.462 -2.974,-1.462 -2.595,0 -4.114,2.097 -4.114,4.575 0,2.479 1.456,4.576 4.114,4.576 1.392,0 2.404,-0.508 2.974,-1.462 v 1.207 c 0,0.128 0.126,0.255 0.253,0.255 h 1.392 c 0.126,0 0.253,-0.127 0.253,-0.254 v -8.452 c 0,-0.19 -0.063,-0.254 -0.253,-0.254 z m -4.177,7.117 c -1.518,0 -2.467,-1.207 -2.467,-2.796 0,-1.589 0.949,-2.796 2.467,-2.796 1.519,0 2.468,1.207 2.468,2.796 0.064,1.589 -0.886,2.796 -2.468,2.796 z"
       id="path2"
       inkscape:connector-curvature="0"
       style="fill:#ff6300" />
    <path
       d="m 15.946,41.971 c 0,-1.589 1.455,-2.86 3.037,-2.605 8.48,1.27 14.997,8.642 14.997,17.475 0,13.854 -11.074,16.904 -15.883,17.54 -1.139,0.127 -2.151,-0.763 -2.151,-1.907 z"
       id="path4"
       inkscape:connector-curvature="0"
       style="fill:#462a71" />
    <path
       d="m 1.962,57.922 h 7.91 c 3.353,0 6.074,-2.733 6.074,-6.1 V 24.494 c 0,-1.08 -0.886,-1.97 -1.962,-1.97 h -3.67 C 4.62,22.525 0,27.165 0,32.884 v 23.068 c 0,1.08 0.886,1.97 1.962,1.97 z M 165.28,67.58 c 4.809,-2.477 6.961,-6.926 7.15,-11.692 0,-4.003 -1.012,-7.244 -2.784,-9.85 l 3.038,-3.495 c 0.506,-0.572 0.379,-1.462 -0.19,-1.97 l -4.873,-3.75 c -0.632,-0.444 -1.455,-0.317 -1.898,0.255 l -2.594,3.431 a 20.224,20.224 0 0 0 -8.29,-1.779 c -9.238,0 -17.907,5.656 -17.907,17.031 0,10.358 7.087,16.84 17.971,16.84 6.011,0 8.036,2.479 8.036,5.72 0,4.13 -3.923,6.164 -8.226,6.164 -4.113,0 -7.467,-1.398 -8.226,-5.656 -0.127,-0.635 -0.696,-1.144 -1.329,-1.144 h -6.391 c -0.759,0 -1.392,0.636 -1.392,1.462 0.443,8.706 6.391,13.853 17.338,13.853 9.112,0 18.034,-4.766 18.034,-14.743 -0.063,-1.906 -0.063,-7.372 -7.467,-10.676 z m -10.63,-3.685 c -4.62,0 -8.29,-3.75 -8.29,-8.325 0,-4.639 3.734,-8.325 8.29,-8.325 4.555,0 8.289,3.75 8.289,8.325 0.063,4.576 -3.67,8.325 -8.289,8.325 z"
       id="path6"
       inkscape:connector-curvature="0"
       style="fill:#ff6300" />
  </g>
  <defs
     id="defs13">
    <clipPath
       id="clip0">
      <path
         transform="translate(0,21)"
         d="M 0,0 H 173 V 72 H 0 Z"
         id="path10"
         inkscape:connector-curvature="0"
         style="fill:#ffffff" />
    </clipPath>
  </defs>
</svg>
