<?xml version="1.0" encoding="UTF-8"?>
<svg id="Camada_1" xmlns="http://www.w3.org/2000/svg" version="1.1" viewBox="0 0 2500 2500">
  <!-- Generator: Adobe Illustrator 29.6.0, SVG Export Plug-In . SVG Version: 2.1.1 Build 207)  -->
  <defs>
    <style>
      .st0 {
        fill: #0d1124;
        fill-rule: evenodd;
      }
    </style>
  </defs>
  <path class="st0" d="M2178.9,1573.74s-146.15,237.68-475.01,237.68-539.96-258.16-539.96-561.43,211.12-561.43,539.96-561.43c292.31,0,450.65,204.9,450.65,204.9l336.97-303.24s-272.01-360.63-787.62-360.63c-397.35,0-738.74,212.22-912.56,531.96H194.74l-65.7,328.98h551.69c-7.95,51.84-12.1,105.07-12.1,159.46s4.2,107.59,12.25,159.48H65.33L-.37,1738.45h792.67c174.12,318.61,515.01,531.96,911.6,531.96,519.66,0,795.73-368.83,795.73-368.83l-320.73-327.83Z"/>
</svg>