<?xml version="1.0" encoding="UTF-8" standalone="no"?>
<svg
   width="2500"
   height="2500"
   viewBox="0 0 2500 2500"
   fill="none"
   version="1.1"
   id="svg2601"
   sodipodi:docname="logo-efi-bank-laranja-nome-bank.svg"
   inkscape:version="1.2.2 (732a01da63, 2022-12-09)"
   xml:space="preserve"
   xmlns:inkscape="http://www.inkscape.org/namespaces/inkscape"
   xmlns:sodipodi="http://sodipodi.sourceforge.net/DTD/sodipodi-0.dtd"
   xmlns="http://www.w3.org/2000/svg"
   xmlns:svg="http://www.w3.org/2000/svg"><sodipodi:namedview
     id="namedview2603"
     pagecolor="#505050"
     bordercolor="#eeeeee"
     borderopacity="1"
     inkscape:showpageshadow="0"
     inkscape:pageopacity="0"
     inkscape:pagecheckerboard="0"
     inkscape:deskcolor="#505050"
     showgrid="false"
     inkscape:zoom="0.093567353"
     inkscape:cx="3965.0582"
     inkscape:cy="1122.1863"
     inkscape:window-width="1920"
     inkscape:window-height="1009"
     inkscape:window-x="-8"
     inkscape:window-y="-8"
     inkscape:window-maximized="1"
     inkscape:current-layer="svg2601" /><g
     clip-path="url(#clip0_28_5532)"
     id="g2594"
     transform="matrix(156.00601,0,0,156.00601,-3630.6354,2075.2621)"><path
       d="M 4.00203,15.7555 16,11.4571 V 0 L 1.4755,11.0485 C 0.561902,11.7322 0,12.4119 0,13.4374 c 0,1.772 1.75847,3.1393 4.00203,2.3181 z"
       fill="#f37021"
       id="path2592" /></g><defs
     id="defs2599"><clipPath
       id="clip0_28_5532"><rect
         width="16"
         height="16"
         fill="#ffffff"
         id="rect2596"
         x="0"
         y="0" /></clipPath><clipPath
       id="clip0_673_19597"><rect
         width="147.13699"
         height="56"
         fill="#ffffff"
         id="rect24098"
         x="0"
         y="0" /></clipPath><clipPath
       id="clip0_673_19597-1"><rect
         width="147.13699"
         height="56"
         fill="#ffffff"
         id="rect24098-3"
         x="0"
         y="0" /></clipPath></defs><g
     style="fill:#f37021;fill-opacity:1"
     id="g7469"
     transform="translate(0.96125446,56.486231)"><g
       clip-path="url(#clip0_673_19597-1)"
       id="g24096"
       transform="matrix(16.987986,0,0,16.987986,0,835.84866)"
       style="fill:#f37021;fill-opacity:1"><path
         d="m 79.8748,15.7002 11.743,-4.2833 V 0 L 77.402,11.0097 c -0.8942,0.6813 -1.4442,1.3586 -1.4442,2.3805 0,1.7658 1.7171,3.1283 3.913,2.31 z m -3.917,39.6225 h 7.5531 V 19.3022 h -7.5531 z m -34.2716,0 h 7.553 V 41.4587 H 68.1238 V 34.6618 H 49.2392 c -0.1384,-5.6419 3.7073,-9.0403 8.9972,-9.0403 2.8844,0 5.3572,1.0179 7.2128,2.31 l 4.8072,-5.3678 c -3.5015,-2.5841 -7.28,-3.9427 -11.8142,-3.9427 -9.9587,0 -16.756,6.5228 -16.756,16.0408 z M 7.69153,33.5068 c 1.09992,-4.8941 5.01297,-7.8853 10.43737,-7.8853 5.4244,0 9.1357,2.9912 9.8202,7.8853 z M 35.7118,36.5646 C 35.7118,28.2721 29.6662,18.621 18.1289,18.621 7.96849,18.621 0,26.1657 0,37.0384 0,47.9111 8.03575,56 18.8886,56 c 6.7301,0 12.1545,-3.1949 15.7272,-7.8814 l -5.2859,-4.2833 c -2.6113,3.3984 -6.1801,5.1642 -10.6471,5.1642 -5.9071,0 -9.89135,-3.3319 -10.98731,-8.6997 H 31.9887 c 2.3344,0 3.731,-1.0884 3.731,-3.7391"
         fill="#ffffff"
         id="path24092"
         style="fill:#f37021;fill-opacity:1" /><path
         d="m 113.703,44.7123 h -0.53 l 4.412,10.6104 h 2.16 l -4.72,-10.9158 c -0.265,-0.6108 -0.704,-1.0924 -1.543,-1.0924 -0.752,0 -1.278,0.3916 -1.587,1.0924 l -4.72,10.9158 h 2.117 z M 95.3924,55.3227 h 1.9862 V 43.3145 h -1.9862 z m 5.9546,-5.6302 c 2.117,0 3.751,-1.4408 3.751,-3.3632 0,-1.9224 -1.456,-3.0148 -3.66,-3.0148 h -5.1633 v 1.7463 h 4.8983 c 1.104,0 1.852,0.6107 1.852,1.617 0,1.0062 -0.705,1.7462 -1.678,1.7462 z m 20.649,5.6302 h 1.986 l -0.087,-10.8257 -1.06,0.3915 7.015,9.6041 c 0.396,0.5677 0.926,0.8301 1.412,0.8301 0.661,0 1.148,-0.5678 1.148,-1.3117 V 43.3145 h -1.986 l 0.087,10.8297 1.06,-0.3916 -7.015,-9.6041 c -0.396,-0.5246 -0.752,-0.83 -1.369,-0.83 -0.661,0 -1.191,0.5677 -1.191,1.3116 v 10.6965 z m -12.574,-2.4001 h 8.119 v -1.7462 h -8.119 z m 35.162,2.4001 h 2.517 l -5.603,-6.0256 5.559,-5.9826 h -2.56 l -4.589,5.0194 c -0.574,0.6539 -0.618,1.3116 0,1.9655 l 4.676,5.0193 z m -8.119,0 h 1.986 V 43.3145 h -1.986 z m -35.074,0 c 2.69,0 4.189,-1.3116 4.189,-3.3163 0,-2.3139 -2.116,-3.5785 -4.237,-3.5785 h -5.0723 v 1.7462 h 5.3373 c 1.104,0 1.852,0.5677 1.852,1.57 0,1.1354 -0.926,1.8324 -2.251,1.8324 h -4.9422 v 1.7462 z"
         fill="#ffffff"
         id="path24094"
         style="fill:#f37021;fill-opacity:1" /></g></g></svg>
