<?xml version="1.0" encoding="UTF-8" standalone="no"?>
<svg
   width="2500"
   height="2500"
   viewBox="0 0 2500 2500"
   fill="none"
   version="1.1"
   id="svg2601"
   sodipodi:docname="logo-efi-bank-laranja-nome.svg"
   inkscape:version="1.2.2 (732a01da63, 2022-12-09)"
   xml:space="preserve"
   xmlns:inkscape="http://www.inkscape.org/namespaces/inkscape"
   xmlns:sodipodi="http://sodipodi.sourceforge.net/DTD/sodipodi-0.dtd"
   xmlns="http://www.w3.org/2000/svg"
   xmlns:svg="http://www.w3.org/2000/svg"><sodipodi:namedview
     id="namedview2603"
     pagecolor="#505050"
     bordercolor="#eeeeee"
     borderopacity="1"
     inkscape:showpageshadow="0"
     inkscape:pageopacity="0"
     inkscape:pagecheckerboard="0"
     inkscape:deskcolor="#505050"
     showgrid="false"
     inkscape:zoom="0.093567353"
     inkscape:cx="3965.0582"
     inkscape:cy="1122.1863"
     inkscape:window-width="1920"
     inkscape:window-height="1009"
     inkscape:window-x="-8"
     inkscape:window-y="-8"
     inkscape:window-maximized="1"
     inkscape:current-layer="svg2601" /><g
     clip-path="url(#clip0_28_5532)"
     id="g2594"
     transform="matrix(156.00601,0,0,156.00601,-3630.6354,2075.2621)"><path
       d="M 4.00203,15.7555 16,11.4571 V 0 L 1.4755,11.0485 C 0.561902,11.7322 0,12.4119 0,13.4374 c 0,1.772 1.75847,3.1393 4.00203,2.3181 z"
       fill="#f37021"
       id="path2592" /></g><defs
     id="defs2599"><clipPath
       id="clip0_28_5532"><rect
         width="16"
         height="16"
         fill="#ffffff"
         id="rect2596"
         x="0"
         y="0" /></clipPath><clipPath
       id="clip0_673_19597"><rect
         width="147.13699"
         height="56"
         fill="#ffffff"
         id="rect24098"
         x="0"
         y="0" /></clipPath></defs><g
     style="fill:#f37021;fill-opacity:1"
     id="g5765"
     transform="translate(-2.1181177,-14.946655)"><path
       d="M 2180.2106,951.81908 2499.9869,835.17956 V 524.28334 L 2112.8732,824.091 c -24.3502,18.55264 -39.3273,36.99635 -39.3273,64.82394 0,48.08491 46.7587,85.18746 106.5558,62.90414 z M 2073.5459,2030.7885 h 205.6802 V 1049.906 h -205.6802 z m -933.2578,0 h 205.6775 v -377.5338 h 514.2508 v -185.0879 h -514.2508 c -3.7688,-153.6359 100.9543,-246.1785 245.0048,-246.1785 78.5457,0 145.8831,27.7186 196.4134,62.9041 l 130.9059,-146.1718 c -95.3501,-70.3682 -198.2433,-107.3645 -321.7151,-107.3645 -271.1877,0 -456.2865,177.6238 -456.2865,436.8107 z M 214.57144,1436.7147 c 29.95217,-133.2724 136.50933,-214.7264 284.22241,-214.7264 147.71308,0 248.77634,81.454 267.41611,214.7264 z m 763.02639,83.2676 c 0,-225.8149 -164.62912,-488.6262 -478.80398,-488.6262 -276.68045,0 -493.6722283,205.4514 -493.6722283,501.5284 0,296.077 218.8233483,516.3477 514.3597883,516.3477 183.2689,0 330.98198,-87.0011 428.27099,-214.6202 L 803.81085,1717.9724 c -71.10891,92.5426 -168.29172,140.6275 -289.93362,140.6275 -160.8576,0 -269.35362,-90.7317 -299.19796,-236.9035 h 661.53397 c 63.56858,0 101.59971,-29.6384 101.59971,-101.8203"
       fill="#ffffff"
       id="path24092"
       style="stroke-width:27.2312;fill:#f37021;fill-opacity:1"
       clip-path="url(#clipPath5758)" /></g></svg>
