<?xml version="1.0" encoding="UTF-8"?>
<svg id="Camada_1" xmlns="http://www.w3.org/2000/svg" version="1.1" xmlns:xlink="http://www.w3.org/1999/xlink" viewBox="0 0 2500 2500">
  <!-- Generator: Adobe Illustrator 29.6.0, SVG Export Plug-In . SVG Version: 2.1.1 Build 207)  -->
  <defs>
    <style>
      .st0 {
        fill: none;
      }

      .st1 {
        fill: #0047bb;
      }

      .st2 {
        fill: #0b3471;
      }

      .st3 {
        clip-path: url(#clippath);
      }
    </style>
    <clipPath id="clippath">
      <rect class="st0" x="1.47" y="869.59" width="2497.07" height="760.83"/>
    </clipPath>
  </defs>
  <g class="st3">
    <g>
      <path class="st2" d="M1086.05,1219.82v-32.4c0-8.61-9.79-13.51-16.68-8.34l-48.11,35.9v252.59h64.79v-171c6.45-20.51,14.74-35.4,24.86-44.79,10.07-9.34,21.75-14.01,35.09-14.01,9.01,0,18.35,1.78,28.08,5.39l11.35-58.24c-9.73-5.39-21.24-8.12-34.54-8.12-29.08,0-50.61,14.45-64.79,43.02h-.06Z"/>
      <path class="st2" d="M174.2,1314.63c-12.24-5.56-28.09-11.23-47.49-17.01-19.41-6.11-33.54-11.62-42.38-16.45-8.84-4.83-13.24-12.11-13.24-21.84,0-9,4.12-16.34,12.4-22.12,8.29-5.72,19.41-8.61,33.48-8.61,12.24,0,25.08,1.89,38.6,5.67,13.51,3.78,25.3,8.73,35.37,14.84l19.96-45.29c-11.9-8.28-26.19-14.84-42.93-19.67-16.74-4.83-34.26-7.28-52.67-7.28-32.37,0-58.28,7.67-77.75,22.95-19.41,15.28-29.14,36.07-29.14,62.3,0,17.28,4.23,31.29,12.68,42.07,8.45,10.78,18.63,18.95,30.53,24.56,11.9,5.56,27.2,11.23,45.88,17.01,19.41,6.11,33.65,11.89,42.66,17.28,9.01,5.39,13.51,12.95,13.51,22.67s-4.84,18.34-14.57,24.84c-9.73,6.45-23.02,9.73-39.93,9.73-14.4,0-28.64-2.17-42.66-6.5s-26.64-10.61-37.76-18.89l-17.3,50.18c12.24,9.34,27.25,16.84,45.1,22.4,17.8,5.56,36.76,8.34,56.95,8.34,34.54,0,62.45-8.17,83.7-24.56,21.24-16.34,31.87-38.96,31.87-67.69,0-18.34-4.39-33.01-13.24-43.96-8.84-10.95-19.35-19.23-31.59-24.84l-.06-.11Z"/>
      <path class="st2" d="M331.87,1178.92l-48.11,35.9v252.76h64.79v-280.26c0-8.61-9.79-13.51-16.68-8.34v-.06Z"/>
      <path class="st2" d="M1281.03,1179.03l-48.11,35.9v252.64h64.79v-280.21c0-8.61-9.79-13.51-16.68-8.34Z"/>
      <path class="st2" d="M586.08,1314.63c-12.24-5.56-28.09-11.23-47.5-17.01-19.41-6.11-33.59-11.62-42.38-16.45-8.84-4.83-13.24-12.11-13.24-21.84,0-9,4.12-16.34,12.4-22.12,8.29-5.72,19.41-8.61,33.48-8.61,12.24,0,25.08,1.89,38.6,5.67,13.52,3.78,25.31,8.72,35.37,14.84l19.97-45.29c-11.9-8.28-26.19-14.84-42.93-19.67-16.74-4.83-34.26-7.28-52.67-7.28-32.37,0-58.28,7.67-77.75,22.95-19.47,15.28-29.14,36.07-29.14,62.3,0,17.28,4.23,31.29,12.68,42.07,8.45,10.78,18.63,18.95,30.53,24.56,11.9,5.56,27.2,11.23,45.88,17.01,19.47,6.11,33.65,11.89,42.66,17.28,9.01,5.39,13.51,12.95,13.51,22.67s-4.84,18.34-14.57,24.84c-9.73,6.45-23.02,9.73-39.93,9.73-14.4,0-28.64-2.17-42.66-6.5-14.01-4.33-26.64-10.62-37.76-18.9l-17.3,50.18c12.24,9.34,27.25,16.84,45.1,22.4,17.8,5.56,36.76,8.34,56.95,8.34,34.54,0,62.45-8.17,83.7-24.56,21.24-16.34,31.87-38.96,31.87-67.69,0-18.34-4.39-33.01-13.23-43.96-8.84-10.95-19.35-19.23-31.59-24.84l-.05-.11Z"/>
      <path class="st2" d="M2105.34,1308.96c0-23.73-4.66-45.68-14.01-65.8-9.34-20.12-23.47-36.23-42.39-48.29-18.9-12.06-42.04-18.06-69.35-18.06s-50.82,6.23-71.51,18.62c-20.69,12.39-36.71,29.96-48.05,52.58-11.35,22.67-17.02,49.07-17.02,79.31,0,32.34,6.17,59.69,18.63,82.03,12.4,22.29,29.25,38.96,50.5,49.91,21.24,10.95,45.15,16.45,71.8,16.45,47.15,0,86.7-12.78,118.79-38.29l-25.91-42.07c-24.15,19.06-52.17,28.57-84.2,28.57-49.67,0-77.76-25.9-84.21-77.69h193.81c2.18-9,3.24-21.4,3.24-37.24h-.12ZM1907.75,1302.52c2.5-25.18,10.18-44.13,22.97-56.91,12.79-12.78,29.58-19.17,50.5-19.17s35.7,6.67,46.72,19.95c10.94,13.34,16.8,32.01,17.52,56.13h-137.7Z"/>
      <path class="st2" d="M898.3,1192.98c-17.63-10.78-37.04-16.17-58.23-16.17-18.35,0-144.48,8.06-144.48,8.06v360.68h64.68v-93.76c17.63,10.39,38.99,15.84,64.12,15.84s46.16-6.56,66.29-19.28c20.13-12.73,36.09-30.96,47.99-54.69,11.85-23.67,17.8-51.35,17.8-82.97s-5.34-48.07-15.91-69.47c-10.62-21.34-24.69-37.46-42.32-48.18l.06-.06ZM879.72,1368.54c-7.01,14.89-16.46,26.23-28.31,33.96-11.85,7.73-24.8,11.62-38.82,11.62-11.12,0-20.69-1.33-28.59-4.06-7.9-2.72-15.79-7.11-23.69-13.23v-162.89h64.68c19.02,0,34.7,7.56,46.88,22.62,12.23,15.06,18.35,29.68,18.35,59.47,0,20.12-3.5,37.62-10.51,52.52Z"/>
      <path class="st2" d="M1631.4,1235.72c6.12-1.45,12.62-2.61,18.96-3.06-6.51.39-12.85,1.39-18.96,3.06Z"/>
      <path class="st2" d="M1773.44,1256.78c-3.17-16.62-8.95-31.01-17.3-42.74-8.29-11.67-19.86-20.9-34.43-27.4-14.68-6.56-33.59-9.84-56.34-9.84,0,0-48.66-.56-96.44,23.95-7.56-6.45-16.52-11.84-26.86-16.06-12.79-5.22-29.42-7.89-49.55-7.89-21.69,0-117.96,8.45-117.96,8.45v282.38h64.79v-233.69s39.88-1.5,47.5-1.5c21.91,0,37.1,7.39,45.21,21.95,7.9,14.17,11.9,30.73,11.9,62.24v151.06h64.79v-152.44c0-12.11-.56-23.62-1.72-34.18-1.11-10.5-3.17-20.56-6.17-29.96l-1.56-4.5s14.51-6.61,32.03-10.84c6.12-1.67,12.46-2.67,18.96-3.06,2-.17,4.01-.22,5.95-.22,22.3,0,37.59,7.39,45.55,21.95,7.73,14.17,11.62,37.35,11.62,68.8v144.44h64.79v-155.33c0-20.01-1.61-38.62-4.78-55.46v-.11Z"/>
      <path class="st1" d="M2277.31,885.93l-2.67,57.3,223.84,46.02-195.26-117.21c-11.12-6.67-25.3.94-25.91,13.89Z"/>
      <path class="st1" d="M2256.94,1328.19c-.84,17.73,22.57,24.79,31.76,9.62l209.83-348.57-234.02,175.12-7.57,163.84Z"/>
      <path class="st1" d="M2066.02,900.37c-13.89-2.89-25.07,11.5-18.79,24.29l135.43,275.65c4.72,9.61,17.01,12.56,25.58,6.17l56.28-42.07,10.18-221.13-208.68-42.9Z"/>
    </g>
  </g>
</svg>