<?xml version="1.0" encoding="UTF-8" standalone="no"?>
<svg
   version="1.1"
   id="Layer_1"
   x="0"
   y="0"
   viewBox="0 0 2500 2500"
   xml:space="preserve"
   sodipodi:docname="banco-pine.svg"
   width="2500"
   height="2500"
   inkscape:version="1.2.2 (732a01da63, 2022-12-09)"
   xmlns:inkscape="http://www.inkscape.org/namespaces/inkscape"
   xmlns:sodipodi="http://sodipodi.sourceforge.net/DTD/sodipodi-0.dtd"
   xmlns:xlink="http://www.w3.org/1999/xlink"
   xmlns="http://www.w3.org/2000/svg"
   xmlns:svg="http://www.w3.org/2000/svg"><sodipodi:namedview
     id="namedview3937"
     pagecolor="#505050"
     bordercolor="#eeeeee"
     borderopacity="1"
     inkscape:showpageshadow="0"
     inkscape:pageopacity="0"
     inkscape:pagecheckerboard="0"
     inkscape:deskcolor="#505050"
     showgrid="false"
     inkscape:zoom="0.17338258"
     inkscape:cx="1874.4674"
     inkscape:cy="980.49064"
     inkscape:window-width="1920"
     inkscape:window-height="1009"
     inkscape:window-x="-8"
     inkscape:window-y="-8"
     inkscape:window-maximized="1"
     inkscape:current-layer="Layer_1" /><style
     id="style3920">.st1{fill:#565859}.st2{fill:#661739}</style><defs
     id="defs3923"><path
       id="SVGID_1_"
       d="M 0,0 H 2500 V 915 H 0 Z" /></defs><clipPath
     id="SVGID_2_"><use
       xlink:href="#SVGID_1_"
       style="overflow:visible"
       id="use3925" /></clipPath><g
     clip-path="url(#SVGID_2_)"
     id="g3934"
     transform="matrix(2.6160376,0,0,2.6160376,5.0518223,59.238084)"><path
       class="st2"
       d="m 529.4,818.6 89.9,70.3 89.9,-70.3 V 763 L 619.3,838.2 529.4,763 Z m 0,-248.3 v 55.6 l 89.9,70.3 89.9,-70.3 v -55.6 l -89.9,75.2 z M 238.6,763.1 v 55.6 l 89.9,70.3 89.9,-70.3 v -55.6 l -89.9,75.2 z"
       id="path3930" /><path
       class="st2"
       d="M 845.5498,-3.725752 H 94.38191 c -26.312551,0 -52.725917,11.4928384 -72.485534,29.639425 C 2.1367593,45.67329 -7.7430492,72.086656 -7.7430492,98.399207 V 838.07425 c 0,16.43275 3.3268743,31.25246 9.8798085,44.45914 6.5529342,14.81972 16.4327427,26.31255 29.6394257,36.19236 V 892.4132 l 90.632125,-70.8725 v -56.05279 l -90.632125,75.8124 V 698.04309 l 146.584095,-115.33164 146.5841,115.33164 90.63212,-70.8725 v -54.33895 l -90.63212,75.81241 V 505.28601 l 146.5841,-115.33164 146.58409,115.33164 90.63212,-70.8725 v -56.05279 l -90.63212,75.81241 V 309.30287 l 146.5841,-115.33164 146.5841,115.33164 V 452.66091 L 820.64865,376.8485 v 55.95198 l 90.63212,72.48553 v 143.35804 l -90.63212,-75.81241 v 54.33895 l 90.63212,70.8725 v 143.35804 l -90.63212,-75.81241 v 56.05279 l 90.63212,70.87251 v 26.21173 c 11.49283,-9.87981 21.37264,-21.37264 29.63942,-36.19236 C 949.18697,867.71368 950.8,852.89397 950.8,838.07425 V 100.11305 C 950.8,72.086656 939.30716,47.387135 921.16057,27.627518 899.88874,7.7670864 873.57619,-3.725752 845.5498,-3.725752 Z"
       id="path3932"
       style="stroke-width:1.00814" /></g></svg>
