<?xml version="1.0" encoding="UTF-8" standalone="no"?>
<svg
   version="1.1"
   id="Layer_1"
   x="0"
   y="0"
   viewBox="0 0 2500 2500"
   xml:space="preserve"
   sodipodi:docname="banco-pine-nome.svg"
   width="2500"
   height="2500"
   inkscape:version="1.2.2 (732a01da63, 2022-12-09)"
   xmlns:inkscape="http://www.inkscape.org/namespaces/inkscape"
   xmlns:sodipodi="http://sodipodi.sourceforge.net/DTD/sodipodi-0.dtd"
   xmlns:xlink="http://www.w3.org/1999/xlink"
   xmlns="http://www.w3.org/2000/svg"
   xmlns:svg="http://www.w3.org/2000/svg"><sodipodi:namedview
     id="namedview3937"
     pagecolor="#505050"
     bordercolor="#eeeeee"
     borderopacity="1"
     inkscape:showpageshadow="0"
     inkscape:pageopacity="0"
     inkscape:pagecheckerboard="0"
     inkscape:deskcolor="#505050"
     showgrid="false"
     inkscape:zoom="0.17338258"
     inkscape:cx="1874.4674"
     inkscape:cy="980.49064"
     inkscape:window-width="1920"
     inkscape:window-height="1009"
     inkscape:window-x="-8"
     inkscape:window-y="-8"
     inkscape:window-maximized="1"
     inkscape:current-layer="Layer_1" /><style
     id="style3920">.st1{fill:#565859}.st2{fill:#661739}</style><defs
     id="defs3923"><path
       id="SVGID_1_"
       d="M 0,0 H 2500 V 915 H 0 Z" /></defs><clipPath
     id="SVGID_2_"><use
       xlink:href="#SVGID_1_"
       style="overflow:visible"
       id="use3925" /></clipPath><g
     clip-path="url(#SVGID_2_)"
     id="g3934"
     transform="translate(0,750.40783)"><path
       class="st1"
       d="M 1125.8,302.3 V 80.1 h 70.3 c 21.2,-1.6 40.8,3.3 58.8,14.7 6.5,4.9 11.4,11.4 14.7,19.6 3.3,8.2 4.9,16.3 4.9,24.5 0,11.4 -3.3,21.2 -9.8,29.4 -6.5,8.2 -16.3,14.7 -27.8,18 13.1,3.3 24.5,9.8 34.3,19.6 8.2,9.8 13.1,21.2 13.1,34.3 0,8.2 -1.6,18 -4.9,26.1 -3.3,8.2 -9.8,14.7 -16.3,21.2 -16.3,11.4 -35.9,18 -57.2,16.3 z m 19.6,-122.6 h 55.6 c 14.7,0 27.8,-3.3 39.2,-11.4 4.9,-3.3 8.2,-8.2 11.4,-14.7 1.6,-4.9 3.3,-11.4 3.3,-18 0,-6.5 0,-11.4 -3.3,-18 -3.3,-3.3 -6.5,-8.2 -11.4,-11.4 -13.1,-8.2 -27.8,-11.4 -42.5,-9.8 H 1147 Z m 0,16.4 v 91.5 h 60.5 c 14.7,0 29.4,-3.3 40.8,-13.1 4.9,-4.9 8.2,-9.8 11.4,-14.7 3.3,-6.5 3.3,-13.1 3.3,-19.6 0,-6.5 -1.6,-13.1 -3.3,-18 -3.3,-4.9 -6.5,-11.4 -11.4,-14.7 -11.4,-8.2 -26.1,-13.1 -40.8,-11.4 z m 299,44.1 h -107.8 l -26.1,63.7 h -21.2 L 1380.8,80 h 19.6 l 89.9,223.9 H 1469 Z m -102.9,-16.3 h 96.4 l -47.4,-122.5 z m 344.8,78.4 h -19.6 L 1529.4,111.1 v 191.2 h -21.2 V 80.1 h 21.2 l 137.3,191.2 V 80.1 h 19.6 z m 214,-68.6 c 0,9.8 -3.3,21.2 -8.2,29.4 -4.9,9.8 -11.4,18 -19.6,24.5 -18,13.1 -39.2,19.6 -60.5,18 -16.3,0 -32.7,-3.3 -47.4,-13.1 -13.1,-8.2 -24.5,-19.6 -31,-34.3 -8.2,-16.3 -11.4,-34.3 -11.4,-52.3 v -29.4 c 0,-18 3.3,-35.9 11.4,-52.3 6.5,-14.7 18,-27.8 32.7,-35.9 14.7,-8.1 31,-13.1 49,-13.1 21.2,-1.6 44.1,4.9 60.5,19.6 14.7,13.1 24.5,32.7 26.1,53.9 h -21.2 c 0,-16.3 -8.2,-31 -19.6,-40.8 -11.4,-11.4 -26.1,-16.3 -42.5,-16.3 h -4.9 c -9.8,0 -19.6,1.6 -27.8,4.9 -8.2,3.3 -16.3,9.8 -22.9,16.3 -13.1,18 -21.2,40.8 -19.6,62.1 v 27.8 c -1.6,22.9 4.9,44.1 18,62.1 6.5,8.2 14.7,13.1 22.9,18 8.2,3.3 18,6.5 27.8,4.9 16.3,1.6 34.3,-3.3 47.4,-14.7 11.4,-11.4 19.6,-26.1 19.6,-42.5 z m 209.2,-31.1 c 0,19.6 -3.3,37.6 -11.4,55.6 -6.5,14.7 -18,27.8 -32.7,35.9 -14.7,8.2 -32.7,13.1 -49,13.1 -13.1,0 -24.5,-1.6 -37.6,-6.5 -11.4,-4.9 -22.9,-11.4 -31,-21.2 -18,-21.2 -27.8,-47.4 -26.1,-75.2 v -24.5 c 0,-18 3.3,-37.6 11.4,-53.9 6.5,-14.7 18,-27.8 32.7,-35.9 14.7,-8.2 31,-13.1 49,-13.1 16.3,0 34.3,3.3 49,13.1 14.7,8.2 26.1,21.2 32.7,35.9 8.2,16.3 11.4,34.3 11.4,52.3 z m -21.3,-22.9 c 1.6,-22.9 -4.9,-45.8 -19.6,-63.7 -13.1,-14.7 -32.7,-22.9 -50.7,-22.9 -19.6,0 -39.2,6.5 -52.3,19.6 l -3.3,3.3 c -14.7,18 -21.2,40.8 -19.6,65.4 v 22.9 c -1.6,22.9 6.5,45.8 19.6,62.1 6.5,6.5 14.7,13.1 22.9,16.3 8.2,3.3 18,6.5 27.8,6.5 9.8,0 19.6,-1.6 27.8,-4.9 8.2,-3.3 18,-8.2 24.5,-14.7 l 3.3,-3.3 c 13.1,-18 21.2,-40.8 19.6,-65.4 z M 1212.4,665 v 173.2 h -86.6 v -469 h 192.8 c 47.4,-3.3 94.8,11.4 132.4,40.8 16.3,13.1 29.4,29.4 37.6,47.4 8.2,18 13.1,39.2 11.4,60.5 1.6,21.2 -3.3,40.8 -11.4,60.5 -8.2,18 -21.2,35.9 -37.6,47.4 -39.2,27.8 -88.2,40.8 -135.6,37.6 z m 0,-65.3 H 1317 c 26.1,1.6 50.7,-6.5 70.3,-21.2 8.2,-6.5 14.7,-16.3 19.6,-26.1 4.9,-9.8 6.5,-21.2 4.9,-32.7 0,-11.4 -1.6,-22.9 -6.5,-32.7 -4.9,-9.8 -11.4,-19.6 -19.6,-27.8 -19.6,-16.3 -44.1,-24.5 -68.6,-22.9 H 1209.3 V 599.7 Z M 1634,838.2 h -86.6 v -469 h 86.6 z m 468.9,0 h -86.6 L 1790.8,504.9 v 333.3 h -85 v -469 h 86.6 l 223.9,333.3 V 369.3 h 86.6 z m 361.2,-209.1 h -205.9 v 143.8 h 240.2 v 65.4 H 2170 v -469 h 325.2 v 65.4 h -238.6 v 129.1 h 205.9 v 65.4 h 1.6 z"
       id="path3928" /><path
       class="st2"
       d="m 529.4,818.6 89.9,70.3 89.9,-70.3 V 763 L 619.3,838.2 529.4,763 Z m 0,-248.3 v 55.6 l 89.9,70.3 89.9,-70.3 v -55.6 l -89.9,75.2 z M 238.6,763.1 v 55.6 l 89.9,70.3 89.9,-70.3 v -55.6 l -89.9,75.2 z"
       id="path3930" /><path
       class="st2"
       d="M 846.4,0 H 101.3 C 75.2,0 49,11.4 29.4,29.4 9.8,49 0,75.2 0,101.3 V 835 c 0,16.3 3.3,31 9.8,44.1 6.5,14.7 16.3,26.1 29.4,35.9 v -26.1 l 89.9,-70.3 V 763 L 39.2,838.2 V 696.1 L 184.6,581.7 330,696.1 419.9,625.8 V 571.9 L 330,647.1 V 504.9 L 475.4,390.5 620.8,504.9 710.7,434.6 V 379 l -89.9,75.2 V 310.5 L 766.2,196.1 911.6,310.5 V 452.7 L 821.7,377.5 V 433 l 89.9,71.9 v 142.2 l -89.9,-75.2 v 53.9 l 89.9,70.3 v 142.2 l -89.9,-75.2 v 55.6 l 89.9,70.3 v 26 c 11.4,-9.8 21.2,-21.2 29.4,-35.9 8.2,-14.7 9.8,-29.4 9.8,-44.1 V 103 C 950.8,75.2 939.4,50.7 921.4,31.1 900.3,11.4 874.2,0 846.4,0 Z"
       id="path3932" /></g></svg>
