<?xml version="1.0" encoding="UTF-8" standalone="no"?>
<!-- Generator: Adobe Illustrator 23.0.0, SVG Export Plug-In . SVG Version: 6.00 Build 0)  -->

<svg
   version="1.1"
   id="Camada_1"
   x="0px"
   y="0px"
   viewBox="0 0 2500 2500"
   xml:space="preserve"
   sodipodi:docname="btg-pactual.svg"
   width="2500"
   height="2500"
   inkscape:version="1.2.2 (732a01da63, 2022-12-09)"
   xmlns:inkscape="http://www.inkscape.org/namespaces/inkscape"
   xmlns:sodipodi="http://sodipodi.sourceforge.net/DTD/sodipodi-0.dtd"
   xmlns="http://www.w3.org/2000/svg"
   xmlns:svg="http://www.w3.org/2000/svg"><defs
   id="defs9" /><sodipodi:namedview
   id="namedview7"
   pagecolor="#505050"
   bordercolor="#eeeeee"
   borderopacity="1"
   inkscape:showpageshadow="0"
   inkscape:pageopacity="0"
   inkscape:pagecheckerboard="0"
   inkscape:deskcolor="#505050"
   showgrid="false"
   inkscape:zoom="0.15325"
   inkscape:cx="2081.5661"
   inkscape:cy="548.12398"
   inkscape:window-width="1920"
   inkscape:window-height="1009"
   inkscape:window-x="-8"
   inkscape:window-y="-8"
   inkscape:window-maximized="1"
   inkscape:current-layer="Camada_1" />
<style
   type="text/css"
   id="style2">
	.st0{fill-rule:evenodd;clip-rule:evenodd;fill:#001E61;}
</style>
<path
   class="st0"
   d="m 1786.6726,1152.8756 27.4598,-135.5825 H 1580.1527 V 832.51227 l -164.1862,25.17138 v 552.62665 c 0,191.0738 73.2259,247.7095 273.453,247.7095 h 87.5278 l 27.4598,-134.4381 h -102.974 c -90.9603,0 -120.7083,-22.8831 -120.7083,-124.7129 v -246.5654 c -1.1442,0.5722 205.9478,0.5722 205.9478,0.5722 z M 656.81978,768.43946 v 593.81644 c 0,220.2498 99.54147,311.7821 315.78675,311.7821 224.82637,0 324.36787,-89.244 324.36787,-310.638 v -56.6357 c 0,-208.2361 -92.1045,-309.49373 -293.4757,-309.49373 -64.07266,0 -133.86612,13.15763 -180.77645,50.91493 V 742.12394 Z m 322.07959,361.55304 c 113.84333,0 153.88883,45.7662 153.88883,182.4926 V 1363.4 c 0,133.294 -40.0455,179.0604 -156.17714,179.0604 -116.13171,0 -156.17714,-45.7664 -156.17714,-180.2045 v -68.6492 c 0,-122.4246 40.04543,-163.6142 158.46545,-163.6142 z M 2184.2664,997.27057 c -216.2452,0 -315.7867,93.24853 -315.7867,306.06133 v 32.6085 c 0,201.9433 86.3837,299.7686 290.0433,299.7686 65.2168,0 130.4336,-12.0138 176.1998,-49.7708 v 24.0272 c 0,113.8434 -48.6266,151.0284 -161.8979,151.0284 h -68.0772 c -38.9013,0.572 -56.6357,8.0091 -80.0909,46.9103 v 0 C 1829.5784,2123.6909 1490.9086,2316.481 1121.9187,2316.481 532.679,2316.481 53.850186,1826.7828 53.850186,1224.9573 53.850186,623.13178 532.679,133.43359 1121.9187,133.43359 c 413.612,0 790.0389,244.84913 966.2387,625.85265 h 49.1987 C 1957.1517,350.82299 1559.5579,87.667397 1121.9187,87.667397 508.07966,87.667397 9.2281472,597.96041 9.2281472,1224.9573 c 0,626.9968 498.8515128,1137.2899 1112.6905528,1137.2899 360.9808,0 693.3578,-176.7718 901.0219,-470.2477 h 159.0375 c 209.3804,0 316.9308,-81.2349 316.9308,-287.7549 v -311.7821 c 0,-205.948 -102.9738,-295.19193 -314.6425,-295.19193 z m 151.6006,358.69233 c 0,113.8436 -38.9013,148.7402 -151.6006,148.7402 -126.4291,0 -151.6005,-44.622 -151.6005,-176.7718 v -20.5948 c 0,-130.4337 22.3111,-177.9161 151.6005,-177.9161 126.4292,0 151.6006,45.7661 151.6006,179.0603 z"
   id="path4"
   style="stroke-width:5.72077"
   sodipodi:nodetypes="cccccssccsscccssssscccssssssssssscsscsssssccssscsssssssssss" />
</svg>
