<?xml version="1.0" encoding="UTF-8" standalone="no"?>
<!-- Generator: Adobe Illustrator 23.0.0, SVG Export Plug-In . SVG Version: 6.00 Build 0)  -->

<svg
   version="1.1"
   id="Camada_1"
   x="0px"
   y="0px"
   viewBox="0 0 2500 2500"
   xml:space="preserve"
   sodipodi:docname="btg-pactual-nome .svg"
   width="2500"
   height="2500"
   inkscape:version="1.2.2 (732a01da63, 2022-12-09)"
   xmlns:inkscape="http://www.inkscape.org/namespaces/inkscape"
   xmlns:sodipodi="http://sodipodi.sourceforge.net/DTD/sodipodi-0.dtd"
   xmlns="http://www.w3.org/2000/svg"
   xmlns:svg="http://www.w3.org/2000/svg"><defs
   id="defs9" /><sodipodi:namedview
   id="namedview7"
   pagecolor="#505050"
   bordercolor="#eeeeee"
   borderopacity="1"
   inkscape:showpageshadow="0"
   inkscape:pageopacity="0"
   inkscape:pagecheckerboard="0"
   inkscape:deskcolor="#505050"
   showgrid="false"
   inkscape:zoom="0.15325"
   inkscape:cx="2081.5661"
   inkscape:cy="548.12398"
   inkscape:window-width="1920"
   inkscape:window-height="1009"
   inkscape:window-x="-8"
   inkscape:window-y="-8"
   inkscape:window-maximized="1"
   inkscape:current-layer="Camada_1" />
<style
   type="text/css"
   id="style2">
	.st0{fill-rule:evenodd;clip-rule:evenodd;fill:#001E61;}
</style>
<path
   class="st0"
   d="m 2307.3584,1239.3389 h -59.9314 l -4.953,22.0409 h 64.8844 c 59.436,0 79.2481,16.0973 79.2481,63.8938 v 23.0315 c -14.6114,-15.1067 -40.6147,-22.7839 -77.5146,-22.7839 -58.6931,0 -87.1729,25.508 -87.1729,77.7622 v 3.7148 c 0,49.0348 27.9845,73.7998 83.4582,73.7998 h 14.859 c 58.6931,0 88.4112,-24.765 88.4112,-73.7998 v -81.9723 c 0.2476,-60.6743 -29.2228,-85.687 -101.289,-85.687 z m 79.2481,171.1264 c 0,35.1664 -18.8215,48.7871 -66.8656,48.7871 h -9.1631 c -46.5583,0 -66.3703,-15.602 -66.3703,-52.0066 v -3.7147 c 0,-39.6241 18.8214,-56.4643 63.1509,-56.4643 h 3.7147 c 52.9972,0 75.5334,16.3449 75.5334,54.4831 0,0 0,8.9154 0,8.9154 z M 769.44965,1282.4301 781.33687,1223.7369 H 680.04788 v -79.991 l -71.07566,10.8966 v 239.2302 c 0,82.7152 31.69925,107.2326 118.37687,107.2326 h 37.89051 l 11.88722,-58.1978 h -44.57707 c -39.37641,0 -52.25422,-9.906 -52.25422,-53.9878 v -106.7373 c -0.4953,0.2477 89.15412,0.2477 89.15412,0.2477 z M 280.3402,1116.009 v 257.0611 c 0,95.3454 43.09116,134.9694 136.703,134.9694 97.32659,0 140.41775,-38.6334 140.41775,-134.4741 v -24.5174 c 0,-90.1447 -39.87171,-133.9788 -127.04463,-133.9788 -27.73684,0 -57.95019,5.6959 -78.25751,22.0409 v -132.493 z m 139.42715,156.5151 c 49.28242,0 66.61795,19.812 66.61795,79.0004 v 22.0409 c 0,57.7025 -17.33553,77.5146 -67.60855,77.5146 -50.27302,0 -67.60855,-19.8121 -67.60855,-78.0099 v -29.718 c 0,-52.9972 17.33553,-70.828 68.59915,-70.828 z m 521.7993,-57.4549 c -93.61183,0 -136.703,40.367 -136.703,132.4929 v 14.1161 c 0,87.4206 37.39521,129.7688 125.55874,129.7688 28.23214,0 56.46428,-5.2007 76.27631,-21.5456 v 10.4013 c 0,49.2824 -21.05029,65.3797 -70.08506,65.3797 h -29.47039 c -16.84022,0.2476 -24.51738,3.4671 -34.67105,20.3073 v 0 c -84.44877,136.703 -231.05778,220.1612 -390.79226,220.1612 -255.07986,0 -462.363212,-211.9887 -462.363212,-472.5169 0,-260.5282 207.283352,-472.51687 462.363212,-472.51687 179.05121,0 342.00514,105.99435 418.28145,270.92947 h 21.29793 C 843.24946,935.22426 671.13246,821.3051 481.67994,821.3051 215.95111,821.3051 0,1042.2092 0,1313.634 c 0,271.4248 215.95111,492.3289 481.67994,492.3289 156.26738,0 300.15223,-76.5239 390.04931,-203.5686 h 68.8468 c 90.64005,0 137.19825,-35.1663 137.19825,-124.5681 v -134.9694 c 0,-89.1542 -44.577,-127.7876 -136.20765,-127.7876 z m 65.62735,155.2767 c 0,49.2825 -16.84023,64.3891 -65.62735,64.3891 -54.73073,0 -65.62734,-19.3167 -65.62734,-76.5239 v -8.9154 c 0,-56.4643 9.65836,-77.0193 65.62734,-77.0193 54.73073,0 65.62735,19.812 65.62735,77.5146 z m 1447.2687,110.6998 h 22.0409 v -332.3468 h -22.0409 z m -497.7772,-219.6659 4.953,-22.0409 h -98.8125 v -62.6555 l -22.7839,4.21 v 214.9605 c 0,61.1697 22.5362,83.9535 82.7153,83.9535 h 32.6898 l 4.2101,-22.0409 h -36.6523 c -45.5677,0 -60.179,-14.859 -60.179,-60.922 v -135.7124 z m 204.5592,124.3205 c 0,56.7119 -17.3356,74.7904 -71.3234,74.7904 -52.2542,0 -70.085,-18.8215 -70.085,-74.7904 v -146.3614 h -22.7838 v 146.3614 c 0,69.5897 26.0033,96.8313 92.6212,96.8313 66.3703,0 93.3642,-27.9845 93.3642,-96.8313 v -146.3614 h -22.0409 v 146.3614 z m -499.7585,-15.8497 v -20.3073 c 0,-65.132 21.7933,-88.1635 82.9629,-88.1635 h 51.7589 l 4.953,-22.0409 h -56.7119 c -73.0569,0 -105.7467,33.9281 -105.7467,109.9568 v 20.3073 c 0,76.0287 32.6898,109.9567 105.7467,109.9567 h 52.5019 l 4.953,-22.0408 h -57.4549 c -59.6837,0.4953 -82.9629,-24.2698 -82.9629,-87.6683 z m -163.6969,-130.5117 h -59.9313 l -4.953,22.0409 h 64.8843 c 58.9408,0 78.7529,16.0973 78.7529,63.8938 v 23.0315 c -14.6114,-15.1067 -40.6147,-22.7839 -77.5146,-22.7839 -58.6931,0 -87.1729,25.508 -87.1729,77.7622 v 3.7148 c 0,49.0348 28.2321,73.7998 83.9534,73.7998 h 14.8591 c 58.1978,0 87.6682,-24.765 87.6682,-73.7998 v -81.9723 c 0.2476,-60.6743 -28.7274,-85.687 -100.5461,-85.687 z m 78.7529,171.1264 c 0,35.414 -18.0785,48.7871 -66.3703,48.7871 h -9.4107 c -46.806,0 -66.8656,-15.602 -66.8656,-52.0066 v -3.7147 c 0,-39.6241 18.8214,-56.4643 63.1508,-56.4643 h 3.7148 c 52.9971,0 75.5333,16.3449 75.5333,54.4831 0.2477,0 0.2477,8.9154 0.2477,8.9154 z m -301.1429,-174.8412 c -70.085,0 -102.7749,35.4141 -102.7749,111.4427 v 206.5404 h 22.0409 v -105.9943 c 16.0973,21.2979 45.8153,33.6804 81.7246,33.6804 69.8374,0 100.7937,-34.4234 100.7937,-111.4427 v -23.5267 c 0.2477,-76.524 -31.2039,-110.6998 -101.7843,-110.6998 z m 79.4958,134.2265 c 0,65.1321 -21.0503,89.4018 -78.0099,89.4018 -53.9877,0 -81.2293,-26.7462 -81.2293,-79.7434 v -32.4422 c 0,-63.3985 23.2791,-89.4018 79.9911,-89.4018 57.2072,0 79.2481,24.7651 79.2481,88.6589 z"
   id="path4"
   style="stroke-width:2.4765" />
</svg>
