<?xml version="1.0" encoding="UTF-8" standalone="no"?>
<svg
   fill="none"
   width="2500"
   height="2500"
   viewBox="0 0 2500 2500"
   version="1.1"
   id="svg8102"
   sodipodi:docname="logo-safra.svg"
   inkscape:version="1.2.2 (732a01da63, 2022-12-09)"
   xmlns:inkscape="http://www.inkscape.org/namespaces/inkscape"
   xmlns:sodipodi="http://sodipodi.sourceforge.net/DTD/sodipodi-0.dtd"
   xmlns="http://www.w3.org/2000/svg"
   xmlns:svg="http://www.w3.org/2000/svg">
  <defs
     id="defs8106" />
  <sodipodi:namedview
     id="namedview8104"
     pagecolor="#505050"
     bordercolor="#eeeeee"
     borderopacity="1"
     inkscape:showpageshadow="0"
     inkscape:pageopacity="0"
     inkscape:pagecheckerboard="0"
     inkscape:deskcolor="#505050"
     showgrid="false"
     inkscape:zoom="0.15796518"
     inkscape:cx="-278.5424"
     inkscape:cy="1930.8052"
     inkscape:window-width="1920"
     inkscape:window-height="1009"
     inkscape:window-x="-8"
     inkscape:window-y="-8"
     inkscape:window-maximized="1"
     inkscape:current-layer="svg8102" />
  <path
     d="m 1784.9096,1831.7271 c -89.8651,0 -148.878,-51.4201 -148.878,-128.5501 0,-64.275 43.6591,-115.6952 95.007,-115.6952 20.52,0 38.493,7.6892 38.493,28.2331 0,12.8548 -5.142,23.1871 7.689,23.1871 7.689,0 15.45,-7.6891 15.45,-28.3533 0,-25.3494 -23.139,-46.2538 -56.49,-46.2538 h -7.761 c 3.4601,-7.2085 5.2381,-15.1377 5.142,-23.163 0.4707,-20.0253 -15.872,-36.3901 -35.898,-35.9461 -17.9729,0 -35.97,10.3319 -35.97,23.1629 -0.4328,3.2349 1.4934,6.3206 4.5894,7.3527 1.0059,0.3329 2.0762,0.4234 3.1236,0.2642 7.665,0 10.2841,-7.6169 23.1151,-7.6169 10.3684,-1.245 19.16,7.5585 17.9009,17.925 0,18.0208 -15.3781,25.3735 -28.2089,33.3988 -43.6816,25.6617 -70.1676,72.85 -69.3211,123.5045 0,71.964 41.1361,118.3863 100.149,138.786 l -38.4929,59.205 c -51.348,0 -77.1061,38.6373 -123.288,120.8614 -4.3975,-21.7601 -24.0055,-37.0628 -46.182,-36.0422 -28.3051,0 -46.278,20.5439 -46.278,48.8969 -0.6326,6.348 3.9463,12.029 10.284,12.759 7.2549,0.491 13.2918,-5.5007 12.855,-12.759 -1.01,-13.5353 9.5684,-25.1351 23.139,-25.3734 17.973,0 25.3256,12.8551 25.3256,28.2327 0.5581,17.5816 -4.8914,34.8285 -15.45,48.8973 -53.871,87.3661 -128.358,131.073 -192.5369,131.073 -56.5621,0 -89.913,-33.399 -89.913,-66.7981 0,-30.8758 17.973,-56.586 48.7769,-56.586 20.544,0 33.375,12.855 33.375,30.7801 0,15.474 -12.831,15.474 -12.831,23.187 0,5.1422 5.142,7.6891 10.3081,7.6891 15.45,0 25.3255,-17.925 25.3255,-35.946 0,-28.3533 -23.139,-48.8973 -56.4899,-48.8973 -27.6395,-0.1155 -52.7657,16.0238 -64.1549,41.2081 -11.4686,-25.1377 -36.5729,-41.2507 -64.203,-41.2081 -33.7594,0 -56.5621,20.5681 -56.5621,48.8969 0,18.0211 10.284,35.9461 25.3256,35.9461 5.0459,0 10.2119,-2.547 10.2119,-7.6888 0,-7.6892 -12.831,-7.6892 -12.831,-23.187 0,-17.9251 12.831,-30.7801 33.7835,-30.7801 30.7319,0 48.7289,25.3737 48.7289,56.586 0,33.3991 -33.375,66.7981 -89.8649,66.7981 -64.155,0 -138.642,-43.7312 -192.60903,-131.073 -10.30717,-14.3082 -15.44962,-31.6927 -14.58502,-49.3057 0,-15.4021 7.68897,-28.2572 25.32559,-28.2572 13.57081,0.2377 24.14916,11.8385 23.13901,25.3738 -0.42913,7.2071 5.52684,13.1744 12.73487,12.759 6.35413,-0.7056 10.95352,-6.3984 10.30803,-12.759 0,-28.353 -17.97296,-48.8973 -46.18191,-48.8973 -22.21865,-1.0903 -41.89381,14.2329 -46.27806,36.0422 C 837.41092,1939.733 811.72492,1901.168 760.64126,1901.168 l -38.49295,-59.205 c 59.10905,-20.5443 100.14898,-66.7982 100.14898,-138.7864 0.8162,-50.6528 -25.67302,-97.8306 -69.345,-123.5041 -12.83098,-7.6892 -28.18491,-15.378 -28.18491,-33.3991 -1.2065,-10.3781 7.59807,-19.1592 17.97296,-17.925 12.85502,0 15.37797,7.6169 23.06697,7.6169 4.47086,0.657 8.33413,-3.1344 7.76105,-7.6169 0,-12.8551 -17.973,-23.1629 -35.97,-23.1629 -14.67489,-0.4055 -28.04211,8.3941 -33.47111,22.0337 -1.75404,4.4211 -2.61903,9.1308 -2.49892,13.9124 -0.0961,8.0252 1.68196,15.9545 5.14202,23.1629 h -7.68897 c -33.75946,0 -56.46598,20.568 -56.46598,46.278 0,20.6162 7.689,28.3292 15.37798,28.3292 12.80694,0 7.66496,-10.3323 7.66496,-23.1871 0,-20.544 17.97299,-28.2331 38.58906,-28.2331 51.34796,0 94.98292,51.4202 94.98292,115.6951 0,77.13 -59.10901,128.5502 -148.94995,128.5502 -105.29098,0 -184.91996,-77.1301 -184.91996,-185.1363 0,-105.483 61.65602,-177.6155 130.95293,-241.626 l 59.10905,-56.5861 c 74.48697,-69.4412 105.24291,-141.4053 105.24291,-231.3182 0,-97.7703 -59.10904,-205.75238 -182.22883,-259.71951 25.32557,-7.68884 41.03993,-33.83127 41.03993,-64.27493 0,-20.54395 -7.68898,-33.32675 -7.68898,-48.77707 0,-30.89996 17.97297,-48.89692 43.65897,-48.89692 20.5815,-0.67456 37.8141,15.46087 38.49298,36.04214 0.73761,15.91849 -12.362,29.02917 -28.28103,28.3051 -7.689,0 -12.83099,0 -12.83099,7.68883 0,7.68884 7.76105,10.23582 17.97297,10.23582 22.96845,0.78054 42.85442,-15.82539 46.18195,-38.56503 5.52647,3.21989 11.72571,4.9979 18.06911,5.16629 17.31835,0.70724 31.53076,-13.56071 30.75593,-30.87619 0,-5.14218 -2.54698,-12.85511 -10.21195,-12.85511 -5.16602,0 -7.68897,5.16628 -7.68897,10.23614 0.47368,7.30155 -5.55028,13.3702 -12.85501,12.95087 -10.53873,-1.0384 -19.53701,-8.05368 -23.11501,-18.02073 -11.46993,-20.52414 -32.982,-33.40766 -56.48998,-33.83161 -31.91671,-0.5504 -59.34948,22.52403 -64.27505,54.06321 -17.60749,-17.90286 -37.47868,-33.42845 -59.10905,-46.18221 20.51998,-12.97497 38.51698,-23.18702 59.10905,-38.6852 32.48764,-24.549 62.59877,-52.09371 89.93704,-82.2719 L 822.29729,404.53211 C 945.56123,268.29288 1024.9499,234.89385 1102.2242,234.89385 c 66.7739,0 100.125,33.39903 100.125,71.96392 0,28.32921 -12.0621,49.30569 -31.3327,59.61382 -11.7046,-12.19476 -19.5456,-27.57573 -22.5383,-44.21172 -2.6191,-12.7828 -5.142,-12.7828 -7.761,-12.7828 -5.1661,0 -5.1661,5.04577 -5.1661,10.23582 -0.4921,18.79204 4.3124,37.3437 13.8642,53.5346 -2.7872,0 -5.6706,0.48041 -8.4578,0.48041 -25.3256,0 -41.04,-12.9271 -41.04,-28.3051 -0.2381,-4.81267 1.6509,-9.48698 5.1661,-12.78281 5.0459,-5.16595 2.5229,-7.78492 0,-7.78492 -10.308,0 -20.6161,12.85479 -20.6161,28.25689 0,18.02108 15.45,43.73098 59.109,43.73098 8.2176,0 16.3872,-1.22529 24.2443,-3.65209 29.8194,22.08423 70.5699,22.08423 100.3893,0 7.8812,2.4268 16.0987,3.65209 24.3164,3.65209 43.5869,0 59.109,-25.37345 59.109,-43.73098 0,-15.378 -10.284,-28.25689 -20.52,-28.25689 -2.5229,0 -5.1419,2.64307 0,7.78492 3.4265,3.34899 5.2694,7.99557 5.07,12.78281 0,15.378 -15.378,28.3292 -41.04,28.3292 -2.9554,0 -5.9108,0 -8.4338,-0.50451 9.5435,-16.19354 14.3395,-34.74488 13.8402,-53.5346 0,-5.16595 0,-10.23582 -5.1421,-10.23582 -2.5469,0 -5.166,0 -7.6889,12.7587 -3.0611,16.61981 -10.8923,31.98988 -22.5384,44.23582 -19.2464,-10.33223 -31.4286,-31.28461 -31.4286,-59.61382 0,-38.56489 33.375,-71.98793 100.1489,-71.98793 77.01,0 156.663,33.399 279.9269,169.66227 l 141.189,154.26008 c 26.7208,30.7844 56.8895,58.39745 89.913,82.296 20.52,15.47408 38.5169,25.37378 59.109,38.63733 -21.6253,12.7346 -41.4965,28.28099 -59.109,46.18188 -5.0124,-31.47678 -32.3811,-54.49541 -64.251,-54.03911 -23.5137,0.40414 -45.0347,13.29326 -56.4901,33.83161 -3.5804,9.94526 -12.5507,16.95327 -23.067,18.02073 -7.3081,0.43782 -13.3368,-5.64702 -12.8309,-12.95087 0,-5.04609 -2.619,-10.23614 -7.689,-10.23614 -7.761,0 -10.284,7.68916 -10.284,12.85511 -0.6992,17.30525 13.4973,31.5349 30.8039,30.87619 6.3435,-0.16839 12.5428,-1.9464 18.0211,-5.16629 3.3875,22.69605 23.2213,39.26699 46.158,38.56503 10.332,0 17.9969,-2.52288 17.9969,-10.21172 0,-7.68916 -5.166,-7.68916 -12.831,-7.68916 -16.4157,2.05766 -30.3503,-11.9478 -28.2089,-28.35298 0.744,-20.52282 17.8924,-36.60971 38.421,-36.04214 25.7581,0 43.731,18.02107 43.731,48.89726 0,15.47409 -7.7611,28.25689 -7.7611,48.80084 0,30.87619 15.4501,56.58609 41.1121,64.27493 -123.2641,53.96713 -182.301,161.94921 -182.301,259.74341 0,89.889 30.8281,161.8531 105.219,231.2943 l 59.109,56.5861 c 69.3209,64.275 130.9529,136.1671 130.9529,241.626 0,108.0062 -79.629,185.1363 -184.92,185.1363 z m -566.5097,478.0863 c -14.7035,-28.6346 -32.8247,-55.381 -53.9671,-79.6529 23.4233,-9.0539 42.6536,-26.4776 53.9671,-48.8969 11.2902,22.4015 30.4837,39.8229 53.8709,48.8969 -21.1024,24.2822 -39.1907,51.0272 -53.8709,79.6529 z m 25.9263,-1928.27582 c -16.5082,7.44252 -35.4165,7.44252 -51.9246,0 11.6596,-9.01648 20.6467,-21.03526 25.9983,-34.76865 5.3252,13.72844 14.2878,25.74788 25.9263,34.76865 z m 767.5525,1154.57232 c -13.7493,-0.7188 -26.7619,6.2503 -33.7836,18.0931 -20.5199,-46.2538 -41.0398,-89.9852 -130.9528,-172.2812 11.6536,3.556 23.7878,5.2861 35.9699,5.166 28.2811,0 59.1091,-7.785 77.01,-25.3735 4.8108,17.2016 20.7359,28.9024 38.5891,28.3529 28.1849,0 38.4929,-18.021 38.4929,-38.5891 0,-7.7608 -2.619,-15.474 -10.308,-15.474 -15.378,0 -2.5229,30.8762 -28.1849,30.8762 -10.9716,-0.099 -19.3942,-9.7575 -17.9971,-20.6401 0,-12.759 7.6891,-28.2331 7.6891,-46.2542 1.6401,-35.7918 -21.8714,-67.894 -56.4901,-77.13 -16.082,-3.1228 -27.8206,-17.0213 -28.2088,-33.3991 0,-20.568 15.3779,-23.115 25.3254,-23.115 9.9717,0 17.9971,2.547 17.9971,-5.1419 0,-7.6888 -7.6889,-12.855 -23.0669,-12.855 -17.9731,0 -43.635,12.855 -43.635,41.0882 -0.3584,11.6575 4.3161,22.9057 12.8309,30.8758 -25.1051,4.3389 -43.496,26.0394 -43.6589,51.5162 0,17.925 5.0459,35.85 17.997,35.85 15.378,0 2.5229,-12.8551 2.5229,-33.3991 0,-23.0909 20.52,-33.3271 41.1121,-33.3271 28.209,0 53.8709,25.3739 53.8709,59.2054 0,38.5651 -30.804,64.2749 -79.629,64.2749 -39.3188,1.8352 -77.2996,-14.5016 -103.0083,-44.3078 -53.943,-59.205 -84.4347,-110.5291 -84.4347,-202.9889 0,-118.41041 84.4347,-221.15425 207.9629,-254.57742 27.5048,-7.89685 46.3906,-33.13658 46.206,-61.75204 0,-25.34969 -15.3779,-46.15778 -41.0399,-46.15778 -10.308,0 -17.9971,2.45091 -17.9971,10.23582 0,7.78525 7.6891,7.68884 12.831,7.68884 14.0887,1.58847 24.3313,14.13587 23.067,28.25722 -0.017,17.34355 -10.8602,32.83215 -27.1518,38.78129 -5.2801,1.9213 -10.8983,2.73882 -16.5072,2.40269 -28.209,0 -46.1819,-20.54395 -46.1819,-48.87315 0,-53.9668 64.251,-89.98483 112.9799,-113.00379 -43.659,-20.64004 -59.109,-28.3533 -92.46,-54.06321 -6.8978,-6.58373 -10.6198,-15.82308 -10.2119,-25.34968 0,-12.85479 7.689,-23.18702 17.973,-23.18702 7.2648,-0.39984 13.258,5.61565 12.8309,12.87889 0,7.68917 -5.1419,7.68917 -5.1419,12.85512 -0.6601,4.49173 3.1972,8.34918 7.689,7.68916 5.142,0 17.973,-5.0702 17.973,-25.37378 0.3097,-18.17592 -15.2527,-32.58354 -33.351,-30.87619 -23.7499,0 -42.581,20.0269 -41.112,43.73131 -20.0962,-16.61518 -38.9747,-34.65045 -56.49,-53.96713 l -82.176,-89.98516 c -23.139,-25.37345 -10.284,-74.48698 23.067,-74.48698 13.5314,-0.99647 25.1137,9.59693 25.3256,23.16325 0,23.06683 -23.139,12.7587 -23.139,25.37345 -0.1073,5.64207 4.7715,10.09187 10.38,9.46717 15.3523,0.21792 29.1107,-9.4424 34.1199,-23.956 1.6339,-4.68554 2.2586,-9.65933 1.8502,-14.60901 -1.4719,-25.49398 -23.2772,-45.00051 -48.777,-43.6349 -33.8075,0 -56.4179,25.37345 -56.4179,61.75204 l -25.758,-28.3533 c -112.98,-123.40804 -205.3679,-177.61535 -295.5453,-177.61535 -29.0712,-0.48132 -57.6441,7.58094 -82.1759,23.1871 -12.1924,-14.61619 -23.3295,-30.08126 -33.327,-46.27806 -10.148,16.20859 -21.4378,31.67372 -33.7834,46.27806 -24.5318,-15.60616 -53.1049,-23.66845 -82.176,-23.1871 -89.8409,0 -182.30093,54.06315 -295.5452,177.61535 l -25.30154,28.3533 c 0,-36.04214 -23.13901,-61.75204 -56.48997,-61.75204 -25.53735,-1.4607 -47.40687,18.09371 -48.80102,43.6349 -1.61922,20.90879 14.9991,38.72614 35.97003,38.56501 5.88558,0.61446 10.84038,-4.35206 10.21192,-10.23615 0,-12.85478 -23.06693,-2.54698 -23.06693,-25.37345 0.1598,-9.92117 6.49138,-18.68902 15.85851,-21.96174 3.04816,-1.04567 6.27852,-1.45476 9.4911,-1.20151 33.35093,0 46.18192,48.77707 23.11498,74.48697 l -82.22402,90.03337 c -17.51685,19.30777 -36.39523,37.33478 -56.48998,53.94303 1.0122,-17.29766 -8.86687,-33.39182 -24.74892,-40.31926 -5.14304,-2.22671 -10.68665,-3.37936 -16.29101,-3.38795 -18.28141,-2.07153 -34.19159,12.45825 -33.78346,30.85208 0,20.66415 12.83098,25.3738 17.99703,25.3738 4.49936,0.68313 8.37231,-3.18985 7.68897,-7.68917 0,-5.16596 -5.06994,-5.16596 -5.06994,-12.85479 -0.44534,-7.26654 5.56366,-13.28666 12.83099,-12.85512 10.28403,0 17.97299,10.3319 17.97299,23.16292 0.3868,9.54444 -3.36123,18.79204 -10.284,25.37379 -30.82801,30.87585 -48.82501,33.8316 -92.484,54.0632 48.82501,22.99486 112.97995,59.18096 112.97995,112.97969 0,28.3292 -17.90091,48.87315 -46.18194,48.87315 -23.71056,1.44222 -43.7166,-17.42972 -43.65898,-41.18398 -1.15705,-14.10947 9.07722,-26.59676 23.13899,-28.23312 5.06994,0 12.83099,0 12.83099,-7.68883 0,-7.71295 -7.76105,-10.25993 -17.97295,-10.25993 -25.32558,0 -41.13606,20.56806 -41.13606,46.18188 -0.0858,28.60589 18.79829,53.80435 46.27802,61.75204 123.21591,36.04213 207.98695,136.23904 207.98695,254.5533 0,92.5322 -33.35096,141.333 -84.43462,202.989 -25.5043,29.5765 -63.09447,45.9217 -102.11927,44.4038 -48.77696,0 -79.60497,-25.3734 -79.60497,-64.2749 0,-33.3991 25.32559,-59.2053 53.94302,-59.2053 20.51994,0 41.03989,10.2361 41.03989,33.327 0,20.5439 -12.83099,33.3991 2.64309,33.3991 12.83099,0 17.973,-17.925 17.973,-35.8499 -0.24003,-25.4482 -18.59475,-47.1061 -43.65899,-51.5163 8.48624,-7.9899 13.15501,-19.2245 12.83098,-30.8759 0,-28.233 -25.32558,-41.0882 -43.65898,-41.0882 -15.45004,0 -23.13902,5.1422 -23.13902,12.8552 0,7.6891 7.68898,5.1421 17.99703,5.1421 10.30804,0 25.32557,2.547 25.32557,23.0909 -0.45743,16.3432 -12.15126,30.2004 -28.18491,33.3988 -34.70626,9.1264 -58.29934,41.285 -56.5861,77.1303 0,18.0211 7.76107,33.8555 7.76107,46.278 1.3455,10.8579 -7.03329,20.4799 -17.97299,20.64 -25.32558,0 -12.83099,-30.8762 -28.28104,-30.8762 -7.68897,0 -10.23595,7.6893 -10.23595,15.4742 0,20.568 10.23595,38.565 38.51699,38.565 17.83286,0.5774 33.74207,-11.131 38.49296,-28.3289 17.99702,17.925 48.80098,25.3734 77.00992,25.3734 12.18248,0.109 24.31097,-1.6317 35.97003,-5.1659 -89.84093,82.296 -110.43298,126.0273 -130.95294,172.2811 -7.03318,-11.8308 -20.03797,-18.7956 -33.78346,-18.093 -25.32558,0 -38.49296,15.4741 -38.49296,38.637 0,5.094 0,20.5681 12.83099,20.5681 10.21192,0 5.142,-10.332 5.142,-18.0211 0.13316,-10.8952 9.70558,-19.2569 20.51997,-17.9246 20.51997,0 25.32558,17.9246 20.51997,46.2538 -2.10258,13.5891 -2.94714,27.3436 -2.52295,41.0879 0,120.789 89.84091,208.2513 207.96287,208.2513 17.20408,-0.4804 34.36012,-2.1864 51.34796,-5.1659 l 35.97003,54.0632 c -25.35602,7.2186 -43.05497,30.1092 -43.659,56.4659 -0.40991,24.0709 14.02593,45.9157 36.33043,54.9762 7.20842,2.9313 14.9695,4.3731 22.77862,4.2289 20.59203,0 35.96999,-10.3323 35.96999,-20.6401 0.55395,-5.854 -4.35787,-10.7658 -10.21191,-10.212 -7.78509,0 -7.78509,7.6891 -25.34962,7.6891 -14.6849,0.3659 -28.04264,-8.4564 -33.47108,-22.106 -1.76823,-4.4283 -2.61841,-9.1694 -2.49892,-13.9361 0,-20.4479 18.06908,-35.922 43.65897,-35.922 48.80101,0 71.94002,56.5621 105.29099,113.052 l 33.78346,56.5861 c 53.96703,92.508 141.18888,146.4989 213.12888,146.4989 10.3416,0.4164 20.695,-0.4388 30.828,-2.5469 30.804,30.8762 61.632,87.3662 74.487,113.0761 12.807,-25.3735 43.563,-82.1999 74.463,-113.0761 10.1251,2.1062 20.4705,2.9613 30.804,2.5469 71.8439,0 159.186,-53.9667 213.1289,-146.4989 l 33.351,-56.5861 c 33.3509,-56.4659 56.4899,-113.0761 105.315,-113.0761 25.3256,0 43.635,15.4982 43.635,35.9461 0.4846,20.0745 -15.8948,36.4865 -35.9701,36.0421 -17.9729,0 -17.9729,-7.6891 -25.3255,-7.6891 -5.8915,-0.6195 -10.8722,4.3151 -10.3081,10.212 0,10.3319 15.45,20.6642 35.9701,20.6642 32.9173,0.55 59.7257,-26.3129 59.109,-59.2292 -0.8656,-26.1263 -18.4507,-48.7259 -43.563,-55.9855 l 35.898,-54.0391 c 16.9637,2.9795 34.1199,4.6855 51.3239,5.1659 118.2181,0 208.0831,-87.4619 208.0831,-208.2272 0.4158,-13.7452 -0.4368,-27.4994 -2.547,-41.0879 -5.166,-28.353 0,-46.2779 20.52,-46.2779 10.8248,-1.366 20.4189,7.0146 20.5199,17.9249 0,7.6889 -5.166,18.0211 5.1421,18.0211 12.831,0 12.831,-15.4741 12.831,-20.5443 0,-23.187 -12.831,-38.6611 -38.493,-38.6611 l 0.6728,0.1684 z m -67.4709,442.1165 c -112.9799,115.695 -279.9269,197.9191 -439.0888,275.121 -105.2909,51.4202 -207.9629,102.7681 -287.6159,164.4963 -79.605,-61.752 -182.373,-113.0761 -287.5919,-164.4963 -159.23399,-77.2019 -326.10889,-159.426 -439.06479,-275.121 -143.56767,-146.4752 -213.22503,-296.026 -213.22503,-465.1596 0,-143.7597 56.58608,-264.7891 184.91998,-426.7381 10.21192,-12.9752 20.51996,-25.8063 20.51996,-36.0421 0,-10.2361 -10.30804,-30.8762 -15.37796,-41.0882 L 377.97034,813.73023 c -20.51996,-43.63489 -41.03993,-84.57884 -41.03993,-128.4782 0,-36.04182 23.13902,-61.75205 53.87092,-87.46195 L 519.23132,482.21519 c 4.58839,-4.85723 5.60954,-12.08249 2.54699,-18.02106 l -41.03994,-84.57885 c -5.16603,-10.33223 -5.16603,-18.11715 2.52295,-23.18701 125.81093,-84.57892 231.12591,-110.52923 382.59885,-151.71331 143.54363,-38.56505 272.23793,-71.9881 351.86693,-123.408145 79.629,51.420045 207.9629,84.578785 351.7709,123.408145 151.4728,41.18408 254.2409,71.96396 382.5988,151.71331 7.689,5.06986 7.689,12.85478 2.5229,23.18701 l -41.0398,84.57885 c -2.9858,5.96696 -1.9303,13.16284 2.643,18.02106 l 127.9014,115.50291 c 30.828,25.37345 53.8709,51.41981 53.8709,87.46195 0,43.73097 -20.52,84.57884 -41.0399,128.4541 l -89.6728,195.46815 c -5.1419,10.212 -15.45,30.8521 -15.45,41.0882 0,10.2359 10.3081,23.0909 20.52,36.0418 138.738,154.2605 184.92,282.7383 184.92,426.7385 0,169.1576 -69.321,318.7804 -213.129,465.1833 z m 120.4047,-884.3769 c -23.067,-28.3533 -35.8739,-41.2084 -35.8739,-51.4202 0,-10.2361 7.6889,-25.3737 15.378,-43.73119 l 76.9859,-169.66186 c 23.139,-51.42013 43.6589,-95.15111 43.6589,-149.02216 0,-38.63699 -15.378,-77.22612 -53.8709,-110.62519 l -110.4569,-95.15112 c -9.1174,-7.59175 -11.3044,-20.71366 -5.1421,-30.85208 l 41.136,-92.53214 c 3.3188,-6.39818 1.0488,-14.27455 -5.166,-17.925 C 1905.6506,248.34992 1761.8667,196.59346 1625.7236,158.0044 1489.6046,122.05841 1307.3037,70.638328 1217.4868,1.1972514 1127.5498,70.638328 945.24889,119.60753 809.12989,158.0044 673.01092,196.40123 529.27503,248.06157 403.80051,332.90479 c -6.29008,3.59266 -8.571,11.54399 -5.142,17.92466 l 41.11202,92.60446 c 6.23086,10.11465 4.08076,23.27121 -5.0459,30.87585 L 324.2436,569.46087 c -38.51699,33.83161 -53.96704,71.9641 -53.96704,110.62521 0,53.87104 20.51997,97.57791 43.659,148.99805 l 77.00994,169.66223 c 7.76106,18.02094 15.45005,33.39894 15.45005,43.73094 0,10.3322 -12.83099,23.0671 -35.97001,51.4201 -115.47889,143.7839 -161.75693,262.1943 -161.75693,419.0496 0,218.463 107.83795,385.5059 231.10192,511.6052 125.81091,128.4782 300.4469,213.2974 459.70487,290.4274 105.291,51.4199 215.6519,102.84 318.4199,185.1364 102.6719,-82.2964 213.1289,-133.7165 318.4199,-185.1364 159.1619,-77.13 336.3929,-161.9492 459.6088,-290.4274 123.264,-126.0993 231.1019,-293.1422 231.1019,-511.5814 0,-156.9032 -46.1819,-275.1212 -161.781,-419.0734"
     fill="#00003c"
     id="path8094"
     style="stroke-width:24.0281"
     sodipodi:nodetypes="sssssssccccccccccccccccccccssssssscccsssssssccccccccccccccccccccssssssssccscsscccsccccscccccccccssccsccsccsssccsssccsccsccsscccccccccsccccscccsscsccssscccccccccccccccsscccccssscccssssccsccssccccsccccccccccccccccccccccccccccccccccccccccccccccccscccssccsccsssscccssscccccssccccccsscccccccccccccccscccccccccscccccccccccccssccccccccscsccscccccccccccccsccscscccsccscccccccscccccsccscscccccsc" />
  <path
     d="m 1395.2224,1579.7689 a 172.16107,172.16107 0 0 1 -59.3253,73.4298 171.72857,171.72857 0 0 1 -89.048,31.0201 c -119.804,9.8997 -121.582,-132.5146 -121.582,-132.5146 v -347.5181 h 3.5321 a 305.39668,305.39668 0 0 1 114.9262,9.8997 c 107.9101,30.6117 185.1843,128.1176 181.2918,240.3528 a 332.95688,332.95688 0 0 1 -29.7948,125.3303 z M 1125.0028,726.60441 c 0,0 25.3256,-67.13427 120.5007,-59.94994 95.1511,7.20843 146.7635,85.32372 149.4546,161.94925 2.6911,76.6493 23.067,246.38378 -172.3292,314.45508 h -97.3618 l -0.2403,-416.45439 z m 353.3808,631.09729 a 308.4002,308.4002 0 0 0 -48.6328,-103.0807 c -50.6753,-68.3358 -109.0154,-90.6818 -111.5383,-91.5228 a 351.2903,351.2903 0 0 0 39.6703,-26.1907 259.55115,259.55115 0 0 0 88.2551,-122.2306 367.26896,367.26896 0 0 0 9.1306,-215.24334 c -42.2412,-158.489 -155.1251,-182.18086 -155.1251,-182.18086 0,0 -131.3134,-52.11682 -221.6589,62.49692 -1.0092,-1.58584 -50.0745,-77.20202 -136.88789,-37.53156 -75.13575,41.42435 -31.90926,106.97277 -13.40765,118.38601 0,0 24.55667,16.33914 38.66115,0 10.30803,-12.15812 0,-24.74876 -5.81479,-33.23069 -10.81264,-16.91563 7.08828,-35.77766 32.24566,-35.34513 21.86552,0 65.52452,16.91564 65.52452,76.1207 v 803.45035 c 0,6.6798 -6.848,49.5698 -42.8901,48.7047 -36.04209,-0.8409 -49.13737,-38.565 -28.54531,-59.1809 a 20.736219,20.736219 0 0 0 -6.41551,-8.4819 c -3.72434,-1.9223 -59.10904,-3.4599 -52.62145,55.3368 6.51159,58.7725 76.86577,87.1736 144.64887,50.2185 a 186.57791,186.57791 0 0 0 165.3372,94.3102 c 118.7226,0 193.1855,-99.6445 193.1855,-99.6445 0,0 95.2713,-115.7671 46.7107,-294.0554"
     fill="#00003c"
     id="path8096"
     style="stroke-width:24.0281" />
  <path
     d="m 980.2097,1506.0268 a 465.66386,465.66386 0 0 0 301.4321,92.4357 390.86451,390.86451 0 0 0 205.1996,-68.1673 c 175.4529,-122.6153 97.0013,-281.7052 91.8594,-296.026 0,0 -48.4647,-110.5291 -167.716,-151.617 0,0 -89.5766,-30.1072 -231.7746,-40.5111 -142.1981,-10.4042 -197.91924,-71.29145 -176.2219,-145.97059 21.6973,-74.67914 132.3946,-108.36645 200.8746,-112.66767 a 448.53187,448.53187 0 0 1 275.3616,75.20808 c 14.1765,11.34126 27.344,23.8837 39.358,37.53157 0,0 19.4147,25.37379 31.7411,12.35061 10.4762,-11.41323 -7.7611,-27.39216 -7.7611,-27.39216 a 148.73371,148.73371 0 0 1 -33.7835,-84.57884 431.97652,431.97652 0 0 1 -1.1773,-63.77042 154.74074,154.74074 0 0 1 4.7335,-25.37345 c 2.0184,-7.20843 3.7003,-17.51655 -6.6798,-19.27046 -8.4339,-1.44188 -12.5667,8.43372 -13.4317,9.97168 a 95.055018,95.055018 0 0 1 -102.4076,44.30747 c -114.9262,-24.94092 -185.785,-23.76351 -185.785,-23.76351 0,0 -134.0766,-9.29912 -223.84541,87.1978 a 182.42106,182.42106 0 0 0 -47.96001,157.91251 c 21.38498,107.88558 132.82712,147.58028 247.58522,146.37868 a 557.69134,557.69134 0 0 1 135.1097,15.0657 c 24.7729,5.6945 49.0653,13.3837 72.6129,22.9948 a 216.15646,216.15646 0 0 1 126.6519,137.4406 c 16.3871,57.259 10.3801,134.1245 -93.8056,196.3091 -192.3687,114.9984 -423.9031,8.434 -520.9284,-218.2226 a 15.786438,15.786438 0 0 0 -21.09666,-7.0163 c -12.2543,5.0698 -5.4784,22.4903 -5.4784,22.4903 0,0 36.0421,65.0439 29.12201,116.2957 a 141.09279,141.09279 0 0 1 -51.42003,88.0387 c -9.97165,9.1308 -22.20194,20.0395 -12.6628,29.5308 9.53915,9.4668 19.58289,4.2289 33.75943,-8.4579 h 0.60069 a 91.955398,91.955398 0 0 1 108.24644,1.3455"
     fill="#00003c"
     id="path8098"
     style="stroke-width:24.0281" />
  <path
     d="m 1203.8629,731.57819 v 946.56171 a 224.06169,224.06169 0 0 1 -21.7695,99.1156 c -16.291,33.0626 -43.3225,66.1493 -86.4769,66.1493 0,0 -50.6512,4.325 -67.0383,-27.6563 -19.5108,-37.556 13.2635,-52.1891 13.2635,-52.1891 0,0 22.8026,-10.5 11.8939,-28.1608 -10.8847,-17.6846 -35.1291,-8.4579 -35.1291,-8.4579 a 101.35037,101.35037 0 0 0 -56.15353,55.8172 c -18.57369,43.4909 12.01402,116.0556 95.00693,123.9847 a 184.84789,184.84789 0 0 0 169.6381,-77.5625 c 0,0 60.6229,71.8921 148.6857,83.5698 0,0 10.5723,1.2735 13.5999,-3.2199 3.0515,-4.4692 3.7243,-11.8457 -10.3801,-21.6493 -14.1045,-9.8033 -95.6798,-56.8262 -95.3433,-138.9541 V 700.1975 a 171.75259,171.75259 0 0 1 78.2113,-145.7062 l 2.0905,-1.27316 a 465.0151,465.0151 0 0 1 103.5368,-41.28039 c 0,0 20.1836,-3.55601 22.5383,-13.5277 2.3548,-9.97168 -3.46,-16.24306 -16.8917,-14.80151 a 300.59108,300.59108 0 0 0 -76.0007,16.07501 c -36.2104,12.85478 -79.9655,38.73308 -150.1995,38.80539 -54.2072,0 -126.6759,-19.1024 -157.3117,-27.89667 a 188.47613,188.47613 0 0 1 -22.4662,-8.45781 c -7.0883,-3.12381 -16.8918,-6.43978 -23.1391,-2.28285 a 14.801288,14.801288 0 0 0 -3.9166,18.81416 14.657119,14.657119 0 0 0 6.7039,6.12709 c 21.0245,13.28732 26.8393,12.01383 46.6144,22.24998 a 204.47882,204.47882 0 0 1 61.0313,47.62343 207.07385,207.07385 0 0 1 49.3296,137.08032"
     fill="#00003c"
     id="path8100"
     style="stroke-width:24.0281" />
</svg>
