<?xml version="1.0" encoding="UTF-8" standalone="no"?>
<svg
   fill="none"
   width="2500"
   height="2500"
   viewBox="0 0 2500 2500"
   version="1.1"
   id="svg8102"
   sodipodi:docname="logo-safra-nome.svg"
   inkscape:version="1.2.2 (732a01da63, 2022-12-09)"
   xmlns:inkscape="http://www.inkscape.org/namespaces/inkscape"
   xmlns:sodipodi="http://sodipodi.sourceforge.net/DTD/sodipodi-0.dtd"
   xmlns="http://www.w3.org/2000/svg"
   xmlns:svg="http://www.w3.org/2000/svg">
  <defs
     id="defs8106" />
  <sodipodi:namedview
     id="namedview8104"
     pagecolor="#505050"
     bordercolor="#eeeeee"
     borderopacity="1"
     inkscape:showpageshadow="0"
     inkscape:pageopacity="0"
     inkscape:pagecheckerboard="0"
     inkscape:deskcolor="#505050"
     showgrid="false"
     inkscape:zoom="0.15796518"
     inkscape:cx="639.38141"
     inkscape:cy="924.25431"
     inkscape:window-width="1920"
     inkscape:window-height="1009"
     inkscape:window-x="-8"
     inkscape:window-y="-8"
     inkscape:window-maximized="1"
     inkscape:current-layer="svg8102" />
  <path
     d="m 915.01763,1397.2994 c 3.40579,23.906 10.05726,41.8446 19.94715,53.7939 18.14964,21.5045 49.21654,32.2459 93.20802,32.2386 26.3803,0 47.7902,-2.8527 64.2297,-8.5363 31.1906,-10.916 46.7786,-31.1906 46.7786,-60.8239 0,-17.32 -7.6703,-30.7103 -23.0181,-40.1708 -15.3479,-9.4605 -39.5887,-17.6403 -72.7151,-24.5392 l -56.68313,-12.4806 c -55.70792,-12.3278 -93.99392,-25.7253 -114.85074,-40.1708 -35.28047,-24.1826 -52.9207,-62.0028 -52.9207,-113.468 0,-46.9388 17.26181,-85.9453 51.77089,-117.034 34.51635,-31.0814 85.23202,-46.6112 152.13988,-46.5749 55.8607,0 103.5126,14.6347 142.9557,43.9114 39.4431,29.2767 60.118,71.7763 62.0319,127.5133 h -105.0554 c -1.9431,-31.5108 -16.0247,-53.9177 -42.2522,-67.2061 -17.4583,-8.7764 -39.1884,-13.172 -65.1757,-13.172 -28.89833,0 -51.97473,5.7055 -69.21471,17.0945 -17.23998,11.389 -25.85634,27.2754 -25.85634,47.6519 0,18.7901 8.52903,32.7771 25.5798,41.9683 10.90871,6.1494 34.10154,13.3758 69.57135,21.6937 l 91.898,21.6792 c 40.2655,9.4969 70.4518,22.1813 90.5736,38.0677 31.2052,24.6847 46.8078,60.3581 46.8078,107.0421 0,47.9067 -18.4917,87.6918 -55.4751,119.3627 -36.9906,31.6564 -89.2345,47.4846 -156.7463,47.47 -68.93818,0 -123.15424,-15.5953 -162.64828,-46.7786 -39.49404,-31.1906 -59.26654,-74.0323 -59.31748,-128.5394 H 915.01763 Z M 1516.183,1370.577 c -6.2149,3.9007 -12.7936,7.1755 -19.6488,9.7807 a 165.01334,165.01334 0 0 1 -27.1881,6.9426 l -23.0182,4.2573 c -21.5918,3.8133 -37.1143,8.398 -46.5312,13.8851 -15.9592,9.2567 -23.9278,23.5931 -23.9133,43.009 0,17.32 4.8685,29.837 14.6056,37.5364 a 55.4896,55.4896 0 0 0 35.5279,11.5564 105.59398,105.59398 0 0 0 61.1586,-19.2121 c 18.6227,-12.8081 28.2943,-36.1611 29.0293,-70.0443 l -0.022,-37.7184 z m -61.9301,-47.3026 c 18.8483,-2.3651 32.3259,-5.3343 40.4401,-8.8783 14.5474,-6.1712 21.832,-15.7773 21.8465,-28.8255 0,-15.8864 -5.5889,-26.8533 -16.7524,-32.8935 -11.1707,-6.0475 -27.5228,-9.0821 -49.0637,-9.0967 -24.248,0 -41.4152,5.9311 -51.5089,17.8004 -7.2191,8.7619 -12.0149,20.6094 -14.4018,35.5351 h -97.7854 c 2.1468,-33.8832 11.6655,-61.7408 28.5416,-83.5728 26.8752,-34.1597 73.028,-51.2323 138.4584,-51.2323 42.6306,0 80.4508,8.4198 113.4608,25.2523 33.0172,16.847 49.5149,48.6344 49.4931,95.3621 v 177.8141 c 0,12.3496 0.211,27.29 0.6913,44.8356 0.7205,13.2738 2.729,22.2686 6.0402,26.9989 a 36.102807,36.102807 0 0 0 14.9331,11.7674 v 14.9331 h -110.0332 a 113.45349,113.45349 0 0 1 -6.3967,-22.0503 269.18096,269.18096 0 0 1 -2.8382,-23.4767 207.98594,207.98594 0 0 1 -48.598,38.7664 146.91463,146.91463 0 0 1 -74.3306,18.8482 c -35.2659,0 -64.3897,-10.0209 -87.3715,-30.0699 -22.9891,-20.049 -34.48,-48.4379 -34.48,-85.1592 0,-47.652 18.4917,-82.161 55.4751,-103.5054 20.2746,-11.6146 50.1189,-19.9108 89.5256,-24.903 z m 396.8762,-293.2616 c 5.116,0.3639 12.2987,0.8951 21.308,1.6156 v 82.5248 c -5.6836,-0.7277 -15.1951,-1.259 -28.5999,-1.6228 -13.4048,-0.3566 -22.6106,2.5616 -27.7048,8.8929 a 32.384095,32.384095 0 0 0 -7.6703,20.8277 v 32.6897 h 66.5002 v 71.507 h -66.5002 v 312.5611 h -100.5216 v -312.5684 h -56.836 v -71.507 h 55.4023 v -24.8739 c 0,-41.4734 6.9935,-70.0442 20.9733,-85.7268 14.6856,-23.2293 50.0898,-34.8366 106.2271,-34.8366 6.3749,0 12.1749,0.1674 17.3928,0.5094 m 265.0693,132.3236 c 1.3026,0.131 4.1917,0.3057 8.6964,0.5385 v 103.7601 a 275.01737,275.01737 0 0 0 -29.1093,-1.7684 c -40.7385,0 -68.094,13.2811 -82.081,39.8361 -7.8086,14.9476 -11.7165,37.9513 -11.7165,69.0254 v 185.2807 h -101.9553 v -387.5976 h 96.6356 v 67.5845 c 15.639,-25.8345 29.284,-43.5111 40.9277,-53.0007 18.9428,-15.8864 43.5766,-23.826 73.8939,-23.826 1.8921,0 3.4786,0 4.7812,0.1747 m 260.1353,208.2333 c -6.2149,3.908 -12.7936,7.1828 -19.6488,9.788 a 165.01334,165.01334 0 0 1 -27.1881,6.9426 l -23.0182,4.2573 c -21.5918,3.8133 -37.1143,8.398 -46.5312,13.8851 -16.0101,9.2567 -24.0151,23.6222 -24.0151,43.089 0,17.3201 4.8685,29.8371 14.6055,37.5365 a 55.40955,55.40955 0 0 0 35.5279,11.5564 c 21.8757,0.087 43.2346,-6.6224 61.1296,-19.2122 18.6372,-12.8153 28.3233,-36.1683 29.0583,-70.0515 z m -61.9301,-47.288 c 18.8483,-2.3724 32.3259,-5.3416 40.4401,-8.8929 14.511,-6.2148 21.7665,-15.8209 21.7665,-28.8182 0,-15.8864 -5.5817,-26.8533 -16.7524,-32.8935 -11.1707,-6.0475 -27.5301,-9.0821 -49.0855,-9.0967 -24.2263,0 -41.3935,5.9311 -51.4871,17.8004 -7.2118,8.7619 -12.0149,20.6094 -14.4018,35.5351 h -97.7054 c 2.1468,-33.8832 11.6656,-61.7408 28.5417,-83.5728 26.8751,-34.1597 73.0279,-51.2323 138.4583,-51.2323 42.6306,0 80.4509,8.4198 113.4608,25.2523 33.0172,16.847 49.5368,48.6125 49.5731,95.3111 v 177.8214 c 0,12.3497 0.2402,27.29 0.7132,44.8356 0.7205,13.2739 2.729,22.2687 6.0402,26.9989 a 36.182858,36.182858 0 0 0 14.9112,11.7747 v 14.9331 h -109.9894 a 113.40255,113.40255 0 0 1 -6.3895,-22.0576 260.97214,260.97214 0 0 1 -2.8382,-23.4693 208.50991,208.50991 0 0 1 -48.6052,38.7663 146.8928,146.8928 0 0 1 -74.3234,18.8482 c -35.2659,0 -64.3897,-10.0208 -87.3788,-30.0699 -22.9891,-20.0563 -34.48,-48.4378 -34.48,-85.1592 0,-47.6519 18.4917,-82.161 55.4824,-103.5054 20.2746,-11.6146 50.1116,-19.918 89.5183,-24.903 l 34.5309,-4.199 z M 480.19021,1472.0593 c -27.2172,0 -45.09031,-15.5735 -45.09031,-38.9337 0,-19.4668 13.2229,-35.0403 28.77454,-35.0403 6.21484,0 11.65828,2.3288 11.65828,8.5509 0,3.8933 -1.55735,7.0226 2.32874,7.0226 2.32875,0 4.67932,-2.3288 4.67932,-8.5873 0,-7.6775 -7.00806,-14.0088 -17.10899,-14.0088 h -2.35058 c 1.04794,-2.1832 1.58646,-4.5847 1.55735,-7.0153 a 10.639449,10.639449 0 0 0 -10.87232,-10.8869 c -5.44344,0 -10.89416,3.1292 -10.89416,7.0153 a 2.0594829,2.0594829 0 0 0 1.38997,2.2269 2.0376509,2.0376509 0 0 0 0.94606,0.08 c 2.32146,0 3.11469,-2.3069 7.00078,-2.3069 a 4.8758075,4.8758075 0 0 1 5.42161,5.4289 c 0,5.4579 -4.65749,7.6848 -8.54358,10.1154 a 42.557794,42.557794 0 0 0 -20.99508,37.4055 c 0,21.7956 12.45878,35.8554 30.33189,42.0338 l -11.65828,17.9313 c -15.55164,0 -23.35293,11.702 -37.33995,36.605 a 13.630429,13.630429 0 0 0 -13.98702,-10.916 c -8.57269,0 -14.01612,6.2221 -14.01612,14.8093 a 3.5367798,3.5367798 0 0 0 3.11469,3.8643 3.653217,3.653217 0 0 0 3.89337,-3.8643 7.1536101,7.1536101 0 0 1 7.00806,-7.6848 c 5.44344,0 7.6703,3.8934 7.6703,8.5508 a 23.432985,23.432985 0 0 1 -4.67932,14.8094 c -16.31576,26.4604 -38.87547,39.6978 -58.3132,39.6978 -17.13082,0 -27.23175,-10.1155 -27.23175,-20.231 0,-9.3513 5.44344,-17.1381 14.77297,-17.1381 6.22211,0 10.1082,3.8934 10.1082,9.3223 0,4.6866 -3.88609,4.6866 -3.88609,7.0226 0,1.5574 1.55735,2.3288 3.12198,2.3288 4.67932,0 7.6703,-5.4289 7.6703,-10.8869 0,-8.5873 -7.00807,-14.8094 -17.10899,-14.8094 a 21.227956,21.227956 0 0 0 -19.43046,12.4806 21.337116,21.337116 0 0 0 -19.44501,-12.4806 c -10.22464,0 -17.13082,6.2294 -17.13082,14.8093 0,5.458 3.11469,10.8869 7.6703,10.8869 1.52823,0 3.09286,-0.7714 3.09286,-2.3287 0,-2.3288 -3.88609,-2.3288 -3.88609,-7.0226 0,-5.4289 3.88609,-9.3223 10.23192,-9.3223 9.30769,0 14.75841,7.6849 14.75841,17.1381 0,10.1155 -10.1082,20.231 -27.21719,20.231 -19.43046,0 -41.99017,-13.2448 -58.33504,-39.6978 a 23.571254,23.571254 0 0 1 -4.41733,-14.9331 c 0,-4.6648 2.32874,-8.5582 7.6703,-8.5582 a 7.1536101,7.1536101 0 0 1 7.00806,7.6849 3.653217,3.653217 0 0 0 3.85698,3.8643 3.5295024,3.5295024 0 0 0 3.12197,-3.8643 c 0,-8.5872 -5.44343,-14.8094 -13.98701,-14.8094 a 13.615874,13.615874 0 0 0 -14.01613,10.916 c -13.88514,-24.7938 -21.6646,-36.4739 -37.13619,-36.4739 l -11.65827,-17.9313 c 17.90222,-6.2222 30.33189,-20.231 30.33189,-42.0339 a 42.594181,42.594181 0 0 0 -21.00236,-37.4054 c -3.88609,-2.3288 -8.5363,-4.6575 -8.5363,-10.1155 a 4.8976395,4.8976395 0 0 1 5.44343,-5.4289 c 3.89337,0 4.65749,2.3069 6.98624,2.3069 a 2.0667602,2.0667602 0 0 0 2.35057,-2.3069 c 0,-3.8934 -5.44344,-7.0153 -10.89415,-7.0153 a 10.595785,10.595785 0 0 0 -10.13732,6.6733 c -0.53124,1.339 -0.79322,2.7654 -0.75684,4.2136 -0.0291,2.4306 0.50941,4.8321 1.55735,7.0153 h -2.32874 c -10.22465,0 -17.10172,6.2294 -17.10172,14.0161 0,6.244 2.32875,8.58 4.65749,8.58 3.87881,0 2.32147,-3.1293 2.32147,-7.0226 0,-6.2221 5.44344,-8.5509 11.68738,-8.5509 15.55164,0 28.76726,15.5735 28.76726,35.0403 0,23.3602 -17.90221,38.9337 -45.11213,38.9337 -31.88924,0 -56.006285,-23.3602 -56.006285,-56.0718 0,-31.9474 18.673615,-53.794 39.661415,-73.1807 l 17.90222,-17.1381 c 22.5597,-21.0315 31.87468,-42.8271 31.87468,-70.0588 0,-29.6115 -17.90222,-62.3158 -55.19123,-78.6607 7.6703,-2.3287 12.42967,-10.2464 12.42967,-19.4668 0,-6.2221 -2.32874,-10.0936 -2.32874,-14.773 0,-9.3586 5.44343,-14.8093 13.22289,-14.8093 a 11.294408,11.294408 0 0 1 11.65828,10.916 8.2015448,8.2015448 0 0 1 -8.56541,8.5727 c -2.32875,0 -3.88609,0 -3.88609,2.3287 0,2.3287 2.35057,3.1001 5.44343,3.1001 a 13.666816,13.666816 0 0 0 13.98702,-11.6801 c 1.67379,0.9752 3.55134,1.5137 5.47255,1.5647 a 8.9583866,8.9583866 0 0 0 9.31498,-9.3514 c 0,-1.5574 -0.7714,-3.8934 -3.09287,-3.8934 -1.56462,0 -2.32874,1.5647 -2.32874,3.1002 a 3.6896036,3.6896036 0 0 1 -3.89337,3.9224 8.3034274,8.3034274 0 0 1 -7.00079,-5.4579 20.012643,20.012643 0 0 0 -17.10899,-10.2465 19.364961,19.364961 0 0 0 -19.46684,16.374 87.306063,87.306063 0 0 0 -17.90222,-13.9871 c 6.21484,-3.9297 11.66555,-7.0226 17.90222,-11.7165 a 197.04084,197.04084 0 0 0 27.23903,-24.9175 l 42.76156,-46.7204 c 37.33267,-41.26246 61.37695,-51.37795 84.78083,-51.37795 20.22368,0 30.32461,10.11549 30.32461,21.79555 0,8.58 -3.65322,14.9331 -9.48963,18.0551 a 25.980049,25.980049 0 0 1 -6.82613,-13.3903 c -0.79323,-3.8715 -1.55735,-3.8715 -2.35058,-3.8715 -1.56462,0 -1.56462,1.5282 -1.56462,3.1001 a 30.346444,30.346444 0 0 0 4.19901,16.2139 c -0.84417,0 -1.71745,0.1455 -2.56161,0.1455 -7.6703,0 -12.42968,-3.9152 -12.42968,-8.5727 a 4.9704127,4.9704127 0 0 1 1.56463,-3.8715 c 1.52824,-1.5646 0.76412,-2.3578 0,-2.3578 -3.12197,0 -6.24394,3.8933 -6.24394,8.5581 0,5.458 4.67931,13.2447 17.90221,13.2447 2.48885,0 4.96314,-0.3711 7.34282,-1.1061 a 25.543409,25.543409 0 0 0 30.40467,0 c 2.38696,0.735 4.8758,1.1061 7.36465,1.1061 13.20107,0 17.90222,-7.6848 17.90222,-13.2447 0,-4.6575 -3.1147,-8.5581 -6.21484,-8.5581 -0.76412,0 -1.55735,0.8005 0,2.3578 a 5.1159592,5.1159592 0 0 1 1.53552,3.8715 c 0,4.6575 -4.65749,8.58 -12.42967,8.58 -0.89511,0 -1.79022,0 -2.55434,-0.1528 a 30.346444,30.346444 0 0 0 4.19174,-16.2139 c 0,-1.5646 0,-3.1001 -1.55735,-3.1001 -0.7714,0 -1.56463,0 -2.32875,3.8642 a 26.373024,26.373024 0 0 1 -6.82613,13.3976 c -5.82913,-3.1293 -9.51874,-9.4751 -9.51874,-18.0551 0,-11.68006 10.10821,-21.80282 30.33189,-21.80282 23.32383,0 47.44816,10.11548 84.78083,51.38522 l 42.76156,46.7204 a 161.20729,161.20729 0 0 0 27.23175,24.9248 c 6.21484,4.6866 11.66555,7.6849 17.90222,11.702 -6.54959,3.8569 -12.56794,8.5654 -17.90222,13.987 a 19.423179,19.423179 0 0 0 -19.45956,-16.3667 19.983533,19.983533 0 0 0 -17.10899,10.2465 8.317982,8.317982 0 0 1 -6.98624,5.4579 3.6750489,3.6750489 0 0 1 -3.88609,-3.9224 c 0,-1.5283 -0.79323,-3.1002 -2.32874,-3.1002 -2.35058,0 -3.1147,2.3288 -3.1147,3.8934 a 8.9947732,8.9947732 0 0 0 9.32953,9.3514 c 1.92122,-0.051 3.79877,-0.5895 5.458,-1.5647 a 13.71048,13.71048 0 0 0 13.97974,11.6801 c 3.12925,0 5.45071,-0.7641 5.45071,-3.0928 0,-2.3288 -1.56462,-2.3288 -3.88609,-2.3288 a 7.6557455,7.6557455 0 0 1 -8.54358,-8.5872 11.330794,11.330794 0 0 1 11.63645,-10.916 c 7.80129,0 13.24473,5.458 13.24473,14.8094 0,4.6866 -2.35058,8.5581 -2.35058,14.7802 0,9.3514 4.67932,17.1381 12.4515,19.4668 -37.33267,16.3449 -55.21306,49.0492 -55.21306,78.6679 0,27.2245 9.33681,49.0201 31.86741,70.0516 l 17.90221,17.1381 c 20.99509,19.4668 39.66142,41.2406 39.66142,73.1807 0,32.7116 -24.11705,56.0718 -56.00629,56.0718 z m -171.57749,144.7969 a 120.59982,120.59982 0 0 0 -16.34487,-24.1243 30.71031,30.71031 0 0 0 16.34487,-14.8093 30.71031,30.71031 0 0 0 16.31576,14.8093 120.84725,120.84725 0 0 0 -16.31576,24.1243 z m 7.85224,-584.0125 a 19.132086,19.132086 0 0 1 -15.7263,0 24.604635,24.604635 0 0 0 7.87406,-10.5303 24.560971,24.560971 0 0 0 7.85224,10.5303 z m 232.46685,349.6827 a 11.214357,11.214357 0 0 0 -10.23192,5.4798 c -6.21483,-14.0088 -12.42967,-27.2536 -39.66141,-52.1784 3.5295,1.077 7.20455,1.601 10.89415,1.5646 8.56541,0 17.90222,-2.3578 23.32383,-7.6848 a 11.760157,11.760157 0 0 0 11.68738,8.5872 c 8.5363,0 11.65827,-5.458 11.65827,-11.6874 0,-2.3505 -0.79322,-4.6866 -3.12197,-4.6866 -4.65749,0 -0.76412,9.3514 -8.5363,9.3514 a 5.5453214,5.5453214 0 0 1 -5.45072,-6.2512 c 0,-3.8643 2.32875,-8.5509 2.32875,-14.0089 a 23.083674,23.083674 0 0 0 -17.10899,-23.3602 10.559398,10.559398 0 0 1 -8.54358,-10.1155 c 0,-6.2294 4.65749,-7.0008 7.6703,-7.0008 3.02009,0 5.45071,0.7714 5.45071,-1.5573 0,-2.3287 -2.32874,-3.8934 -6.98623,-3.8934 -5.44344,0 -13.21562,3.8934 -13.21562,12.4443 a 12.291401,12.291401 0 0 0 3.88609,9.3513 15.937341,15.937341 0 0 0 -13.2229,15.6026 c 0,5.4289 1.52824,10.8578 5.45072,10.8578 4.65749,0 0.76412,-3.8934 0.76412,-10.1155 0,-6.9935 6.21483,-10.0937 12.4515,-10.0937 8.54358,0 16.31576,7.6849 16.31576,17.9314 0,11.6801 -9.32953,19.4668 -24.11705,19.4668 a 38.809972,38.809972 0 0 1 -31.19789,-13.4194 c -16.3376,-17.9313 -25.57252,-33.4757 -25.57252,-61.4788 0,-35.8627 25.57252,-66.9805 62.98524,-77.1033 a 19.328574,19.328574 0 0 0 13.9943,-18.7027 c 0,-7.6776 -4.65749,-13.9797 -12.42967,-13.9797 -3.12197,0 -5.45072,0.7423 -5.45072,3.1001 0,2.3579 2.32875,2.3287 3.88609,2.3287 a 7.9031745,7.9031745 0 0 1 6.98624,8.5582 12.516998,12.516998 0 0 1 -8.22338,11.7456 12.444225,12.444225 0 0 1 -4.99952,0.7277 c -8.54358,0 -13.98702,-6.2221 -13.98702,-14.8021 0,-16.3448 19.45957,-27.2535 34.21798,-34.2252 -13.2229,-6.2512 -17.90222,-8.5873 -28.00315,-16.374 a 10.020876,10.020876 0 0 1 -3.09286,-7.6776 c 0,-3.8933 2.32875,-7.0226 5.44344,-7.0226 a 3.6896036,3.6896036 0 0 1 3.88609,3.9006 c 0,2.3288 -1.55735,2.3288 -1.55735,3.8934 a 2.0522055,2.0522055 0 0 0 2.32875,2.3288 c 1.55735,0 5.44344,-1.5356 5.44344,-7.6849 a 9.2349249,9.2349249 0 0 0 -10.10093,-9.3514 12.473334,12.473334 0 0 0 -12.4515,13.2448 165.13705,165.13705 0 0 1 -17.10899,-16.3449 l -24.88845,-27.2536 c -7.00807,-7.6848 -3.1147,-22.5597 6.98623,-22.5597 a 7.1463328,7.1463328 0 0 1 7.6703,7.0154 c 0,6.9862 -7.00806,3.8642 -7.00806,7.6848 a 2.8308793,2.8308793 0 0 0 3.1438,2.8673 10.77044,10.77044 0 0 0 10.3338,-7.2555 c 0.49486,-1.4191 0.68407,-2.9255 0.56036,-4.4246 a 14.045237,14.045237 0 0 0 -14.77297,-13.2156 c -10.2392,0 -17.08716,7.6848 -17.08716,18.7027 l -7.80129,-8.5873 c -34.21798,-37.37631 -62.1993,-53.79395 -89.5111,-53.79395 a 44.981143,44.981143 0 0 0 -24.88845,7.02262 121.54588,121.54588 0 0 1 -10.09365,-14.01613 121.96796,121.96796 0 0 1 -10.23191,14.01613 44.981143,44.981143 0 0 0 -24.88846,-7.02262 c -27.20991,0 -55.21306,16.37398 -89.51109,53.79395 l -7.66302,8.5873 c 0,-10.916 -7.00806,-18.7027 -17.10899,-18.7027 a 14.001573,14.001573 0 0 0 -14.78025,13.2156 10.843214,10.843214 0 0 0 10.89416,11.6801 2.8163246,2.8163246 0 0 0 3.09286,-3.1002 c 0,-3.8933 -6.98623,-0.7714 -6.98623,-7.6848 a 7.1681648,7.1681648 0 0 1 4.80303,-6.6515 7.1317781,7.1317781 0 0 1 2.87455,-0.3639 c 10.10092,0 13.98701,14.773 7.00078,22.5597 l -24.903,27.2682 a 165.2171,165.2171 0 0 1 -17.10899,16.3376 12.524276,12.524276 0 0 0 -7.49565,-12.2114 12.466057,12.466057 0 0 0 -4.93402,-1.0261 9.1985383,9.1985383 0 0 0 -10.23192,9.3441 c 0,6.2585 3.88609,7.6849 5.45072,7.6849 a 2.0449282,2.0449282 0 0 0 2.32874,-2.3288 c 0,-1.5646 -1.53552,-1.5646 -1.53552,-3.8933 a 3.6750489,3.6750489 0 0 1 3.88609,-3.8934 c 3.1147,0 5.44344,3.1292 5.44344,7.0153 a 10.042708,10.042708 0 0 1 -3.11469,7.6849 c -9.33681,9.3513 -14.78752,10.2465 -28.010418,16.374 14.787518,6.9644 34.217978,17.924 34.217978,34.2179 0,8.58 -5.42161,14.8021 -13.98702,14.8021 a 12.466057,12.466057 0 0 1 -13.222894,-12.4733 7.9541158,7.9541158 0 0 1 7.008054,-8.5509 c 1.53552,0 3.88609,0 3.88609,-2.3287 0,-2.336 -2.35057,-3.1074 -5.443426,-3.1074 -7.670302,0 -12.458782,6.2294 -12.458782,13.987 a 19.408625,19.408625 0 0 0 14.016118,18.7027 c 37.31812,10.916 62.99253,41.2624 62.99253,77.096 0,28.025 -10.10093,42.8052 -25.57252,61.4788 a 38.846359,38.846359 0 0 1 -30.92863,13.4485 c -14.772966,0 -24.109773,-7.6848 -24.109773,-19.4668 0,-10.1155 7.6703,-17.9314 16.337597,-17.9314 6.214826,0 12.429656,3.1002 12.429656,10.0937 0,6.2221 -3.88609,10.1155 0.80051,10.1155 3.88609,0 5.44344,-5.4289 5.44344,-10.8578 a 15.99556,15.99556 0 0 0 -13.2229,-15.6026 12.371452,12.371452 0 0 0 3.88609,-9.3513 c 0,-8.5509 -7.6703,-12.4443 -13.222896,-12.4443 -4.679315,0 -7.008059,1.5574 -7.008059,3.8934 0,2.3288 2.328744,1.5574 5.450717,1.5574 3.121972,0 7.670298,0.7714 7.670298,6.9935 a 10.617617,10.617617 0 0 1 -8.5363,10.1154 23.018178,23.018178 0 0 0 -17.1381,23.3603 c 0,5.458 2.350576,10.2537 2.350576,14.0161 a 5.5671533,5.5671533 0 0 1 -5.443439,6.2512 c -7.6703,0 -3.886091,-9.3514 -8.565411,-9.3514 -2.328743,0 -3.10014,2.3288 -3.10014,4.6866 0,6.2294 3.10014,11.6801 11.665551,11.6801 a 11.701938,11.701938 0 0 0 11.658275,-8.5799 c 5.450716,5.4289 14.780242,7.6848 23.323818,7.6848 a 36.415732,36.415732 0 0 0 10.89416,-1.5646 c -27.209915,24.9248 -33.446582,38.1696 -39.661417,52.1784 a 11.236189,11.236189 0 0 0 -10.231919,-5.4798 c -7.6703,0 -11.658274,4.6866 -11.658274,11.7019 0,1.5428 0,6.2294 3.886092,6.2294 3.092863,0 1.557347,-3.1292 1.557347,-5.458 a 5.538044,5.538044 0 0 1 6.214835,-5.4288 c 6.214836,0 7.6703,5.4288 6.214836,14.0088 a 67.722783,67.722783 0 0 0 -0.76412,12.4442 c 0,36.5831 27.20991,63.0726 62.98524,63.0726 5.21056,-0.1455 10.40657,-0.6622 15.55164,-1.5646 l 10.89416,16.374 a 18.215144,18.215144 0 0 0 -13.2229,17.1017 17.647512,17.647512 0 0 0 11.00331,16.6505 c 2.1832,0.8878 4.53378,1.3245 6.89891,1.2808 6.23666,0 10.89415,-3.1293 10.89415,-6.2512 a 2.8381566,2.8381566 0 0 0 -3.09286,-3.0929 c -2.35785,0 -2.35785,2.3288 -7.67758,2.3288 a 10.624894,10.624894 0 0 1 -10.13731,-6.6952 10.661281,10.661281 0 0 1 -0.75684,-4.2208 c 0,-6.193 5.47254,-10.8796 13.22289,-10.8796 14.78025,0 21.78831,17.1308 31.88924,34.2398 l 10.23192,17.1381 c 16.34487,28.0177 42.76156,44.3698 64.54987,44.3698 a 38.278727,38.278727 0 0 0 9.33681,-0.7714 c 9.32953,9.3514 18.66633,26.4604 22.5597,34.2471 3.87882,-7.6848 13.19379,-24.8957 22.55243,-34.2471 a 38.278727,38.278727 0 0 0 9.32953,0.7714 c 21.7592,0 48.21228,-16.3448 64.54987,-44.3698 l 10.10093,-17.1381 c 10.10092,-17.1017 17.10899,-34.2471 31.89651,-34.2471 7.6703,0 13.21562,4.6939 13.21562,10.8869 a 10.661281,10.661281 0 0 1 -10.89415,10.916 c -5.44344,0 -5.44344,-2.3288 -7.6703,-2.3288 a 2.8381566,2.8381566 0 0 0 -3.12197,3.0929 c 0,3.1292 4.67932,6.2585 10.89415,6.2585 a 17.611126,17.611126 0 0 0 17.90222,-17.9386 18.280639,18.280639 0 0 0 -13.19379,-16.9562 l 10.87232,-16.3667 c 5.13779,0.9024 10.3338,1.4191 15.54437,1.5646 35.80444,0 63.02163,-26.4894 63.02163,-63.0653 a 67.744615,67.744615 0 0 0 -0.7714,-12.4442 c -1.56462,-8.5872 0,-14.0161 6.21484,-14.0161 a 5.5234894,5.5234894 0 0 1 6.21483,5.4289 c 0,2.3287 -1.56462,5.458 1.55735,5.458 3.88609,0 3.88609,-4.6866 3.88609,-6.2222 0,-7.0226 -3.88609,-11.7092 -11.65827,-11.7092 l 0.20376,0.051 z m -20.43472,133.9028 c -34.21798,35.0403 -84.78084,59.9433 -132.98583,83.3253 -31.88924,15.5735 -62.98525,31.1251 -87.10958,49.8206 -24.10978,-18.7027 -55.23489,-34.2471 -87.1023,-49.8206 -48.22683,-23.382 -98.76785,-48.285 -132.978545,-83.3253 -43.482015,-44.3626 -64.578979,-89.6567 -64.578979,-140.8818 0,-43.5402 17.1381,-80.1961 56.006291,-129.2452 3.092862,-3.9298 6.214835,-7.8159 6.214835,-10.916 0,-3.1002 -3.121973,-9.3514 -4.657488,-12.4443 l -27.231749,-59.201 c -6.214835,-13.2156 -12.42967,-25.6162 -12.42967,-38.9119 0,-10.9159 7.008063,-18.7027 16.315762,-26.4894 l 38.897297,-35.0039 a 4.7666476,4.7666476 0 0 0 0.7714,-5.458 l -12.429671,-25.6162 c -1.564625,-3.1293 -1.564625,-5.4871 0.764119,-7.0226 38.104068,-25.61622 70.000578,-33.47573 115.876838,-45.94906 43.47473,-11.68011 82.45208,-21.80287 106.56914,-37.37634 24.11705,15.57347 62.98524,25.61618 106.54003,37.37634 45.87625,12.47333 77.00137,21.79556 115.87684,45.94906 2.32874,1.5355 2.32874,3.8933 0.76412,7.0226 l -12.42967,25.6162 a 4.8175889,4.8175889 0 0 0 0.8005,5.458 l 38.7372,34.9821 c 9.33681,7.6848 16.31576,15.5734 16.31576,26.4894 0,13.2447 -6.21483,25.6162 -12.42967,38.9046 l -27.15897,59.201 c -1.55735,3.0929 -4.67932,9.3441 -4.67932,12.4443 0,3.1001 3.12197,6.9935 6.21483,10.9159 42.01928,46.7205 56.00629,85.6323 56.00629,129.2453 0,51.2324 -20.99508,96.5483 -64.54986,140.889 z M 564.96376,1248.58 c -6.98623,-8.5873 -10.86505,-12.4807 -10.86505,-15.5735 0,-3.1002 2.32875,-7.6849 4.65749,-13.2448 l 23.31655,-51.3851 c 7.00806,-15.5735 13.2229,-28.8182 13.2229,-45.134 0,-11.7019 -4.65749,-23.3893 -16.31576,-33.5048 l -33.45386,-28.8182 a 7.2554926,7.2554926 0 0 1 -1.55735,-9.3441 l 12.45878,-28.025 a 4.1044111,4.1044111 0 0 0 -1.56463,-5.4289 c -38.10407,-25.61614 -81.65158,-41.2915 -122.8849,-52.97888 -41.22604,-10.88688 -96.43911,-26.46036 -123.64175,-47.49182 -27.23902,21.03146 -82.45208,35.86265 -123.67813,47.49182 -41.22604,11.62916 -84.759,27.27541 -122.761181,52.97168 a 4.0461925,4.0461925 0 0 0 -1.557347,5.4288 l 12.451502,28.0469 a 7.2336607,7.2336607 0 0 1 -1.528238,9.3513 l -33.461139,28.8182 c -11.665551,10.2465 -16.344871,21.7956 -16.344871,33.5048 0,16.3158 6.214836,29.5532 13.222899,45.1267 l 23.323826,51.3852 c 2.350575,5.458 4.679319,10.1155 4.679319,13.2447 0,3.1293 -3.886091,6.9863 -10.894155,15.5735 -34.974822,43.5475 -48.9909488,79.4102 -48.9909488,126.9166 0,66.1654 32.6606328,116.7573 69.9933078,154.9487 38.104066,38.9119 90.995666,64.6009 139.229766,87.9611 31.88924,15.5734 65.31399,31.1469 96.43911,56.0718 31.09601,-24.9249 64.54987,-40.4984 96.4391,-56.0718 48.205,-23.3602 101.88255,-49.0492 139.20067,-87.9611 37.33268,-38.1914 69.99331,-88.7833 69.99331,-154.9415 0,-47.5209 -13.98702,-83.3253 -48.99823,-126.9238"
     fill="#00003c"
     id="path8094"
     style="stroke-width:7.27732" />
  <path
     d="m 362.16655,1395.7493 a 52.142031,52.142031 0 0 1 -17.96771,22.2395 52.011039,52.011039 0 0 1 -26.96977,9.395 c -36.28474,2.9983 -36.82326,-40.1344 -36.82326,-40.1344 v -105.252 h 1.06977 a 92.494796,92.494796 0 0 1 34.80744,2.9983 c 32.68247,9.2713 56.08634,38.8027 54.90742,72.7951 a 100.84189,100.84189 0 0 1 -9.02389,37.9585 z m -81.84079,-258.396 c 0,0 7.6703,-20.3328 36.49578,-18.1569 28.81821,2.1832 44.4499,25.8418 45.26496,49.0492 0.81506,23.2146 6.98624,74.6217 -52.19297,95.2383 h -29.48772 l -0.0728,-126.1306 z m 107.02761,191.139 a 93.404461,93.404461 0 0 0 -14.7293,-31.2198 c -15.34788,-20.6967 -33.01722,-27.4646 -33.78134,-27.7193 a 106.39449,106.39449 0 0 0 12.01486,-7.9323 78.609661,78.609661 0 0 0 26.72962,-37.0197 111.23391,111.23391 0 0 0 2.76538,-65.1903 c -12.79354,-48.0012 -46.98241,-55.1767 -46.98241,-55.1767 0,0 -39.77058,-15.7845 -67.13332,18.9283 -0.30565,-0.4803 -15.16594,-23.382 -41.45892,-11.3671 -22.75619,12.5461 -9.66428,32.3986 -4.06074,35.8553 0,0 7.43742,4.9486 11.70921,0 3.12197,-3.6823 0,-7.4956 -1.76111,-10.0645 -3.2748,-5.1232 2.14681,-10.8359 9.76617,-10.7049 6.62236,0 19.84526,5.1232 19.84526,23.0545 v 243.3392 c 0,2.0231 -2.07404,15.0131 -12.99002,14.7511 -10.91599,-0.2547 -14.88213,-11.6801 -8.64546,-17.924 a 6.2803311,6.2803311 0 0 0 -1.94305,-2.5689 c -1.12798,-0.5822 -17.90222,-1.0479 -15.93734,16.7597 1.97215,17.8003 23.28016,26.4021 43.80949,15.2096 a 56.508426,56.508426 0 0 0 50.07527,28.5635 c 35.95727,0 58.50969,-30.1791 58.50969,-30.1791 0,0 28.8546,-35.0621 14.14712,-89.0599"
     fill="#00003c"
     id="path8096"
     style="stroke-width:7.27732" />
  <path
     d="m 236.4726,1373.4152 a 141.03455,141.03455 0 0 0 91.29404,27.9958 118.38024,118.38024 0 0 0 62.14835,-20.6457 c 53.13903,-37.1362 29.37856,-85.3194 27.82122,-89.6567 0,0 -14.67837,-33.4757 -50.79573,-45.9199 0,0 -27.12987,-9.1185 -70.19707,-12.2695 -43.06721,-3.1511 -59.94333,-21.5919 -53.3719,-44.2098 6.57142,-22.6179 40.09806,-32.8207 60.83843,-34.1234 a 135.84582,135.84582 0 0 1 83.39814,22.7781 c 4.29362,3.4349 8.2816,7.2336 11.92026,11.3671 0,0 5.88008,7.6849 9.61334,3.7406 3.17292,-3.4567 -2.35057,-8.2962 -2.35057,-8.2962 a 45.046639,45.046639 0 0 1 -10.23192,-25.6162 130.83174,130.83174 0 0 1 -0.35659,-19.314 46.865971,46.865971 0 0 1 1.43363,-7.6848 c 0.6113,-2.1832 1.12071,-5.3052 -2.02309,-5.8364 -2.55434,-0.4367 -3.80604,2.5543 -4.06803,3.0201 a 28.789096,28.789096 0 0 1 -31.01595,13.4193 c -34.80745,-7.5538 -56.26828,-7.1972 -56.26828,-7.1972 0,0 -40.60747,-2.8164 -67.79555,26.4094 a 55.249449,55.249449 0 0 0 -14.52554,47.8266 c 6.47682,32.6751 40.22905,44.6973 74.98555,44.3334 a 168.9067,168.9067 0 0 1 40.9204,4.5629 c 7.50292,1.7247 14.86029,4.0535 21.99207,6.9644 a 65.466812,65.466812 0 0 1 38.35878,41.6263 c 4.96313,17.3419 3.1438,40.622 -28.41068,59.4557 -58.26226,34.8293 -128.38656,2.5544 -157.77239,-66.0926 a 4.7812023,4.7812023 0 0 0 -6.3895,-2.125 c -3.71143,1.5355 -1.65923,6.8116 -1.65923,6.8116 0,0 10.91599,19.6997 8.82012,35.2222 a 42.73245,42.73245 0 0 1 -15.57347,26.6641 c -3.02009,2.7654 -6.72425,6.0693 -3.83515,8.9439 2.8891,2.8672 5.93102,1.2808 10.22464,-2.5616 h 0.18193 a 27.850321,27.850321 0 0 1 32.78435,0.4075"
     fill="#00003c"
     id="path8098"
     style="stroke-width:7.27732" />
  <path
     d="m 304.20994,1138.8597 v 286.683 a 67.861052,67.861052 0 0 1 -6.59326,30.0189 c -4.93402,10.0136 -13.12101,20.0345 -26.19109,20.0345 0,0 -15.3406,1.3099 -20.30373,-8.3762 -5.90919,-11.3745 4.01708,-15.8064 4.01708,-15.8064 0,0 6.90618,-3.1801 3.60228,-8.529 -3.29663,-5.3561 -10.63945,-2.5616 -10.63945,-2.5616 a 30.695755,30.695755 0 0 0 -17.00711,16.9052 c -5.62537,13.172 3.63866,35.1495 28.77454,37.551 a 55.984458,55.984458 0 0 0 51.37791,-23.4912 c 0,0 18.36069,21.7738 45.03209,25.3106 0,0 3.20202,0.3857 4.11896,-0.9752 0.92422,-1.3536 1.12799,-3.5877 -3.1438,-6.5569 -4.27179,-2.9691 -28.97831,-17.2108 -28.87642,-42.0847 v -317.6262 a 52.018316,52.018316 0 0 1 23.68769,-44.1297 l 0.63313,-0.3856 a 140.83806,140.83806 0 0 1 31.35799,-12.5025 c 0,0 6.11295,-1.077 6.82613,-4.0971 0.71318,-3.0201 -1.04794,-4.9195 -5.11596,-4.4829 a 91.039331,91.039331 0 0 0 -23.01818,4.8686 c -10.96693,3.8933 -24.21894,11.731 -45.49056,11.7529 -16.41764,0 -38.36605,-5.7855 -47.64464,-8.449 a 57.083334,57.083334 0 0 1 -6.8043,-2.5616 c -2.14681,-0.9461 -5.11596,-1.9504 -7.00806,-0.6914 a 4.482832,4.482832 0 0 0 -1.18621,5.6982 4.439168,4.439168 0 0 0 2.03038,1.8557 c 6.36766,4.0243 8.12877,3.6386 14.11801,6.7388 a 61.930033,61.930033 0 0 1 18.4844,14.4236 62.715984,62.715984 0 0 1 14.94035,41.5172"
     fill="#00003c"
     id="path8100"
     style="stroke-width:7.27732" />
</svg>
