<?xml version="1.0" encoding="UTF-8"?>
<svg id="Camada_1" xmlns="http://www.w3.org/2000/svg" version="1.1" viewBox="0 0 2500 2500">
  <!-- Generator: Adobe Illustrator 29.6.0, SVG Export Plug-In . SVG Version: 2.1.1 Build 207)  -->
  <defs>
    <style>
      .st0 {
        fill: #053e6e;
        fill-rule: evenodd;
      }
    </style>
  </defs>
  <path class="st0" d="M1632.05,804.38c-40.51-40.35-89.81-66.67-149.69-82.46-10.56-5.26-17.6-14.03-14.08-29.82l8.8-49.12c5.28-29.82-14.08-52.63-44.02-52.63h-66.92c-29.94,0-58.11,24.56-63.4,52.63l-8.8,43.86c-3.52,19.3-15.85,26.32-31.7,31.58-70.44,12.28-133.83,40.35-186.66,80.7-79.24,59.65-125.03,135.09-139.11,226.32-14.09,82.46,5.28,149.13,58.11,198.24,52.83,49.12,135.59,85.97,248.29,112.28,73.96,17.55,123.27,38.6,146.16,61.41,22.89,22.81,31.7,54.39,26.41,89.48-7.04,38.59-26.41,70.17-59.86,92.98-33.46,22.8-77.48,35.08-128.55,35.08s-95.09-14.03-128.55-42.1c-22.89-19.29-35.22-47.36-38.74-82.46-3.52-12.28-8.8-47.36-45.78-47.36h-130.31c-40.5,0-47.54,33.33-47.54,47.36-3.52,71.94,21.13,136.84,75.72,196.5,35.22,38.59,79.24,66.66,132.07,84.21h-3.52c28.18,8.77,52.83,12.28,45.78,40.34l-8.81,49.12c-5.28,29.82,14.09,52.64,44.02,52.64h66.92c29.94,0,58.11-24.56,63.39-52.64l8.8-43.85c3.52-21.05,17.61-28.07,35.22-31.58,75.72-12.28,142.64-36.84,198.99-77.19,81-56.15,130.3-133.33,144.4-231.58,14.08-84.21-5.28-152.64-56.35-201.75-51.06-49.12-137.35-87.72-257.09-114.04-75.72-17.54-123.27-35.08-144.4-56.14-21.13-21.05-29.94-50.88-22.89-87.72,5.28-36.84,24.65-66.67,56.35-92.98,31.7-26.32,70.44-38.6,119.74-38.6s88.05,15.79,112.7,45.61c15.85,19.3,21.14,38.6,24.66,57.89,8.8,38.6,31.7,54.39,56.35,54.39h117.98c47.54,0,56.35-29.82,54.58-59.65,1.77-64.91-24.65-135.09-68.67-178.95Z"/>
  <path class="st0" d="M2271.27,334.21c28.17-28.07,54.58-5.26,47.54,21.05l-207.79,1038.59c-7.04,38.6-21.14,101.76-28.18,140.35,0,0-33.2,166.18-67.82,341.8l-4.66,23.64-3.1,15.78c-14.48,73.61-28.8,146.85-40.64,208.25-29.94,149.12-98.61,254.4-214.83,321.06-63.4,36.83-142.64,56.14-218.35,56.14H406.43c-38.74,0-47.55-28.07-19.37-56.14l304.64-301.76c28.17-28.07,84.52-50.87,123.27-50.87h207.79c40.5,0,49.31,22.8,21.13,50.87l-70.44,70.18c-46.02,47.49-49.09,50.65-36.41,50.86h1.92s1.03.01,1.03.01h515.95c38.75,0,102.14-10.52,139.11-24.56,0,0,119.75-43.85,140.87-154.39,28.18-143.85,295.84-1456.14,295.84-1456.14,7.04-38.6,36.98-92.98,65.16-121.05l174.33-173.68ZM2170.89.88c38.74,0,47.54,28.07,19.36,56.14l-304.64,300c-28.18,28.07-84.53,50.88-123.27,50.88h-207.79c-40.5,0-49.3-22.81-21.12-50.88l70.44-70.18c46.02-47.49,49.08-50.65,36.41-50.86h-1.92s-1.03-.02-1.03-.02h-514.2c-38.74,0-102.13,10.53-139.11,24.56,0,0-119.74,43.86-140.87,154.39-28.17,143.86-295.84,1456.14-295.84,1456.14-7.04,38.59-36.98,92.98-65.16,121.05l-176.09,173.69c-28.18,28.06-54.59,5.26-47.55-21.05l207.79-1036.84c7.04-38.6,21.13-101.76,28.17-140.35,0,0,34.2-171.17,69.37-349.67l3.11-15.76,3.11-15.78,4.65-23.64c12.88-65.54,25.42-129.8,35.99-184.62,29.94-149.12,98.61-254.39,214.83-321.05C888.93,20.18,968.17.88,1043.89.88h1127Z"/>
</svg>