<?xml version="1.0" encoding="UTF-8"?>
<svg id="Camada_1" xmlns="http://www.w3.org/2000/svg" version="1.1" xmlns:xlink="http://www.w3.org/1999/xlink" viewBox="0 0 2500 2500">
  <!-- Generator: Adobe Illustrator 29.6.0, SVG Export Plug-In . SVG Version: 2.1.1 Build 207)  -->
  <defs>
    <style>
      .st0 {
        fill-rule: evenodd;
      }

      .st0, .st1 {
        fill: #053e6e;
      }

      .st2 {
        fill: none;
      }

      .st3 {
        clip-path: url(#clippath);
      }
    </style>
    <clipPath id="clippath">
      <rect class="st2" y="989.27" width="2500" height="545.45"/>
    </clipPath>
  </defs>
  <g class="st3">
    <g>
      <path class="st0" d="M627.66,1194.06c-38.42,0-53.02,18.37-57.63,40.19l-27.28,131.29c-1.15,6.51-7.68,11.48-14.22,11.48h-27.28c-6.53,0-10.76-4.98-9.61-11.48l41.5-206.7c1.15-6.51,7.68-11.48,14.22-11.48h26.89c6.53,0,10.76,4.98,9.22,11.48l-1.54,7.66c-1.54,6.12,1.15,7.66,5.38,2.68,0,0,26.51-24.5,59.55-24.5,6.53,0,3.84,5.36,3.84,5.36l-12.68,38.28s-1.92,5.74-10.37,5.74Z"/>
      <path class="st1" d="M728.7,1381.23c-91.06,0-88.75-91.87-81.07-126.32,6.15-27.18,31.89-112.15,112.96-112.15,104.12,0,71.85,122.87,71.85,122.87-1.92,6.12-5,11.1-14.22,11.1h-120.64c-6.15,0-6.92,3.45-7.3,5.74-1.15,9.19-2.31,28.32,9.22,44.4,11.14,15.69,39.57,27.94,94.51-3.45,4.23-2.3,6.53-1.53,8.07,1.91.77,2.3,5.38,17.23,5.38,17.23,1.92,6.12-.77,14.16-6.15,17.61,0,0-11.14,7.65-25.36,12.63-13.45,6.12-29.58,8.42-47.26,8.42ZM754.06,1184.49c-10.76,0-20.75,4.98-29.58,15.31-8.45,9.19-14.6,21.82-18.83,35.98-.38,1.15-1.15,3.83,2.69,3.83h73c3.84,0,4.23-2.68,4.61-4.21.38-1.53.38-6.51.77-13.02,0,0,.38-15.31-4.61-24.5-5.38-8.8-14.6-13.4-28.05-13.4Z"/>
      <path class="st0" d="M940.4,1339.9c10.76,0,20.75-3.83,29.97-11.1,8.07-6.51,11.91-13.01,14.98-22.2,1.92-5.74,7.3-5.36,7.3-5.36h34.2c3.46,0,5.38,3.06,4.23,6.51-.38,1.91-1.15,3.83-1.92,5.74,0,0-10.37,30.24-29.58,45.17-19.21,14.93-41.11,22.58-65.7,22.58-30.74,0-53.02-11.1-67.24-32.92-26.9-42.11-18.06-123.64,26.89-173.4,19.6-21.82,44.57-31.77,78.38-31.77,26.13,0,44.57,8.04,58.78,24.11,13.06,14.93,18.06,33.68,14.98,55.5-.38,1.91-1.15,6.51-7.68,6.51h-31.5c-5,0-8.84-1.53-8.84-8.04,0,0,0-16.08-5.76-24.5-5.76-8.42-14.98-12.63-26.89-12.63-16.91,0-29.58,7.27-39.96,21.44-18.83,26.41-29.58,84.21-19.21,113.68,5.76,14.16,16.9,20.67,34.58,20.67Z"/>
      <path class="st1" d="M1183.6,1376.64c-6.53,0-10.76-4.98-9.6-11.1l1.54-11.1s-.38-4.59-4.23-1.15c-5.76,4.98-16.52,14.16-25.36,18.76-11.52,6.13-23.44,9.19-35.35,9.19-20.36,0-35.73-6.51-45.72-19.14-10.37-12.63-13.45-29.47-9.22-50.14,4.61-23.73,16.14-41.34,34.58-52.82,18.44-11.48,42.65-17.61,73-17.61h21.9c10.37,0,11.91-1.91,13.83-9.95,1.15-5.36,2.3-15.31,2.69-21.82,0,0,.77-10.72-4.22-17.22-5-6.51-13.45-9.57-25.36-9.57-30.74,0-35.35,17.61-39.57,24.88-2.3,4.21-3.84,5.36-9.99,5.36h-28.82c-6.53,0-9.22-5.74-6.53-13.4,0,0,8.84-23.35,27.66-36.75,18.83-13.4,41.49-20.29,68.39-20.29,23.44,0,42.26,6.89,55.71,20.67,13.45,13.78,18.06,33.3,13.06,58.18l-26.13,142.01c-1.15,6.51-7.3,12.25-13.83,12.63h-28.43v.38ZM1130.2,1339.89c9.22,0,18.83-2.68,28.82-7.65,9.6-4.97,18.83-7.65,23.05-22.58l5.76-24.5c1.54-7.65,3.46-11.48-3.07-11.48h-17.29c-6.53,0-16.9.76-23.44,1.91,0,0-11.14,1.91-20.36,9.19-9.22,7.65-14.98,16.08-16.9,26.03-1.92,9.19-1.15,16.46,2.69,21.44,4.23,5.36,10.76,7.65,20.75,7.65Z"/>
      <path class="st1" d="M1450.24,1172.62c16.9-19.9,39.57-29.86,66.85-29.86,11.91,0,22.28,2.68,31.89,8.04,7.68,4.21,13.83,10.33,19.6,17.61,3.84,4.59,4.99-.77,4.99-.77l1.92-9.19c1.54-6.12,8.07-11.48,14.21-11.48h23.05c6.53,0,10.76,5.36,9.61,11.48l-40.34,201.72c-22.28,97.23-77.61,111.77-121.41,109.09-9.61-.77-20.75-1.53-32.66-4.59-9.99-2.68-15.37-4.21-23.05-8.42-1.54-.76-7.68-4.21-3.07-14.16,2.69-5.36,9.6-19.9,9.6-19.9,2.69-5.74,9.22-8.04,14.98-4.98,0,0,6.53,2.68,15.75,5.36,9.22,2.3,16.9,3.06,26.9,3.06,15.37,0,28.43-4.98,38.8-14.55,10.37-9.57,17.29-22.97,20.75-39.43l.38-1.15c1.15-6.13-1.92-8.42-6.91-4.21,0,0-7.3,5.36-16.14,9.19-9.22,3.83-18.83,5.74-28.82,5.74-24.59,0-43.42-11.1-56.1-33.68-12.68-22.2-14.98-54.35-8.45-86.89,0,.38,10.76-56.65,37.65-88.04ZM1463.3,1261.04c-.38,2.3-1.54,9.57-1.92,16.08,0,0-2.69,28.71,2.69,42.11,5.38,13.4,16.52,19.9,32.66,19.9,8.84,0,17.67-2.3,24.97-7.27,7.3-4.98,16.14-11.1,20.36-27.56l16.9-84.59c3.07-16.08-5.76-24.88-11.91-29.09-6.53-4.21-14.22-6.12-23.82-6.12-14.98,0-27.28,6.89-37.65,20.67-9.99,14.54-17.67,32.92-22.28,55.89Z"/>
      <path class="st1" d="M2018.86,1354.44c-16.14,18.37-38.42,26.79-64.93,26.79-11.53,0-21.9-2.3-31.12-6.51-6.92-3.45-13.06-7.66-18.06-13.01-1.54-1.92-5.76-1.53-6.53,3.44-1.15,4.98-17.67,88.8-17.67,88.8-1.15,6.51-7.68,11.48-14.22,11.48h-27.28c-6.53,0-10.76-5.36-9.6-11.48l59.17-294.74c1.15-6.51,7.68-11.48,14.21-11.48h24.21c6.53,0,10.76,4.98,9.99,11.1-1.15,6.12,1.92,7.66,6.92,3.44,0,0,8.45-7.27,18.06-11.87,9.99-4.59,20.36-6.89,31.5-6.89,24.97,0,43.42,12.25,55.32,36.36,11.91,24.5,13.45,58.95,6.53,94.55-.38-.38-9.99,49.76-36.5,80ZM2004.26,1274.06c.38-2.3,1.54-9.57,1.92-16.08,0,0,3.46-33.3-1.92-48.99-5.38-15.69-16.14-23.35-32.66-23.35-24.2,0-40.73,17.61-44.57,32.92l-17.29,86.13c-2.69,17.99,4.61,26.79,11.14,30.24,6.53,3.83,14.6,5.36,24.97,5.36,14.98,0,27.28-5.74,37.27-17.61,9.99-12.25,16.9-28.33,21.13-48.61Z"/>
      <path class="st0" d="M2373.09,1281.33c.77,6.51,3.45,6.89,6.52,1.15l63.41-124.79c3.07-5.74,10.75-10.34,17.27-10.34h32.27c6.55,0,9.23,4.59,6.16,10.34l-130.25,243.83c-3.07,5.74-8.45,14.93-11.91,20.29,0,0-13.07,19.9-26.11,31-22.3,19.52-49.95,17.99-65.71,14.93-8.84-1.92-5.38-9.19-5.38-9.19l7.3-21.82c1.92-6.12,9.22-10.72,15.38-9.95h2.68c7.68,0,15.36-3.44,22.27-10.33,6.93-6.89,12.68-14.16,16.52-21.43l6.16-10.34c5.75-12.25,5-15.31,4.23-21.82l-28.82-203.64c-.77-6.51,3.84-11.48,9.98-11.48h31.89c6.55,0,12.3,5.36,13.07,11.48l13.07,122.1Z"/>
      <path class="st0" d="M1401.83,1194.06c-38.42,0-53.02,18.37-57.63,40.19l-27.28,131.29c-1.15,6.51-7.68,11.48-14.22,11.48h-27.28c-6.53,0-10.76-4.98-9.6-11.48l41.49-206.7c1.15-6.51,7.68-11.48,14.22-11.48h26.89c6.53,0,10.76,4.98,9.22,11.48l-1.54,7.66c-1.54,6.12,1.15,7.66,5.38,2.68,0,0,26.51-24.5,59.55-24.5,6.53,0,3.84,5.36,3.84,5.36l-12.68,38.28s-1.54,5.74-10.38,5.74Z"/>
      <path class="st1" d="M1756.45,1376.64c-6.53,0-10.76-4.98-9.99-11.1l1.54-11.1s-.38-4.59-4.23-1.15c-5.76,4.98-16.52,14.16-25.36,18.76-11.53,6.13-23.44,9.19-35.35,9.19-20.36,0-35.73-6.51-45.72-19.14-10.37-12.63-13.45-29.47-9.22-50.14,4.61-23.73,16.14-41.34,34.58-52.82,18.44-11.48,42.65-17.61,73-17.61h21.9c10.38,0,11.91-1.91,13.83-9.95,1.15-5.36,2.3-15.31,2.69-21.82,0,0,.77-10.72-4.23-17.22-5-6.51-13.45-9.57-25.36-9.57-30.74,0-35.35,17.61-39.57,24.88-2.3,4.21-3.84,5.36-9.99,5.36h-28.82c-6.53,0-9.22-5.74-6.53-13.4,0,0,8.84-23.35,27.66-36.75,18.83-13.4,41.5-20.29,68.39-20.29,23.44,0,42.26,6.89,55.71,20.67,13.45,13.78,18.06,33.3,13.06,58.18l-26.12,142.01c-1.15,6.51-7.3,12.25-13.83,12.63h-28.05v.38ZM1703.04,1339.89c9.22,0,18.83-2.68,28.82-7.65,9.6-4.97,18.83-7.65,23.05-22.58l5.76-24.5c1.54-7.65,3.46-11.48-3.08-11.48h-17.29c-6.53,0-16.9.76-23.44,1.91,0,0-11.14,1.91-20.36,9.19-9.22,7.65-14.98,16.08-16.9,26.03-1.92,9.19-1.15,16.46,2.69,21.44,4.23,5.36,10.76,7.65,20.75,7.65Z"/>
      <path class="st1" d="M2203.66,1376.64c-6.53,0-10.76-4.98-9.6-11.1l1.54-11.1s-.38-4.59-4.23-1.15c-5.76,4.98-16.52,14.16-25.36,18.76-11.53,6.13-23.44,9.19-35.35,9.19-20.36,0-35.73-6.51-45.72-19.14-10.37-12.63-13.45-29.47-9.22-50.14,4.61-23.73,16.14-41.34,34.58-52.82,18.44-11.48,42.65-17.61,73-17.61h21.9c10.37,0,11.91-1.91,13.83-9.95,1.15-5.36,2.3-15.31,2.69-21.82,0,0,.77-10.72-4.22-17.22-5-6.51-13.45-9.57-25.36-9.57-30.74,0-35.35,17.61-39.57,24.88-2.3,4.21-3.84,5.36-9.99,5.36h-28.82c-6.53,0-9.22-5.74-6.53-13.4,0,0,8.84-23.35,27.66-36.75,18.83-13.4,41.49-20.29,68.39-20.29,23.44,0,42.26,6.89,55.71,20.67,13.45,13.78,18.06,33.3,13.06,58.18l-26.13,142.01c-1.15,6.51-7.3,12.25-13.83,12.63h-28.43v.38ZM2150.26,1339.89c9.22,0,18.83-2.68,28.82-7.65,9.99-4.97,18.82-7.65,23.05-22.58l5.76-24.5c1.54-7.65,3.46-11.48-3.07-11.48h-17.29c-6.53,0-16.9.76-23.44,1.91,0,0-11.14,1.91-20.36,9.19-9.22,7.65-14.98,16.08-16.9,26.03-1.92,9.19-1.15,16.46,3.07,21.44,3.46,5.36,10.37,7.65,20.36,7.65Z"/>
      <path class="st0" d="M299.93,1164.58c-8.84-8.8-19.6-14.55-32.66-17.99-2.3-1.15-3.84-3.06-3.07-6.51l1.92-10.72c1.15-6.51-3.07-11.48-9.6-11.48h-14.6c-6.53,0-12.68,5.36-13.83,11.48l-1.92,9.57c-.77,4.21-3.46,5.74-6.92,6.89-15.37,2.68-29.2,8.8-40.73,17.61-17.29,13.01-27.28,29.47-30.35,49.38-3.07,17.99,1.15,32.54,12.68,43.25,11.53,10.72,29.58,18.76,54.17,24.5,16.14,3.83,26.89,8.42,31.89,13.4,4.99,4.98,6.92,11.87,5.76,19.52-1.54,8.42-5.76,15.31-13.06,20.29-7.3,4.97-16.91,7.65-28.05,7.65s-20.75-3.06-28.05-9.19c-4.99-4.21-7.68-10.33-8.45-17.99-.77-2.68-1.92-10.33-9.99-10.33h-28.43c-8.84,0-10.37,7.27-10.37,10.33-.77,15.7,4.61,29.86,16.52,42.87,7.68,8.42,17.29,14.54,28.82,18.37h-.77c6.15,1.91,11.53,2.68,9.99,8.8l-1.92,10.72c-1.15,6.51,3.07,11.48,9.61,11.48h14.6c6.53,0,12.68-5.36,13.83-11.48l1.92-9.57c.77-4.59,3.84-6.13,7.68-6.89,16.52-2.68,31.12-8.04,43.42-16.84,17.67-12.25,28.43-29.09,31.5-50.53,3.07-18.37-1.15-33.3-12.3-44.02-11.14-10.72-29.97-19.14-56.09-24.88-16.52-3.83-26.89-7.65-31.5-12.25-4.61-4.59-6.53-11.1-4.99-19.14,1.15-8.04,5.38-14.55,12.29-20.29,6.92-5.74,15.37-8.42,26.13-8.42s19.21,3.44,24.59,9.95c3.46,4.21,4.61,8.42,5.38,12.63,1.92,8.42,6.92,11.87,12.3,11.87h25.74c10.37,0,12.3-6.51,11.91-13.01.39-14.16-5.38-29.47-14.98-39.04Z"/>
      <path class="st0" d="M439.4,1062c6.15-6.12,11.91-1.15,10.37,4.59l-45.34,226.6c-1.54,8.42-4.61,22.2-6.15,30.62,0,0-7.24,36.26-14.8,74.58l-1.02,5.16-.68,3.44c-3.16,16.06-6.28,32.04-8.87,45.44-6.53,32.54-21.52,55.5-46.87,70.05-13.83,8.04-31.12,12.25-47.64,12.25H32.52c-8.45,0-10.37-6.13-4.23-12.25l66.47-65.84c6.15-6.12,18.44-11.1,26.89-11.1h45.34c8.84,0,10.76,4.98,4.61,11.1l-15.37,15.31c-10.04,10.36-10.71,11.05-7.94,11.1h.42s.23,0,.23,0h112.57c8.45,0,22.28-2.3,30.35-5.36,0,0,26.13-9.57,30.74-33.68,6.15-31.39,64.55-317.7,64.55-317.7,1.54-8.42,8.07-20.29,14.22-26.41l38.04-37.89ZM417.5,989.27c8.45,0,10.37,6.12,4.22,12.25l-66.47,65.45c-6.15,6.12-18.44,11.1-26.9,11.1h-45.34c-8.84,0-10.76-4.98-4.61-11.1l15.37-15.31c10.04-10.36,10.71-11.05,7.94-11.1h-.42s-.23,0-.23,0h-112.19c-8.45,0-22.28,2.3-30.35,5.36,0,0-26.13,9.57-30.74,33.68-6.15,31.39-64.55,317.7-64.55,317.7-1.54,8.42-8.07,20.29-14.22,26.41l-38.42,37.9c-6.15,6.12-11.91,1.15-10.37-4.59l45.34-226.22c1.54-8.42,4.61-22.2,6.15-30.62,0,0,7.46-37.35,15.14-76.29l.68-3.44.68-3.44,1.01-5.16c2.81-14.3,5.55-28.32,7.85-40.28,6.53-32.54,21.52-55.5,46.87-70.05,13.83-8.04,31.12-12.25,47.64-12.25h245.89Z"/>
    </g>
  </g>
</svg>