<?xml version="1.0" encoding="UTF-8" standalone="no"?>
<svg
   width="2500"
   height="2500"
   viewBox="-0.505 1.958 2317.999 2318.0678"
   version="1.1"
   id="svg6"
   sodipodi:docname="santander-fundo-vermelho.svg"
   inkscape:version="1.2.2 (732a01da63, 2022-12-09)"
   xmlns:inkscape="http://www.inkscape.org/namespaces/inkscape"
   xmlns:sodipodi="http://sodipodi.sourceforge.net/DTD/sodipodi-0.dtd"
   xmlns="http://www.w3.org/2000/svg"
   xmlns:svg="http://www.w3.org/2000/svg">
  <defs
     id="defs10" />
  <sodipodi:namedview
     id="namedview8"
     pagecolor="#505050"
     bordercolor="#eeeeee"
     borderopacity="1"
     inkscape:showpageshadow="0"
     inkscape:pageopacity="0"
     inkscape:pagecheckerboard="0"
     inkscape:deskcolor="#505050"
     showgrid="false"
     inkscape:zoom="0.1226"
     inkscape:cx="-546.49266"
     inkscape:cy="1655.7912"
     inkscape:window-width="1920"
     inkscape:window-height="1009"
     inkscape:window-x="-8"
     inkscape:window-y="-8"
     inkscape:window-maximized="1"
     inkscape:current-layer="svg6" />
  <path
     fill="#fe0000"
     d="M -9.8441186,2.3299192 H 2336.3097 V 2330.1195 H -9.8451296 V 2.3299192 Z"
     id="path2"
     style="stroke-width:1.78553" />
  <path
     fill="#ffffff"
     d="m 1208.3913,426.22029 c -4.8446,42.8137 -2.8183,88.71339 9.4959,125.78264 16.5827,49.91893 39.5195,85.90251 123.9758,195.77919 89.1186,115.94088 117.64,157.96262 138.8479,218.08769 17.3374,49.15299 17.6981,77.54789 10.2619,122.16489 78.0797,14.8723 206.0559,56.3289 291.8321,107.7723 79.5668,48.9299 137.4128,112.3827 158.5983,173.9318 12.53,36.4186 12.0206,92.8628 -1.279,128.1622 -12.7716,33.9014 -30.2837,62.2034 -56.1206,90.5129 -102.6934,112.4942 -306.0352,193.2955 -550.9749,219.0172 -54.1797,5.6887 -186.9561,9.7376 -232.4952,7.0867 -327.19838,-19.0403 -590.30829,-132.0886 -665.18297,-285.7121 -31.14264,-63.8878 -30.38042,-118.8893 2.43905,-182.0744 27.06019,-52.094 101.23588,-116.4726 188.46203,-163.7071 83.90962,-40.3969 162.68829,-70.584 247.13332,-94.3462 4.10476,55.1242 111.53491,186.893 147.09837,233.5437 77.5442,101.5035 108.2183,149.913 130.1327,188.6925 13.1621,23.2902 20.5982,38.1624 16.8801,82.4968 0,0 29.8413,-27.0156 41.0997,-49.9635 14.5675,-29.689 19.7653,-59.8239 16.9655,-98.5291 -3.3723,-46.6285 -11.2917,-75.1982 -33.5779,-120.8377 -21.6652,-44.3752 -52.7224,-89.2599 -111.7766,-161.7364 -83.38157,-102.3328 -114.25649,-158.5538 -126.9947,-231.56573 -14.13986,-81.04298 8.63705,-167.18346 55.3064,-209.14199 10.1504,-9.12787 26.4913,-18.01038 26.4913,-18.01038 0,0 -1.3942,20.88446 -1.3942,44.61696 0,50.19408 5.7258,76.32475 24.9818,114.56519 23.9145,47.47988 57.0054,91.87003 158.483,212.62955 89.8102,106.8725 117.6996,161.1713 117.6996,229.0114 0,15.9282 0.033,32.7005 0.033,32.7005 0,0 23.7214,-18.0922 34.7083,-34.6748 34.816,-52.5588 40.3337,-134.5462 13.8276,-207.1714 -18.1704,-49.7851 -47.6101,-95.0862 -134.6689,-204.49439 -88.6093,-111.37136 -125.7939,-200.60527 -125.7939,-274.96686 0,-74.36159 16.1366,-145.30254 85.5122,-189.62206 z"
     id="path4"
     sodipodi:nodetypes="cscscccccccccccccccccscccsccsccscscc"
     style="stroke-width:3.71808" />
</svg>
