<?xml version="1.0" encoding="UTF-8"?>
<svg id="Camada_1" xmlns="http://www.w3.org/2000/svg" version="1.1" xmlns:xlink="http://www.w3.org/1999/xlink" viewBox="0 0 2500 2500">
  <!-- Generator: Adobe Illustrator 29.6.0, SVG Export Plug-In . SVG Version: 2.1.1 Build 207)  -->
  <defs>
    <style>
      .st0 {
        fill: url(#Gradiente_sem_nome);
        fill-rule: evenodd;
      }

      .st1 {
        fill: #171527;
      }
    </style>
    <linearGradient id="Gradiente_sem_nome" data-name="Gradiente sem nome" x1="257.23" y1="1425.11" x2="257.23" y2="1078.89" gradientTransform="translate(0 2502) scale(1 -1)" gradientUnits="userSpaceOnUse">
      <stop offset="0" stop-color="#00ee26"/>
      <stop offset="1" stop-color="#ffc600"/>
    </linearGradient>
  </defs>
  <path class="st1" d="M257.23,1507.23c141.99,0,257.23-115.24,257.23-257.23s-115.24-257.23-257.23-257.23S0,1108.01,0,1250s115.24,257.23,257.23,257.23Z"/>
  <path class="st0" d="M257.23,1382.73c73.31,0,132.73-59.42,132.73-132.73s-59.42-132.73-132.73-132.73-132.73,59.42-132.73,132.73,59.42,132.73,132.73,132.73ZM430.34,1250c0,95.69-77.43,173.11-173.11,173.11s-173.11-77.42-173.11-173.11,77.43-173.11,173.11-173.11,173.11,77.43,173.11,173.11Z"/>
  <path class="st1" d="M843.71,1148.4c-22.64,0-52.22,10.8-64.31,36.27v-32.15h-27.78v194.98h27.78v-106.49c0-47.59,33.7-65.08,64.31-65.08s46.82,22.12,46.82,57.88v113.69h27.78v-113.44c.51-52.99-27.26-85.66-74.59-85.66Z"/>
  <path class="st1" d="M1280.48,1148.4c-22.64,0-52.22,10.8-64.31,36.27v-32.15h-27.78v194.98h27.78v-106.49c0-47.59,33.7-65.08,64.31-65.08s46.82,22.12,46.82,57.88v113.69h27.78v-113.44c.51-52.99-27.27-85.66-74.6-85.66Z"/>
  <path class="st1" d="M1406.78,1152.77v194.98h27.52l-.26-194.98h-27.27Z"/>
  <path class="st1" d="M1789.53,1249.49c0-61.73-39.62-100.83-94.92-100.83s-98,39.1-98,100.83,42.44,102.12,98.27,102.12c38.83,0,72.53-20.58,88.22-55.3-8.73-2.06-19.55-4.11-27.78-6.17-12.08,21.35-34.47,33.95-60.43,33.95-36.02,0-64.83-22.12-69.72-60.19h164.12c.25-3.6.25-10.29.25-14.4ZM1624.91,1236.37c5.4-37.04,33.96-60.45,69.71-60.45s61.22,23.15,66.62,60.45h-136.32Z"/>
  <path class="st1" d="M1129.75,1152.51h-27.52v194.98h27.52v-194.98Z"/>
  <path class="st1" d="M691.94,1152.51h-27.78v194.98h27.78v-194.98Z"/>
  <path class="st1" d="M1539.51,1062.74h-27.78v90.03h-31.64v27.78h31.64v167.2h27.78v-167.2h31.64v-27.78h-31.64v-90.03Z"/>
  <path class="st1" d="M1047.17,1062.74c-50.93,0-67.65,36.27-67.65,83.08v6.69h-31.64v27.52h31.64v167.71h27.78v-167.71h51.19v-27.27h-51.19v-6.69c-.51-25.72,2.83-56.59,39.61-56.59h20.58v-26.49l-20.32-.26Z"/>
  <path class="st1" d="M678.05,1062.74h-.77c-11.06.26-19.55,9.26-19.55,20.32s9,20.32,20.32,20.32,20.32-9,20.32-20.32c-.26-11.32-9.26-20.32-20.32-20.32Z"/>
  <path class="st1" d="M1420.41,1062.74c-11.06,0-20.06,9-20.32,20.32,0,11.32,9,20.32,20.32,20.32s20.32-9,20.32-20.32-9-20.32-20.32-20.32Z"/>
  <path class="st1" d="M1116.11,1062.48h-.51c-11.06.26-19.55,9.26-19.55,20.32s9,20.32,20.06,20.32,20.32-9,20.32-20.32c-.26-11.06-9.26-20.32-20.32-20.32Z"/>
  <path class="st1" d="M1943.37,1148.4c-25.47,0-50.17,11.32-60.45,30.61v-26.24h-50.42v289.64h50.42v-120.64c10.28,19.55,35.23,30.09,60.45,30.09,50.67,0,94.65-39.61,94.65-101.86s-43.98-101.6-94.65-101.6ZM1935.13,1303.25c-26.5,0-51.2-18.78-51.45-52.47,0-32.67,23.4-53.5,51.45-53.5s50.93,21.86,50.93,53.5-23.15,52.47-50.93,52.47Z"/>
  <path class="st1" d="M2219.1,1152.77v24.18c-14.13-21.86-42.7-28.55-60.18-28.55-50.93,0-98.78,39.1-98.78,101.6s47.6,101.6,98.78,101.6c19.03,0,47.58-8.75,60.18-28.81v24.95h50.42v-194.98h-50.42ZM2166.12,1302.22h-.77c-29.07.26-52.48-23.41-52.73-52.47,0-31.64,25.72-52.47,53.5-52.47s53.25,19.29,53.25,52.47c-.27,33.44-25.98,52.47-53.25,52.47Z"/>
  <path class="st1" d="M2446.5,1152.25l-48.37,121.15-48.1-121.15h-54.27l74.58,182.37-42.95,107.01h53.25l119.35-289.38h-53.5Z"/>
</svg>