<?xml version="1.0" encoding="UTF-8"?>
<svg id="Camada_1" xmlns="http://www.w3.org/2000/svg" version="1.1" viewBox="0 0 2500 2500">
  <!-- Generator: Adobe Illustrator 29.6.0, SVG Export Plug-In . SVG Version: 2.1.1 Build 207)  -->
  <defs>
    <style>
      .st0 {
        fill: #5064ff;
      }

      .st1 {
        fill: #233269;
      }
    </style>
  </defs>
  <path class="st1" d="M1397.49,1430.18c-19.11-2.49-36.71-6.3-52.77-11.45v-376.65h80.5v147.93h3.86c8.99-9.32,19.8-16.47,32.42-21.44,12.61-4.97,26.7-7.46,42.3-7.46,20.74,0,39.36,4.7,55.93,14.11,16.54,9.39,29.73,23.83,39.52,43.25,9.8,19.44,14.72,43.62,14.72,72.55,0,46.75-13.38,82.27-40.13,106.53-26.76,24.27-66.31,36.39-118.71,36.39-19.27,0-38.48-1.24-57.6-3.73l-.04-.02ZM1516.2,1354.98c11.82-12.29,17.72-31.6,17.72-57.96s-5.15-44.02-15.42-54.96c-10.28-10.92-24.83-16.38-43.61-16.38-9.32,0-18.28,1.49-26.87,4.46-8.6,2.97-16.19,7.35-22.78,13.14v125.58c11.1,3.06,23.47,4.59,37.13,4.59,24.09,0,42.05-6.15,53.86-18.44l-.03-.02Z"/>
  <path class="st1" d="M1925.36,1163.12h64.06l5.14,28.11h3.51c10.14-9.59,22.14-17,36.01-22.19,13.88-5.19,28.67-7.79,44.43-7.79,29.45,0,52.72,8.79,69.8,26.4,17.07,17.6,25.59,45.04,25.59,82.3v157.82h-78.09v-153.27c0-16.47-3.35-28.2-10.05-35.15-6.71-6.95-16.68-10.43-29.94-10.43-9.81,0-19.44,1.91-28.86,5.75-9.44,3.84-17.26,9.52-23.51,17.04v176.06h-78.1v-264.64h.03Z"/>
  <path class="st1" d="M1866.57,1204.86c-9.04-16.71-22.97-28.65-41.82-35.94-7.31-2.77-15.57-5.06-24.69-6.79l-5.71-29.2h-57.56l-5.5,25.72c-5.22.24-10.54.66-15.94,1.17-3.79.38-7.59.78-11.45,1.27-10.69,1.31-20.73,3.08-30.29,5.22-2.98.62-5.97,1.27-8.9,2.02-1.79.46-3.53.93-5.31,1.42v58.13c3.21-.89,6.49-1.73,9.77-2.49,2.9-.67,5.79-1.29,8.72-1.82,1.79-.33,3.53-.62,5.29-.91,7.26-1.26,14.36-2.35,21.28-3.31,11.4-1.38,21.93-2.09,31.56-2.09,16.12,0,28.94,1.51,38.34,4.59,9.46,3.08,16.29,8.25,20.56,15.46,4.29,7.26,6.43,17.18,6.43,29.78v.93l-48.15,3.66c-40.1,2.55-69.62,10.74-88.37,24.54-18.79,13.78-28.19,33.26-28.19,58.38,0,15.15,3.6,28.51,10.75,40.18,7.21,11.6,17.72,20.61,31.61,27.03,13.83,6.48,30.55,9.72,50.03,9.72.87,0,1.75,0,2.61-.04l5.33,26.4h56.84l12.46-56.6h1.62l9.64,26.4h62.63v-154.54c0-28.89-4.55-51.65-13.53-68.3l-.04.02ZM1801.29,1360.42c-6.48,5.95-13.79,10.36-21.93,13.07-8.11,2.77-16.44,4.11-25.01,4.11-12.39,0-21.77-2.62-28.15-7.88-6.38-5.22-9.55-12.6-9.55-22.08s3.43-17.18,10.28-22.52c6.82-5.32,18.06-8.61,33.74-9.92l40.62-3.13v48.35Z"/>
  <path class="st0" d="M1103.6,1416.46c-86.8-41.32-87.89-198.85-1.2-240.66,97.16-41.63,216.78-2.6,211.99,120.15,4.85,119.4-115.2,163.57-210.79,120.51ZM1219.94,1353.27c19.48-19.79,19.33-94.95,0-114.52-17.26-23.23-69.12-23.14-86.51-.13-19.68,19.55-19.42,95.05-.13,114.63,17.19,23.3,69.38,23.43,86.62,0l.02.02Z"/>
  <path class="st1" d="M2412.02,1427.74l-75.24-102.64h-37.26v102.64h-80.28v-385.66h80.28v218.36h36.79l71.73-99.49h85.99l-91.62,130.02,97.59,136.77h-87.98Z"/>
  <path class="st0" d="M377.44,1187.6c42.03,36.86,20.15,188.14,25.25,240.65h-80.06c-3.68-25.52,9.58-171.1-9.74-188.84-18.11-18.59-55.8-10.92-71.76,8.3,1.91,7.04.6,168.52.96,180.55h-78.61c-3.44-25.43,8.94-170.89-9.01-188.96-19.02-20.12-59.46-8.94-74.17,12.98v175.98H0v-265.06h65.86l5.3,28.24h3.6c37.59-38.65,117.11-44.37,149.3,3.84,38.5-40.14,115.56-47.86,153.37-7.7v.02Z"/>
  <path class="st0" d="M754,1375.4c31.28,64.55,130.36,75.84,178.1,24.96h3.6l8.47,28.33h63.59v-386.61h-80.48v119.7c-65.48-8.83-138.88,1.91-171.23,62.04-22.63,38.47-23.25,113.18-2.06,151.57l.02.02ZM836.41,1238.16c18.02-20.63,61.8-21.06,90.86-14.71v124.12c-22.34,24.39-71.62,27.2-93.26,3.26-21.23-20.06-20.66-93.03,2.4-112.67Z"/>
  <path class="st0" d="M645.1,1175.75c-11.76-5.86-24.92-10.03-39.47-12.54l-5.92-30.27h-57.13l-6.46,30.24c-66.96,9.43-105.39,64.61-103.26,132.73-2.08,67.56,37.12,122.84,103.11,133.02l5.68,29h56.89l6.17-28.89c36.83-6.34,69.01-25.83,86.82-58.89,31.64-60.31,21.59-163.15-46.44-194.39ZM613.93,1353.23c-17.26,23.43-69.43,23.3-86.62,0-19.3-19.59-19.55-95.1.13-114.64,17.39-23.01,69.23-23.1,86.51.13,19.33,19.57,19.46,94.74,0,114.53l-.02-.02Z"/>
</svg>