<?xml version="1.0" encoding="UTF-8"?>
<svg id="Camada_1" xmlns="http://www.w3.org/2000/svg" version="1.1" viewBox="0 0 2500 2500">
  <!-- Generator: Adobe Illustrator 29.6.0, SVG Export Plug-In . SVG Version: 2.1.1 Build 207)  -->
  <defs>
    <style>
      .st0 {
        fill: #5064ff;
      }
    </style>
  </defs>
  <path class="st0" d="M1821.43,333.81c-90.41-45.07-191.59-77.11-303.4-96.42l-45.49-232.73h-439.15l-49.67,232.45C468.99,309.6,173.57,733.78,189.94,1257.46c-15.95,519.34,285.35,944.36,792.66,1022.58l43.66,222.93h437.33l47.44-222.09c283.11-48.7,530.54-198.59,667.4-452.72,243.23-463.65,165.98-1254.2-357-1494.35ZM1581.85,1698.15c-132.67,180.11-533.76,179.12-665.86,0-148.35-150.58-150.31-731.08.98-881.25,133.65-176.89,532.22-177.59,665.02.98,148.63,150.44,149.6,728.28,0,880.41l-.14-.14Z"/>
</svg>