<?xml version="1.0" encoding="UTF-8" standalone="no"?>
<svg
   viewBox="0 0 2500 2500"
   version="1.1"
   id="svg6"
   sodipodi:docname="nubank-logo-2021.svg"
   width="2500"
   height="2500"
   inkscape:export-filename="C:\Users\alex\sites\nubank-logo-0.png"
   inkscape:export-xdpi="561.73712"
   inkscape:export-ydpi="561.73712"
   inkscape:version="1.2.2 (732a01da63, 2022-12-09)"
   xmlns:inkscape="http://www.inkscape.org/namespaces/inkscape"
   xmlns:sodipodi="http://sodipodi.sourceforge.net/DTD/sodipodi-0.dtd"
   xmlns="http://www.w3.org/2000/svg"
   xmlns:svg="http://www.w3.org/2000/svg"
   xmlns:rdf="http://www.w3.org/1999/02/22-rdf-syntax-ns#"
   xmlns:cc="http://creativecommons.org/ns#"
   xmlns:dc="http://purl.org/dc/elements/1.1/">
  <metadata
     id="metadata12">
    <rdf:RDF>
      <cc:Work
         rdf:about="">
        <dc:format>image/svg+xml</dc:format>
        <dc:type
           rdf:resource="http://purl.org/dc/dcmitype/StillImage" />
      </cc:Work>
    </rdf:RDF>
  </metadata>
  <defs
     id="defs10" />
  <sodipodi:namedview
     pagecolor="#ffffff"
     bordercolor="#666666"
     borderopacity="1"
     objecttolerance="10"
     gridtolerance="10"
     guidetolerance="10"
     inkscape:pageopacity="0"
     inkscape:pageshadow="2"
     inkscape:window-width="1920"
     inkscape:window-height="1009"
     id="namedview8"
     showgrid="false"
     inkscape:zoom="0.078101773"
     inkscape:cx="-2330.2928"
     inkscape:cy="1165.1464"
     inkscape:window-x="-8"
     inkscape:window-y="-8"
     inkscape:window-maximized="1"
     inkscape:current-layer="svg6"
     inkscape:showpageshadow="0"
     inkscape:pagecheckerboard="0"
     inkscape:deskcolor="#d1d1d1" />
  <path
     d="m 722.25373,929.4222 c 55.07737,-57.86383 128.13649,-91.6643 213.96728,-91.6643 167.20799,0 278.06849,122.08313 299.27839,304.9721 6.8768,59.3926 6.8137,143.1273 6.7447,240.114 -0.01,9.9458 -0.014,20.0328 -0.014,30.2459 v 363.3287 h -229.9427 v -268.7293 c 0,0 -0.4685,-229.9941 -1.8739,-272.9785 -6.1711,-187.2112 -117.0015,-304.84535 -288.18251,-304.97174 -51.64648,54.56536 -79.3194,121.28104 -83.40044,223.29114 -0.56092,14.228 -0.41981,64.6598 -0.23399,131.1274 0.0964,34.438 0.20475,73.1823 0.23399,113.425 0.17034,175.1599 0,378.875 0,378.875 H 408.88746 v -413.5713 c 0,-14.171 -0.25843,-28.4621 -0.51751,-42.8102 -0.52153,-28.8615 -1.04715,-57.9452 0.51751,-86.7437 2.59797,-48.0084 10.90296,-95.203 33.30501,-139.0456 51.27804,-100.44077 156.34697,-165.11081 268.3587,-165.11081 3.91291,0 7.82874,0.0902 11.70256,0.24054 z"
     class="Path-xrtkpd-0 eqfYiR"
     id="path2"
     inkscape:connector-curvature="0"
     style="fill:#820ad1;fill-opacity:1;stroke-width:30.0296"
     inkscape:export-filename="C:\Users\alex\sites\nubank-logo-5.png"
     inkscape:export-xdpi="132.76538"
     inkscape:export-ydpi="132.76538" />
  <path
     d="m 2148.5238,1403.132 c 1.5645,-28.7984 1.039,-57.8851 0.5195,-86.7436 -0.2612,-14.3482 -0.5195,-28.6392 -0.5195,-42.8102 V 860.00597 h -229.94 c 0,0 -0.1714,203.71513 0,378.87293 0.027,40.2427 0.1352,78.984 0.2312,113.422 0.1862,66.4706 0.3273,116.9024 -0.2312,131.1304 -4.0811,102.0138 -31.7564,168.7276 -83.4014,223.2945 -171.178,-0.1201 -282.0053,-117.7643 -288.1795,-304.9721 -1.4054,-42.9845 -1.9999,-149.6528 -1.9999,-273.1944 v -268.729 l -229.7719,0.20991 v 363.32959 c 0,10.2131 -0.01,20.297 -0.014,30.2458 -0.072,96.9868 -0.1322,180.7185 6.7446,240.1141 21.1649,182.8896 132.0254,304.9721 299.2334,304.9721 85.8338,0 158.8929,-33.8014 213.9703,-91.6655 3.8708,0.15 7.7837,0.2402 11.6965,0.2402 112.0106,0 217.0813,-64.6688 268.3599,-165.109 22.4021,-43.8462 30.7054,-91.0378 33.3029,-139.0462 z"
     class="Path-xrtkpd-0 eqfYiR"
     id="path4"
     inkscape:connector-curvature="0"
     style="fill:#820ad1;fill-opacity:1;stroke-width:30.0296"
     inkscape:export-filename="C:\Users\alex\sites\nubank-logo-5.png"
     inkscape:export-xdpi="132.76538"
     inkscape:export-ydpi="132.76538" />
  <rect
     style="opacity:1;vector-effect:none;fill:#820ad1;fill-opacity:1;fill-rule:evenodd;stroke:none;stroke-width:1.19458;stroke-linecap:butt;stroke-linejoin:miter;stroke-miterlimit:4;stroke-dasharray:none;stroke-dashoffset:0;stroke-opacity:1;paint-order:fill markers stroke"
     id="rect833"
     width="2496.7039"
     height="2503.8577"
     x="59.794647"
     y="2665.6523"
     inkscape:export-filename="C:\Users\alex\sites\nubank-logo-4.png"
     inkscape:export-xdpi="92.618095"
     inkscape:export-ydpi="92.618095" />
  <path
     d="m 815.91369,3572.0357 c 48.72026,-51.4256 113.34686,-81.4651 189.27191,-81.4651 147.9085,0 245.9733,108.4992 264.7353,271.0381 6.083,52.7843 6.0274,127.202 5.9664,213.397 0,8.8394 0,17.8038 0,26.8806 v 322.9015 h -203.4032 v -238.8282 c 0,0 -0.4148,-204.4027 -1.6581,-242.6044 -5.4581,-166.3806 -103.49626,-270.9258 -254.92026,-271.038 -45.6851,48.494 -70.1647,107.786 -73.77449,198.4458 -0.49593,12.6449 -0.37133,57.4652 -0.20853,116.537 0.0853,30.6063 0.18341,65.0394 0.20853,100.8045 0.15485,155.6702 0,336.718 0,336.718 h -203.4035 v -367.5538 c 0,-12.594 -0.23055,-25.295 -0.45766,-38.0469 -0.46087,-25.6501 -0.92576,-51.4977 0.45766,-77.0917 2.29874,-42.6665 9.64508,-84.61 29.46176,-123.574 45.35891,-89.2651 138.30123,-146.7393 237.38472,-146.7393 3.46093,0 6.92495,0.079 10.35147,0.2134 z"
     class="Path-xrtkpd-0 eqfYiR"
     id="path2-6"
     inkscape:connector-curvature="0"
     style="fill:#ffffff;stroke-width:26.6259"
     inkscape:export-filename="C:\Users\alex\sites\nubank-logo-4.png"
     inkscape:export-xdpi="92.618095"
     inkscape:export-ydpi="92.618095" />
  <path
     d="m 2077.5645,3993.0366 c 1.384,-25.5944 0.9192,-51.4444 0.4597,-77.0921 -0.2312,-12.7515 -0.4597,-25.4525 -0.4597,-38.0468 v -367.5545 h -203.4004 c 0,0 -0.1524,181.0481 0,336.7163 0.034,35.7651 0.1191,70.1954 0.2041,100.8017 0.1644,59.0745 0.2894,103.8948 -0.2041,116.5397 -3.6101,90.6629 -28.0909,149.9536 -73.7751,198.449 -151.4208,-0.1067 -249.4565,-104.6612 -254.9182,-271.0384 -1.243,-38.2017 -1.7693,-133.0011 -1.7693,-242.7964 v -238.828 l -203.2515,0.1861 v 322.9027 c 0,9.0765 0,18.0385 0,26.8803 -0.066,86.1954 -0.1135,160.6102 5.9664,213.3969 18.7219,162.5397 116.7867,271.0384 264.6959,271.0384 75.9273,0 140.5535,-30.0402 189.2739,-81.466 3.4241,0.1342 6.8854,0.2133 10.3466,0.2133 99.0824,0 192.0259,-57.4731 237.3858,-146.7375 19.8168,-38.9677 27.1614,-80.9082 29.4592,-123.5747 z"
     class="Path-xrtkpd-0 eqfYiR"
     id="path4-5"
     inkscape:connector-curvature="0"
     style="fill:#ffffff;stroke-width:26.6259"
     inkscape:export-filename="C:\Users\alex\sites\nubank-logo-4.png"
     inkscape:export-xdpi="92.618095"
     inkscape:export-ydpi="92.618095" />
</svg>
