<?xml version="1.0" encoding="UTF-8" standalone="no"?>
<svg
   viewBox="0 0 2500 2500"
   version="1.1"
   id="svg6"
   sodipodi:docname="nubank-logo-fundo-roxo2021.svg"
   width="2500"
   height="2500"
   inkscape:export-filename="C:\Users\alex\sites\nubank-logo-0.png"
   inkscape:export-xdpi="561.73712"
   inkscape:export-ydpi="561.73712"
   inkscape:version="1.2.2 (732a01da63, 2022-12-09)"
   xmlns:inkscape="http://www.inkscape.org/namespaces/inkscape"
   xmlns:sodipodi="http://sodipodi.sourceforge.net/DTD/sodipodi-0.dtd"
   xmlns="http://www.w3.org/2000/svg"
   xmlns:svg="http://www.w3.org/2000/svg"
   xmlns:rdf="http://www.w3.org/1999/02/22-rdf-syntax-ns#"
   xmlns:cc="http://creativecommons.org/ns#"
   xmlns:dc="http://purl.org/dc/elements/1.1/">
  <metadata
     id="metadata12">
    <rdf:RDF>
      <cc:Work
         rdf:about="">
        <dc:format>image/svg+xml</dc:format>
        <dc:type
           rdf:resource="http://purl.org/dc/dcmitype/StillImage" />
      </cc:Work>
    </rdf:RDF>
  </metadata>
  <defs
     id="defs10" />
  <sodipodi:namedview
     pagecolor="#ffffff"
     bordercolor="#666666"
     borderopacity="1"
     objecttolerance="10"
     gridtolerance="10"
     guidetolerance="10"
     inkscape:pageopacity="0"
     inkscape:pageshadow="2"
     inkscape:window-width="1920"
     inkscape:window-height="1009"
     id="namedview8"
     showgrid="false"
     inkscape:zoom="0.078101773"
     inkscape:cx="-3661.8887"
     inkscape:cy="1818.1406"
     inkscape:window-x="-8"
     inkscape:window-y="-8"
     inkscape:window-maximized="1"
     inkscape:current-layer="svg6"
     inkscape:showpageshadow="0"
     inkscape:pagecheckerboard="0"
     inkscape:deskcolor="#d1d1d1" />
  <path
     d="m -4604.1299,916.61839 c 55.0774,-57.86383 128.1365,-91.6643 213.9673,-91.6643 167.208,0 278.0685,122.08313 299.2784,304.97211 6.8768,59.3926 6.8137,143.1273 6.7447,240.114 -0.01,9.9458 -0.014,20.0328 -0.014,30.2459 v 363.3287 h -229.9427 v -268.7293 c 0,0 -0.4685,-229.9941 -1.8739,-272.9785 -6.1711,-187.2112 -117.0015,-304.84536 -288.1825,-304.97175 -51.6465,54.56536 -79.3194,121.28105 -83.4004,223.29115 -0.561,14.228 -0.4199,64.6598 -0.234,131.1274 0.096,34.438 0.2047,73.1823 0.234,113.425 0.1703,175.1599 0,378.875 0,378.875 h -229.9431 v -413.5713 c 0,-14.171 -0.2585,-28.4621 -0.5175,-42.8102 -0.5216,-28.8615 -1.0472,-57.9452 0.5175,-86.7437 2.5979,-48.0084 10.9029,-95.203 33.305,-139.0456 51.278,-100.44078 156.3469,-165.11082 268.3587,-165.11082 3.9129,0 7.8287,0.0902 11.7025,0.24054 z"
     class="Path-xrtkpd-0 eqfYiR"
     id="path2"
     inkscape:connector-curvature="0"
     style="fill:#820ad1;fill-opacity:1;stroke-width:30.0296"
     inkscape:export-filename="C:\Users\alex\sites\nubank-logo-5.png"
     inkscape:export-xdpi="132.76538"
     inkscape:export-ydpi="132.76538" />
  <path
     d="m -3177.8598,1390.3282 c 1.5645,-28.7984 1.039,-57.8851 0.5195,-86.7436 -0.2612,-14.3482 -0.5195,-28.6392 -0.5195,-42.8102 V 847.20216 h -229.94 c 0,0 -0.1714,203.71514 0,378.87294 0.027,40.2427 0.1352,78.984 0.2312,113.422 0.1862,66.4706 0.3273,116.9024 -0.2312,131.1304 -4.0811,102.0138 -31.7564,168.7276 -83.4014,223.2945 -171.178,-0.1201 -282.0053,-117.7643 -288.1795,-304.9721 -1.4054,-42.9845 -1.9999,-149.6528 -1.9999,-273.1944 V 847.02649 l -229.7719,0.20991 v 363.3296 c 0,10.2131 -0.01,20.297 -0.014,30.2458 -0.072,96.9868 -0.1322,180.7185 6.7446,240.1141 21.1649,182.8896 132.0254,304.9721 299.2334,304.9721 85.8338,0 158.8929,-33.8014 213.9703,-91.6655 3.8708,0.15 7.7837,0.2402 11.6965,0.2402 112.0106,0 217.0813,-64.6688 268.3599,-165.109 22.4021,-43.8462 30.7054,-91.0378 33.3029,-139.0462 z"
     class="Path-xrtkpd-0 eqfYiR"
     id="path4"
     inkscape:connector-curvature="0"
     style="fill:#820ad1;fill-opacity:1;stroke-width:30.0296"
     inkscape:export-filename="C:\Users\alex\sites\nubank-logo-5.png"
     inkscape:export-xdpi="132.76538"
     inkscape:export-ydpi="132.76538" />
  <rect
     style="opacity:1;vector-effect:none;fill:#820ad1;fill-opacity:1;fill-rule:evenodd;stroke:none;stroke-width:1.20912;stroke-linecap:butt;stroke-linejoin:miter;stroke-miterlimit:4;stroke-dasharray:none;stroke-dashoffset:0;stroke-opacity:1;paint-order:fill markers stroke"
     id="rect833"
     width="2527.0901"
     height="2534.3311"
     x="-22.343828"
     y="-3.9734561"
     inkscape:export-filename="C:\Users\alex\sites\nubank-logo-4.png"
     inkscape:export-xdpi="92.618095"
     inkscape:export-ydpi="92.618095" />
  <path
     d="m 742.97757,913.44105 c 49.31321,-52.05148 114.72635,-82.45657 191.57545,-82.45657 149.70868,0 248.96698,109.81969 267.95728,274.33672 6.1571,53.4267 6.1008,128.7502 6.0391,215.9942 0,8.947 0,18.0204 0,27.2078 v 326.8314 h -205.8788 v -241.7349 c 0,0 -0.4198,-206.8904 -1.6783,-245.557 -5.52448,-168.4056 -104.75587,-274.22315 -258.02277,-274.33672 -46.24112,49.0842 -71.01865,109.09782 -74.67237,200.86102 -0.50196,12.7988 -0.37585,58.1645 -0.21107,117.9552 0.0864,30.9788 0.18564,65.831 0.21107,102.0314 0.15674,157.5648 0,340.8161 0,340.8161 H 462.41813 v -372.0271 c 0,-12.7473 -0.23335,-25.6029 -0.46323,-38.51 -0.46647,-25.9623 -0.93702,-52.1244 0.46323,-78.0299 2.32672,-43.1858 9.76247,-85.6398 29.82033,-125.0781 45.91095,-90.35142 139.98443,-148.52511 240.27381,-148.52511 3.50306,0 7.00923,0.08 10.47745,0.21599 z"
     class="Path-xrtkpd-0 eqfYiR"
     id="path2-6"
     inkscape:connector-curvature="0"
     style="fill:#ffffff;stroke-width:26.95"
     inkscape:export-filename="C:\Users\alex\sites\nubank-logo-4.png"
     inkscape:export-xdpi="92.618095"
     inkscape:export-ydpi="92.618095" />
  <path
     d="m 2019.9834,1339.5658 c 1.4008,-25.9059 0.9304,-52.0706 0.4652,-78.0304 -0.2339,-12.9067 -0.4652,-25.7623 -0.4652,-38.5098 V 850.99772 h -205.8759 c 0,0 -0.1543,183.25158 0,340.81428 0.034,36.2004 0.1206,71.0498 0.2066,102.0285 0.1664,59.7935 0.2929,105.1593 -0.2066,117.958 -3.654,91.7664 -28.4328,151.7787 -74.673,200.8643 -153.2636,-0.1079 -252.4925,-105.935 -258.0207,-274.337 -1.2581,-38.6667 -1.7908,-134.6198 -1.7908,-245.7514 V 850.83972 l -205.7252,0.18837 v 326.83261 c 0,9.187 0,18.258 0,27.2074 -0.067,87.2445 -0.1148,162.5649 6.039,215.9941 18.9497,164.5179 118.2081,274.337 267.9174,274.337 76.8513,0 142.2641,-30.4058 191.5775,-82.4574 3.4658,0.1358 6.9692,0.2159 10.4725,0.2159 100.2882,0 194.363,-58.1726 240.2749,-148.5234 20.058,-39.442 27.492,-81.8929 29.8177,-125.0787 z"
     class="Path-xrtkpd-0 eqfYiR"
     id="path4-5"
     inkscape:connector-curvature="0"
     style="fill:#ffffff;stroke-width:26.95"
     inkscape:export-filename="C:\Users\alex\sites\nubank-logo-4.png"
     inkscape:export-xdpi="92.618095"
     inkscape:export-ydpi="92.618095" />
</svg>
