<?xml version="1.0" encoding="UTF-8" standalone="no"?>
<!-- Generator: Adobe Illustrator 23.0.0, SVG Export Plug-In . SVG Version: 6.00 Build 0)  -->

<svg
   version="1.1"
   id="Camada_1"
   x="0px"
   y="0px"
   viewBox="0 0 2500 2500.0001"
   xml:space="preserve"
   sodipodi:docname="unicred-centralizada.svg"
   width="2500"
   height="2500"
   inkscape:version="1.2.2 (732a01da63, 2022-12-09)"
   xmlns:inkscape="http://www.inkscape.org/namespaces/inkscape"
   xmlns:sodipodi="http://sodipodi.sourceforge.net/DTD/sodipodi-0.dtd"
   xmlns="http://www.w3.org/2000/svg"
   xmlns:svg="http://www.w3.org/2000/svg"><defs
   id="defs7372" /><sodipodi:namedview
   id="namedview7370"
   pagecolor="#505050"
   bordercolor="#eeeeee"
   borderopacity="1"
   inkscape:showpageshadow="0"
   inkscape:pageopacity="0"
   inkscape:pagecheckerboard="0"
   inkscape:deskcolor="#505050"
   showgrid="false"
   inkscape:zoom="0.21672823"
   inkscape:cx="922.81472"
   inkscape:cy="1453.4332"
   inkscape:window-width="1920"
   inkscape:window-height="1009"
   inkscape:window-x="-8"
   inkscape:window-y="-8"
   inkscape:window-maximized="1"
   inkscape:current-layer="Camada_1" />
<style
   type="text/css"
   id="style7361">
	.st0{fill:#004A35;}
	.st1{fill:#B9A557;}
</style>

<path
   class="st1"
   d="m 2491.6269,1449.7615 -603.7135,-1037.5963 -3.4897,-8.14258 c -17.4484,-22.10126 -39.5496,-34.89673 -65.1406,-34.89673 h -789.8294 c -17.4484,4.6529 -30.24384,17.44837 -47.69221,34.89673 L 13.958694,1441.6189 c 0,0 -4.6528979,0 -4.6528979,4.6529 l -4.652898,4.6529 C 0,1455.5776 0,1463.7202 0,1473.026 c 0,22.1012 17.448368,34.8967 34.896735,39.5496 H 494.37042 c 8.14257,0 12.79547,4.6529 12.79547,12.7955 0,4.6529 0,4.6529 -4.6529,8.1425 l -464.126581,494.3705 -4.652898,4.6529 c -4.652898,4.6529 -4.652898,8.1425 -8.142572,12.7954 v 8.1426 c 0,8.1426 4.652898,17.4484 12.79547,25.5909 4.652898,4.6529 12.79547,4.6529 22.101266,8.1426 H 376.88474 c 17.44837,0 39.54964,-8.1426 52.34511,-22.1013 L 920.11059,1540.493 c 4.6529,-4.6529 4.6529,-4.6529 4.6529,-8.1426 0,-8.1426 -4.6529,-12.7955 -12.79547,-12.7955 H 646.75283 c -8.14257,0 -12.79547,-8.1425 -12.79547,-12.7954 0,-4.6529 0,-4.6529 4.6529,-8.1426 l 516.47164,-551.36843 4.6529,-4.6529 c 8.1426,-8.14257 17.4484,-12.79546 25.591,-12.79546 12.7954,0 22.1012,4.65289 30.2438,17.44836 l 290.8061,503.67623 30.2439,52.3451 v 8.1426 c 0,8.1425 -4.6529,12.7954 -12.7955,12.7954 h -268.7049 c -8.1425,0 -17.4483,8.1426 -17.4483,17.4484 0,4.6529 0,8.1426 4.6529,12.7955 l 290.8061,503.6762 v 4.6529 c 12.7955,22.1013 34.8967,34.8967 55.8348,34.8967 h 611.8561 c 8.1426,0 12.7954,0 22.1012,-4.6529 17.4484,-8.1425 25.591,-22.1012 25.591,-39.5496 0,-4.6529 0,-12.7955 -4.6529,-17.4484 l -4.6529,-8.1425 -281.5003,-486.2279 v -4.6529 c 0,-8.1426 4.6529,-12.7955 12.7954,-12.7955 h 503.6762 c 0,0 4.6529,0 4.6529,-4.6529 l 4.6529,-4.6529 c 0,0 0,-4.6529 4.6529,-4.6529 0,0 0,-4.6529 4.6529,-4.6529 0,0 0,-4.6528 4.6529,-4.6528 v -3.4897 c 2.3265,-17.4484 2.3265,-30.2439 -5.8161,-47.6922 M 1558.7208,898.39304 H 825.8894 c -8.14257,0 -12.79547,-8.14257 -12.79547,-12.79547 0,-4.65289 0,-8.14257 4.6529,-8.14257 L 1251.6296,413.32842 c 4.6529,-4.6529 8.1425,-4.6529 12.7954,-8.14257 4.6529,-4.6529 12.7955,-8.14257 22.1013,-8.14257 h 4.6529 c 8.1426,0 22.1013,8.14257 25.5909,17.44836 l 262.8888,458.31046 c 0,4.6529 4.6529,4.6529 4.6529,8.14258 -8.1426,9.30579 -17.4484,17.44836 -25.591,17.44836"
   id="path7365"
   sodipodi:nodetypes="cccsccccsscssccscsscsccssssccsscccsssscccsscscccsscccccccccsscccsscccc"
   style="stroke-width:11.6322" />

</svg>
