<?xml version="1.0" encoding="UTF-8" standalone="no"?>
<!-- Generator: Adobe Illustrator 23.0.0, SVG Export Plug-In . SVG Version: 6.00 Build 0)  -->

<svg
   version="1.1"
   id="Camada_1"
   x="0px"
   y="0px"
   viewBox="0 0 2500 2500.0001"
   xml:space="preserve"
   sodipodi:docname="verde.svg"
   width="2500"
   height="2500"
   inkscape:version="1.2.2 (732a01da63, 2022-12-09)"
   xmlns:inkscape="http://www.inkscape.org/namespaces/inkscape"
   xmlns:sodipodi="http://sodipodi.sourceforge.net/DTD/sodipodi-0.dtd"
   xmlns="http://www.w3.org/2000/svg"
   xmlns:svg="http://www.w3.org/2000/svg"><defs
   id="defs13" /><sodipodi:namedview
   id="namedview11"
   pagecolor="#505050"
   bordercolor="#eeeeee"
   borderopacity="1"
   inkscape:showpageshadow="0"
   inkscape:pageopacity="0"
   inkscape:pagecheckerboard="0"
   inkscape:deskcolor="#505050"
   showgrid="false"
   inkscape:zoom="0.15325"
   inkscape:cx="763.4584"
   inkscape:cy="1259.3801"
   inkscape:window-width="1366"
   inkscape:window-height="697"
   inkscape:window-x="1912"
   inkscape:window-y="-8"
   inkscape:window-maximized="1"
   inkscape:current-layer="Camada_1" />
<style
   type="text/css"
   id="style2">
	.st0{fill:#004A35;}
	.st1{fill:#B9A557;}
</style>



<path
   style="fill:#004a35;fill-opacity:1;fill-rule:evenodd;stroke:#000000;stroke-width:50.4667;stroke-opacity:0"
   d="M -63.736494,2527.8499 -41.977337,-2.2597586 H 4309.8445 V 2567.3828 Z"
   id="path22408" /><path
   class="st1"
   d="m 2411.6262,1413.9981 -540.8202,-929.50204 -3.1261,-7.2943 c -15.6305,-19.79881 -35.4294,-31.26128 -58.3544,-31.26128 h -707.547 c -15.6305,4.16817 -27.0931,15.63064 -42.7236,31.26128 L 192.07543,1406.7038 c 0,0 -4.16819,0 -4.16819,4.1682 l -4.16815,4.1681 c -4.16818,4.1682 -4.16818,11.4625 -4.16818,19.7988 0,19.7988 15.63064,31.2613 31.26128,35.4295 h 411.60678 c 7.29445,0 11.46259,4.1681 11.46259,11.4624 0,4.1682 0,4.1682 -4.16814,7.2943 l -415.77509,442.8681 -4.16818,4.1683 c -4.16816,4.1681 -4.16816,7.2942 -7.29429,11.4624 v 7.2942 c 0,7.2943 4.16817,15.6308 11.46247,22.925 4.16816,4.1682 11.46247,4.1682 19.79881,7.2943 h 283.43567 c 15.63052,0 35.42939,-7.2943 46.89178,-19.7988 l 439.74211,-469.9612 c 4.1681,-4.1682 4.1681,-4.1682 4.1681,-7.2943 0,-7.2943 -4.1681,-11.4624 -11.46264,-11.4624 H 758.9466 c -7.29425,0 -11.46239,-7.2944 -11.46239,-11.4625 0,-4.1683 0,-4.1683 4.16814,-7.2943 l 462.66675,-493.92822 4.1682,-4.16818 c 7.2945,-7.29429 15.6307,-11.46247 22.925,-11.46247 11.4626,0 19.7988,4.16818 27.0931,15.63065 l 260.5106,451.20442 27.0931,46.8919 v 7.2943 c 0,7.2944 -4.1681,11.4625 -11.4623,11.4625 h -240.7121 c -7.2942,0 -15.6305,7.2943 -15.6305,15.6306 0,4.1682 0,7.2943 4.1682,11.4625 l 260.5106,451.2045 v 4.1682 c 11.4625,19.7988 31.2613,31.2612 50.0181,31.2612 h 548.1144 c 7.2943,0 11.4626,0 19.7989,-4.1681 15.6305,-7.2943 22.9249,-19.7988 22.9249,-35.4296 0,-4.1681 0,-11.4624 -4.1683,-15.6306 l -4.1681,-7.2943 -252.1744,-435.5738 v -4.1681 c 0,-7.2943 4.1684,-11.4625 11.4626,-11.4625 h 451.2045 c 0,0 4.1681,0 4.1681,-4.1681 l 4.1682,-4.1683 c 0,0 0,-4.1682 4.1681,-4.1682 0,0 0,-4.1681 4.1682,-4.1681 0,0 0,-4.1682 4.1682,-4.1682 v -3.1261 c 2.0842,-15.6306 2.0842,-27.0931 -5.2102,-42.7237 M 1575.908,920.06988 H 919.42123 c -7.29424,0 -11.46259,-7.29429 -11.46259,-11.46247 0,-4.16816 0,-7.29429 4.16835,-7.29429 L 1300.8087,485.5381 c 4.1682,-4.16817 7.2942,-4.16817 11.4626,-7.2943 4.1681,-4.16817 11.4623,-7.2943 19.7987,-7.2943 h 4.168 c 7.2945,0 19.7989,7.2943 22.9251,15.63064 l 235.5017,410.5648 c 0,4.16818 4.1682,4.16818 4.1682,7.29431 -7.2944,8.33634 -15.6308,15.63063 -22.925,15.63063"
   id="path6"
   sodipodi:nodetypes="cccsccccsscssccscsscsccssssccsscccsssscccsscscccsscccccccccsscccsscccc"
   style="fill:#9b9815;fill-opacity:1;stroke-width:10.4205" /></svg>
