<?xml version="1.0" encoding="UTF-8" standalone="no"?>
<!-- Generator: Adobe Illustrator 16.0.0, SVG Export Plug-In . SVG Version: 6.00 Build 0)  -->

<svg
   version="1.1"
   id="Camada_1"
   x="0px"
   y="0px"
   width="2500"
   height="2500"
   viewBox="0 0 2500 2500"
   enable-background="new 0 0 142.222 40"
   xml:space="preserve"
   sodipodi:docname="logotribanco.svg"
   inkscape:version="1.2.2 (732a01da63, 2022-12-09)"
   xmlns:inkscape="http://www.inkscape.org/namespaces/inkscape"
   xmlns:sodipodi="http://sodipodi.sourceforge.net/DTD/sodipodi-0.dtd"
   xmlns:xlink="http://www.w3.org/1999/xlink"
   xmlns="http://www.w3.org/2000/svg"
   xmlns:svg="http://www.w3.org/2000/svg"><defs
   id="defs9844" /><sodipodi:namedview
   id="namedview9842"
   pagecolor="#505050"
   bordercolor="#eeeeee"
   borderopacity="1"
   inkscape:showpageshadow="0"
   inkscape:pageopacity="0"
   inkscape:pagecheckerboard="0"
   inkscape:deskcolor="#505050"
   showgrid="false"
   inkscape:zoom="0.067346297"
   inkscape:cx="4098.2209"
   inkscape:cy="1470.014"
   inkscape:window-width="1920"
   inkscape:window-height="1009"
   inkscape:window-x="-8"
   inkscape:window-y="-8"
   inkscape:window-maximized="1"
   inkscape:current-layer="Camada_1" />
<g
   id="g9814"
   transform="matrix(96.651569,0,0,96.651569,87.822138,-340.65399)">
	<defs
   id="defs9791">
		<rect
   id="SVGID_1_"
   y="-25"
   width="142.222"
   height="80"
   x="0" />
	</defs>
	<clipPath
   id="SVGID_2_">
		<use
   xlink:href="#SVGID_1_"
   overflow="visible"
   id="use9793" />
	</clipPath>
	<path
   clip-path="url(#SVGID_2_)"
   fill="#ffffff"
   d="m 11.997,15.573 v 7.987 c 0,1.252 0.676,1.914 1.956,1.914 0.665,0 1.511,-0.132 2.396,-0.374 l 0.536,3.562 c -1.113,0.438 -3.067,0.73 -4.251,0.73 -3.62,0 -5.379,-1.692 -5.379,-5.173 v -8.646 z"
   id="path9796" />
	
	
	
	
	
	
	
	
</g>
<g
   id="g9829"
   transform="matrix(96.651569,0,0,96.651569,87.822138,-340.65399)">
	<defs
   id="defs9817">
		<polygon
   id="SVGID_3_"
   points="11.997,3.531 7.255,4.192 7.255,13.938 17.663,13.938 17.002,9.197 11.997,9.197 " />
	</defs>
	<clipPath
   id="SVGID_4_">
		<use
   xlink:href="#SVGID_3_"
   overflow="visible"
   id="use9819" />
	</clipPath>
	
		<linearGradient
   id="SVGID_5_"
   gradientUnits="userSpaceOnUse"
   x1="-2.9282"
   y1="57.980499"
   x2="-2.8543"
   y2="57.980499"
   gradientTransform="matrix(102.2557,-102.2557,-102.2557,-102.2557,6235.5127,5643.2158)">
		<stop
   offset="0"
   style="stop-color:#8CD133"
   id="stop9822" />
		<stop
   offset="1"
   style="stop-color:#05BDFB"
   id="stop9824" />
	</linearGradient>
	<polygon
   clip-path="url(#SVGID_4_)"
   fill="url(#SVGID_5_)"
   points="12.459,-1.672 22.866,8.735 12.459,19.143 2.052,8.735 "
   id="polygon9827"
   style="fill:url(#SVGID_5_)" />
</g>
<g
   id="g9839"
   transform="matrix(19.559039,0,0,19.559039,-140.7577,913.26901)">
	<defs
   id="defs9832">
		<rect
   id="SVGID_6_"
   y="-25"
   width="142.222"
   height="80"
   x="0" />
	</defs>
	<clipPath
   id="SVGID_7_">
		<use
   xlink:href="#SVGID_6_"
   overflow="visible"
   id="use9834" />
	</clipPath>
	
</g>
</svg>
