<?xml version="1.0" encoding="UTF-8" standalone="no"?>
<!-- Generator: Adobe Illustrator 16.0.0, SVG Export Plug-In . SVG Version: 6.00 Build 0)  -->

<svg
   version="1.1"
   id="Camada_1"
   x="0px"
   y="0px"
   width="2500"
   height="2500"
   viewBox="0 0 2500 2500"
   enable-background="new 0 0 142.222 40"
   xml:space="preserve"
   sodipodi:docname="logotribanco-nome.svg"
   inkscape:version="1.2.2 (732a01da63, 2022-12-09)"
   xmlns:inkscape="http://www.inkscape.org/namespaces/inkscape"
   xmlns:sodipodi="http://sodipodi.sourceforge.net/DTD/sodipodi-0.dtd"
   xmlns:xlink="http://www.w3.org/1999/xlink"
   xmlns="http://www.w3.org/2000/svg"
   xmlns:svg="http://www.w3.org/2000/svg"><defs
   id="defs9844" /><sodipodi:namedview
   id="namedview9842"
   pagecolor="#505050"
   bordercolor="#eeeeee"
   borderopacity="1"
   inkscape:showpageshadow="0"
   inkscape:pageopacity="0"
   inkscape:pagecheckerboard="0"
   inkscape:deskcolor="#505050"
   showgrid="false"
   inkscape:zoom="0.19048409"
   inkscape:cx="1905.6709"
   inkscape:cy="1585.4342"
   inkscape:window-width="1920"
   inkscape:window-height="1009"
   inkscape:window-x="-8"
   inkscape:window-y="-8"
   inkscape:window-maximized="1"
   inkscape:current-layer="Camada_1" />
<g
   id="g9814"
   transform="matrix(19.559039,0,0,19.559039,-140.7577,913.26901)">
	<defs
   id="defs9791">
		<rect
   id="SVGID_1_"
   y="-25"
   width="142.222"
   height="80"
   x="0" />
	</defs>
	<clipPath
   id="SVGID_2_">
		<use
   xlink:href="#SVGID_1_"
   overflow="visible"
   id="use9793" />
	</clipPath>
	<path
   clip-path="url(#SVGID_2_)"
   fill="#ffffff"
   d="m 11.997,15.573 v 7.987 c 0,1.252 0.676,1.914 1.956,1.914 0.665,0 1.511,-0.132 2.396,-0.374 l 0.536,3.562 c -1.113,0.438 -3.067,0.73 -4.251,0.73 -3.62,0 -5.379,-1.692 -5.379,-5.173 v -8.646 z"
   id="path9796" />
	<path
   clip-path="url(#SVGID_2_)"
   fill="#ffffff"
   d="m 30.348,8.827 c -1.76,0.535 -4.07,1.903 -5.071,2.571 L 25.089,11.523 24.744,9.197 H 20.765 V 28.98 h 4.742 V 16.104 l 0.066,-0.042 c 1.721,-1.095 3.274,-2.008 5.239,-2.893 z"
   id="path9798" />
	<polygon
   clip-path="url(#SVGID_2_)"
   fill="#ffffff"
   points="38.688,1.515 33.947,2.179 33.947,7.563 38.688,7.563 "
   id="polygon9800" />
	<rect
   x="33.946999"
   y="9.1969995"
   clip-path="url(#SVGID_2_)"
   fill="#ffffff"
   width="4.7410002"
   height="19.783001"
   id="rect9802" />
	<path
   clip-path="url(#SVGID_2_)"
   fill="#ffffff"
   d="m 58.976,15.524 c 0,-4.535 -1.935,-6.739 -5.915,-6.739 -2.239,0 -4.505,0.611 -5.879,1.184 l -0.198,0.083 V 0.317 l -4.741,0.66 v 27.739 c 2.433,0.467 5.579,0.676 7.645,0.676 7.568,0 9.088,-3.052 9.088,-7.976 z m -4.742,6.058 c 0,2.353 -0.686,3.811 -4.099,3.811 -1.217,0 -2.207,-0.054 -3.028,-0.166 L 46.984,25.209 V 13.99 l 0.083,-0.038 c 1.209,-0.564 3.019,-1.168 4.47,-1.168 1.84,0 2.698,0.831 2.698,2.616 v 6.182 z"
   id="path9804" />
	<path
   clip-path="url(#SVGID_2_)"
   fill="#ffffff"
   d="M 93.713,15.111 V 28.98 h 4.741 V 14.576 c 0,-3.897 -1.436,-5.791 -4.39,-5.791 -2.265,0 -5.395,0.819 -7.973,2.087 l -0.153,0.075 -0.512,-1.75 H 81.844 V 28.98 h 4.742 V 15.107 l 0.077,-0.04 c 1.921,-1.004 4.101,-1.705 5.3,-1.705 1.194,0 1.75,0.556 1.75,1.749"
   id="path9806" />
	<path
   clip-path="url(#SVGID_2_)"
   fill="#ffffff"
   d="m 110.673,25.352 c -2.911,0 -3.893,-0.879 -3.893,-3.481 v -5.563 c 0,-2.604 0.982,-3.481 3.893,-3.481 0.86,0 2.616,0.134 4.044,0.499 l 0.577,-3.843 c -1.507,-0.481 -3.455,-0.697 -4.745,-0.697 -6.125,0 -8.512,2.12 -8.512,7.563 v 5.481 c 0,5.442 2.387,7.563 8.512,7.563 1.607,0 3.452,-0.271 4.745,-0.696 l -0.577,-3.847 c -1.33,0.328 -2.724,0.502 -4.044,0.502"
   id="path9808" />
	<path
   clip-path="url(#SVGID_2_)"
   fill="#ffffff"
   d="m 126.374,29.393 c 5.702,0 8.593,-2.614 8.593,-7.77 v -5.068 c 0,-5.155 -2.891,-7.77 -8.593,-7.77 -5.702,0 -8.593,2.614 -8.593,7.77 v 5.068 c -0.001,5.155 2.89,7.77 8.593,7.77 M 122.522,16.39 c 0,-2.459 1.224,-3.605 3.852,-3.605 2.628,0 3.852,1.146 3.852,3.605 v 5.398 c 0,2.459 -1.224,3.604 -3.852,3.604 -2.627,0 -3.852,-1.146 -3.852,-3.604 V 16.39 Z"
   id="path9810" />
	<path
   clip-path="url(#SVGID_2_)"
   fill="#ffffff"
   d="m 69.87,8.785 c -2.193,0 -4.873,0.362 -6.721,0.906 l 0.574,3.561 c 1.87,-0.381 3.798,-0.591 5.446,-0.591 3.122,0 3.976,0.514 3.976,2.988 v 1.006 c -2.259,0.035 -5.487,0.415 -7.948,1.593 -1.955,0.936 -3.052,2.453 -3.052,5.313 0,2.178 0.661,5.832 5.091,5.832 2.092,0 4.513,-0.621 6.224,-1.749 l 0.165,-0.108 0.394,1.445 h 3.869 V 15.895 C 77.886,10.646 75.789,8.785 69.87,8.785 m 3.275,15.806 -0.073,0.042 c -0.693,0.392 -2.444,1.048 -4.188,1.048 -1.556,0 -2.163,-0.606 -2.163,-2.162 0,-1.115 0.294,-1.908 0.958,-2.271 1.356,-0.737 2.905,-1.327 3.715,-1.327 1.195,0 1.75,1.21 1.75,2.403 v 2.267 z"
   id="path9812" />
</g>
<g
   id="g9829"
   transform="matrix(19.559039,0,0,19.559039,-140.7577,913.26901)">
	<defs
   id="defs9817">
		<polygon
   id="SVGID_3_"
   points="11.997,3.531 7.255,4.192 7.255,13.938 17.663,13.938 17.002,9.197 11.997,9.197 " />
	</defs>
	<clipPath
   id="SVGID_4_">
		<use
   xlink:href="#SVGID_3_"
   overflow="visible"
   id="use9819" />
	</clipPath>
	
		<linearGradient
   id="SVGID_5_"
   gradientUnits="userSpaceOnUse"
   x1="-2.9282"
   y1="57.980499"
   x2="-2.8543"
   y2="57.980499"
   gradientTransform="matrix(102.2557,-102.2557,-102.2557,-102.2557,6235.5127,5643.2158)">
		<stop
   offset="0"
   style="stop-color:#8CD133"
   id="stop9822" />
		<stop
   offset="1"
   style="stop-color:#05BDFB"
   id="stop9824" />
	</linearGradient>
	<polygon
   clip-path="url(#SVGID_4_)"
   fill="url(#SVGID_5_)"
   points="12.459,19.143 2.052,8.735 12.459,-1.672 22.866,8.735 "
   id="polygon9827"
   style="fill:url(#SVGID_5_)" />
</g>
<g
   id="g9839"
   transform="matrix(19.559039,0,0,19.559039,-140.7577,913.26901)">
	<defs
   id="defs9832">
		<rect
   id="SVGID_6_"
   y="-25"
   width="142.222"
   height="80"
   x="0" />
	</defs>
	<clipPath
   id="SVGID_7_">
		<use
   xlink:href="#SVGID_6_"
   overflow="visible"
   id="use9834" />
	</clipPath>
	
</g>
</svg>
