<?xml version="1.0" encoding="UTF-8" standalone="no"?>
<!-- Generator: Adobe Illustrator 16.0.0, SVG Export Plug-In . SVG Version: 6.00 Build 0)  -->

<svg
   version="1.1"
   id="Camada_1"
   x="0px"
   y="0px"
   width="2500"
   height="2500"
   viewBox="0 0 2500 2500"
   enable-background="new 0 0 142.222 40"
   xml:space="preserve"
   sodipodi:docname="logotribanco-nome-slogan.svg"
   inkscape:version="1.2.2 (732a01da63, 2022-12-09)"
   xmlns:inkscape="http://www.inkscape.org/namespaces/inkscape"
   xmlns:sodipodi="http://sodipodi.sourceforge.net/DTD/sodipodi-0.dtd"
   xmlns:xlink="http://www.w3.org/1999/xlink"
   xmlns="http://www.w3.org/2000/svg"
   xmlns:svg="http://www.w3.org/2000/svg"><defs
   id="defs9844" /><sodipodi:namedview
   id="namedview9842"
   pagecolor="#505050"
   bordercolor="#eeeeee"
   borderopacity="1"
   inkscape:showpageshadow="0"
   inkscape:pageopacity="0"
   inkscape:pagecheckerboard="0"
   inkscape:deskcolor="#505050"
   showgrid="false"
   inkscape:zoom="0.19048409"
   inkscape:cx="1905.6709"
   inkscape:cy="1585.4342"
   inkscape:window-width="1920"
   inkscape:window-height="1009"
   inkscape:window-x="-8"
   inkscape:window-y="-8"
   inkscape:window-maximized="1"
   inkscape:current-layer="Camada_1" />
<g
   id="g9814"
   transform="matrix(19.559039,0,0,19.559039,-140.7577,913.26901)">
	<defs
   id="defs9791">
		<rect
   id="SVGID_1_"
   y="-25"
   width="142.222"
   height="80"
   x="0" />
	</defs>
	<clipPath
   id="SVGID_2_">
		<use
   xlink:href="#SVGID_1_"
   overflow="visible"
   id="use9793" />
	</clipPath>
	<path
   clip-path="url(#SVGID_2_)"
   fill="#ffffff"
   d="m 11.997,15.573 v 7.987 c 0,1.252 0.676,1.914 1.956,1.914 0.665,0 1.511,-0.132 2.396,-0.374 l 0.536,3.562 c -1.113,0.438 -3.067,0.73 -4.251,0.73 -3.62,0 -5.379,-1.692 -5.379,-5.173 v -8.646 z"
   id="path9796" />
	<path
   clip-path="url(#SVGID_2_)"
   fill="#ffffff"
   d="m 30.348,8.827 c -1.76,0.535 -4.07,1.903 -5.071,2.571 L 25.089,11.523 24.744,9.197 H 20.765 V 28.98 h 4.742 V 16.104 l 0.066,-0.042 c 1.721,-1.095 3.274,-2.008 5.239,-2.893 z"
   id="path9798" />
	<polygon
   clip-path="url(#SVGID_2_)"
   fill="#ffffff"
   points="38.688,1.515 33.947,2.179 33.947,7.563 38.688,7.563 "
   id="polygon9800" />
	<rect
   x="33.946999"
   y="9.1969995"
   clip-path="url(#SVGID_2_)"
   fill="#ffffff"
   width="4.7410002"
   height="19.783001"
   id="rect9802" />
	<path
   clip-path="url(#SVGID_2_)"
   fill="#ffffff"
   d="m 58.976,15.524 c 0,-4.535 -1.935,-6.739 -5.915,-6.739 -2.239,0 -4.505,0.611 -5.879,1.184 l -0.198,0.083 V 0.317 l -4.741,0.66 v 27.739 c 2.433,0.467 5.579,0.676 7.645,0.676 7.568,0 9.088,-3.052 9.088,-7.976 z m -4.742,6.058 c 0,2.353 -0.686,3.811 -4.099,3.811 -1.217,0 -2.207,-0.054 -3.028,-0.166 L 46.984,25.209 V 13.99 l 0.083,-0.038 c 1.209,-0.564 3.019,-1.168 4.47,-1.168 1.84,0 2.698,0.831 2.698,2.616 v 6.182 z"
   id="path9804" />
	<path
   clip-path="url(#SVGID_2_)"
   fill="#ffffff"
   d="M 93.713,15.111 V 28.98 h 4.741 V 14.576 c 0,-3.897 -1.436,-5.791 -4.39,-5.791 -2.265,0 -5.395,0.819 -7.973,2.087 l -0.153,0.075 -0.512,-1.75 H 81.844 V 28.98 h 4.742 V 15.107 l 0.077,-0.04 c 1.921,-1.004 4.101,-1.705 5.3,-1.705 1.194,0 1.75,0.556 1.75,1.749"
   id="path9806" />
	<path
   clip-path="url(#SVGID_2_)"
   fill="#ffffff"
   d="m 110.673,25.352 c -2.911,0 -3.893,-0.879 -3.893,-3.481 v -5.563 c 0,-2.604 0.982,-3.481 3.893,-3.481 0.86,0 2.616,0.134 4.044,0.499 l 0.577,-3.843 c -1.507,-0.481 -3.455,-0.697 -4.745,-0.697 -6.125,0 -8.512,2.12 -8.512,7.563 v 5.481 c 0,5.442 2.387,7.563 8.512,7.563 1.607,0 3.452,-0.271 4.745,-0.696 l -0.577,-3.847 c -1.33,0.328 -2.724,0.502 -4.044,0.502"
   id="path9808" />
	<path
   clip-path="url(#SVGID_2_)"
   fill="#ffffff"
   d="m 126.374,29.393 c 5.702,0 8.593,-2.614 8.593,-7.77 v -5.068 c 0,-5.155 -2.891,-7.77 -8.593,-7.77 -5.702,0 -8.593,2.614 -8.593,7.77 v 5.068 c -0.001,5.155 2.89,7.77 8.593,7.77 M 122.522,16.39 c 0,-2.459 1.224,-3.605 3.852,-3.605 2.628,0 3.852,1.146 3.852,3.605 v 5.398 c 0,2.459 -1.224,3.604 -3.852,3.604 -2.627,0 -3.852,-1.146 -3.852,-3.604 V 16.39 Z"
   id="path9810" />
	<path
   clip-path="url(#SVGID_2_)"
   fill="#ffffff"
   d="m 69.87,8.785 c -2.193,0 -4.873,0.362 -6.721,0.906 l 0.574,3.561 c 1.87,-0.381 3.798,-0.591 5.446,-0.591 3.122,0 3.976,0.514 3.976,2.988 v 1.006 c -2.259,0.035 -5.487,0.415 -7.948,1.593 -1.955,0.936 -3.052,2.453 -3.052,5.313 0,2.178 0.661,5.832 5.091,5.832 2.092,0 4.513,-0.621 6.224,-1.749 l 0.165,-0.108 0.394,1.445 h 3.869 V 15.895 C 77.886,10.646 75.789,8.785 69.87,8.785 m 3.275,15.806 -0.073,0.042 c -0.693,0.392 -2.444,1.048 -4.188,1.048 -1.556,0 -2.163,-0.606 -2.163,-2.162 0,-1.115 0.294,-1.908 0.958,-2.271 1.356,-0.737 2.905,-1.327 3.715,-1.327 1.195,0 1.75,1.21 1.75,2.403 v 2.267 z"
   id="path9812" />
</g>
<g
   id="g9829"
   transform="matrix(19.559039,0,0,19.559039,-140.7577,913.26901)">
	<defs
   id="defs9817">
		<polygon
   id="SVGID_3_"
   points="11.997,3.531 7.255,4.192 7.255,13.938 17.663,13.938 17.002,9.197 11.997,9.197 " />
	</defs>
	<clipPath
   id="SVGID_4_">
		<use
   xlink:href="#SVGID_3_"
   overflow="visible"
   id="use9819" />
	</clipPath>
	
		<linearGradient
   id="SVGID_5_"
   gradientUnits="userSpaceOnUse"
   x1="-2.9282"
   y1="57.980499"
   x2="-2.8543"
   y2="57.980499"
   gradientTransform="matrix(102.2557,-102.2557,-102.2557,-102.2557,6235.5127,5643.2158)">
		<stop
   offset="0"
   style="stop-color:#8CD133"
   id="stop9822" />
		<stop
   offset="1"
   style="stop-color:#05BDFB"
   id="stop9824" />
	</linearGradient>
	<polygon
   clip-path="url(#SVGID_4_)"
   fill="url(#SVGID_5_)"
   points="12.459,19.143 2.052,8.735 12.459,-1.672 22.866,8.735 "
   id="polygon9827"
   style="fill:url(#SVGID_5_)" />
</g>
<g
   id="g9839"
   transform="matrix(19.559039,0,0,19.559039,-140.7577,913.26901)">
	<defs
   id="defs9832">
		<rect
   id="SVGID_6_"
   y="-25"
   width="142.222"
   height="80"
   x="0" />
	</defs>
	<clipPath
   id="SVGID_7_">
		<use
   xlink:href="#SVGID_6_"
   overflow="visible"
   id="use9834" />
	</clipPath>
	<path
   clip-path="url(#SVGID_7_)"
   fill="#ffffff"
   d="m 134.166,38.584 c 0.096,-0.096 0.144,-0.21 0.144,-0.344 0,-0.134 -0.048,-0.249 -0.144,-0.345 -0.096,-0.096 -0.21,-0.144 -0.344,-0.144 -0.134,0 -0.249,0.048 -0.344,0.144 -0.095,0.096 -0.143,0.211 -0.143,0.345 0,0.134 0.047,0.248 0.143,0.344 0.096,0.096 0.21,0.144 0.344,0.144 0.134,0 0.248,-0.048 0.344,-0.144 m -5.303,-1.965 c 0.226,-0.169 0.531,-0.254 0.913,-0.254 0.28,0 0.532,0.03 0.755,0.091 0.223,0.062 0.434,0.158 0.631,0.292 v 0.899 c -0.191,0.19 -0.405,0.331 -0.641,0.42 -0.236,0.09 -0.497,0.135 -0.784,0.135 -0.357,0 -0.649,-0.085 -0.875,-0.254 -0.227,-0.169 -0.34,-0.387 -0.34,-0.655 0.001,-0.28 0.115,-0.505 0.341,-0.674 m 1.588,1.999 c 0.258,-0.093 0.496,-0.231 0.712,-0.416 v 0.468 h 0.688 v -3.223 c 0,-0.535 -0.165,-0.946 -0.493,-1.233 -0.328,-0.286 -0.795,-0.431 -1.401,-0.431 -0.293,0 -0.586,0.039 -0.88,0.115 -0.294,0.076 -0.612,0.198 -0.956,0.363 l 0.268,0.545 c 0.287,-0.146 0.55,-0.253 0.789,-0.32 0.239,-0.066 0.477,-0.101 0.712,-0.101 0.415,0 0.73,0.098 0.947,0.292 0.217,0.194 0.325,0.483 0.325,0.865 v 0.632 c -0.421,-0.217 -0.89,-0.325 -1.406,-0.325 -0.587,0 -1.052,0.13 -1.396,0.392 -0.345,0.262 -0.517,0.618 -0.517,1.071 0,0.287 0.075,0.539 0.225,0.755 0.15,0.218 0.357,0.387 0.622,0.508 0.265,0.121 0.572,0.181 0.923,0.181 0.301,0 0.579,-0.046 0.838,-0.138 m -3.711,0.119 c 0.15,-0.02 0.285,-0.051 0.406,-0.096 V 38.02 c -0.121,0.044 -0.234,0.076 -0.339,0.096 -0.105,0.019 -0.225,0.028 -0.358,0.028 -0.262,0 -0.45,-0.056 -0.564,-0.167 -0.115,-0.112 -0.172,-0.296 -0.172,-0.551 v -2.945 h 1.444 v -0.603 h -1.444 v -1.396 l -0.698,0.182 v 1.214 h -1.033 v 0.603 h 1.033 v 3.127 c 0,0.377 0.111,0.663 0.334,0.861 0.223,0.197 0.542,0.296 0.957,0.296 0.139,10e-4 0.284,-0.009 0.434,-0.028 m -4.159,-0.162 c 0.29,-0.128 0.521,-0.304 0.693,-0.526 0.172,-0.223 0.258,-0.472 0.258,-0.746 0,-0.376 -0.119,-0.673 -0.358,-0.89 -0.239,-0.216 -0.598,-0.356 -1.076,-0.42 l -0.832,-0.115 c -0.313,-0.045 -0.539,-0.123 -0.679,-0.234 -0.14,-0.111 -0.21,-0.275 -0.21,-0.492 0,-0.236 0.102,-0.427 0.306,-0.574 0.204,-0.146 0.472,-0.22 0.803,-0.22 0.261,0 0.518,0.043 0.77,0.129 0.251,0.086 0.511,0.222 0.779,0.406 l 0.373,-0.478 c -0.293,-0.217 -0.593,-0.376 -0.899,-0.479 -0.306,-0.102 -0.635,-0.153 -0.985,-0.153 -0.35,0 -0.661,0.062 -0.932,0.183 -0.271,0.121 -0.483,0.286 -0.636,0.497 -0.153,0.21 -0.229,0.449 -0.229,0.717 0,0.37 0.116,0.663 0.349,0.88 0.232,0.217 0.588,0.36 1.066,0.431 l 0.832,0.114 c 0.306,0.045 0.531,0.126 0.674,0.244 0.144,0.118 0.215,0.282 0.215,0.492 0,0.256 -0.121,0.463 -0.363,0.622 -0.242,0.159 -0.555,0.239 -0.937,0.239 -0.281,0 -0.555,-0.056 -0.822,-0.168 -0.268,-0.111 -0.513,-0.269 -0.736,-0.473 l -0.431,0.459 c 0.255,0.235 0.556,0.419 0.904,0.55 0.348,0.13 0.719,0.195 1.114,0.195 0.368,10e-4 0.699,-0.063 0.989,-0.19 m -3.931,-5.757 c 0.092,-0.096 0.139,-0.208 0.139,-0.335 0,-0.134 -0.047,-0.247 -0.139,-0.34 -0.092,-0.092 -0.206,-0.139 -0.339,-0.139 -0.127,0 -0.239,0.047 -0.334,0.139 -0.096,0.093 -0.144,0.202 -0.144,0.33 0,0.134 0.048,0.249 0.144,0.345 0.096,0.095 0.207,0.143 0.334,0.143 0.133,0 0.247,-0.048 0.339,-0.143 m 0.015,1.061 h -0.708 v 4.791 h 0.708 z m -2.425,6.527 c 0.213,-0.208 0.32,-0.506 0.32,-0.895 v -5.633 h -0.708 v 5.575 c 0,0.229 -0.046,0.396 -0.139,0.498 -0.092,0.102 -0.25,0.152 -0.473,0.152 -0.134,0 -0.252,-0.013 -0.354,-0.038 v 0.593 c 0.051,0.013 0.115,0.025 0.191,0.038 0.076,0.013 0.159,0.02 0.249,0.02 0.396,10e-4 0.701,-0.103 0.914,-0.31 m 0.306,-7.588 c 0.092,-0.096 0.139,-0.208 0.139,-0.335 0,-0.134 -0.046,-0.247 -0.139,-0.34 -0.093,-0.092 -0.206,-0.139 -0.339,-0.139 -0.128,0 -0.239,0.047 -0.335,0.139 -0.096,0.093 -0.144,0.206 -0.144,0.34 0,0.127 0.048,0.239 0.144,0.335 0.096,0.095 0.207,0.143 0.335,0.143 0.134,0 0.247,-0.048 0.339,-0.143 m -5.484,2.328 c 0.153,-0.227 0.344,-0.403 0.574,-0.53 0.229,-0.128 0.481,-0.191 0.756,-0.191 0.268,0 0.513,0.065 0.736,0.195 0.223,0.131 0.41,0.31 0.56,0.536 0.15,0.226 0.244,0.482 0.282,0.77 h -3.204 c 0.044,-0.293 0.143,-0.553 0.296,-0.78 m 2.405,3.462 c 0.29,-0.099 0.569,-0.247 0.836,-0.445 l -0.439,-0.468 c -0.16,0.14 -0.357,0.248 -0.593,0.325 -0.236,0.076 -0.478,0.114 -0.727,0.114 -0.313,0 -0.6,-0.071 -0.861,-0.215 -0.261,-0.144 -0.473,-0.34 -0.636,-0.588 -0.163,-0.249 -0.263,-0.529 -0.301,-0.842 h 3.93 V 36.27 c 0,-0.459 -0.1,-0.874 -0.301,-1.247 -0.201,-0.373 -0.472,-0.67 -0.813,-0.89 -0.341,-0.22 -0.726,-0.33 -1.152,-0.33 -0.44,0 -0.838,0.11 -1.195,0.33 -0.357,0.22 -0.641,0.517 -0.851,0.89 -0.211,0.373 -0.316,0.788 -0.316,1.247 0,0.466 0.11,0.887 0.33,1.263 0.22,0.376 0.516,0.674 0.889,0.895 0.373,0.22 0.789,0.329 1.248,0.329 0.345,-10e-4 0.662,-0.05 0.952,-0.149 m -5.656,0.062 v -3.279 c 0.128,-0.319 0.301,-0.563 0.521,-0.731 0.22,-0.169 0.476,-0.254 0.77,-0.254 0.083,0 0.166,0.007 0.249,0.02 0.083,0.013 0.166,0.035 0.249,0.066 v -0.65 c -0.134,-0.044 -0.284,-0.066 -0.45,-0.066 -0.293,0 -0.553,0.068 -0.779,0.205 -0.227,0.138 -0.413,0.33 -0.56,0.579 v -0.68 h -0.708 v 4.791 h 0.708 z m -5.073,-2.051 c 0.226,-0.169 0.531,-0.254 0.913,-0.254 0.281,0 0.532,0.03 0.755,0.091 0.223,0.062 0.434,0.158 0.631,0.292 v 0.899 c -0.191,0.19 -0.405,0.331 -0.641,0.42 -0.236,0.09 -0.498,0.135 -0.784,0.135 -0.357,0 -0.649,-0.085 -0.875,-0.254 -0.227,-0.169 -0.339,-0.387 -0.339,-0.655 0,-0.28 0.113,-0.505 0.34,-0.674 m 1.587,1.999 c 0.258,-0.093 0.496,-0.231 0.712,-0.416 v 0.468 h 0.688 v -3.223 c 0,-0.535 -0.164,-0.946 -0.492,-1.233 -0.329,-0.286 -0.795,-0.431 -1.401,-0.431 -0.293,0 -0.586,0.039 -0.88,0.115 -0.293,0.076 -0.612,0.198 -0.956,0.363 l 0.268,0.545 c 0.287,-0.146 0.55,-0.253 0.789,-0.32 0.239,-0.066 0.477,-0.101 0.712,-0.101 0.415,0 0.73,0.098 0.947,0.292 0.217,0.194 0.325,0.483 0.325,0.865 v 0.632 c -0.421,-0.217 -0.889,-0.325 -1.406,-0.325 -0.586,0 -1.052,0.13 -1.396,0.392 -0.344,0.262 -0.517,0.618 -0.517,1.071 0,0.287 0.075,0.539 0.225,0.755 0.15,0.218 0.357,0.387 0.622,0.508 0.265,0.121 0.572,0.181 0.923,0.181 0.3,0 0.579,-0.046 0.837,-0.138 m -5.015,0.052 2.065,-4.791 h -0.755 l -1.635,3.873 -1.635,-3.873 h -0.784 l 2.075,4.791 z m -8.946,-0.784 c -0.265,-0.165 -0.475,-0.389 -0.631,-0.669 -0.156,-0.28 -0.234,-0.593 -0.234,-0.938 0,-0.351 0.078,-0.664 0.234,-0.941 0.156,-0.277 0.367,-0.499 0.631,-0.665 0.264,-0.166 0.559,-0.248 0.884,-0.248 0.325,0 0.62,0.082 0.885,0.248 0.264,0.166 0.475,0.388 0.631,0.665 0.156,0.277 0.234,0.591 0.234,0.941 0,0.345 -0.078,0.657 -0.234,0.938 -0.156,0.281 -0.367,0.504 -0.631,0.669 -0.265,0.166 -0.56,0.249 -0.885,0.249 -0.325,0 -0.62,-0.083 -0.884,-0.249 m 2.127,0.55 c 0.37,-0.22 0.663,-0.518 0.88,-0.894 0.217,-0.376 0.325,-0.797 0.325,-1.263 0,-0.465 -0.108,-0.886 -0.325,-1.262 -0.217,-0.376 -0.51,-0.675 -0.88,-0.895 -0.37,-0.22 -0.784,-0.33 -1.243,-0.33 -0.453,0 -0.865,0.11 -1.238,0.33 -0.373,0.22 -0.668,0.519 -0.885,0.895 -0.216,0.376 -0.325,0.797 -0.325,1.262 0,0.466 0.108,0.887 0.325,1.263 0.217,0.376 0.512,0.674 0.885,0.894 0.373,0.221 0.786,0.33 1.238,0.33 0.459,0 0.874,-0.11 1.243,-0.33 M 84.54,37.877 c -0.271,-0.166 -0.485,-0.39 -0.641,-0.67 -0.156,-0.28 -0.234,-0.596 -0.234,-0.946 0,-0.35 0.078,-0.665 0.234,-0.942 0.156,-0.277 0.37,-0.495 0.641,-0.655 0.271,-0.159 0.572,-0.238 0.903,-0.238 0.3,0 0.579,0.059 0.837,0.177 0.258,0.118 0.47,0.278 0.636,0.482 v 2.372 c -0.166,0.21 -0.377,0.374 -0.636,0.492 -0.259,0.118 -0.537,0.177 -0.837,0.177 -0.331,-10e-4 -0.632,-0.084 -0.903,-0.249 m 2.386,0.286 v 0.507 h 0.698 v -6.856 l -0.708,0.163 v 2.371 C 86.699,34.17 86.46,34.035 86.199,33.942 85.937,33.85 85.666,33.803 85.386,33.803 c -0.453,0 -0.862,0.11 -1.229,0.33 -0.367,0.22 -0.657,0.515 -0.871,0.885 -0.213,0.369 -0.32,0.787 -0.32,1.252 0,0.466 0.107,0.885 0.32,1.258 0.213,0.373 0.503,0.67 0.871,0.89 0.366,0.22 0.772,0.33 1.219,0.33 0.613,-10e-4 1.129,-0.195 1.55,-0.585 M 76.431,37.886 c -0.265,-0.165 -0.475,-0.389 -0.631,-0.669 -0.156,-0.28 -0.234,-0.593 -0.234,-0.938 0,-0.351 0.078,-0.664 0.234,-0.941 0.156,-0.277 0.366,-0.499 0.631,-0.665 0.265,-0.166 0.56,-0.248 0.885,-0.248 0.325,0 0.62,0.082 0.884,0.248 0.264,0.166 0.475,0.388 0.631,0.665 0.156,0.277 0.234,0.591 0.234,0.941 0,0.345 -0.078,0.657 -0.234,0.938 -0.156,0.281 -0.367,0.504 -0.631,0.669 -0.265,0.166 -0.559,0.249 -0.884,0.249 -0.325,0 -0.621,-0.083 -0.885,-0.249 m 2.128,0.55 c 0.37,-0.22 0.663,-0.518 0.88,-0.894 0.216,-0.376 0.325,-0.797 0.325,-1.263 0,-0.465 -0.108,-0.886 -0.325,-1.262 -0.217,-0.376 -0.51,-0.675 -0.88,-0.895 -0.37,-0.22 -0.784,-0.33 -1.243,-0.33 -0.453,0 -0.866,0.11 -1.239,0.33 -0.373,0.22 -0.667,0.519 -0.884,0.895 -0.217,0.376 -0.325,0.797 -0.325,1.262 0,0.466 0.108,0.887 0.325,1.263 0.217,0.376 0.512,0.674 0.884,0.894 0.373,0.221 0.786,0.33 1.239,0.33 0.458,0 0.873,-0.11 1.243,-0.33 m -5.212,0.12 c 0.318,-0.134 0.605,-0.322 0.86,-0.564 l -0.44,-0.479 c -0.204,0.198 -0.422,0.348 -0.655,0.45 -0.233,0.102 -0.48,0.153 -0.741,0.153 -0.325,0 -0.622,-0.082 -0.889,-0.244 -0.268,-0.163 -0.48,-0.385 -0.636,-0.665 -0.156,-0.28 -0.234,-0.593 -0.234,-0.938 0,-0.344 0.078,-0.654 0.234,-0.932 0.156,-0.278 0.367,-0.497 0.631,-0.66 0.265,-0.162 0.56,-0.244 0.885,-0.244 0.262,0 0.515,0.053 0.76,0.158 0.245,0.105 0.464,0.26 0.655,0.464 l 0.449,-0.517 c -0.249,-0.242 -0.536,-0.429 -0.861,-0.56 -0.325,-0.13 -0.663,-0.196 -1.013,-0.196 -0.453,0 -0.864,0.112 -1.234,0.335 -0.37,0.224 -0.663,0.521 -0.88,0.895 -0.217,0.374 -0.325,0.792 -0.325,1.257 0,0.466 0.108,0.887 0.325,1.263 0.217,0.376 0.51,0.674 0.88,0.895 0.37,0.22 0.781,0.329 1.234,0.329 0.345,0 0.676,-0.067 0.995,-0.2 M 65.4,38.67 v -3.528 c 0.146,-0.235 0.331,-0.417 0.555,-0.545 0.223,-0.128 0.478,-0.191 0.765,-0.191 0.415,0 0.741,0.123 0.98,0.368 0.239,0.245 0.358,0.582 0.358,1.009 v 2.888 h 0.698 V 35.64 c 0,-0.369 -0.078,-0.693 -0.234,-0.971 -0.156,-0.278 -0.373,-0.494 -0.65,-0.65 -0.277,-0.155 -0.598,-0.234 -0.961,-0.234 -0.631,0 -1.135,0.221 -1.511,0.66 v -0.564 h -0.708 v 4.791 H 65.4 Z m -5.073,-2.051 c 0.226,-0.169 0.531,-0.254 0.913,-0.254 0.281,0 0.533,0.03 0.756,0.091 0.223,0.062 0.434,0.158 0.631,0.292 v 0.899 c -0.191,0.19 -0.405,0.331 -0.641,0.42 -0.236,0.09 -0.497,0.135 -0.784,0.135 -0.357,0 -0.649,-0.085 -0.875,-0.254 -0.226,-0.169 -0.339,-0.387 -0.339,-0.655 0,-0.28 0.113,-0.505 0.339,-0.674 m 1.588,1.999 c 0.258,-0.093 0.496,-0.231 0.712,-0.416 v 0.468 h 0.689 v -3.223 c 0,-0.535 -0.165,-0.946 -0.493,-1.233 -0.329,-0.286 -0.795,-0.431 -1.401,-0.431 -0.293,0 -0.587,0.039 -0.88,0.115 -0.293,0.076 -0.612,0.198 -0.956,0.363 l 0.268,0.545 c 0.287,-0.146 0.55,-0.253 0.789,-0.32 0.239,-0.066 0.477,-0.101 0.713,-0.101 0.414,0 0.729,0.098 0.947,0.292 0.216,0.194 0.325,0.483 0.325,0.865 v 0.632 c -0.42,-0.217 -0.889,-0.325 -1.406,-0.325 -0.586,0 -1.052,0.13 -1.396,0.392 -0.344,0.262 -0.517,0.618 -0.517,1.071 0,0.287 0.075,0.539 0.225,0.755 0.149,0.218 0.357,0.387 0.622,0.508 0.264,0.121 0.572,0.181 0.922,0.181 0.299,0 0.578,-0.046 0.837,-0.138 m -6.88,-0.67 C 54.773,37.83 54.56,37.67 54.394,37.466 v -2.372 c 0.166,-0.21 0.378,-0.374 0.636,-0.492 0.258,-0.118 0.538,-0.177 0.837,-0.177 0.338,0 0.641,0.081 0.909,0.243 0.268,0.163 0.479,0.385 0.636,0.665 0.157,0.28 0.234,0.596 0.234,0.946 0,0.35 -0.078,0.665 -0.234,0.942 -0.156,0.277 -0.368,0.497 -0.636,0.66 -0.268,0.162 -0.571,0.243 -0.909,0.243 -0.294,10e-4 -0.571,-0.058 -0.832,-0.176 m -0.651,0.722 v -0.478 c 0.216,0.179 0.457,0.315 0.722,0.411 0.265,0.096 0.537,0.144 0.818,0.144 0.459,0 0.87,-0.11 1.233,-0.33 0.363,-0.22 0.652,-0.517 0.866,-0.89 0.213,-0.373 0.32,-0.792 0.32,-1.258 0,-0.465 -0.107,-0.883 -0.32,-1.252 -0.214,-0.37 -0.502,-0.665 -0.866,-0.885 -0.364,-0.22 -0.771,-0.33 -1.224,-0.33 -0.618,0 -1.132,0.194 -1.54,0.583 v -2.572 l -0.708,0.163 v 6.693 h 0.699 z m -8.669,-0.784 c -0.328,-0.14 -0.615,-0.336 -0.86,-0.588 -0.246,-0.252 -0.437,-0.546 -0.574,-0.885 -0.137,-0.338 -0.206,-0.704 -0.206,-1.1 0,-0.389 0.068,-0.75 0.206,-1.085 0.138,-0.335 0.328,-0.628 0.574,-0.88 0.245,-0.252 0.532,-0.448 0.86,-0.588 0.329,-0.141 0.684,-0.211 1.066,-0.211 0.383,0 0.736,0.07 1.062,0.211 0.325,0.14 0.61,0.336 0.856,0.588 0.245,0.252 0.437,0.545 0.574,0.88 0.137,0.335 0.206,0.699 0.206,1.095 0,0.389 -0.069,0.752 -0.206,1.09 -0.137,0.339 -0.329,0.633 -0.574,0.885 -0.246,0.252 -0.531,0.448 -0.856,0.588 -0.325,0.141 -0.679,0.211 -1.062,0.211 -0.382,0 -0.737,-0.071 -1.066,-0.211 m 2.41,0.627 c 0.417,-0.176 0.784,-0.421 1.1,-0.736 0.316,-0.315 0.561,-0.683 0.736,-1.1 0.175,-0.418 0.263,-0.869 0.263,-1.354 0,-0.485 -0.087,-0.936 -0.263,-1.354 -0.175,-0.417 -0.421,-0.783 -0.736,-1.1 -0.315,-0.315 -0.682,-0.561 -1.1,-0.736 -0.418,-0.175 -0.865,-0.263 -1.344,-0.263 -0.484,0 -0.936,0.088 -1.353,0.263 -0.417,0.176 -0.784,0.421 -1.1,0.736 -0.316,0.316 -0.561,0.683 -0.737,1.1 -0.175,0.418 -0.263,0.869 -0.263,1.354 0,0.485 0.087,0.936 0.263,1.354 0.176,0.417 0.421,0.784 0.737,1.1 0.315,0.315 0.682,0.561 1.1,0.736 0.417,0.175 0.869,0.263 1.353,0.263 0.479,-0.001 0.927,-0.088 1.344,-0.263"
   id="path9837" />
</g>
</svg>
