<?xml version="1.0" encoding="UTF-8" standalone="no"?>
<svg
   version="1.1"
   width="2500pt"
   height="2500pt"
   id="svg33"
   viewBox="0 0 2500 2500"
   sodipodi:docname="logo banese.svg"
   inkscape:version="1.2.2 (732a01da63, 2022-12-09)"
   xmlns:inkscape="http://www.inkscape.org/namespaces/inkscape"
   xmlns:sodipodi="http://sodipodi.sourceforge.net/DTD/sodipodi-0.dtd"
   xmlns="http://www.w3.org/2000/svg"
   xmlns:svg="http://www.w3.org/2000/svg">
  <defs
     id="defs37" />
  <sodipodi:namedview
     id="namedview35"
     pagecolor="#ffffff"
     bordercolor="#000000"
     borderopacity="0.25"
     inkscape:showpageshadow="2"
     inkscape:pageopacity="0.0"
     inkscape:pagecheckerboard="0"
     inkscape:deskcolor="#d1d1d1"
     inkscape:document-units="pt"
     showgrid="false"
     inkscape:zoom="0.17071925"
     inkscape:cx="1101.2232"
     inkscape:cy="1575.6864"
     inkscape:window-width="1920"
     inkscape:window-height="1009"
     inkscape:window-x="-8"
     inkscape:window-y="-8"
     inkscape:window-maximized="1"
     inkscape:current-layer="Layer1001" />
  <g
     id="Layer1000" />
  <g
     id="Layer1001"
     transform="matrix(7.4743632,0,0,7.4743632,-3183.6084,-729.88685)">
    <path
       d="M 425.95214,97.821607 H 760.69018 V 432.56351 H 425.95214 v -71.56014 c 42.42815,7.66068 85.63744,18.60468 144.37382,9.95399 120.94739,-17.80953 144.51189,-109.94173 144.51189,-109.94173 -104.93039,89.18603 -187.66687,54.31764 -288.88571,33.59243 v -21.3504 c 69.3145,-13.39008 114.09167,22.27872 196.7819,10.10117 98.15771,-14.45402 117.28315,-89.22737 117.28315,-89.22737 -90.41923,76.85147 -160.52925,40.20108 -249.8495,24.30288 -27.93067,-4.9721 -48.76801,-0.17453 -64.21555,8.76983 z m 78.03283,117.222533 c 0,0 11.63506,-58.28045 73.59586,-47.2527 61.95976,11.02844 110.5953,36.4503 173.31657,-16.85982 0,0 -13.26672,51.87049 -81.35818,61.89667 -68.08936,10.02724 -99.11689,-26.71744 -165.55425,2.21585 z"
       style="fill:#00622a;fill-rule:evenodd;stroke-width:3.50442"
       id="path17" />
    <g
       id="Layer1002" />
  </g>
</svg>
