<?xml version="1.0" encoding="UTF-8" standalone="no"?>
<svg
   version="1.1"
   width="2500pt"
   height="2500pt"
   id="svg33"
   viewBox="0 0 2500 2500"
   sodipodi:docname="logo banese-nome-horizontal.svg"
   inkscape:version="1.2.2 (732a01da63, 2022-12-09)"
   xmlns:inkscape="http://www.inkscape.org/namespaces/inkscape"
   xmlns:sodipodi="http://sodipodi.sourceforge.net/DTD/sodipodi-0.dtd"
   xmlns="http://www.w3.org/2000/svg"
   xmlns:svg="http://www.w3.org/2000/svg">
  <defs
     id="defs37" />
  <sodipodi:namedview
     id="namedview35"
     pagecolor="#ffffff"
     bordercolor="#000000"
     borderopacity="0.25"
     inkscape:showpageshadow="2"
     inkscape:pageopacity="0.0"
     inkscape:pagecheckerboard="0"
     inkscape:deskcolor="#d1d1d1"
     inkscape:document-units="pt"
     showgrid="false"
     inkscape:zoom="0.17071925"
     inkscape:cx="1956.4285"
     inkscape:cy="2073.5799"
     inkscape:window-width="1920"
     inkscape:window-height="1009"
     inkscape:window-x="-8"
     inkscape:window-y="-8"
     inkscape:window-maximized="1"
     inkscape:current-layer="svg33" />
  <g
     id="Layer1000" />
  <g
     id="Layer1001"
     transform="matrix(7.4743632,0,0,7.4743632,-3183.6084,-729.88685)">
    <path
       d="m 426.1956,210.4649 h 95.5185 v 95.5196 h -95.5185 v -20.4199 c 12.107,2.186 24.4369,5.3089 41.1975,2.8404 34.5127,-5.082 41.2369,-31.3722 41.2369,-31.3722 -29.9422,25.4495 -53.5513,15.4997 -82.4344,9.5857 v -6.0924 c 19.7791,-3.8209 32.5564,6.3573 56.1523,2.8824 28.0096,-4.1245 33.4671,-25.4613 33.4671,-25.4613 -25.8014,21.9298 -45.8075,11.4715 -71.2953,6.9349 -7.9701,-1.4188 -13.9161,-0.0498 -18.3241,2.5025 z m 22.2669,33.4498 c 0,0 3.3201,-16.6305 21.0008,-13.4837 17.6804,3.147 31.5587,10.4012 49.4564,-4.811 0,0 -3.7857,14.8014 -23.2158,17.6624 -19.4295,2.8613 -28.2833,-7.6239 -47.2414,0.6323 z"
       style="fill:#00622a;fill-rule:evenodd"
       id="path17" />
    <g
       id="Layer1002">
      <path
         d="m 548.5625,281.8466 c 1.1743,0.1699 2.3854,0.2721 4.2124,0.4041 1.9676,0.142 4.2907,0.2134 6.9577,0.2253 3.1648,0 5.9502,-0.1779 8.3446,-0.5097 2.3943,-0.332 4.4567,-0.8298 6.1873,-1.4698 1.7187,-0.6519 3.1647,-1.4343 4.3145,-2.3588 1.0075,-0.806 1.8727,-1.7187 2.6195,-2.7499 0.7467,-1.0312 1.3157,-2.1691 1.7305,-3.4136 0.4149,-1.2447 0.6282,-2.6078 0.6282,-4.0776 -0.0118,-2.0505 -0.4386,-3.864 -1.2564,-5.4405 -0.8179,-1.5883 -1.9439,-2.9159 -3.3662,-3.9827 -1.4342,-1.0667 -3.07,-1.8372 -4.9072,-2.3112 v -0.1423 c 1.8017,-0.6994 3.2833,-1.5764 4.4449,-2.6196 1.1734,-1.0549 2.0387,-2.2164 2.6076,-3.5085 0.5571,-1.2919 0.8416,-2.6313 0.8416,-4.0419 -0.0118,-1.4698 -0.2489,-2.8091 -0.7349,-4.0181 -0.4741,-1.2091 -1.1379,-2.264 -1.9913,-3.1767 -0.8534,-0.9127 -1.8372,-1.6713 -2.9632,-2.2639 -1.1736,-0.6875 -2.4418,-1.2208 -3.793,-1.6238 -1.3631,-0.3912 -2.8921,-0.6757 -4.5872,-0.8416 -1.7067,-0.1659 -3.6507,-0.2371 -5.8435,-0.2371 -1.849,0 -3.6507,0.0474 -5.4287,0.1422 -1.7779,0.0949 -3.4142,0.2191 -4.9072,0.3674 -1.3542,0.1346 -2.2177,0.2491 -3.145,0.4005 -0.3245,0.045 -0.5442,0.3638 -0.5293,0.6329 v 46.0195 c 0,0.2591 0.22,0.546 0.5643,0.5954 z m 10.1744,-39.9792 c 0.415,-0.0712 0.9839,-0.1423 1.7187,-0.2015 0.7468,-0.0475 1.7069,-0.0831 2.9041,-0.0831 2.4653,0 4.3619,0.4741 5.6776,1.4106 1.3275,0.9363 1.9913,2.3232 2.0031,4.1367 0,1.1971 -0.3318,2.2283 -0.9838,3.1055 -0.6637,0.8889 -1.6358,1.5646 -2.9395,2.0624 -1.2921,0.486 -2.9041,0.7231 -4.8242,0.7349 h -3.556 z m 0,18.9174 h 3.6982 c 1.3631,0 2.6313,0.1185 3.8048,0.3674 1.1735,0.2608 2.2047,0.652 3.0936,1.1854 0.8891,0.5333 1.5884,1.2327 2.0863,2.0742 0.4977,0.8534 0.7466,1.8728 0.7586,3.0582 -0.012,1.2564 -0.2609,2.335 -0.7586,3.2239 -0.4861,0.8772 -1.1616,1.6002 -2.0269,2.1573 -0.8535,0.5453 -1.8373,0.9483 -2.9396,1.2091 -1.1142,0.2607 -2.2876,0.3792 -3.5204,0.3792 -0.9127,0 -1.7187,0 -2.3943,-0.0118 -0.6756,-0.0237 -1.2801,-0.0593 -1.8017,-0.1304 z"
         style="fill:#00622a;fill-rule:evenodd"
         id="path19" />
      <path
         d="m 617.5942,261.4249 c 0.0118,-2.0743 -0.2371,-4.0182 -0.7468,-5.8318 -0.5097,-1.8254 -1.3513,-3.4136 -2.5129,-4.8004 -1.1734,-1.3869 -2.7261,-2.4655 -4.6937,-3.2477 -1.9558,-0.7824 -4.3739,-1.1854 -7.266,-1.1972 -2.1098,0.0118 -4.0418,0.1778 -5.7843,0.5096 -1.7305,0.332 -3.2477,0.735 -4.5516,1.2091 -1.073,0.3903 -1.9945,0.7651 -2.727,1.1598 -0.3916,0.226 -0.3409,0.6231 -0.3088,0.7432 l 1.6201,5.6703 c 0.1151,0.4032 0.5713,0.5919 0.9184,0.404 0.6057,-0.3278 1.2806,-0.6316 2.0265,-0.9129 1.0317,-0.3892 2.1453,-0.7112 3.3188,-0.9482 1.1852,-0.2371 2.3706,-0.3675 3.5677,-0.3675 1.3276,0.0119 2.4062,0.154 3.2359,0.4386 0.8416,0.2845 1.4817,0.6637 1.932,1.1142 0.4504,0.4622 0.7586,0.9482 0.9246,1.4816 0.1659,0.5216 0.249,1.0313 0.237,1.5172 v 0.4267 c -3.0817,0 -5.8791,0.2726 -8.38,0.8061 -2.501,0.5451 -4.6465,1.363 -6.4362,2.4535 -1.7898,1.1024 -3.1767,2.4773 -4.1368,4.1486 -0.96,1.6713 -1.446,3.6389 -1.4578,5.8909 0,1.3988 0.2607,2.7381 0.7704,4.0064 0.4978,1.2683 1.2445,2.4061 2.2046,3.4018 0.972,1.0075 2.1455,1.7898 3.5322,2.3706 1.3868,0.5808 2.9634,0.8771 4.7294,0.8889 2.0742,0 3.9708,-0.3674 5.6776,-1.0904 1.695,-0.723 3.1292,-1.7897 4.279,-3.1766 h 0.2133 v 2.8416 c 0,0.2975 0.238,0.6432 0.6422,0.6432 h 9.7411 c -0.1423,-0.6519 -0.2489,-1.4105 -0.332,-2.2994 -0.0828,-0.8891 -0.1422,-1.8492 -0.1895,-2.8922 -0.0356,-1.0313 -0.0474,-2.0981 -0.0474,-3.2004 z m -10.4545,7.8941 c 0,0.3201 -0.0118,0.6401 -0.0474,0.9483 -0.0355,0.32 -0.0947,0.6163 -0.1659,0.9008 -0.249,0.7467 -0.64,1.4106 -1.1853,2.015 -0.5453,0.5927 -1.209,1.0669 -1.9676,1.4224 -0.7586,0.3556 -1.5765,0.5334 -2.4655,0.5452 -0.8178,0 -1.5408,-0.1541 -2.1809,-0.4504 -0.64,-0.3082 -1.1497,-0.7586 -1.5172,-1.375 -0.3675,-0.6045 -0.5571,-1.3749 -0.569,-2.2994 0.0238,-1.3631 0.4741,-2.4536 1.3513,-3.2596 0.8889,-0.7942 2.0861,-1.3749 3.6033,-1.7187 1.5172,-0.3438 3.224,-0.5097 5.1442,-0.4978 z"
         style="fill:#00622a;fill-rule:evenodd"
         id="path21" />
      <path
         d="m 623.9821,281.9794 9.5015,-7e-4 c 0.4496,0 0.6544,-0.3891 0.6544,-0.6403 l -0.002,-19.4157 c 0,-0.5097 0.0245,-0.9957 0.071,-1.4579 0.0478,-0.4738 0.1423,-0.889 0.2846,-1.2446 0.2607,-0.6756 0.6281,-1.3275 1.126,-1.932 0.486,-0.6164 1.0905,-1.126 1.8253,-1.5172 0.735,-0.3912 1.6003,-0.5927 2.5958,-0.6045 1.3039,0.0118 2.3588,0.3319 3.1649,0.9601 0.806,0.6281 1.3867,1.5053 1.7661,2.6314 0.3674,1.126 0.5567,2.436 0.5447,3.9414 v 18.6413 c 0,0.3643 0.2995,0.6374 0.6391,0.6374 h 9.5186 c 0.4481,0 0.6528,-0.3767 0.6528,-0.639 v -19.9142 c -0.012,-2.5603 -0.3201,-4.7768 -0.9483,-6.6615 -0.6163,-1.8846 -1.4816,-3.4492 -2.6077,-4.6819 -1.1142,-1.2328 -2.4299,-2.1573 -3.947,-2.7618 -1.5054,-0.6045 -3.153,-0.9007 -4.9428,-0.9007 -1.4579,0.0118 -2.7736,0.2013 -3.9352,0.5569 -1.1734,0.3557 -2.2046,0.8298 -3.0817,1.3987 -0.889,0.569 -1.6476,1.1735 -2.264,1.8254 -0.6163,0.6401 -1.1023,1.2565 -1.4579,1.8372 h -0.2134 l 10e-4,-4.1743 c 0,-0.5099 -0.4318,-0.6617 -0.6487,-0.6617 h -9.238 l 0.2015,3.069 c 0.1204,1.8332 0.083,3.0938 0.083,5.2619 0,8.5988 0,17.1983 0,25.7971 0,0.404 0.3155,0.6502 0.656,0.6502 z"
         style="fill:#00622a;fill-rule:evenodd"
         id="path23" />
      <path
         d="m 692.9462,267.4885 c 0.0493,-0.3295 0.0965,-0.7235 0.1419,-1.1801 0.0768,-0.758 0.1186,-1.6003 0.1186,-2.5366 0,-1.7305 -0.1779,-3.4374 -0.5335,-5.1087 -0.3556,-1.6713 -0.9245,-3.2477 -1.6831,-4.7175 -0.7704,-1.4698 -1.7543,-2.7737 -2.9751,-3.8997 -1.2209,-1.126 -2.6788,-2.0031 -4.3856,-2.6432 -1.7069,-0.6519 -3.6863,-0.9719 -5.9265,-0.9837 -2.4181,0.0118 -4.5753,0.3792 -6.4718,1.0786 -1.8965,0.7111 -3.5441,1.6831 -4.9309,2.9157 -1.3987,1.2329 -2.5483,2.6433 -3.461,4.2198 -0.9127,1.5883 -1.5884,3.2596 -2.0388,5.0257 -0.4385,1.7661 -0.6638,3.5441 -0.6638,5.322 0.012,3.6388 0.7468,6.7919 2.1929,9.4232 1.446,2.6433 3.544,4.682 6.3058,6.1161 2.7617,1.4224 6.1162,2.1455 10.0631,2.1692 2.3589,0 4.5965,-0.1925 6.7208,-0.5453 1.9203,-0.3188 3.7196,-0.8105 5.3569,-1.4519 0.3329,-0.1304 0.4736,-0.4898 0.4109,-0.7242 -0.3879,-2.0277 -0.7873,-4.0533 -1.1814,-6.08 -0.0988,-0.5081 -0.5499,-0.5781 -0.8257,-0.5042 -1.2347,0.3885 -2.5106,0.6928 -3.82,0.9017 -1.5642,0.2496 -3.2595,0.3674 -5.0968,0.3674 -1.2683,0 -2.4773,-0.1303 -3.627,-0.4028 -1.138,-0.2727 -2.1691,-0.6758 -3.07,-1.221 -0.9008,-0.5452 -1.6238,-1.2327 -2.1691,-2.0624 -0.5571,-0.8298 -0.8653,-1.8135 -0.9482,-2.9277 h 21.8655 c 0.3069,0 0.5838,-0.2272 0.6319,-0.5504 z m -22.5686,-6.8459 c 0.0712,-0.723 0.2371,-1.4935 0.5217,-2.2995 0.2844,-0.806 0.6874,-1.5764 1.2208,-2.2876 0.5333,-0.7231 1.209,-1.3039 2.0149,-1.7543 0.818,-0.4504 1.7899,-0.6875 2.9278,-0.6994 1.2328,0.0119 2.2521,0.2608 3.0581,0.723 0.7941,0.4742 1.4224,1.0788 1.8727,1.8136 0.4386,0.7231 0.7586,1.4935 0.9364,2.2876 0.1778,0.806 0.2608,1.541 0.249,2.2166 z"
         style="fill:#00622a;fill-rule:evenodd"
         id="path25" />
      <path
         d="m 697.3803,280.4953 c 1.2522,0.6222 2.7341,1.1404 4.4624,1.5539 1.9319,0.4622 4.0419,0.6993 6.3414,0.7111 3.3188,-0.0236 6.0924,-0.5096 8.3208,-1.4816 2.2165,-0.9601 3.8878,-2.2876 5.002,-3.9825 1.126,-1.6951 1.6831,-3.6389 1.6831,-5.8437 -0.0118,-1.6831 -0.3438,-3.1885 -0.9957,-4.5278 -0.6518,-1.3275 -1.6593,-2.5129 -3.0343,-3.5441 -1.375,-1.0193 -3.1648,-1.9084 -5.3576,-2.6668 -1.4105,-0.4861 -2.5247,-0.9365 -3.3544,-1.3395 -0.8179,-0.403 -1.4105,-0.8179 -1.7543,-1.2327 -0.3555,-0.4268 -0.5214,-0.9245 -0.5096,-1.4816 0.0118,-0.8654 0.3674,-1.541 1.0786,-2.0269 0.7111,-0.486 1.7187,-0.7349 3.0462,-0.7467 0.9839,0.0118 1.9558,0.1184 2.9041,0.3199 0.9481,0.2134 1.8253,0.4741 2.6314,0.7705 0.4803,0.1837 0.9103,0.3633 1.2921,0.541 0.2374,0.137 0.7652,0.097 0.9092,-0.441 l 1.5901,-6.4214 c 0.0491,-0.1985 -0.0951,-0.3238 -0.182,-0.3656 -1.0498,-0.5046 -2.3453,-0.9403 -3.9058,-1.3139 -1.6831,-0.4029 -3.5441,-0.6044 -5.5947,-0.6281 -2.1572,0.0118 -4.1012,0.2963 -5.8435,0.8652 -1.7305,0.569 -3.2241,1.375 -4.4568,2.4063 -1.2445,1.0311 -2.1927,2.2402 -2.8447,3.6269 -0.6637,1.3869 -0.9957,2.904 -1.0075,4.5516 -0.0356,1.3868 0.2845,2.7145 0.9365,4.0064 0.6637,1.292 1.7305,2.4773 3.2003,3.5797 1.4697,1.1022 3.4136,2.0505 5.8198,2.8683 1.3157,0.4386 2.3469,0.8535 3.0817,1.2446 0.735,0.3793 1.2446,0.7941 1.541,1.2327 0.2963,0.4505 0.4385,0.972 0.4266,1.5765 0.0119,0.9008 -0.3437,1.5884 -1.0786,2.0861 -0.7349,0.4978 -1.9202,0.7468 -3.544,0.7586 -1.0906,-0.0118 -2.2166,-0.1421 -3.39,-0.3911 -1.1853,-0.2608 -2.2876,-0.5808 -3.3426,-0.972 -0.7142,-0.2597 -1.3543,-0.5034 -1.8836,-0.8089 -0.2936,-0.1695 -0.7866,-0.014 -0.8994,0.4077 l -1.5956,6.3826 c -0.0496,0.1854 -0.0261,0.5338 0.3074,0.7263 z"
         style="fill:#00622a;fill-rule:evenodd"
         id="path27" />
      <path
         d="m 759.9866,267.4885 c 0.0494,-0.3295 0.0965,-0.7235 0.1419,-1.1801 0.0768,-0.758 0.1186,-1.6003 0.1186,-2.5366 0,-1.7305 -0.1778,-3.4374 -0.5334,-5.1087 -0.3556,-1.6713 -0.9245,-3.2477 -1.6831,-4.7175 -0.7705,-1.4698 -1.7543,-2.7737 -2.9752,-3.8997 -1.2208,-1.126 -2.6788,-2.0031 -4.3856,-2.6432 -1.7068,-0.6519 -3.6863,-0.9719 -5.9265,-0.9837 -2.418,0.0118 -4.5752,0.3792 -6.4718,1.0786 -1.8964,0.7111 -3.544,1.6831 -4.9308,2.9157 -1.3987,1.2329 -2.5484,2.6433 -3.4611,4.2198 -0.9126,1.5883 -1.5884,3.2596 -2.0388,5.0257 -0.4385,1.7661 -0.6637,3.5441 -0.6637,5.322 0.0119,3.6388 0.7467,6.7919 2.1929,9.4232 1.446,2.6433 3.5439,4.682 6.3057,6.1161 2.7617,1.4224 6.1162,2.1455 10.0632,2.1692 2.3588,0 4.5964,-0.1925 6.7207,-0.5453 1.9204,-0.3188 3.7196,-0.8105 5.357,-1.4519 0.3328,-0.1304 0.4735,-0.4898 0.4108,-0.7242 -0.3878,-2.0277 -0.7872,-4.0533 -1.1814,-6.08 -0.0988,-0.5081 -0.5499,-0.5781 -0.8256,-0.5042 -1.2348,0.3885 -2.5106,0.6928 -3.82,0.9017 -1.5643,0.2496 -3.2596,0.3674 -5.0969,0.3674 -1.2683,0 -2.4773,-0.1303 -3.6269,-0.4028 -1.138,-0.2727 -2.1692,-0.6758 -3.07,-1.221 -0.9009,-0.5452 -1.6239,-1.2327 -2.1692,-2.0624 -0.5571,-0.8298 -0.8652,-1.8135 -0.9481,-2.9277 h 21.8654 c 0.3069,0 0.5839,-0.2272 0.6319,-0.5504 z m -22.5685,-6.8459 c 0.0712,-0.723 0.2371,-1.4935 0.5216,-2.2995 0.2844,-0.806 0.6874,-1.5764 1.2209,-2.2876 0.5333,-0.7231 1.209,-1.3039 2.0149,-1.7543 0.8179,-0.4504 1.7899,-0.6875 2.9277,-0.6994 1.2328,0.0119 2.2522,0.2608 3.0582,0.723 0.794,0.4742 1.4223,1.0788 1.8726,1.8136 0.4386,0.7231 0.7586,1.4935 0.9365,2.2876 0.1777,0.806 0.2607,1.541 0.2489,2.2166 z"
         style="fill:#00622a;fill-rule:evenodd"
         id="path29" />
    </g>
  </g>
</svg>
