<?xml version="1.0" encoding="UTF-8" standalone="no"?>
<svg
   version="1.1"
   width="2500pt"
   height="2500pt"
   id="svg33"
   viewBox="0 0 2500 2500"
   sodipodi:docname="logo banese-nome.svg"
   inkscape:version="1.2.2 (732a01da63, 2022-12-09)"
   xmlns:inkscape="http://www.inkscape.org/namespaces/inkscape"
   xmlns:sodipodi="http://sodipodi.sourceforge.net/DTD/sodipodi-0.dtd"
   xmlns="http://www.w3.org/2000/svg"
   xmlns:svg="http://www.w3.org/2000/svg">
  <defs
     id="defs37" />
  <sodipodi:namedview
     id="namedview35"
     pagecolor="#ffffff"
     bordercolor="#000000"
     borderopacity="0.25"
     inkscape:showpageshadow="2"
     inkscape:pageopacity="0.0"
     inkscape:pagecheckerboard="0"
     inkscape:deskcolor="#d1d1d1"
     inkscape:document-units="pt"
     showgrid="false"
     inkscape:zoom="0.17071925"
     inkscape:cx="1294.523"
     inkscape:cy="1528.8258"
     inkscape:window-width="1920"
     inkscape:window-height="1009"
     inkscape:window-x="-8"
     inkscape:window-y="-8"
     inkscape:window-maximized="1"
     inkscape:current-layer="Layer1001" />
  <path
     d="M 780.92011,406.44264 H 1732.7483 V 1358.2828 H 780.92011 v -203.4825 c 120.64503,21.784 243.51059,52.9024 410.52809,28.3051 343.9139,-50.6412 410.9189,-312.61978 410.9189,-312.61978 -298.3701,253.60018 -533.6308,154.45268 -821.44699,95.5209 v -60.70999 c 197.09643,-38.07532 324.41959,63.34874 559.54959,28.72224 279.1129,-41.10045 333.4961,-253.71876 333.4961,-253.71876 -257.1083,218.52806 -456.4659,114.31268 -710.44814,69.10482 -79.42054,-14.13775 -138.67175,-0.49614 -182.59755,24.93753 z M 1002.807,739.76526 c 0,0 33.0843,-165.72008 209.2694,-134.36348 176.1828,31.3599 314.4792,103.64681 492.8267,-47.93991 0,0 -37.723,147.49358 -231.3421,176.00287 -193.6125,28.51258 -281.8395,-75.97173 -470.754,6.30052 z"
     style="fill:#00622a;fill-rule:evenodd;stroke-width:10.9765"
     id="path2" />
  <g
     id="Layer1000"
     transform="matrix(10.976511,0,0,10.976511,-917.39094,-1547.3478)">
    <path
       d="m 92.5201,338.3261 c 1.1744,0.1699 2.3854,0.2721 4.2125,0.404 1.9676,0.142 4.2907,0.2135 6.9577,0.2253 3.1648,0 5.9502,-0.1778 8.3446,-0.5097 2.3942,-0.3319 4.4567,-0.8298 6.1872,-1.4697 1.7187,-0.652 3.1647,-1.4344 4.3145,-2.3589 1.0076,-0.806 1.8728,-1.7187 2.6196,-2.7498 0.7466,-1.0312 1.3157,-2.1692 1.7305,-3.4137 0.4149,-1.2446 0.6282,-2.6077 0.6282,-4.0775 -0.0118,-2.0505 -0.4386,-3.8641 -1.2565,-5.4405 -0.8178,-1.5883 -1.9438,-2.9159 -3.3662,-3.9827 -1.4342,-1.0668 -3.07,-1.8372 -4.9072,-2.3113 v -0.1422 c 1.8018,-0.6994 3.2834,-1.5765 4.445,-2.6196 1.1734,-1.055 2.0387,-2.2164 2.6076,-3.5085 0.5571,-1.2919 0.8416,-2.6314 0.8416,-4.0419 -0.0118,-1.4698 -0.2489,-2.8091 -0.735,-4.0182 -0.474,-1.209 -1.1378,-2.264 -1.9912,-3.1766 -0.8535,-0.9127 -1.8372,-1.6713 -2.9632,-2.2639 -1.1736,-0.6875 -2.4419,-1.2208 -3.793,-1.6239 -1.3631,-0.3911 -2.8922,-0.6757 -4.5872,-0.8416 -1.7068,-0.1659 -3.6507,-0.2371 -5.8435,-0.2371 -1.849,0 -3.6508,0.0474 -5.4287,0.1423 -1.7779,0.0948 -3.4143,0.2191 -4.9072,0.3674 -1.3542,0.1346 -2.2177,0.2491 -3.145,0.4004 -0.3245,0.045 -0.5443,0.3639 -0.5294,0.633 v 46.0195 c 0,0.2591 0.22,0.5459 0.5643,0.5954 z m 10.1745,-39.9793 c 0.4149,-0.0712 0.9839,-0.1422 1.7187,-0.2015 0.7468,-0.0474 1.7069,-0.083 2.9041,-0.083 2.4653,0 4.3619,0.4741 5.6776,1.4105 1.3275,0.9364 1.9912,2.3233 2.0031,4.1368 0,1.1971 -0.3319,2.2283 -0.9838,3.1055 -0.6637,0.8889 -1.6358,1.5646 -2.9395,2.0623 -1.2921,0.4861 -2.9041,0.7232 -4.8242,0.735 h -3.556 z m 0,18.9175 h 3.6981 c 1.3631,0 2.6314,0.1185 3.8048,0.3674 1.1736,0.2608 2.2048,0.6519 3.0937,1.1854 0.889,0.5333 1.5884,1.2327 2.0862,2.0742 0.4977,0.8534 0.7467,1.8728 0.7586,3.0581 -0.0119,1.2565 -0.2609,2.3351 -0.7586,3.224 -0.486,0.8772 -1.1616,1.6002 -2.0268,2.1573 -0.8535,0.5453 -1.8374,0.9483 -2.9396,1.209 -1.1142,0.2608 -2.2876,0.3793 -3.5204,0.3793 -0.9127,0 -1.7187,0 -2.3943,-0.0118 -0.6756,-0.0237 -1.2801,-0.0593 -1.8017,-0.1305 z"
       style="fill:#00622a;fill-rule:evenodd"
       id="path4" />
    <path
       d="m 161.5518,317.9044 c 0.0119,-2.0743 -0.2371,-4.0183 -0.7467,-5.8318 -0.5097,-1.8254 -1.3513,-3.4137 -2.5129,-4.8004 -1.1735,-1.3869 -2.7261,-2.4655 -4.6938,-3.2478 -1.9558,-0.7823 -4.3738,-1.1853 -7.266,-1.1972 -2.1097,0.0119 -4.0417,0.1779 -5.7842,0.5097 -1.7305,0.332 -3.2477,0.735 -4.5516,1.209 -1.0731,0.3903 -1.9945,0.7652 -2.727,1.1599 -0.3916,0.226 -0.3409,0.6231 -0.3088,0.7431 l 1.6201,5.6703 c 0.115,0.4033 0.5712,0.5919 0.9184,0.4041 0.6056,-0.3279 1.2806,-0.6317 2.0264,-0.913 1.0317,-0.3891 2.1454,-0.7112 3.3188,-0.9481 1.1853,-0.2371 2.3707,-0.3676 3.5677,-0.3676 1.3277,0.012 2.4063,0.1541 3.2359,0.4386 0.8417,0.2846 1.4818,0.6638 1.9321,1.1142 0.4504,0.4623 0.7586,0.9483 0.9246,1.4816 0.1659,0.5217 0.2489,1.0313 0.237,1.5172 v 0.4268 c -3.0817,0 -5.8791,0.2726 -8.3801,0.806 -2.5009,0.5452 -4.6464,1.363 -6.4362,2.4536 -1.7897,1.1023 -3.1766,2.4773 -4.1367,4.1486 -0.96,1.6712 -1.446,3.6389 -1.4579,5.8909 0,1.3987 0.2608,2.7381 0.7705,4.0063 0.4978,1.2683 1.2445,2.4062 2.2046,3.4019 0.972,1.0075 2.1454,1.7897 3.5322,2.3706 1.3868,0.5807 2.9633,0.8771 4.7293,0.8889 2.0743,0 3.9709,-0.3674 5.6776,-1.0904 1.6951,-0.723 3.1293,-1.7898 4.2791,-3.1767 h 0.2133 v 2.8417 c 0,0.2975 0.238,0.6432 0.6421,0.6432 h 9.7412 c -0.1423,-0.652 -0.249,-1.4106 -0.332,-2.2995 -0.0829,-0.889 -0.1422,-1.8491 -0.1895,-2.8921 -0.0356,-1.0313 -0.0475,-2.0981 -0.0475,-3.2005 z m -10.4544,7.8941 c 0,0.3201 -0.0119,0.6401 -0.0475,0.9482 -0.0354,0.32 -0.0947,0.6164 -0.1659,0.9009 -0.2489,0.7466 -0.6399,1.4105 -1.1852,2.0149 -0.5453,0.5927 -1.209,1.0669 -1.9676,1.4225 -0.7586,0.3556 -1.5765,0.5333 -2.4655,0.5452 -0.8179,0 -1.5409,-0.1541 -2.181,-0.4505 -0.64,-0.3081 -1.1496,-0.7586 -1.5172,-1.3749 -0.3674,-0.6045 -0.5571,-1.375 -0.5689,-2.2995 0.0238,-1.3631 0.4741,-2.4535 1.3513,-3.2595 0.8889,-0.7942 2.0861,-1.375 3.6033,-1.7187 1.5172,-0.3438 3.224,-0.5097 5.1442,-0.4979 z"
       style="fill:#00622a;fill-rule:evenodd"
       id="path6" />
    <path
       d="m 167.9397,338.4588 9.5016,-6e-4 c 0.4495,0 0.6544,-0.3891 0.6544,-0.6404 l -0.002,-19.4157 c 0,-0.5096 0.0246,-0.9957 0.0711,-1.4578 0.0478,-0.4738 0.1423,-0.889 0.2845,-1.2446 0.2608,-0.6756 0.6282,-1.3275 1.126,-1.9321 0.4861,-0.6163 1.0906,-1.126 1.8254,-1.5172 0.735,-0.3912 1.6002,-0.5927 2.5958,-0.6045 1.3039,0.0118 2.3588,0.332 3.1648,0.9601 0.806,0.6282 1.3868,1.5054 1.7662,2.6314 0.3674,1.126 0.5567,2.4361 0.5447,3.9415 v 18.6412 c 0,0.3644 0.2994,0.6375 0.6391,0.6375 h 9.5185 c 0.4481,0 0.6529,-0.3767 0.6529,-0.639 v -19.9142 c -0.012,-2.5603 -0.3202,-4.7769 -0.9483,-6.6615 -0.6164,-1.8846 -1.4816,-3.4492 -2.6078,-4.6819 -1.1141,-1.2328 -2.4298,-2.1573 -3.9469,-2.7618 -1.5054,-0.6046 -3.153,-0.9008 -4.9428,-0.9008 -1.4579,0.0119 -2.7736,0.2014 -3.9352,0.557 -1.1735,0.3557 -2.2046,0.8298 -3.0817,1.3987 -0.8891,0.5689 -1.6477,1.1734 -2.264,1.8254 -0.6163,0.6401 -1.1024,1.2564 -1.458,1.8372 h -0.2133 l 0.001,-4.1743 c 0,-0.51 -0.4318,-0.6617 -0.6487,-0.6617 h -9.238 l 0.2015,3.0689 c 0.1204,1.8333 0.083,3.0938 0.083,5.2619 0,8.5988 0,17.1984 0,25.7972 0,0.4039 0.3155,0.6501 0.6559,0.6501 z"
       style="fill:#00622a;fill-rule:evenodd"
       id="path8" />
    <path
       d="m 236.9038,323.9679 c 0.0494,-0.3295 0.0966,-0.7235 0.1419,-1.1801 0.0769,-0.7579 0.1186,-1.6002 0.1186,-2.5365 0,-1.7306 -0.1778,-3.4374 -0.5334,-5.1087 -0.3556,-1.6713 -0.9245,-3.2478 -1.6831,-4.7175 -0.7704,-1.4698 -1.7543,-2.7737 -2.9752,-3.8997 -1.2208,-1.126 -2.6788,-2.0031 -4.3855,-2.6432 -1.7069,-0.652 -3.6864,-0.9719 -5.9266,-0.9838 -2.418,0.0119 -4.5752,0.3793 -6.4718,1.0786 -1.8964,0.7112 -3.544,1.6831 -4.9308,2.9158 -1.3987,1.2328 -2.5483,2.6432 -3.461,4.2198 -0.9127,1.5883 -1.5884,3.2596 -2.0389,5.0257 -0.4384,1.7661 -0.6637,3.5441 -0.6637,5.322 0.0119,3.6388 0.7468,6.7918 2.1929,9.4232 1.446,2.6432 3.5439,4.6819 6.3058,6.1161 2.7617,1.4224 6.1162,2.1455 10.0631,2.1691 2.3588,0 4.5965,-0.1925 6.7207,-0.5452 1.9204,-0.3189 3.7197,-0.8105 5.357,-1.4519 0.3329,-0.1305 0.4736,-0.4898 0.4109,-0.7242 -0.3879,-2.0278 -0.7873,-4.0534 -1.1814,-6.08 -0.0989,-0.5081 -0.5499,-0.5782 -0.8257,-0.5043 -1.2348,0.3885 -2.5106,0.6928 -3.82,0.9018 -1.5642,0.2496 -3.2595,0.3674 -5.0969,0.3674 -1.2682,0 -2.4773,-0.1303 -3.6269,-0.4029 -1.138,-0.2727 -2.1692,-0.6757 -3.07,-1.221 -0.9009,-0.5451 -1.6239,-1.2326 -2.1691,-2.0623 -0.5571,-0.8298 -0.8653,-1.8136 -0.9482,-2.9277 h 21.8655 c 0.3068,0 0.5838,-0.2273 0.6318,-0.5505 z m -22.5685,-6.8459 c 0.0712,-0.723 0.2371,-1.4934 0.5216,-2.2994 0.2844,-0.806 0.6874,-1.5765 1.2209,-2.2876 0.5333,-0.7232 1.209,-1.3039 2.0149,-1.7543 0.818,-0.4505 1.7899,-0.6876 2.9277,-0.6994 1.2328,0.0118 2.2522,0.2607 3.0582,0.723 0.7941,0.4742 1.4224,1.0787 1.8727,1.8135 0.4386,0.7232 0.7586,1.4936 0.9364,2.2877 0.1777,0.806 0.2608,1.5409 0.2489,2.2165 z"
       style="fill:#00622a;fill-rule:evenodd"
       id="path10" />
    <path
       d="m 241.338,336.9748 c 1.2522,0.6221 2.734,1.1404 4.4624,1.5538 1.9319,0.4623 4.0419,0.6994 6.3413,0.7112 3.3188,-0.0236 6.0925,-0.5097 8.3209,-1.4816 2.2165,-0.9601 3.8878,-2.2876 5.002,-3.9826 1.126,-1.695 1.6831,-3.6389 1.6831,-5.8436 -0.0118,-1.6831 -0.3438,-3.1885 -0.9957,-4.5278 -0.6518,-1.3276 -1.6593,-2.5129 -3.0343,-3.5441 -1.375,-1.0194 -3.1648,-1.9084 -5.3576,-2.6669 -1.4105,-0.486 -2.5247,-0.9364 -3.3544,-1.3394 -0.818,-0.4031 -1.4105,-0.8179 -1.7543,-1.2327 -0.3556,-0.4268 -0.5215,-0.9245 -0.5097,-1.4816 0.0119,-0.8654 0.3675,-1.541 1.0786,-2.0269 0.7112,-0.486 1.7187,-0.735 3.0463,-0.7468 0.9838,0.0118 1.9558,0.1185 2.904,0.32 0.9482,0.2133 1.8254,0.4741 2.6314,0.7704 0.4804,0.1838 0.9104,0.3633 1.2922,0.5411 0.2374,0.137 0.7652,0.097 0.9092,-0.4411 l 1.5901,-6.4213 c 0.0491,-0.1985 -0.0951,-0.3238 -0.182,-0.3656 -1.0498,-0.5047 -2.3453,-0.9403 -3.9058,-1.3139 -1.6831,-0.4029 -3.5441,-0.6044 -5.5947,-0.6282 -2.1572,0.0119 -4.1012,0.2964 -5.8435,0.8653 -1.7306,0.5689 -3.2241,1.3749 -4.4568,2.4062 -1.2445,1.0312 -2.1928,2.2402 -2.8447,3.627 -0.6638,1.3869 -0.9957,2.904 -1.0075,4.5516 -0.0356,1.3868 0.2845,2.7144 0.9364,4.0063 0.6638,1.2921 1.7305,2.4774 3.2003,3.5797 1.4698,1.1023 3.4137,2.0505 5.8199,2.8684 1.3157,0.4386 2.3469,0.8534 3.0817,1.2446 0.7349,0.3792 1.2446,0.7941 1.5409,1.2327 0.2964,0.4504 0.4385,0.9719 0.4267,1.5764 0.0118,0.9009 -0.3438,1.5884 -1.0786,2.0862 -0.7349,0.4978 -1.9202,0.7467 -3.5441,0.7586 -1.0905,-0.0119 -2.2165,-0.1422 -3.3899,-0.3911 -1.1853,-0.2609 -2.2877,-0.5809 -3.3426,-0.9721 -0.7143,-0.2597 -1.3544,-0.5033 -1.8836,-0.8088 -0.2936,-0.1695 -0.7866,-0.014 -0.8994,0.4076 l -1.5956,6.3827 c -0.0496,0.1854 -0.0261,0.5338 0.3074,0.7263 z"
       style="fill:#00622a;fill-rule:evenodd"
       id="path12" />
    <path
       d="m 303.9443,323.9679 c 0.0493,-0.3295 0.0965,-0.7235 0.1419,-1.1801 0.0768,-0.7579 0.1186,-1.6002 0.1186,-2.5365 0,-1.7306 -0.1779,-3.4374 -0.5335,-5.1087 -0.3556,-1.6713 -0.9245,-3.2478 -1.6831,-4.7175 -0.7704,-1.4698 -1.7543,-2.7737 -2.9751,-3.8997 -1.2209,-1.126 -2.6788,-2.0031 -4.3856,-2.6432 -1.7069,-0.652 -3.6863,-0.9719 -5.9265,-0.9838 -2.4181,0.0119 -4.5753,0.3793 -6.4718,1.0786 -1.8964,0.7112 -3.5441,1.6831 -4.9308,2.9158 -1.3987,1.2328 -2.5484,2.6432 -3.4611,4.2198 -0.9127,1.5883 -1.5884,3.2596 -2.0388,5.0257 -0.4385,1.7661 -0.6638,3.5441 -0.6638,5.322 0.012,3.6388 0.7468,6.7918 2.1929,9.4232 1.446,2.6432 3.544,4.6819 6.3058,6.1161 2.7617,1.4224 6.1162,2.1455 10.0632,2.1691 2.3588,0 4.5964,-0.1925 6.7207,-0.5452 1.9203,-0.3189 3.7196,-0.8105 5.357,-1.4519 0.3328,-0.1305 0.4735,-0.4898 0.4108,-0.7242 -0.3878,-2.0278 -0.7873,-4.0534 -1.1814,-6.08 -0.0988,-0.5081 -0.5499,-0.5782 -0.8257,-0.5043 -1.2347,0.3885 -2.5106,0.6928 -3.82,0.9018 -1.5642,0.2496 -3.2595,0.3674 -5.0968,0.3674 -1.2683,0 -2.4773,-0.1303 -3.627,-0.4029 -1.1379,-0.2727 -2.1691,-0.6757 -3.07,-1.221 -0.9008,-0.5451 -1.6238,-1.2326 -2.1691,-2.0623 -0.5571,-0.8298 -0.8653,-1.8136 -0.9482,-2.9277 h 21.8655 c 0.3069,0 0.5838,-0.2273 0.6319,-0.5505 z m -22.5686,-6.8459 c 0.0712,-0.723 0.2372,-1.4934 0.5217,-2.2994 0.2844,-0.806 0.6874,-1.5765 1.2208,-2.2876 0.5333,-0.7232 1.2091,-1.3039 2.0149,-1.7543 0.818,-0.4505 1.7899,-0.6876 2.9278,-0.6994 1.2328,0.0118 2.2521,0.2607 3.0581,0.723 0.7941,0.4742 1.4224,1.0787 1.8727,1.8135 0.4386,0.7232 0.7586,1.4936 0.9365,2.2877 0.1777,0.806 0.2607,1.5409 0.2489,2.2165 z"
       style="fill:#00622a;fill-rule:evenodd"
       id="path14" />
  </g>
  <g
     id="Layer1001" />
</svg>
