<?xml version="1.0" encoding="UTF-8"?>
<svg id="Camada_1" xmlns="http://www.w3.org/2000/svg" version="1.1" viewBox="0 0 2500 2500">
  <!-- Generator: Adobe Illustrator 29.6.0, SVG Export Plug-In . SVG Version: 2.1.1 Build 207)  -->
  <defs>
    <style>
      .st0 {
        fill: aqua;
      }

      .st1 {
        fill: #f3a318;
      }
    </style>
  </defs>
  <path class="st1" d="M73.5,1569.97H5.64v-313.5c0-118.69,92.55-182.63,183.97-184.48,93.45-1.9,190.78,60.41,195.73,183.12,2.92,72.27-28.07,133.74-85.02,168.66-60.29,36.96-139.15,38.53-200.9,4.05-9.26-5.18-17.9-11.05-25.92-17.58v159.76-.02ZM73.5,1256.49c0,65.47,32.12,97.16,59.06,112.19,40.02,22.36,93.18,21.3,132.25-2.66,25.41-15.56,55.19-46.99,52.71-108.16-2.43-60.01-42.41-119.77-126.57-118.11-58.46,1.18-117.47,37.72-117.47,116.74h.02Z"/>
  <path class="st1" d="M1137.3,1448.9c-1.37,0-2.73,0-4.12-.05-91.42-1.85-183.94-65.79-183.94-184.48v-318.59h67.86v164.85c8.01-6.52,16.65-12.4,25.92-17.58,61.75-34.51,140.59-32.91,200.9,4.05,56.95,34.9,87.94,96.37,85.02,168.66-4.89,120.91-99.38,183.14-191.63,183.16v-.02ZM1017.1,1264.37c0,79,58.99,115.56,117.47,116.74,83.96,1.71,124.14-58.09,126.57-118.11,2.48-61.19-27.31-92.6-52.71-108.16-39.09-23.96-92.23-25.02-132.25-2.66-26.94,15.06-59.06,46.74-59.06,112.19h-.02Z"/>
  <path class="st1" d="M1750.2,1449.11h-67.86v-48.87c-8.01,6.52-16.65,12.4-25.92,17.58-61.75,34.5-140.59,32.91-200.9-4.05-56.95-34.9-87.94-96.37-85.02-168.66,4.89-120.91,99.38-183.16,191.63-183.16,1.37,0,2.73,0,4.12.05,91.42,1.85,183.97,65.8,183.97,184.48v202.61l-.02.02ZM1561.4,1129.73c-81.71,0-120.71,58.95-123.1,118.13-2.48,61.19,27.31,92.6,52.71,108.16,39.07,23.96,92.23,25.02,132.25,2.66,26.93-15.06,59.06-46.74,59.06-112.19,0-79-58.99-115.56-117.47-116.74-1.16-.02-2.32-.05-3.48-.05l.02.02Z"/>
  <path class="st1" d="M892.93,1447.58h-67.86v-191.1c0-38-10.45-69.13-30.23-89.98-16.4-17.3-38.58-26.85-62.46-26.85-65.34,0-95.1,60.57-95.1,116.84v190.84h-67.86v-190.84c0-121.18,81.99-184.57,162.96-184.57,42.73,0,82.43,17.07,111.77,48.03,31.92,33.7,48.78,80.9,48.78,136.54v191.1Z"/>
  <path class="st1" d="M2127.03,1447.58h-67.85v-191.1c0-38-10.46-69.13-30.23-89.98-16.41-17.3-38.59-26.85-62.47-26.85-65.34,0-95.1,60.57-95.1,116.84v190.84h-67.86v-190.84c0-121.18,81.99-184.57,162.96-184.57,42.73,0,82.42,17.07,111.78,48.03,31.9,33.7,48.77,80.9,48.77,136.54v191.1Z"/>
  <path class="st1" d="M508.25,1083.57h-67.86v363.69h67.86v-363.69Z"/>
  <path class="st1" d="M2422.52,1447l82.27.28-140.82-188.27c34.37-29.49,73.11-73.66,114.11-139.87l-57.71-35.64c-58.63,94.68-102.2,122.71-136.63,143.82-9.44,5.78-18,10.11-25.45,13.34v-294.89h-67.87v503.33h67.87v-133.83c13.54-2.66,30.45-7.89,50.05-18.01l114.21,149.72-.02.02Z"/>
  <path class="st0" d="M2505.64,1585.46v-68.41H950.39v68.41h1555.25Z"/>
</svg>