<?xml version="1.0" encoding="UTF-8" standalone="no"?>
<svg
   version="1.0"
   width="225.000000pt"
   height="225.000000pt"
   viewBox="0 0 225.000000 225.000000"
   preserveAspectRatio="xMidYMid meet"
   id="svg7790"
   sodipodi:docname="icone-cora-com-fundo-pequeno.svg"
   inkscape:version="1.2.2 (732a01da63, 2022-12-09)"
   xmlns:inkscape="http://www.inkscape.org/namespaces/inkscape"
   xmlns:sodipodi="http://sodipodi.sourceforge.net/DTD/sodipodi-0.dtd"
   xmlns="http://www.w3.org/2000/svg"
   xmlns:svg="http://www.w3.org/2000/svg">
  <defs
     id="defs7794" />
  <sodipodi:namedview
     id="namedview7792"
     pagecolor="#505050"
     bordercolor="#eeeeee"
     borderopacity="1"
     inkscape:showpageshadow="0"
     inkscape:pageopacity="0"
     inkscape:pagecheckerboard="0"
     inkscape:deskcolor="#505050"
     inkscape:document-units="pt"
     showgrid="false"
     inkscape:zoom="1.8066667"
     inkscape:cx="104.05904"
     inkscape:cy="149.44649"
     inkscape:window-width="1920"
     inkscape:window-height="1009"
     inkscape:window-x="-8"
     inkscape:window-y="-8"
     inkscape:window-maximized="1"
     inkscape:current-layer="svg7790" />
  <g
     transform="translate(0.000000,225.000000) scale(0.100000,-0.100000)"
     fill="#000000"
     stroke="none"
     id="g7788">
    <path
       d="M0 1125 l0 -1125 1125 0 1125 0 0 1125 0 1125 -1125 0 -1125 0 0 -1125z m1114 593 c11 -16 16 -46 16 -100 0 -93 -13 -112 -83 -121 -105 -15 -227 -107 -274 -209 -63 -136 -52 -271 34 -396 147 -216 480 -214 628 3 39 56 65 123 65 166 0 49 21 59 124 59 68 0 97 -4 105 -14 27 -32 -21 -212 -84 -315 -73 -122 -232 -240 -371 -276 -76 -20 -233 -19 -309 0 -99 26 -182 74 -264 151 -86 81 -130 149 -169 256 -22 63 -26 89 -26 193 0 106 3 130 28 200 66 190 210 333 396 393 117 38 163 40 184 10z m516 -7 c80 -41 124 -142 100 -230 -21 -79 -118 -151 -201 -151 -13 0 -47 11 -76 24 -69 33 -105 86 -111 166 -12 161 145 265 288 191z"
       id="path7786" />
  </g>
  <path
     style="fill:#fe3e6d;fill-opacity:1;fill-rule:evenodd;stroke-width:1.55369"
     d="M 0,150 V 0 H 150 300 V 150 300 H 150 0 Z m 160.53983,82.19481 c 6.97036,-0.661 13.36094,-2.95217 20.14153,-5.60846 18.43371,-7.22139 33.31237,-21.68288 41.56026,-38.25609 4.95049,-9.94745 9.23248,-22.76842 9.33763,-30.48806 0.0568,-4.16947 -1.02663,-4.2947 -2.16555,-5.22027 -1.74948,-1.42171 -5.05709,-1.66561 -15.57485,-1.41643 -12.4681,0.29538 -12.93259,0.44345 -13.50133,7.78896 -0.78984,10.20099 -8.74672,24.87146 -18.09803,32.35512 -4.06688,3.25464 -13.1974,7.58083 -18.26347,9.19816 -5.32014,1.69845 -9.22987,2.17366 -15.49816,2.17366 -6.28317,0 -11.30503,-1.16986 -16.60517,-2.87316 -16.11579,-5.17911 -27.10314,-13.8844 -32.45455,-31.52542 -1.299979,-4.2854 -2.389268,-10.64668 -2.412305,-17.42338 -0.02889,-8.49349 2.035824,-13.15171 5.217255,-20.86678 6.11689,-14.83361 22.07165,-27.32392 37.75554,-29.9316 4.74914,-0.789613 7.27954,-1.89366 8.5065,-3.970734 2.36165,-3.997954 2.16189,-20.168444 -0.15122,-24.641505 -2.42202,-4.683659 -8.22948,-4.109987 -23.42056,0.792821 -8.14481,2.628675 -13.78656,5.479118 -20.25568,9.755015 -16.292929,10.769136 -27.667287,25.524903 -34.268017,45.267123 -2.030209,6.07217 -2.157365,7.11585 -2.68831,15.11411 -0.734623,11.06665 0.464059,24.02345 2.212329,30.07641 4.156013,14.38915 11.79006,27.32865 22.650221,37.7525 15.304997,14.6901 29.588277,20.84501 48.441637,22.68913 4.37697,0.42813 14.07004,-0.22294 19.5343,-0.74112 z m 51.53385,-111.49714 c 6.91907,-2.45624 13.62738,-8.37729 16.6116,-14.47186 4.63125,-9.458242 2.13888,-21.842055 -5.74239,-29.723326 C 217.68,71.239592 212.3473,69.221767 204.567,69.221767 c -15.00854,0 -25.29548,10.451065 -25.29548,25.965355 0,8.144228 1.96914,13.565578 6.77172,18.643598 3.24562,3.43176 6.26573,4.95769 12.07853,7.16592 5.00731,1.90222 8.68055,1.50923 14.04975,-0.39739 z"
     id="path10006"
     transform="scale(0.75)"
     sodipodi:nodetypes="cccccccccssssssssssssssssssssssssscsssssscc" />
  <path
     style="fill:#ffffff;fill-opacity:1;fill-rule:evenodd;stroke-width:0.776845"
     d="m 140.37221,232.74651 c -11.84112,-1.2355 -22.27999,-4.54698 -31.33162,-9.93919 -5.28627,-3.14912 -9.84554,-6.64435 -15.464696,-11.85554 -10.669611,-9.89498 -18.822896,-23.03272 -23.127227,-37.2659 -2.681169,-8.86585 -3.605347,-25.6724 -2.070996,-37.66189 0.657009,-5.1339 3.437937,-13.15786 7.223896,-20.8435 6.767952,-13.7392 16.394535,-24.560407 29.572193,-33.241993 7.10208,-4.678926 12.7958,-7.31205 22.18811,-10.261125 7.28405,-2.287107 11.08639,-3.113804 14.47392,-3.146888 2.91476,-0.02847 4.29815,0.396593 5.4553,1.676193 1.56697,1.732788 2.37379,5.519345 2.6135,12.265648 0.28794,8.103918 -0.47406,12.548997 -2.49519,14.555515 -1.40817,1.398003 -3.088,2.046272 -7.80203,3.01092 -6.61581,1.35381 -12.31059,3.66882 -17.76296,7.22092 -3.5969,2.34329 -5.43309,3.8128 -8.60127,6.88364 -5.89094,5.70994 -8.79,10.08369 -12.22872,18.44922 -1.661314,4.04156 -2.831242,7.63492 -3.507158,10.77202 -0.695812,3.22944 -0.683258,12.01955 0.02391,16.73692 2.35285,15.69552 9.561378,27.19813 21.492338,34.29517 5.62427,3.34556 14.07828,6.40702 21.56691,7.81006 4.11127,0.77027 13.76058,0.70379 17.90508,-0.12335 6.75296,-1.34773 16.21995,-5.38612 22.29059,-9.50861 5.14017,-3.49062 11.03386,-10.75673 14.88712,-18.35376 2.77629,-5.47371 4.17601,-10.01995 4.84465,-15.73522 0.80035,-6.84119 0.80758,-6.84459 14.95493,-7.03096 10.86246,-0.14309 12.23988,0.0117 14.24607,1.6006 1.45576,1.15298 1.75869,2.24734 1.56566,5.65604 -0.66463,11.73643 -8.10114,30.25272 -16.75275,41.71295 -7.34666,9.73163 -17.09454,17.89764 -27.68771,23.19457 -6.36658,3.1835 -15.46167,6.4501 -21.18326,7.60819 -5.70705,1.15516 -20.34838,2.03482 -25.28858,1.51935 z"
     id="path12122"
     transform="scale(0.75)" />
  <path
     style="fill:#ffffff;fill-opacity:1;fill-rule:evenodd;stroke-width:0.776845"
     d="m 200.64576,121.64497 c -1.98735,-0.51029 -5.96338,-2.12718 -8.57637,-3.48765 -5.5164,-2.87216 -9.95827,-8.36978 -11.61446,-14.37503 -0.91515,-3.31823 -1.27096,-8.011576 -0.88038,-11.612681 1.2451,-11.479862 7.59632,-19.178278 18.18868,-22.046776 2.63725,-0.71419 11.32231,-0.750621 13.81426,-0.05795 4.57875,1.272732 7.76845,3.12881 11.09687,6.45723 7.59998,7.599977 10.21712,19.168969 6.41082,28.338857 -3.01572,7.26527 -10.59663,13.77989 -18.89145,16.23428 -3.05505,0.90397 -7.2318,1.14445 -9.54797,0.54972 z"
     id="path12124"
     transform="scale(0.75)" />
</svg>
