<?xml version="1.0" encoding="UTF-8" standalone="no"?>
<svg
   version="1.0"
   width="2500pt"
   height="2500pt"
   viewBox="0 0 2500 2500"
   preserveAspectRatio="xMidYMid"
   id="svg7790"
   sodipodi:docname="icone-cora-com-fundo-pequeno.svg"
   inkscape:version="1.2.2 (732a01da63, 2022-12-09)"
   xmlns:inkscape="http://www.inkscape.org/namespaces/inkscape"
   xmlns:sodipodi="http://sodipodi.sourceforge.net/DTD/sodipodi-0.dtd"
   xmlns="http://www.w3.org/2000/svg"
   xmlns:svg="http://www.w3.org/2000/svg">
  <defs
     id="defs7794" />
  <sodipodi:namedview
     id="namedview7792"
     pagecolor="#505050"
     bordercolor="#eeeeee"
     borderopacity="1"
     inkscape:showpageshadow="0"
     inkscape:pageopacity="0"
     inkscape:pagecheckerboard="0"
     inkscape:deskcolor="#505050"
     inkscape:document-units="pt"
     showgrid="false"
     inkscape:zoom="0.11291667"
     inkscape:cx="1239.8524"
     inkscape:cy="1549.8155"
     inkscape:window-width="1920"
     inkscape:window-height="1009"
     inkscape:window-x="-8"
     inkscape:window-y="-8"
     inkscape:window-maximized="1"
     inkscape:current-layer="svg7790" />
  <g
     transform="matrix(0.1,0,0,-0.1,0,225)"
     fill="#000000"
     stroke="none"
     id="g7788">
    <path
       d="M 0,1125 V 0 H 1125 2250 V 1125 2250 H 1125 0 Z m 1114,593 c 11,-16 16,-46 16,-100 0,-93 -13,-112 -83,-121 -105,-15 -227,-107 -274,-209 -63,-136 -52,-271 34,-396 147,-216 480,-214 628,3 39,56 65,123 65,166 0,49 21,59 124,59 68,0 97,-4 105,-14 27,-32 -21,-212 -84,-315 -73,-122 -232,-240 -371,-276 -76,-20 -233,-19 -309,0 -99,26 -182,74 -264,151 -86,81 -130,149 -169,256 -22,63 -26,89 -26,193 0,106 3,130 28,200 66,190 210,333 396,393 117,38 163,40 184,10 z m 516,-7 c 80,-41 124,-142 100,-230 -21,-79 -118,-151 -201,-151 -13,0 -47,11 -76,24 -69,33 -105,86 -111,166 -12,161 145,265 288,191 z"
       id="path7786" />
  </g>
  <path
     style="fill:#fe3e6d;fill-opacity:1;fill-rule:evenodd;stroke-width:12.9642"
     d="M 0,1251.6144 V 0 H 1251.6144 2503.2288 V 1251.6144 2503.2288 H 1251.6144 0 Z m 1339.5597,685.8414 c 58.1614,-5.5155 111.485,-24.6332 168.0629,-46.7976 153.8126,-60.2559 277.9616,-180.924 346.7827,-319.2125 41.3074,-83.0024 77.0367,-189.9818 77.9142,-254.3952 0.4739,-34.7905 -8.5664,-35.8355 -18.0696,-43.5584 -14.5979,-11.8629 -42.1968,-13.8981 -129.958,-11.8188 -104.0351,2.4646 -107.9109,3.7001 -112.6564,64.9918 -6.5905,85.118 -72.9835,207.5298 -151.0117,269.9742 -33.9344,27.1569 -110.1204,63.2552 -152.3922,76.7502 -44.3917,14.1721 -77.0149,18.1373 -129.3181,18.1373 -52.4273,0 -94.3303,-9.7615 -138.5551,-23.9739 -134.47172,-43.215 -226.15123,-115.8528 -270.8039,-263.0511 -10.84715,-35.7579 -19.93628,-88.8369 -20.12851,-145.3824 -0.24109,-70.8705 16.98711,-109.7391 43.53327,-174.1144 51.03993,-123.77307 184.16794,-227.99342 315.03584,-249.75215 39.6273,-6.58861 60.7412,-15.80088 70.9791,-33.13218 19.7057,-33.35932 18.0389,-168.28743 -1.2619,-205.61109 -20.2095,-39.08089 -68.6675,-34.29412 -195.4233,6.61538 -67.9611,21.93391 -115.03641,45.71828 -169.01537,81.39678 -135.94975,89.8587 -230.85849,212.98223 -285.93561,377.71326 -16.94026,50.6667 -18.00126,59.3753 -22.43152,126.1136 -6.12976,92.3412 3.87215,200.454 18.45989,250.9604 34.67817,120.0645 98.37739,228.0328 188.99562,315.0105 127.70635,122.5755 246.88739,173.9328 404.20169,189.3203 36.5218,3.5724 117.4018,-1.8603 162.996,-6.184 z m 430.0034,-930.3429 c 57.7334,-20.49507 113.7081,-69.90087 138.6088,-120.75455 38.6436,-78.92048 17.847,-182.25221 -47.915,-248.01429 -43.9141,-43.91407 -88.4107,-60.751 -153.3302,-60.751 -125.2328,0 -211.0679,87.20469 -211.0679,216.65741 0,67.95622 16.4306,113.19249 56.5038,155.56398 27.0817,28.63493 52.2819,41.36743 100.7845,59.79315 41.7814,15.8723 72.4313,12.5931 117.2324,-3.3159 z"
     id="path10006"
     sodipodi:nodetypes="cccccccccssssssssssssssssssssssssscsssssscc" />
  <path
     style="fill:#ffffff;fill-opacity:1;fill-rule:evenodd;stroke-width:6.48207"
     d="m 1171.2792,1942.0592 c -98.8035,-10.3091 -185.90639,-37.9404 -261.43406,-82.9335 -44.10914,-26.2766 -82.15213,-55.4411 -129.03891,-98.9239 -89.02825,-82.5646 -157.06005,-192.1872 -192.9758,-310.9502 -22.37193,-73.9775 -30.08336,-214.2129 -17.28059,-314.2544 5.48215,-42.8377 28.68648,-109.7904 60.27688,-173.92015 56.47245,-114.6412 136.79757,-204.93439 246.75322,-277.37437 59.26044,-39.04141 106.76938,-61.01245 185.13976,-85.61981 60.7788,-19.08384 92.5058,-25.98188 120.7717,-26.25794 24.321,-0.23753 35.8642,3.30922 45.5196,13.98632 13.0749,14.45855 19.8071,46.05394 21.8073,102.34574 2.4026,67.61987 -3.9556,104.71003 -20.8201,121.45261 -11.75,11.66507 -25.7666,17.07429 -65.1009,25.12341 -55.203,11.29631 -102.7208,30.61299 -148.2159,60.25205 -30.01284,19.55263 -45.33418,31.81437 -71.76978,57.43775 -49.15457,47.64429 -73.3446,84.13929 -102.03761,153.94209 -13.86217,33.7231 -23.62416,63.7064 -29.26407,89.8827 -5.80592,26.9468 -5.70116,100.2923 0.19948,139.6545 19.6324,130.9649 79.78105,226.9438 179.33413,286.1622 46.92945,27.9157 117.47055,53.4608 179.95635,65.1679 34.3049,6.4271 114.8197,5.8724 149.4017,-1.0291 56.3473,-11.2457 135.3409,-44.9424 185.9949,-79.3408 42.89,-29.126 92.0675,-89.7552 124.2196,-153.1456 23.1655,-45.6731 34.8449,-83.6074 40.4241,-131.2961 6.6783,-57.0836 6.7386,-57.112 124.7854,-58.667 90.6375,-1.194 102.1307,0.1001 118.8705,13.3556 12.147,9.6205 14.6748,18.7519 13.0641,47.1945 -5.5457,97.9299 -67.5967,252.4316 -139.7865,348.0568 -61.3013,81.2017 -142.6385,149.3397 -231.029,193.5378 -53.1233,26.5633 -129.0136,53.8202 -176.7551,63.4834 -47.6202,9.6388 -169.7889,16.9787 -211.0104,12.6776 z"
     id="path12122" />
  <path
     style="fill:#ffffff;fill-opacity:1;fill-rule:evenodd;stroke-width:6.48207"
     d="m 1674.2075,1015.0173 c -16.5826,-4.2579 -49.7591,-17.7494 -71.5621,-29.10129 -46.0294,-23.96558 -83.0927,-69.83824 -96.9121,-119.94663 -7.6362,-27.68763 -10.605,-66.84936 -7.3461,-96.89732 10.3893,-95.78907 63.3845,-160.0254 151.7681,-183.96041 22.0055,-5.95928 94.4744,-6.26326 115.2676,-0.48351 38.2055,10.61979 64.8206,26.10709 92.5933,53.87975 63.4149,63.41493 85.2526,159.94771 53.4925,236.46213 -25.1635,60.62212 -88.4193,114.98073 -157.632,135.46038 -25.4917,7.5428 -60.3429,9.5494 -79.6692,4.5869 z"
     id="path12124" />
</svg>
