<?xml version="1.0" encoding="UTF-8" standalone="no"?>
<svg
   viewBox="0 0 234.69 234.45"
   version="1.1"
   id="svg12"
   sodipodi:docname="icone-cora-rosa-1.svg"
   inkscape:version="1.2.2 (732a01da63, 2022-12-09)"
   xmlns:inkscape="http://www.inkscape.org/namespaces/inkscape"
   xmlns:sodipodi="http://sodipodi.sourceforge.net/DTD/sodipodi-0.dtd"
   xmlns="http://www.w3.org/2000/svg"
   xmlns:svg="http://www.w3.org/2000/svg">
  <sodipodi:namedview
     id="namedview14"
     pagecolor="#505050"
     bordercolor="#eeeeee"
     borderopacity="1"
     inkscape:showpageshadow="0"
     inkscape:pageopacity="0"
     inkscape:pagecheckerboard="0"
     inkscape:deskcolor="#505050"
     showgrid="false"
     inkscape:zoom="0.20433562"
     inkscape:cx="2412.6974"
     inkscape:cy="1389.8703"
     inkscape:window-width="1920"
     inkscape:window-height="1009"
     inkscape:window-x="-8"
     inkscape:window-y="-8"
     inkscape:window-maximized="1"
     inkscape:current-layer="svg12" />
  <defs
     id="defs4">
    <style
       id="style2">.cls-1{fill:#fe3e6d;fill-rule:evenodd;}</style>
  </defs>
  <g
     id="Camada_2"
     data-name="Camada 2">
    <g
       id="Camada_1-2"
       data-name="Camada 1">
      <g
         id="Camada_2-2"
         data-name="Camada 2">
        <g
           id="Camada_1-2-2"
           data-name="Camada 1-2">
          <path
             class="cls-1"
             d="M97.71,1.22A90,90,0,0,1,110.51,0a7.24,7.24,0,0,1,5.1,1.8,6.67,6.67,0,0,1,2.1,4.9V36a6.75,6.75,0,0,1-6.2,6.7,74.62,74.62,0,1,0,78.3,92.6,69.6,69.6,0,0,0,2-11.9,6.75,6.75,0,0,1,6.7-6.2H228a6.79,6.79,0,0,1,6.7,6.8v.4a117.46,117.46,0,1,1-137-123.2Zm99.3-1a37.6,37.6,0,1,1-37.6,37.6h0A37.67,37.67,0,0,1,197,.22Z"
             id="path6" />
        </g>
      </g>
    </g>
  </g>
</svg>
