<?xml version="1.0" encoding="UTF-8" standalone="no"?>
<svg
   height="2500"
   viewBox="0 0 400 400.28409"
   width="2500"
   version="1.1"
   id="svg8"
   sodipodi:docname="banco-da-amazonia.svg"
   inkscape:version="1.2.2 (732a01da63, 2022-12-09)"
   xmlns:inkscape="http://www.inkscape.org/namespaces/inkscape"
   xmlns:sodipodi="http://sodipodi.sourceforge.net/DTD/sodipodi-0.dtd"
   xmlns="http://www.w3.org/2000/svg"
   xmlns:svg="http://www.w3.org/2000/svg">
  <defs
     id="defs12" />
  <sodipodi:namedview
     id="namedview10"
     pagecolor="#505050"
     bordercolor="#eeeeee"
     borderopacity="1"
     inkscape:showpageshadow="0"
     inkscape:pageopacity="0"
     inkscape:pagecheckerboard="0"
     inkscape:deskcolor="#505050"
     showgrid="false"
     inkscape:zoom="0.17338258"
     inkscape:cx="397.96385"
     inkscape:cy="1049.7017"
     inkscape:window-width="1920"
     inkscape:window-height="1009"
     inkscape:window-x="-8"
     inkscape:window-y="-8"
     inkscape:window-maximized="1"
     inkscape:current-layer="svg8" />
  <path
     d="m 311.18811,234.29967 c -24.53649,-2.48559 -46.42013,-12.71569 -62.8079,-22.64084 -12.39898,-7.61791 -21.64593,-14.90211 -26.3526,-18.51544 l -40.639,74.80973 c 1.4738,1.73763 2.22972,2.88836 2.22972,2.88836 13.67312,10.66739 26.59031,18.90095 38.8229,24.91357 35.08133,17.43949 64.5622,17.14031 88.75163,7.95737 60.32145,-22.96305 87.91014,-101.62777 87.91014,-101.62777 -29.88498,27.99181 -60.53538,34.92502 -87.91489,32.21502 z M 0.31968961,266.95773 C 38.286827,227.61962 72.916511,217.64844 101.66998,220.64038 L 138.26315,153.8513 C 31.345678,134.43253 0.31968961,266.95773 0.31968961,266.95773 Z"
     fill="#ffcc00"
     id="path2"
     style="stroke-width:5.23013" />
  <path
     d="m 222.43648,295.7608 -19.51129,63.25055 h 108.26292 v -55.29316 c -24.19419,9.18292 -53.6703,9.48211 -88.75163,-7.95739 z M 202.92519,36.015336 138.26791,153.8513 101.67473,220.64038 25.02733,360.2944 h 106.09499 l 50.26153,-92.33552 40.63901,-74.80973 74.14669,-136.299632 -47.78934,154.815072 c 16.38777,9.92514 38.27141,20.15523 62.8079,22.64084 V 36.015336 Z"
     fill="#278428"
     id="path4"
     style="stroke-width:5.23013" />
</svg>
