<?xml version="1.0" encoding="UTF-8" standalone="no"?>
<!-- Generator: Adobe Illustrator 16.0.0, SVG Export Plug-In . SVG Version: 6.00 Build 0)  -->

<svg
   version="1.1"
   id="Capa_1"
   x="0px"
   y="0px"
   width="2500"
   height="2500"
   viewBox="0 0 2500.0001 2500"
   enable-background="new 0 0 98.27 37.375"
   xml:space="preserve"
   sodipodi:docname="logo_branco.svg"
   inkscape:version="1.3.2 (091e20e, 2023-11-25, custom)"
   xmlns:inkscape="http://www.inkscape.org/namespaces/inkscape"
   xmlns:sodipodi="http://sodipodi.sourceforge.net/DTD/sodipodi-0.dtd"
   xmlns:xlink="http://www.w3.org/1999/xlink"
   xmlns="http://www.w3.org/2000/svg"
   xmlns:svg="http://www.w3.org/2000/svg"><defs
   id="defs13" /><sodipodi:namedview
   id="namedview13"
   pagecolor="#000000"
   bordercolor="#000000"
   borderopacity="0.25"
   inkscape:showpageshadow="2"
   inkscape:pageopacity="0.0"
   inkscape:pagecheckerboard="0"
   inkscape:deskcolor="#d1d1d1"
   showguides="false"
   inkscape:zoom="0.13658162"
   inkscape:cx="-900.56043"
   inkscape:cy="-91.520369"
   inkscape:window-width="2400"
   inkscape:window-height="1261"
   inkscape:window-x="-9"
   inkscape:window-y="-9"
   inkscape:window-maximized="1"
   inkscape:current-layer="Capa_1" />
<g
   id="g13"
   transform="matrix(25.936868,0,0,25.936868,-26.732323,896.60008)">
	<path
   fill="#ffffff"
   d="M 81.445,1 H 70.22 V 32.085 L 61.89,1 H 51.857 L 48.484,13.589 45.111,1 H 35.077 L 28.754,24.598 C 28.203,22.182 26.657,20.108 23.938,18.884 27.17,17.01 28.081,13.085 28.08,10.691 28.078,5.248 23.762,1 15.414,1 H 1.072 v 35.785 h 14.967 c 4.571,0 7.767,-1.212 10.006,-3.226 0.144,-0.13 0.281,-0.266 0.416,-0.403 l -0.973,3.629 h 10.034 l 4.572,-17.063 3.373,12.59 H 53.5 l 3.373,-12.59 4.572,17.063 h 8.774 1.259 7.688 V 26.348 h 2.278 c 9.888,0 15.752,-5.109 15.752,-12.506 C 97.197,6.443 91.854,1 81.445,1 M 10.018,8.455 h 5.107 c 2.927,0 4.414,1.563 4.414,3.515 0,1.954 -1.487,3.565 -4.509,3.565 H 10.017 V 8.455 Z M 15.27,29.33 h -5.252 v -7.455 h 5.348 c 2.974,0 4.749,1.5 4.749,3.728 0,2.129 -1.631,3.727 -4.845,3.727 M 82.586,18.893 H 79.167 V 8.455 h 3.419 c 3.502,0 5.91,1.868 5.91,5.219 0,3.349 -2.455,5.219 -5.91,5.219"
   id="path1" />
	<g
   id="g6">
		<defs
   id="defs1">
			<polygon
   id="SVGID_1_"
   points="25.488,36.785 35.522,36.785 45.111,1 35.077,1 " />
		</defs>
		<clipPath
   id="SVGID_2_">
			<use
   xlink:href="#SVGID_1_"
   overflow="visible"
   id="use1" />
		</clipPath>
		
			<linearGradient
   id="SVGID_3_"
   gradientUnits="userSpaceOnUse"
   x1="-369.95871"
   y1="322.8262"
   x2="-369.8186"
   y2="322.8262"
   gradientTransform="matrix(0,255.1173,255.1173,0,-82323.461,94383.859)">
			<stop
   offset="0"
   style="stop-color:#FFFFFF"
   id="stop1" />
			<stop
   offset="0.2112"
   style="stop-color:#FFFFFF"
   id="stop2" />
			<stop
   offset="0.3337"
   style="stop-color:#CFF0FF"
   id="stop3" />
			<stop
   offset="0.6111"
   style="stop-color:#58CAFF"
   id="stop4" />
			<stop
   offset="0.6953"
   style="stop-color:#33BEFF"
   id="stop5" />
			<stop
   offset="1"
   style="stop-color:#33BEFF"
   id="stop6" />
		</linearGradient>
		<rect
   x="25.488001"
   y="1"
   clip-path="url(#SVGID_2_)"
   fill="url(#SVGID_3_)"
   width="19.622999"
   height="35.785"
   id="rect6"
   style="fill:url(#SVGID_3_)" />
	</g>
	<g
   id="g12">
		<defs
   id="defs6">
			<polygon
   id="SVGID_4_"
   points="43.468,32.313 53.501,32.313 61.89,1 51.857,1 " />
		</defs>
		<clipPath
   id="SVGID_5_">
			<use
   xlink:href="#SVGID_4_"
   overflow="visible"
   id="use6" />
		</clipPath>
		
			<linearGradient
   id="SVGID_6_"
   gradientUnits="userSpaceOnUse"
   x1="-369.97049"
   y1="322.60349"
   x2="-369.8298"
   y2="322.60349"
   gradientTransform="matrix(0,-223.2282,-223.2282,0,72066.906,-82555.594)">
			<stop
   offset="0"
   style="stop-color:#FFFFFF"
   id="stop7" />
			<stop
   offset="0.1559"
   style="stop-color:#FFFFFF"
   id="stop8" />
			<stop
   offset="0.3551"
   style="stop-color:#DCC2FD"
   id="stop9" />
			<stop
   offset="0.5938"
   style="stop-color:#B57FFB"
   id="stop10" />
			<stop
   offset="0.7059"
   style="stop-color:#A664FA"
   id="stop11" />
			<stop
   offset="1"
   style="stop-color:#A664FA"
   id="stop12" />
		</linearGradient>
		<rect
   x="43.467999"
   y="1"
   clip-path="url(#SVGID_5_)"
   fill="url(#SVGID_6_)"
   width="18.423"
   height="31.313"
   id="rect12"
   style="fill:url(#SVGID_6_)" />
	</g>
</g>
</svg>
