<?xml version="1.0" encoding="UTF-8" standalone="no"?>
<svg
   width="2500"
   height="2500"
   viewBox="0 0 2500 2500"
   fill="none"
   version="1.1"
   id="svg4"
   sodipodi:docname="logoabc-negativada.svg"
   inkscape:version="1.2.2 (732a01da63, 2022-12-09)"
   xmlns:inkscape="http://www.inkscape.org/namespaces/inkscape"
   xmlns:sodipodi="http://sodipodi.sourceforge.net/DTD/sodipodi-0.dtd"
   xmlns="http://www.w3.org/2000/svg"
   xmlns:svg="http://www.w3.org/2000/svg">
  <defs
     id="defs8" />
  <sodipodi:namedview
     id="namedview6"
     pagecolor="#505050"
     bordercolor="#eeeeee"
     borderopacity="1"
     inkscape:showpageshadow="0"
     inkscape:pageopacity="0"
     inkscape:pagecheckerboard="0"
     inkscape:deskcolor="#505050"
     showgrid="false"
     inkscape:zoom="0.21011616"
     inkscape:cx="1265.9664"
     inkscape:cy="1384.9482"
     inkscape:window-width="1920"
     inkscape:window-height="1009"
     inkscape:window-x="-8"
     inkscape:window-y="-8"
     inkscape:window-maximized="1"
     inkscape:current-layer="svg4" />
  <path
     fill-rule="evenodd"
     clip-rule="evenodd"
     d="m 392.99194,380.8097 c 0,21.77703 -15.32878,31.01004 -39.54184,31.01004 h -50.57788 v -62.02008 h 54.14008 c 23.15542,0 35.97964,10.88852 35.97964,30.18227 z m 13.896,117.31391 v -0.82865 c 0,-19.70142 -12.47068,-31.83424 -40.61883,-31.83424 h -63.39689 v 64.50157 h 65.1806 c 24.23204,0 38.83512,-10.05898 38.83512,-31.83868 z M 808.737,463.78127 h -66.25722 l 33.11744,-95.12744 z m 557.6525,728.12423 c 0,78.7039 -55.3272,111.9871 -142.8043,111.9871 H 1045.1291 V 1079.914 h 191.3175 c 83.6328,0 129.9429,39.3409 129.9429,108.965 z m -97.0673,305.4697 c 101.5963,0 146.6114,43.8917 146.6114,114.9871 v 3 c 0,77.2015 -50.8838,113.5158 -135.4396,114.8098 h -235.3649 v -232.7969 z m 866.7511,-965.31691 c 44.1777,0 74.8092,-41.04243 74.8092,-91.32363 v -0.85346 c 0,-50.27809 -31.3386,-92.1505 -75.5163,-92.1505 -44.1777,0 -74.8092,41.04466 -74.8092,91.32275 v 0.82775 c 0,50.27941 31.3349,92.17709 75.5163,92.17709 z M 2493.3911,0 v 1730.1721 h -5.1654 L 2385.1556,1607.705 c -69.867,74.6713 -132.0529,122.4671 -233.6679,122.4671 -152.3723,0 -257.772,-149.3605 -257.772,-328.5655 v -2.9777 c 0,-179.2538 107.9303,-325.5656 257.772,-325.5656 79.1409,0 143.2211,35.5654 204.6851,94.9976 l 125.4771,-169.50942 c -78.6163,-82.55458 -175.5497,-137.59539 -328.8895,-137.59539 -273.03,0 -463.5102,243.45401 -463.5102,540.65051 v 2.969 c 0,123.1406 32.7192,235.6417 89.3229,325.5965 h -178.8468 c 6.8624,-26.2554 10.4685,-55.0365 10.4685,-86.4365 v -2.9999 c 0,-140.3871 -63.4624,-213.5252 -166.3353,-259.8231 63.4848,-41.8179 116.8322,-110.4849 116.8322,-228.4498 v -2.9999 c 0,-164.25397 -111.7523,-270.29429 -293.3233,-270.29429 H 854.63028 V 1730.1721 H 811.2676 L 503.57942,879.7624 H 312.74568 L 5.0577509,1730.1721 H 0 V 0 Z m -490.1858,440.70896 c 0,83.40849 55.2193,150.83471 132.1609,150.83471 76.9453,0 132.8866,-68.30361 132.8866,-151.63677 v -0.87872 c 0,-83.35753 -55.2156,-150.80856 -132.1795,-150.80856 -76.9453,0 -132.868,68.3045 -132.868,151.68728 z m -434.2408,0 c 0,84.21055 54.5122,150.83471 127.87,150.83471 48.0964,0 76.5918,-20.09581 102.2589,-52.34661 L 1764.171,497.7115 c -19.5936,20.94663 -37.0548,34.34679 -65.5501,34.34679 -42.7524,0 -72.3084,-41.87109 -72.3084,-92.15139 v -0.87872 c 0,-50.22669 30.2817,-91.32318 72.3084,-91.32318 24.9339,0 44.5275,12.59544 63.7712,33.1047 l 34.8963,-47.35523 c -23.155,-26.79455 -51.3006,-45.23485 -98.3215,-45.23485 -76.5917,0 -130.0024,68.3045 -130.0024,151.68728 z m -448.8662,145.81851 h 54.1363 V 400.10346 l 120.7732,186.42401 h 46.6413 V 293.2367 H 1287.509 V 473.81366 L 1170.6769,293.2367 h -50.5786 z m -475.93628,0 h 55.92267 l 22.8015,-65.76892 h 105.4444 l 22.77917,65.76892 h 57.35172 L 801.61036,291.14205 h -50.57862 z m -394.72615,0 h 118.61695 c 56.29258,0 93.34735,-26.82248 93.34735,-80.46302 v -0.80207 c 0,-39.38956 -17.811,-59.09542 -46.66363,-72.07949 17.79239,-11.74198 32.76763,-30.18271 32.76763,-63.23601 v -0.87916 c 0,-46.06218 -31.36091,-75.83102 -82.29084,-75.83102 H 249.43587 Z m 157.45207,561.69463 201.73767,581.9765 H 205.14729 Z M 2493.3911,2492.6432 h -302.0836 v -527.9727 h 98.7606 v 422.371 h 203.323 z m -549.0112,0 h 98.7606 v -527.9727 h -98.7606 z m -303.0475,7.5287 c -67.9691,0 -136.6043,-27.9081 -190.4579,-84.4733 l 58.3417,-82.2178 c 40.4189,39.261 82.7508,64.1161 134.029,64.1161 40.419,0 64.7836,-18.8551 64.7836,-49.7899 v -1.4711 c 0,-29.4326 -15.3921,-44.5122 -90.4246,-67.1427 -90.4245,-27.1282 -148.7847,-56.5873 -148.7847,-161.3824 v -1.5288 c 0,-95.7952 65.4199,-159.1624 157.1209,-159.1624 65.4236,0 121.2085,24.1327 166.7297,67.1426 l -51.3043,87.4689 c -39.7566,-32.4369 -78.8805,-52.0098 -116.7242,-52.0098 -37.8214,0 -57.7016,20.3794 -57.7016,45.9833 v 1.5022 c 0,34.7057 19.2438,46.0099 96.8218,69.438 91.0832,27.8815 142.3912,66.3405 142.3912,158.3869 v 1.5022 c 0,104.7996 -67.9765,163.638 -164.8206,163.638 z m -344.9179,-7.5287 -41.0516,-118.4302 h -189.8252 l -41.0517,118.4302 H 923.83491 l 192.34839,-531.7481 h 91.0609 l 192.393,531.7481 z m -135.9642,-392.1897 -59.6404,171.1888 H 1220.087 Z M 762.69113,2492.6432 666.50206,2323.7054 H 588.9241 v 168.9378 h -98.78295 v -527.9727 h 205.21354 c 105.81654,0 169.32731,65.6138 169.32731,174.2421 v 1.5021 c 0,85.2178 -39.14624,138.7785 -96.18908,163.6601 l 109.64595,188.5684 z m 1.93145,-347.7041 c 0,-49.7899 -29.48528,-75.4203 -77.58168,-75.4203 h -98.1168 v 151.6115 h 100.02964 c 48.0964,0 75.66884,-30.1814 75.66884,-74.6669 z M 213.61366,2492.6432 H 0.06597066 V 1964.6705 H 208.46797 c 91.72144,0 148.14874,53.5652 148.14874,136.5319 v 1.4977 c 0,59.5962 -26.9383,92.7775 -59.00033,113.9059 51.94106,23.3572 84.02504,58.8118 84.02504,129.7033 v 1.5243 c 0,96.5485 -66.71868,144.8096 -168.02776,144.8096 z m 44.88215,-371.8325 c 0,-34.71 -23.08991,-54.3185 -64.76155,-54.3185 H 96.251224 v 111.6326 h 91.061996 c 43.6068,0 71.18259,-16.5817 71.18259,-55.8162 z m 25.00313,211.1723 c 0,-35.4369 -22.4301,-57.3141 -73.09618,-57.3141 H 96.251224 v 116.1525 H 213.61366 c 43.6068,0 69.88528,-18.1061 69.88528,-57.3141 z"
     fill="#1e1e1e"
     id="path2"
     style="stroke-width:40.609;fill:#e1e1e1;fill-opacity:1" />
</svg>
