<?xml version="1.0" encoding="UTF-8" standalone="no"?>
<!-- Generator: Adobe Illustrator 17.0.0, SVG Export Plug-In . SVG Version: 6.00 Build 0)  -->

<svg
   version="1.1"
   id="Layer_1"
   x="0px"
   y="0px"
   width="2500"
   height="2500"
   viewBox="0 0 2500 2500"
   enable-background="new 0 0 2000 2000"
   xml:space="preserve"
   sodipodi:docname="Logo_BNB_nome.svg"
   inkscape:version="1.2.2 (732a01da63, 2022-12-09)"
   xmlns:inkscape="http://www.inkscape.org/namespaces/inkscape"
   xmlns:sodipodi="http://sodipodi.sourceforge.net/DTD/sodipodi-0.dtd"
   xmlns="http://www.w3.org/2000/svg"
   xmlns:svg="http://www.w3.org/2000/svg"><defs
   id="defs49" /><sodipodi:namedview
   id="namedview47"
   pagecolor="#505050"
   bordercolor="#eeeeee"
   borderopacity="1"
   inkscape:showpageshadow="0"
   inkscape:pageopacity="0"
   inkscape:pagecheckerboard="0"
   inkscape:deskcolor="#505050"
   showgrid="false"
   inkscape:zoom="0.19162594"
   inkscape:cx="1054.137"
   inkscape:cy="1236.7846"
   inkscape:window-width="1920"
   inkscape:window-height="1009"
   inkscape:window-x="-8"
   inkscape:window-y="-8"
   inkscape:window-maximized="1"
   inkscape:current-layer="Layer_1" />
<g
   id="g10"
   transform="matrix(3.4897717,0,0,3.4897717,-2.7736684,-2241.99)">
	<path
   fill="#a80a35"
   d="m 165.772,733.125 v 139.384 c 161.605,-7.071 212.703,73.016 212.703,73.016 -16.572,-198.681 -212.703,-212.4 -212.703,-212.4 z"
   id="path2" />
	<path
   fill="#a80a35"
   d="m 378.476,945.525 c 0,0 51.098,-80.087 212.703,-73.016 V 733.125 c 0,0 -196.13,13.719 -212.703,212.4 z"
   id="path4" />
	<path
   fill="#a80a35"
   d="m 378.628,945.371 c 0,0 80.086,51.098 73.015,212.703 h 139.384 c 0,0 -13.72,-196.13 -212.399,-212.703 z"
   id="path6" />
	<path
   fill="#a80a35"
   d="M 28.258,1358.761 H 172.843 C 143.552,1006.842 378.323,945.373 378.323,945.373 -0.731,961.391 28.258,1358.761 28.258,1358.761 Z"
   id="path8" />
</g>
<path
   fill="#f68c1f"
   d="M 2022.2291,5.0843972 H 613.80964 c -192.40158,0 -348.3769,155.9754328 -348.3769,348.3769728 V 1366.6676 c 52.94679,-66.8014 112.56256,-130.706 179.7651,-190.2101 V 371.76867 c 0,-103.23449 83.69171,-186.9191 186.92613,-186.9191 H 2003.9287 c 103.2343,0 186.9226,83.68461 186.9226,186.9191 V 1743.5768 c 0,103.2239 -83.6917,186.9261 -186.9226,186.9261 H 776.64588 v 179.7548 H 2022.2326 c 192.4015,0 348.3768,-155.9754 348.3768,-348.3771 V 353.46137 c 0,-192.40154 -155.9787,-348.3769728 -348.3803,-348.3769728 z"
   id="path12"
   style="stroke-width:3.48978" />

</svg>
