<?xml version="1.0" encoding="UTF-8" standalone="no"?>
<!-- Generator: Adobe Illustrator 17.0.0, SVG Export Plug-In . SVG Version: 6.00 Build 0)  -->

<svg
   version="1.1"
   id="Layer_1"
   x="0px"
   y="0px"
   width="2500"
   height="2500"
   viewBox="0 0 2500 2500"
   enable-background="new 0 0 2000 2000"
   xml:space="preserve"
   sodipodi:docname="Logo_BNB_nome.svg"
   inkscape:version="1.2.2 (732a01da63, 2022-12-09)"
   xmlns:inkscape="http://www.inkscape.org/namespaces/inkscape"
   xmlns:sodipodi="http://sodipodi.sourceforge.net/DTD/sodipodi-0.dtd"
   xmlns="http://www.w3.org/2000/svg"
   xmlns:svg="http://www.w3.org/2000/svg"><defs
   id="defs49" /><sodipodi:namedview
   id="namedview47"
   pagecolor="#505050"
   bordercolor="#eeeeee"
   borderopacity="1"
   inkscape:showpageshadow="0"
   inkscape:pageopacity="0"
   inkscape:pagecheckerboard="0"
   inkscape:deskcolor="#505050"
   showgrid="false"
   inkscape:zoom="0.19162594"
   inkscape:cx="1054.137"
   inkscape:cy="819.30454"
   inkscape:window-width="1920"
   inkscape:window-height="1009"
   inkscape:window-x="-8"
   inkscape:window-y="-8"
   inkscape:window-maximized="1"
   inkscape:current-layer="Layer_1" />
<g
   id="g10"
   transform="matrix(1.248656,0,0,1.248656,-6.8996578,48.629699)">
	<path
   fill="#a80a35"
   d="m 165.772,733.125 v 139.384 c 161.605,-7.071 212.703,73.016 212.703,73.016 -16.572,-198.681 -212.703,-212.4 -212.703,-212.4 z"
   id="path2" />
	<path
   fill="#a80a35"
   d="m 378.476,945.525 c 0,0 51.098,-80.087 212.703,-73.016 V 733.125 c 0,0 -196.13,13.719 -212.703,212.4 z"
   id="path4" />
	<path
   fill="#a80a35"
   d="m 378.628,945.371 c 0,0 80.086,51.098 73.015,212.703 h 139.384 c 0,0 -13.72,-196.13 -212.399,-212.703 z"
   id="path6" />
	<path
   fill="#a80a35"
   d="M 28.258,1358.761 H 172.843 C 143.552,1006.842 378.323,945.373 378.323,945.373 -0.731,961.391 28.258,1358.761 28.258,1358.761 Z"
   id="path8" />
</g>
<path
   fill="#f68c1f"
   d="M 717.65544,852.64301 H 213.71662 c -68.84215,0 -124.650824,55.80868 -124.650824,124.65083 v 362.52976 c 18.944604,-23.9018 40.275394,-46.7672 64.320764,-68.058 V 983.84429 c 0,-36.93774 29.94527,-66.88051 66.88301,-66.88051 h 490.83791 c 36.93774,0 66.88176,29.94277 66.88176,66.88051 v 490.83911 c 0,36.934 -29.94527,66.883 -66.88176,66.883 H 271.98016 v 64.3171 h 445.67652 c 68.84215,0 124.65083,-55.8087 124.65083,-124.6509 V 977.29384 c 0,-68.84215 -55.80993,-124.65083 -124.65207,-124.65083 z"
   id="path12"
   style="stroke-width:1.24866" />
<g
   id="g44"
   transform="matrix(1.248656,0,0,1.248656,-6.8996578,48.629699)">
	<path
   fill="#a80a35"
   d="m 901.159,900.756 c 12.3,-10.725 20.714,-26.001 20.714,-45.503 0,-29.902 -21.038,-48.102 -44.015,-53.952 v -0.975 c 23.625,-8.774 36.249,-26.976 36.249,-47.127 0,-18.852 -9.062,-33.153 -22.655,-41.277 -14.563,-10.075 -33.012,-13.976 -62.14,-13.976 -22.655,0 -45.634,2.276 -58.256,4.875 v 215.16 c 10.357,1.3 26.863,2.926 48.872,2.926 40.129,0 65.697,-6.825 81.231,-20.151 z M 810.538,729.147 c 4.208,-0.975 11.003,-1.625 22.655,-1.625 25.244,0 40.78,9.426 40.78,30.227 0,18.525 -15.211,31.527 -43.045,31.527 h -20.39 z m 0,89.056 h 19.743 c 27.509,0 49.842,10.4 49.842,36.077 0,26.976 -22.979,36.402 -48.548,36.402 -9.062,0 -15.859,0 -21.036,-0.975 v -71.504 z"
   id="path14" />
	<path
   fill="#a80a35"
   d="m 1033.846,901.082 h 0.971 l 2.911,17.552 h 35.925 c -1.941,-9.75 -2.588,-23.727 -2.588,-38.027 v -56.878 c 0,-34.777 -14.565,-66.953 -65.053,-66.953 -24.923,0 -45.312,6.825 -56.963,13.976 l 7.768,26.001 c 10.681,-6.825 26.862,-11.7 42.396,-11.7 27.834,0 32.042,17.226 32.042,27.626 v 2.599 c -58.258,-0.325 -93.535,20.151 -93.535,59.804 0,24.052 17.8,47.127 49.518,47.127 20.717,-10e-4 37.224,-8.777 46.608,-21.127 z m -56.638,-30.227 c 0,-24.052 26.862,-29.902 55.02,-29.577 v 21.776 c 0,2.926 0,5.85 -0.97,8.774 -3.884,11.376 -15.211,21.776 -31.395,21.776 -12.622,0.002 -22.655,-7.148 -22.655,-22.749 z"
   id="path16" />
	<path
   fill="#a80a35"
   d="m 1177.867,789.276 c 21.684,0 30.098,17.225 30.098,39.978 v 89.378 h 39.809 v -93.93 c 0,-50.053 -28.481,-67.928 -55.993,-67.928 -26.215,0 -43.369,14.951 -50.488,27.301 h -0.971 l -1.941,-23.725 h -34.631 c 0.648,13.651 1.295,28.927 1.295,47.127 v 111.155 h 39.808 v -93.28 c 0,-4.55 0.648,-9.426 1.943,-12.675 4.208,-12.026 15.213,-23.401 31.071,-23.401 z"
   id="path18" />
	<path
   fill="#a80a35"
   d="m 1353.278,921.883 c 19.744,0 36.249,-4.226 44.664,-8.126 l -5.502,-29.577 c -7.768,3.251 -17.8,6.175 -31.395,6.175 -27.185,0 -48.223,-18.527 -48.223,-51.028 -0.324,-28.927 17.8,-51.353 48.223,-51.353 14.241,0 23.627,2.926 30.099,6.175 l 7.12,-30.227 c -9.063,-3.901 -23.95,-7.15 -38.514,-7.15 -55.344,0 -87.708,36.727 -87.708,84.179 10e-4,49.079 32.042,80.932 81.236,80.932 z"
   id="path20" />
	<path
   fill="#a80a35"
   d="m 1566.239,838.028 c 0,-48.102 -31.395,-81.254 -78.323,-81.254 -47.577,0 -81.559,31.851 -81.559,83.854 0,51.028 34.63,81.579 78.969,81.579 40.134,10e-4 80.913,-26.002 80.913,-84.179 z m -118.779,1.626 c 0,-26.327 11.327,-53.954 39.484,-53.954 27.187,0 38.191,28.602 38.191,53.303 0,32.177 -15.859,54.277 -38.514,54.277 -23.95,10e-4 -39.161,-23.076 -39.161,-53.626 z"
   id="path22" />
	<path
   fill="#a80a35"
   d="m 1707.339,922.208 c 22.656,0 41.75,-11.05 51.137,-28.602 h 0.646 l 1.943,25.027 h 35.277 c -0.648,-10.725 -1.294,-28.276 -1.294,-44.528 V 687.87 h -39.809 v 89.379 h -0.648 c -7.12,-11.702 -22.655,-20.476 -44.34,-20.476 -37.866,0 -70.878,31.527 -70.555,84.504 10e-4,48.753 29.777,80.931 67.643,80.931 z m 12.623,-134.557 c 18.124,0 30.747,12.675 34.306,27.951 0.648,3.251 0.971,7.476 0.971,10.726 v 23.727 c 0,4.226 -0.324,8.124 -1.295,11.7 -3.883,17.226 -18.124,28.276 -34.306,28.276 -25.244,0 -39.485,-21.126 -39.485,-50.378 -10e-4,-29.251 14.241,-52.002 39.809,-52.002 z"
   id="path24" />
	<path
   fill="#a80a35"
   d="m 1898.61,922.208 c 40.133,0 80.913,-26.002 80.913,-84.179 0,-48.102 -31.395,-81.254 -78.323,-81.254 -47.577,0 -81.559,31.851 -81.559,83.854 0,51.027 34.63,81.579 78.969,81.579 z m 1.618,-136.508 c 27.187,0 38.191,28.602 38.191,53.303 0,32.177 -15.859,54.277 -38.514,54.277 -23.95,0 -39.161,-23.077 -39.161,-53.627 0,-26.327 11.327,-53.953 39.484,-53.953 z"
   id="path26" />
	<path
   fill="#a80a35"
   d="m 904.719,1032.424 c 0,33.153 0.971,62.729 3.884,91.656 h -0.648 C 897.922,1099.377 885.3,1072.076 872.354,1049 l -45.31,-80.28 h -57.61 v 219.061 h 45.312 v -65.978 c 0,-35.753 -0.648,-66.628 -2.266,-95.879 h 1.295 c 10.357,25.676 24.92,53.952 37.867,77.353 l 46.606,84.504 h 51.785 v -219.06 h -45.312 v 63.703 z"
   id="path28" />
	<path
   fill="#a80a35"
   d="m 1053.594,1024.95 c -51.137,0 -84.796,32.825 -84.796,84.504 0,51.352 35.601,81.904 81.883,81.904 42.398,0 83.502,-26.651 83.502,-84.829 -10e-4,-48.104 -32.366,-81.579 -80.589,-81.579 z m -1.617,130.981 c -21.038,0 -32.366,-20.475 -32.366,-47.776 0,-23.4 9.063,-47.779 32.366,-47.779 22.331,0 31.395,24.053 31.395,47.453 0,28.926 -11.978,48.102 -31.395,48.102 z"
   id="path30" />
	<path
   fill="#a80a35"
   d="m 1196.32,1058.1 h -1.294 l -1.941,-29.25 h -42.074 c 0.971,13.652 1.294,28.925 1.294,52.328 v 106.604 h 49.194 v -80.603 c 0,-3.901 0.324,-7.802 0.971,-11.05 3.236,-15.276 15.535,-25.026 33.66,-25.026 5.502,0 9.386,0.648 13.27,1.298 v -46.476 c -3.56,-0.65 -5.825,-0.975 -10.357,-0.975 -15.536,0 -34.633,9.75 -42.723,33.15 z"
   id="path32" />
	<path
   fill="#a80a35"
   d="m 1413.806,957.021 h -49.194 v 85.806 h -0.648 c -7.12,-10.728 -22.008,-17.877 -41.75,-17.877 -37.866,0 -71.202,31.202 -70.878,84.829 0,49.401 30.098,81.579 67.643,81.579 20.39,0 39.808,-9.1 49.518,-26.651 h 0.97 l 1.943,23.075 h 43.693 c -0.648,-10.725 -1.295,-29.577 -1.295,-47.451 v -183.31 z m -49.194,159.908 c 0,3.901 -0.324,7.802 -0.971,11.375 -2.911,13.976 -14.563,23.728 -28.803,23.728 -20.39,0 -33.66,-16.901 -33.66,-43.878 0,-25.026 11.327,-45.178 33.984,-45.178 15.211,0 25.892,11.05 28.803,24.05 0.648,2.926 0.648,6.502 0.648,9.102 z"
   id="path34" />
	<path
   fill="#a80a35"
   d="m 1511.868,1025.275 c -55.02,0 -79.942,44.528 -79.942,84.829 0,49.726 30.747,80.929 84.472,80.929 21.361,0 41.103,-3.251 57.286,-10.075 l -6.473,-33.478 c -13.27,4.551 -26.863,6.827 -43.693,6.827 -22.98,0 -43.37,-9.752 -44.664,-30.227 h 101.948 c 0.648,-3.576 1.619,-11.05 1.619,-19.502 0,-39.326 -19.416,-79.303 -70.553,-79.303 z m -33.335,65.002 c 1.294,-13 9.709,-32.177 30.422,-32.177 22.655,0 27.833,20.152 27.833,32.177 z"
   id="path36" />
	<path
   fill="#a80a35"
   d="m 1667.217,1090.603 c -19.419,-6.824 -25.568,-10.725 -25.568,-18.527 0,-7.799 6.798,-12.676 18.773,-12.676 13.27,0 27.185,5.201 34.307,9.102 l 8.414,-34.128 c -9.709,-4.874 -25.892,-9.425 -44.339,-9.425 -39.161,0 -64.407,22.425 -64.407,52.327 -0.324,18.852 12.3,36.726 45.312,47.779 18.124,6.174 22.979,10.075 22.979,18.524 0,8.127 -6.149,13.001 -21.038,13.001 -14.563,0 -33.336,-6.174 -42.398,-11.7 l -8.738,35.103 c 11.974,6.499 30.422,11.375 51.136,11.375 45.312,0 68.291,-21.778 68.291,-51.677 -0.325,-23.077 -12.624,-38.679 -42.724,-49.078 z"
   id="path38" />
	<path
   fill="#a80a35"
   d="m 1782.755,985.947 -48.223,13.326 v 29.577 h -21.038 v 36.402 h 21.038 v 65.002 c 0,22.428 4.53,37.704 13.593,47.128 8.091,8.124 21.36,13.651 37.219,13.651 13.593,0 25.568,-1.951 31.718,-4.226 l -0.324,-37.376 c -4.53,0.975 -7.768,1.3 -14.563,1.3 -14.565,0 -19.42,-8.777 -19.42,-27.951 v -57.528 h 35.277 v -36.402 h -35.277 z"
   id="path40" />
	<path
   fill="#a80a35"
   d="m 1903.475,1025.275 c -55.02,0 -79.942,44.528 -79.942,84.829 0,49.726 30.747,80.929 84.472,80.929 21.361,0 41.103,-3.251 57.286,-10.075 l -6.473,-33.478 c -13.27,4.551 -26.863,6.827 -43.693,6.827 -22.98,0 -43.37,-9.752 -44.664,-30.227 h 101.948 c 0.648,-3.576 1.619,-11.05 1.619,-19.502 10e-4,-39.326 -19.418,-79.303 -70.553,-79.303 z m -33.336,65.002 c 1.294,-13 9.709,-32.177 30.422,-32.177 22.655,0 27.833,20.152 27.833,32.177 z"
   id="path42" />
</g>
</svg>
