<?xml version="1.0" encoding="UTF-8"?>
<svg id="Camada_1" xmlns="http://www.w3.org/2000/svg" version="1.1" viewBox="0 0 2500 2500">
  <!-- Generator: Adobe Illustrator 29.6.0, SVG Export Plug-In . SVG Version: 2.1.1 Build 207)  -->
  <defs>
    <style>
      .st0 {
        fill: #545555;
      }

      .st0, .st1 {
        fill-rule: evenodd;
      }

      .st1 {
        fill: #e30613;
      }
    </style>
  </defs>
  <path class="st1" d="M291.67,990c43.04,0,83.91,9.33,120.69,26.07,36.79-16.75,77.64-26.07,120.7-26.07,161.07,0,291.65,130.58,291.65,291.67s-130.58,291.65-291.65,291.65c-43.06,0-83.91-9.33-120.7-26.07-36.77,16.74-77.64,26.07-120.69,26.07C130.58,1573.31,0,1442.73,0,1281.66s130.58-291.67,291.67-291.67h0ZM412.35,1019c145.07,0,262.66,117.59,262.66,262.66s-117.59,262.65-262.66,262.65-262.66-117.6-262.66-262.65,117.6-262.66,262.66-262.66h0Z"/>
  <path class="st1" d="M413.67,1159.79c67.29,0,121.86,54.58,121.86,121.88s-54.57,121.85-121.86,121.85-121.87-54.57-121.87-121.85,54.57-121.88,121.87-121.88h0Z"/>
  <polygon class="st0" points="967.84 1478.29 1049.76 1478.29 1049.76 1227.5 1159.68 1391.37 1269.58 1224.51 1269.58 1476.29 1350.69 1476.29 1350.69 1086.63 1262.59 1086.63 1160.67 1252.48 1058.76 1088.62 965.84 1088.62 967.84 1478.29 967.84 1478.29"/>
  <polygon class="st0" points="1814.89 1086.29 1895.54 1086.29 2114.64 1086.29 2114.64 1169.99 1895.54 1169.99 1895.54 1248.27 2067.29 1248.27 2067.29 1331.96 1895.54 1331.96 1895.54 1477.83 1814.89 1477.83 1814.89 1331.96 1814.89 1248.27 1814.89 1169.99 1814.89 1086.29 1814.89 1086.29"/>
  <path class="st0" d="M1415.39,1089.27h81.91v241.02c.93,85.48,145.56,113.53,171.7,0v-241.8h79.55v237.86c-11.17,220.76-339.78,200.09-331.6,0l-1.57-237.08h0Z"/>
  <path class="st0" d="M2430.6,1200.14l55.21-67.04c-86.99-58.21-183.72-65.63-254.59-24.96-105.77,60.71-136.01,223.03-48.7,312.5,73.34,75.18,210.92,82.54,317.5,2.72v-172.73h-171.93v79.66h90.7v52.85c-28.43,18.61-61.45,26.35-92.27,23.44-119.01-11.25-140.8-172.01-52.11-227.77,47.43-29.83,115.38-24.58,156.21,21.35h0Z"/>
</svg>