<?xml version="1.0" encoding="UTF-8" standalone="no"?>
<svg
   version="1.1"
   id="svg2477"
   x="0"
   y="0"
   viewBox="0 0 2500 2499.9999"
   xml:space="preserve"
   sodipodi:docname="mercado-pago.svg"
   width="2500"
   height="2500"
   inkscape:version="1.2.2 (732a01da63, 2022-12-09)"
   xmlns:inkscape="http://www.inkscape.org/namespaces/inkscape"
   xmlns:sodipodi="http://sodipodi.sourceforge.net/DTD/sodipodi-0.dtd"
   xmlns="http://www.w3.org/2000/svg"
   xmlns:svg="http://www.w3.org/2000/svg"><defs
     id="defs42" /><sodipodi:namedview
     id="namedview40"
     pagecolor="#505050"
     bordercolor="#eeeeee"
     borderopacity="1"
     inkscape:showpageshadow="0"
     inkscape:pageopacity="0"
     inkscape:pagecheckerboard="0"
     inkscape:deskcolor="#505050"
     showgrid="false"
     inkscape:zoom="0.21672823"
     inkscape:cx="1162.7465"
     inkscape:cy="1827.1731"
     inkscape:window-width="1920"
     inkscape:window-height="1009"
     inkscape:window-x="-8"
     inkscape:window-y="-8"
     inkscape:window-maximized="1"
     inkscape:current-layer="svg2477" /><style
     id="style2">.st0{fill:#28316b}.st1{fill:#50b4e9}.st2{fill:#fff}</style><g
     id="layer1"
     transform="matrix(6.8266888,0,0,6.8266888,-99.393502,390.74585)"><g
       id="g1222"
       transform="matrix(2.447,0,0,-2.447,79.174,33.624)"><path
         id="path1224"
         class="st0"
         d="m 123.2,-40.3 c 0,27 -33.5,48.9 -74.8,48.9 -41.3,0 -74.8,-22 -74.8,-48.9 v -2.9 c 0,-28.6 29.3,-51.8 74.8,-51.8 45.8,0 74.8,23.2 74.8,51.8 z" /></g><g
       id="g1226"
       transform="matrix(2.447,0,0,-2.447,77.933,33.615)"><path
         id="path1228"
         class="st1"
         d="m 120.9,-40.3 c 0,-25.4 -32.2,-46 -71.9,-46 -39.8,0 -72,20.6 -72,46 0,25.4 32.2,46 71.9,46 39.8,0.1 72,-20.6 72,-46" /></g><g
       id="g1230"
       transform="matrix(2.447,0,0,-2.447,36.507,27.337)"><path
         id="path1232"
         class="st2"
         d="m 42,-28.3 c 0,-0.1 -0.8,-0.8 -0.3,-1.4 1.1,-1.5 4.6,-2.3 8.2,-1.5 2.1,0.5 4.8,2.6 7.4,4.7 2.8,2.3 5.7,4.5 8.5,5.4 3,1 4.9,0.5 6.2,0.2 1.4,-0.4 3,-1.3 5.6,-3.3 4.9,-3.7 24.7,-21 28.1,-24 2.8,1.2 15,6.5 31.6,10.2 -1.4,8.9 -6.8,17 -15,23.6 C 111,-19.2 97,-21.7 83.4,-15 c -0.1,0 -7.4,3.5 -14.7,3.3 -10.8,-0.2 -15.5,-4.9 -20.5,-9.9 z" /></g><g
       id="g1234"
       transform="matrix(2.447,0,0,-2.447,63.741,36.74)"><path
         id="path1236"
         class="st2"
         d="m 93.8,-46.2 c -0.2,0.2 -23.2,20.3 -28.5,24.3 -3,2.3 -4.7,2.8 -6.5,3.1 -0.9,0.1 -2.2,-0.1 -3.1,-0.3 -2.4,-0.7 -5.6,-2.8 -8.4,-5 -2.9,-2.3 -5.7,-4.5 -8.2,-5.1 -3.3,-0.7 -7.2,0.1 -9.1,1.4 -0.7,0.5 -1.3,1.1 -1.5,1.6 -0.7,1.6 0.6,2.8 0.8,3 l 6.4,6.9 2.2,2.2 c -2,-0.3 -3.9,-0.8 -5.8,-1.3 -2.3,-0.7 -4.5,-1.3 -6.8,-1.3 -0.9,0 -5.9,0.8 -6.9,1.1 -5.7,1.5 -10.7,3.1 -18.3,6.6 -9,-6.7 -15.1,-15.1 -16.8,-24.4 1.3,-0.3 3.4,-1 4.3,-1.2 20.5,-4.6 26.8,-9.2 28,-10.2 1.3,1.4 3.1,2.3 5.1,2.3 2.3,0 4.3,-1.1 5.5,-2.9 1.2,0.9 2.8,1.7 4.9,1.7 0.9,0 1.9,-0.2 2.9,-0.5 2.3,-0.8 3.5,-2.3 4.1,-3.7 0.8,0.4 1.7,0.6 2.8,0.6 1.1,0 2.3,-0.2 3.4,-0.7 3.8,-1.6 4.4,-5.3 4,-8.1 h 0.8 c 4.5,0 8.1,-3.6 8.1,-8.1 0,-1.4 -0.4,-2.7 -1,-3.8 1.2,-0.7 4.3,-2.2 7,-1.9 2.2,0.3 3,1 3.3,1.4 0.2,0.3 0.4,0.6 0.2,0.9 l -5.8,6.4 c 0,0 -1,0.9 -0.6,1.2 0.3,0.4 0.9,-0.2 1.3,-0.5 2.9,-2.5 6.5,-6.2 6.5,-6.2 0.1,0 0.3,-0.5 1.6,-0.7 1.1,-0.2 3.2,-0.1 4.6,1.1 0.4,0.3 0.7,0.7 1,1 l -0.1,-0.1 c 1.5,1.9 -0.2,3.8 -0.2,3.8 l -6.5,7.6 c 0,0 -1,0.9 -0.6,1.3 0.3,0.3 0.9,-0.2 1.3,-0.5 2.1,-1.8 5.2,-4.8 8,-7.6 0.6,-0.4 3.1,-2 6.5,0.2 2,1.3 2.4,3 2.4,4.2 -0.1,1.6 -1.4,2.8 -1.4,2.8 l -9.2,9.2 c 0,0 -1,0.8 -0.6,1.3 0.3,0.4 0.9,-0.2 1.3,-0.5 2.9,-2.5 10.9,-9.7 10.9,-9.7 0.1,-0.1 2.9,-2 6.2,0.1 1.2,0.8 2,1.9 2.1,3.3 0.1,2.3 -1.6,3.7 -1.6,3.7" /></g><g
       id="g1238"
       transform="matrix(2.447,0,0,-2.447,44.44,41.811)"><path
         id="path1240"
         class="st2"
         d="m 57.1,-55.9 c -1.4,0 -3,-0.8 -3.2,-0.7 -0.1,0.1 0.1,0.6 0.2,1 0.1,0.3 2,6 -2.6,7.9 -3.5,1.5 -5.6,-0.2 -6.4,-1 -0.2,-0.2 -0.3,-0.2 -0.3,0.1 -0.1,1 -0.5,3.8 -3.5,4.7 -4.3,1.3 -7.1,-1.7 -7.8,-2.8 -0.3,2.5 -2.4,4.4 -4.9,4.4 -2.8,0 -5,-2.2 -5,-5 0,-2.8 2.2,-5 5,-5 1.3,0 2.6,0.5 3.5,1.4 v -0.2 c -0.2,-1.2 -0.6,-5.8 4.1,-7.6 1.9,-0.7 3.5,-0.2 4.8,0.8 0.4,0.3 0.5,0.2 0.4,-0.2 -0.2,-1.2 0,-3.6 3.5,-5.1 2.6,-1.1 4.2,0 5.2,1 0.4,0.4 0.6,0.3 0.6,-0.3 0.1,-3.4 2.9,-6 6.3,-6 3.5,0 6.3,2.8 6.3,6.3 0.1,3.5 -2.7,6.3 -6.2,6.3" /></g><g
       id="g1242"
       transform="matrix(2.447,0,0,-2.447,44.44,47.076)"><path
         id="path1244"
         class="st0"
         d="m 57.1,-65.9 c -3.2,0 -5.7,2.5 -5.8,5.6 0,0.3 0,1 -0.6,1 -0.2,0 -0.5,-0.1 -0.7,-0.4 -0.8,-0.7 -1.7,-1.3 -3,-1.3 -0.6,0 -1.2,0.1 -1.9,0.4 -3.3,1.4 -3.4,3.7 -3.2,4.6 0,0.2 0,0.5 -0.1,0.7 l -0.2,0.2 h -0.2 c -0.2,0 -0.4,-0.1 -0.6,-0.2 -1,-0.7 -1.9,-1 -2.8,-1 -0.5,0 -1,0.1 -1.6,0.3 -4.4,1.7 -4,5.9 -3.8,7.1 0,0.3 0,0.4 -0.2,0.6 l -0.4,0.2 -0.3,-0.3 c -0.9,-0.8 -2,-1.3 -3.2,-1.3 -2.5,0 -4.6,2 -4.6,4.6 0,2.6 2.1,4.6 4.6,4.6 2.3,0 4.2,-1.7 4.5,-4 l 0.2,-1.2 0.7,1 c 0.1,0.1 1.9,2.9 5.3,2.9 0.6,0 1.3,-0.1 2,-0.3 2.7,-0.8 3.2,-3.3 3.2,-4.3 0.1,-0.6 0.5,-0.6 0.6,-0.6 0.2,0 0.4,0.1 0.5,0.3 0.5,0.5 1.6,1.4 3.4,1.4 0.8,0 1.6,-0.2 2.5,-0.6 4.3,-1.8 2.3,-7.3 2.3,-7.4 -0.4,-0.9 -0.4,-1.3 0,-1.5 l 0.2,-0.1 H 54 c 0.2,0 0.4,0.1 0.8,0.2 0.6,0.2 1.5,0.5 2.3,0.5 3.2,0 5.9,-2.7 5.9,-5.9 -0.1,-3.2 -2.7,-5.8 -5.9,-5.8 m 45.5,26.3 c -7.1,6.2 -23.5,20.5 -27.9,23.8 -2.5,1.9 -4.3,2.9 -5.8,3.4 -0.7,0.2 -1.7,0.4 -2.9,0.4 -1.1,0 -2.3,-0.2 -3.6,-0.6 -2.9,-0.9 -5.7,-3.2 -8.5,-5.4 l -0.1,-0.1 c -2.6,-2 -5.2,-4.2 -7.3,-4.6 -0.9,-0.2 -1.8,-0.3 -2.7,-0.3 -2.3,0 -4.3,0.7 -5,1.6 -0.1,0.2 0,0.4 0.2,0.8 v 0.1 l 6.2,6.7 c 4.9,4.9 9.5,9.5 20.1,9.8 h 0.5 c 6.6,0 13.2,-3 14,-3.3 6.2,-3 12.6,-4.6 19.1,-4.6 6.7,0 13.6,1.7 20.9,5 -0.8,0.7 -1.7,1.3 -2.5,2 -6.3,-2.8 -12.4,-4.2 -18.3,-4.2 -6,0 -12,1.5 -17.8,4.3 -0.3,0.1 -7.6,3.6 -15.2,3.6 H 65.4 C 56.5,-1.4 51.4,-4.6 48.1,-7.4 44.8,-7.5 42,-8.3 39.4,-9 c -2.3,-0.6 -4.2,-1.2 -6.1,-1.2 -0.8,0 -2.2,0.1 -2.3,0.1 C 28.8,-10 17.8,-7.3 9,-4 8.1,-4.6 7.2,-5.3 6.4,-6 c 9.1,-3.7 20.3,-6.6 23.8,-6.9 1,-0.1 2,-0.2 3.1,-0.2 2.3,0 4.6,0.7 6.9,1.3 1.3,0.4 2.8,0.8 4.3,1.1 l -1.2,-1.2 -6.3,-6.9 c -0.5,-0.5 -1.6,-1.9 -0.9,-3.5 0.3,-0.7 0.9,-1.3 1.7,-1.9 1.5,-1 4.2,-1.7 6.7,-1.7 1,0 1.9,0.1 2.7,0.3 2.7,0.6 5.4,2.8 8.4,5.2 2.4,1.9 5.7,4.2 8.3,4.9 0.7,0.2 1.6,0.3 2.3,0.3 h 0.6 c 1.7,-0.2 3.3,-0.8 6.3,-3 5.2,-3.9 28.3,-24.1 28.5,-24.3 0,0 1.5,-1.3 1.4,-3.4 -0.1,-1.2 -0.7,-2.2 -1.8,-2.9 -1,-0.6 -2,-0.9 -3,-0.9 -1.5,0 -2.6,0.7 -2.7,0.8 -0.1,0.1 -8,7.3 -10.9,9.7 -0.5,0.4 -0.9,0.7 -1.4,0.7 -0.2,0 -0.5,-0.1 -0.6,-0.3 -0.5,-0.6 0.1,-1.3 0.7,-1.9 l 9.2,-9.3 c 0,0 1.1,-1.1 1.3,-2.5 0.1,-1.5 -0.7,-2.8 -2.2,-3.8 -1.1,-0.7 -2.2,-1.1 -3.3,-1.1 -1.4,0 -2.4,0.6 -2.6,0.8 l -1.3,1.3 c -2.4,2.4 -4.9,4.8 -6.7,6.4 -0.7,0.5 -1.2,0.9 -1.7,0.9 -0.2,0 -0.4,-0.1 -0.6,-0.2 -0.2,-0.2 -0.4,-0.6 0.2,-1.3 0.2,-0.3 0.5,-0.5 0.5,-0.5 l 6.7,-7.6 c 0.1,-0.1 1.4,-1.7 0.1,-3.2 l -0.2,-0.3 -0.6,-0.6 c -1.1,-0.9 -2.7,-1 -3.3,-1 -0.3,0 -0.6,0 -0.9,0.1 -0.7,0.1 -1.1,0.3 -1.3,0.6 l -0.1,0.1 c -0.4,0.4 -3.8,3.8 -6.6,6.2 -0.4,0.3 -0.8,0.7 -1.3,0.7 -0.2,0 -0.4,-0.1 -0.6,-0.3 -0.6,-0.6 0.3,-1.5 0.6,-1.9 l 5.7,-6.3 c 0,-0.1 -0.1,-0.2 -0.2,-0.4 -0.2,-0.3 -0.9,-1 -3,-1.2 h -0.8 c -2.2,0 -4.4,1 -5.6,1.7 0.5,1.1 0.8,2.4 0.8,3.6 0,4.7 -3.8,8.6 -8.6,8.6 h -0.3 c 0.2,2.2 -0.1,6.2 -4.3,8 -1.2,0.5 -2.4,0.8 -3.6,0.8 -0.9,0 -1.8,-0.2 -2.6,-0.5 -0.9,1.7 -2.3,2.9 -4.2,3.6 -0.9,0.1 -1.9,0.3 -3,0.3 -1.7,0 -3.4,-0.5 -4.8,-1.5 -1.4,1.7 -3.5,2.7 -5.6,2.7 -1.9,0 -3.7,-0.8 -5.1,-2.1 -1.8,1.4 -8.9,5.9 -27.8,10.2 -0.9,0.2 -3,0.8 -4.3,1.2 -0.2,-1 -0.4,-2.1 -0.5,-3.1 0,0 3.5,-0.8 4.2,-1 19.4,-4.3 25.8,-8.8 26.9,-9.6 -0.4,-0.9 -0.6,-1.8 -0.6,-2.8 0,-4 3.3,-7.3 7.3,-7.3 0.4,0 0.9,0 1.3,0.1 0.6,-2.9 2.5,-5.2 5.5,-6.3 0.9,-0.3 1.7,-0.5 2.6,-0.5 0.6,0 1.1,0.1 1.7,0.2 0.5,-1.4 1.8,-3.1 4.5,-4.2 1,-0.4 1.9,-0.6 2.9,-0.6 0.8,0 1.5,0.1 2.2,0.4 1.3,-3.2 4.4,-5.3 7.9,-5.3 2.3,0 4.5,0.9 6.1,2.6 1.4,-0.8 4.3,-2.2 7.2,-2.2 0.4,0 0.7,0 1.1,0.1 2.9,0.4 4.3,1.5 4.9,2.4 0.1,0.2 0.2,0.3 0.3,0.5 0.7,-0.2 1.4,-0.4 2.3,-0.4 1.6,0 3.1,0.5 4.7,1.7 1.5,1.1 2.6,2.7 2.8,4 v 0.1 c 0.5,-0.1 1,-0.2 1.6,-0.2 1.7,0 3.3,0.5 4.8,1.5 3,2 3.5,4.5 3.5,6.2 0.5,-0.1 1.1,-0.2 1.6,-0.2 1.5,0 3.1,0.5 4.5,1.4 1.9,1.2 3,3 3.1,5.1 0.1,1.4 -0.2,2.9 -1,4.1 5,2.2 16.4,6.3 29.9,9.4 -0.1,1 -0.2,2.1 -0.4,3.1 -16.4,-3.7 -28.6,-8.9 -31.6,-10.3" /></g><g
       id="g1246"
       transform="matrix(2.447,0,0,-2.447,186.497,28.537)" /><g
       id="g1250"
       transform="matrix(2.447,0,0,-2.447,157.711,26.828)" /><g
       id="g1254"
       transform="matrix(2.447,0,0,-2.447,141.493,21.122)" /><g
       id="g1258"
       transform="matrix(2.447,0,0,-2.447,133.442,18.063)" /><g
       id="g1262"
       transform="matrix(2.447,0,0,-2.447,115.171,21.834)" /><g
       id="g1266"
       transform="matrix(2.447,0,0,-2.447,109.013,32.384)" /><g
       id="g1270"
       transform="matrix(2.447,0,0,-2.447,171.552,28.566)" /><g
       id="g1274"
       transform="matrix(2.447,0,0,-2.447,98.857,45.644)" /><g
       id="g1278"
       transform="matrix(2.447,0,0,-2.447,120.682,45.647)" /><g
       id="g1282"
       transform="matrix(2.447,0,0,-2.447,112.153,47.114)" /><g
       id="g1286"
       transform="matrix(2.447,0,0,-2.447,141.132,48.744)" /></g></svg>
