<?xml version="1.0" encoding="UTF-8" standalone="no"?>
<svg
   width="2500"
   height="2500"
   viewBox="0 0 192.756 192.756"
   version="1.1"
   id="svg14"
   sodipodi:docname="itau-2.svg"
   inkscape:version="1.2.2 (732a01da63, 2022-12-09)"
   xmlns:inkscape="http://www.inkscape.org/namespaces/inkscape"
   xmlns:sodipodi="http://sodipodi.sourceforge.net/DTD/sodipodi-0.dtd"
   xmlns="http://www.w3.org/2000/svg"
   xmlns:svg="http://www.w3.org/2000/svg">
  <defs
     id="defs18" />
  <sodipodi:namedview
     id="namedview16"
     pagecolor="#505050"
     bordercolor="#eeeeee"
     borderopacity="1"
     inkscape:showpageshadow="0"
     inkscape:pageopacity="0"
     inkscape:pagecheckerboard="0"
     inkscape:deskcolor="#505050"
     showgrid="false"
     inkscape:zoom="0.2168"
     inkscape:cx="1250"
     inkscape:cy="1250"
     inkscape:window-width="1920"
     inkscape:window-height="1009"
     inkscape:window-x="-8"
     inkscape:window-y="-8"
     inkscape:window-maximized="1"
     inkscape:current-layer="svg14" />
  <g
     fill-rule="evenodd"
     clip-rule="evenodd"
     id="g12"
     transform="matrix(1.1218952,0,0,1.1218952,-11.763175,-11.748026)">
    <path
       fill="#db812e"
       d="M 9.443,8.504 V 184.252 H 183.312 V 8.504 Z"
       id="path4" />
    <path
       d="m 60.449,39.685 72.045,0.046 c 11.332,0 20.623,9.337 20.576,20.671 v 72.045 c 0,11.334 -9.289,20.624 -20.67,20.624 l -72.091,-0.047 c -11.334,-0.047 -20.624,-9.29 -20.624,-20.67 l 0.093,-72.045 c 0,-11.334 9.29,-20.67 20.671,-20.624 z"
       fill="#33348e"
       id="path6" />
    <path
       d="m 137.139,91.385 h -8.223 l -3.391,6.457 h 5.76 z m 5.433,10.498 h -7.988 v 17.279 c 0,5.296 -3.576,6.782 -6.178,6.782 -2.51,0 -5.25,-0.93 -5.203,-5.528 v -18.533 h -8.035 l -0.047,19.694 c 0,7.618 4.365,11.01 10.404,11.01 4.182,0.046 7.432,-1.812 9.244,-5.018 h 0.092 v 4.181 h 7.711 z m -33.676,7.896 c 0,-7.386 -7.758,-8.732 -12.077,-8.732 -6.271,0 -12.728,1.347 -13.704,10.497 h 7.757 c 0.232,-1.765 0.976,-4.18 4.97,-4.18 2.045,0 5.295,0.186 5.295,3.483 0,1.672 -1.578,2.183 -2.879,2.369 l -7.201,1.068 c -5.109,0.696 -8.918,3.716 -8.918,9.568 0,6.178 4.738,8.733 9.29,8.733 5.48,0 8.083,-2.509 9.848,-4.32 0.186,1.625 0.324,2.044 0.789,3.483 l 6.875,-0.046 c 0,-3.299 -0.047,-5.714 -0.047,-5.76 V 109.779 Z M 74.755,91.385 h -7.989 v 10.451 h -4.135 v 5.62 h 4.088 v 18.162 c 0,3.855 1.254,6.504 8.175,6.504 h 1.068 c 1.254,0 2.555,-0.093 3.763,-0.14 v -5.992 c -0.558,0.047 -1.162,0.14 -1.672,0.14 -3.251,0 -3.345,-0.65 -3.345,-2.462 l 0.047,-16.212 h 5.017 v -5.62 H 74.755 Z M 58.916,91.338 h -8.64 l -0.047,40.366 h 8.64 z"
       fill="#fff22d"
       id="path8" />
    <path
       d="m 101.139,121.066 v -3.855 c -0.836,0.604 -2.182,1.115 -5.481,1.579 -3.019,0.512 -5.481,1.301 -5.481,4.553 0,2.694 2.229,3.576 3.763,3.576 3.529,0 7.199,-2.23 7.199,-5.853 z"
       fill="#33348e"
       id="path10" />
  </g>
</svg>
