<?xml version="1.0" encoding="UTF-8" standalone="no"?>
<!-- Generator: Adobe Illustrator 22.0.1, SVG Export Plug-In . SVG Version: 6.00 Build 0)  -->

<svg
   version="1.1"
   id="Layer_1"
   x="0px"
   y="0px"
   viewBox="0 0 2500 2500"
   xml:space="preserve"
   sodipodi:docname="Banco_BS2.svg"
   width="2500"
   height="2500"
   inkscape:version="1.2.2 (732a01da63, 2022-12-09)"
   xmlns:inkscape="http://www.inkscape.org/namespaces/inkscape"
   xmlns:sodipodi="http://sodipodi.sourceforge.net/DTD/sodipodi-0.dtd"
   xmlns="http://www.w3.org/2000/svg"
   xmlns:svg="http://www.w3.org/2000/svg"><defs
   id="defs13" /><sodipodi:namedview
   id="namedview11"
   pagecolor="#505050"
   bordercolor="#eeeeee"
   borderopacity="1"
   inkscape:showpageshadow="0"
   inkscape:pageopacity="0"
   inkscape:pagecheckerboard="0"
   inkscape:deskcolor="#505050"
   showgrid="false"
   inkscape:zoom="0.20369194"
   inkscape:cx="756.04364"
   inkscape:cy="1904.8372"
   inkscape:window-width="1920"
   inkscape:window-height="1009"
   inkscape:window-x="-8"
   inkscape:window-y="-8"
   inkscape:window-maximized="1"
   inkscape:current-layer="Layer_1" />
<style
   type="text/css"
   id="style2">
	.st0{fill:#3333CC;}
</style>
<path
   class="st0"
   d="m 498.69438,883.59851 c -88.23695,0 -165.7785,24.06462 -229.95082,72.19387 l -40.1077,29.41231 V 525.30305 L 14.728123,589.47537 V 1838.1619 H 231.30971 v -77.5416 l 40.1077,29.4123 c 66.84616,45.4553 144.38771,69.52 229.95082,69.52 245.9939,0 446.53239,-219.2554 446.53239,-489.314 0,-270.0585 -203.21234,-486.64009 -449.20624,-486.64009 z M 482.6513,1640.2972 c -144.38773,0 -254.01544,-114.9754 -254.01544,-267.3847 0,-152.4093 109.62771,-270.0586 254.01544,-270.0586 144.38772,0 254.01544,114.9755 254.01544,267.3847 -2.67385,152.4093 -109.62772,270.0586 -254.01544,270.0586 z"
   id="path4"
   style="stroke-width:26.7385" />
<path
   class="st0"
   d="m 1397.1069,1271.3063 -24.0647,-8.0216 c -101.6062,-37.4338 -144.3877,-61.4984 -144.3877,-114.9753 0,-56.1508 56.1507,-77.5416 109.6277,-77.5416 53.4769,0 117.6493,18.7169 117.6493,98.9323 v 45.4554 h 213.9077 v -45.4554 c 0,-179.14772 -136.3662,-307.49236 -331.557,-307.49236 -211.2338,0 -320.8616,141.71386 -320.8616,283.42776 0,200.5385 165.7785,259.3631 299.4709,307.4924 l 13.3692,5.3476 c 101.6062,37.4339 152.4092,64.1724 152.4092,109.6278 0,61.4985 -66.8461,82.8893 -125.6707,82.8893 -66.8462,0 -149.7354,-18.717 -149.7354,-112.3016 v -48.1292 H 993.35605 v 48.1292 c 0,192.517 144.38765,320.8616 363.64315,320.8616 195.1908,0 339.5785,-120.3231 339.5785,-288.7754 -2.6739,-189.8432 -168.4523,-251.3416 -299.4708,-299.4709 z"
   id="path6"
   style="stroke-width:26.7385" />
<path
   class="st0"
   d="m 2172.5224,1715.1649 h 229.9508 v -82.8893 h -328.8831 l 141.7138,-139.04 c 114.9755,-112.3016 171.1262,-213.9077 171.1262,-318.1878 0,-155.0831 -109.6277,-312.84006 -320.8616,-312.84006 -157.7569,0 -326.2092,98.93233 -326.2092,312.84006 v 37.4339 h 211.2338 v -34.76 c 0,-72.1939 40.1078,-109.6277 117.6493,-109.6277 50.8031,0 106.9538,29.4123 106.9538,106.9538 0,64.1724 -64.1722,133.6924 -109.6277,179.1477 l -208.5601,208.5601 c -72.1938,72.1939 -114.9753,171.1262 -114.9753,272.7323 h 663.114 v -82.8892 h -232.6247 c -10.6954,0 -21.3907,-8.0215 -21.3907,-21.3907 0,-5.3477 8.0215,-16.0431 21.3907,-16.0431 z m 320.8616,21.3908 c 0,16.043 -13.3692,29.4123 -29.4123,29.4123 -16.0431,0 -29.4123,-13.3693 -29.4123,-29.4123 0,-16.0431 13.3692,-29.4123 29.4123,-29.4123 16.0431,0 29.4123,13.3692 29.4123,29.4123 z"
   id="path8"
   style="stroke-width:26.7385" />
</svg>
