<?xml version="1.0" encoding="UTF-8" standalone="no"?>
<svg
   id="Camada_1"
   data-name="Camada 1"
   viewBox="0 0 2500 2500"
   version="1.1"
   sodipodi:docname="banco-paulista.svg"
   width="2500"
   height="2500"
   inkscape:version="1.3.2 (091e20e, 2023-11-25, custom)"
   xmlns:inkscape="http://www.inkscape.org/namespaces/inkscape"
   xmlns:sodipodi="http://sodipodi.sourceforge.net/DTD/sodipodi-0.dtd"
   xmlns="http://www.w3.org/2000/svg"
   xmlns:svg="http://www.w3.org/2000/svg">
  <sodipodi:namedview
     id="namedview8"
     pagecolor="#ffffff"
     bordercolor="#000000"
     borderopacity="0.25"
     inkscape:showpageshadow="2"
     inkscape:pageopacity="0.0"
     inkscape:pagecheckerboard="0"
     inkscape:deskcolor="#d1d1d1"
     inkscape:zoom="0.23153249"
     inkscape:cx="1669.3121"
     inkscape:cy="1030.093"
     inkscape:window-width="1920"
     inkscape:window-height="991"
     inkscape:window-x="2391"
     inkscape:window-y="-9"
     inkscape:window-maximized="1"
     inkscape:current-layer="Camada_1" />
  <defs
     id="defs1">
    <style
       id="style1">
      .cls-1 {
        font-family: TimesNewRomanPSMT, 'Times New Roman';
        font-size: 183.15px;
      }

      .cls-1, .cls-2 {
        fill: #293a56;
      }

      .cls-3 {
        fill: #fff;
      }

      .cls-4 {
        fill: #e30613;
      }
    </style>
  </defs>
  <polygon
     class="cls-4"
     points="1903.85,61.13 1903.85,66.75 346.77,66.75 346.77,61.13 "
     id="polygon1"
     transform="translate(272.10004,1161.824)" />
  <polygon
     class="cls-4"
     points="1903.85,96.1 1903.85,101.72 346.77,101.72 346.77,96.1 "
     id="polygon2"
     transform="translate(272.10004,1161.824)" />
  <polygon
     class="cls-4"
     points="1903.85,262.39 1903.85,268.01 346.77,268.01 346.77,262.39 "
     id="polygon3"
     transform="translate(272.10004,1161.824)" />
  <text
     class="cls-1"
     id="text3"
     x="637.03003"
     y="1404.614"><tspan
       x="637.03003"
       y="1404.614"
       id="tspan3">BANCO P</tspan></text>
  <text
     class="cls-1"
     id="text4"
     x="1409.12"
     y="1404.614"><tspan
       x="1409.12"
       y="1404.614"
       id="tspan4">AULIST</tspan></text>
  <text
     class="cls-1"
     id="text5"
     x="2045.61"
     y="1404.614"><tspan
       x="2045.61"
       y="1404.614"
       id="tspan5">A</tspan></text>
  <path
     class="cls-2"
     d="m 504.17005,1306.674 c 6.53,0 12.48,2.68 16.81,7 h 0.08 c 4.33,4.32 6.99,10.3 6.99,16.88 0,6.58 -2.67,12.56 -6.99,16.89 h -0.08 c -4.33,4.32 -10.27,7 -16.81,7 H 362.56004 c -12.4,0 -24.28,-2.72 -35.16,-7.63 -11.11,-5.02 -21.09,-12.34 -29.41,-21.38 -8.19,-8.91 -14.77,-19.49 -19.24,-31.17 -4.28,-11.19 -6.65,-23.4 -6.65,-36.13 0,-12.73 2.37,-24.93 6.65,-36.12 4.47,-11.69 11.06,-22.26 19.24,-31.17 8.32,-9.05 18.3,-16.36 29.41,-21.38 10.88,-4.92 22.76,-7.64 35.16,-7.64 h 215.49001 c 6.54,0 12.49,2.67 16.8,6.99 h 0.08 c 4.33,4.33 7,10.3 7,16.89 0,6.59 -2.68,12.56 -7,16.89 h -0.08 c -4.32,4.32 -10.26,6.99 -16.8,6.99 H 362.56004 c -5.55,0 -10.83,1.2 -15.63,3.37 -5.17,2.35 -9.87,5.82 -13.86,10.16 -4.1,4.47 -7.44,9.86 -9.75,15.9 -2.23,5.84 -3.47,12.3 -3.47,19.11 0,6.81 1.24,13.27 3.47,19.12 2.3,6.03 5.65,11.43 9.75,15.89 3.99,4.34 8.69,7.82 13.86,10.16 4.8,2.17 10.08,3.37 15.63,3.37 h 141.60001 z"
     id="path5" />
  <path
     class="cls-3"
     d="m 504.17005,1327.754 c 1.55,0 2.82,1.26 2.82,2.8 0,1.54 -1.26,2.81 -2.82,2.81 H 362.56004 c -19.13,0 -36.5,-8.49 -49.09,-22.18 -12.53,-13.64 -20.3,-32.41 -20.3,-53.06 0,-20.65 7.77,-39.42 20.3,-53.05 12.59,-13.69 29.95,-22.18 49.09,-22.18 h 215.49001 c 1.56,0 2.82,1.26 2.82,2.81 0,1.55 -1.26,2.81 -2.82,2.81 H 362.56004 c -17.49,0 -33.41,7.8 -44.96,20.37 -11.61,12.62 -18.82,30.06 -18.82,49.25 0,19.19 7.21,36.63 18.82,49.26 11.55,12.56 27.46,20.36 44.96,20.36 h 141.60001 z"
     id="path6" />
  <path
     class="cls-2"
     d="m 376.86005,1282.014 c -6.53,0 -12.47,-2.67 -16.80001,-7 l -0.08,-0.09 c -4.32,-4.32 -7,-10.26 -7,-16.8 0,-6.54 2.68,-12.47 7,-16.8 l 0.08,-0.08 c 4.33001,-4.33 10.27001,-7 16.80001,-7 h 141.61 c 12.4,0 24.27,2.72 35.15,7.63 11.11,5.02 21.09,12.35 29.41,21.39 8.19,8.91 14.78,19.49 19.25,31.16 4.28,11.19 6.66,23.4 6.66,36.12 0,12.72 -2.37,24.94 -6.66,36.13 -4.47,11.67 -11.06,22.25 -19.25,31.17 -8.32,9.04 -18.29,16.36 -29.41,21.38 -10.88,4.91 -22.75,7.63 -35.15,7.63 H 324.04004 v 20.52 c 0,6.53 -2.67,12.47 -6.99,16.8 v 0.09 c -4.33,4.32 -10.3,6.99 -16.89,6.99 -6.59,0 -12.56,-2.67 -16.88,-6.99 v -0.09 c -4.32,-4.33 -7,-10.27 -7,-16.8 v -68.28 h 242.19001 c 5.54,0 10.82,-1.2 15.62,-3.37 5.16,-2.34 9.86,-5.82 13.86,-10.15 4.11,-4.47 7.45,-9.86 9.75,-15.91 2.23,-5.85 3.47,-12.3 3.47,-19.11 0,-6.81 -1.24,-13.27 -3.47,-19.11 -2.3,-6.04 -5.64,-11.44 -9.75,-15.9 -3.99,-4.34 -8.69,-7.81 -13.86,-10.16 -4.8,-2.17 -10.08,-3.37 -15.62,-3.37 z"
     id="path7" />
  <path
     class="cls-3"
     d="m 376.86005,1260.944 c -1.55,0 -2.8,-1.25 -2.8,-2.81 0,-1.56 1.25,-2.81 2.8,-2.81 h 141.61 c 19.12,0 36.5,8.49 49.08,22.18 12.53,13.63 20.3,32.41 20.3,53.05 0,20.64 -7.77,39.42 -20.3,53.05 -12.59,13.69 -29.96,22.19 -49.08,22.19 H 302.97004 v 41.59 c 0,1.54 -1.26,2.81 -2.81,2.81 -1.55,0 -2.8,-1.26 -2.8,-2.81 v -47.2 h 221.12001 c 17.48,0 33.4,-7.8 44.95,-20.36 11.61,-12.63 18.81,-30.06 18.81,-49.26 0,-19.2 -7.2,-36.63 -18.81,-49.25 -11.55,-12.58 -27.47,-20.37 -44.95,-20.37 z"
     id="path8" />
</svg>
