<?xml version="1.0" encoding="UTF-8" standalone="no"?>
<svg
   viewBox="0 0 2500 2500"
   class="MuiSvgIcon-root MuiSvgIcon-fontSizeMedium css-kkopsl"
   focusable="false"
   aria-hidden="true"
   version="1.1"
   id="svg4"
   sodipodi:docname="c6 bank.svg"
   width="2500"
   height="2500"
   inkscape:version="1.2.2 (732a01da63, 2022-12-09)"
   xmlns:inkscape="http://www.inkscape.org/namespaces/inkscape"
   xmlns:sodipodi="http://sodipodi.sourceforge.net/DTD/sodipodi-0.dtd"
   xmlns="http://www.w3.org/2000/svg"
   xmlns:svg="http://www.w3.org/2000/svg">
  <defs
     id="defs8" />
  <sodipodi:namedview
     id="namedview6"
     pagecolor="#505050"
     bordercolor="#eeeeee"
     borderopacity="1"
     inkscape:showpageshadow="0"
     inkscape:pageopacity="0"
     inkscape:pagecheckerboard="0"
     inkscape:deskcolor="#505050"
     showgrid="false"
     inkscape:zoom="0.15963542"
     inkscape:cx="2161.1745"
     inkscape:cy="1829.168"
     inkscape:window-width="1920"
     inkscape:window-height="1009"
     inkscape:window-x="-8"
     inkscape:window-y="-8"
     inkscape:window-maximized="1"
     inkscape:current-layer="svg4" />
  <path
     fill-rule="evenodd"
     clip-rule="evenodd"
     shape-rendering="geometricPrecision"
     d="m 851.06151,1502.557 c 43.39355,-37.9834 71.67187,-87.9027 85.00229,-149.7023 h 428.3579 c -19.6331,176.6419 -90.7472,319.6508 -213.2866,429.1389 -122.5951,109.4877 -273.52431,164.2596 -452.67609,164.2596 -130.68264,0 -248.31374,-28.7246 -352.9491,-86.1177 C 240.87456,1802.7421 159.21883,1722.9826 100.54272,1620.8574 41.866603,1518.7319 12.528548,1404.1128 12.528548,1276.9439 c 0,-127.1688 29.338055,-241.788 88.014172,-343.91351 58.67611,-102.1255 140.33184,-181.8846 244.96719,-239.278 104.63536,-57.44905 222.26646,-86.1178 352.9491,-86.1178 176.3072,0 325.17269,52.8197 446.59659,158.5147 121.368,105.6393 193.0957,244.13071 215.0156,415.41801 H 937.84863 c -17.90403,-56.5008 -48.52493,-101.958 -91.91848,-136.4276 -43.33779,-34.4135 -91.91847,-51.64821 -145.68632,-51.64821 -74.01445,0 -133.69452,26.04731 -179.04023,78.14171 -45.45726,52.0946 -68.10222,120.5315 -68.10222,205.2549 0,84.2215 22.86808,152.3793 68.49264,204.4739 45.73613,52.0947 105.19312,78.0862 178.64981,78.0862 57.22594,0 107.5357,-18.9639 150.87346,-56.8912 z M 2371.509,1154.5161 c 83.1617,79.7594 124.7704,182.9444 124.7704,309.3881 0,144.5709 -47.8556,261.1421 -143.6226,349.6026 -95.8228,88.516 -221.9876,132.7464 -378.7175,132.7464 -154.8335,0 -280.7194,-44.3975 -377.7135,-133.1926 -97.0499,-88.8508 -145.519,-203.9161 -145.519,-345.4194 0,-77.2495 13.3304,-155.0008 39.9354,-233.1985 26.6051,-78.1975 67.7676,-163.7577 123.4876,-256.56861 l 196.8885,-327.4037 416.0872,-0.056 -232.9753,386.30311 c 23.2584,-1.2272 41.6087,-1.8408 55.1064,-1.8408 131.5751,0 238.9434,39.8797 322.2167,119.6392 z m -280.9425,428.0791 c 29.9515,-30.5093 44.9552,-70.0545 44.9552,-118.691 0,-48.5805 -15.0037,-88.4602 -44.9552,-119.6389 -30.0074,-31.1787 -68.8831,-46.74 -116.5714,-46.74 -47.7441,0 -86.6756,15.6171 -116.5714,46.74 -30.0631,31.1787 -45.011,71.0584 -45.011,119.6389 0,48.6365 14.9479,88.1817 44.9553,118.691 29.9515,30.5651 68.883,45.8477 116.5713,45.8477 47.7441,0 86.6198,-15.2826 116.5714,-45.8477 z"
     id="path2"
     style="fill:#000000;stroke-width:55.7759"
     sodipodi:nodetypes="ccccssssscsccccscscscccscscssccccscccscscscscc" />
</svg>
