<?xml version="1.0" encoding="UTF-8" standalone="no"?>
<svg
   viewBox="0 0 2500 2500"
   class="MuiSvgIcon-root MuiSvgIcon-fontSizeMedium css-kkopsl"
   focusable="false"
   aria-hidden="true"
   version="1.1"
   id="svg4"
   sodipodi:docname="c6 bank- nome- preto .svg"
   width="2500"
   height="2500"
   inkscape:version="1.2.2 (732a01da63, 2022-12-09)"
   xmlns:inkscape="http://www.inkscape.org/namespaces/inkscape"
   xmlns:sodipodi="http://sodipodi.sourceforge.net/DTD/sodipodi-0.dtd"
   xmlns="http://www.w3.org/2000/svg"
   xmlns:svg="http://www.w3.org/2000/svg">
  <defs
     id="defs8" />
  <sodipodi:namedview
     id="namedview6"
     pagecolor="#505050"
     bordercolor="#eeeeee"
     borderopacity="1"
     inkscape:showpageshadow="0"
     inkscape:pageopacity="0"
     inkscape:pagecheckerboard="0"
     inkscape:deskcolor="#505050"
     showgrid="false"
     inkscape:zoom="0.15963542"
     inkscape:cx="977.22675"
     inkscape:cy="1822.9037"
     inkscape:window-width="1920"
     inkscape:window-height="1009"
     inkscape:window-x="-8"
     inkscape:window-y="-8"
     inkscape:window-maximized="1"
     inkscape:current-layer="svg4" />
  <path
     fill-rule="evenodd"
     clip-rule="evenodd"
     shape-rendering="geometricPrecision"
     d="m 314.04621,1299.8633 c 16.25169,-14.2255 26.84245,-32.9212 31.83494,-56.0663 h 160.42802 c -7.35295,66.1557 -33.98651,119.7152 -79.87979,160.7205 -45.91416,41.0052 -102.43997,61.5183 -169.53565,61.5183 -48.94308,0 -92.99812,-10.7579 -132.18601,-32.2527 C 85.519834,1412.2882 54.938242,1382.4168 32.962945,1344.169 10.987648,1305.9211 0,1262.9941 0,1215.367 c 0,-47.6271 10.987648,-90.5541 32.962945,-128.802 21.975297,-38.2479 52.556889,-68.1192 91.744775,-89.61408 39.18789,-21.51574 83.24293,-32.25272 132.18601,-32.25272 66.03033,0 121.78325,19.78195 167.25874,59.3667 45.45461,39.5639 72.31795,91.4315 80.52735,155.5818 H 346.5496 c -6.70539,-21.1606 -18.17349,-38.1852 -34.42518,-51.0947 -16.23081,-12.8885 -34.42518,-19.3432 -54.56224,-19.3432 -27.71979,0 -50.07109,9.7552 -67.0539,29.2655 -17.02459,19.5104 -25.50555,45.1413 -25.50555,76.8718 0,31.5425 8.56452,57.0689 25.65177,76.5793 17.12903,19.5104 39.39678,29.2447 66.90768,29.2447 21.43218,0 40.27412,-7.1023 56.50492,-21.3068 z m 569.43593,-130.3478 c 31.14559,29.8714 46.72884,68.5161 46.72884,115.8716 0,54.1445 -17.92282,97.8026 -53.78935,130.9327 -35.88741,33.1509 -83.13848,49.716 -141.83675,49.716 -57.98805,0 -105.13467,-16.6277 -141.46075,-49.8831 -36.34698,-33.2763 -54.49958,-76.3704 -54.49958,-129.366 0,-28.9314 4.99249,-58.0507 14.95657,-87.3372 9.96409,-29.2864 25.38022,-61.3303 46.2484,-96.0897 l 73.7384,-122.6188 155.83242,-0.0209 -87.25362,144.67769 c 8.71074,-0.4596 15.58324,-0.6894 20.6384,-0.6894 49.2773,0 89.48875,14.9357 120.67613,44.8071 z m -105.21823,160.3236 c 11.21743,-11.4263 16.83659,-26.2367 16.83659,-44.452 0,-18.1943 -5.61916,-33.13 -16.83659,-44.807 -11.23831,-11.677 -25.79799,-17.505 -43.65814,-17.505 -17.88104,0 -32.46161,5.8489 -43.65815,17.505 -11.25921,11.677 -16.85748,26.6127 -16.85748,44.807 0,18.2153 5.59827,33.0257 16.83659,44.452 11.21743,11.4472 25.798,17.1708 43.65815,17.1708 17.88104,0 32.44072,-5.7236 43.65814,-17.1708 z m 444.08069,-136.1967 c 55.356,16.377 90.3243,65.3618 90.3243,128.6766 0,34.9892 -12.0739,65.3828 -35.8874,90.3452 -23.6674,24.7744 -53.3507,37.3497 -88.2355,37.3497 h -150.9443 a 2.1097956,2.1097956 0 0 1 -2.0889,-2.1307 V 982.8508 c 0,-1.16979 0.9191,-2.13068 2.0889,-2.13068 h 132.9589 c 32.3153,0 58.9907,10.79964 79.2322,32.12738 20.8055,20.4713 31.4171,47.836 31.4171,81.1958 0,44.7444 -22.205,81.6345 -58.8653,99.5991 z m 41.7781,207.0524 c 21.2233,-21.6202 31.5425,-47.2511 31.5425,-78.3967 0,-34.5923 -10.5908,-62.9387 -31.4798,-84.2038 -21.6202,-21.9962 -48.2538,-32.7123 -81.4256,-32.7123 h -130.2225 v 227.2939 h 135.9879 c 29.9131,0 55.356,-10.7578 75.5975,-31.9602 z M 1052.5165,998.05804 V 1188.065 h 118.0441 c 27.6153,0 50.2382,-8.8152 67.2836,-26.174 17.4842,-17.7975 26.3412,-40.6292 26.3412,-67.8477 0,-56.5258 -38.4986,-95.98526 -93.6248,-95.98526 H 1052.5373 Z M 2506.291,1446.6507 a 2.1097956,2.1097956 0 0 1 -1.692,3.3423 h -15.834 a 2.0889065,2.0889065 0 0 1 -1.7338,-0.8983 l -169.1805,-241.582 -74.7202,87.8594 v 152.4902 a 2.1097956,2.1097956 0 0 1 -2.0889,2.1516 h -12.5752 a 2.1097956,2.1097956 0 0 1 -2.0889,-2.1307 V 982.8508 c 0,-1.16979 0.94,-2.13068 2.0889,-2.13068 h 12.5752 c 1.1489,0 2.0889,0.96089 2.0889,2.13068 v 286.6815 l 242.6683,-288.06018 a 2.1097956,2.1097956 0 0 1 1.6085,-0.752 h 16.6276 c 1.1698,0 2.1098,0.96089 2.1098,2.13068 0,0.52223 -0.2088,1.00268 -0.5013,1.37868 L 2329.1099,1193.7886 Z M 2120.1566,980.72012 c 1.1489,0 2.0889,0.96089 2.0889,2.13068 v 465.0324 a 2.1097956,2.1097956 0 0 1 -2.0889,2.1307 h -5.7863 a 2.0471284,2.0471284 0 0 1 -1.692,-0.8774 l -304.5626,-430.3147 v 429.0614 a 2.1097956,2.1097956 0 0 1 -2.0889,2.1307 h -12.8259 a 2.1097956,2.1097956 0 0 1 -2.0889,-2.1307 V 982.8508 c 0,-1.16979 0.94,-2.13068 2.0889,-2.13068 h 8.1468 a 2.0889065,2.0889065 0 0 1 1.6711,0.87734 L 2105.2209,1408.57 V 982.87169 c 0,-1.16979 0.94,-2.13069 2.0889,-2.13069 h 12.8468 z m -404.7883,466.41108 a 2.1097956,2.1097956 0 0 1 -1.9636,2.8827 h -13.3272 a 2.0889065,2.0889065 0 0 1 -1.9636,-1.4205 L 1644.805,1304.814 h -217.3089 l -53.288,143.8212 a 2.0889065,2.0889065 0 0 1 -1.9636,1.3787 h -13.3481 a 2.1097956,2.1097956 0 0 1 -1.9427,-2.9036 L 1530.124,982.09879 a 2.0889065,2.0889065 0 0 1 1.9636,-1.37867 h 8.105 a 2.0889065,2.0889065 0 0 1 1.9844,1.39956 l 173.1704,465.01152 z M 1433.7419,1287.476 h 204.8382 l -102.3982,-273.2916 -102.4191,273.2916 z"
     id="path2"
     style="stroke-width:20.8891" />
</svg>
