<?xml version="1.0" encoding="UTF-8" standalone="no"?>
<svg
   width="2500"
   height="2500"
   viewBox="0 0 2500 2500"
   fill="none"
   version="1.1"
   id="svg10338"
   sodipodi:docname="logo-capitual-nome.svg"
   inkscape:version="1.2.2 (732a01da63, 2022-12-09)"
   xmlns:inkscape="http://www.inkscape.org/namespaces/inkscape"
   xmlns:sodipodi="http://sodipodi.sourceforge.net/DTD/sodipodi-0.dtd"
   xmlns="http://www.w3.org/2000/svg"
   xmlns:svg="http://www.w3.org/2000/svg">
  <sodipodi:namedview
     id="namedview10340"
     pagecolor="#505050"
     bordercolor="#eeeeee"
     borderopacity="1"
     inkscape:showpageshadow="0"
     inkscape:pageopacity="0"
     inkscape:pagecheckerboard="0"
     inkscape:deskcolor="#505050"
     showgrid="false"
     inkscape:zoom="0.10419626"
     inkscape:cx="5153.7356"
     inkscape:cy="2130.5946"
     inkscape:window-width="1920"
     inkscape:window-height="1009"
     inkscape:window-x="-8"
     inkscape:window-y="-8"
     inkscape:window-maximized="1"
     inkscape:current-layer="svg10338" />
  <g
     clip-path="url(#clip0_11562_27658)"
     id="g10331"
     transform="matrix(19.228385,0,0,19.228385,0.07589288,1104.3475)">
    <path
       d="m 43.2095,15.9654 c 0,-3.5531 2.1145,-5.6975 6.2675,-5.6975 0.7135,8e-4 1.424,0.0922 2.1145,0.2718 0.8949,0.2155 1.0838,0.4607 1.0838,1.3556 v 0.3679 c 0,0.9479 -0.2684,1.1368 -1.1368,0.8949 -0.6502,-0.1995 -1.3287,-0.2913 -2.0085,-0.2718 -2.6051,0 -3.5265,0.8684 -3.5265,3.1188 v 2.5554 c 0,2.3599 1.0308,3.1454 3.7154,3.1454 0.7029,-0.0194 1.4027,-0.1004 2.0914,-0.242 0.8949,-0.1922 1.1103,0.0265 1.1103,0.9214 v 0.3315 c 0,0.8948 -0.2453,1.1401 -1.1401,1.3589 -0.7188,0.1791 -1.4568,0.2692 -2.1975,0.2684 -4.3385,0 -6.3735,-1.8991 -6.3735,-5.6974 z"
       fill="#ffffff"
       id="path10307" />
    <path
       d="m 65.8104,19.9824 c 0,3.0095 -1.7633,4.3385 -5.7803,4.3385 -3.6624,0 -5.5052,-1.3821 -5.5052,-4.1761 0,-2.9034 1.9522,-4.0966 5.535,-4.0966 h 2.983 v -1.3257 c 0,-1.6009 -1.0573,-2.0649 -3.2017,-2.0649 -0.9548,-0.0111 -1.9083,0.0711 -2.8471,0.2453 -0.7888,0.1359 -0.9943,-0.0265 -0.9943,-0.8684 v -0.3811 c 0,-0.7889 0.2154,-1.0308 0.9744,-1.1667 0.8975,-0.1458 1.8053,-0.219 2.7145,-0.2188 3.9342,0 6.1316,1.2197 6.1316,4.4513 z m -2.7675,-1.8196 h -2.983 c -1.8726,0 -2.741,0.5436 -2.741,1.9257 0,1.4384 1.0308,1.8726 2.6515,1.8726 2.0351,0 3.0658,-0.4077 3.0658,-2.1146 z"
       fill="#ffffff"
       id="path10309" />
    <path
       d="m 67.4146,16.0482 c 0,-3.8811 2.2769,-5.7803 6.1846,-5.7803 4.206,0 6.2145,1.8462 6.2145,5.7803 v 2.3599 c 0,3.9341 -1.8727,5.9128 -5.6345,5.9128 -1.9256,0 -3.2547,-0.5966 -3.9772,-1.7632 v 4.9715 c 0,0.9745 -0.2453,1.2197 -1.2231,1.2197 h -0.3314 c -0.9943,0 -1.2197,-0.2452 -1.2197,-1.2197 z m 9.6117,0.0796 c 0,-2.277 -0.7027,-3.2548 -3.3906,-3.2548 -2.6317,0 -3.4437,0.9778 -3.4437,3.2548 v 2.32 c 0,2.2538 0.759,3.2282 3.4437,3.2282 2.6316,0 3.3906,-0.9479 3.3906,-3.2282 z"
       fill="#ffffff"
       id="path10311" />
    <path
       d="M 84.3377,8.73008 C 84.5765,8.49142 84.7392,8.18728 84.8052,7.85613 84.8712,7.52499 84.8375,7.18171 84.7083,6.86972 84.5792,6.55774 84.3604,6.29107 84.0797,6.10344 83.7989,5.91582 83.4689,5.81567 83.1312,5.81567 c -0.3376,0 -0.6677,0.10015 -0.9484,0.28777 -0.2808,0.18763 -0.4995,0.4543 -0.6287,0.76628 -0.1291,0.31199 -0.1629,0.65527 -0.0969,0.98641 0.066,0.33115 0.2287,0.63529 0.4676,0.87395 0.3238,0.31267 0.7563,0.48743 1.2064,0.48743 0.4501,0 0.8827,-0.17476 1.2065,-0.48743 z"
       fill="#ffffff"
       id="path10313" />
    <path
       d="m 83.3068,10.5663 h -0.3547 c -0.6736,0 -1.2197,0.5461 -1.2197,1.2197 v 11.017 c 0,0.6736 0.5461,1.2197 1.2197,1.2197 h 0.3547 c 0.6736,0 1.2196,-0.5461 1.2196,-1.2197 V 11.786 c 0,-0.6736 -0.546,-1.2197 -1.2196,-1.2197 z"
       fill="#ffffff"
       id="path10315" />
    <path
       d="m 86.4492,11.6567 c 0,-0.759 0.1889,-0.9943 0.9214,-1.1104 l 1.455,-0.2717 0.3315,-2.55211 c 0.1093,-0.78551 0.3314,-0.97774 1.1136,-0.97774 h 0.3546 c 0.7855,0 0.9745,0.19223 0.9745,0.97774 v 2.55211 h 3.7982 c 0.8949,0 1.1402,0.1889 1.1402,1.1368 v 0.3314 c 0,0.948 -0.2453,1.1402 -1.1402,1.1402 h -3.8214 v 6.4465 c 0,1.5732 0.7059,2.3598 2.1179,2.3598 0.7395,0.0087 1.4774,-0.0725 2.1974,-0.2419 0.8949,-0.1923 1.1103,0 1.1103,0.9479 v 0.3314 c 0,0.8982 -0.2154,1.1667 -1.1103,1.3589 -0.7243,0.139 -1.4599,0.2111 -2.1974,0.2154 -3.2581,0 -4.8854,-1.6572 -4.8854,-4.9914 v -6.4299 h -1.4086 c -0.7624,0 -0.9513,-0.1923 -0.9513,-0.9513 z"
       fill="#ffffff"
       id="path10317" />
    <path
       d="m 101.4,19.0312 c 0,1.8461 0.706,2.6515 3.119,2.6515 2.413,0 3.095,-0.812 3.095,-2.6515 v -7.5436 c 0,-0.9744 0.242,-1.2197 1.22,-1.2197 h 0.351 c 0.978,0 1.223,0.2453 1.223,1.2197 v 7.5436 c 0,3.5 -1.763,5.303 -5.889,5.303 -3.934,0 -5.913,-1.7633 -5.913,-5.303 v -7.5436 c 0,-0.9744 0.2452,-1.2197 1.2196,-1.2197 h 0.3544 c 0.975,0 1.22,0.2453 1.22,1.2197 z"
       fill="#ffffff"
       id="path10319" />
    <path
       d="m 123.295,19.9824 c 0,3.0095 -1.763,4.3385 -5.78,4.3385 -3.663,0 -5.509,-1.3821 -5.509,-4.1761 0,-2.9034 1.956,-4.0966 5.535,-4.0966 h 2.983 v -1.3257 c 0,-1.6009 -1.06,-2.0649 -3.201,-2.0649 -0.956,-0.0111 -1.911,0.0711 -2.851,0.2453 -0.785,0.1359 -0.994,-0.0265 -0.994,-0.8684 v -0.3811 c 0,-0.7889 0.219,-1.0308 0.978,-1.1667 0.897,-0.1458 1.805,-0.219 2.714,-0.2188 3.934,0 6.132,1.2197 6.132,4.4513 z m -2.767,-1.8196 h -2.983 c -1.873,0 -2.738,0.5436 -2.738,1.9257 0,1.4384 1.031,1.8726 2.652,1.8726 2.035,0 3.065,-0.4077 3.065,-2.1146 z"
       fill="#ffffff"
       id="path10321" />
    <path
       d="m 124.899,6.96017 c 0,-0.97443 0.245,-1.21969 1.223,-1.21969 h 0.351 c 0.995,0 1.22,0.24526 1.22,1.21969 V 19.6841 c 0,1.4384 0.408,1.9256 1.276,1.9256 0.868,0 1.031,0.1359 1.031,1.0838 v 0.2718 c 0,0.8949 -0.216,1.0573 -1.111,1.2495 -0.125,0.023 -0.253,0.0319 -0.381,0.0266 -2.171,0 -3.609,-1.2761 -3.609,-4.0171 z"
       fill="#ffffff"
       id="path10323" />
    <path
       d="m 29.8661,17.258 c 0.0031,2.9081 -1.0019,5.7273 -2.8437,7.9777 l -0.2287,0.2685 c -0.1989,0.2287 -0.4011,0.4474 -0.6165,0.6629 -0.2121,0.2154 -0.4342,0.4209 -0.6629,0.6131 l -0.2684,0.2287 c -2.4189,1.9841 -5.4896,2.997 -8.6142,2.8414 -3.1246,-0.1556 -6.0795,-1.4686 -8.2892,-3.6832 v 0 C 6.13339,23.9574 4.82453,21.0054 4.67017,17.8847 4.51582,14.7639 5.527,11.6972 7.50728,9.28029 L 7.73597,9.01183 C 7.86855,8.85937 8.00444,8.71022 8.14033,8.56439 8.21324,8.49478 8.28285,8.42187 8.35245,8.35227 L 8.56457,8.14014 C 8.71371,8.00094 8.86286,7.86505 9.01201,7.73579 L 9.28047,7.5071 C 10.7439,6.31319 12.4561,5.46218 14.2914,5.01655 16.1267,4.57091 18.0385,4.54196 19.8865,4.93182 l -0.7259,3.41713 -0.0961,0.44744 c -0.09,0.40372 -0.3165,0.76402 -0.6414,1.02005 -0.3249,0.25606 -0.7281,0.39206 -1.1417,0.38526 v 0 c -1.5568,-0.0052 -3.0715,0.5051 -4.3078,1.4512 -1.2363,0.9461 -2.1247,2.2749 -2.5265,3.7789 v 0 c -0.159,0.5957 -0.2392,1.2097 -0.2386,1.8262 -0.0034,0.9264 0.1764,1.8443 0.529,2.7009 0.3527,0.8567 0.8713,1.6351 1.5259,2.2906 0.9634,0.9672 2.1876,1.6329 3.5232,1.9157 0.4829,0.1014 0.9749,0.1525 1.4683,0.1524 0.6165,9e-4 1.2305,-0.0794 1.8262,-0.2386 v 0 c 1.1994,-0.3189 2.2934,-0.9486 3.1716,-1.8256 0.8781,-0.877 1.5093,-1.9702 1.8298,-3.1692 0.159,-0.5957 0.2392,-1.2096 0.2386,-1.8262 v 0 c -0.0068,-0.4136 0.1293,-0.8168 0.3853,-1.1417 0.256,-0.3249 0.6163,-0.5514 1.02,-0.6414 l 0.4574,-0.1127 3.4171,-0.7259 c 0.1794,0.8623 0.2683,1.741 0.2652,2.6217 z"
       fill="#ffffff"
       id="path10325" />
    <path
       d="M 15.8295,0.871682 14.9578,0 C 11.1479,0.0855142 7.50781,1.59287 4.75282,4.22584 L 4.49099,4.48436 4.23247,4.74619 C 1.59763,7.50052 0.0879472,11.1405 0,14.9512 c 0,0.1226 0,0.2486 0,0.3745 0,0.4441 0.0198863,0.8849 0.0563445,1.3258 0.0364582,0.4408 0.1027455,0.9446 0.1856055,1.4086 0.725898,4.0013 3.01133,7.5504 6.35367,9.8669 v 0 c 1.79769,1.2509 3.84378,2.0999 5.99908,2.4891 0.9013,0.1614 1.8153,0.2424 2.731,0.2419 0.1259,0 0.2519,0 0.3745,0 3.5046,-0.0805 6.874,-1.3683 9.5388,-3.6458 -2.4188,1.9841 -5.4895,2.997 -8.6141,2.8414 C 13.5002,29.698 10.5454,28.385 8.33567,26.1704 v 0 C 6.1266,23.9596 4.81838,21.0066 4.66524,17.8851 4.51211,14.7635 5.525,11.6966 7.50707,9.28027 L 7.73577,9.0118 C 7.86834,8.85934 8.00423,8.7102 8.14012,8.56436 L 8.34893,8.35224 8.56105,8.14012 C 8.7102,8.00092 8.85934,7.86503 9.00849,7.73577 L 9.27695,7.50707 C 10.7404,6.31317 12.4526,5.46216 14.2879,5.01653 16.1232,4.57089 18.035,4.54194 19.883,4.9318 L 18.8191,3.86788 Z"
       fill="#0f90ff"
       id="path10327" />
    <path
       d="m 33.6509,18.6964 -2.983,-2.9829 -1.0639,-1.0673 c 0.3942,1.8476 0.3677,3.7602 -0.0775,5.5961 -0.4452,1.8359 -1.2977,3.5482 -2.4944,5.01 l -0.2287,0.2684 c -0.1989,0.2287 -0.4011,0.4475 -0.6165,0.6629 -0.2121,0.2154 -0.4342,0.4209 -0.6629,0.6132 l -0.2684,0.2287 c -2.6649,2.2775 -6.0342,3.5653 -9.5388,3.6458 -0.1227,0 -0.2486,0 -0.3745,0 -0.9217,-0.0029 -1.8412,-0.0883 -2.7477,-0.2552 -2.1564,-0.3888 -4.20364,-1.2377 -6.00231,-2.4891 1.14633,1.6556 2.60784,3.0689 4.30091,4.1591 1.6931,1.0902 3.5845,1.836 5.566,2.1945 0.464,0.0829 0.9347,0.1459 1.4119,0.1856 0.4342,0.0365 0.8717,0.0564 1.3258,0.0564 0.1259,0 0.2519,0 0.3745,0 3.9382,-0.0952 7.6885,-1.7033 10.4725,-4.4903 2.7839,-2.7871 4.3878,-6.5392 4.4787,-10.4775 v 0 z"
       fill="#ba1bff"
       id="path10329" />
  </g>
  <defs
     id="defs10336">
    <clipPath
       id="clip0_11562_27658">
      <rect
         width="130"
         height="34.522598"
         fill="#ffffff"
         id="rect10333"
         x="0"
         y="0" />
    </clipPath>
  </defs>
</svg>
