<?xml version="1.0" encoding="UTF-8" standalone="no"?>
<svg
   width="2500"
   height="2500"
   viewBox="0 0 2500 2500"
   fill="none"
   version="1.1"
   id="svg10338"
   sodipodi:docname="logo capitual.svg"
   inkscape:version="1.2.2 (732a01da63, 2022-12-09)"
   xmlns:inkscape="http://www.inkscape.org/namespaces/inkscape"
   xmlns:sodipodi="http://sodipodi.sourceforge.net/DTD/sodipodi-0.dtd"
   xmlns="http://www.w3.org/2000/svg"
   xmlns:svg="http://www.w3.org/2000/svg">
  <sodipodi:namedview
     id="namedview10340"
     pagecolor="#505050"
     bordercolor="#eeeeee"
     borderopacity="1"
     inkscape:showpageshadow="0"
     inkscape:pageopacity="0"
     inkscape:pagecheckerboard="0"
     inkscape:deskcolor="#505050"
     showgrid="false"
     inkscape:zoom="0.14735577"
     inkscape:cx="2504.1435"
     inkscape:cy="1642.2838"
     inkscape:window-width="1920"
     inkscape:window-height="1009"
     inkscape:window-x="-8"
     inkscape:window-y="-8"
     inkscape:window-maximized="1"
     inkscape:current-layer="svg10338" />
  <g
     clip-path="url(#clip0_11562_27658)"
     id="g10331"
     transform="matrix(72.332763,0,0,72.332763,1.5096953,1.3061376)">
    <path
       d="m 29.8661,17.258 c 0.0031,2.9081 -1.0019,5.7273 -2.8437,7.9777 l -0.2287,0.2685 c -0.1989,0.2287 -0.4011,0.4474 -0.6165,0.6629 -0.2121,0.2154 -0.4342,0.4209 -0.6629,0.6131 l -0.2684,0.2287 c -2.4189,1.9841 -5.4896,2.997 -8.6142,2.8414 -3.1246,-0.1556 -6.0795,-1.4686 -8.2892,-3.6832 v 0 C 6.13339,23.9574 4.82453,21.0054 4.67017,17.8847 4.51582,14.7639 5.527,11.6972 7.50728,9.28029 L 7.73597,9.01183 C 7.86855,8.85937 8.00444,8.71022 8.14033,8.56439 8.21324,8.49478 8.28285,8.42187 8.35245,8.35227 L 8.56457,8.14014 C 8.71371,8.00094 8.86286,7.86505 9.01201,7.73579 L 9.28047,7.5071 C 10.7439,6.31319 12.4561,5.46218 14.2914,5.01655 16.1267,4.57091 18.0385,4.54196 19.8865,4.93182 l -0.7259,3.41713 -0.0961,0.44744 c -0.09,0.40372 -0.3165,0.76402 -0.6414,1.02005 -0.3249,0.25606 -0.7281,0.39206 -1.1417,0.38526 v 0 c -1.5568,-0.0052 -3.0715,0.5051 -4.3078,1.4512 -1.2363,0.9461 -2.1247,2.2749 -2.5265,3.7789 v 0 c -0.159,0.5957 -0.2392,1.2097 -0.2386,1.8262 -0.0034,0.9264 0.1764,1.8443 0.529,2.7009 0.3527,0.8567 0.8713,1.6351 1.5259,2.2906 0.9634,0.9672 2.1876,1.6329 3.5232,1.9157 0.4829,0.1014 0.9749,0.1525 1.4683,0.1524 0.6165,9e-4 1.2305,-0.0794 1.8262,-0.2386 v 0 c 1.1994,-0.3189 2.2934,-0.9486 3.1716,-1.8256 0.8781,-0.877 1.5093,-1.9702 1.8298,-3.1692 0.159,-0.5957 0.2392,-1.2096 0.2386,-1.8262 v 0 c -0.0068,-0.4136 0.1293,-0.8168 0.3853,-1.1417 0.256,-0.3249 0.6163,-0.5514 1.02,-0.6414 l 0.4574,-0.1127 3.4171,-0.7259 c 0.1794,0.8623 0.2683,1.741 0.2652,2.6217 z"
       fill="#ffffff"
       id="path10325" />
    <path
       d="M 15.8295,0.871682 14.9578,0 C 11.1479,0.0855142 7.50781,1.59287 4.75282,4.22584 L 4.49099,4.48436 4.23247,4.74619 C 1.59763,7.50052 0.0879472,11.1405 0,14.9512 c 0,0.1226 0,0.2486 0,0.3745 0,0.4441 0.0198863,0.8849 0.0563445,1.3258 0.0364582,0.4408 0.1027455,0.9446 0.1856055,1.4086 0.725898,4.0013 3.01133,7.5504 6.35367,9.8669 v 0 c 1.79769,1.2509 3.84378,2.0999 5.99908,2.4891 0.9013,0.1614 1.8153,0.2424 2.731,0.2419 0.1259,0 0.2519,0 0.3745,0 3.5046,-0.0805 6.874,-1.3683 9.5388,-3.6458 -2.4188,1.9841 -5.4895,2.997 -8.6141,2.8414 C 13.5002,29.698 10.5454,28.385 8.33567,26.1704 v 0 C 6.1266,23.9596 4.81838,21.0066 4.66524,17.8851 4.51211,14.7635 5.525,11.6966 7.50707,9.28027 L 7.73577,9.0118 C 7.86834,8.85934 8.00423,8.7102 8.14012,8.56436 L 8.34893,8.35224 8.56105,8.14012 C 8.7102,8.00092 8.85934,7.86503 9.00849,7.73577 L 9.27695,7.50707 C 10.7404,6.31317 12.4526,5.46216 14.2879,5.01653 16.1232,4.57089 18.035,4.54194 19.883,4.9318 L 18.8191,3.86788 Z"
       fill="#0f90ff"
       id="path10327" />
    <path
       d="m 33.6509,18.6964 -2.983,-2.9829 -1.0639,-1.0673 c 0.3942,1.8476 0.3677,3.7602 -0.0775,5.5961 -0.4452,1.8359 -1.2977,3.5482 -2.4944,5.01 l -0.2287,0.2684 c -0.1989,0.2287 -0.4011,0.4475 -0.6165,0.6629 -0.2121,0.2154 -0.4342,0.4209 -0.6629,0.6132 l -0.2684,0.2287 c -2.6649,2.2775 -6.0342,3.5653 -9.5388,3.6458 -0.1227,0 -0.2486,0 -0.3745,0 -0.9217,-0.0029 -1.8412,-0.0883 -2.7477,-0.2552 -2.1564,-0.3888 -4.20364,-1.2377 -6.00231,-2.4891 1.14633,1.6556 2.60784,3.0689 4.30091,4.1591 1.6931,1.0902 3.5845,1.836 5.566,2.1945 0.464,0.0829 0.9347,0.1459 1.4119,0.1856 0.4342,0.0365 0.8717,0.0564 1.3258,0.0564 0.1259,0 0.2519,0 0.3745,0 3.9382,-0.0952 7.6885,-1.7033 10.4725,-4.4903 2.7839,-2.7871 4.3878,-6.5392 4.4787,-10.4775 v 0 z"
       fill="#ba1bff"
       id="path10329" />
  </g>
  <defs
     id="defs10336">
    <clipPath
       id="clip0_11562_27658">
      <rect
         width="130"
         height="34.522598"
         fill="#ffffff"
         id="rect10333"
         x="0"
         y="0" />
    </clipPath>
  </defs>
</svg>
