<?xml version="1.0" encoding="UTF-8" standalone="no"?>
<!-- Generator: Adobe Illustrator 19.0.0, SVG Export Plug-In . SVG Version: 6.00 Build 0)  -->

<svg
   version="1.1"
   id="layer"
   x="0px"
   y="0px"
   viewBox="-153 -46 2500 2500"
   xml:space="preserve"
   sodipodi:docname="sicoob-vector-logo.svg"
   width="2500"
   height="2500"
   inkscape:version="1.2.2 (732a01da63, 2022-12-09)"
   xmlns:inkscape="http://www.inkscape.org/namespaces/inkscape"
   xmlns:sodipodi="http://sodipodi.sourceforge.net/DTD/sodipodi-0.dtd"
   xmlns="http://www.w3.org/2000/svg"
   xmlns:svg="http://www.w3.org/2000/svg"><defs
   id="defs27" /><sodipodi:namedview
   id="namedview25"
   pagecolor="#505050"
   bordercolor="#eeeeee"
   borderopacity="1"
   inkscape:showpageshadow="0"
   inkscape:pageopacity="0"
   inkscape:pagecheckerboard="0"
   inkscape:deskcolor="#505050"
   showgrid="false"
   inkscape:zoom="0.073476203"
   inkscape:cx="-612.44319"
   inkscape:cy="3647.4394"
   inkscape:window-width="1920"
   inkscape:window-height="1009"
   inkscape:window-x="-8"
   inkscape:window-y="-8"
   inkscape:window-maximized="1"
   inkscape:current-layer="layer" />
<style
   type="text/css"
   id="style2">
	.st0{fill:#6EBB49;}
	.st1{fill:#00AE9C;}
	.st2{fill:#B8D335;}
	.st3{fill:#003B43;}
</style>
<path
   class="st0"
   d="m -15.015863,203.6699 c -19.735892,1.64466 -39.471785,6.57863 -57.563019,18.09123 -42.761098,24.66987 -67.430968,70.72028 -67.430968,116.7707 0,19.7359 4.93397,41.11645 14.80192,60.85234 L 537.58913,1552.2891 753.03929,1180.5966 1103.3514,575.36254 887.90122,203.6699 Z"
   id="path4"
   style="stroke-width:16.4466" />
<g
   id="g8"
   transform="matrix(16.446577,0,0,16.446577,1938.8375,-3306.0297)">
	<path
   class="st0"
   d="m -118.8,213.4 c -1.2,0.1 -2.4,0.4 -3.5,1.1 -2.6,1.5 -4.1,4.3 -4.1,7.1 0,1.2 0.3,2.5 0.9,3.7 l 40.3,70.1 13.1,-22.6 21.3,-36.8 -13.1,-22.6 z"
   id="path6" />
</g>
<path
   class="st1"
   d="m 889.54588,203.6699 564.11762,975.282 h 396.3625 31.2485 l 452.2809,-782.85704 c 8.2233,-18.09124 13.1573,-36.18248 13.1573,-57.56303 0,-72.36493 -55.9184,-129.92796 -126.6386,-134.86193 z"
   id="path10"
   style="stroke-width:16.4466" />
<path
   class="st2"
   d="M 1851.6707,1178.9519 H 754.68395 l -215.45016,371.6926 453.92549,782.8571 c 9.86812,16.4465 26.31462,29.6038 42.76122,41.1165 21.3805,11.5125 44.4057,18.0911 67.4309,18.0911 44.4058,0 87.1668,-23.0252 113.4814,-60.8522 l 666.0863,-1152.9051 z"
   id="path12"
   style="stroke-width:16.4466" />

<g
   id="g18"
   transform="matrix(16.446577,0,0,16.446577,1938.8375,-3306.0297)">
	<path
   class="st1"
   d="m 23.9,225 c 0.5,-1.1 0.8,-2.3 0.8,-3.6 0,-3 -1.7,-5.7 -4.1,-7.1 -1.1,-0.6 -2.3,-1 -3.6,-1 l -80.9,0.2 13.1,22.6 21.3,36.7 26.1,-0.2 z"
   id="path16" />
</g>
<g
   id="g22"
   transform="matrix(16.446577,0,0,16.446577,1938.8375,-3306.0297)">
	<path
   class="st2"
   d="m -57.6,342.9 c 0.7,1 1.6,1.8 2.7,2.5 2.6,1.5 5.7,1.4 8.2,0 1.1,-0.6 2,-1.5 2.7,-2.6 l 40.5,-70 h -26.1 l -42.5,-0.1 -13,22.6 z"
   id="path20" />
</g>
</svg>
