<?xml version="1.0" encoding="UTF-8" standalone="no"?>
<svg
   width="2500"
   height="2500"
   viewBox="0 0 2500 2500"
   version="1.1"
   id="svg9"
   sodipodi:docname="banco-original-logo-verde.svg"
   inkscape:export-filename="C:\Users\suitedoalex\sites\banco-original-logo-0.png"
   inkscape:export-xdpi="561.73712"
   inkscape:export-ydpi="561.73712"
   inkscape:version="1.2.2 (732a01da63, 2022-12-09)"
   xmlns:inkscape="http://www.inkscape.org/namespaces/inkscape"
   xmlns:sodipodi="http://sodipodi.sourceforge.net/DTD/sodipodi-0.dtd"
   xmlns="http://www.w3.org/2000/svg"
   xmlns:svg="http://www.w3.org/2000/svg"
   xmlns:rdf="http://www.w3.org/1999/02/22-rdf-syntax-ns#"
   xmlns:cc="http://creativecommons.org/ns#"
   xmlns:dc="http://purl.org/dc/elements/1.1/">
  <metadata
     id="metadata15">
    <rdf:RDF>
      <cc:Work
         rdf:about="">
        <dc:format>image/svg+xml</dc:format>
        <dc:type
           rdf:resource="http://purl.org/dc/dcmitype/StillImage" />
        <dc:title>Combined Shape</dc:title>
      </cc:Work>
    </rdf:RDF>
  </metadata>
  <defs
     id="defs13" />
  <sodipodi:namedview
     pagecolor="#ffffff"
     bordercolor="#666666"
     borderopacity="1"
     objecttolerance="10"
     gridtolerance="10"
     guidetolerance="10"
     inkscape:pageopacity="0"
     inkscape:pageshadow="2"
     inkscape:window-width="1920"
     inkscape:window-height="1009"
     id="namedview11"
     showgrid="false"
     inkscape:zoom="0.15578358"
     inkscape:cx="198.99401"
     inkscape:cy="2182.515"
     inkscape:window-x="-8"
     inkscape:window-y="-8"
     inkscape:window-maximized="1"
     inkscape:current-layer="ICONS"
     inkscape:showpageshadow="0"
     inkscape:pagecheckerboard="0"
     inkscape:deskcolor="#d1d1d1" />
  <!-- Generator: Sketch 60.1 (88133) - https://sketch.com -->
  <title
     id="title2">Combined Shape</title>
  <desc
     id="desc4">Created with Sketch.</desc>
  <g
     id="PORTUGUES"
     style="fill:#18ad47;fill-opacity:1;fill-rule:evenodd;stroke:none;stroke-width:1"
     transform="matrix(4.2857177,0,0,4.2857177,62.856914,264.28565)"
     inkscape:export-filename="C:\Users\suitedoalex\sites\banco-original-logo-4.png"
     inkscape:export-xdpi="66.865623"
     inkscape:export-ydpi="66.865623">
    <g
       id="ICONS"
       transform="translate(-52,-51)"
       style="fill:#18ad47;fill-opacity:1">
      <path
         d="m 561.57089,210.00541 c 9.79684,0 17.73508,7.91206 17.73508,17.66914 v 0 189.95559 c 0,6.30966 -3.38017,12.14065 -8.86588,15.30216 v 0 L 334.54866,568.61723 c -2.7395,1.57909 -5.80604,2.36364 -8.86588,2.36364 -3.05983,0 -6.11633,-0.78448 -8.8525,-2.35697 v 0 L 81.005586,433.24477 c -5.492373,-3.15485 -8.882556,-8.98914 -8.882556,-15.3088 v 0 -189.86583 c 0,-9.75708 7.944905,-17.6691 17.741743,-17.6691 9.793494,0 17.728387,7.91202 17.728387,17.6691 v 0 179.65663 L 325.67278,532.90996 543.83584,407.42424 V 227.67455 c 0,-9.75708 7.93825,-17.66914 17.73505,-17.66914 z M 316.86763,-5.1739545 c 5.48904,-3.1648166 12.25941,-3.1648166 17.74841,-0.010309 v 0 L 570.44079,130.46079 c 5.48567,3.15815 8.86587,8.99247 8.86587,15.30217 0,6.313 -3.3802,12.14731 -8.86587,15.30546 v 0 L 334.55268,296.75369 c -2.74287,1.57576 -5.80938,2.36364 -8.87258,2.36364 -3.05649,0 -6.10963,-0.78795 -8.84917,-2.357 v 0 L 81.006253,161.3879 c -5.492374,-3.15485 -8.872549,-8.98583 -8.882556,-15.2955 0,-6.31303 3.373506,-12.15065 8.859197,-15.31213 v 0 z M 325.75687,30.526714 125.33559,146.0459 325.67343,261.04649 526.10146,145.76334 Z"
         id="Combined-Shape"
         inkscape:connector-curvature="0"
         style="fill:#18ad47;fill-opacity:1;stroke-width:14.4633"
         sodipodi:nodetypes="sscssccssccscsssccccsscsccssccsscccsccccccc" />
    </g>
  </g>
</svg>
