<?xml version="1.0" encoding="UTF-8" standalone="no"?>
<svg
   width="2500"
   height="2500"
   viewBox="0 0 2500 2500"
   version="1.1"
   id="svg3879"
   sodipodi:docname="banco-original-logo-branco-nome.svg"
   inkscape:version="1.2.2 (732a01da63, 2022-12-09)"
   xmlns:inkscape="http://www.inkscape.org/namespaces/inkscape"
   xmlns:sodipodi="http://sodipodi.sourceforge.net/DTD/sodipodi-0.dtd"
   xmlns="http://www.w3.org/2000/svg"
   xmlns:svg="http://www.w3.org/2000/svg"
   xmlns:rdf="http://www.w3.org/1999/02/22-rdf-syntax-ns#"
   xmlns:cc="http://creativecommons.org/ns#"
   xmlns:dc="http://purl.org/dc/elements/1.1/">
  <defs
     id="defs3883" />
  <sodipodi:namedview
     id="namedview3881"
     pagecolor="#505050"
     bordercolor="#eeeeee"
     borderopacity="1"
     inkscape:showpageshadow="0"
     inkscape:pageopacity="0"
     inkscape:pagecheckerboard="0"
     inkscape:deskcolor="#505050"
     showgrid="false"
     inkscape:zoom="0.28591418"
     inkscape:cx="1605.3768"
     inkscape:cy="1514.4405"
     inkscape:window-width="1920"
     inkscape:window-height="1009"
     inkscape:window-x="-8"
     inkscape:window-y="-8"
     inkscape:window-maximized="1"
     inkscape:current-layer="svg3879" />
  <!-- Generator: Sketch 60.1 (88133) - https://sketch.com -->
  <title
     id="title3872">Combined Shape</title>
  <desc
     id="desc3874">Created with Sketch.</desc>
  <g
     id="PORTUGUES"
     stroke="none"
     stroke-width="1"
     fill="none"
     fill-rule="evenodd"
     transform="matrix(18.618271,0,0,18.618271,3.497553,895.37357)">
    <g
       id="ICONS"
       transform="translate(-52,-51)"
       fill="#fefefe">
      <path
         d="m 85.840814,66.041872 c 0.677361,0 1.226217,0.547045 1.226217,1.221658 v 0 13.133679 c 0,0.436257 -0.233708,0.839415 -0.612993,1.058004 v 0 L 70.144317,90.836576 C 69.954905,90.945755 69.742884,91 69.531324,91 c -0.21156,0 -0.422889,-0.05424 -0.61207,-0.162964 v 0 L 52.614147,81.476818 C 52.2344,81.25869 52,80.855302 52,80.418355 v 0 -13.127473 c 0,-0.674612 0.549317,-1.221657 1.226678,-1.221657 0.67713,0 1.225755,0.547045 1.225755,1.221657 v 0 12.421601 l 15.078199,8.655265 15.083966,-8.676181 V 67.26353 c 0,-0.674613 0.548856,-1.221658 1.226216,-1.221658 z m 28.663436,-3.806928 c 2.32946,0 4.22451,1.887995 4.22451,4.2088 v 0 2.663741 c 0,1.972811 -1.3718,4.14651 -3.21447,4.599546 v 0 l 3.03774,5.804425 c 0.38206,0.696218 0.12297,1.570111 -0.57446,1.953272 -0.83401,0.458323 -1.67102,-0.0018 -1.96033,-0.572328 v 0 l -3.72572,-7.058721 h -2.94453 v 6.295846 c 0,0.793675 -0.64806,1.438866 -1.44447,1.438866 -0.79664,0 -1.44447,-0.645191 -1.44447,-1.438866 v 0 -13.685781 c 0,-2.320805 1.89504,-4.2088 4.22451,-4.2088 v 0 z m 28.09677,0.01416 c 0.79617,0 1.44446,0.645651 1.44446,1.439326 v 0 16.455254 c 0,0.793676 -0.64829,1.439097 -1.44446,1.439097 -0.79641,0 -1.4447,-0.645421 -1.4447,-1.439097 v 0 -16.455254 c 0,-0.793675 0.64829,-1.439326 1.4447,-1.439326 z m 5.31465,0 c 0.51517,0 0.99504,0.276511 1.25252,0.721732 v 0 l 6.68455,12.619043 v -11.90145 c 0,-0.793675 0.64806,-1.439326 1.4447,-1.439326 0.7964,0 1.44446,0.645651 1.44446,1.439326 v 0 16.455254 c 0,0.650708 -0.4388,1.229013 -1.07187,1.390598 -0.34768,0.08849 -1.16692,0.121361 -1.62511,-0.673463 v 0 L 149.36037,68.81939 v 11.324293 c 0,0.793676 -0.6483,1.439097 -1.4447,1.439097 -0.79618,0 -1.44447,-0.645421 -1.44447,-1.439097 v 0 -16.455254 c 0,-1.434499 1.31896,-1.439326 1.44447,-1.439325 z m 29.30309,-4.6e-5 c 0.79618,0 1.44447,0.645421 1.44447,1.439096 v 0 15.016158 h 5.8923 c 0.79641,0 1.44447,0.645881 1.44447,1.439556 0,0.793446 -0.64806,1.438867 -1.44447,1.438867 v 0 h -7.33677 c -0.79663,0 -1.44469,-0.645421 -1.44469,-1.438867 v 0 -16.455714 c 0,-0.793675 0.64806,-1.439096 1.44469,-1.439096 z m -77.408349,-0.01416 c 2.329469,0 4.224509,1.887995 4.224509,4.2088 v 0 10.916078 c 0,2.320804 -1.89504,4.208799 -4.224509,4.208799 v 0 h -3.82169 c -2.329465,0 -4.224507,-1.887995 -4.224507,-4.208799 v 0 -10.916078 c 0,-2.320805 1.895042,-4.2088 4.224507,-4.2088 v 0 z m 22.785849,-4.6e-5 c 0.79641,0 1.44447,0.645652 1.44447,1.439097 v 0 16.455484 c 0,0.793445 -0.64806,1.439096 -1.44447,1.439096 -0.7964,0 -1.44446,-0.645651 -1.44446,-1.439096 v 0 -16.455484 c 0,-0.793445 0.64806,-1.439097 1.44446,-1.439097 z m 11.91341,9.2e-5 c 2.32923,0 4.22474,1.887995 4.22474,4.20903 0,0.793215 -0.64829,1.438866 -1.4447,1.438866 -0.79664,0 -1.44447,-0.645651 -1.44447,-1.438866 0,-0.733914 -0.59915,-1.330837 -1.33557,-1.330837 v 0 h -3.82169 c -0.73619,0 -1.33557,0.596923 -1.33557,1.330837 v 0 10.915847 c 0,0.733455 0.59938,1.330607 1.33557,1.330607 v 0 h 3.82169 c 0.73642,0 1.33557,-0.597152 1.33557,-1.330607 v 0 -3.543151 h -3.24653 c -0.79641,0 -1.44447,-0.645651 -1.44447,-1.439096 0,-0.793445 0.64806,-1.439096 1.44447,-1.439096 v 0 l 4.69077,-2.3e-4 c 0.38597,0 0.74888,0.149862 1.02181,0.421546 0.2727,0.271684 0.42312,0.633239 0.42312,1.01755 v 0 4.982477 c 0,2.320575 -1.89551,4.20903 -4.22474,4.20903 v 0 h -3.82169 c -2.32947,0 -4.22451,-1.888455 -4.22451,-4.20903 v 0 -10.915847 c 0,-2.321035 1.89504,-4.20903 4.22451,-4.20903 v 0 z m 34.66015,0.0142 c 2.32116,-0.0016 4.2079,1.814904 4.20951,4.553347 v 0 13.284461 c 0,0.852747 -0.64806,1.471276 -1.44423,1.471276 -0.79664,0 -1.44447,-0.645422 -1.44447,-1.438867 v 0 -6.28895 h -6.443 v 6.28895 c 0,0.793445 -0.64806,1.438867 -1.44447,1.438867 -0.79618,0 -1.44424,-0.645422 -1.44424,-1.438867 v 0 -13.676127 c 0,-2.312989 1.88836,-4.19409 4.20952,-4.19409 v 0 z m -69.359409,2.863943 h -3.82169 c -0.736422,0 -1.335572,0.596923 -1.335572,1.330607 v 0 10.916078 c 0,0.733454 0.59915,1.330606 1.335572,1.330606 v 0 h 3.82169 c 0.736419,0 1.335569,-0.597152 1.335569,-1.330606 v 0 -10.916078 c 0,-0.733684 -0.59915,-1.330607 -1.335569,-1.330607 z M 68.921838,51.1642 c 0.379515,-0.218818 0.847623,-0.218818 1.227139,-6.9e-4 v 0 l 16.305107,9.378606 c 0.379285,0.218358 0.612993,0.621746 0.612993,1.058003 0,0.436487 -0.233708,0.839875 -0.612993,1.058234 v 0 l -16.30949,9.381363 c -0.189643,0.108949 -0.401664,0.163424 -0.613455,0.163424 -0.211329,0 -0.422427,-0.05448 -0.611839,-0.162964 v 0 L 52.614193,62.680418 c -0.379747,-0.218128 -0.613455,-0.621287 -0.614147,-1.057544 0,-0.436486 0.233247,-0.840105 0.612532,-1.058693 v 0 z m 45.582412,13.948937 h -3.82169 c -0.73642,0 -1.33557,0.596923 -1.33557,1.330607 v 0 4.511743 h 5.15726 c 0.73642,0 1.33557,-1.114547 1.33557,-1.848002 v 0 -2.663741 c 0,-0.733684 -0.59915,-1.330607 -1.33557,-1.330607 z m 54.66557,0.01444 h -3.80138 c -0.72812,0 -1.32081,0.590027 -1.32081,1.315666 v 0 4.509215 h 6.443 v -4.509215 c 0,-0.725639 -0.59246,-1.315666 -1.32081,-1.315666 z m -99.633374,-11.495004 -13.857288,7.987088 13.85152,7.951232 13.857749,-7.970769 z m 39.195034,0.28867 c 1.1014,-4.6e-4 1.99678,0.861481 1.99771,2.161288 v 0 2.919336 c 0,0.404997 -0.30754,0.698287 -0.68544,0.698287 -0.3779,0 -0.68544,-0.306391 -0.68544,-0.682887 v 0 -3.105285 c 0,-0.344317 -0.28123,-0.624505 -0.62683,-0.624505 v 0 h -1.80414 c -0.34561,0 -0.62684,0.280188 -0.62684,0.624505 v 0 3.105285 c 0,0.376496 -0.30753,0.682887 -0.68543,0.682887 -0.37791,0 -0.68544,-0.306391 -0.68544,-0.682887 v 0 -3.105285 c 0,-1.097538 0.89607,-1.990739 1.99771,-1.990739 v 0 z m -6.61276,2.07e-4 c 1.10163,0 1.99794,0.892741 1.99794,1.990279 v 0 1.797434 c 4.6e-4,1.097537 -0.86447,1.989589 -2.16912,1.990278 v 0 h -1.69571 c -0.0768,0 -0.14789,-0.01402 -0.21549,-0.03425 -0.913602,-0.167791 -1.610112,-0.955949 -1.632952,-1.908681 0.02515,-1.074783 0.881999,-1.940171 2.166812,-1.941091 v 0 h 2.16544 c -0.0468,-0.298346 -0.30454,-0.528197 -0.61692,-0.528197 v 0 h -2.825719 c -0.378132,0 -0.685436,-0.306162 -0.685436,-0.682887 0,-0.376496 0.307304,-0.682887 0.685436,-0.682887 v 0 z m 14.23768,4.37e-4 c 0.40628,0 0.70089,0.306161 0.70089,0.682887 0,0.376495 -0.30753,0.682887 -0.68543,0.682887 v 0 h -2.82572 c -0.3456,0 -0.62684,0.280188 -0.62684,0.624504 v 0 1.797434 c 0,0.344317 0.28124,0.624505 0.62684,0.624505 v 0 h 2.82572 c 0.3779,0 0.68543,0.306161 0.68543,0.682887 0,0.376496 -0.30753,0.682887 -0.68543,0.682887 v 0 h -2.82572 c -1.10187,0 -1.99794,-0.892741 -1.99794,-1.990279 v 0 -1.797434 c -6.9e-4,-1.097538 0.8647,-1.989589 2.16912,-1.990278 v 0 z m 5.35104,-2.07e-4 c 1.10163,0 1.9977,0.892741 1.9977,1.990508 v 0 1.797204 c 6.9e-4,1.097538 -0.86446,1.98959 -2.16889,1.990509 v 0 h -1.6378 c -1.1014,0 -1.99771,-0.892741 -1.99771,-1.990279 v 0 -1.797434 c -6.9e-4,-1.097538 0.86447,-1.989589 2.1689,-1.990278 v 0 z M 94.931683,51.049527 c 1.040958,0 1.887659,0.843783 1.887659,1.88087 v 0 0.765633 c 0,1.142359 -0.692357,1.213843 -0.692357,1.213843 0,0 1.6438,0.172618 1.6438,1.714457 v 0 1.190168 c 0,1.037087 -0.846701,1.88064 -1.887659,1.88064 v 0 l -2.231184,2.3e-4 c -1.54644,0 -1.887658,-0.427753 -1.887658,-1.88087 v 0 l 6.61e-4,-5.049287 c 0.0116,-1.337841 0.189442,-1.715684 1.596766,-1.715684 v 0 z m 0.951443,4.71654 h -0.864004 l -0.175108,0.0097 h -1.788685 v 2.038777 c 0,0.469815 0.110279,0.594624 0.596613,0.594624 v 0 h 2.231184 c 0.328991,0 0.596843,-0.266856 0.596843,-0.594624 v 0 -1.222577 c 0,-0.327767 -0.267852,-0.825854 -0.596843,-0.825854 z m 25.824314,-0.478388 h -1.80899 c -0.34537,0 -0.62661,0.279958 -0.62661,0.624504 v 0 1.797434 c 0,0.344317 0.28124,0.624505 0.62661,0.624505 v 0 h 0.26255 l 0.002,-2.3e-4 h 1.54483 c 0.3456,0 0.6266,-0.279958 0.6266,-0.624505 v 0 -1.797204 c 0,-0.344546 -0.281,-0.624504 -0.6266,-0.624504 z m -18.96188,1.893511 h -2.34677 c -0.32899,0 -0.596846,0.254675 -0.621993,0.576236 0.02515,0.321562 0.293003,0.576236 0.621993,0.576236 v 0 h 1.71993 c 0.3456,0 0.62684,-0.280188 0.62684,-0.624504 v 0 z m -7.813877,-4.845417 h -1.569972 c -0.476645,0 -0.306382,0.117224 -0.306382,0.594624 v 0 1.581834 h 1.224602 l 0.255164,0.0097 h 0.396588 c 0.328991,0 0.596613,-0.498086 0.596613,-0.825854 v 0 -0.765633 c 0,-0.327767 -0.267622,-0.594624 -0.596613,-0.594624 z"
         id="Combined-Shape" />
    </g>
  </g>
  <metadata
     id="metadata3885">
    <rdf:RDF>
      <cc:Work
         rdf:about="">
        <dc:title>Combined Shape</dc:title>
      </cc:Work>
    </rdf:RDF>
  </metadata>
</svg>
