<?xml version="1.0" encoding="UTF-8" standalone="no"?>
<svg
   width="2500"
   height="2500"
   viewBox="0 0 2500 2500"
   version="1.1"
   id="svg3879"
   sodipodi:docname="banco-original-logo-branco.svg"
   inkscape:version="1.2.2 (732a01da63, 2022-12-09)"
   xmlns:inkscape="http://www.inkscape.org/namespaces/inkscape"
   xmlns:sodipodi="http://sodipodi.sourceforge.net/DTD/sodipodi-0.dtd"
   xmlns="http://www.w3.org/2000/svg"
   xmlns:svg="http://www.w3.org/2000/svg"
   xmlns:rdf="http://www.w3.org/1999/02/22-rdf-syntax-ns#"
   xmlns:cc="http://creativecommons.org/ns#"
   xmlns:dc="http://purl.org/dc/elements/1.1/">
  <defs
     id="defs3883" />
  <sodipodi:namedview
     id="namedview3881"
     pagecolor="#505050"
     bordercolor="#eeeeee"
     borderopacity="1"
     inkscape:showpageshadow="0"
     inkscape:pageopacity="0"
     inkscape:pagecheckerboard="0"
     inkscape:deskcolor="#505050"
     showgrid="false"
     inkscape:zoom="0.071478545"
     inkscape:cx="6911.1647"
     inkscape:cy="5917.8597"
     inkscape:window-width="1920"
     inkscape:window-height="1009"
     inkscape:window-x="-8"
     inkscape:window-y="-8"
     inkscape:window-maximized="1"
     inkscape:current-layer="svg3879" />
  <!-- Generator: Sketch 60.1 (88133) - https://sketch.com -->
  <title
     id="title3872">Combined Shape</title>
  <desc
     id="desc3874">Created with Sketch.</desc>
  <g
     id="PORTUGUES"
     stroke="none"
     stroke-width="1"
     fill="none"
     fill-rule="evenodd"
     transform="matrix(18.618271,0,0,18.618271,3.497553,895.37357)">
    <g
       id="ICONS"
       transform="translate(-52,-51)"
       fill="#fefefe">
      <path
         d="m 172.37217,53.553059 c 2.25522,0 4.08258,1.821339 4.08258,4.067405 v 0 43.727446 c 0,1.45248 -0.77811,2.79476 -2.0409,3.52254 v 0 l -54.30181,31.23444 c -0.63064,0.3635 -1.33654,0.5441 -2.04091,0.5441 -0.70437,0 -1.40797,-0.18058 -2.03784,-0.54257 v 0 L 61.746844,104.94238 c -1.264335,-0.72624 -2.04475,-2.06928 -2.04475,-3.52406 v 0 -43.70679 c 0,-2.246062 1.828904,-4.067401 4.084119,-4.067401 2.254446,0 4.081045,1.821339 4.081045,4.067401 v 0 41.356651 L 118.06882,127.88514 168.28959,98.998543 V 57.620464 c 0,-2.246066 1.82737,-4.067405 4.08258,-4.067405 z M 116.0419,4.0191337 c 1.26356,-0.7285357 2.82209,-0.7285357 4.08565,-0.0023 v 0 L 174.414,35.242093 c 1.2628,0.727004 2.04091,2.070049 2.04091,3.522529 0,1.453246 -0.77811,2.796292 -2.04091,3.523299 v 0 l -54.30104,31.23444 c -0.6314,0.362736 -1.33731,0.544106 -2.04245,0.544106 -0.7036,0 -1.40643,-0.181386 -2.03706,-0.542574 v 0 L 61.746997,42.361388 c -1.264335,-0.726238 -2.042446,-2.068522 -2.04475,-3.521002 0,-1.453242 0.776576,-2.797057 2.039373,-3.524827 v 0 z m 2.04628,8.2182353 -46.136646,26.59232 46.117446,26.472942 46.13818,-26.537989 z"
         id="Combined-Shape"
         sodipodi:nodetypes="sscssccssccscsssccccsscsccssccsscccsccccccc"
         style="stroke-width:3.32941" />
    </g>
  </g>
  <metadata
     id="metadata3885">
    <rdf:RDF>
      <cc:Work
         rdf:about="">
        <dc:title>Combined Shape</dc:title>
      </cc:Work>
    </rdf:RDF>
  </metadata>
</svg>
