<?xml version="1.0" encoding="UTF-8" standalone="no"?>
<svg
   width="2500"
   height="2500"
   viewBox="0 0 2500 2500"
   version="1.1"
   id="svg9"
   sodipodi:docname="banco-original-logo-verde-nome.svg"
   inkscape:export-filename="C:\Users\suitedoalex\sites\banco-original-logo-0.png"
   inkscape:export-xdpi="561.73712"
   inkscape:export-ydpi="561.73712"
   inkscape:version="1.2.2 (732a01da63, 2022-12-09)"
   xmlns:inkscape="http://www.inkscape.org/namespaces/inkscape"
   xmlns:sodipodi="http://sodipodi.sourceforge.net/DTD/sodipodi-0.dtd"
   xmlns="http://www.w3.org/2000/svg"
   xmlns:svg="http://www.w3.org/2000/svg"
   xmlns:rdf="http://www.w3.org/1999/02/22-rdf-syntax-ns#"
   xmlns:cc="http://creativecommons.org/ns#"
   xmlns:dc="http://purl.org/dc/elements/1.1/">
  <metadata
     id="metadata15">
    <rdf:RDF>
      <cc:Work
         rdf:about="">
        <dc:format>image/svg+xml</dc:format>
        <dc:type
           rdf:resource="http://purl.org/dc/dcmitype/StillImage" />
        <dc:title>Combined Shape</dc:title>
      </cc:Work>
    </rdf:RDF>
  </metadata>
  <defs
     id="defs13" />
  <sodipodi:namedview
     pagecolor="#ffffff"
     bordercolor="#666666"
     borderopacity="1"
     objecttolerance="10"
     gridtolerance="10"
     guidetolerance="10"
     inkscape:pageopacity="0"
     inkscape:pageshadow="2"
     inkscape:window-width="1920"
     inkscape:window-height="1009"
     id="namedview11"
     showgrid="false"
     inkscape:zoom="0.22031126"
     inkscape:cx="-381.27875"
     inkscape:cy="1080.2898"
     inkscape:window-x="-8"
     inkscape:window-y="-8"
     inkscape:window-maximized="1"
     inkscape:current-layer="ICONS"
     inkscape:showpageshadow="0"
     inkscape:pagecheckerboard="0"
     inkscape:deskcolor="#d1d1d1" />
  <!-- Generator: Sketch 60.1 (88133) - https://sketch.com -->
  <title
     id="title2">Combined Shape</title>
  <desc
     id="desc4">Created with Sketch.</desc>
  <g
     id="PORTUGUES"
     style="fill:#18ad47;fill-opacity:1;fill-rule:evenodd;stroke:none;stroke-width:1"
     transform="matrix(4.2857177,0,0,4.2857177,62.856914,264.28565)"
     inkscape:export-filename="C:\Users\suitedoalex\sites\banco-original-logo-4.png"
     inkscape:export-xdpi="66.865623"
     inkscape:export-ydpi="66.865623">
    <g
       id="ICONS"
       transform="translate(-52,-51)"
       style="fill:#18ad47;fill-opacity:1">
      <path
         d="m 192.31558,281.64914 c 2.85097,0 5.16107,2.30248 5.16107,5.14188 v 0 55.27881 c 0,1.83617 -0.98366,3.53304 -2.58005,4.45307 v 0 l -68.64656,39.48555 c -0.79722,0.45953 -1.68961,0.68784 -2.58005,0.68784 -0.89044,0 -1.77991,-0.22829 -2.57616,-0.6859 v 0 L 52.466692,346.61383 c -1.598331,-0.91809 -2.584905,-2.61592 -2.584905,-4.455 v 0 -55.25269 c 0,-2.8394 2.31204,-5.14187 5.163009,-5.14187 2.849996,0 5.159123,2.30247 5.159123,5.14187 v 0 52.28172 l 63.463161,36.42945 63.48744,-36.51749 v -52.3088 c 0,-2.8394 2.3101,-5.14188 5.16106,-5.14188 z m 120.64256,-16.02311 c 9.80454,0 17.78069,7.94644 17.78069,17.71456 v 0 11.21152 c 0,8.30343 -5.77382,17.45239 -13.5295,19.35919 v 0 l 12.78565,24.43045 c 1.60807,2.93034 0.51758,6.6085 -2.41786,8.2212 -3.5103,1.92905 -7.03322,-0.008 -8.25091,-2.4089 v 0 l -15.68131,-29.7097 h -12.39334 v 26.49881 c 0,3.34053 -2.72764,6.0561 -6.07968,6.0561 -3.353,0 -6.07968,-2.71557 -6.07968,-6.0561 v 0 -57.60257 c 0,-9.76812 7.9761,-17.71456 17.78069,-17.71456 v 0 z m 118.25749,0.0596 c 3.35103,0 6.07964,2.7175 6.07964,6.05802 v 0 69.25911 c 0,3.34053 -2.72861,6.05706 -6.07964,6.05706 -3.35204,0 -6.08065,-2.71653 -6.08065,-6.05706 v 0 -69.25911 c 0,-3.34052 2.72861,-6.05802 6.08065,-6.05802 z m 22.36902,0 c 2.16832,0 4.18806,1.16382 5.27178,3.03772 v 0 l 28.13484,53.11273 v -50.09243 c 0,-3.34053 2.72764,-6.05803 6.08064,-6.05803 3.352,0 6.07964,2.7175 6.07964,6.05803 v 0 69.2591 c 0,2.73879 -1.84688,5.17284 -4.51143,5.85294 -1.46336,0.37245 -4.91149,0.5108 -6.83998,-2.83456 v 0 l -28.13484,-50.6816 v 47.66322 c 0,3.34053 -2.72865,6.05707 -6.08065,6.05707 -3.35107,0 -6.07968,-2.71654 -6.07968,-6.05707 v 0 -69.2591 c 0,-6.03771 5.55142,-6.05803 6.07968,-6.05802 z m 123.33482,-2e-4 c 3.35107,0 6.07968,2.71653 6.07968,6.05706 v 0 63.20204 h 24.80031 c 3.35204,0 6.07968,2.71847 6.07968,6.059 0,3.33956 -2.72764,6.0561 -6.07968,6.0561 v 0 h -30.87999 c -3.35297,0 -6.08061,-2.71654 -6.08061,-6.0561 v 0 -69.26104 c 0,-3.34053 2.72764,-6.05706 6.08061,-6.05706 z m -325.80675,-0.0596 c 9.80458,0 17.78068,7.94645 17.78068,17.71457 v 0 45.94507 c 0,9.76811 -7.9761,17.71456 -17.78068,17.71456 v 0 h -16.08525 c -9.80457,0 -17.78068,-7.94645 -17.78068,-17.71456 v 0 -45.94507 c 0,-9.76812 7.97611,-17.71457 17.78068,-17.71457 v 0 z m 95.90417,-1.9e-4 c 3.35203,0 6.07968,2.7175 6.07968,6.05706 v 0 69.26007 c 0,3.33956 -2.72765,6.05707 -6.07968,6.05707 -3.352,0 -6.07964,-2.71751 -6.07964,-6.05707 v 0 -69.26007 c 0,-3.33956 2.72764,-6.05706 6.07964,-6.05706 z m 50.14277,3.9e-4 c 9.80358,0 17.78166,7.94644 17.78166,17.71553 0,3.33859 -2.72861,6.05609 -6.08065,6.05609 -3.35301,0 -6.07968,-2.7175 -6.07968,-6.05609 0,-3.089 -2.52179,-5.60141 -5.62133,-5.60141 v 0 h -16.08525 c -3.09857,0 -5.62132,2.51241 -5.62132,5.60141 v 0 45.9441 c 0,3.08706 2.52275,5.60044 5.62132,5.60044 v 0 h 16.08525 c 3.09954,0 5.62133,-2.51338 5.62133,-5.60044 v 0 -14.9129 h -13.66444 c -3.35204,0 -6.07968,-2.7175 -6.07968,-6.05706 0,-3.33956 2.72764,-6.05706 6.07968,-6.05706 v 0 l 19.74315,-9.7e-4 c 1.62452,0 3.15199,0.63076 4.30073,1.77426 1.14778,1.1435 1.78089,2.66526 1.78089,4.2828 v 0 20.97093 c 0,9.76715 -7.97808,17.71553 -17.78166,17.71553 v 0 h -16.08525 c -9.80459,0 -17.78069,-7.94838 -17.78069,-17.71553 v 0 -45.9441 c 0,-9.76909 7.9761,-17.71553 17.78069,-17.71553 v 0 z m 145.88234,0.0598 c 9.76961,-0.007 17.71078,7.63881 17.71755,19.16474 v 0 55.91343 c 0,3.58916 -2.72764,6.19251 -6.07867,6.19251 -3.353,0 -6.07968,-2.71654 -6.07968,-6.0561 v 0 -26.46978 h -27.11817 v 26.46978 c 0,3.33956 -2.72764,6.0561 -6.07968,6.0561 -3.35107,0 -6.07872,-2.71654 -6.07872,-6.0561 v 0 -57.56193 c 0,-9.73523 7.94799,-17.65265 17.7176,-17.65265 v 0 z m -291.92928,12.05414 h -16.08525 c -3.09955,0 -5.62134,2.51241 -5.62134,5.60044 v 0 45.94507 c 0,3.08706 2.52179,5.60043 5.62134,5.60043 v 0 h 16.08525 c 3.09954,0 5.62132,-2.51337 5.62132,-5.60043 v 0 -45.94507 c 0,-3.08803 -2.52178,-5.60044 -5.62132,-5.60044 z M 121.1047,219.02998 c 1.59736,-0.92099 3.5676,-0.92099 5.16495,-0.003 v 0 l 68.62715,39.47395 c 1.59638,0.91905 2.58005,2.61689 2.58005,4.45307 0,1.83714 -0.98367,3.53498 -2.58005,4.45403 v 0 l -68.64559,39.48565 c -0.7982,0.45856 -1.69058,0.68784 -2.582,0.68784 -0.88947,0 -1.77796,-0.2293 -2.57519,-0.68591 v 0 L 52.466886,267.501 c -1.598331,-0.91809 -2.581993,-2.61496 -2.584905,-4.45113 0,-1.83715 0.981721,-3.53595 2.578107,-4.45597 v 0 z m 191.85344,58.71017 h -16.08525 c -3.09954,0 -5.62133,2.51241 -5.62133,5.60044 v 0 18.98964 h 21.70658 c 3.09954,0 5.62133,-4.69106 5.62133,-7.77812 v 0 -11.21152 c 0,-3.08803 -2.52179,-5.60044 -5.62133,-5.60044 z m 230.08386,0.0608 h -15.99977 c -3.06461,0 -5.5592,2.48339 -5.5592,5.53755 v 0 18.979 h 27.11817 v -18.979 c 0,-3.05416 -2.49363,-5.53755 -5.5592,-5.53755 z m -419.35045,-48.38175 -58.324424,33.61714 58.300144,33.46622 58.32638,-33.54845 z m 164.96937,1.215 c 4.63572,-0.002 8.40432,3.62592 8.40823,9.09672 v 0 12.2873 c 0,1.7046 -1.29441,2.93904 -2.88497,2.93904 -1.59056,0 -2.88497,-1.28958 -2.88497,-2.87423 v 0 -13.06994 c 0,-1.44921 -1.18368,-2.6285 -2.63829,-2.6285 v 0 h -7.59351 c -1.45465,0 -2.63833,1.17929 -2.63833,2.6285 v 0 13.06994 c 0,1.58465 -1.29437,2.87423 -2.88493,2.87423 -1.5906,0 -2.88497,-1.28958 -2.88497,-2.87423 v 0 -13.06994 c 0,-4.61947 3.7715,-8.37889 8.40823,-8.37889 v 0 z m -27.83268,8.7e-4 c 4.63669,0 8.4092,3.75749 8.4092,8.37695 v 0 7.56529 c 0.002,4.61946 -3.6385,8.37405 -9.12969,8.37695 v 0 h -7.13713 c -0.32325,0 -0.62246,-0.059 -0.90698,-0.14416 -3.84529,-0.70622 -6.77686,-4.02352 -6.87299,-8.03351 0.10585,-4.52369 3.71227,-8.16606 9.11997,-8.16993 v 0 h 9.1142 c -0.19698,-1.25572 -1.28179,-2.22315 -2.59658,-2.22315 v 0 h -11.89327 c -1.59153,0 -2.88495,-1.28861 -2.88495,-2.87422 0,-1.58465 1.29342,-2.87423 2.88495,-2.87423 v 0 z m 59.92548,0.002 c 1.71,0 2.95,1.28861 2.95,2.87423 0,1.58464 -1.29438,2.87422 -2.88493,2.87422 v 0 h -11.89328 c -1.4546,0 -2.63832,1.1793 -2.63832,2.6285 v 0 7.56528 c 0,1.44921 1.18372,2.62851 2.63832,2.62851 v 0 h 11.89328 c 1.59055,0 2.88493,1.28861 2.88493,2.87422 0,1.58465 -1.29438,2.87423 -2.88493,2.87423 v 0 h -11.89328 c -4.6377,0 -8.4092,-3.75749 -8.4092,-8.37696 v 0 -7.56528 c -0.003,-4.61947 3.63947,-8.37405 9.12969,-8.37695 v 0 z m 22.52218,-8.7e-4 c 4.63669,0 8.40819,3.75749 8.40819,8.37792 v 0 7.56431 c 0.003,4.61947 -3.63846,8.37406 -9.12872,8.37793 v 0 h -6.89339 c -4.63572,0 -8.40824,-3.75749 -8.40824,-8.37696 v 0 -7.56528 c -0.003,-4.61947 3.6385,-8.37405 9.12877,-8.37695 v 0 z M 230.57847,218.54733 c 4.38132,0 7.94503,3.55143 7.94503,7.91646 v 0 3.2225 c 0,4.80812 -2.91409,5.10899 -2.91409,5.10899 0,0 6.91865,0.72654 6.91865,7.21604 v 0 5.00934 c 0,4.36503 -3.56371,7.91549 -7.94503,7.91549 v 0 l -9.39091,9.7e-4 c -6.50887,0 -7.94503,-1.80039 -7.94503,-7.91646 v 0 l 0.003,-21.25213 c 0.0488,-5.63088 0.79735,-7.2212 6.72068,-7.2212 v 0 z m 4.00456,19.85161 h -3.63654 l -0.73702,0.0408 h -7.52846 v 8.58108 c 0,1.97742 0.46416,2.50274 2.51111,2.50274 v 0 h 9.39091 c 1.3847,0 2.51207,-1.12318 2.51207,-2.50274 v 0 -5.14574 c 0,-1.37955 -1.12737,-3.47597 -2.51207,-3.47597 z m 108.69287,-2.0135 h -7.61392 c -1.45364,0 -2.63736,1.17832 -2.63736,2.6285 v 0 7.56528 c 0,1.44921 1.18372,2.6285 2.63736,2.6285 v 0 h 1.10505 l 0.008,-9.7e-4 h 6.50209 c 1.45461,0 2.63732,-1.17832 2.63732,-2.6285 v 0 -7.56431 c 0,-1.45018 -1.18271,-2.6285 -2.63732,-2.6285 z m -79.80933,7.96966 h -9.8774 c -1.3847,0 -2.51209,1.07191 -2.61793,2.42534 0.10585,1.35344 1.23323,2.42534 2.61793,2.42534 v 0 h 7.23907 c 1.45461,0 2.63833,-1.17929 2.63833,-2.62849 v 0 z m -32.8881,-20.39404 h -6.60792 c -2.00616,0 -1.28954,0.49338 -1.28954,2.50273 v 0 6.65784 h 5.15427 l 1.07397,0.0408 h 1.66922 c 1.3847,0 2.5111,-2.09641 2.5111,-3.47597 v 0 -3.2225 c 0,-1.37955 -1.1264,-2.50273 -2.5111,-2.50273 z"
         id="Combined-Shape"
         inkscape:connector-curvature="0"
         style="fill:#18ad47;fill-opacity:1;stroke-width:4.20894" />
    </g>
  </g>
</svg>
