<?xml version="1.0" encoding="UTF-8" standalone="no"?>
<svg
   width="2500"
   height="2500"
   viewBox="0 0 2500 2500"
   fill="none"
   version="1.1"
   id="svg12"
   sodipodi:docname="header-logo-blue.0603a69a.svg"
   inkscape:version="1.2.2 (732a01da63, 2022-12-09)"
   xmlns:inkscape="http://www.inkscape.org/namespaces/inkscape"
   xmlns:sodipodi="http://sodipodi.sourceforge.net/DTD/sodipodi-0.dtd"
   xmlns="http://www.w3.org/2000/svg"
   xmlns:svg="http://www.w3.org/2000/svg">
  <defs
     id="defs16" />
  <sodipodi:namedview
     id="namedview14"
     pagecolor="#505050"
     bordercolor="#eeeeee"
     borderopacity="1"
     inkscape:showpageshadow="0"
     inkscape:pageopacity="0"
     inkscape:pagecheckerboard="0"
     inkscape:deskcolor="#505050"
     showgrid="false"
     inkscape:zoom="0.10665759"
     inkscape:cx="-1706.3952"
     inkscape:cy="1434.497"
     inkscape:window-width="1920"
     inkscape:window-height="1009"
     inkscape:window-x="-8"
     inkscape:window-y="-8"
     inkscape:window-maximized="1"
     inkscape:current-layer="svg12" />
  <path
     d="m 2493.5414,138.57849 c 17.2194,185.89196 -38.6923,377.71273 -153.289,526.45511 -1.8159,2.44187 -2.4377,5.65486 -1.6106,8.63786 60.2149,212.68627 -16.554,462.19674 -186.6893,606.73374 l -63.7284,67.9666 c -1.7412,1.8535 -2.6491,4.4374 -2.5247,7.1024 9.7259,184.0399 -80.4503,365.3607 -229.7656,461.8788 l -93.2794,60.2756 c -1.9091,1.2717 -3.358,3.3483 -3.8928,5.7496 -0.5348,2.3539 -0.1679,4.8838 0.995,6.9671 l 0.2052,0.3653 3.8058,6.6966 h -0.1617 l 297.7165,550.3002 c 2.8543,5.2895 4.3903,11.445 4.3903,17.6476 0,18.3243 -12.9969,33.4422 -28.9725,33.7127 l -148.2768,0.2233 c -15.7705,0 -30.2163,-9.1384 -38.5741,-24.4322 l -50.9865,-94.3063 c -0.1244,-0.2232 -0.2488,-0.5005 -0.3296,-0.7711 l -127.09,-234.4872 c -1.7785,-3.3077 -5.1738,-4.8905 -8.5692,-4.072 -134.8695,34.8423 -272.4751,52.5306 -408.9179,52.5306 -139.6702,0 -280.21723,-18.4121 -417.81665,-54.7967 -3.19016,-0.8116 -6.91511,0.947 -8.6501,4.1601 L 651.48019,2474.764 c -8.44489,15.3413 -22.84721,24.4796 -38.61144,24.4796 h -1.69768 l -149.48321,-0.2232 c -16.05648,-0.2232 -29.04718,-15.3884 -29.04718,-33.7127 0,-6.1959 1.52978,-12.3108 4.3406,-17.6003 l 78.04991,-143.9487 c 0.1679,-0.3112 0.3358,-0.5884 0.54102,-0.8116 L 733.3359,1897.3597 h -0.57834 l 3.9737,-7.0144 c 1.2002,-2.0833 1.57331,-4.6605 1.03229,-7.0145 -0.5348,-2.4418 -1.94642,-4.5251 -3.88663,-5.7427 l -93.27932,-60.2757 c -149.31533,-96.5655 -239.49776,-277.8456 -229.72831,-461.8788 0.12437,-2.6719 -0.78355,-5.249 -2.52476,-7.1092 l -63.73465,-67.9665 C 174.48086,1135.8682 97.711982,886.35773 157.92689,673.63088 c 0.82707,-2.98977 0.24874,-6.24334 -1.61063,-8.64463 C 41.719521,516.24589 -14.148569,324.42581 3.0645738,138.53318 7.7409767,104.00675 21.111011,42.057644 58.273489,15.042506 63.242167,11.784402 67.83151,9.1146462 72.259168,6.9425314 c 10.09904,-4.9776279 20.7391,-7.37593709 31.659002,-6.87816098 1.536,0.09050498 2.9414,0.90498042 3.81201,2.30780458 65.71839,103.354025 192.47875,263.543435 423.32017,440.113675 117.03447,89.55239 207.75171,149.87268 283.56914,199.421 0.41043,0.22998 20.48414,13.35251 20.48414,13.35251 21.84601,14.25213 41.67097,27.19204 60.33927,39.68549 33.394,24.07373 62.94488,48.6886 89.30562,72.98555 62.11778,59.36924 193.13788,207.52518 212.63328,416.809 0,0 22.3497,166.3448 -76.5201,386.3162 l -178.24434,356.7566 c -1.36188,2.5839 -1.57331,5.7968 -0.49749,8.5566 1.07582,2.7598 3.271,4.7485 5.8766,5.2896 101.68063,21.1314 204.64863,31.812 305.99963,31.812 97.9122,0 197.4848,-9.9975 295.9007,-29.7286 2.6056,-0.5412 4.8381,-2.4892 5.9139,-5.2964 1.0758,-2.7598 0.9141,-5.9727 -0.4975,-8.5499 l -9.6824,-19.3253 -0.1244,-0.2232 -55.5385,-110.865 h 0.087 l -116.4187,-232.6811 c -96.6747,-217.7933 -74.6546,-382.0141 -74.6546,-382.0141 18.9917,-203.81165 143.7248,-349.60688 207.6274,-411.9659 27.5982,-25.88653 58.9711,-52.17215 94.5603,-77.83547 17.1572,-11.5194 35.2969,-23.34998 55.0845,-36.25605 l 25.7389,-16.77518 c 75.8174,-49.55035 166.5347,-109.91596 283.5691,-199.42303 230.8415,-176.57023 357.6018,-336.80497 423.3202,-440.1137425 0.8706,-1.4028243 2.276,-2.26255209 3.8058,-2.30780447 10.9261,-0.45252393 21.56,1.90053287 31.659,6.87816077 4.4277,2.1721149 9.0232,4.8418712 13.9919,8.0999752 37.1625,27.015205 50.5263,88.964311 55.2027,123.490731 z"
     fill="#0030b9"
     id="path2"
     style="stroke-width:64.8567" />
</svg>
