<?xml version="1.0" encoding="UTF-8" standalone="no"?>
<!-- Creator: CorelDRAW 2019 (64-Bit Evaluation Version) -->

<svg
   xml:space="preserve"
   width="2500"
   height="2500"
   version="1.1"
   style="clip-rule:evenodd;fill-rule:evenodd;image-rendering:optimizeQuality;shape-rendering:geometricPrecision;text-rendering:geometricPrecision"
   viewBox="0 0 2500 2502.2478"
   id="svg15"
   sodipodi:docname="banpara-logo-sem-fundo.svg"
   inkscape:version="1.2.2 (732a01da63, 2022-12-09)"
   xmlns:inkscape="http://www.inkscape.org/namespaces/inkscape"
   xmlns:sodipodi="http://sodipodi.sourceforge.net/DTD/sodipodi-0.dtd"
   xmlns="http://www.w3.org/2000/svg"
   xmlns:svg="http://www.w3.org/2000/svg"><sodipodi:namedview
   id="namedview17"
   pagecolor="#505050"
   bordercolor="#eeeeee"
   borderopacity="1"
   inkscape:showpageshadow="0"
   inkscape:pageopacity="0"
   inkscape:pagecheckerboard="0"
   inkscape:deskcolor="#505050"
   showgrid="false"
   inkscape:zoom="0.16896362"
   inkscape:cx="53.265905"
   inkscape:cy="1331.6476"
   inkscape:window-width="1920"
   inkscape:window-height="1009"
   inkscape:window-x="-8"
   inkscape:window-y="-8"
   inkscape:window-maximized="1"
   inkscape:current-layer="Layer_x0020_1" />
 <defs
   id="defs4">
  <style
   type="text/css"
   id="style2">
   <![CDATA[
    .fil0 {fill:#081E60}
    .fil1 {fill:#EA1C24}
    .fil2 {fill:white}
   ]]>
  </style>
 </defs>
 <g
   id="Layer_x0020_1"
   inkscape:label="Layer 1"
   inkscape:groupmode="layer">
  <metadata
   id="CorelCorpID_0Corel-Layer" />
  <g
   id="_2538378911104"
   transform="matrix(5.481061,0,0,5.481061,-1.0471819,0.55577817)">
   
   
   <path
   class="fil2"
   d="m 90.62,377.28 c 29.7,-4.48 53.62,-10.57 81.79,-20.92 37.42,-13.75 67.01,-31.48 96.22,-57.43 7.92,-8.39 16.81,-19.25 21.4,-29.83 5.81,-13.37 6.46,-27.69 -2.81,-39.71 -6.05,-7.84 -22.14,-17.8 -31.94,-18.91 -7.48,11.58 -22.72,24.48 -33.27,33.62 -12.81,11.1 -24.82,18.82 -39.11,27.74 -17.21,10.74 -48.11,25.44 -67.82,32.67 -5.94,2.18 -19.77,6.06 -24.46,8.82 z M 90.61,267.26 c 14.07,-2.39 49.1,-19.34 63.21,-26.06 10.21,-4.87 46.58,-27.89 51.96,-36.34 -11.1,-1.76 -49.66,4.72 -62.05,7.49 -9.28,2.09 -18.21,4.75 -27.32,7.48 -8.9,2.66 -17.18,6.27 -25.8,9.04 z M 211.9,385.24 c 40.32,2.45 104.05,2.37 133.36,-29.63 21.37,-23.34 27.17,-65.59 12.9,-93.96 -3.22,-6.42 -11.99,-18.91 -18.35,-22.17 0.07,39.75 -20.03,63.87 -46.02,90.86 -4.78,4.95 -13.07,11.41 -18.64,15.76 -16.31,12.76 -33.94,23.85 -52.39,33.24 -2.72,1.39 -8.69,4.26 -10.86,5.9 z m 21.96,-220.86 c 1.41,-7.83 2.59,-15.08 -0.56,-22.63 -16.13,-38.75 -85.88,-36.4 -120.44,-31.44 -5.1,0.73 -17.78,2.36 -21.98,4.11 -0.87,2.93 -0.24,27.86 -0.24,33.13 0.01,11.04 -0.12,22.18 0.05,33.21 4.35,-0.7 11.15,-3.19 15.91,-4.36 40.27,-9.85 67.29,-13.68 108.8,-12.87 3.8,0.07 16.07,1.78 18.46,0.85 z M 200.55,71.81 c 1.08,0.77 14.88,4.22 17.75,5.18 38.95,13.1 71.43,42.86 60.37,87.29 -0.7,2.82 -2.22,6.69 -2.15,9.46 18.4,7.03 45.58,19.74 54.24,38.64 C 368.21,195.74 371.42,126.23 344.79,94.4 318.4,62.87 238.37,70.87 200.55,71.81 Z"
   id="path11" />
  </g>
 </g>
</svg>
