<?xml version="1.0" encoding="UTF-8" standalone="no"?>
<!-- Creator: CorelDRAW 2019 (64-Bit Evaluation Version) -->

<svg
   xml:space="preserve"
   width="2500"
   height="2500"
   version="1.1"
   style="clip-rule:evenodd;fill-rule:evenodd;image-rendering:optimizeQuality;shape-rendering:geometricPrecision;text-rendering:geometricPrecision"
   viewBox="0 0 2500 2502.2478"
   id="svg15"
   sodipodi:docname="banpara-logo-nome.svg"
   inkscape:version="1.2.2 (732a01da63, 2022-12-09)"
   xmlns:inkscape="http://www.inkscape.org/namespaces/inkscape"
   xmlns:sodipodi="http://sodipodi.sourceforge.net/DTD/sodipodi-0.dtd"
   xmlns="http://www.w3.org/2000/svg"
   xmlns:svg="http://www.w3.org/2000/svg"><sodipodi:namedview
   id="namedview17"
   pagecolor="#505050"
   bordercolor="#eeeeee"
   borderopacity="1"
   inkscape:showpageshadow="0"
   inkscape:pageopacity="0"
   inkscape:pagecheckerboard="0"
   inkscape:deskcolor="#505050"
   showgrid="false"
   inkscape:zoom="0.16896362"
   inkscape:cx="2491.6607"
   inkscape:cy="1136.3393"
   inkscape:window-width="1920"
   inkscape:window-height="1009"
   inkscape:window-x="-8"
   inkscape:window-y="-8"
   inkscape:window-maximized="1"
   inkscape:current-layer="Layer_x0020_1" />
 <defs
   id="defs4">
  <style
   type="text/css"
   id="style2">
   <![CDATA[
    .fil0 {fill:#081E60}
    .fil1 {fill:#EA1C24}
    .fil2 {fill:white}
   ]]>
  </style>
 </defs>
 <g
   id="Layer_x0020_1"
   inkscape:label="Layer 1"
   inkscape:groupmode="layer">
  <metadata
   id="CorelCorpID_0Corel-Layer" />
  <g
   id="_2538378911104"
   transform="matrix(1.3786942,0,0,1.3786942,0,921.52006)">
   <path
   class="fil0"
   d="m 615.54,250.43 c 36.45,-1.6 95.41,-9.65 95.81,36.07 0.37,43.14 -58.07,42.54 -95.42,36.08 z M 1721.83,140.18 c 20.37,1.65 32.35,4.67 49.59,-12.56 10.26,-10.25 6.1,-6.09 10.9,-18.46 l -43.32,0.52 z m -714.66,219.35 c -0.75,-54.69 -15.06,-150.05 48.65,-153.44 67.86,-3.63 45.92,103.92 44.75,153.2 l 54.76,-0.85 c -2.29,-43.62 8.58,-146.67 -13.96,-174.14 -30.66,-37.37 -106.83,-24.15 -133.48,12.68 l -6.33,-29.22 -46.85,-0.38 -2.63,191.3 z M 1814,358.51 V 214.32 c 0,-54.25 -60.27,-60.02 -100.22,-58.27 -66.05,2.91 -71.94,10.47 -106.69,39.51 -0.07,-39.28 -8.28,-30.46 -53.03,-28.01 l 0.18,191.75 56.31,0.1 c -3.82,-53.88 -12.35,-121.2 24.36,-147.91 22.81,-16.59 82.94,-36.42 110.1,-17.33 10.02,7.04 13.23,14.33 6.3,24.9 -19.98,30.51 -98.88,14.06 -123.47,60.85 -32.83,63.37 42.46,92.68 105.53,79.39 l 7.31,-32.25 c -29.39,6.07 -48.05,10.68 -63.72,-11.4 -7.1,-41.93 48.88,-42.22 82.48,-59.45 l -0.43,102.13 z M 1217.44,207.7 c 35.19,-6.46 61.61,-13.47 83.79,12.45 19.6,22.91 17.44,66.29 1.62,88.47 -16.52,23.18 -54.07,19.28 -72.2,-1.2 -19.69,-22.24 -15.72,-67.57 -13.21,-99.72 z m 267.06,11.37 c -9.63,16.03 -87.13,26.02 -116.69,48.19 -6.7,-127.13 -99.3,-101.14 -202.89,-94.54 l 0.34,235.96 52.97,-0.13 -1.52,-73.58 c 16.85,13.02 31.51,31.35 76.5,28.18 35.87,-2.65 49.37,-20.41 62.49,-38.47 20.76,32.2 54.63,46.33 93.04,38.5 13.16,-2.68 16.82,-12.47 21.86,-36.29 -23.77,4.29 -87.31,7.43 -60.18,-35.21 8.91,-14 62.38,-28.5 81.14,-34.34 l -3.22,100.53 56.02,0.26 c -6.72,-132.81 39.25,-217.19 -113.24,-200.8 -46.32,4.98 -54.65,-0.58 -54.86,45.05 15.71,-4.36 138.85,-34.27 108.24,16.69 z M 615.02,145.68 c 33.62,-1.07 93.4,-10.67 87.98,36.45 -4.22,36.76 -53.52,33.31 -87.29,31.02 z M 739.26,127.96 C 708.89,98.2 617.48,109.67 561.85,110.95 l 2.63,249.09 c 94.9,-0.62 137.12,15.61 196.41,-33.66 8.16,24.82 26.03,33.36 57.34,35.69 43.19,3.22 47.09,1.54 53.11,-34.38 -24.8,2.51 -41.67,9.92 -58.7,-6.45 -23.7,-38.71 45.01,-52.99 79.42,-64.19 l -2.66,100.91 h 55.49 C 942.02,147.8 961.97,139.86 780.52,166.04 l -4.11,37.15 c 24.74,-7.03 66.33,-23.52 92.75,-14.07 16.36,5.86 26.21,19.34 11.17,33.36 -23.85,22.25 -88.66,18.25 -116.25,49.97 -10.52,-21.55 -13.4,-33.4 -49.38,-41.64 38.26,-17.82 63.16,-65.04 24.56,-102.85 z"
   id="path7" />
   <rect
   class="fil1"
   width="456.41"
   height="456.41"
   id="rect9"
   x="0"
   y="0" />
   <path
   class="fil2"
   d="m 90.62,377.28 c 29.7,-4.48 53.62,-10.57 81.79,-20.92 37.42,-13.75 67.01,-31.48 96.22,-57.43 7.92,-8.39 16.81,-19.25 21.4,-29.83 5.81,-13.37 6.46,-27.69 -2.81,-39.71 -6.05,-7.84 -22.14,-17.8 -31.94,-18.91 -7.48,11.58 -22.72,24.48 -33.27,33.62 -12.81,11.1 -24.82,18.82 -39.11,27.74 -17.21,10.74 -48.11,25.44 -67.82,32.67 -5.94,2.18 -19.77,6.06 -24.46,8.82 z M 90.61,267.26 c 14.07,-2.39 49.1,-19.34 63.21,-26.06 10.21,-4.87 46.58,-27.89 51.96,-36.34 -11.1,-1.76 -49.66,4.72 -62.05,7.49 -9.28,2.09 -18.21,4.75 -27.32,7.48 -8.9,2.66 -17.18,6.27 -25.8,9.04 z M 211.9,385.24 c 40.32,2.45 104.05,2.37 133.36,-29.63 21.37,-23.34 27.17,-65.59 12.9,-93.96 -3.22,-6.42 -11.99,-18.91 -18.35,-22.17 0.07,39.75 -20.03,63.87 -46.02,90.86 -4.78,4.95 -13.07,11.41 -18.64,15.76 -16.31,12.76 -33.94,23.85 -52.39,33.24 -2.72,1.39 -8.69,4.26 -10.86,5.9 z m 21.96,-220.86 c 1.41,-7.83 2.59,-15.08 -0.56,-22.63 -16.13,-38.75 -85.88,-36.4 -120.44,-31.44 -5.1,0.73 -17.78,2.36 -21.98,4.11 -0.87,2.93 -0.24,27.86 -0.24,33.13 0.01,11.04 -0.12,22.18 0.05,33.21 4.35,-0.7 11.15,-3.19 15.91,-4.36 40.27,-9.85 67.29,-13.68 108.8,-12.87 3.8,0.07 16.07,1.78 18.46,0.85 z M 200.55,71.81 c 1.08,0.77 14.88,4.22 17.75,5.18 38.95,13.1 71.43,42.86 60.37,87.29 -0.7,2.82 -2.22,6.69 -2.15,9.46 18.4,7.03 45.58,19.74 54.24,38.64 C 368.21,195.74 371.42,126.23 344.79,94.4 318.4,62.87 238.37,70.87 200.55,71.81 Z"
   id="path11" />
  </g>
 </g>
</svg>
