<?xml version="1.0" encoding="UTF-8" standalone="no"?>
<!-- Created with Inkscape (http://www.inkscape.org/) -->

<svg
   width="2500"
   height="2500"
   viewBox="0 0 2500 2500"
   version="1.1"
   id="SVGRoot"
   xml:space="preserve"
   sodipodi:docname="Logo_do_Banpará.svg"
   inkscape:version="1.2.2 (732a01da63, 2022-12-09)"
   xmlns:inkscape="http://www.inkscape.org/namespaces/inkscape"
   xmlns:sodipodi="http://sodipodi.sourceforge.net/DTD/sodipodi-0.dtd"
   xmlns="http://www.w3.org/2000/svg"
   xmlns:svg="http://www.w3.org/2000/svg"><sodipodi:namedview
     id="namedview8"
     pagecolor="#505050"
     bordercolor="#eeeeee"
     borderopacity="1"
     inkscape:showpageshadow="0"
     inkscape:pageopacity="0"
     inkscape:pagecheckerboard="0"
     inkscape:deskcolor="#505050"
     showgrid="false"
     inkscape:zoom="0.1355"
     inkscape:cx="-383.76384"
     inkscape:cy="952.02952"
     inkscape:window-width="1920"
     inkscape:window-height="1009"
     inkscape:window-x="-8"
     inkscape:window-y="-8"
     inkscape:window-maximized="1"
     inkscape:current-layer="SVGRoot" /><defs
     id="defs182" /><g
     id="g1030"
     transform="matrix(5.921486,0,0,5.921486,-3936.0505,-2710.1485)"><path
       d="M 801.13284,524.89008 H 949.2355 V 695.58074 H 801.13284 Z"
       style="fill:#ea1c24;fill-opacity:1;fill-rule:nonzero;stroke:none;stroke-width:1.33333"
       id="path414" /><path
       id="path442"
       clip-path="none"
       style="fill:#ffffff;fill-opacity:1;fill-rule:nonzero;stroke:none"
       transform="matrix(1.3333333,0,0,-1.3333333,918.07097,614.78261)"
       d="m 0,0 c 0.018,-0.089 3.602,-23.386 -37.005,-44.619 15.801,0.295 24.591,-0.807 31.645,3.199 0,0 4.407,1.676 8.508,7.524 C 10.225,-22.191 8.186,-6.182 0,0 m 0.112095,44.686104 c -1.95,1.712 -5.792,5.199 -13.835,6.247 -8.047,1.049 -27.727,0.181 -27.727,0.181 0.327,-0.072 29.94,-5.603 22.247,-31.118 6.522,-2.26 12.135,-5.697 15.748,-11.8250004 8.336,5.5030004 14.521,23.8550004 3.567,36.5150004 M -24.370703,8.8211027 c -9.944,-13.439 -28.296,-25.0509997 -47.504,-31.3929997 v -19.616 c 23.434,3.204 56.345,19.217 58.695,37.9559997 1.087,8.44 -9.003,12.813 -11.191,13.053 M -71.845404,3.1353976 v -11.726 c 2.319,0.775 22.097,7.413 33.261,19.1300004 -16.183,0 -31.293,-6.6090004 -33.261,-7.4040004 m 39.322006,29.8688034 c -9.93,12.152 -38.611,5.362 -39.322,5.18 v -20.336 c 23.231,7.469 41.047,5.004 41.047,5.004 0,0 0.488,0.631 0.716,2.839 0.202,3.98 -1.428,6.149 -2.441,7.313" /><path
       id="path462"
       clip-path="none"
       style="fill:#2f368e;fill-opacity:1;fill-rule:nonzero;stroke:none"
       transform="matrix(1.3333333,0,0,-1.3333333,1065.8614,727.54847)"
       d="M 0,0 3.396,3.677 C 4.309,4.704 7.525,7.939 7.525,7.939 H -4.833 c 0,0 -0.833,-1.668 -1.282,-2.586 C -6.552,4.421 -6.92,3.641 -7.227,2.991 L -8.331,0.613 C -5.722,0.619 -2.946,0.434 0,0 m -53.440126,-31.860001 c 0.163,7.614 0.216,12.343 0.125,14.212 -0.152,3.43 -1.135,6.047 -2.909,7.8800002 -1.796,1.827 -4.221,3.145 -7.262,3.978 -3.056,0.84 -6.369,1.257 -9.976,1.257 -3.161,0 -6.46,-0.222 -9.833,-0.641 -3.391,-0.437 -7.28,-1.149 -11.683,-2.194 -0.213,-1.928 -0.352,-3.3600002 -0.42,-4.3150002 -0.075,-0.948 -0.273,-2.585 -0.62,-4.946 7.073,2.843 13.57,4.258 19.539,4.258 1.611,0 3.076,-0.171 4.41,-0.517 1.35,-0.334 2.454,-0.952 3.343,-1.83 0.852,-0.876 1.323,-1.959 1.39,-3.227 0.03,-0.649 -0.08,-1.287 -0.338,-1.905 -0.236,-0.619 -0.645,-1.218 -1.202,-1.782 -0.564,-0.577 -1.242,-1.042 -2.026,-1.408 -0.794,-0.344 -1.84,-0.714 -3.169,-1.102 -1.325,-0.367 -2.606,-0.677 -3.827,-0.949 -4.647,-1.008 -8.354,-2.009 -11.157,-3.011 -2.796,-0.982 -4.927,-2.023 -6.393,-3.067 -0.884,-0.652 -1.664,-1.314 -2.345,-1.989 0.014,0.694 0,1.379 -0.033,2.081 -0.159,3.426 -0.834,6.702 -1.999,9.833 -1.192004,3.126 -2.892004,5.888 -5.153004,8.275 -2.264,2.367 -5.206,4.0680002 -8.832,5.0730002 -3.028,0.856 -6.302,1.345 -9.812,1.485 -0.677,0.026 -1.362,0.039 -2.051,0.039 -3.271,0 -6.56,-0.179 -9.845,-0.514 -3.296,-0.361 -7.932,-1.072 -13.921,-2.141 0.406,-8.7830002 0.625,-20.1910002 0.65,-34.2660002 0.016,-9.539 -0.067,-17.866 -0.244,-23.538 h 13.244 l -0.238,15.244 c 5.528,-3.739 10.099,-4.149 11.943,-4.587 0.152,-0.037 0.305,-0.073 0.462,-0.101 1.7,-0.373 3.399,-0.56 5.135,-0.56 3.174,0 6.074,0.576 8.704,1.732 2.632,1.15 4.902,2.87 6.817,5.427 0.825,1.086 1.538,2.236 2.153,3.445 v 0.014 c 0.369,-1.164 0.880004,-2.323 1.536004,-3.481 1.37,-2.415 3.416,-4.169 6.115,-5.269 2.701,-1.125 6.1,-1.403 10.234,-1.403 1.188,0 2.459,0.051 3.825,0.146 1.373,0.101 3.145,0.045 5.456,0.453 0.748,3.688 1.484,7.017 2.084,8.872 -1.937,-0.648 -3.487,-1.065 -4.636,-1.217 -1.148,-0.165 -2.25,-0.254 -3.302,-0.254 -1.65,0 -3.08,-0.072 -4.301,0.317 -1.226,0.399 -2.264,1.091 -3.119,2.093 -0.845,0.985 -1.301,1.897 -1.37,3.268 -0.031,0.848 0.074,1.632 0.365,2.368 0.26,0.736 0.728,1.438 1.395,2.104 0.653,0.669 1.475,1.267 2.441,1.805 0.974,0.546 2.079,1.012 3.3,1.444 1.215,0.422 2.853,0.925 4.892,1.491 2.035,0.572 3.449,1.004 4.261,1.267 0.805,0.291 1.533,0.591 2.167,0.905 0.639,0.335 1.566,0.898 2.772,1.726 l -0.068,-12.195 c -0.031,-5.179 -0.208,-10.319 -0.457,-14.268 2.676,0.071 11.53,0.073 14.019,0.004 -0.277,8.12 -0.415,16.567 -0.236,24.181 m -58.873004,-7.53 c -0.949,-2.658 -2.38,-4.551 -4.326,-5.931 -1.918,-1.379 -4.077,-2.062 -6.501,-2.062 -0.164,0 -0.324,0 -0.482,0.008 -1.58,0.068 -3.127,0.459 -4.655,1.162 -1.663,0.78 -3.133,1.764 -4.404,3.253 -1.259,1.488 -2.131,3.128 -2.599,4.9 -0.492,1.765 -0.769,3.629 -0.863,5.56 -0.055,1.071 -0.069,2.762 -0.038,5.031 l 0.046,5.283 c 0.022,1.231 0.116,2.714 0.266,4.418 3.811,1.256 7.378,1.899 10.683,1.899 0.538,0 1.052,-0.024 1.564,-0.072 1.929,-0.168 3.707,-0.669 5.342,-1.508 2.052,-1.041 3.725,-2.712 5.018,-5.012 1.295,-2.283 2.031,-5.106 2.181,-8.431 0.141,-3.002 -0.263,-5.839 -1.232,-8.498 m -92.2683,7.5354 c 0.163,7.609 0.207,12.349 0.119,14.213 -0.158,3.424 -1.13,6.04 -2.909,7.8850002 -1.796,1.813 -4.218,3.139 -7.254,3.967 -3.062,0.839 -6.383,1.257 -9.978,1.257 -3.172,0 -6.466,-0.216 -9.845,-0.641 -3.377,-0.425 -7.258,-1.148 -11.68,-2.194 -0.202,-1.922 -0.349,-3.3600002 -0.41,-4.3200002 -0.077,-0.946 -0.284,-2.58 -0.625,-4.931 7.071,2.832 13.567,4.254 19.54,4.254 1.609,0 3.067,-0.169 4.409,-0.521 1.343,-0.336 2.455,-0.954 3.341,-1.841 0.855,-0.867 1.334,-1.953 1.389,-3.218 0.022,-0.649 -0.077,-1.287 -0.335,-1.905 -0.241,-0.619 -0.645,-1.218 -1.201,-1.783 -0.567,-0.57 -1.245,-1.036 -2.034,-1.407 -0.786,-0.345 -1.846,-0.714 -3.167,-1.098 -1.322,-0.371 -2.596,-0.69 -3.825,-0.953 -4.644,-1.002 -8.347,-2.009 -11.148,-3.012 -2.807,-0.981 -5.113,-2.021 -6.563,-3.084 -1.47,-1.061 -2.471,-2.018 -3.368,-3.151 -0.093,-0.123 -0.185,-0.244 -0.277,-0.367 -0.022,0.078 -0.044,0.171 -0.066,0.252 -0.348,1.282 -0.805,2.448 -1.384,3.495 -0.587,1.061 -1.323,2.048 -2.264,2.98 -0.916,0.946 -1.879,1.718 -2.901,2.314 -1.012,0.605 -1.967,1.044 -2.85,1.348 -0.88,0.289 -2.065,0.588 -3.51,0.896 1.566,0.557 2.829,1.077 3.77,1.567 0.93,0.506 1.904,1.183 2.911,2.065 1.003,0.87 1.872,1.945 2.608,3.187 0.736,1.248 1.278,2.648 1.611,4.203 0.354,1.561 0.486,3.4720002 0.401,5.1900002 -0.064,1.394 -0.279,2.765 -0.683,4.113 -0.371,1.321 -0.919,2.581 -1.645,3.739 -0.725,1.148 -1.566,2.154 -2.529,2.994 -0.975,0.857 -2.143,1.967 -3.537,2.553 -1.396,0.606 -2.962,1.026 -4.722,1.323 -1.772,0.28 -4.376,0.448 -7.834,0.448 -0.802,0 -1.68,-0.009 -2.62,-0.017 -1.962,-0.02 -25.645,0.006 -25.645,0.006 0,0 0.239,-3.739 0.239,-32.0400002 0,-28.298 -0.238,-31.935 -0.238,-31.935 l 8.387,0.045 11.234,-0.045 c 2.19,0 4.198,0.013 6.023,0.037 5.737,0.089 9.659,0.31 11.771,0.671 2.784,0.487 5.264,1.441 7.454,2.874 1.979,1.296 3.525,2.994 4.657,5.126 v 0.011 l 0.145,0.261 c 0.324,-0.837 0.725,-1.68 1.207,-2.514 1.366,-2.417 3.41,-4.045 6.105,-5.139 2.701,-1.125 6.111,-1.673 10.23,-1.673 1.201,0 2.463,0.05 3.831,0.148 1.37,0.104 3.141,0.048 5.455,0.448 0.747,3.688 1.475,7.02 2.076,8.875 -1.922,-0.649 -3.479,-1.066 -4.631,-1.217 -1.152,-0.165 -2.248,-0.252 -3.305,-0.252 -1.638,0 -3.072,-0.072 -4.298,0.315 -1.229,0.399 -2.267,1.09 -3.111,2.093 -0.855,0.973 -1.309,1.897 -1.378,3.268 -0.042,0.847 0.074,1.631 0.36,2.373 0.274,0.73 0.738,1.433 1.397,2.098 0.653,0.672 1.484,1.265 2.441,1.811 0.986,0.54 2.082,1.016 3.308,1.447 1.215,0.425 2.853,0.917 4.885,1.482 2.04,0.572 3.454,0.999 4.268,1.268 0.808,0.291 1.533,0.585 2.158,0.912 0.643,0.327 1.567,0.899 2.782,1.713 l -0.072,-12.189 c -0.035,-5.18 -0.193,-10.367 -0.456,-14.307 2.685,0.067 11.455,0.103 13.963,0.039 -0.284,8.112 -0.363,16.57 -0.177,24.19 m -72.309,30.4280002 c 0.435,0 0.848,0 1.244,-0.011 1.757,-0.045 3.127,-0.187 4.132,-0.436 1.256,-0.286 2.303,-0.773 3.208,-1.425 0.9,-0.674 1.563,-1.502 2.032,-2.515 0.473,-1.025 0.728,-2.099 0.777,-3.235 0.058,-1.1690002 -0.072,-2.5930002 -0.418,-3.7180002 -0.329,-1.134 -0.888,-2.16 -1.68,-3.087 -0.797,-0.949 -1.777,-1.639 -2.964,-2.09 -1.179,-0.453 -2.317,-0.749 -3.407,-0.895 -0.41,-0.062 -0.969,-0.112 -1.68,-0.146 -1.171,-0.056 -2.743,-0.089 -4.72,-0.089 h -7.461 l -0.177,17.6470002 z m 13.167,-38.4880002 c -0.235,-0.968 -0.578,-1.847 -1.015,-2.617 -0.44,-0.755 -0.958,-1.404 -1.562,-1.891 -0.598,-0.495 -1.425,-0.948 -2.488,-1.391 -1.066,-0.425 -2.178,-0.722 -3.374,-0.895 -0.891,-0.132 -2.053,-0.21 -3.484,-0.244 -0.462,-0.01 -0.958,-0.01 -1.487,-0.01 h -10.534 l -0.188,18.881 h 11.691 c 0.177,0 0.346,-0.002 0.518,-0.005 2.399,-0.026 4.212,-0.201 5.46,-0.54 1.318,-0.35 2.469,-0.915 3.491,-1.707 0.999,-0.784 1.78,-1.713 2.33,-2.807 0.537,-1.071 0.85,-2.316 0.916,-3.741 0.05,-1.04 -0.05,-2.048 -0.274,-3.033 m 111.298,23.970801 c -0.587,1.833 -1.725,3.534 -3.388,5.101 -1.656,1.5329996 -3.803,2.6689996 -6.426,3.3859996 -2.617,0.71 -5.354,1.071 -8.185,1.071 -1.777,0 -3.481,-0.148 -5.11,-0.417 -1.627,-0.296 -8.9,-1.784 -13.202,-7.1599996 l 0.155,6.4359996 c -2.328,-0.05 -4.513,-0.095 -6.576,-0.095 -1.747,0 -4.091,0.045 -7.024,0.095 0.254,-7.1019996 -0.385,-48.5119996 -0.385,-48.5119996 2.864,0.065 11.472,0.065 13.907,0 -0.154,7.605 -0.196,13.856 -0.099,18.381 0.125,5.109 0.496,8.761 1.124,10.972 0.598,2.101 1.492,3.85 2.702,5.271 1.148,1.403 2.535,2.477 4.14,3.201 1.633,0.731 3.387,1.086 5.284,1.086 1.951,0 3.766,-0.392 5.48,-1.181 1.71,-0.791 2.988,-1.947 3.853,-3.472 0.869,-1.519 1.359,-3.534 1.463,-6.03 0.111,-2.222 0.145,-6.763 0.073,-13.625 -0.053,-6.861 -0.145,-11.855 -0.28,-14.623 2.438,0.065 11.248,0.065 13.761,0 -0.125,3.26 -0.188,33.414 -0.224,34.278 -0.099,2.059 -0.454,4.009 -1.043,5.837 M 15.276075,-56.044606 c -0.142,2.147 -0.46,13.171 -0.606,22.128 -0.073,4.077 -0.012,8.135 -0.09,12.189 -0.052,3.033 0.034,5.926 -1.067,8.794 0,0 -1.852,5.9299996 -11.1739996,7.7319996 -25.7120004,4.97 -39.4760004,-9.1389996 -39.6540004,-9.2759996 l -0.019,7.1889996 -3.333,-0.14 -6.346,0.027 -3.994,0.14 c 0.266,-4.0759996 0.509,-8.6149996 0.468,-12.4729996 -0.036,-3.871 0.202,-33.906 0.036,-36.304 0,0 0.551,0.112 6.955,0.112 6.405,0 7.05,-0.112 7.05,-0.112 -0.194,3.019 -0.333,6.024 -0.412,8.998 -0.084,3.028 -0.895,14.143 3.238,21.082 9.15,15.368 34.7770004,15.362 34.7770004,8.187 0,-1.244 0,-3.559 -3.543,-5.025 -1.376,-0.571 -13.5540004,-3.604 -17.1820004,-4.849 -6.723,-2.309 -14.354,-5.988 -13.776,-14.954 0.272,-4.181 2.192,-8.011 5.342,-10.65 2.879,-2.412 6.272,-3.139 11.915,-3.235 h 3.075 c 1.736,0 3.1170004,0.196 4.6340004,0.336 0.775,0.073 2.657,0.263 3.312,0.378 0.048,0.299 -0.038,-0.174 0.156,0.937 0.357,1.975 1.002,5.571 1.608,7.403 0.036,0.113 -0.069,0.207 -0.175,0.16 -1.029,-0.495 -4.436,-1.245 -7.4310004,-1.245 h -0.44 c -4.307,0 -8.414,1.33 -8.683,5.455 l -0.021,0.347 c -0.313,4.815 5.123,7.054 8.958,8.187 6.7050004,1.984 10.21600038,3.084 12.4450004,4.298 0.187,-2.991 0.376,-24.761 -0.02,-25.721 z" /></g></svg>
