<?xml version="1.0" encoding="UTF-8" standalone="no"?>
<svg
   width="2500"
   height="2500"
   viewBox="0 0 378.76235 378.80599"
   version="1.1"
   id="svg10"
   sodipodi:docname="bradesco.svg"
   inkscape:version="1.2.2 (732a01da63, 2022-12-09)"
   xmlns:inkscape="http://www.inkscape.org/namespaces/inkscape"
   xmlns:sodipodi="http://sodipodi.sourceforge.net/DTD/sodipodi-0.dtd"
   xmlns="http://www.w3.org/2000/svg"
   xmlns:svg="http://www.w3.org/2000/svg">
  <defs
     id="defs14" />
  <sodipodi:namedview
     id="namedview12"
     pagecolor="#505050"
     bordercolor="#eeeeee"
     borderopacity="1"
     inkscape:showpageshadow="0"
     inkscape:pageopacity="0"
     inkscape:pagecheckerboard="0"
     inkscape:deskcolor="#505050"
     showgrid="false"
     inkscape:zoom="0.2168"
     inkscape:cx="-4.6125461"
     inkscape:cy="1711.2546"
     inkscape:window-width="1920"
     inkscape:window-height="1009"
     inkscape:window-x="-8"
     inkscape:window-y="-8"
     inkscape:window-maximized="1"
     inkscape:current-layer="svg10" />
  <g
     fill-rule="evenodd"
     clip-rule="evenodd"
     id="g8"
     transform="matrix(0.99523534,0,0,0.99523534,-49.161367,65.13427)">
    <path
       d="M 50.779297,-64.743848 H 430.82003 V 243.94072 H 273.63652 V 116.05809 h -34.45356 v 127.88263 h -18.3027 v -87.31079 h -17.22368 v 87.31079 H 50.779297 Z m 12.9162,107.599766 C 83.788743,35.509594 103.88447,28.159212 123.9864,20.806799 204.68472,-71.336545 309.51802,-36.451429 346.84363,7.5777368 259.99393,-37.988137 195.75439,-14.76186 163.82149,16.397788 407.85969,-4.3360378 468.86707,117.37439 337.15337,161.9195 453.78162,85.188917 305.5694,22.569997 150.90405,28.743221 113.7498,84.891329 125.94581,126.34375 160.59058,163.68272 123.23517,140.25737 98.460712,106.01924 118.60362,33.153248 c -18.30394,3.23693 -36.607897,6.469802 -54.908123,9.70267 z"
       fill="#cc2229"
       id="path2"
       style="stroke-width:1.12302" />
    <path
       d="m 135.50635,272.64798 h 11.612 l 0.233,4.531 c 3.362,-5.108 8.038,-6.91 14.026,-5.418 -0.461,4.252 -0.925,8.509 -1.389,12.765 -5.94,-2.428 -9.66,0.602 -11.909,6.872 l 0.045,0.838 0.003,21.744 h -12.621 z m -44.014003,-13.909 v 54.853 c 6.858,0.027 13.720003,0.059 20.582003,0.09 21.558,0.563 21.527,-22.287 9.251,-28.41 11.482,-6.043 8.749,-26.487 -9.083,-26.498 -6.92,0.093 -13.837003,-0.124 -20.750003,-0.035 z m 13.407003,11.035 h 5.483 c 6.514,0.619 6.205,10.151 0,10.571 h -5.483 z m 0,21.559 h 5.923 c 7.037,0.674 6.704,11.042 0,11.499 h -5.923 z m 124.343,-34.082 h 12.623 v 56.52 h -11.74 v -5.421 c -13.098,13.503 -26.832,2.698 -27.271,-16.075 0.701,-17.24 12.379,-26.831 26.388,-15.931 z m -6.755,25.666 c 3.582,0 6.501,4.6 6.501,10.244 0,5.642 -2.919,10.241 -6.501,10.241 -3.582,0 -6.501,-4.6 -6.501,-10.241 0,-5.645 2.919,-10.244 6.501,-10.244 z m -55.918,-8.082 c 0.058,3.301 0.121,6.604 0.186,9.911 8.316,-4.668 18.388,-5.436 18.416,2.843 -13.555,-1.104 -22.603,2.393 -22.465,14.572 0.117,10.465 12.476,16.43 23.016,7.546 0.058,1.345 0.12,2.692 0.182,4.04 3.816,0.027 7.636,0.058 11.455,0.089 0.365,-12.757 0.378,-22.912 -0.663,-30.06 -3.526,-11.918 -12.784,-15.521 -30.127,-8.941 z m 18.601,20.922 c -0.22,4.318 -1.337,7.134 -3.603,8.172 -4.136,1.888 -8.997,-1.812 -5.841,-5.831 1.393,-1.778 4.559,-2.854 9.444,-2.341 z"
       id="path4" />
    <path
       d="m 259.92035,297.71298 c 7.824,0.083 15.652,0.165 23.483,0.251 2.146,-15.047 -5.934,-26.298 -17.044,-26.553 -23.246,-1.809 -26.928,41.937 -0.127,43.497 4.878,-0.017 9.756,-0.715 14.645,-2.402 -0.128,-3.837 -0.255,-7.673 -0.379,-11.506 -13.492,8.226 -19.688,1.828 -20.578,-3.287 z m -0.251,-9.231 12.497,0.252 c -0.3,-10.355 -11.937,-9.382 -12.497,-0.252 z m 53.783,-3.413 c 0.461,-3.792 0.925,-7.587 1.39,-11.382 -16.615,-5.772 -27.158,1.303 -27.526,10.622 -0.127,15.05 18.437,10.997 16.666,18.333 -3.465,3.961 -9.271,1.389 -15.149,-1.771 -0.375,3.875 -0.754,7.753 -1.135,11.634 15.789,4.345 26.725,2.641 29.035,-9.863 1.506,-16.759 -17.075,-12.898 -16.918,-19.093 0.13,-3.156 7.707,-3.665 13.637,1.52 z m 35.856,0.123 c 0.25,-3.791 0.501,-7.583 0.756,-11.378 -13.864,-6.026 -30.19,0.588 -30.173,19.726 0.519,18.109 15.597,25.26 30.678,19.344 -0.172,-4.005 -0.34,-8.01 -0.505,-12.012 -8.791,6.985 -16.742,1.255 -17.045,-7.714 -0.247,-7.46 4.927,-14.669 16.289,-7.966 z m 25.755,-13.526 c -12.39,0.412 -20.173,6.28 -20.451,21.874 0.072,10.412 5.201,21.481 20.324,21.241 9.13,0.671 20.031,-6.112 19.443,-21.496 -0.477,-10.592 -4.64,-21.118 -19.316,-21.619 z m -0.567,10.367 c 3.72,0 6.752,4.913 6.752,10.939 0,6.022 -3.032,10.936 -6.752,10.936 -3.727,0 -6.759,-4.913 -6.759,-10.936 0,-6.026 3.032,-10.939 6.759,-10.939 z"
       id="path6" />
  </g>
</svg>
