<?xml version="1.0" encoding="UTF-8"?>
<svg id="Layer_1" xmlns="http://www.w3.org/2000/svg" version="1.1" viewBox="0 0 2500 2500">
  <!-- Generator: Adobe Illustrator 29.6.0, SVG Export Plug-In . SVG Version: 2.1.1 Build 207)  -->
  <defs>
    <style>
      .st0 {
        fill: #2692ff;
      }

      .st1 {
        fill: #0070e0;
      }

      .st2 {
        fill: #1b2733;
      }

      .st3 {
        fill: #63b1ff;
      }
    </style>
  </defs>
  <path class="st2" d="M552.32,1243.31c-14.91-7.6-30.71-13.31-47.03-17-9.92-2.38-19.68-5.37-29.23-8.95-5.88-2.1-11.19-5.55-15.49-10.07-3.62-4.26-5.52-9.72-5.31-15.3-.2-8.31,3.79-16.17,10.63-20.91,7.09-5.31,16.73-7.93,28.93-7.84,10.73-.04,21.38,1.98,31.35,5.95,10.7,4.4,20.85,10.04,30.24,16.79,1.89,1.64,4.23,2.68,6.72,2.98,2.23,0,4.36-1.59,6.35-4.84l15.68-24.63c1.55-1.92,2.47-4.26,2.66-6.72-.16-2.78-1.7-5.3-4.09-6.72-24.97-20.32-56.26-31.27-88.45-30.95-16.72-.29-33.32,2.95-48.7,9.51-13.62,5.78-25.28,15.38-33.58,27.63-8.37,12.8-12.66,27.83-12.3,43.12,0,14.91,3.17,27.31,9.51,37.2,6.78,10.35,16.17,18.72,27.23,24.26,14.31,7.08,29.41,12.43,44.98,15.94,10.75,2.65,21.33,5.99,31.64,10.02,6.02,2.09,11.47,5.53,15.94,10.07,3.36,4.09,5.09,9.27,4.86,14.56.17,8.88-4.38,17.18-11.96,21.81-7.97,5.31-19.29,7.97-33.96,7.97-11.82-.02-23.53-2.23-34.54-6.54-11.22-4.3-21.73-10.27-31.17-17.72-1.75-1.91-4.14-3.11-6.72-3.37-1.17.07-2.28.53-3.16,1.3-1.24,1-2.31,2.19-3.16,3.53l-15.68,24.23c-1.54,2.09-2.56,4.53-2.98,7.09,0,2.26,1.73,4.73,5.31,7.47,12.34,10.18,26.36,18.13,41.42,23.51,16.19,5.81,33.28,8.71,50.48,8.58,17.92.34,35.71-3.03,52.26-9.88,14.24-5.85,26.54-15.63,35.44-28.19,8.51-12.76,12.84-27.85,12.41-43.17.41-12.63-2.76-25.12-9.14-36.03-6.81-10.5-16.27-19.01-27.42-24.68Z"/>
  <path class="st2" d="M821.57,1169.05c1.56-1.95,2.29-4.43,2.05-6.91v-30.61c.85-4.09-1.78-8.1-5.87-8.95-1.02-.21-2.06-.21-3.08,0h-190.79c-4.09-.85-8.1,1.78-8.95,5.87-.21,1.02-.21,2.06,0,3.08v30.61c-.92,4.07,1.64,8.1,5.7,9.02,1.07.24,2.18.25,3.25.01h64.19c1.4-.1,2.79.29,3.93,1.12.96.99,1.43,2.35,1.3,3.72v198.92c-.87,4.08,1.73,8.08,5.81,8.95,1.04.22,2.11.22,3.15,0h33.96c2.54.22,5.06-.51,7.09-2.05,1.68-1.89,2.49-4.39,2.23-6.91v-199c-.44-2.23,1.01-4.4,3.24-4.84.54-.11,1.09-.1,1.62,0h64.19c2.51.27,5.02-.47,6.99-2.05Z"/>
  <path class="st2" d="M959.1,1135.28c-2.41-5.22-5.29-10.22-8.58-14.93-1.64-2.3-4.27-3.68-7.09-3.72-2.91.08-5.65,1.44-7.47,3.72-3.48,4.59-6.37,9.61-8.58,14.93l-116.05,236.97c-.97,2-1.6,4.14-1.86,6.35,0,3.48,2.66,5.31,8.21,5.31h33.21c3.5.23,6.99-.54,10.07-2.23,2.99-2.49,5.3-5.7,6.72-9.33l74.63-158.99,75.38,158.99c1.42,3.63,3.73,6.83,6.72,9.33,2.95,1.66,6.32,2.44,9.7,2.23h35.44c5.47,0,8.21-1.73,8.21-5.31-.26-2.21-.89-4.35-1.86-6.35l-116.8-236.97Z"/>
  <path class="st2" d="M1259.14,1276.34c13.87-5.44,25.96-14.64,34.89-26.57,8.32-11.44,12.5-25.61,12.51-42.51,0-28.34-9.2-49.6-27.61-63.77-18.4-14.17-46.39-21.2-83.96-21.1h-79.15c-4.09-.85-8.1,1.78-8.95,5.87-.21,1.02-.21,2.06,0,3.08v243.35c-.85,4.09,1.78,8.1,5.87,8.95,1.02.21,2.06.21,3.08,0h33.96c2.54.22,5.06-.51,7.09-2.05,1.68-1.89,2.49-4.39,2.23-6.91v-200.62c-.19-1.4.22-2.82,1.12-3.91,1.1-.72,2.41-1.04,3.72-.93h29.23c19.15,0,33.76,3.42,43.84,10.26,10.08,6.84,15.12,17.6,15.12,32.28,0,13.69-4.79,24.27-14.37,31.72s-22.21,12.06-37.89,13.82c-4.49.24-6.72,1.62-6.72,4.09.2,2.04.97,3.99,2.23,5.61l63.77,105.98c1.83,3.48,4.45,6.48,7.65,8.77,3.31,1.57,6.97,2.27,10.63,2.05h36.19c5.97,0,8.95-1.5,8.95-4.49-.42-2.57-1.44-5-2.98-7.09l-60.44-95.89Z"/>
  <path class="st2" d="M1397.59,1122.58h-33.96c-4.09-.85-8.1,1.78-8.95,5.87-.21,1.02-.21,2.06,0,3.08v243.35c-.85,4.09,1.78,8.1,5.87,8.95,1.02.21,2.06.21,3.08,0h33.96c2.54.22,5.06-.51,7.09-2.05,1.68-1.89,2.49-4.39,2.23-6.91v-243.35c.25-2.51-.56-5-2.23-6.88-2.03-1.55-4.55-2.28-7.09-2.07Z"/>
  <path class="st2" d="M1472.97,1250.22l93.31-117.57c1.54-1.49,2.48-3.48,2.66-5.61,0-2.99-2.49-4.49-7.47-4.49h-39.56c-3.46-.2-6.91.44-10.07,1.86-3.04,2.08-5.59,4.8-7.47,7.97l-85.84,111.59c-2.07,2.28-3.37,5.15-3.72,8.21.23,2.95,1.41,5.74,3.35,7.97l87.33,114.57c1.97,3.02,4.58,5.57,7.65,7.47,3.23,1.41,6.74,2.05,10.26,1.86h41.02c5.31,0,7.97-1.5,7.97-4.49-.3-2.2-1.23-4.28-2.66-5.98l-96.76-123.36Z"/>
  <path class="st2" d="M1703.62,1250.88c14.47-2.71,27.72-9.89,37.89-20.54,9.83-10.45,14.75-24.38,14.75-41.79,0-22.64-7.53-39.31-22.58-50.03-15.06-10.72-37.63-16.03-67.72-15.94h-52.63c-2.86-.66-5.71,1.12-6.37,3.98-.18.78-.18,1.59,0,2.37v248.55c-.59,2.88,1.27,5.68,4.15,6.27.74.15,1.5.14,2.23-.02h51.12c33.83,0,59.02-5.85,75.56-17.54,16.54-11.69,24.82-28.87,24.84-51.54,0-18.9-5.66-33.51-16.98-43.84-11.32-10.33-26.06-16.97-44.24-19.93ZM1615.17,1133.77c0-1.25.24-2.05.74-2.42.67-.42,1.45-.61,2.23-.56h46.66c28.11,0,49.01,4.79,62.7,14.37,13.69,9.58,20.54,24.2,20.54,43.84,0,17.93-6.59,32.17-19.77,42.72-13.18,10.56-33.08,15.87-59.7,15.94h-50.48c-.81.06-1.62-.21-2.23-.74-.54-.61-.81-1.42-.74-2.23l.05-110.93ZM1664.43,1375.55h-46.28c-.81.06-1.62-.21-2.23-.74-.54-.61-.81-1.42-.74-2.23v-113.72c0-1.25.24-2.05.74-2.42.66-.42,1.45-.62,2.23-.56h50.48c58.72,0,88.08,19.79,88.08,59.36-.05,40.24-30.81,60.37-92.27,60.37v-.05Z"/>
  <path class="st2" d="M1922.68,1128.93c-1.16-2.65-2.53-5.21-4.09-7.65-.95-1.86-3.22-2.59-5.07-1.65-.71.36-1.29.94-1.65,1.65-1.57,2.44-2.94,4.99-4.09,7.65l-111.96,250.79c-.64.92-.9,2.05-.74,3.16.24.61.98.93,2.23.93h2.98c.99.08,1.97-.18,2.79-.74.91-.96,1.61-2.1,2.05-3.35l110.02-247.81,110.1,247.81c.43,1.25,1.13,2.39,2.05,3.35.82.56,1.8.82,2.79.74h2.66c1.77,0,2.66-.5,2.66-1.49-.17-.91-.42-1.79-.74-2.66l-111.96-250.73Z"/>
  <path class="st2" d="M2264.15,1122.58h-2.23c-.78-.05-1.57.14-2.23.56-.6.66-.87,1.54-.74,2.42v245.58l-176.42-245.95c-1.09-1.56-2.35-3.01-3.75-4.3-.88-.95-2.07-1.54-3.35-1.67-2.66,0-4.12,2.26-4.12,6.72v254.88c-.07.82.2,1.64.74,2.26.61.54,1.42.81,2.23.74h2.23c1.25,0,2.05-.24,2.42-.74.42-.67.62-1.47.56-2.26v-245.53l176.45,245.79c1.09,1.57,2.35,3.01,3.75,4.3.88.95,2.07,1.54,3.35,1.67,2.66,0,4.12-2.23,4.12-6.72v-254.77c.42-1.24-.25-2.58-1.49-3-.48-.16-1.01-.16-1.49,0l-.03.03Z"/>
  <path class="st2" d="M2339.52,1122.58h-2.23c-.78-.05-1.56.14-2.23.56-.59.66-.86,1.54-.74,2.42v255.25c-.07.82.2,1.64.74,2.26.61.54,1.42.81,2.23.74h2.23c1.25,0,2.05-.24,2.42-.74.42-.67.62-1.47.56-2.26v-255.25c.42-1.24-.25-2.58-1.49-3-.48-.16-1.01-.16-1.49,0v.03Z"/>
  <path class="st2" d="M2362.29,1253.19h0l135.85-126.52c1.24-1.24,1.86-2.13,1.86-2.66,0-.99-.99-1.49-2.98-1.49h-2.66c-1.4-.07-2.8.18-4.09.74-1.48.83-2.85,1.83-4.09,2.98l-131.73,123.15c-1.17.93-1.97,2.25-2.23,3.72h0c.26,1.47,1.06,2.79,2.23,3.72l131.73,123.15c1.24,1.15,2.62,2.15,4.09,2.98,1.29.56,2.69.82,4.09.74h2.66c1.98,0,2.98-.5,2.98-1.49,0-.5-.62-1.38-1.86-2.66l-135.85-126.36Z"/>
  <path class="st3" d="M300.26,1095.93H78.43c-4.02,0-7.29,3.25-7.29,7.27,0,1.94.77,3.8,2.14,5.17l58.66,58.66h97.27c4.02.01,7.28,3.28,7.28,7.31v97.24l58.61,58.61c2.84,2.85,7.45,2.85,10.3.01,1.37-1.37,2.14-3.23,2.14-5.17v-221.83c0-4.02-3.26-7.28-7.28-7.28Z"/>
  <path class="st1" d="M133.78,1168.86l-1.83-1.83H7.31c-4.04,0-7.31,3.27-7.31,7.3,0,1.95.77,3.81,2.15,5.18l221.91,222.38c2.82,2.86,7.43,2.89,10.3.07,1.4-1.38,2.18-3.28,2.17-5.25v-125.14l-1.89-1.89-100.86-100.83Z"/>
  <path class="st0" d="M229.21,1167.03h-97.27l104.55,104.55v-97.24c0-4.02-3.26-7.29-7.28-7.31Z"/>
</svg>