<?xml version="1.0" encoding="UTF-8"?>
<svg id="Layer_1" xmlns="http://www.w3.org/2000/svg" version="1.1" viewBox="0 0 2500 2500">
  <!-- Generator: Adobe Illustrator 29.6.0, SVG Export Plug-In . SVG Version: 2.1.1 Build 207)  -->
  <defs>
    <style>
      .st0 {
        fill: #2692ff;
      }

      .st1 {
        fill: #0070e0;
      }

      .st2 {
        fill: #63b1ff;
      }
    </style>
  </defs>
  <path class="st2" d="M2353.24,77.62H635.84c-31.13-.06-56.41,25.13-56.47,56.26-.03,15.01,5.93,29.41,16.56,40.01l454.19,454.19h753.07c31.16.11,56.36,25.41,56.36,56.57v752.86l453.78,453.78c21.98,22.04,57.67,22.09,79.71.1,10.63-10.6,16.59-25,16.56-40.01V133.98c0-31.13-25.23-56.36-56.36-56.36Z"/>
  <path class="st1" d="M1064.32,642.27l-14.19-14.19H85.18c-31.24-.01-56.58,25.31-56.59,56.55,0,15.06,6,29.51,16.68,40.13l1718.01,1721.71c21.87,22.15,57.55,22.39,79.71.52,10.86-10.72,16.91-25.38,16.77-40.63v-968.85l-14.6-14.61-780.84-780.63Z"/>
  <path class="st0" d="M1803.19,628.07h-753.07l809.43,809.43v-752.86c0-31.16-25.2-56.45-56.36-56.57Z"/>
</svg>