<?xml version="1.0" encoding="UTF-8"?>
<svg id="Camada_1" xmlns="http://www.w3.org/2000/svg" version="1.1" viewBox="0 0 2500 2500">
  <!-- Generator: Adobe Illustrator 29.6.0, SVG Export Plug-In . SVG Version: 2.1.1 Build 207)  -->
  <defs>
    <style>
      .st0 {
        fill: #1fbfae;
      }

      .st1 {
        fill: #005f56;
      }
    </style>
  </defs>
  <path class="st1" d="M895.43,1406.95v-127.31h-35.39c-9.12-.09-16.51-7.48-16.6-16.6.09-9.12,7.48-16.51,16.6-16.6h108.07c9.12.09,16.51,7.48,16.6,16.6-.09,9.12-7.48,16.51-16.6,16.6h-35.02v127.31c-.09,9.12-7.48,16.51-16.6,16.6h-4.92c-8.94-.09-16.23-7.57-16.14-16.6Z"/>
  <path class="st1" d="M1103.74,1414.16l-29.37-53.44h-27.54v44.41c0,10.21-8.3,18.42-18.42,18.42h-.73c-10.21,0-18.42-8.3-18.42-18.42v-158.59h82.9c36.93,0,59.92,24.08,59.92,57.27,0,30.92-19.97,47.79-39.12,52.35l23.35,39.22c5.29,8.66,2.55,19.88-6.11,25.17-2.92,1.82-6.29,2.74-9.67,2.64-7.02.18-13.32-3.28-16.78-9.03ZM1112.76,1303.44c0-14.68-11.31-23.71-26.36-23.71h-39.94v47.88h39.94c15.05-.09,26.36-9.12,26.36-24.17Z"/>
  <path class="st1" d="M1297.72,1411.52l-6.75-17.69h-75.69l-6.75,17.69c-2.55,7.39-9.58,12.22-17.33,12.04h-2.64c-12.77,0-22.25-13.22-17.33-25.26l50.07-129.96c5.2-13.41,18.06-22.16,32.38-22.25,14.32.09,27.09,8.94,32.38,22.25l50.07,129.87c4.56,12.4-4.1,25.26-17.33,25.26h-2.64c-8.66.09-15.78-4.47-18.42-11.95ZM1253.22,1284.2l-27.54,76.06h54.99l-27.45-76.06Z"/>
  <path class="st1" d="M1475.46,1412.24l-76.42-104.33v96.76c.09,10.31-8.12,18.79-18.42,18.88h-.46c-10.3.09-18.69-8.21-18.79-18.51v-134.43c.09-13.31,10.85-23.98,24.08-24.08,9.21,0,17.87,4.29,23.35,11.67l73.41,99.41v-92.29c-.09-10.3,8.21-18.7,18.42-18.79h.36c10.31-.09,18.7,8.21,18.88,18.42v135.98c0,12.49-10.12,22.52-22.62,22.62-8.57-.18-16.6-4.38-21.8-11.31Z"/>
  <path class="st1" d="M1552.33,1382.15c5.65-8.3,16.6-9.76,24.9-4.56,12.59,8.39,27.45,12.86,42.59,12.77,20.7,0,30.92-9.03,30.92-19.61,0-30.92-102.05-9.03-102.05-75.7,0-29.37,25.63-54.26,67.4-54.26,20.33,0,38.03,4.1,53.07,12.77,9.03,5.29,11.68,17.33,5.65,25.63-5.29,7.02-14.86,9.12-22.62,4.92-12.03-7.2-25.63-10.12-39.12-10.12-15.78,0-24.9,6.75-24.9,17.33,0,27.91,101.69,9.03,101.69,75.33,0,32.37-23.35,56.91-70.78,56.91-25.62,0-45.59-6.38-61-16.6-9.58-5.29-11.77-16.51-5.75-24.81Z"/>
  <path class="st1" d="M1714.2,1406.96v-160.42h108.8c9.11.09,16.5,7.48,16.59,16.6-.1,9.12-7.48,16.51-16.59,16.6h-70.77v37.3h35.38c9.11.09,16.5,7.48,16.59,16.6-.1,9.12-7.48,16.51-16.59,16.6h-35.38v56.91c-.1,9.12-7.48,16.51-16.59,16.6h-4.57c-9.31-.18-16.87-7.39-16.87-16.78Z"/>
  <path class="st1" d="M1865.62,1423.55v-177.02h108.8c9.11.09,16.51,7.48,16.59,16.6-.08,9.12-7.48,16.51-16.59,16.6h-70.77v37.3h35.38c9.11.09,16.51,7.48,16.59,16.6-.08,9.12-7.48,16.51-16.59,16.6h-35.38v40.31h70.77c9.11.09,16.51,7.48,16.59,16.6-.08,9.12-7.48,16.51-16.59,16.6l-108.8-.18Z"/>
  <path class="st1" d="M2020.44,1423.55v-177.02h108.89c9.13.09,16.51,7.48,16.6,16.6-.08,9.12-7.46,16.51-16.6,16.6h-70.77v37.3h35.38c9.13.09,16.51,7.48,16.6,16.6-.08,9.12-7.46,16.51-16.6,16.6h-35.38v40.31h70.77c9.13.09,16.51,7.48,16.6,16.6-.08,9.12-7.46,16.51-16.6,16.6l-108.89-.18Z"/>
  <path class="st1" d="M2270.14,1414.16l-29.36-53.44h-27.46v44.41c0,10.21-8.3,18.42-18.42,18.42h-.74c-10.2,0-18.42-8.3-18.42-18.42v-158.59h82.89c36.94,0,59.92,24.08,59.92,57.27,0,30.92-19.97,47.79-39.12,52.35l23.34,39.22c5.29,8.66,2.55,19.88-6.1,25.17-2.93,1.82-6.29,2.74-9.67,2.64-7.11.27-13.5-3.19-16.87-9.03ZM2279.16,1303.44c0-14.68-11.31-23.71-26.35-23.71h-39.95v47.88h39.95c15.04-.09,26.35-9.12,26.35-24.17Z"/>
  <path class="st1" d="M2464.12,1411.52l-6.74-17.69h-75.7l-6.74,17.69c-2.55,7.39-9.58,12.22-17.33,12.04h-3.36c-12.78,0-22.27-13.22-17.33-25.26l50.07-129.96c5.19-13.41,18.05-22.16,32.37-22.25,14.32.09,27.09,8.94,32.37,22.25l50.07,129.87c4.55,12.4-4.12,25.26-17.33,25.26h-2.64c-7.94.09-15.06-4.47-17.7-11.95ZM2419.26,1284.2l-27.46,76.06h55.36l-27.9-76.06Z"/>
  <path class="st0" d="M473.52,1445.55c-3.1-.73-18.88-4.56-18.88,6.38v97.58c.09,15.6,12.68,28.18,28.27,28.27,15.6-.09,28.18-12.68,28.27-28.27v-57.64c0-22.53-15.69-41.86-37.67-46.33Z"/>
  <path class="st0" d="M129.97,1455.94c-1.92-.37-14.41-.73-14.41,7.57v86c.09,15.6,12.68,28.18,28.27,28.27,15.6-.09,28.18-12.68,28.27-28.27v-46.51c.09-24.17-18.06-44.51-42.13-47.06Z"/>
  <path class="st0" d="M691.48,1389.45c-22.25-3.74-44.69-7.2-67.39-10.4v-159.14c0-1.09,0-2.28-.09-3.37v-27.63c0-29.64-24.08-53.72-53.72-53.72h-62.11c-29.64,0-53.72,24.08-53.72,53.72v31.01l.18.09v22.89c-46.15,14.04-107.07,18.61-169.54-16.78v-48.61c0-1.55,0-3.1-.09-4.65v-26.36c0-29.64-24.08-53.72-53.72-53.72h-62.02c-29.64,0-53.72,24.08-53.72,53.72v31.01l.09.09v205.01c-32.74,4.93-65.39,10.67-97.95,17.33-8.57,1.82-14.68,9.3-14.68,18.06.09,19.24,15.69,34.75,34.93,34.66,2.28,0,4.65-.27,6.84-.73,44.05-8.66,88.92-15.87,133.7-21.07,20.15-2.19,35.48-19.24,35.38-39.58v-9.39c-.37-6.11-5.29-10.94-11.31-10.21-10.21,1-20.34,2.19-30.55,3.38v-197.54c.64-15.6,13.77-27.72,29.37-27.09,14.68.55,26.54,12.4,27.09,27.09v371.91c.09,15.6,12.68,28.18,28.27,28.27,15.6,0,28.18-12.59,28.27-28.18v-127.77c32.1-1.73,64.48-2.55,96.76-2.55,42.95,0,85.91,1.55,128.04,4.56,22.98,1.91,42.59-16.6,42.59-39.95v-4.1c0-5.29-4.11-9.76-9.03-10.12-10.76-.82-21.61-1.64-32.38-2.37v-70.86c0-4.65-3.74-8.39-8.39-8.39-1,0-2.01.18-2.92.55-6.11,2.19-12.49,4.29-19.06,6.2-15.41,4.38-26.08,18.42-26.08,34.47v35.02c-24.17-1-48.43-1.46-72.69-1.46-32.37,0-64.66.82-96.76,2.55v-96.85c31.65,14.68,66.21,22.34,101.23,22.34,16.14,0,32.19-1.55,48.06-4.56,47.88-9.03,86.09-29.18,106.88-42.13,8.76-5.47,11.49-17.05,5.93-25.81-.36-.55-.73-1.09-1.09-1.64-5.93-7.66-16.69-9.48-24.81-4.38-2.92,1.82-6.38,3.92-10.12,6.11,1.37-14.87,14.23-26.27,29.27-25.63,14.68.55,26.54,12.4,27.09,27.09v329.59c.09,15.6,12.68,28.18,28.27,28.27,15.6,0,28.18-12.59,28.27-28.18v-113.54c33.65,4.83,67.03,10.58,100.14,17.05,5.75,1,11.22-2.74,12.22-8.48.09-.55.18-1.09.18-1.64,0-26.45-19.06-48.97-45.14-53.44Z"/>
  <path class="st0" d="M193.46,1170.67l-.18.18-.09.09c-7.93,6.57-9.12,18.33-2.55,26.27.27.27.45.55.73.82,3.19,3.47,6.38,6.84,9.58,10.03,2.92,2.92,7.57,2.92,10.49,0,1.37-1.37,2.19-3.28,2.19-5.2v-22.62c0-6.84-5.47-12.31-12.31-12.31-2.92-.09-5.65.91-7.84,2.74Z"/>
  <path class="st0" d="M2480.24,1576.61c-2,7.99-6.34,12.57-15.75,12.57h-7.51l-2.24-8.22h9.64c3.88,0,6.1-1.76,7.05-5.4l2.58-9.87h-13.04l-14.91-59.91h9.27l13.04,51.69h7.29l13.04-51.69h9.27l-17.73,70.84Z"/>
  <path class="st0" d="M2412.9,1512.8c-9.74,0-17.03,6.11-20.44,11.51v41.35h-9.16v-59.91h9.16v8.93c5.06-6.34,13.17-10.57,21.38-10.57,15.27,0,24.43,10.22,24.43,24.67v36.89h-9.16v-36.06c0-9.4-5.05-16.8-16.21-16.8Z"/>
  <path class="st0" d="M2359.11,1565.67v-9.4c-5.16,6.93-12.56,11.16-21.26,11.16-16.45,0-30.19-13.86-30.19-31.84s13.74-31.48,30.19-31.48c8.7,0,16.1,4.11,21.26,10.93v-9.28h9.16v59.91h-9.16ZM2317.06,1535.59c0,13.51,9.27,23.14,20.79,23.14,9.27,0,17.03-5.64,21.26-13.27v-19.74c-3.99-7.4-11.98-12.92-21.26-12.92-11.52,0-20.79,9.52-20.79,22.79Z"/>
  <path class="st0" d="M2266.19,1567.43c-8.7,0-16.1-4.11-21.27-10.93v32.66h-9.16v-83.41h9.16v9.51c5.17-6.93,12.57-11.16,21.27-11.16,16.43,0,30.19,13.86,30.19,31.84s-13.76,31.48-30.19,31.48ZM2266.19,1512.8c-9.29,0-17.04,5.64-21.27,13.28v19.74c4,7.4,11.98,12.92,21.27,12.92,11.5,0,20.79-9.52,20.79-22.79s-9.29-23.14-20.79-23.14Z"/>
  <path class="st0" d="M2151.55,1512.8c-9.64,0-16.92,6.11-20.33,11.51v41.35h-9.16v-59.91h9.16v8.81c5.05-6.23,13.04-10.46,21.27-10.46,10.22,0,17.62,4.58,21.5,12.1,5.05-7.17,14.1-12.1,23.37-12.1,15.15,0,24.32,10.22,24.32,24.67v36.89h-9.16v-36.06c0-9.4-5.05-16.8-16.1-16.8-9.39,0-16.43,5.76-19.96,10.93.22,1.65.35,3.29.35,5.05v36.89h-9.16v-36.06c0-9.4-5.06-16.8-16.1-16.8Z"/>
  <path class="st0" d="M2108.89,1535.59c0,17.62-14.22,31.84-32.9,31.84s-32.89-14.21-32.89-31.84,14.34-31.48,32.89-31.48,32.9,14.1,32.9,31.48ZM2052.5,1535.59c0,13.04,9.87,23.14,23.48,23.14s23.5-10.1,23.5-23.14-9.87-22.79-23.5-22.79-23.48,9.99-23.48,22.79Z"/>
  <path class="st0" d="M2034.82,1546.75c-4,12.8-16.23,20.68-29.84,20.68-18.45,0-32.66-14.21-32.66-31.84s14.21-31.48,32.66-31.48c13.74,0,25.61,7.75,29.84,20.79h-9.76c-3.28-7.17-10.81-12.1-20.09-12.1-13.52,0-23.26,9.99-23.26,22.79s9.74,23.14,23.26,23.14c9.39,0,16.8-4.82,20.09-11.98h9.76Z"/>
  <path class="st0" d="M1916.27,1565.67h-27.84v-13.63h25.48c6.12,0,8.59-2.59,8.59-6.34,0-3.41-2.11-5.99-8.47-5.99h-7.4c-11.63,0-19.03-7.17-19.03-17.27s8.35-17.15,19.27-17.15h28.08v13.51h-26.08c-3.52,0-5.41,1.76-5.41,4.23s2,4.23,5.41,4.23h8.11c14.34,0,21.03,8.34,21.03,18.68s-7.29,19.74-21.74,19.74Z"/>
  <path class="st0" d="M1880.95,1522.2c-8.35,0-16.1,3.29-19.62,6.23v37.24h-16.8v-60.38h16.8v9.75c4.34-6.7,11.16-11.4,19.62-11.4v18.56Z"/>
  <path class="st0" d="M1833.09,1544.52c-3.17,14.1-15.63,22.91-30.08,22.91-18.32,0-31.83-13.74-31.83-32.31,0-17.5,13.74-31.48,31.6-31.48,20.31,0,31.12,16.8,31.12,34.07h-48.04c1.17,9.75,7.86,15.62,17.14,15.62,6.47,0,12.69-3.29,15.15-8.81h14.93ZM1802.89,1517.15c-7.75,0-13.86,4.23-16.1,11.16h31.01c-1.87-6.93-7.16-11.16-14.91-11.16Z"/>
  <path class="st0" d="M1760.27,1565.67h-16.8v-88.11h16.8v88.11Z"/>
  <path class="st0" d="M1730.67,1494.83h-16.79v-17.27h16.79v17.27ZM1730.67,1565.67h-16.79v-60.38h16.79v60.38Z"/>
  <path class="st0" d="M1684.98,1565.67v-10.1c-4.58,7.52-11.87,11.86-20.2,11.86-15.63,0-27.97-13.63-27.97-32.07s12.33-31.72,27.97-31.72c8.33,0,15.62,4.35,20.2,11.75v-10.1h16.32v60.38h-16.32ZM1653.27,1535.36c0,9.99,6.94,16.92,15.51,16.92,7.29,0,13.39-4.58,16.21-9.99v-13.63c-2.93-5.4-8.92-9.98-16.21-9.98-8.57,0-15.51,6.93-15.51,16.68Z"/>
  <path class="st0" d="M1631.47,1518.57h-10.57v47.11h-16.8v-47.11h-10.46v-13.27h10.46v-16.92h16.8v16.92h10.57v13.27Z"/>
  <path class="st0" d="M1587.91,1544.52c-3.17,14.1-15.62,22.91-30.07,22.91-18.33,0-31.84-13.74-31.84-32.31,0-17.5,13.75-31.48,31.6-31.48,20.32,0,31.13,16.8,31.13,34.07h-48.05c1.17,9.75,7.87,15.62,17.15,15.62,6.46,0,12.69-3.29,15.15-8.81h14.92ZM1557.72,1517.15c-7.75,0-13.86,4.23-16.1,11.16h31.01c-1.88-6.93-7.17-11.16-14.92-11.16Z"/>
  <path class="st0" d="M1499.93,1565.67l-12.8-31.25h-18.44v31.25h-18.21v-88.11h37.47c19.97,0,31.37,11.86,31.37,28.78,0,11.16-5.29,20.09-14.92,24.67l14.68,34.66h-19.15ZM1485.01,1492.48h-16.33v28.55h16.09c11.4,0,15.74-6.7,15.74-14.33,0-7.4-4.23-14.21-15.51-14.21Z"/>
  <path class="st0" d="M1425.05,1573.89c-2.35,10.1-8.11,15.27-19.27,15.27h-11.28l-3.17-13.04h12.69c3.88,0,5.99-1.53,6.93-5.05l1.65-6.23h-15.86l-14.1-59.56h17.04l9.28,46.52h6.11l9.28-46.52h17.15s-16.45,68.61-16.45,68.61Z"/>
  <path class="st0" d="M1358.6,1565.67v-10.1c-4.58,7.52-11.86,11.86-20.21,11.86-15.62,0-27.96-13.63-27.96-32.07s12.34-31.72,27.96-31.72c8.34,0,15.62,4.35,20.21,11.75v-10.1h16.33v60.38h-16.33ZM1326.89,1535.36c0,9.99,6.93,16.92,15.51,16.92,7.28,0,13.39-4.58,16.21-9.99v-13.63c-2.94-5.4-8.93-9.98-16.21-9.98-8.57,0-15.51,6.93-15.51,16.68Z"/>
  <path class="st0" d="M1272.68,1537.13h-16.8v28.55h-18.21v-88.11h34.89c20.32,0,32.54,11.98,32.54,29.72s-12.22,29.84-32.42,29.84ZM1270.92,1492.48h-15.04v29.72h14.8c11.63,0,16.33-6.93,16.33-14.92s-4.58-14.8-16.1-14.8Z"/>
  <path class="st0" d="M1190.98,1565.67l-6.81-27.25h-34.3l-6.81,27.25h-9.4l22.32-88.11h22.2l22.2,88.11h-9.4ZM1163.02,1485.79l-11.04,44.41h30.19l-11.04-44.41h-8.11Z"/>
</svg>