<?xml version="1.0" encoding="UTF-8"?>
<svg id="Camada_1" xmlns="http://www.w3.org/2000/svg" version="1.1" viewBox="0 0 2500 2500">
  <!-- Generator: Adobe Illustrator 29.6.0, SVG Export Plug-In . SVG Version: 2.1.1 Build 207)  -->
  <defs>
    <style>
      .st0 {
        fill: #1fbfae;
      }
    </style>
  </defs>
  <path class="st0" d="M1603.39,1588.25c-10.57-2.48-64.34-15.54-64.34,21.75v332.55c.31,53.15,43.2,96.04,96.35,96.35,53.15-.31,96.04-43.2,96.35-96.35v-196.42c0-76.77-53.46-142.65-128.36-157.88Z"/>
  <path class="st0" d="M432.63,1623.66c-6.53-1.24-49.1-2.49-49.1,25.79v293.08c.31,53.15,43.2,96.04,96.34,96.35,53.15-.31,96.03-43.2,96.34-96.35v-158.5c.31-82.36-61.54-151.67-143.58-160.37Z"/>
  <path class="st0" d="M2346.16,1397.08c-75.83-12.74-152.28-24.55-229.67-35.43v-542.33c0-3.73,0-7.77-.31-11.5v-94.17c0-101.01-82.05-183.06-183.05-183.06h-211.65c-101,0-183.05,82.05-183.05,183.06v105.67l.62.31v78.01c-157.26,47.86-364.87,63.4-577.76-57.19v-165.65c0-5.28,0-10.57-.31-15.85v-89.82c0-101.01-82.05-183.06-183.05-183.06h-211.34c-101.01,0-183.05,82.05-183.05,183.06v105.67l.31.31v698.66c-111.57,16.79-222.84,36.37-333.79,59.05-29.21,6.22-50.04,31.7-50.04,61.54.31,65.58,53.46,118.41,119.03,118.1,7.77,0,15.85-.93,23.31-2.49,150.11-29.52,303.02-54.07,455.62-71.79,68.68-7.46,120.9-65.58,120.58-134.89v-32.01c-1.24-20.83-18.02-37.29-38.54-34.81-34.81,3.42-69.3,7.46-104.11,11.5v-673.17c2.18-53.15,46.93-94.48,100.08-92.3,50.04,1.86,90.44,42.27,92.31,92.3v1267.4c.31,53.15,43.2,96.04,96.34,96.35,53.15,0,96.04-42.89,96.35-96.04v-435.42c109.4-5.91,219.73-8.7,329.75-8.7,146.38,0,292.76,5.28,436.35,15.54,78.32,6.52,145.14-56.56,145.14-136.13v-13.99c0-18.02-13.99-33.25-30.77-34.49-36.67-2.8-73.65-5.6-110.33-8.08v-241.48c0-15.85-12.74-28.59-28.59-28.59-3.42,0-6.83.62-9.95,1.87-20.82,7.46-42.58,14.61-64.95,21.14-52.52,14.91-88.88,62.78-88.88,117.48v119.34c-82.36-3.42-165.03-4.97-247.7-4.97-110.33,0-220.35,2.79-329.75,8.7v-330.06c107.84,50.03,225.63,76.14,344.98,76.14,55.01,0,109.71-5.28,163.78-15.54,163.17-30.77,293.39-99.45,364.25-143.59,29.84-18.65,39.16-58.12,20.2-87.95-1.24-1.87-2.48-3.73-3.73-5.59-20.2-26.11-56.87-32.32-84.53-14.92-9.95,6.22-21.76,13.36-34.5,20.82,4.66-50.66,48.48-89.51,99.76-87.33,50.04,1.86,90.44,42.27,92.31,92.3v1123.2c.31,53.15,43.2,96.04,96.34,96.35,53.15,0,96.04-42.89,96.35-96.04v-386.93c114.68,16.47,228.43,36.05,341.25,58.12,19.58,3.42,38.23-9.32,41.64-28.9.31-1.87.62-3.73.62-5.6,0-90.13-64.95-166.9-153.84-182.13Z"/>
  <path class="st0" d="M648.97,651.51l-.62.62-.31.31c-27.04,22.38-31.08,62.47-8.7,89.51.93.93,1.55,1.86,2.48,2.8,10.88,11.81,21.76,23.31,32.63,34.19,9.95,9.95,25.8,9.95,35.74,0,4.66-4.66,7.46-11.19,7.46-17.71v-77.08c0-23.31-18.65-41.96-41.96-41.96-9.95-.31-19.27,3.11-26.73,9.32Z"/>
</svg>