<?xml version="1.0" encoding="UTF-8"?>
<svg id="Camada_1" xmlns="http://www.w3.org/2000/svg" version="1.1" viewBox="0 0 2500 2500">
  <!-- Generator: Adobe Illustrator 29.6.0, SVG Export Plug-In . SVG Version: 2.1.1 Build 207)  -->
  <defs>
    <style>
      .st0 {
        fill: #11c76f;
      }
    </style>
  </defs>
  <path class="st0" d="M514.12,1500.03h116.93v-343.54h-116.93v343.54ZM671.37,922.72h-78.63v79.28h78.63v-79.28ZM229.84,961.34h-112.89v99.61h104.83c66.53,0,104.83,32.52,104.83,93.51s-38.3,95.54-104.83,95.54h-104.83v-187.02H0v437.05h116.94v-150.43h110.87c135.09,0,213.72-73.18,213.72-199.21,0-117.9-76.62-189.05-211.7-189.05ZM750,843.44h-235.88v237.84h235.88s0-237.84,0-237.84ZM711.69,1040.62h-157.25v-158.56h157.25s0,158.56,0,158.56ZM1397.18,961.34h-106.87v99.61h100.81c66.53,0,104.85,32.52,104.85,93.51s-38.32,95.54-104.83,95.54h-100.81v-187.02h-116.94v437.05h116.94v-150.43h106.85c135.08,0,213.7-73.18,213.7-199.21,0-117.9-78.63-189.05-213.7-189.05ZM2379.03,1087.38l-100.81,256.13-100.8-256.13h-120.97l161.29,412.66-62.51,156.52h122.98l221.78-569.18h-120.97ZM1854.84,1085.34c-70.55,0-124.99,16.26-185.48,46.75l36.29,81.31c42.34-24.39,84.68-36.59,122.98-36.59,56.45,0,84.68,24.39,84.68,69.11v8.13h-112.91c-100.8,0-155.23,46.75-155.23,124s52.42,128.07,141.12,128.07c56.45,0,96.78-20.33,129.04-54.89v44.72h114.93v-268.33c-4.04-87.41-66.54-142.3-175.42-142.3h0ZM1923.38,1361.8c-12.1,34.56-46.36,63.02-94.76,63.02-40.32,0-64.51-20.33-64.51-52.85s22.17-46.75,66.53-46.75h92.74v36.59ZM929.44,1410.59c-56.45,0-96.78-44.72-96.78-111.8s40.32-109.77,96.78-109.77c40.32,0,70.57,16.26,92.74,44.72l78.64-56.92c-36.3-54.89-98.79-87.41-177.43-87.41-122.98-2.03-207.65,83.34-207.65,209.38s84.68,209.38,207.66,209.38c84.67,0,147.17-34.56,181.44-91.48l-80.64-54.89c-20.15,32.52-52.42,48.79-94.76,48.79Z"/>
</svg>