<?xml version="1.0" encoding="UTF-8" standalone="no"?>
<svg
   enable-background="new 0 0 178.76 35.44"
   version="1.1"
   viewBox="0 0 2500.0001 2500.0001"
   xml:space="preserve"
   id="svg8149"
   sodipodi:docname="logo-banco-sofisa-verde.svg"
   width="2500"
   height="2500"
   inkscape:version="1.2.2 (732a01da63, 2022-12-09)"
   xmlns:inkscape="http://www.inkscape.org/namespaces/inkscape"
   xmlns:sodipodi="http://sodipodi.sourceforge.net/DTD/sodipodi-0.dtd"
   xmlns="http://www.w3.org/2000/svg"
   xmlns:svg="http://www.w3.org/2000/svg"><defs
   id="defs8153" /><sodipodi:namedview
   id="namedview8151"
   pagecolor="#505050"
   bordercolor="#eeeeee"
   borderopacity="1"
   inkscape:showpageshadow="0"
   inkscape:pageopacity="0"
   inkscape:pagecheckerboard="0"
   inkscape:deskcolor="#505050"
   showgrid="false"
   inkscape:zoom="0.15154973"
   inkscape:cx="-1385.6838"
   inkscape:cy="1735.404"
   inkscape:window-width="1920"
   inkscape:window-height="1009"
   inkscape:window-x="-8"
   inkscape:window-y="-8"
   inkscape:window-maximized="1"
   inkscape:current-layer="svg8149" />
<style
   type="text/css"
   id="style8129">
	.st0{fill-rule:evenodd;clip-rule:evenodd;fill:#F8B124;}
	.st1{fill-rule:evenodd;clip-rule:evenodd;fill:#00A992;}
	.st2{fill:#00A992;}
	.st3{fill:#F8B124;}
</style>


<path
   class="st2"
   d="m 506.89727,1249.2557 c 0,-409.20622 331.91092,-741.11814 741.11713,-741.11814 409.2065,0 741.1194,331.91192 741.1194,741.11814 0,409.2064 -331.9129,741.1183 -741.1194,741.1183 -409.20621,0 -741.11713,-331.9119 -741.11713,-741.1183"
   id="path8135"
   style="stroke-width:151.558;fill:#00a992;fill-opacity:1" />
<path
   class="st0"
   d="M 0.69230973,1249.2557 C 0.69230973,559.66656 559.94109,0.41879334 1249.5304,0.41879334 c 689.5893,0 1248.8369,559.24776666 1248.8369,1248.83690666 0,689.5893 -559.2476,1248.8381 -1248.8369,1248.8381 C 558.42624,2498.0938 0.69230973,1938.845 0.69230973,1249.2557 m 272.80429027,0 c 0,-538.02974 436.48677,-974.51779 974.5178,-974.51779 538.031,0 974.5168,436.48805 974.5168,974.51779 0,538.0309 -436.4858,974.5178 -974.5168,974.5178 -538.03103,0 -974.5178,-436.4869 -974.5178,-974.5178"
   id="path8137"
   style="stroke-width:151.558;fill:#00a992;fill-opacity:1" />





</svg>
