<?xml version="1.0" encoding="UTF-8" standalone="no"?>
<svg
   enable-background="new 0 0 178.76 35.44"
   version="1.1"
   viewBox="0 0 2500.0001 2500.0001"
   xml:space="preserve"
   id="svg8149"
   sodipodi:docname="logo-sofisa-direto.svg"
   width="2500"
   height="2500"
   inkscape:version="1.2.2 (732a01da63, 2022-12-09)"
   xmlns:inkscape="http://www.inkscape.org/namespaces/inkscape"
   xmlns:sodipodi="http://sodipodi.sourceforge.net/DTD/sodipodi-0.dtd"
   xmlns="http://www.w3.org/2000/svg"
   xmlns:svg="http://www.w3.org/2000/svg"><defs
   id="defs8153" /><sodipodi:namedview
   id="namedview8151"
   pagecolor="#505050"
   bordercolor="#eeeeee"
   borderopacity="1"
   inkscape:showpageshadow="0"
   inkscape:pageopacity="0"
   inkscape:pagecheckerboard="0"
   inkscape:deskcolor="#505050"
   showgrid="false"
   inkscape:zoom="0.30309946"
   inkscape:cx="1121.744"
   inkscape:cy="1200.9259"
   inkscape:window-width="1920"
   inkscape:window-height="1009"
   inkscape:window-x="-8"
   inkscape:window-y="-8"
   inkscape:window-maximized="1"
   inkscape:current-layer="svg8149" />
<style
   type="text/css"
   id="style8129">
	.st0{fill-rule:evenodd;clip-rule:evenodd;fill:#F8B124;}
	.st1{fill-rule:evenodd;clip-rule:evenodd;fill:#00A992;}
	.st2{fill:#00A992;}
	.st3{fill:#F8B124;}
</style>
<path
   class="st0"
   d="m 460.69514,1098.3212 h -10.48251 l 0.27955,54.0898 h 13.27784 c 13.69713,0 25.43752,-9.7837 25.43752,-26.8353 -0.13977,-18.1696 -10.20297,-27.2545 -28.5124,-27.2545 m -43.60721,-66.2494 h 57.30435 c 26.69542,0 44.02651,8.6656 44.02651,28.5125 0,19.9866 -21.66385,28.5124 -35.50075,30.8884 l 0.13977,1.817 c 13.55736,0.559 39.13466,8.8053 39.13466,31.0282 0,26.4158 -24.45915,37.0382 -50.87507,37.0382 h -54.22947 z m 45.56394,8.9451 H 450.7717 l -0.69883,48.2195 h 11.04157 c 13.13807,0 26.4159,-8.2462 26.4159,-25.158 0,-12.4392 -6.56903,-23.0615 -24.87847,-23.0615 m 135.85322,70.3027 -1.39768,0.6988 c -3.07485,1.5374 -6.56903,2.5158 -9.78366,3.6339 -3.3544,1.1182 -6.7088,2.0966 -9.64391,3.634 -6.00996,3.0748 -10.48249,7.9667 -10.48249,17.8901 0,9.6439 5.17136,15.3743 13.69714,15.3743 10.48249,0 17.6106,-6.9883 17.6106,-19.7071 z m -55.90668,-32.4259 c 12.57901,-7.2679 29.91007,-10.0632 43.46744,-10.0632 23.34104,0 39.83351,8.386 39.83351,30.0498 v 62.6155 h -27.11475 c 0.13977,-1.9567 0.27955,-6.4293 0,-10.4825 l -0.13975,-2.376 -1.53745,1.817 c -6.84856,7.8269 -14.95502,13.5573 -28.23286,13.5573 -21.94337,0 -30.88844,-12.4392 -30.88844,-24.0398 0,-15.7937 12.15971,-22.6422 32.14635,-26.8353 24.59892,-5.0316 27.95332,-6.7087 27.95332,-14.3959 0,-9.7837 -8.66553,-17.4708 -22.36266,-17.4708 -15.79365,0 -26.27614,5.3111 -29.49078,7.2678 z m 387.1537,-3.4942 c -14.53573,0 -23.0615,14.6756 -23.0615,43.3277 0,21.1047 5.31113,38.4358 22.78197,38.4358 14.81526,0 22.36267,-16.3527 22.36267,-45.5639 0.13977,-21.8036 -6.42926,-36.1996 -22.08314,-36.1996 m -0.4193,-6.569 c 33.82355,0 53.53065,17.7504 53.53065,45.564 0,30.469 -21.94337,49.4774 -53.53065,49.4774 -26.27613,0 -53.53063,-12.4393 -53.53063,-45.2845 0,-33.4042 25.85683,-49.7569 53.53063,-49.7569 m -66.38916,19.2878 c -6.98833,-7.1281 -15.79364,-11.4608 -29.07148,-11.4608 -18.16967,0 -27.6738,15.514 -27.6738,40.113 0,23.341 11.88017,36.6189 34.10307,36.6189 8.80529,0 18.16968,-3.9135 22.78198,-8.386 l 4.19299,5.5906 c -7.82693,6.8486 -23.34104,13.2779 -36.33934,13.2779 -42.76859,0 -56.88503,-24.599 -56.88503,-47.381 0,-27.2545 22.6422,-47.6604 57.8634,-47.6604 15.79364,0 26.69544,3.3544 36.89841,8.386 z m -178.76158,-2.6556 h 1.95672 c 8.38601,-10.4825 19.42757,-16.772 33.12471,-16.772 21.80359,0 33.9633,10.203 33.9633,34.1031 0,12.579 -0.4193,47.5206 0,58.5623 h -31.4475 v -53.6705 c 0,-15.7936 -4.33276,-24.1796 -16.772,-24.1796 -14.39598,0 -18.58897,11.4609 -18.58897,28.9317 v 48.9184 h -31.4475 v -90.1496 h 30.04984 z"
   id="path8131"
   style="stroke-width:13.9767" />
<path
   class="st1"
   d="m 0.58323,1479.6047 h 379.04724 v 7.6872 H 0.58323 Z m 0,24.599 h 379.04724 v 23.2013 H 0.58323 Z m 0,-432.0188 h 379.04724 v 7.6872 H 0.58323 Z m 0,-39.9732 h 379.04724 v 23.2012 H 0.58323 Z m 1000.17037,405.0438 v -7.2679 c -23.9001,0 -33.40424,-5.5906 -33.40424,-31.0282 v -158.775 c 0,-25.4375 9.50414,-31.0282 33.40424,-31.0282 v -7.2678 H 857.49274 v 7.2678 c 24.3194,0 33.82354,5.5907 33.82354,31.0282 v 158.6352 c 0,25.4375 -9.50414,31.0283 -33.82354,31.0283 v 7.2678 H 1000.7536 Z M 433.02133,1319.5719 c 0,-77.291 23.9001,-107.0613 58.42248,-107.0613 34.52237,0 58.42248,29.7703 58.42248,107.0613 0,77.4307 -23.90011,107.0613 -58.42248,107.0613 -34.52238,0 -58.42248,-29.6306 -58.42248,-107.0613 m -78.12956,0 c 0,80.3658 58.42247,121.5971 136.55204,121.5971 78.12958,0 136.55205,-41.371 136.55205,-121.5971 0,-80.3658 -58.42247,-121.597 -136.55205,-121.597 -78.12957,0 -136.55204,41.2312 -136.55204,121.597 m 665.14963,119.0813 h 7.6871 c 2.0965,-6.0101 8.8053,-11.3211 16.4925,-11.3211 7.4077,0 46.123,13.8369 77.7103,13.8369 55.6271,0 97.1378,-22.5025 97.1378,-77.7103 0,-90.2893 -140.0462,-73.098 -140.0462,-121.3175 0,-20.1265 17.6106,-29.7703 40.113,-29.7703 40.8119,0 72.3992,22.0832 81.6238,59.5405 h 7.6872 v -70.1628 h -7.6872 c -0.6988,10.6223 -4.193,13.837 -11.6006,13.837 -13.4176,0 -31.0283,-17.8902 -73.9366,-17.8902 -46.4026,0 -94.6221,22.7819 -94.6221,71.7003 0,86.6554 142.8416,71.4208 142.8416,126.6286 0,20.5457 -22.2229,30.4691 -48.499,30.4691 -42.2096,0 -79.108,-25.4375 -87.2145,-68.7652 h -7.6871 z m 314.6148,-89.311 h -55.9067 l 28.093,-69.4641 z m -50.7354,87.9133 v -7.2679 c -21.524,0 -27.3942,-6.2895 -27.3942,-14.8153 0,-6.2895 1.817,-11.1813 4.6123,-18.589 l 12.7188,-34.103 h 66.5288 l 16.4926,39.2744 c 1.817,4.6123 3.9133,10.6223 3.9133,15.7937 0,7.9667 -6.2894,12.2995 -14.3958,12.2995 h -15.7936 v 7.2678 h 126.6286 v -7.2678 c -11.6006,-0.9784 -14.3961,-2.6557 -20.8253,-17.1914 l -89.0313,-210.9079 h -24.5991 l -80.6453,196.6517 c -10.203,24.7387 -16.2129,30.0499 -30.6089,31.4476 v 7.2678 h 72.3991 z m -509.3097,0 v -7.2679 c -24.3194,0 -33.82354,-5.5906 -33.82354,-31.0282 v -74.0764 c 38.01654,0 53.53065,5.5907 55.62715,45.005 h 7.68716 v -104.4058 h -7.68716 c -2.0965,39.2745 -17.61061,45.0049 -55.62715,45.0049 v -93.9233 h 40.81188 c 36.61886,0 55.62713,15.2346 59.12131,50.3161 h 7.68716 v -64.8518 H 631.07072 v 7.2679 c 24.31941,0 33.82354,5.5907 33.82354,31.0283 v 158.6351 c 0,25.4376 -9.50413,31.0282 -33.82354,31.0282 v 7.2679 z M 66.273569,1331.7316 c 11.600635,58.702 62.056401,93.0847 119.500511,93.0847 35.6405,0 67.36754,-13.4177 67.36754,-42.9084 0,-19.5674 -12.71877,-32.7054 -31.02819,-43.3277 -9.08484,-5.1713 -19.70712,-9.9235 -31.16798,-14.396 -11.32111,-4.4725 -23.34104,-8.945 -35.50074,-13.5573 -48.49904,-18.8686 -95.600407,-42.7687 -95.600407,-100.073 0,-64.712 63.873367,-95.4607 126.488837,-95.4607 28.79195,0 49.05812,6.01 64.43244,12.0201 7.68717,3.0748 14.25621,6.0099 19.84687,8.2461 5.73044,2.2363 10.9018,3.9135 15.65388,3.9135 10.76204,0 16.07317,-5.0316 17.33106,-18.7288 h 7.26787 v 91.5472 h -7.5474 c -12.9983,-50.7352 -56.32597,-80.5055 -111.81334,-80.5055 -30.74868,0 -55.90667,13.138 -55.90667,41.9299 0,17.3311 12.57899,28.5124 30.46913,37.5972 17.89014,8.9452 41.5107,15.9335 65.4108,24.8786 47.3809,17.6105 93.64369,42.0697 93.64369,101.8899 0,73.3774 -54.92832,103.567 -129.84326,103.567 -21.24453,0 -44.8651,-4.6122 -64.5722,-9.3643 -9.78367,-2.3761 -18.58897,-4.752 -25.71707,-6.4293 -6.848568,-1.6772 -12.299468,-2.9351 -15.094801,-2.9351 -10.762035,0 -19.986635,6.9883 -23.480803,15.2346 h -7.547401 v -105.8034 h 7.407634 z"
   id="path8133"
   style="stroke-width:13.9767" />
<path
   class="st2"
   d="m 2315.5388,1332.5702 c 0,-37.737 30.6088,-68.3459 68.3458,-68.3459 37.737,0 68.346,30.6089 68.346,68.3459 0,37.737 -30.609,68.3459 -68.346,68.3459 -37.737,0 -68.3458,-30.6089 -68.3458,-68.3459"
   id="path8135"
   style="stroke-width:13.9767" />
<path
   class="st0"
   d="m 2268.8566,1332.5702 c 0,-63.5939 51.5739,-115.1677 115.1678,-115.1677 63.5939,0 115.1677,51.5738 115.1677,115.1677 0,63.5939 -51.5738,115.1678 -115.1677,115.1678 -63.7336,0 -115.1678,-51.5739 -115.1678,-115.1678 m 25.158,0 c 0,-49.6171 40.2528,-89.87 89.87,-89.87 49.6172,0 89.8699,40.2529 89.8699,89.87 0,49.6172 -40.2527,89.87 -89.8699,89.87 -49.6172,0 -89.87,-40.2528 -89.87,-89.87"
   id="path8137"
   style="stroke-width:13.9767" />
<path
   class="st3"
   d="m 1612.6521,1442.5667 c -67.088,0 -113.6304,-48.3593 -113.6304,-114.469 0,-62.3359 33.5441,-112.7917 100.2128,-112.7917 16.4925,0 33.9632,3.9135 48.7786,11.7404 v -109.018 h 39.1345 v 284.0059 c 0,8.2462 2.2364,26.1363 2.2364,26.1363 -22.6423,8.6656 -52.2727,14.3961 -76.7319,14.3961 m 35.361,-48.3593 v -132.3591 c -11.3211,-7.827 -27.8136,-12.579 -41.371,-12.579 -44.865,0 -64.0132,37.8767 -64.0132,77.9898 0,43.1879 22.6422,81.484 69.604,81.484 10.9017,0 25.7169,-2.6556 36.1995,-6.569 0,-0.1398 -0.4193,-3.2147 -0.4193,-7.9667"
   id="path8139"
   style="stroke-width:13.9767" />
<path
   class="st3"
   d="m 1756.0527,1169.4625 c -13.9767,0 -24.8785,-9.5041 -24.8785,-23.9001 0,-13.9766 10.9018,-24.3194 24.8785,-24.3194 13.9766,0 25.7172,10.4825 25.7172,24.3194 0,14.2562 -11.7406,23.9001 -25.7172,23.9001 m -18.589,50.4558 h 39.1347 v 217.7565 h -39.1347 z"
   id="path8141"
   style="stroke-width:13.9767" />
<path
   class="st3"
   d="m 1931.8791,1253.4623 c -8.2462,-1.6772 -17.0515,-2.6556 -25.2977,-2.6556 -14.3959,0 -28.792,2.6556 -42.2094,7.4077 0,0 0.4191,6.0099 0.4191,9.0848 v 170.2358 h -39.1346 v -169.2574 c 0,-9.9235 -3.4941,-30.4692 -3.4941,-30.4692 28.2328,-12.1597 58.2827,-22.6421 89.7301,-22.6421 10.9018,0 21.3844,1.2578 31.727,3.9134 z"
   id="path8143"
   style="stroke-width:13.9767" />
<path
   class="st3"
   d="m 2123.08,1342.3539 h -145.0778 c 2.2363,38.7154 26.1364,66.2494 67.9267,66.2494 17.89,0 35.6404,-3.4941 51.8533,-10.0632 l 12.1597,29.6305 c -20.965,9.6439 -44.4458,14.3961 -67.5072,14.3961 -66.6687,0 -107.2012,-49.198 -107.2012,-114.0497 0,-59.6804 30.8885,-113.211 95.88,-113.211 60.9383,0 94.063,45.2844 94.063,103.1478 0.1398,7.2678 -0.8386,15.6538 -2.0965,23.9001 m -91.4075,-93.6437 c -33.9633,0 -52.6919,27.8136 -53.5306,61.7769 h 105.8035 c -0.4193,-32.1464 -16.6323,-61.7769 -52.2729,-61.7769"
   id="path8145"
   style="stroke-width:13.9767" />
<path
   class="st3"
   d="m 2221.1961,1443.8245 c -37.4574,0 -60.5189,-17.4708 -60.5189,-56.1862 v -133.7567 l -24.7387,-1.258 v -30.8883 l 24.7387,-1.258 v -60.0996 h 39.2744 v 59.6804 h 63.1746 v 33.9632 h -63.1746 v 131.9398 c 0,17.8901 11.3212,23.0615 25.2978,23.0615 13.5574,0 29.2113,-4.7521 38.7154,-8.2462 l 10.4825,32.286 c -16.6323,5.4509 -35.361,10.7621 -53.2512,10.7621"
   id="path8147"
   style="stroke-width:13.9767" />
</svg>
