<?xml version="1.0" encoding="UTF-8" standalone="no"?>
<svg
   enable-background="new 0 0 178.76 35.44"
   version="1.1"
   viewBox="0 0 2500.0001 2500.0001"
   xml:space="preserve"
   id="svg8149"
   sodipodi:docname="logo-banco-sofisa.svg"
   width="2500"
   height="2500"
   inkscape:version="1.2.2 (732a01da63, 2022-12-09)"
   xmlns:inkscape="http://www.inkscape.org/namespaces/inkscape"
   xmlns:sodipodi="http://sodipodi.sourceforge.net/DTD/sodipodi-0.dtd"
   xmlns="http://www.w3.org/2000/svg"
   xmlns:svg="http://www.w3.org/2000/svg"><defs
   id="defs8153" /><sodipodi:namedview
   id="namedview8151"
   pagecolor="#505050"
   bordercolor="#eeeeee"
   borderopacity="1"
   inkscape:showpageshadow="0"
   inkscape:pageopacity="0"
   inkscape:pagecheckerboard="0"
   inkscape:deskcolor="#505050"
   showgrid="false"
   inkscape:zoom="0.21432368"
   inkscape:cx="181.96776"
   inkscape:cy="1917.6602"
   inkscape:window-width="1920"
   inkscape:window-height="1009"
   inkscape:window-x="-8"
   inkscape:window-y="-8"
   inkscape:window-maximized="1"
   inkscape:current-layer="svg8149" />
<style
   type="text/css"
   id="style8129">
	.st0{fill-rule:evenodd;clip-rule:evenodd;fill:#F8B124;}
	.st1{fill-rule:evenodd;clip-rule:evenodd;fill:#00A992;}
	.st2{fill:#00A992;}
	.st3{fill:#F8B124;}
</style>
<path
   class="st0"
   d="m 789.52466,1144.8654 h -17.98665 l 0.47967,92.8112 h 22.78307 c 23.50253,0 43.64755,-16.7875 43.64755,-46.0459 -0.23983,-31.1766 -17.507,-46.7653 -48.92364,-46.7653 M 714.70024,1031.19 h 98.32694 c 45.80596,0 75.54389,14.869 75.54389,48.9238 0,34.2945 -37.1724,48.9236 -60.91476,53.0005 l 0.23983,3.1177 c 23.2627,0.9593 67.15009,15.1089 67.15009,53.2405 0,45.3262 -41.96879,63.5528 -87.29513,63.5528 h -93.05086 z m 78.18191,15.3486 h -20.38487 l -1.19909,82.7385 h 18.94592 c 22.54325,0 45.32632,-14.1494 45.32632,-43.1679 0,-21.3441 -11.27161,-39.5706 -42.68828,-39.5706 m 233.10675,120.6305 -2.3982,1.199 c -5.276,2.6379 -11.2716,4.3169 -16.7876,6.2354 -5.7556,1.9186 -11.51134,3.5974 -16.54762,6.2355 -10.31232,5.276 -17.98661,13.6698 -17.98661,30.697 0,16.5478 8.8734,26.3803 23.50253,26.3803 17.9866,0 30.2175,-11.991 30.2175,-33.8148 z m -95.92868,-55.6387 c 21.58397,-12.4708 51.32187,-17.2672 74.58468,-17.2672 40.0502,0 68.3491,14.3893 68.3491,51.5616 v 107.4402 h -46.5254 c 0.2397,-3.3574 0.4796,-11.0318 0,-17.9866 l -0.2399,-4.0768 -2.638,3.1176 c -11.7512,13.4301 -25.66089,23.2626 -48.44398,23.2626 -37.65203,0 -53.00062,-21.344 -53.00062,-41.2492 0,-27.1 20.86451,-38.8511 55.15904,-46.0459 42.20856,-8.6336 47.96426,-11.5113 47.96426,-24.7016 0,-16.7876 -14.8688,-29.9777 -38.3714,-29.9777 -27.09988,0 -45.08651,9.1132 -50.60242,12.4707 z m 664.30638,-5.9956 c -24.9414,0 -39.5706,25.1814 -39.5706,74.3448 0,36.2129 9.1133,65.951 39.0909,65.951 25.4213,0 38.3716,-28.0593 38.3716,-78.182 0.2398,-37.4122 -11.0318,-62.1138 -37.8919,-62.1138 m -0.7195,-11.2716 c 58.0368,0 91.8518,30.4574 91.8518,78.182 0,52.2809 -37.6519,84.8969 -91.8518,84.8969 -45.0865,0 -91.8517,-21.3443 -91.8517,-77.7024 0,-57.3174 44.3671,-85.3765 91.8517,-85.3765 m -113.9153,33.0953 c -11.991,-12.2308 -27.0999,-19.6652 -49.8829,-19.6652 -31.1769,0 -47.4848,26.6201 -47.4848,68.8288 0,40.0502 20.3849,62.8333 58.5166,62.8333 15.1088,0 31.1768,-6.715 39.0909,-14.3892 l 7.1946,9.5927 c -13.43,11.7513 -40.0501,22.7832 -62.3535,22.7832 -73.3855,0 -97.6076,-42.2088 -97.6076,-81.2997 0,-46.7653 38.8512,-81.7792 99.2863,-81.7792 27.0998,0 45.8058,5.7557 63.313,14.3893 z m -306.732,-4.5566 h 3.3574 c 14.3893,-17.9866 33.3353,-28.7785 56.8378,-28.7785 37.4122,0 58.2768,17.507 58.2768,58.5165 0,21.584 -0.7195,81.5393 0,100.4854 h -53.9601 v -92.0916 c 0,-27.0999 -7.4343,-41.4892 -28.7785,-41.4892 -24.7017,0 -31.8964,19.6655 -31.8964,49.643 v 83.9378 h -53.9598 v -154.6852 h 51.5617 z"
   id="path8131"
   style="stroke-width:23.9822" />
<path
   class="st1"
   d="M 0.03127077,1799.0994 H 650.42801 v 13.1902 H 0.03127077 Z m 0,42.2087 H 650.42801 v 39.8104 H 0.03127077 Z m 0,-741.2892 H 650.42801 v 13.1902 H 0.03127077 Z m 0,-68.5889 H 650.42801 v 39.8104 H 0.03127077 Z M 1716.1962,1726.4335 v -12.4708 c -41.0096,0 -57.3176,-9.5928 -57.3176,-53.2405 v -272.4376 c 0,-43.6474 16.308,-53.2404 57.3176,-53.2404 v -12.4706 h -245.8174 v 12.4706 c 41.729,0 58.0368,9.593 58.0368,53.2404 v 272.1979 c 0,43.6474 -16.3078,53.2406 -58.0368,53.2406 v 12.4705 h 245.8174 z M 742.03992,1524.5034 c 0,-132.6214 41.00953,-183.7034 100.24553,-183.7034 59.23599,0 100.24552,51.082 100.24552,183.7034 0,132.8613 -41.00953,183.7036 -100.24552,183.7036 -59.236,0 -100.24553,-50.8423 -100.24553,-183.7036 m -134.06037,0 c 0,137.8976 100.24552,208.6451 234.3059,208.6451 134.0604,0 234.30585,-70.9873 234.30585,-208.6451 0,-137.8974 -100.24545,-208.6449 -234.30585,-208.6449 -134.06038,0 -234.3059,70.7475 -234.3059,208.6449 m 1141.31205,204.3284 h 13.19 c 3.5973,-10.3125 15.1088,-19.4255 28.299,-19.4255 12.7107,0 79.1412,23.7422 133.3409,23.7422 95.4491,0 166.6761,-38.6113 166.6761,-133.3409 0,-154.9249 -240.3013,-125.4268 -240.3013,-208.1654 0,-34.5344 30.2175,-51.082 68.8287,-51.082 70.0281,0 124.2279,37.892 140.0561,102.164 h 13.1903 v -120.3904 h -13.1903 c -1.199,18.2264 -7.1946,23.7424 -19.9052,23.7424 -23.0228,0 -53.2406,-30.6973 -126.8658,-30.6973 -79.6209,0 -162.3594,39.0909 -162.3594,123.0286 0,148.6897 245.0979,122.549 245.0979,217.2785 0,35.2538 -38.1316,52.2812 -83.218,52.2812 -72.4263,0 -135.7392,-43.6476 -149.649,-117.9923 h -13.19 z m 539.8388,-153.2463 h -95.9288 l 48.204,-119.1915 z m -87.0554,150.848 v -12.4708 c -36.9326,0 -47.005,-10.7919 -47.005,-25.4211 0,-10.7919 3.1177,-19.1858 7.9141,-31.8964 l 21.8239,-58.5164 h 114.1548 l 28.2993,67.3899 c 3.1176,7.9142 6.7147,18.2265 6.7147,27.0999 0,13.6699 -10.7919,21.1045 -24.7013,21.1045 h -27.0999 v 12.4705 h 217.2786 v -12.4705 c -19.9052,-1.6789 -24.7019,-4.5569 -35.7336,-29.4984 l -152.7663,-361.8909 h -42.209 l -138.3771,337.4292 c -17.5069,42.4484 -27.8192,51.5618 -52.5209,53.9601 v 12.4705 h 124.2277 z m -873.9106,0 v -12.4708 c -41.729,0 -58.0368,-9.5928 -58.0368,-53.2405 v -127.1056 c 65.2315,0 91.8517,9.593 95.449,77.223 h 13.1904 v -179.1472 h -13.1904 c -3.5973,67.39 -30.2175,77.2227 -95.449,77.2227 v -161.1604 h 70.0279 c 62.8333,0 95.4491,26.1406 101.4447,86.3361 h 13.1901 v -111.2775 h -372.9229 v 12.4708 c 41.729,0 58.037,9.5929 58.037,53.2406 v 272.1975 c 0,43.6477 -16.308,53.2405 -58.037,53.2405 v 12.4708 z M 112.74751,1545.368 c 19.90522,100.7252 106.48087,159.7214 205.04764,159.7214 61.15455,0 115.59412,-23.0231 115.59412,-73.6252 0,-33.5752 -21.82379,-56.1185 -53.24042,-74.3449 -15.58843,-8.8734 -33.8149,-17.0275 -53.48028,-24.7017 -19.42557,-7.6743 -40.05024,-15.3485 -60.91474,-23.2625 -83.21817,-32.3762 -164.03811,-73.3858 -164.03811,-171.7125 0,-111.0376 109.59855,-163.7985 217.03872,-163.7985 49.40332,0 84.17747,10.3124 110.55785,20.6249 13.1902,5.276 24.46184,10.3123 34.0547,14.1493 9.8327,3.8371 18.7061,6.715 26.86007,6.715 18.46628,0 27.5795,-8.6334 29.73788,-32.1362 h 12.47073 v 157.0834 H 519.4853 c -22.30342,-87.0552 -96.64818,-138.1372 -191.85743,-138.1372 -52.76082,0 -95.92873,22.5431 -95.92873,71.9464 0,29.738 21.58396,48.9236 52.28115,64.5121 30.6972,15.3486 71.22707,27.3397 112.2366,42.6884 81.29957,30.2172 160.68063,72.1863 160.68063,174.8301 0,125.9062 -94.25,177.7077 -222.79448,177.7077 -36.4529,0 -76.9828,-7.914 -110.79768,-16.0679 -16.78752,-4.0771 -31.89629,-8.1538 -44.12721,-11.0318 -11.75126,-2.8779 -21.10431,-5.0363 -25.90074,-5.0363 -18.46629,0 -34.29452,11.991 -40.29007,26.1405 h -12.95037 v -181.5451 h 12.71054 z"
   id="path8133"
   style="stroke-width:23.9822" />







</svg>
