<?xml version="1.0" encoding="UTF-8" standalone="no"?>
<svg
   width="2500"
   height="2500"
   viewBox="0 0 2500 2500.0001"
   version="1.1"
   id="svg9755"
   sodipodi:docname="logo-banco-topazio.svg"
   inkscape:version="1.2.2 (732a01da63, 2022-12-09)"
   xmlns:inkscape="http://www.inkscape.org/namespaces/inkscape"
   xmlns:sodipodi="http://sodipodi.sourceforge.net/DTD/sodipodi-0.dtd"
   xmlns="http://www.w3.org/2000/svg"
   xmlns:svg="http://www.w3.org/2000/svg">
  <defs
     id="defs9759" />
  <sodipodi:namedview
     id="namedview9757"
     pagecolor="#505050"
     bordercolor="#eeeeee"
     borderopacity="1"
     inkscape:showpageshadow="0"
     inkscape:pageopacity="0"
     inkscape:pagecheckerboard="0"
     inkscape:deskcolor="#505050"
     showgrid="false"
     inkscape:zoom="0.15050571"
     inkscape:cx="2033.1454"
     inkscape:cy="1029.8612"
     inkscape:window-width="1920"
     inkscape:window-height="1009"
     inkscape:window-x="-8"
     inkscape:window-y="-8"
     inkscape:window-maximized="1"
     inkscape:current-layer="svg9755" />
  <g
     id="Grupo_4320"
     data-name="Grupo 4320"
     transform="matrix(86.352022,0,0,86.352022,-60160.766,-43392.103)">
    <g
       id="Grupo_4140"
       data-name="Grupo 4140"
       transform="translate(696.706,510.9)">
      <path
         id="Caminho_5403"
         data-name="Caminho 5403"
         d="m 869.182,511.559 0.008,8.643 a 1.77,1.77 0 0 0 2.5,1.683 c 2.137,-0.591 9.769,-4.029 10.41,-4.342 1.021,-0.524 1.435,-2.28 -0.464,-3.124 -4.008,-1.844 -10.159,-4.252 -10.159,-4.252 0,0 -2.167,-0.689 -2.295,1.392 z"
         transform="translate(-869.182,-510.005)"
         fill="#50c3c7" />
      <path
         id="Caminho_5404"
         data-name="Caminho 5404"
         d="m 911.058,511.417 0.008,8.643 a 1.771,1.771 0 0 0 2.5,1.683 c 2.137,-0.591 9.769,-4.029 10.41,-4.342 1.021,-0.524 1.436,-2.28 -0.464,-3.124 -4.008,-1.845 -10.159,-4.253 -10.159,-4.253 0,0 -2.167,-0.688 -2.295,1.393 z"
         transform="translate(-895.907,-509.915)"
         fill="#50c3c7" />
    </g>
    <g
       id="Grupo_4141"
       data-name="Grupo 4141"
       transform="translate(615.59,510.892)" />
  </g>
</svg>
