<?xml version="1.0" encoding="UTF-8" standalone="no"?>
<svg
   width="2500"
   height="2500"
   viewBox="0 0 2500 2500.0001"
   version="1.1"
   id="svg9755"
   sodipodi:docname="logo-banco-topazio-nome.svg"
   inkscape:version="1.2.2 (732a01da63, 2022-12-09)"
   xmlns:inkscape="http://www.inkscape.org/namespaces/inkscape"
   xmlns:sodipodi="http://sodipodi.sourceforge.net/DTD/sodipodi-0.dtd"
   xmlns="http://www.w3.org/2000/svg"
   xmlns:svg="http://www.w3.org/2000/svg">
  <defs
     id="defs9759" />
  <sodipodi:namedview
     id="namedview9757"
     pagecolor="#505050"
     bordercolor="#eeeeee"
     borderopacity="1"
     inkscape:showpageshadow="0"
     inkscape:pageopacity="0"
     inkscape:pagecheckerboard="0"
     inkscape:deskcolor="#505050"
     showgrid="false"
     inkscape:zoom="0.15050571"
     inkscape:cx="3056.3624"
     inkscape:cy="518.25275"
     inkscape:window-width="1920"
     inkscape:window-height="1009"
     inkscape:window-x="-8"
     inkscape:window-y="-8"
     inkscape:window-maximized="1"
     inkscape:current-layer="svg9755" />
  <g
     id="Grupo_4320"
     data-name="Grupo 4320"
     transform="matrix(13.887572,0,0,13.887572,-8324.7897,-6231.9553)">
    <g
       id="Grupo_4140"
       data-name="Grupo 4140"
       transform="translate(696.706,510.9)">
      <path
         id="Caminho_5403"
         data-name="Caminho 5403"
         d="m 869.182,511.559 0.008,8.643 a 1.77,1.77 0 0 0 2.5,1.683 c 2.137,-0.591 9.769,-4.029 10.41,-4.342 1.021,-0.524 1.435,-2.28 -0.464,-3.124 -4.008,-1.844 -10.159,-4.252 -10.159,-4.252 0,0 -2.167,-0.689 -2.295,1.392 z"
         transform="translate(-869.182,-510.005)"
         fill="#50c3c7" />
      <path
         id="Caminho_5404"
         data-name="Caminho 5404"
         d="m 911.058,511.417 0.008,8.643 a 1.771,1.771 0 0 0 2.5,1.683 c 2.137,-0.591 9.769,-4.029 10.41,-4.342 1.021,-0.524 1.436,-2.28 -0.464,-3.124 -4.008,-1.845 -10.159,-4.253 -10.159,-4.253 0,0 -2.167,-0.688 -2.295,1.393 z"
         transform="translate(-895.907,-509.915)"
         fill="#50c3c7" />
    </g>
    <path
       id="Caminho_5405"
       data-name="Caminho 5405"
       d="m 600.364,532.509 c 0.043,-1.154 0.661,-1.1 1.426,-1.112 0.038,0 1.551,0.019 1.723,0 1.551,-0.173 1.606,-1.538 1.613,-2.912 0.015,-2.425 0,-4.85 0.006,-7.275 0,-1.509 0.344,-1.852 1.823,-1.855 0.469,0 0.939,-0.009 1.408,0 0.894,0.027 1.3,0.674 1.317,1.577 0.038,2.294 0.037,6.444 0.037,8.738 0,1.154 0.841,1.743 2.077,1.715 1.486,-0.033 3.659,0 5.145,0.013 1.077,0.009 1.465,0.394 1.484,1.452 0.01,0.547 0.012,1.1 0,1.643 -0.025,0.994 -0.462,1.406 -1.449,1.418 h -5.514 c -0.842,0 -1.636,0.152 -1.731,1.883 -0.073,1.324 0,12.165 0,15.5 a 3.919,3.919 0 0 0 4.149,3.961 c 1.534,-0.073 2.771,-0.249 3.666,-2.058 a 1.349,1.349 0 0 1 1.3,-0.822 c 0.6,0 2.142,0.033 2.142,0.009 1.038,0.057 1.254,0.832 0.978,1.832 a 6.958,6.958 0 0 1 -5.321,4.966 c -2.52,0.605 -5.761,0.311 -7.275,-0.7 -2.451,-1.353 -4.158,-3.29 -4.229,-6.282 0,0 0.039,-10.908 0,-15.885 -0.014,-1.751 -0.322,-2.287 -1.471,-2.4 -0.034,0 -2.09,-0.1 -2.138,-0.05 -0.739,-0.008 -1.155,-0.237 -1.165,-1.144 z"
       transform="translate(-0.921,-5.037)"
       fill="#ffffff" />
    <path
       id="Caminho_5406"
       data-name="Caminho 5406"
       d="m 758.766,577.439 c 0,-5.5 -0.046,-11.005 0.015,-16.507 a 9.147,9.147 0 0 1 6.563,-8.915 c 4.149,-1.326 8.126,-0.973 11.674,1.761 a 8.239,8.239 0 0 1 3.322,6.456 c 0.125,4.351 0.111,8.709 0.009,13.061 a 8.382,8.382 0 0 1 -7.167,8.167 62.016,62.016 0 0 1 -6.589,0.459 c -2.213,0.179 -3.251,1.213 -3.273,3.438 -0.027,2.842 -0.006,5.877 -0.01,8.72 0,1.5 -0.335,1.821 -1.848,1.824 -0.417,0 -0.835,0.006 -1.252,0 -1.04,-0.023 -1.43,-0.383 -1.447,-1.407 -0.023,-1.408 -0.011,-2.816 -0.011,-4.224 q 0,-6.415 0,-12.83 z m 17.08,-10.691 h -0.01 c 0,-1.876 0.037,-3.753 -0.01,-5.629 a 4.739,4.739 0 0 0 -2.536,-4.279 7.465,7.465 0 0 0 -6.609,-0.381 4.924,4.924 0 0 0 -3.359,4.859 q -0.06,5.433 0,10.866 a 5.136,5.136 0 0 0 3.213,4.734 c 1.346,0.673 5.289,0.577 6.635,-0.385 0.385,-0.1 2.808,-1.468 2.686,-5.019 -0.056,-1.585 -0.01,-3.175 -0.01,-4.765 z"
       transform="translate(-101.999,-25.407)"
       fill="#ffffff" />
    <path
       id="Caminho_5407"
       data-name="Caminho 5407"
       d="m 860.649,567.038 c 0,1.8 0,3.6 0,5.4 a 8.9,8.9 0 0 1 -7.34,9.239 14.246,14.246 0 0 1 -10.3,-1.183 c -3.164,-1.7 -4.313,-4.81 -4.032,-8.077 a 7.837,7.837 0 0 1 2.242,-5.258 7.466,7.466 0 0 1 4.9,-2.111 c 2.445,-0.118 4.9,-0.1 7.347,-0.131 a 2.282,2.282 0 0 0 2.269,-1.058 2.816,2.816 0 0 0 0.27,-0.959 c 0.463,-3.648 -1.215,-6.2 -4.952,-6.788 a 6.707,6.707 0 0 0 -5.534,1.261 8.888,8.888 0 0 0 -2.066,3.2 1.166,1.166 0 0 1 -1.341,0.829 c -0.013,0 -1.31,0.012 -1.727,0 -1.171,-0.034 -1.422,-0.859 -1.217,-2.008 0.843,-4.72 4.77,-7.391 9.08,-7.862 a 12.352,12.352 0 0 1 7.267,1.226 9.123,9.123 0 0 1 5.107,8.178 c 0.091,2.03 0.016,4.067 0.016,6.1 z m -10.223,2.53 v 0.005 c -1.121,0 -2.243,-0.029 -3.363,0.008 a 3.48,3.48 0 0 0 -2.748,1.063 4.245,4.245 0 0 0 0.846,5.814 8.684,8.684 0 0 0 5.8,1.025 c 2.98,-0.339 4.85,-1.772 5.11,-4.685 0.178,-1.992 -0.777,-3.231 -2.754,-3.231 z"
       transform="translate(-153.175,-25.514)"
       fill="#ffffff" />
    <path
       id="Caminho_5408"
       data-name="Caminho 5408"
       d="m 695.6,572.963 a 9.185,9.185 0 0 1 -7.255,8.6 12.351,12.351 0 0 1 -9.928,-1.254 8.84,8.84 0 0 1 -4.392,-7.646 c -0.125,-3.96 -0.083,-7.928 -0.018,-11.891 a 9.366,9.366 0 0 1 7.432,-8.98 12.053,12.053 0 0 1 10.544,1.788 c 2.648,1.936 3.668,4.7 3.724,7.883 0.035,1.726 -0.017,9.959 -0.107,11.5 z m -4.488,-11.212 a 5.167,5.167 0 0 0 -1.758,-4.318 7.212,7.212 0 0 0 -5.566,-1.433 5.437,5.437 0 0 0 -5.236,5.6 c -0.044,3.413 -0.034,6.826 0,10.239 a 5.016,5.016 0 0 0 1.572,3.929 7.152,7.152 0 0 0 6.72,1.451 5.177,5.177 0 0 0 4.242,-5.072 c 0,-1.773 0.027,-8.702 0.031,-10.396 z"
       transform="translate(-47.882,-25.438)"
       fill="#ffffff" />
    <path
       id="Caminho_5409"
       data-name="Caminho 5409"
       d="m 1037.746,566.747 c 0,-1.825 -0.014,-3.651 0,-5.476 0.051,-5.581 3.96,-9.061 8.912,-9.741 a 12.342,12.342 0 0 1 8.062,1.412 8.879,8.879 0 0 1 4.683,7.8 c 0.122,4.063 0.084,8.135 -0.039,12.2 a 9.237,9.237 0 0 1 -7.349,8.7 12.442,12.442 0 0 1 -9.79,-1.255 9.052,9.052 0 0 1 -4.458,-7.775 c -0.092,-1.952 -0.017,-3.911 -0.017,-5.867 z m 17.1,0.126 h 0.029 c 0,-1.694 0,-3.387 0,-5.08 a 5.167,5.167 0 0 0 -1.757,-4.318 7.212,7.212 0 0 0 -5.571,-1.434 5.438,5.438 0 0 0 -5.237,5.6 c -0.044,3.412 -0.034,6.826 0,10.239 a 5.016,5.016 0 0 0 1.571,3.929 7.151,7.151 0 0 0 6.72,1.451 5.18,5.18 0 0 0 4.244,-5.072 c -0.01,-1.772 0,-3.543 0,-5.315 z"
       transform="translate(-280.036,-25.479)"
       fill="#ffffff" />
    <path
       id="Caminho_5410"
       data-name="Caminho 5410"
       d="m 929.468,552.645 c 2.659,0 5.318,-0.007 7.977,0 1.794,0.005 2.434,0.8 2.619,2.562 0.269,2.558 -0.826,3.733 -1.973,5.192 -2.033,2.449 -11.255,13.385 -11.737,14.241 -1.008,1.789 -0.407,3.428 1.99,3.323 3.206,0.038 10.167,-0.03 10.424,0 0.9,0.106 1.231,0.6 1.257,1.494 0.018,0.6 0.024,1.2 -0.005,1.8 a 1.178,1.178 0 0 1 -1.281,1.267 c -0.833,0.031 -1.668,0.012 -2.5,0.012 q -6.726,0 -13.451,0 c -2.1,0 -2.7,-0.718 -2.84,-2.811 a 10.121,10.121 0 0 1 2.334,-7.014 c 2.156,-2.72 9.147,-11.074 9.729,-11.809 0.582,-0.735 1.374,-1.721 0.95,-2.659 -0.424,-0.938 -1.09,-1.075 -2.051,-1.08 -2.737,-0.013 -9.253,0.006 -9.253,0.006 -0.968,-0.023 -1.637,-0.254 -1.706,-1.2 -0.021,-0.625 -0.017,-1.382 0,-2.006 0.023,-0.922 0.436,-1.309 1.464,-1.314 2.685,-0.01 5.368,-0.003 8.053,-0.004 z"
       transform="translate(-204.859,-26.283)"
       fill="#ffffff" />
    <path
       id="Caminho_5411"
       data-name="Caminho 5411"
       d="m 1004.283,567.6 c 0,4.352 0,8.992 0,13.345 -0.044,1.135 -0.382,1.57 -1.517,1.591 -0.365,0 -1.067,0 -1.432,0 -1.187,-0.018 -1.6,-0.412 -1.605,-1.6 -0.012,-2.45 0,-4.9 0,-7.35 0,-6.359 0,-13.31 0,-19.67 0,-1.015 0.5,-1.267 1.591,-1.267 0.469,0 1.23,-0.01 1.7,0.009 a 1.128,1.128 0 0 1 1.25,1.264 c 0.026,1.824 0.017,3.648 0.018,5.472 q 0,4.1 0,8.206 z"
       transform="translate(-255.784,-26.281)"
       fill="#ffffff" />
    <g
       id="Grupo_4141"
       data-name="Grupo 4141"
       transform="translate(615.59,510.892)">
      <path
         id="Caminho_5412"
         data-name="Caminho 5412"
         d="m 644.992,510.349 h 3.976 a 3.5,3.5 0 0 1 2.5,0.852 2.075,2.075 0 0 1 0.619,1.513 v 0.027 a 2.379,2.379 0 0 1 -1.637,2.284 c 1.156,0.3 2.173,0.963 2.173,2.3 v 0.028 c 0,1.609 -1.376,2.628 -3.453,2.628 h -4.182 z m 3.893,4.443 c 1.444,0 2.476,-0.7 2.476,-1.981 v -0.028 c 0,-1.059 -0.866,-1.775 -2.407,-1.775 h -3.247 v 3.783 z m 0.316,4.526 c 1.651,0 2.7,-0.757 2.7,-1.967 v -0.028 c 0,-1.183 -1.032,-1.871 -2.93,-1.871 h -3.26 v 3.866 z"
         transform="translate(-644.992,-510.184)"
         fill="#ffffff" />
      <path
         id="Caminho_5413"
         data-name="Caminho 5413"
         d="m 679.971,510.158 h 0.688 l 4.484,9.7 h -0.784 l -1.224,-2.7 h -5.681 l -1.225,2.7 h -0.743 z m 2.861,6.355 -2.531,-5.571 -2.545,5.571 z"
         transform="translate(-664.453,-510.062)"
         fill="#ffffff" />
      <path
         id="Caminho_5414"
         data-name="Caminho 5414"
         d="m 713.129,510.349 h 0.674 l 6.644,8.377 v -8.377 h 0.688 v 9.629 H 720.6 l -6.782,-8.556 v 8.556 h -0.688 z"
         transform="translate(-688.476,-510.184)"
         fill="#ffffff" />
      <path
         id="Caminho_5415"
         data-name="Caminho 5415"
         d="m 747.311,514.9 v -0.027 a 4.84,4.84 0 0 1 4.815,-4.98 5.078,5.078 0 0 1 3.742,1.541 l -0.509,0.523 a 4.417,4.417 0 0 0 -3.246,-1.417 4.117,4.117 0 0 0 -4.058,4.305 v 0.028 a 4.152,4.152 0 0 0 4.072,4.333 4.41,4.41 0 0 0 3.315,-1.5 l 0.481,0.468 a 5.078,5.078 0 0 1 -3.824,1.678 4.786,4.786 0 0 1 -4.788,-4.952 z"
         transform="translate(-710.29,-509.892)"
         fill="#ffffff" />
      <path
         id="Caminho_5416"
         data-name="Caminho 5416"
         d="m 779.935,514.9 v -0.027 a 4.844,4.844 0 1 1 9.684,-0.028 c 0.014,0.014 0.014,0.014 0,0.028 a 4.844,4.844 0 1 1 -9.684,0.027 z m 8.941,0 v -0.027 a 4.167,4.167 0 0 0 -4.113,-4.333 4.121,4.121 0 0 0 -4.086,4.305 v 0.028 a 4.167,4.167 0 0 0 4.113,4.333 4.121,4.121 0 0 0 4.086,-4.306 z"
         transform="translate(-731.11,-509.892)"
         fill="#ffffff" />
    </g>
    <rect
       id="Retângulo_2360"
       data-name="Retângulo 2360"
       width="4.552"
       height="4.902"
       rx="2.276"
       transform="translate(743.844,518.178)"
       fill="#ffffff"
       x="0"
       y="0" />
  </g>
</svg>
