<?xml version="1.0" encoding="UTF-8" standalone="no"?>
<svg
   width="2500"
   height="2500"
   viewBox="0 0 2500 2500"
   fill="none"
   version="1.1"
   id="svg13"
   sodipodi:docname="bancoArbi.svg"
   inkscape:version="1.3.2 (091e20e, 2023-11-25, custom)"
   xmlns:inkscape="http://www.inkscape.org/namespaces/inkscape"
   xmlns:sodipodi="http://sodipodi.sourceforge.net/DTD/sodipodi-0.dtd"
   xmlns="http://www.w3.org/2000/svg"
   xmlns:svg="http://www.w3.org/2000/svg">
  <defs
     id="defs13" />
  <sodipodi:namedview
     id="namedview13"
     pagecolor="#ffffff"
     bordercolor="#000000"
     borderopacity="0.25"
     inkscape:showpageshadow="2"
     inkscape:pageopacity="0.0"
     inkscape:pagecheckerboard="0"
     inkscape:deskcolor="#d1d1d1"
     inkscape:zoom="0.2289823"
     inkscape:cx="34.937198"
     inkscape:cy="1325.4299"
     inkscape:window-width="2400"
     inkscape:window-height="1261"
     inkscape:window-x="4791"
     inkscape:window-y="-9"
     inkscape:window-maximized="1"
     inkscape:current-layer="svg13" />
  <path
     d="m 972.35805,1341.7861 c -27.45693,0 -48.50393,-6.4121 -60.5046,-14.2793 v -284.6302 h 32.68445 v 99.2733 c 10.13709,-5.2761 21.41133,-9.414 41.36756,-9.414 46.59394,0 78.55084,39.1087 78.55084,100.4093 0,65.0753 -31.9569,108.6862 -92.09825,108.6862 z m 5.2739,-189.4958 c -15.04667,0 -23.6845,2.6375 -33.09405,7.9125 v 155.2978 c 7.5007,3.7746 18.04738,4.9117 28.5477,4.9117 41.7307,0 58.2778,-34.9708 58.2778,-86.1299 0,-44.3838 -15.411,-81.9921 -53.73145,-81.9921 z"
     fill="#14625d"
     id="path1"
     style="stroke-width:11.0402" />
  <path
     d="m 1176.8233,1341.7917 c -52.6396,0 -77.0473,-22.9195 -77.0473,-59.8003 0,-53.7513 50.3631,-69.5774 113.1486,-75.9432 v -12.4147 c 0,-31.1962 -18.7793,-40.2458 -44.7348,-40.2458 -19.5411,0 -37.5918,7.1396 -48.8638,12.779 l -7.9158,-19.5544 c 11.6363,-6.4121 34.1914,-15.0533 62.0127,-15.0533 37.5918,0 70.6351,16.1893 70.6351,65.8028 v 130.1052 c -15.4121,8.6401 -39.0933,14.2794 -67.2789,14.2794 z m 36.1013,-118.8266 c -51.1381,6.4121 -81.5538,17.2801 -81.5538,58.2988 0,29.3315 18.0507,41.383 48.0911,41.383 12.7734,0 25.1826,-2.2743 33.4627,-6.7765 v -92.8601 z"
     fill="#14625d"
     id="path2"
     style="stroke-width:11.0402" />
  <path
     d="m 1411.394,1338.0082 v -145.5206 c 0,-18.7816 -7.9158,-39.4731 -42.4606,-39.4731 -18.7793,0 -27.8212,2.6375 -38.3204,7.1397 v 177.854 h -33.0985 v -192.1334 c 18.0507,-8.64 41.7319,-14.2794 74.0575,-14.2794 56.3712,0 72.9094,31.1963 72.9094,60.1646 v 146.2934 h -33.0874 z"
     fill="#14625d"
     id="path3"
     style="stroke-width:11.0402" />
  <path
     d="m 1567.0384,1341.7828 c -44.3704,0 -77.0494,-39.8363 -77.0494,-105.2758 0,-65.4385 32.679,-104.9116 77.8223,-104.9116 24.8183,0 38.3204,7.9136 44.7348,13.5519 l -7.9158,19.1911 c -5.9949,-4.5022 -15.0478,-9.7772 -30.0845,-9.7772 -36.8301,0 -51.1492,33.4694 -51.1492,80.855 0,47.3845 17.2779,81.9921 50.012,81.9921 13.9107,0 23.3169,-4.5022 30.8132,-9.7772 l 8.2801,20.6904 c -7.9158,7.1397 -22.9194,13.5519 -45.5076,13.5519 z"
     fill="#14625d"
     id="path4"
     style="stroke-width:11.0402" />
  <path
     d="m 1723.7869,1341.7828 c -55.234,0 -79.3237,-45.4756 -79.3237,-104.9115 0,-59.4359 24.4099,-105.2759 78.9152,-105.2759 54.5054,0 79.3237,44.7481 79.3237,105.2759 0,60.5278 -24.0455,104.9115 -78.9152,104.9115 z m 0,-189.1315 c -38.7289,0 -46.2363,43.2466 -46.2363,84.22 0,40.9734 8.2802,81.9921 46.2363,81.9921 37.9562,0 45.8609,-41.3377 45.8609,-81.9921 0,-40.6555 -7.1319,-84.22 -45.8609,-84.22 z"
     fill="#14625d"
     id="path5"
     style="stroke-width:11.0402" />
  <path
     d="m 2018.891,1341.7917 c -52.6396,0 -77.0495,-22.9195 -77.0495,-59.8003 0,-53.7513 50.3653,-69.5774 113.1508,-75.9432 v -12.4147 c 0,-31.1962 -18.7793,-40.2458 -44.7348,-40.2458 -19.5411,0 -37.5918,7.1396 -48.8638,12.779 l -7.9158,-19.5544 c 11.6363,-6.4121 34.2356,-15.0533 62.0127,-15.0533 37.5918,0 70.6792,16.1893 70.6792,65.8028 v 130.1052 c -15.401,8.6401 -39.0933,14.2794 -67.2788,14.2794 z m 36.1013,-118.8266 c -51.1491,6.4121 -81.5538,17.2801 -81.5538,58.2988 0,29.3315 18.0507,41.383 48.0911,41.383 12.7734,0 25.1826,-2.2743 33.4627,-6.7765 v -92.8601 z"
     fill="#14625d"
     id="path6"
     style="stroke-width:11.0402" />
  <path
     d="m 2218.8728,1157.1435 c -16.5492,-4.9106 -35.3286,-3.365 -46.2363,3.7747 v 177.1264 h -33.0874 v -191.769 c 19.9054,-10.1415 39.0933,-15.4165 87.1843,-14.2794 l -7.9048,25.1937 z"
     fill="#14625d"
     id="path7"
     style="stroke-width:11.0402" />
  <path
     d="m 2321.1049,1341.7861 c -27.457,0 -48.5106,-6.4121 -60.5113,-14.2793 v -284.6302 h 32.69 v 99.2733 c 10.1349,-5.2761 21.4069,-9.414 41.3676,-9.414 46.5895,0 78.5509,39.1087 78.5509,100.4093 0,65.0753 -31.9614,108.6862 -92.0972,108.6862 z m 5.2661,-189.4958 c -15.0477,0 -23.6812,2.6375 -33.0874,7.9125 v 155.2978 c 7.4963,3.7746 18.0397,4.9117 28.5499,4.9117 41.7209,0 58.2701,-34.9708 58.2701,-86.1299 0,-44.3838 -15.4121,-81.9921 -53.7326,-81.9921 z"
     fill="#14625d"
     id="path8"
     style="stroke-width:11.0402" />
  <path
     d="m 2477.478,1096.2128 c -10.9077,0 -19.5411,-8.2769 -19.5411,-18.054 0,-9.7772 8.6334,-18.4173 19.5411,-18.4173 10.9077,0 19.1878,8.2769 19.1878,18.4173 0,10.1415 -8.6444,18.054 -19.1878,18.054 z m -16.5492,241.7921 v -202.6834 h 33.0984 v 202.6834 z"
     fill="#14625d"
     id="path9"
     style="stroke-width:11.0402" />
  <path
     d="M 558.36783,865.56528 C 508.86366,842.96405 453.90454,830.27652 395.9447,830.27652 c -216.29039,0 -391.5775503,175.39798 -391.5775503,391.72368 0,123.5562 57.2319663,233.6974 146.5573003,305.5027 42.23089,-75.443 269.61335,-481.7195 309.79851,-555.61582 29.50267,-54.20706 63.46006,-86.85829 97.59961,-106.2762 z"
     fill="#14625d"
     id="path10"
     style="stroke-width:11.0402" />
  <path
     d="m 597.86408,1064.3872 c 12.09121,-21.6012 -163.42338,292.4964 -190.88031,343.0196 -73.91511,135.9719 -176.05997,136.153 -238.70085,133.1975 64.18651,45.9758 142.7385,73.1247 227.70042,73.1247 110.2362,0 209.74466,-45.6125 280.93285,-118.9635 -3.31868,-18.054 -45.45905,-248.7044 -79.00684,-430.3783 z"
     fill="#14625d"
     id="path11"
     style="stroke-width:11.0402" />
  <path
     d="m 795.29674,1226.5454 c -2.68166,-13.6887 -7.22801,-37.6536 -13.00092,-68.5319 -1.0455,-5.5477 -2.13627,-11.3228 -3.22815,-17.2801 -14.8645,-79.7642 -36.22946,-195.72585 -55.54977,-300.95577 -0.0905,0.13646 -39.41234,70.39573 -90.55267,161.89257 -11.22786,20.0997 -23.00221,41.1545 -35.09452,62.7557 33.5489,181.6739 75.73453,412.3242 79.00684,430.3771 0.1369,0.7287 0.22743,1.1824 0.22743,1.1824 44.91256,-35.4246 152.14915,-95.9524 118.19176,-269.3947 z"
     fill="#bbbdbf"
     id="path12"
     style="stroke-width:11.0402" />
  <path
     d="m 558.36783,865.55535 c -34.13955,19.4634 -68.1422,52.06924 -97.5985,106.27543 -40.18516,73.89742 -267.56762,480.21912 -309.79852,555.61692 -4.36418,7.7768 -6.72788,12.0515 -6.72788,12.0515 7.09111,0.1822 15.18245,0.6359 24.09298,1.0908 62.64089,2.9565 164.78574,2.7744 238.70086,-133.1965 31.54842,-57.9808 178.3784,-320.6918 260.52176,-467.53177 33.32148,-59.61775 56.0499,-100.13632 56.0499,-100.13632 -37.2297,-0.90949 -101.50784,-10.41383 -165.19533,25.82994 z"
     fill="#ffffff"
     id="path13"
     style="stroke-width:11.0402" />
</svg>
