<?xml version="1.0" encoding="UTF-8" standalone="no"?>
<svg
   width="2500"
   height="2500"
   viewBox="0 0 2500 2500"
   fill="none"
   version="1.1"
   id="svg13"
   sodipodi:docname="Banco Arbi S_idXHYOMtbL_1.svg"
   inkscape:version="1.3.2 (091e20e, 2023-11-25, custom)"
   xmlns:inkscape="http://www.inkscape.org/namespaces/inkscape"
   xmlns:sodipodi="http://sodipodi.sourceforge.net/DTD/sodipodi-0.dtd"
   xmlns="http://www.w3.org/2000/svg"
   xmlns:svg="http://www.w3.org/2000/svg">
  <sodipodi:namedview
     id="namedview1"
     pagecolor="#ffffff"
     bordercolor="#000000"
     borderopacity="0.25"
     inkscape:showpageshadow="2"
     inkscape:pageopacity="0.0"
     inkscape:pagecheckerboard="0"
     inkscape:deskcolor="#d1d1d1"
     inkscape:zoom="0.11817085"
     inkscape:cx="2470.9985"
     inkscape:cy="1002.7853"
     inkscape:window-width="2400"
     inkscape:window-height="1261"
     inkscape:window-x="4791"
     inkscape:window-y="-9"
     inkscape:window-maximized="1"
     inkscape:current-layer="svg13" />
  <defs
     id="defs13" />
  <path
     d="M 1735.9844,152.08404 C 1581.3957,81.506234 1409.7726,41.886365 1228.779,41.886365 553.36014,41.886365 5.9837664,589.60866 5.9837664,1265.1379 c 0,385.8339 178.7206036,729.7765 457.6604636,954.006 C 595.52038,1983.5547 1305.5769,714.8586 1431.0647,484.09946 1523.1939,314.82484 1629.2341,212.86353 1735.843,152.22642 Z"
     fill="#14625d"
     id="path10"
     style="stroke-width:34.4756" />
  <path
     d="m 1859.3209,772.95348 c 37.7577,-67.45501 -510.3288,913.39032 -596.0697,1071.16112 -230.8178,424.6052 -549.78971,425.1706 -745.40095,415.9415 200.43783,143.5703 445.73534,228.3493 711.04945,228.3493 344.2391,0 654.9782,-142.436 877.2805,-371.4921 -10.3634,-56.378 -141.9568,-776.6393 -246.7179,-1343.95982 z"
     fill="#14625d"
     id="path11"
     style="stroke-width:34.4756" />
  <path
     d="m 2475.852,1279.3315 c -8.3742,-42.7463 -22.5712,-117.5826 -40.5985,-214.0075 -3.2649,-17.324 -6.6711,-35.3582 -10.0807,-53.9612 -46.418,-249.08298 -113.1352,-611.20114 -173.4676,-939.80692 -0.2827,0.426119 -123.0745,219.8276 -282.7725,505.54847 -35.0617,62.76632 -71.8299,128.51479 -109.5911,195.96979 104.7645,567.32056 236.4994,1287.58186 246.7179,1343.95636 0.4275,2.2754 0.7102,3.6924 0.7102,3.6924 140.2503,-110.622 475.1224,-299.6346 369.0823,-841.2501 z"
     fill="#bbbdbf"
     id="path12"
     style="stroke-width:34.4756" />
  <path
     d="m 1735.9844,152.05301 c -106.609,60.77914 -212.7905,162.59876 -304.7749,331.87063 -125.4878,230.76258 -835.54432,1499.60006 -967.42047,1735.04786 -13.62822,24.2846 -21.00945,37.6336 -21.00945,37.6336 22.14369,0.5688 47.41088,1.9858 75.23615,3.4062 195.61125,9.2326 514.58317,8.6637 745.40097,-415.9381 98.5175,-181.0591 557.0295,-1001.43759 813.542,-1459.98063 104.0543,-186.17078 175.0292,-312.69976 175.0292,-312.69976 -116.2587,-2.840102 -316.9826,-32.519684 -515.8622,80.6602 z"
     fill="#ffffff"
     id="path13"
     style="stroke-width:34.4756" />
</svg>
