<?xml version="1.0" encoding="UTF-8"?>
<svg id="Camada_1" xmlns="http://www.w3.org/2000/svg" version="1.1" viewBox="0 0 2500 2500">
  <!-- Generator: Adobe Illustrator 29.6.0, SVG Export Plug-In . SVG Version: 2.1.1 Build 207)  -->
  <defs>
    <style>
      .st0 {
        fill: #ff6d5c;
      }
    </style>
  </defs>
  <path class="st0" d="M373.88,1372.94v91.52h-167.05c-24.86,0-48.7-9.59-66.28-26.67l-113.08-109.82c-17.58-17.08-27.47-40.25-27.47-64.4v-222.79h106.03v301.8c0,16.76,13.99,30.36,31.25,30.36h236.59Z"/>
  <path class="st0" d="M2500,1132.3v-91.52h-167.04c-24.87,0-48.71,9.59-66.29,26.67l-113.07,109.82c-17.58,17.08-27.46,40.25-27.46,64.4v222.79h106.04v-301.81c0-16.76,13.99-30.36,31.25-30.36h236.58Z"/>
  <path class="st0" d="M581.41,1464.46h-101.82v-423.69h101.83v423.69Z"/>
  <path class="st0" d="M1087.25,1221.38v243.16h-102.66v-237.39c0-55.23-33.1-93.15-85.71-93.15-44.98,0-75.52,27.21-96.74,58.52v272.02h-101.83v-423.7h91.64l4.25,56.07c23.76-29.69,67.03-63.51,128.98-63.51,104.37,0,162.07,79.18,162.07,187.98Z"/>
  <path class="st0" d="M1294.78,1291.35l171.07-250.58h122.19l-136.29,185.47,147.66,238.22h-117.09l-96.74-154.14-112.01,154.14h-80.61v-423.69h101.83v250.58Z"/>
  <path class="st0" d="M2033.37,1248.49v34.63h-302.08c2.54,65.95,43.27,102.21,114.55,102.21,50.07,0,86.56-21.44,106.07-47.82l70.42,56.05c-42.42,49.45-98.43,78.35-177.35,78.35-132.36,0-217.23-94-217.23-218.47,0-125.3,86.56-220.13,209.6-220.13,131.52,0,196.01,98.95,196.01,215.17ZM1731.29,1212.22h201.95c-2.54-56.88-36.48-96.44-97.58-96.44s-100.97,38.75-104.37,96.44Z"/>
</svg>