<?xml version="1.0" encoding="UTF-8" standalone="no"?>
<svg
   viewBox="0 0 191.8 191.82074"
   width="2500"
   height="2500"
   version="1.1"
   id="svg10"
   sodipodi:docname="banco-do-brasil-com-fundo.svg"
   inkscape:version="1.2.2 (732a01da63, 2022-12-09)"
   xmlns:inkscape="http://www.inkscape.org/namespaces/inkscape"
   xmlns:sodipodi="http://sodipodi.sourceforge.net/DTD/sodipodi-0.dtd"
   xmlns="http://www.w3.org/2000/svg"
   xmlns:svg="http://www.w3.org/2000/svg">
  <defs
     id="defs14" />
  <sodipodi:namedview
     id="namedview12"
     pagecolor="#505050"
     bordercolor="#eeeeee"
     borderopacity="1"
     inkscape:showpageshadow="0"
     inkscape:pageopacity="0"
     inkscape:pagecheckerboard="0"
     inkscape:deskcolor="#505050"
     showgrid="false"
     inkscape:zoom="0.30808029"
     inkscape:cx="740.06683"
     inkscape:cy="2353.2827"
     inkscape:window-width="1920"
     inkscape:window-height="1009"
     inkscape:window-x="-8"
     inkscape:window-y="-8"
     inkscape:window-maximized="1"
     inkscape:current-layer="svg10" />
  <path
     clip-rule="evenodd"
     d="M 0.60604243,1.0041513 H 191.19396 V 190.68833 H 0.60604243 Z"
     fill="#ffef38"
     fill-rule="evenodd"
     id="path2"
     style="stroke-width:1.00415" />
  <g
     fill="#003da4"
     id="g8"
     transform="matrix(1.0041513,0,0,1.0041513,-0.39810886,0)">
    <path
       d="M 191.8,190.9 H 0 V 0 H 191.8 Z M 2,188.9 H 189.8 V 2 H 2 Z"
       id="path4" />
    <path
       clip-rule="evenodd"
       d="M 81.2,130.5 65.7,120.1 139.4,70.4 93.9,39.8 72.5,54.2 89.1,65.2 50.8,90.8 18.7,69.6 96,18.1 172.7,69.4 Z M 110.3,60 125.8,70.4 52.1,120.1 97.7,150.7 119.1,136.3 102.5,125.4 140.9,99.8 173,121 95.5,172.4 19,121.3 Z m -60.1,92 -15.8,-10.8 -16,10.8 0.2,20.8 z M 142,39.3 157.9,50.1 173.4,39.8 V 18.5 Z"
       fill-rule="evenodd"
       id="path6" />
  </g>
</svg>
