<?xml version="1.0" encoding="UTF-8"?>
<svg id="svg42" xmlns="http://www.w3.org/2000/svg" version="1.1" xmlns:cc="http://creativecommons.org/ns#" xmlns:dc="http://purl.org/dc/elements/1.1/" xmlns:inkscape="http://www.inkscape.org/namespaces/inkscape" xmlns:rdf="http://www.w3.org/1999/02/22-rdf-syntax-ns#" xmlns:sodipodi="http://sodipodi.sourceforge.net/DTD/sodipodi-0.dtd" xmlns:svg="http://www.w3.org/2000/svg" viewBox="0 0 2500 2500">
  <!-- Generator: Adobe Illustrator 29.6.0, SVG Export Plug-In . SVG Version: 2.1.1 Build 207)  -->
  <sodipodi:namedview id="namedview44" bordercolor="#666666" borderopacity="1" gridtolerance="10" guidetolerance="10" inkscape:current-layer="svg42" inkscape:cx="98.150002" inkscape:cy="21.4" inkscape:pageopacity="0" inkscape:pageshadow="2" inkscape:window-height="837" inkscape:window-maximized="1" inkscape:window-width="1600" inkscape:window-x="-8" inkscape:window-y="-8" inkscape:zoom="1.6148752" objecttolerance="10" pagecolor="#ffffff" showgrid="false"/>
  <rect id="rect4" x="699.18" y="1275.22" width="14.01" height="192.31" inkscape:export-filename="G:\Users\suitedoalex\sites\xp-investimentos-logo-6.png" inkscape:export-xdpi="97.809471" inkscape:export-ydpi="97.809471"/>
  <rect id="rect6" x="699.18" y="1196.26" width="14.01" height="26.74" inkscape:export-filename="G:\Users\suitedoalex\sites\xp-investimentos-logo-6.png" inkscape:export-xdpi="97.809471" inkscape:export-ydpi="97.809471"/>
  <path id="path8" d="M823.99,1273.95c-26.74,0-49.67,15.28-61.13,38.21v-36.93h-14.01v3.82c1.27,20.38,1.27,39.48,1.27,53.49v136.27h14.01v-98.06c0-8.91,0-19.1,1.27-26.74,7.64-35.66,29.29-54.76,59.86-54.76,40.75,0,49.67,28.02,49.67,68.77v112.07h14.01v-120.99c-1.27-50.94-22.92-75.14-64.95-75.14Z" inkscape:export-filename="G:\Users\suitedoalex\sites\xp-investimentos-logo-6.png" inkscape:export-xdpi="97.809471" inkscape:export-ydpi="97.809471"/>
  <polygon id="polygon10" inkscape:export-filename="G:\Users\suitedoalex\sites\xp-investimentos-logo-6.png" inkscape:export-xdpi="97.809471" inkscape:export-ydpi="97.809471" points="1046.87 1275.22 978.09 1445.88 908.05 1275.22 894.04 1275.22 973 1468.8 981.92 1468.8 1062.15 1275.22 1046.87 1275.22"/>
  <path id="path12" d="M1137.29,1272.67c-59.86,0-81.51,54.76-81.51,101.88,0,61.13,30.57,96.79,80.23,96.79,36.93,0,61.13-19.1,70.05-59.86l1.27-3.82h-14.01l-1.27,2.55c-10.19,34.39-26.74,48.4-57.31,48.4-48.4,0-66.23-43.3-66.23-81.51v-2.55h138.82v-14.01c1.27-42.03-17.83-87.88-70.05-87.88ZM1194.6,1360.55h-124.81c3.82-29.29,17.83-73.87,67.5-73.87s56.04,44.57,57.31,71.32v2.55Z" inkscape:export-filename="G:\Users\suitedoalex\sites\xp-investimentos-logo-6.png" inkscape:export-xdpi="97.809471" inkscape:export-ydpi="97.809471"/>
  <path id="path14" d="M1288.84,1364.37c-25.47-7.64-50.94-14.01-50.94-40.75s25.47-38.21,47.12-38.21c20.38,0,44.57,7.64,44.57,40.75v3.82h14.01v-2.55c0-35.66-21.65-54.76-58.58-54.76-29.29,0-61.13,16.56-61.13,52.22s31.84,45.85,61.13,53.49c25.47,7.64,48.4,12.74,48.4,36.93,0,40.75-39.48,43.3-50.94,43.3-31.84,0-48.4-15.28-48.4-44.57v-2.55h-14.01v2.55c0,36.93,22.92,58.58,62.4,58.58s64.95-22.92,64.95-57.31-30.57-43.3-58.58-50.94Z" inkscape:export-filename="G:\Users\suitedoalex\sites\xp-investimentos-logo-6.png" inkscape:export-xdpi="97.809471" inkscape:export-ydpi="97.809471"/>
  <path id="path16" d="M1431.48,1454.79c-2.55,0-6.37,1.27-10.19,1.27-19.1,0-22.92-10.19-22.92-30.57v-136.27h40.75v-14.01h-40.75v-48.4l-14.01,8.91v40.75h-38.21v14.01h38.21v141.37c0,31.84,17.83,38.21,33.11,38.21,6.37,0,11.46,0,20.38-1.27h2.55v-12.74h-3.82c-1.27-1.27-2.55-1.27-5.09-1.27h0Z" inkscape:export-filename="G:\Users\suitedoalex\sites\xp-investimentos-logo-6.png" inkscape:export-xdpi="97.809471" inkscape:export-ydpi="97.809471"/>
  <rect id="rect18" x="1458.23" y="1275.22" width="14.01" height="192.31" inkscape:export-filename="G:\Users\suitedoalex\sites\xp-investimentos-logo-6.png" inkscape:export-xdpi="97.809471" inkscape:export-ydpi="97.809471"/>
  <rect id="rect20" x="1458.23" y="1196.26" width="14.01" height="26.74" inkscape:export-filename="G:\Users\suitedoalex\sites\xp-investimentos-logo-6.png" inkscape:export-xdpi="97.809471" inkscape:export-ydpi="97.809471"/>
  <path id="path22" d="M1698.93,1273.95c-35.66,0-54.76,22.92-61.13,42.03-6.37-22.92-25.47-42.03-57.31-42.03-29.29,0-48.4,16.56-58.58,35.66v-34.39h-14.01v193.58h14.01v-103.16c0-8.91,0-19.1,2.55-29.29,3.82-14.01,16.56-48.4,54.76-48.4,42.03,0,48.4,40.75,48.4,63.68v115.89h14.01v-106.98c0-11.46,1.27-21.65,2.55-29.29,5.09-20.38,17.83-44.57,53.49-44.57,33.11,0,49.67,20.38,49.67,61.13v119.71h14.01v-110.8c0-15.28,0-34.39-7.64-52.22-10.19-19.1-28.02-30.57-54.76-30.57h0Z" inkscape:export-filename="G:\Users\suitedoalex\sites\xp-investimentos-logo-6.png" inkscape:export-xdpi="97.809471" inkscape:export-ydpi="97.809471"/>
  <path id="path24" d="M1867.04,1272.67c-59.86,0-81.51,54.76-81.51,101.88,0,61.13,30.57,96.79,80.23,96.79,36.93,0,61.13-19.1,70.05-59.86l1.27-3.82h-14.01v2.55c-10.19,34.39-26.74,48.4-57.31,48.4-48.4,0-66.23-43.3-66.23-81.51v-2.55h138.82v-14.01c0-42.03-19.1-87.88-71.32-87.88ZM1924.35,1360.55h-124.81c3.82-29.29,16.56-73.87,67.5-73.87,47.12,0,56.04,44.57,57.31,71.32v2.55Z" inkscape:export-filename="G:\Users\suitedoalex\sites\xp-investimentos-logo-6.png" inkscape:export-xdpi="97.809471" inkscape:export-ydpi="97.809471"/>
  <path id="path26" d="M2037.7,1273.95c-26.74,0-49.67,15.28-61.13,38.21v-36.93h-14.01v3.82c1.27,20.38,1.27,39.48,1.27,53.49v136.27h14.01v-98.06c0-8.91,0-19.1,1.27-26.74,7.64-35.66,29.29-54.76,59.86-54.76,40.75,0,49.67,28.02,49.67,68.77v112.07h14.01v-120.99c-1.27-50.94-22.92-75.14-64.95-75.14Z" inkscape:export-filename="G:\Users\suitedoalex\sites\xp-investimentos-logo-6.png" inkscape:export-xdpi="97.809471" inkscape:export-ydpi="97.809471"/>
  <path id="path28" d="M2190.52,1454.79c-2.55,0-6.37,1.27-10.19,1.27-19.1,0-22.92-10.19-22.92-30.57v-136.27h40.75v-14.01h-40.75v-48.4l-14.01,8.91v40.75h-38.21v14.01h38.21v141.37c0,31.84,17.83,38.21,33.11,38.21,6.37,0,11.46,0,20.38-1.27h2.55v-12.74h-3.82c0-1.27-2.55-1.27-5.09-1.27Z" inkscape:export-filename="G:\Users\suitedoalex\sites\xp-investimentos-logo-6.png" inkscape:export-xdpi="97.809471" inkscape:export-ydpi="97.809471"/>
  <path id="path30" d="M2278.4,1272.67c-62.4,0-84.06,52.22-84.06,98.06s21.65,101.88,84.06,101.88c54.76,0,82.78-50.94,82.78-101.88,1.27-59.86-30.57-98.06-82.78-98.06ZM2278.4,1458.61c-48.4,0-70.05-44.57-70.05-87.88s21.65-84.06,70.05-84.06c50.94,0,68.77,45.85,68.77,84.06,1.27,42.03-20.38,87.88-68.77,87.88Z" inkscape:export-filename="G:\Users\suitedoalex\sites\xp-investimentos-logo-6.png" inkscape:export-xdpi="97.809471" inkscape:export-ydpi="97.809471"/>
  <path id="path32" d="M2441.42,1364.37c-25.47-7.64-50.94-14.01-50.94-40.75s25.47-38.21,47.12-38.21c20.38,0,44.57,7.64,44.57,40.75v3.82h14.01v-2.55c0-35.66-21.65-54.76-58.58-54.76-29.29,0-61.13,16.56-61.13,52.22s31.84,45.85,61.13,53.49c25.47,7.64,48.4,12.74,48.4,36.93,0,40.75-39.48,43.3-50.94,43.3-31.84,0-48.4-15.28-48.4-44.57v-2.55h-14.01v2.55c0,36.93,22.92,58.58,62.4,58.58s64.95-22.92,64.95-57.31-31.84-43.3-58.58-50.94h0Z" inkscape:export-filename="G:\Users\suitedoalex\sites\xp-investimentos-logo-6.png" inkscape:export-xdpi="97.809471" inkscape:export-ydpi="97.809471"/>
  <path id="path34" d="M509.42,1468.8c-15.28,0-30.57-3.82-43.3-10.19v85.33h72.59c36.93,0,66.23-29.29,66.23-66.23v-63.68c-20.38,33.11-54.76,54.76-95.52,54.76Z" inkscape:export-filename="G:\Users\suitedoalex\sites\xp-investimentos-logo-9.png" inkscape:export-xdpi="1008.4034" inkscape:export-ydpi="1008.4034"/>
  <path id="path36" d="M390.98,1424.23v-157.92c-21.65,29.29-50.94,68.77-58.58,78.96,7.64,10.19,35.66,48.4,58.58,78.96Z" inkscape:export-filename="G:\Users\suitedoalex\sites\xp-investimentos-logo-9.png" inkscape:export-xdpi="1008.4034" inkscape:export-ydpi="1008.4034"/>
  <path id="path38" d="M538.72,998.86H66.23c-36.93,0-66.23,29.29-66.23,66.23v412.63c0,36.93,29.29,66.23,66.23,66.23h324.76v-78.96h-59.86s-29.29-39.48-42.03-58.58c-14.01,19.1-42.03,58.58-42.03,58.58h-89.15s76.41-103.16,87.88-119.71c-11.46-16.56-82.78-113.35-82.78-113.35h89.15s25.47,34.39,38.21,52.22c12.74-17.83,38.21-52.22,38.21-52.22h104.43s7.64,14.01,10.19,20.38c19.1-15.28,43.3-24.2,67.5-24.2,39.48,0,75.14,21.65,95.52,54.76v-217.78c-1.27-36.93-30.57-66.23-67.5-66.23Z" inkscape:export-filename="G:\Users\suitedoalex\sites\xp-investimentos-logo-9.png" inkscape:export-xdpi="1008.4034" inkscape:export-ydpi="1008.4034"/>
  <path id="path40" d="M546.36,1349.09c0-26.74-17.83-48.4-39.48-48.4-22.92,0-40.75,21.65-40.75,48.4s17.83,48.4,40.75,48.4c21.65,0,39.48-21.65,39.48-48.4Z" inkscape:export-filename="G:\Users\suitedoalex\sites\xp-investimentos-logo-9.png" inkscape:export-xdpi="1008.4034" inkscape:export-ydpi="1008.4034"/>
</svg>