<?xml version="1.0" encoding="UTF-8"?>
<svg id="svg42" xmlns="http://www.w3.org/2000/svg" version="1.1" xmlns:cc="http://creativecommons.org/ns#" xmlns:dc="http://purl.org/dc/elements/1.1/" xmlns:inkscape="http://www.inkscape.org/namespaces/inkscape" xmlns:rdf="http://www.w3.org/1999/02/22-rdf-syntax-ns#" xmlns:sodipodi="http://sodipodi.sourceforge.net/DTD/sodipodi-0.dtd" xmlns:svg="http://www.w3.org/2000/svg" viewBox="0 0 2500 2500">
  <!-- Generator: Adobe Illustrator 29.6.0, SVG Export Plug-In . SVG Version: 2.1.1 Build 207)  -->
  <sodipodi:namedview id="namedview44" bordercolor="#666666" borderopacity="1" gridtolerance="10" guidetolerance="10" inkscape:current-layer="svg42" inkscape:cx="98.150002" inkscape:cy="21.4" inkscape:pageopacity="0" inkscape:pageshadow="2" inkscape:window-height="837" inkscape:window-maximized="1" inkscape:window-width="1600" inkscape:window-x="-8" inkscape:window-y="-8" inkscape:zoom="1.6148752" objecttolerance="10" pagecolor="#ffffff" showgrid="false"/>
  <path id="path34" d="M2100.84,2064.08c-63.03,0-126.05-15.76-178.57-42.02v351.89h299.37c152.31,0,273.11-120.8,273.11-273.11v-262.61c-84.03,136.55-225.84,225.84-393.91,225.84Z" inkscape:export-filename="G:\Users\suitedoalex\sites\xp-investimentos-logo-9.png" inkscape:export-xdpi="1008.4034" inkscape:export-ydpi="1008.4034"/>
  <path id="path36" d="M1612.4,1880.25v-651.26c-89.29,120.8-210.08,283.61-241.6,325.63,31.51,42.02,147.06,199.58,241.6,325.63Z" inkscape:export-filename="G:\Users\suitedoalex\sites\xp-investimentos-logo-9.png" inkscape:export-xdpi="1008.4034" inkscape:export-ydpi="1008.4034"/>
  <path id="path38" d="M2221.64,126.05H273.11C120.8,126.05,0,246.85,0,399.16v1701.68c0,152.31,120.8,273.11,273.11,273.11h1339.29v-325.63h-246.85s-120.8-162.82-173.32-241.6c-57.77,78.78-173.32,241.6-173.32,241.6h-367.65s315.13-425.42,362.39-493.7c-47.27-68.28-341.39-467.44-341.39-467.44h367.65s105.04,141.81,157.56,215.34c52.52-73.53,157.56-215.34,157.56-215.34h430.67s31.51,57.77,42.02,84.03c78.78-63.03,178.57-99.79,278.36-99.79,162.82,0,309.87,89.29,393.91,225.84V399.16c-5.25-152.31-126.05-273.11-278.36-273.11Z" inkscape:export-filename="G:\Users\suitedoalex\sites\xp-investimentos-logo-9.png" inkscape:export-xdpi="1008.4034" inkscape:export-ydpi="1008.4034"/>
  <path id="path40" d="M2253.15,1570.38c0-110.29-73.53-199.58-162.82-199.58-94.54,0-168.07,89.29-168.07,199.58s73.53,199.58,168.07,199.58c89.29,0,162.82-89.29,162.82-199.58Z" inkscape:export-filename="G:\Users\suitedoalex\sites\xp-investimentos-logo-9.png" inkscape:export-xdpi="1008.4034" inkscape:export-ydpi="1008.4034"/>
</svg>