<?xml version="1.0" encoding="UTF-8" standalone="no"?>
<svg
   width="2500"
   height="2500"
   viewBox="0 0 192.756 192.756"
   version="1.1"
   id="svg12"
   sodipodi:docname="itau.svg"
   inkscape:version="1.2.2 (732a01da63, 2022-12-09)"
   xmlns:inkscape="http://www.inkscape.org/namespaces/inkscape"
   xmlns:sodipodi="http://sodipodi.sourceforge.net/DTD/sodipodi-0.dtd"
   xmlns="http://www.w3.org/2000/svg"
   xmlns:svg="http://www.w3.org/2000/svg">
  <defs
     id="defs16" />
  <sodipodi:namedview
     id="namedview14"
     pagecolor="#505050"
     bordercolor="#eeeeee"
     borderopacity="1"
     inkscape:showpageshadow="0"
     inkscape:pageopacity="0"
     inkscape:pagecheckerboard="0"
     inkscape:deskcolor="#505050"
     showgrid="false"
     inkscape:zoom="0.1084"
     inkscape:cx="3625.4613"
     inkscape:cy="2315.4982"
     inkscape:window-width="1920"
     inkscape:window-height="1009"
     inkscape:window-x="-8"
     inkscape:window-y="-8"
     inkscape:window-maximized="1"
     inkscape:current-layer="svg12" />
  <g
     fill-rule="evenodd"
     clip-rule="evenodd"
     id="g10"
     transform="matrix(1.0956136,0,0,1.0953752,-9.1705995,-9.1476388)">
    <path
       d="M 40.673,8.504 152.346,8.57 c 17.529,0 31.973,14.443 31.906,32.038 V 152.28 c 0,17.596 -14.443,31.973 -32.037,31.973 L 40.476,184.187 C 22.881,184.123 8.504,169.746 8.504,152.15 L 8.635,40.476 C 8.635,22.882 23.013,8.438 40.673,8.504 Z"
       fill="#33348e"
       id="path4" />
    <path
       d="m 159.502,88.664 h -12.736 l -5.252,9.979 h 8.928 z m 8.469,16.217 h -12.408 v 26.785 c 0,8.207 -5.516,10.57 -9.584,10.57 -3.875,0 -8.143,-1.445 -8.076,-8.602 V 104.88 h -12.408 l -0.066,30.527 c 0,11.816 6.764,17.068 16.086,17.068 6.498,0.066 11.555,-2.758 14.377,-7.746 h 0.131 v 6.5 h 11.949 v -46.348 z m -52.194,12.275 c 0,-11.488 -12.078,-13.523 -18.775,-13.523 -9.651,0 -19.696,2.035 -21.206,16.215 H 87.81 c 0.394,-2.691 1.51,-6.434 7.681,-6.434 3.217,0 8.208,0.264 8.208,5.385 0,2.625 -2.43,3.414 -4.4,3.676 l -11.16,1.641 c -7.944,1.117 -13.852,5.777 -13.852,14.838 0,9.584 7.353,13.523 14.377,13.523 8.535,0 12.539,-3.873 15.297,-6.695 0.262,2.561 0.459,3.217 1.182,5.449 l 10.701,-0.066 c 0,-5.121 -0.066,-8.863 -0.066,-8.928 V 117.156 Z M 62.863,88.664 H 50.455 v 16.15 h -6.434 v 8.732 h 6.368 v 28.164 c 0,5.973 1.904,10.045 12.671,10.045 h 1.642 c 1.969,0 3.938,-0.133 5.843,-0.197 V 142.3 c -0.854,0.066 -1.772,0.197 -2.561,0.197 -5.055,0 -5.187,-1.051 -5.187,-3.809 l 0.066,-25.143 h 7.747 v -8.732 H 62.863 Z M 38.31,88.598 H 24.917 l -0.066,62.566 h 13.393 z"
       fill="#fff22d"
       id="path6" />
    <path
       d="m 103.699,134.619 v -5.973 c -1.248,0.984 -3.35,1.771 -8.47,2.494 -4.661,0.787 -8.469,1.969 -8.469,7.025 0,4.201 3.414,5.58 5.777,5.58 5.516,0.001 11.162,-3.479 11.162,-9.126 z"
       fill="#33348e"
       id="path8" />
  </g>
</svg>
