<?xml version="1.0" encoding="UTF-8" standalone="no"?>
<!-- Created with Inkscape (http://www.inkscape.org/) -->

<svg
   version="1.1"
   id="svg1"
   width="1963.6035"
   height="1962.5803"
   viewBox="0 0 1963.6035 1962.5803"
   sodipodi:docname="437554894-a29bb7e3-bfc0-4fe6-9c94-551465e39e4d.png"
   inkscape:export-filename="logo-nova-letras-transparentes.svg"
   inkscape:export-xdpi="96"
   inkscape:export-ydpi="96"
   xmlns:inkscape="http://www.inkscape.org/namespaces/inkscape"
   xmlns:sodipodi="http://sodipodi.sourceforge.net/DTD/sodipodi-0.dtd"
   xmlns="http://www.w3.org/2000/svg"
   xmlns:svg="http://www.w3.org/2000/svg">
  <defs
     id="defs1" />
  <sodipodi:namedview
     id="namedview1"
     pagecolor="#ffffff"
     bordercolor="#000000"
     borderopacity="0.25"
     inkscape:showpageshadow="2"
     inkscape:pageopacity="0.0"
     inkscape:pagecheckerboard="0"
     inkscape:deskcolor="#d1d1d1" />
  <g
     inkscape:groupmode="layer"
     inkscape:label="Image"
     id="g1"
     transform="translate(-51.274529,-46.610859)">
    <g
       id="g2"
       transform="translate(9.0021644,4.5010989)">
      <path
         style="fill:#fecbab"
         d="m 924.28017,2004.2637 c 2.6291,-0.2066 6.6791,-0.2042 9,0.01 2.32091,0.2097 0.16983,0.3788 -4.78017,0.3757 -4.95,0 -6.84892,-0.1746 -4.21983,-0.3813 z m 192.00003,0 c 2.6291,-0.2066 6.6791,-0.2042 9,0.01 2.3209,0.2097 0.1698,0.3788 -4.7802,0.3757 -4.95,0 -6.8489,-0.1746 -4.2198,-0.3813 z M 867.75,2003.2943 c 1.2375,-0.2384 3.2625,-0.2384 4.5,0 1.2375,0.2383 0.225,0.4333 -2.25,0.4333 -2.475,0 -3.4875,-0.195 -2.25,-0.4333 z m 309.0117,0 c 1.2439,-0.2392 3.0439,-0.2301 4,0.02 0.956,0.2503 -0.062,0.446 -2.2617,0.4349 -2.2,-0.011 -2.9823,-0.2159 -1.7383,-0.4551 z m -341.5117,-0.982 c 0.9625,-0.2516 2.5375,-0.2516 3.5,0 0.9625,0.2515 0.175,0.4573 -1.75,0.4573 -1.925,0 -2.7125,-0.2058 -1.75,-0.4573 z m 374,0 c 0.9625,-0.2516 2.5375,-0.2516 3.5,0 0.9625,0.2515 0.175,0.4573 -1.75,0.4573 -1.925,0 -2.7125,-0.2058 -1.75,-0.4573 z m -395.98097,-1.0037 c 0.97297,-0.2535 2.32297,-0.2369 3,0.037 0.67703,0.2739 -0.11903,0.4813 -1.76903,0.461 -1.65,-0.02 -2.20394,-0.2445 -1.23097,-0.4981 z m 418.99997,0 c 0.973,-0.2535 2.323,-0.2369 3,0.037 0.6771,0.2739 -0.119,0.4813 -1.769,0.461 -1.65,-0.02 -2.2039,-0.2445 -1.231,-0.4981 z m -437.99997,-1 c 0.97297,-0.2535 2.32297,-0.2369 3,0.037 0.67703,0.2739 -0.11903,0.4813 -1.76903,0.461 -1.65,-0.02 -2.20394,-0.2445 -1.23097,-0.4981 z m 456.99997,0 c 0.973,-0.2535 2.323,-0.2369 3,0.037 0.6771,0.2739 -0.119,0.4813 -1.769,0.461 -1.65,-0.02 -2.2039,-0.2445 -1.231,-0.4981 z m -476.519,-0.9693 c 0.6875,-0.2774 1.8125,-0.2774 2.5,0 0.6875,0.2774 0.125,0.5044 -1.25,0.5044 -1.375,0 -1.9375,-0.227 -1.25,-0.5044 z m 495.519,-0.031 c 0.973,-0.2535 2.323,-0.2369 3,0.037 0.6771,0.2739 -0.119,0.4813 -1.769,0.461 -1.65,-0.02 -2.2039,-0.2445 -1.231,-0.4981 z M 755.75,1998.339 c 0.6875,-0.2774 1.8125,-0.2774 2.5,0 0.6875,0.2774 0.125,0.5044 -1.25,0.5044 -1.375,0 -1.9375,-0.227 -1.25,-0.5044 z m 535,0 c 0.6875,-0.2774 1.8125,-0.2774 2.5,0 0.6875,0.2774 0.125,0.5044 -1.25,0.5044 -1.375,0 -1.9375,-0.227 -1.25,-0.5044 z m -554,-1 c 0.6875,-0.2774 1.8125,-0.2774 2.5,0 0.6875,0.2774 0.125,0.5044 -1.25,0.5044 -1.375,0 -1.9375,-0.227 -1.25,-0.5044 z m 573.0625,-0.021 c 0.7219,-0.2889 1.5844,-0.2534 1.9167,0.079 0.3323,0.3323 -0.2584,0.5687 -1.3125,0.5253 -1.165,-0.048 -1.4019,-0.285 -0.6042,-0.6042 z M 720.75,1996.3377 c 0.6875,-0.2774 1.8125,-0.2774 2.5,0 0.6875,0.2774 0.125,0.5044 -1.25,0.5044 -1.375,0 -1.9375,-0.227 -1.25,-0.5044 z m 604.0625,-0.021 c 0.7219,-0.2889 1.5844,-0.2534 1.9167,0.079 0.3323,0.3323 -0.2584,0.5687 -1.3125,0.5253 -1.165,-0.048 -1.4019,-0.285 -0.6042,-0.6042 z m -617,-1 c 0.72187,-0.2889 1.58438,-0.2534 1.91667,0.079 0.33229,0.3323 -0.25834,0.5687 -1.3125,0.5253 -1.16495,-0.048 -1.4019,-0.285 -0.60417,-0.6042 z m 630.9375,0.021 c 0.6875,-0.2774 1.8125,-0.2774 2.5,0 0.6875,0.2774 0.125,0.5044 -1.25,0.5044 -1.375,0 -1.9375,-0.227 -1.25,-0.5044 z m -645,-1 c 0.6875,-0.2774 1.8125,-0.2774 2.5,0 0.6875,0.2774 0.125,0.5044 -1.25,0.5044 -1.375,0 -1.9375,-0.227 -1.25,-0.5044 z m 659,0 c 0.6875,-0.2774 1.8125,-0.2774 2.5,0 0.6875,0.2774 0.125,0.5044 -1.25,0.5044 -1.375,0 -1.9375,-0.227 -1.25,-0.5044 z m -671.9375,-1.0208 c 0.72187,-0.2889 1.58438,-0.2534 1.91667,0.079 0.33229,0.3323 -0.25834,0.5687 -1.3125,0.5253 -1.16495,-0.048 -1.4019,-0.285 -0.60417,-0.6042 z m 685,0 c 0.7219,-0.2889 1.5844,-0.2534 1.9167,0.079 0.3323,0.3323 -0.2584,0.5687 -1.3125,0.5253 -1.165,-0.048 -1.4019,-0.285 -0.6042,-0.6042 z M 666.75,1992.3377 c 0.6875,-0.2774 1.8125,-0.2774 2.5,0 0.6875,0.2774 0.125,0.5044 -1.25,0.5044 -1.375,0 -1.9375,-0.227 -1.25,-0.5044 z m 712.0625,-0.021 c 0.7219,-0.2889 1.5844,-0.2534 1.9167,0.079 0.3323,0.3323 -0.2584,0.5687 -1.3125,0.5253 -1.165,-0.048 -1.4019,-0.285 -0.6042,-0.6042 z m -724,-1 c 0.72187,-0.2889 1.58438,-0.2534 1.91667,0.079 0.33229,0.3323 -0.25834,0.5687 -1.3125,0.5253 -1.16495,-0.048 -1.4019,-0.285 -0.60417,-0.6042 z m 735,0 c 0.7219,-0.2889 1.5844,-0.2534 1.9167,0.079 0.3323,0.3323 -0.2584,0.5687 -1.3125,0.5253 -1.165,-0.048 -1.4019,-0.285 -0.6042,-0.6042 z m 12,-1 c 0.7219,-0.2889 1.5844,-0.2534 1.9167,0.079 0.3323,0.3323 -0.2584,0.5687 -1.3125,0.5253 -1.165,-0.048 -1.4019,-0.285 -0.6042,-0.6042 z m 11,-1 c 0.7219,-0.2889 1.5844,-0.2534 1.9167,0.079 0.3323,0.3323 -0.2584,0.5687 -1.3125,0.5253 -1.165,-0.048 -1.4019,-0.285 -0.6042,-0.6042 z m -800,-2 c 0.72187,-0.2889 1.58438,-0.2534 1.91667,0.079 0.33229,0.3323 -0.25834,0.5687 -1.3125,0.5253 -1.16495,-0.048 -1.4019,-0.285 -0.60417,-0.6042 z m 822,0 c 0.7219,-0.2889 1.5844,-0.2534 1.9167,0.079 0.3323,0.3323 -0.2584,0.5687 -1.3125,0.5253 -1.165,-0.048 -1.4019,-0.285 -0.6042,-0.6042 z m -852,-3 c 0.72187,-0.2889 1.58438,-0.2534 1.91667,0.079 0.33229,0.3323 -0.25834,0.5687 -1.3125,0.5253 -1.16495,-0.048 -1.4019,-0.285 -0.60417,-0.6042 z M 180.40499,1881.75 178.5,1879.5 l 2.25,1.905 c 1.2375,1.0477 2.25,2.0602 2.25,2.25 0,0.8002 -0.80479,0.2094 -2.59501,-1.905 z M 1866,1882.6871 c 0,-0.1721 1.4625,-1.6346 3.25,-3.25 l 3.25,-2.9371 -2.9371,3.25 c -2.7378,3.0295 -3.5629,3.7097 -3.5629,2.9371 z m 12,-12 c 0,-0.1721 1.4625,-1.6346 3.25,-3.25 l 3.25,-2.9371 -2.9371,3.25 c -2.7378,3.0295 -3.5629,3.7097 -3.5629,2.9371 z M 998.7277,1593.2783 c 1.7752,-0.2209 4.9252,-0.2246 7,-0.01 2.0748,0.2165 0.6223,0.3972 -3.2277,0.4017 -3.85,0 -5.54754,-0.1727 -3.7723,-0.3936 z m 17.0487,-0.012 c 2.3521,-0.2112 5.9521,-0.2083 8,0.01 2.048,0.2149 0.1236,0.3877 -4.2764,0.3841 -4.4,0 -6.0756,-0.1795 -3.7236,-0.3907 z m 484.9736,0.028 c 1.2375,-0.2384 3.2625,-0.2384 4.5,0 1.2375,0.2383 0.225,0.4333 -2.25,0.4333 -2.475,0 -3.4875,-0.195 -2.25,-0.4333 z m 27.0117,0 c 1.2439,-0.2392 3.0439,-0.2301 4,0.02 0.956,0.2503 -0.062,0.446 -2.2617,0.4349 -2.2,-0.011 -2.9823,-0.2159 -1.7383,-0.4551 z m -549.9492,-0.9758 c 0.72187,-0.2889 1.58438,-0.2534 1.91667,0.079 0.33229,0.3323 -0.25834,0.5687 -1.3125,0.5253 -1.16495,-0.048 -1.4019,-0.285 -0.60417,-0.6042 z m 507,0 c 0.7219,-0.2889 1.5844,-0.2534 1.9167,0.079 0.3323,0.3323 -0.2584,0.5687 -1.3125,0.5253 -1.165,-0.048 -1.4019,-0.285 -0.6042,-0.6042 z m -806,-1 c 0.72187,-0.2889 1.58438,-0.2534 1.91667,0.079 0.33229,0.3323 -0.25834,0.5687 -1.3125,0.5253 -1.16495,-0.048 -1.4019,-0.285 -0.60417,-0.6042 z m 42.4375,-0.01 c 0.9625,-0.2516 2.5375,-0.2516 3.5,0 0.9625,0.2515 0.175,0.4573 -1.75,0.4573 -1.925,0 -2.7125,-0.2058 -1.75,-0.4573 z m 18.5625,-0.9938 c 0.72187,-0.2889 1.58438,-0.2534 1.91667,0.079 0.33229,0.3323 -0.25834,0.5687 -1.3125,0.5253 -1.16495,-0.048 -1.4019,-0.285 -0.60417,-0.6042 z m 939.4375,-8.0585 c 3.7125,-0.1924 9.7875,-0.1924 13.5,0 3.7125,0.1925 0.675,0.3499 -6.75,0.3499 -7.425,0 -10.4625,-0.1574 -6.75,-0.3499 z M 1650.232,1571 c 0,-1.925 0.2058,-2.7125 0.4573,-1.75 0.2516,0.9625 0.2516,2.5375 0,3.5 -0.2515,0.9625 -0.4573,0.175 -0.4573,-1.75 z m -506.9596,-13 c 0,-2.475 0.195,-3.4875 0.4333,-2.25 0.2384,1.2375 0.2384,3.2625 0,4.5 -0.2383,1.2375 -0.4333,0.225 -0.4333,-2.25 z M 1620,1559.6224 c 0,-0.2076 0.7875,-0.9951 1.75,-1.75 1.5861,-1.2438 1.6214,-1.2085 0.3776,0.3776 -1.3064,1.6657 -2.1276,2.1955 -2.1276,1.3724 z M 884.48295,1546.75 873.5,1535.5 l 11.25,10.9829 c 10.44944,10.2014 11.70409,11.5171 10.98295,11.5171 -0.14688,0 -5.20938,-5.0625 -11.25,-11.25 z m -306.04586,4 -2.93709,-3.25 3.25,2.9371 c 3.02946,2.7378 3.70965,3.5629 2.93709,3.5629 -0.1721,0 -1.6346,-1.4625 -3.25,-3.25 z M 1400,1549.5 c -2.429,-2.475 -4.1914,-4.5 -3.9164,-4.5 0.275,0 2.4874,2.025 4.9164,4.5 2.429,2.475 4.1914,4.5 3.9164,4.5 -0.275,0 -2.4874,-2.025 -4.9164,-4.5 z m 249.1949,-9 c 0.02,-1.65 0.2445,-2.2039 0.4981,-1.231 0.2535,0.973 0.2369,2.323 -0.037,3 -0.2739,0.6771 -0.4813,-0.119 -0.461,-1.769 z m -507.116,-2.0833 c 0.048,-1.165 0.285,-1.4019 0.6042,-0.6042 0.2889,0.7219 0.2534,1.5844 -0.079,1.9167 -0.3323,0.3323 -0.5687,-0.2584 -0.5253,-1.3125 z M 1645.5,1533 c 0.9955,-1.1 2.035,-2 2.31,-2 0.275,0 -0.3145,0.9 -1.31,2 -0.9955,1.1 -2.035,2 -2.31,2 -0.275,0 0.3145,-0.9 1.31,-2 z m -602.231,-41.693 c 0.973,-0.2535 2.323,-0.2369 3,0.037 0.6771,0.2739 -0.119,0.4813 -1.769,0.461 -1.65,-0.02 -2.2039,-0.2445 -1.231,-0.4981 z m 18,0 c 0.973,-0.2535 2.323,-0.2369 3,0.037 0.6771,0.2739 -0.119,0.4813 -1.769,0.461 -1.65,-0.02 -2.2039,-0.2445 -1.231,-0.4981 z m -333.99997,-13 c 0.97297,-0.2535 2.32297,-0.2369 3,0.037 0.67703,0.2739 -0.11903,0.4813 -1.76903,0.461 -1.65,-0.02 -2.20394,-0.2445 -1.23097,-0.4981 z m 35,0 c 0.97297,-0.2535 2.32297,-0.2369 3,0.037 0.67703,0.2739 -0.11903,0.4813 -1.76903,0.461 -1.65,-0.02 -2.20394,-0.2445 -1.23097,-0.4981 z m 793.54347,0.01 c 0.7219,-0.2889 1.5844,-0.2534 1.9167,0.079 0.3323,0.3323 -0.2584,0.5687 -1.3125,0.5253 -1.165,-0.048 -1.4019,-0.285 -0.6042,-0.6042 z m 20.9375,0.021 c 0.6875,-0.2774 1.8125,-0.2774 2.5,0 0.6875,0.2774 0.125,0.5044 -1.25,0.5044 -1.375,0 -1.9375,-0.227 -1.25,-0.5044 z M 1117,1468.5 c 1.2917,-1.375 2.5736,-2.5 2.8486,-2.5 0.275,0 -0.5569,1.125 -1.8486,2.5 -1.2917,1.375 -2.5736,2.5 -2.8486,2.5 -0.275,0 0.5569,-1.125 1.8486,-2.5 z m -270.80505,-10 c 0.0204,-1.65 0.2445,-2.2039 0.49804,-1.231 0.25354,0.973 0.23687,2.323 -0.0371,3 -0.27393,0.6771 -0.48137,-0.119 -0.46099,-1.769 z m -314,-10 c 0.0204,-1.65 0.2445,-2.2039 0.49804,-1.231 0.25354,0.973 0.23687,2.323 -0.0371,3 -0.27393,0.6771 -0.48137,-0.119 -0.46099,-1.769 z m 312.05723,-2 c 0.0111,-2.2 0.21589,-2.9823 0.45508,-1.7383 0.23919,1.2439 0.23011,3.0439 -0.0202,4 -0.25029,0.956 -0.446,-0.062 -0.4349,-2.2617 z m 506.94272,-8 c 0.02,-1.65 0.2445,-2.2039 0.4981,-1.231 0.2535,0.973 0.2369,2.323 -0.037,3 -0.2739,0.6771 -0.4813,-0.119 -0.461,-1.769 z M 61.078947,1436.4167 c 0.04798,-1.165 0.284941,-1.4019 0.604167,-0.6042 0.288871,0.7219 0.253344,1.5844 -0.07895,1.9167 -0.332292,0.3323 -0.568641,-0.2584 -0.52522,-1.3125 z M 1277.4414,1408.5 c 5e-4,-15.95 0.1385,-22.335 0.3068,-14.1888 0.1683,8.1461 0.1679,21.1961 -9e-4,29 -0.1687,7.8038 -0.3064,1.1388 -0.3059,-14.8112 z M 60.078947,1425.4167 c 0.04798,-1.165 0.284941,-1.4019 0.604167,-0.6042 0.288871,0.7219 0.253344,1.5844 -0.07895,1.9167 -0.332292,0.3323 -0.568641,-0.2584 -0.52522,-1.3125 z M 1140.1579,1420 c 0,-1.375 0.227,-1.9375 0.5044,-1.25 0.2774,0.6875 0.2774,1.8125 0,2.5 -0.2774,0.6875 -0.5044,0.125 -0.5044,-1.25 z m 847.921,-3.5833 c 0.048,-1.165 0.285,-1.4019 0.6042,-0.6042 0.2889,0.7219 0.2534,1.5844 -0.079,1.9167 -0.3323,0.3323 -0.5687,-0.2584 -0.5253,-1.3125 z m -1928.999953,-2 c 0.04798,-1.165 0.284941,-1.4019 0.604167,-0.6042 0.288871,0.7219 0.253344,1.5844 -0.07895,1.9167 -0.332292,0.3323 -0.568641,-0.2584 -0.52522,-1.3125 z m 1435.999953,-2 c 0.048,-1.165 0.285,-1.4019 0.6042,-0.6042 0.2889,0.7219 0.2534,1.5844 -0.079,1.9167 -0.3323,0.3323 -0.5687,-0.2584 -0.5253,-1.3125 z M 675.34281,1402.5 c 0.004,-4.4 0.17944,-6.0756 0.39069,-3.7236 0.21124,2.3521 0.20827,5.9521 -0.007,8 -0.21487,2.048 -0.38771,0.1236 -0.38408,-4.2764 z m 1313.73609,2.9167 c 0.048,-1.165 0.285,-1.4019 0.6042,-0.6042 0.2889,0.7219 0.2534,1.5844 -0.079,1.9167 -0.3323,0.3323 -0.5687,-0.2584 -0.5253,-1.3125 z m -346,-4 c 0.048,-1.165 0.285,-1.4019 0.6042,-0.6042 0.2889,0.7219 0.2534,1.5844 -0.079,1.9167 -0.3323,0.3323 -0.5687,-0.2584 -0.5253,-1.3125 z M 531.38176,1386.5 c 0.002,-6.6 0.16382,-9.1699 0.35965,-5.7108 0.19583,3.459 0.19422,8.859 -0.004,12 -0.19781,3.1409 -0.35803,0.3108 -0.35606,-6.2892 z m 962.93834,-1.5 c 0,-3.575 0.1815,-5.0375 0.4033,-3.25 0.2218,1.7875 0.2218,4.7125 0,6.5 -0.2218,1.7875 -0.4033,0.325 -0.4033,-3.25 z M 56.078947,1384.4167 c 0.04798,-1.165 0.284941,-1.4019 0.604167,-0.6042 0.288871,0.7219 0.253344,1.5844 -0.07895,1.9167 -0.332292,0.3323 -0.568641,-0.2584 -0.52522,-1.3125 z m 1934.999953,-1 c 0.048,-1.165 0.285,-1.4019 0.6042,-0.6042 0.2889,0.7219 0.2534,1.5844 -0.079,1.9167 -0.3323,0.3323 -0.5687,-0.2584 -0.5253,-1.3125 z M 1141.3362,1376 c 0,-4.125 0.1765,-5.8125 0.3923,-3.75 0.2157,2.0625 0.2157,5.4375 0,7.5 -0.2158,2.0625 -0.3923,0.375 -0.3923,-3.75 z m 209.0806,-14.5 c 10e-4,-10.45 0.1492,-14.5891 0.3293,-9.1981 0.1802,5.3911 0.1794,13.9411 0,19 -0.1811,5.059 -0.3285,0.6481 -0.3276,-9.8019 z m 641.6621,7.9167 c 0.048,-1.165 0.285,-1.4019 0.6042,-0.6042 0.2889,0.7219 0.2534,1.5844 -0.079,1.9167 -0.3323,0.3323 -0.5687,-0.2584 -0.5253,-1.3125 z M 1644.3946,1353.5 c 0,-7.7 0.1585,-10.7178 0.3488,-6.7062 0.1903,4.0115 0.189,10.3115 0,14 -0.1919,3.6884 -0.3476,0.4062 -0.346,-7.2938 z m -556.6446,9.7766 c 1.7875,-0.2218 4.7125,-0.2218 6.5,0 1.7875,0.2218 0.325,0.4033 -3.25,0.4033 -3.575,0 -5.0375,-0.1815 -3.25,-0.4033 z m 37.5,0.034 c 0.9625,-0.2516 2.5375,-0.2516 3.5,0 0.9625,0.2515 0.175,0.4573 -1.75,0.4573 -1.925,0 -2.7125,-0.2058 -1.75,-0.4573 z m -1071.171053,-4.894 c 0.04798,-1.165 0.284941,-1.4019 0.604167,-0.6042 0.288871,0.7219 0.253344,1.5844 -0.07895,1.9167 -0.332292,0.3323 -0.568641,-0.2584 -0.52522,-1.3125 z M 1993.1579,1356 c 0,-1.375 0.227,-1.9375 0.5044,-1.25 0.2774,0.6875 0.2774,1.8125 0,2.5 -0.2774,0.6875 -0.5044,0.125 -0.5044,-1.25 z M 53.078947,1345.4167 c 0.04798,-1.165 0.284941,-1.4019 0.604167,-0.6042 0.288871,0.7219 0.253344,1.5844 -0.07895,1.9167 -0.332292,0.3323 -0.568641,-0.2584 -0.52522,-1.3125 z M 881,1345.6224 c 0,-0.2076 0.7875,-0.9951 1.75,-1.75 1.58606,-1.2438 1.62143,-1.2085 0.37756,0.3776 -1.30637,1.6657 -2.12756,2.1955 -2.12756,1.3724 z m 1113.0789,-2.2057 c 0.048,-1.165 0.285,-1.4019 0.6042,-0.6042 0.2889,0.7219 0.2534,1.5844 -0.079,1.9167 -0.3323,0.3323 -0.5687,-0.2584 -0.5253,-1.3125 z M 891,1335.6224 c 0,-0.2076 0.7875,-0.9951 1.75,-1.75 1.58606,-1.2438 1.62143,-1.2085 0.37756,0.3776 -1.30637,1.6657 -2.12756,2.1955 -2.12756,1.3724 z m 1104.0789,-3.2057 c 0.048,-1.165 0.285,-1.4019 0.6042,-0.6042 0.2889,0.7219 0.2534,1.5844 -0.079,1.9167 -0.3323,0.3323 -0.5687,-0.2584 -0.5253,-1.3125 z m -1942.999953,-2 c 0.04798,-1.165 0.284941,-1.4019 0.604167,-0.6042 0.288871,0.7219 0.253344,1.5844 -0.07895,1.9167 -0.332292,0.3323 -0.568641,-0.2584 -0.52522,-1.3125 z m 1943.999953,-11 c 0.048,-1.165 0.285,-1.4019 0.6042,-0.6042 0.2889,0.7219 0.2534,1.5844 -0.079,1.9167 -0.3323,0.3323 -0.5687,-0.2584 -0.5253,-1.3125 z M 51.157895,1316 c 0,-1.375 0.226973,-1.9375 0.504386,-1.25 0.277412,0.6875 0.277412,1.8125 0,2.5 -0.277413,0.6875 -0.504386,0.125 -0.504386,-1.25 z M 1997.1579,1302 c 0,-1.375 0.227,-1.9375 0.5044,-1.25 0.2774,0.6875 0.2774,1.8125 0,2.5 -0.2774,0.6875 -0.5044,0.125 -0.5044,-1.25 z M 50.157895,1299 c 0,-1.375 0.226973,-1.9375 0.504386,-1.25 0.277412,0.6875 0.277412,1.8125 0,2.5 -0.277413,0.6875 -0.504386,0.125 -0.504386,-1.25 z M 1998.1579,1284 c 0,-1.375 0.227,-1.9375 0.5044,-1.25 0.2774,0.6875 0.2774,1.8125 0,2.5 -0.2774,0.6875 -0.5044,0.125 -0.5044,-1.25 z M 49.157895,1280 c 0,-1.375 0.226973,-1.9375 0.504386,-1.25 0.277412,0.6875 0.277412,1.8125 0,2.5 -0.277413,0.6875 -0.504386,0.125 -0.504386,-1.25 z m 990.654605,-2.6831 c 0.7219,-0.2889 1.5844,-0.2534 1.9167,0.079 0.3323,0.3323 -0.2584,0.5687 -1.3125,0.5253 -1.165,-0.048 -1.4019,-0.285 -0.6042,-0.6042 z m 33.9375,-3.0226 c 1.2375,-0.2384 3.2625,-0.2384 4.5,0 1.2375,0.2383 0.225,0.4333 -2.25,0.4333 -2.475,0 -3.4875,-0.195 -2.25,-0.4333 z m 39.0117,0 c 1.2439,-0.2392 3.0439,-0.2301 4,0.02 0.956,0.2503 -0.062,0.446 -2.2617,0.4349 -2.2,-0.011 -2.9823,-0.2159 -1.7383,-0.4551 z m 163.5482,-5.7927 c 0.01,-3.3 0.1923,-4.5294 0.4148,-2.7321 0.2226,1.7974 0.218,4.4974 -0.01,6 -0.2281,1.5027 -0.4102,0.032 -0.4046,-3.2679 z m 722.848,-3.5 c 0,-1.375 0.227,-1.9375 0.5044,-1.25 0.2774,0.6875 0.2774,1.8125 0,2.5 -0.2774,0.6875 -0.5044,0.125 -0.5044,-1.25 z M 48.157895,1262 c 0,-1.375 0.226973,-1.9375 0.504386,-1.25 0.277412,0.6875 0.277412,1.8125 0,2.5 -0.277413,0.6875 -0.504386,0.125 -0.504386,-1.25 z M 2000.0789,1247.4167 c 0.048,-1.165 0.285,-1.4019 0.6042,-0.6042 0.2889,0.7219 0.2534,1.5844 -0.079,1.9167 -0.3323,0.3323 -0.5687,-0.2584 -0.5253,-1.3125 z M 47.157895,1244 c 0,-1.375 0.226973,-1.9375 0.504386,-1.25 0.277412,0.6875 0.277412,1.8125 0,2.5 -0.277413,0.6875 -0.504386,0.125 -0.504386,-1.25 z M 2001.1579,1230 c 0,-1.375 0.227,-1.9375 0.5044,-1.25 0.2774,0.6875 0.2774,1.8125 0,2.5 -0.2774,0.6875 -0.5044,0.125 -0.5044,-1.25 z M 46.157895,1228 c 0,-1.375 0.226973,-1.9375 0.504386,-1.25 0.277412,0.6875 0.277412,1.8125 0,2.5 -0.277413,0.6875 -0.504386,0.125 -0.504386,-1.25 z m 823.999995,-3 c 0,-1.375 0.22698,-1.9375 0.50439,-1.25 0.27741,0.6875 0.27741,1.8125 0,2.5 -0.27741,0.6875 -0.50439,0.125 -0.50439,-1.25 z M 674.45024,1213.2517 674.5,1201.5 l 61.5,-0.011 61.5,-0.011 -61.21833,0.2691 -61.21833,0.269 -0.33143,11.4941 -0.33143,11.4942 z m 448.42216,9.9983 c -1.2438,-1.5861 -1.2085,-1.6214 0.3776,-0.3776 0.9625,0.7549 1.75,1.5424 1.75,1.75 0,0.8231 -0.8212,0.2933 -2.1276,-1.3724 z M 2002.232,1210 c 0,-1.925 0.2058,-2.7125 0.4573,-1.75 0.2516,0.9625 0.2516,2.5375 0,3.5 -0.2515,0.9625 -0.4573,0.175 -0.4573,-1.75 z M 45.194949,1208.5 c 0.02038,-1.65 0.244498,-2.2039 0.498042,-1.231 0.253543,0.973 0.236869,2.323 -0.03705,3 -0.273923,0.6771 -0.481368,-0.119 -0.460988,-1.769 z M 494.5,1202 l -36,-0.538 35.69098,-0.231 c 22.96777,-0.1487 35.9113,0.1255 36.30902,0.769 0.33992,0.55 0.47898,0.8961 0.30902,0.769 C 530.63906,1202.642 514.3,1202.2959 494.5,1202 Z m 500.3125,-7.6831 c 0.72187,-0.2889 1.58438,-0.2534 1.91667,0.079 0.33229,0.3323 -0.25834,0.5687 -1.3125,0.5253 -1.16495,-0.048 -1.4019,-0.285 -0.60417,-0.6042 z m 73,0 c 0.7219,-0.2889 1.5844,-0.2534 1.9167,0.079 0.3323,0.3323 -0.2584,0.5687 -1.3125,0.5253 -1.165,-0.048 -1.4019,-0.285 -0.6042,-0.6042 z m -55.0508,-1.0242 c 1.2439,-0.2392 3.0439,-0.2301 4,0.02 0.956,0.2503 -0.062,0.446 -2.2617,0.4349 -2.2,-0.011 -2.9823,-0.2159 -1.7383,-0.4551 z m 35.9883,0 c 1.2375,-0.2384 3.2625,-0.2384 4.5,0 1.2375,0.2383 0.225,0.4333 -2.25,0.4333 -2.475,0 -3.4875,-0.195 -2.25,-0.4333 z M 2003.2522,1181.5 c 0.011,-2.2 0.2159,-2.9823 0.4551,-1.7383 0.2392,1.2439 0.2301,3.0439 -0.02,4 -0.2503,0.956 -0.446,-0.062 -0.4349,-2.2617 z m -1959.000017,-2 c 0.0111,-2.2 0.215885,-2.9823 0.455078,-1.7383 0.239193,1.2439 0.230112,3.0439 -0.02018,4 -0.250292,0.956 -0.445996,-0.062 -0.434898,-2.2617 z M 2004.3201,1140 c 0,-3.575 0.1815,-5.0375 0.4033,-3.25 0.2218,1.7875 0.2218,4.7125 0,6.5 -0.2218,1.7875 -0.4033,0.325 -0.4033,-3.25 z m -1961.020436,0 c 0,-3.025 0.187466,-4.2625 0.41659,-2.75 0.229125,1.5125 0.229125,3.9875 0,5.5 -0.229124,1.5125 -0.41659,0.275 -0.41659,-2.75 z m 1180.572736,-3.75 c -1.2438,-1.5861 -1.2085,-1.6214 0.3776,-0.3776 0.9625,0.7549 1.75,1.5424 1.75,1.75 0,0.8231 -0.8212,0.2933 -2.1276,-1.3724 z M 870.19495,1120.5 c 0.0204,-1.65 0.2445,-2.2039 0.49804,-1.231 0.25354,0.973 0.23687,2.323 -0.0371,3 -0.27393,0.6771 -0.48137,-0.119 -0.46099,-1.769 z m -827.85214,-37 c 0.0036,-4.4 0.179441,-6.0756 0.390687,-3.7236 0.211245,2.3521 0.208273,5.9521 -0.0066,8 -0.214878,2.048 -0.387715,0.1236 -0.384083,-4.2764 z m 952.46969,-1.1831 c 0.72187,-0.2889 1.58438,-0.2534 1.91667,0.079 0.33229,0.3323 -0.25834,0.5687 -1.3125,0.5253 -1.16495,-0.048 -1.4019,-0.285 -0.60417,-0.6042 z m 11.9375,-0.9792 c 0.6875,-0.2774 1.8125,-0.2774 2.5,0 0.6875,0.2774 0.125,0.5044 -1.25,0.5044 -1.375,0 -1.9375,-0.227 -1.25,-0.5044 z m 16.0625,-1.0208 c 0.7219,-0.2889 1.5844,-0.2534 1.9167,0.079 0.3323,0.3323 -0.2584,0.5687 -1.3125,0.5253 -1.165,-0.048 -1.4019,-0.285 -0.6042,-0.6042 z m 61.9375,0.021 c 0.6875,-0.2774 1.8125,-0.2774 2.5,0 0.6875,0.2774 0.125,0.5044 -1.25,0.5044 -1.375,0 -1.9375,-0.227 -1.25,-0.5044 z m -42.481,-1.0307 c 0.973,-0.2535 2.323,-0.2369 3,0.037 0.6771,0.2739 -0.119,0.4813 -1.769,0.461 -1.65,-0.02 -2.2039,-0.2445 -1.231,-0.4981 z m 25.481,0.031 c 0.6875,-0.2774 1.8125,-0.2774 2.5,0 0.6875,0.2774 0.125,0.5044 -1.25,0.5044 -1.375,0 -1.9375,-0.227 -1.25,-0.5044 z M 2005.4357,1025.5 c 6e-4,-14.3 0.141,-20.0109 0.3121,-12.691 0.1711,7.32 0.1706,19.02 0,26 -0.1717,6.9801 -0.3117,0.991 -0.3111,-13.309 z m -1684.6232,13.8169 c 0.72187,-0.2889 1.58438,-0.2534 1.91667,0.079 0.33229,0.3323 -0.25834,0.5687 -1.3125,0.5253 -1.16495,-0.048 -1.4019,-0.285 -0.60417,-0.6042 z M 273.87244,1020.25 c -1.24387,-1.5861 -1.2085,-1.6214 0.37756,-0.3776 0.9625,0.7549 1.75,1.5424 1.75,1.75 0,0.8231 -0.82119,0.2933 -2.12756,-1.3724 z M 389,1018.6871 c 0,-0.1721 1.4625,-1.6346 3.25,-3.25 l 3.25,-2.9371 -2.93709,3.25 C 389.82513,1018.7795 389,1019.4597 389,1018.6871 Z M 267.87244,1014.25 c -1.24387,-1.5861 -1.2085,-1.6214 0.37756,-0.3776 0.9625,0.7549 1.75,1.5424 1.75,1.75 0,0.8231 -0.82119,0.2933 -2.12756,-1.3724 z m 406.56,-22.25 c 0,-13.475 0.14155,-18.9875 0.31456,-12.25 0.17301,6.7375 0.17301,17.7625 0,24.5 -0.17301,6.7375 -0.31456,1.225 -0.31456,-12.25 z M 247.15789,968 c 0,-1.375 0.22698,-1.9375 0.50439,-1.25 0.27741,0.6875 0.27741,1.8125 0,2.5 -0.27741,0.6875 -0.50439,0.125 -0.50439,-1.25 z m 284.65461,-0.68311 c 0.72187,-0.28887 1.58438,-0.25335 1.91667,0.0789 0.33229,0.33229 -0.25834,0.56864 -1.3125,0.52522 -1.16495,-0.048 -1.4019,-0.28494 -0.60417,-0.60416 z M 42.360496,957 c 0,-5.225 0.168545,-7.3625 0.374543,-4.75 0.205999,2.6125 0.205999,6.8875 0,9.5 -0.205998,2.6125 -0.374543,0.475 -0.374543,-4.75 z m 372.939164,0 c 0,-3.025 0.18747,-4.2625 0.41659,-2.75 0.22913,1.5125 0.22913,3.9875 0,5.5 -0.22912,1.5125 -0.41659,0.275 -0.41659,-2.75 z M 247.15789,944 c 0,-1.375 0.22698,-1.9375 0.50439,-1.25 0.27741,0.6875 0.27741,1.8125 0,2.5 -0.27741,0.6875 -0.50439,0.125 -0.50439,-1.25 z M 2004.3281,910.5 c 0,-3.85 0.1852,-5.30246 0.4017,-3.2277 0.2165,2.07477 0.2128,5.22477 -0.01,7 -0.2209,1.77524 -0.398,0.0777 -0.3936,-3.7723 z M 43.299664,902 c 0,-3.025 0.187466,-4.2625 0.41659,-2.75 0.229125,1.5125 0.229125,3.9875 0,5.5 -0.229124,1.5125 -0.41659,0.275 -0.41659,-2.75 z M 321.7277,875.27827 c 1.77523,-0.22091 4.92523,-0.22454 7,-0.008 2.07476,0.21648 0.6223,0.39722 -3.2277,0.40166 -3.85,0.004 -5.54754,-0.17268 -3.7723,-0.39359 z M 2003.2724,868 c 0,-2.475 0.195,-3.4875 0.4333,-2.25 0.2384,1.2375 0.2384,3.2625 0,4.5 -0.2383,1.2375 -0.4333,0.225 -0.4333,-2.25 z M 44.252183,865.5 c 0.0111,-2.2 0.215885,-2.98225 0.455078,-1.73834 0.239193,1.24391 0.230112,3.04391 -0.02018,4 C 44.436788,868.71775 44.241084,867.7 44.252183,865.5 Z m 0.942766,-25 c 0.02038,-1.65 0.244498,-2.20394 0.498042,-1.23097 0.253543,0.97297 0.236869,2.32297 -0.03705,3 C 45.382014,842.94606 45.174569,842.15 45.194949,840.5 Z M 2002.232,839 c 0,-1.925 0.2058,-2.7125 0.4573,-1.75 0.2516,0.9625 0.2516,2.5375 0,3.5 -0.2515,0.9625 -0.4573,0.175 -0.4573,-1.75 z M 46.157895,821 c 0,-1.375 0.226973,-1.9375 0.504386,-1.25 0.277412,0.6875 0.277412,1.8125 0,2.5 -0.277413,0.6875 -0.504386,0.125 -0.504386,-1.25 z M 2001.1949,818.5 c 0.02,-1.65 0.2445,-2.20394 0.4981,-1.23097 0.2535,0.97297 0.2369,2.32297 -0.037,3 -0.2739,0.67703 -0.4813,-0.11903 -0.461,-1.76903 z M 47.157895,802 c 0,-1.375 0.226973,-1.9375 0.504386,-1.25 0.277412,0.6875 0.277412,1.8125 0,2.5 -0.277413,0.6875 -0.504386,0.125 -0.504386,-1.25 z M 2000.1579,800 c 0,-1.375 0.227,-1.9375 0.5044,-1.25 0.2774,0.6875 0.2774,1.8125 0,2.5 -0.2774,0.6875 -0.5044,0.125 -0.5044,-1.25 z M 48.157895,783 c 0,-1.375 0.226973,-1.9375 0.504386,-1.25 0.277412,0.6875 0.277412,1.8125 0,2.5 -0.277413,0.6875 -0.504386,0.125 -0.504386,-1.25 z M 1999.1579,781 c 0,-1.375 0.227,-1.9375 0.5044,-1.25 0.2774,0.6875 0.2774,1.8125 0,2.5 -0.2774,0.6875 -0.5044,0.125 -0.5044,-1.25 z M 49.157895,766 c 0,-1.375 0.226973,-1.9375 0.504386,-1.25 0.277412,0.6875 0.277412,1.8125 0,2.5 -0.277413,0.6875 -0.504386,0.125 -0.504386,-1.25 z M 1998.1579,763 c 0,-1.375 0.227,-1.9375 0.5044,-1.25 0.2774,0.6875 0.2774,1.8125 0,2.5 -0.2774,0.6875 -0.5044,0.125 -0.5044,-1.25 z M 50.078947,749.41667 c 0.04798,-1.16495 0.284941,-1.4019 0.604167,-0.60417 0.288871,0.72187 0.253344,1.58438 -0.07895,1.91667 -0.332292,0.33229 -0.568641,-0.25834 -0.52522,-1.3125 z M 1997.1579,745 c 0,-1.375 0.227,-1.9375 0.5044,-1.25 0.2774,0.6875 0.2774,1.8125 0,2.5 -0.2774,0.6875 -0.5044,0.125 -0.5044,-1.25 z M 51.157895,733 c 0,-1.375 0.226973,-1.9375 0.504386,-1.25 0.277412,0.6875 0.277412,1.8125 0,2.5 -0.277413,0.6875 -0.504386,0.125 -0.504386,-1.25 z M 1996.1579,729 c 0,-1.375 0.227,-1.9375 0.5044,-1.25 0.2774,0.6875 0.2774,1.8125 0,2.5 -0.2774,0.6875 -0.5044,0.125 -0.5044,-1.25 z M 52.157895,718 c 0,-1.375 0.226973,-1.9375 0.504386,-1.25 0.277412,0.6875 0.277412,1.8125 0,2.5 -0.277413,0.6875 -0.504386,0.125 -0.504386,-1.25 z M 1995.0789,715.41667 c 0.048,-1.16495 0.285,-1.4019 0.6042,-0.60417 0.2889,0.72187 0.2534,1.58438 -0.079,1.91667 -0.3323,0.33229 -0.5687,-0.25834 -0.5253,-1.3125 z m -1941.999953,-12 c 0.04798,-1.16495 0.284941,-1.4019 0.604167,-0.60417 0.288871,0.72187 0.253344,1.58438 -0.07895,1.91667 -0.332292,0.33229 -0.568641,-0.25834 -0.52522,-1.3125 z m 1940.999953,-1 c 0.048,-1.16495 0.285,-1.4019 0.6042,-0.60417 0.2889,0.72187 0.2534,1.58438 -0.079,1.91667 -0.3323,0.33229 -0.5687,-0.25834 -0.5253,-1.3125 z m -1,-13 c 0.048,-1.16495 0.285,-1.4019 0.6042,-0.60417 0.2889,0.72187 0.2534,1.58438 -0.079,1.91667 -0.3323,0.33229 -0.5687,-0.25834 -0.5253,-1.3125 z m -1938.999953,-1 c 0.04798,-1.16495 0.284941,-1.4019 0.604167,-0.60417 0.288871,0.72187 0.253344,1.58438 -0.07895,1.91667 -0.332292,0.33229 -0.568641,-0.25834 -0.52522,-1.3125 z m 1,-13 c 0.04798,-1.16495 0.284941,-1.4019 0.604167,-0.60417 0.288871,0.72187 0.253344,1.58438 -0.07895,1.91667 -0.332292,0.33229 -0.568641,-0.25834 -0.52522,-1.3125 z m 1935.999953,-12 c 0.048,-1.16495 0.285,-1.4019 0.6042,-0.60417 0.2889,0.72187 0.2534,1.58438 -0.079,1.91667 -0.3323,0.33229 -0.5687,-0.25834 -0.5253,-1.3125 z m -1934.999953,-1 c 0.04798,-1.16495 0.284941,-1.4019 0.604167,-0.60417 0.288871,0.72187 0.253344,1.58438 -0.07895,1.91667 -0.332292,0.33229 -0.568641,-0.25834 -0.52522,-1.3125 z m 2,-20 c 0.04798,-1.16495 0.284941,-1.4019 0.604167,-0.60417 0.288871,0.72187 0.253344,1.58438 -0.07895,1.91667 -0.332292,0.33229 -0.568641,-0.25834 -0.52522,-1.3125 z m 1,-10 c 0.04798,-1.16495 0.284941,-1.4019 0.604167,-0.60417 0.288871,0.72187 0.253344,1.58438 -0.07895,1.91667 -0.332292,0.33229 -0.568641,-0.25834 -0.52522,-1.3125 z m 1,-11 c 0.04798,-1.16495 0.284941,-1.4019 0.604167,-0.60417 0.288871,0.72187 0.253344,1.58438 -0.07895,1.91667 -0.332292,0.33229 -0.568641,-0.25834 -0.52522,-1.3125 z m 1926.999953,-3 c 0.048,-1.16495 0.285,-1.4019 0.6042,-0.60417 0.2889,0.72187 0.2534,1.58438 -0.079,1.91667 -0.3323,0.33229 -0.5687,-0.25834 -0.5253,-1.3125 z m -1925.999953,-8 c 0.04798,-1.16495 0.284941,-1.4019 0.604167,-0.60417 0.288871,0.72187 0.253344,1.58438 -0.07895,1.91667 -0.332292,0.33229 -0.568641,-0.25834 -0.52522,-1.3125 z M 172.5,173 c 3.26557,-3.3 6.16239,-6 6.43739,-6 0.275,0 -2.17182,2.7 -5.43739,6 -3.26557,3.3 -6.16239,6 -6.43739,6 -0.275,0 2.17182,-2.7 5.43739,-6 z M 625.8125,58.316886 c 0.72187,-0.288871 1.58438,-0.253344 1.91667,0.07895 0.33229,0.332292 -0.25834,0.568641 -1.3125,0.52522 -1.16495,-0.04798 -1.4019,-0.284941 -0.60417,-0.604167 z m 22,-2 c 0.72187,-0.288871 1.58438,-0.253344 1.91667,0.07895 0.33229,0.332292 -0.25834,0.568641 -1.3125,0.52522 -1.16495,-0.04798 -1.4019,-0.284941 -0.60417,-0.604167 z m 752,0 c 0.7219,-0.288871 1.5844,-0.253344 1.9167,0.07895 0.3323,0.332292 -0.2584,0.568641 -1.3125,0.52522 -1.165,-0.04798 -1.4019,-0.284941 -0.6042,-0.604167 z m -740,-1 c 0.72187,-0.288871 1.58438,-0.253344 1.91667,0.07895 0.33229,0.332292 -0.25834,0.568641 -1.3125,0.52522 -1.16495,-0.04798 -1.4019,-0.284941 -0.60417,-0.604167 z m 728,0 c 0.7219,-0.288871 1.5844,-0.253344 1.9167,0.07895 0.3323,0.332292 -0.2584,0.568641 -1.3125,0.52522 -1.165,-0.04798 -1.4019,-0.284941 -0.6042,-0.604167 z m -716,-1 c 0.72187,-0.288871 1.58438,-0.253344 1.91667,0.07895 0.33229,0.332292 -0.25834,0.568641 -1.3125,0.52522 -1.16495,-0.04798 -1.4019,-0.284941 -0.60417,-0.604167 z m 703,0 c 0.7219,-0.288871 1.5844,-0.253344 1.9167,0.07895 0.3323,0.332292 -0.2584,0.568641 -1.3125,0.52522 -1.165,-0.04798 -1.4019,-0.284941 -0.6042,-0.604167 z m -689,-1 c 0.72187,-0.288871 1.58438,-0.253344 1.91667,0.07895 0.33229,0.332292 -0.25834,0.568641 -1.3125,0.52522 -1.16495,-0.04798 -1.4019,-0.284941 -0.60417,-0.604167 z m 676,0 c 0.7219,-0.288871 1.5844,-0.253344 1.9167,0.07895 0.3323,0.332292 -0.2584,0.568641 -1.3125,0.52522 -1.165,-0.04798 -1.4019,-0.284941 -0.6042,-0.604167 z m -662,-1 c 0.72187,-0.288871 1.58438,-0.253344 1.91667,0.07895 0.33229,0.332292 -0.25834,0.568641 -1.3125,0.52522 -1.16495,-0.04798 -1.4019,-0.284941 -0.60417,-0.604167 z m 648,0 c 0.7219,-0.288871 1.5844,-0.253344 1.9167,0.07895 0.3323,0.332292 -0.2584,0.568641 -1.3125,0.52522 -1.165,-0.04798 -1.4019,-0.284941 -0.6042,-0.604167 z m -633,-1 c 0.72187,-0.288871 1.58438,-0.253344 1.91667,0.07895 0.33229,0.332292 -0.25834,0.568641 -1.3125,0.52522 -1.16495,-0.04798 -1.4019,-0.284941 -0.60417,-0.604167 z m 618,0 c 0.7219,-0.288871 1.5844,-0.253344 1.9167,0.07895 0.3323,0.332292 -0.2584,0.568641 -1.3125,0.52522 -1.165,-0.04798 -1.4019,-0.284941 -0.6042,-0.604167 z M 730.75,50.337719 c 0.6875,-0.277412 1.8125,-0.277412 2.5,0 0.6875,0.277413 0.125,0.504386 -1.25,0.504386 -1.375,0 -1.9375,-0.226973 -1.25,-0.504386 z m 586,0 c 0.6875,-0.277412 1.8125,-0.277412 2.5,0 0.6875,0.277413 0.125,0.504386 -1.25,0.504386 -1.375,0 -1.9375,-0.226973 -1.25,-0.504386 z m -569,-1 c 0.6875,-0.277412 1.8125,-0.277412 2.5,0 0.6875,0.277413 0.125,0.504386 -1.25,0.504386 -1.375,0 -1.9375,-0.226973 -1.25,-0.504386 z m 552,0 c 0.6875,-0.277412 1.8125,-0.277412 2.5,0 0.6875,0.277413 0.125,0.504386 -1.25,0.504386 -1.375,0 -1.9375,-0.226973 -1.25,-0.504386 z m -535,-1 c 0.6875,-0.277412 1.8125,-0.277412 2.5,0 0.6875,0.277413 0.125,0.504386 -1.25,0.504386 -1.375,0 -1.9375,-0.226973 -1.25,-0.504386 z m 517,0 c 0.6875,-0.277412 1.8125,-0.277412 2.5,0 0.6875,0.277413 0.125,0.504386 -1.25,0.504386 -1.375,0 -1.9375,-0.226973 -1.25,-0.504386 z m -499,-1 c 0.6875,-0.277412 1.8125,-0.277412 2.5,0 0.6875,0.277413 0.125,0.504386 -1.25,0.504386 -1.375,0 -1.9375,-0.226973 -1.25,-0.504386 z m 481,0 c 0.6875,-0.277412 1.8125,-0.277412 2.5,0 0.6875,0.277413 0.125,0.504386 -1.25,0.504386 -1.375,0 -1.9375,-0.226973 -1.25,-0.504386 z m -462,-1 c 0.6875,-0.277412 1.8125,-0.277412 2.5,0 0.6875,0.277413 0.125,0.504386 -1.25,0.504386 -1.375,0 -1.9375,-0.226973 -1.25,-0.504386 z m 442.519,-0.03071 c 0.973,-0.253543 2.323,-0.236869 3,0.03705 0.6771,0.273923 -0.119,0.481368 -1.769,0.460988 -1.65,-0.02038 -2.2039,-0.244498 -1.231,-0.498042 z m -420.99997,-1 c 0.97297,-0.253543 2.32297,-0.236869 3,0.03705 0.67703,0.273923 -0.11903,0.481368 -1.76903,0.460988 -1.65,-0.02038 -2.20394,-0.244498 -1.23097,-0.498042 z m 400.48097,0.03071 c 0.6875,-0.277412 1.8125,-0.277412 2.5,0 0.6875,0.277413 0.125,0.504386 -1.25,0.504386 -1.375,0 -1.9375,-0.226973 -1.25,-0.504386 z m -376.5,-1.027045 c 0.9625,-0.251527 2.5375,-0.251527 3.5,0 0.9625,0.251528 0.175,0.457323 -1.75,0.457323 -1.925,0 -2.7125,-0.205795 -1.75,-0.457323 z m 349,0 c 0.9625,-0.251527 2.5375,-0.251527 3.5,0 0.9625,0.251528 0.175,0.457323 -1.75,0.457323 -1.925,0 -2.7125,-0.205795 -1.75,-0.457323 z M 879.76166,43.292739 c 1.24391,-0.239193 3.04391,-0.230112 4,0.02018 0.95609,0.250292 -0.0617,0.445996 -2.26166,0.434897 -2.2,-0.0111 -2.98225,-0.215885 -1.73834,-0.455077 z m 279.98834,0.0015 c 1.2375,-0.238353 3.2625,-0.238353 4.5,0 1.2375,0.238353 0.225,0.433369 -2.25,0.433369 -2.475,0 -3.4875,-0.195016 -2.25,-0.433369 z m -236.5,-1.010521 c 1.5125,-0.229125 3.9875,-0.229125 5.5,0 1.5125,0.229124 0.275,0.41659 -2.75,0.41659 -3.025,0 -4.2625,-0.187466 -2.75,-0.41659 z m 180.5264,-0.01724 c 2.3521,-0.211245 5.9521,-0.208273 8,0.0066 2.048,0.214878 0.1236,0.387715 -4.2764,0.384083 -4.4,-0.0036 -6.0756,-0.179441 -3.7236,-0.390687 z"
         id="path8" />
      <path
         style="fill:#feb78b"
         d="m 939.76791,2004.2753 c 1.79735,-0.2226 4.49735,-0.218 6,0.01 1.50265,0.2281 0.0321,0.4102 -3.26791,0.4046 -3.3,-0.01 -4.52944,-0.1923 -2.73209,-0.4148 z m 163.99999,0 c 1.7974,-0.2226 4.4974,-0.218 6,0.01 1.5027,0.2281 0.032,0.4102 -3.2679,0.4046 -3.3,-0.01 -4.5294,-0.1923 -2.7321,-0.4148 z M 875.25,2003.3107 c 0.9625,-0.2516 2.5375,-0.2516 3.5,0 0.9625,0.2515 0.175,0.4573 -1.75,0.4573 -1.925,0 -2.7125,-0.2058 -1.75,-0.4573 z m 295,0 c 0.9625,-0.2516 2.5375,-0.2516 3.5,0 0.9625,0.2515 0.175,0.4573 -1.75,0.4573 -1.925,0 -2.7125,-0.2058 -1.75,-0.4573 z m -329.5,-0.973 c 0.6875,-0.2774 1.8125,-0.2774 2.5,0 0.6875,0.2774 0.125,0.5044 -1.25,0.5044 -1.375,0 -1.9375,-0.227 -1.25,-0.5044 z m 365.0625,-0.021 c 0.7219,-0.2889 1.5844,-0.2534 1.9167,0.079 0.3323,0.3323 -0.2584,0.5687 -1.3125,0.5253 -1.165,-0.048 -1.4019,-0.285 -0.6042,-0.6042 z m 82,-4 c 0.7219,-0.2889 1.5844,-0.2534 1.9167,0.079 0.3323,0.3323 -0.2584,0.5687 -1.3125,0.5253 -1.165,-0.048 -1.4019,-0.285 -0.6042,-0.6042 z M 1872,1876.6871 c 0,-0.1721 1.4625,-1.6346 3.25,-3.25 l 3.25,-2.9371 -2.9371,3.25 c -2.7378,3.0295 -3.5629,3.7097 -3.5629,2.9371 z M 165.87244,1867.25 c -1.24387,-1.5861 -1.2085,-1.6214 0.37756,-0.3776 0.9625,0.7549 1.75,1.5424 1.75,1.75 0,0.8231 -0.82119,0.2933 -2.12756,-1.3724 z M 993.8125,1593.3169 c 0.72187,-0.2889 1.58438,-0.2534 1.91667,0.079 0.33229,0.3323 -0.25834,0.5687 -1.3125,0.5253 -1.16495,-0.048 -1.4019,-0.285 -0.60417,-0.6042 z m -267,-2 c 0.72187,-0.2889 1.58438,-0.2534 1.91667,0.079 0.33229,0.3323 -0.25834,0.5687 -1.3125,0.5253 -1.16495,-0.048 -1.4019,-0.285 -0.60417,-0.6042 z m 939.9375,-9.0226 c 1.2375,-0.2384 3.2625,-0.2384 4.5,0 1.2375,0.2383 0.225,0.4333 -2.25,0.4333 -2.475,0 -3.4875,-0.195 -2.25,-0.4333 z M 1143.1949,1564.5 c 0.02,-1.65 0.2445,-2.2039 0.4981,-1.231 0.2535,0.973 0.2369,2.323 -0.037,3 -0.2739,0.6771 -0.4813,-0.119 -0.461,-1.769 z m 505.884,-20.0833 c 0.048,-1.165 0.285,-1.4019 0.6042,-0.6042 0.2889,0.7219 0.2534,1.5844 -0.079,1.9167 -0.3323,0.3323 -0.5687,-0.2584 -0.5253,-1.3125 z m -599.3512,-53.1384 c 1.7752,-0.2209 4.9252,-0.2246 7,-0.01 2.0748,0.2165 0.6223,0.3972 -3.2277,0.4017 -3.85,0 -5.5475,-0.1727 -3.7723,-0.3936 z M 731.75,1478.3377 c 0.6875,-0.2774 1.8125,-0.2774 2.5,0 0.6875,0.2774 0.125,0.5044 -1.25,0.5044 -1.375,0 -1.9375,-0.227 -1.25,-0.5044 z m 26,0 c 0.6875,-0.2774 1.8125,-0.2774 2.5,0 0.6875,0.2774 0.125,0.5044 -1.25,0.5044 -1.375,0 -1.9375,-0.227 -1.25,-0.5044 z m 762.1224,-16.0877 c -1.2438,-1.5861 -1.2085,-1.6214 0.3776,-0.3776 0.9625,0.7549 1.75,1.5424 1.75,1.75 0,0.8231 -0.8212,0.2933 -2.1276,-1.3724 z M 983.19495,1430.5 c 0.0204,-1.65 0.2445,-2.2039 0.49804,-1.231 0.25354,0.973 0.23687,2.323 -0.0371,3 -0.27393,0.6771 -0.48137,-0.119 -0.46099,-1.769 z m 156.88395,-14.0833 c 0.048,-1.165 0.285,-1.4019 0.6042,-0.6042 0.2889,0.7219 0.2534,1.5844 -0.079,1.9167 -0.3323,0.3323 -0.5687,-0.2584 -0.5253,-1.3125 z M 531.32007,1404 c 0,-3.575 0.1815,-5.0375 0.40333,-3.25 0.22182,1.7875 0.22182,4.7125 0,6.5 -0.22183,1.7875 -0.40333,0.325 -0.40333,-3.25 z m 1111.75883,-5.5833 c 0.048,-1.165 0.285,-1.4019 0.6042,-0.6042 0.2889,0.7219 0.2534,1.5844 -0.079,1.9167 -0.3323,0.3323 -0.5687,-0.2584 -0.5253,-1.3125 z M 1350.3605,1389 c 0,-5.225 0.1685,-7.3625 0.3745,-4.75 0.206,2.6125 0.206,6.8875 0,9.5 -0.206,2.6125 -0.3745,0.475 -0.3745,-4.75 z m -675.06084,1 c 0,-3.025 0.18747,-4.2625 0.41659,-2.75 0.22913,1.5125 0.22913,3.9875 0,5.5 -0.22912,1.5125 -0.41659,0.275 -0.41659,-2.75 z m 602.09204,-23 c 0,-7.425 0.1574,-10.4625 0.3499,-6.75 0.1924,3.7125 0.1924,9.7875 0,13.5 -0.1925,3.7125 -0.3499,0.675 -0.3499,-6.75 z m 216.8807,8 c 0,-2.475 0.195,-3.4875 0.4333,-2.25 0.2384,1.2375 0.2384,3.2625 0,4.5 -0.2383,1.2375 -0.4333,0.225 -0.4333,-2.25 z m -353.1145,-8 c 0,-1.375 0.227,-1.9375 0.5044,-1.25 0.2774,0.6875 0.2774,1.8125 0,2.5 -0.2774,0.6875 -0.5044,0.125 -0.5044,-1.25 z m -37.9517,-3.7406 c 3.6885,-0.1918 9.9885,-0.1931 14,0 4.0116,0.1903 0.9938,0.3473 -6.7062,0.3488 -7.7,0 -10.9822,-0.1541 -7.2938,-0.346 z M 1644.4347,1315 c 0,-14.025 0.1406,-19.7625 0.3125,-12.75 0.1719,7.0125 0.1719,18.4875 0,25.5 -0.1719,7.0125 -0.3125,1.275 -0.3125,-12.75 z M 49.078947,1276.4167 c 0.04798,-1.165 0.284941,-1.4019 0.604167,-0.6042 0.288871,0.7219 0.253344,1.5844 -0.07895,1.9167 -0.332292,0.3323 -0.568641,-0.2584 -0.52522,-1.3125 z m 1020.733553,-2.0998 c 0.7219,-0.2889 1.5844,-0.2534 1.9167,0.079 0.3323,0.3323 -0.2584,0.5687 -1.3125,0.5253 -1.165,-0.048 -1.4019,-0.285 -0.6042,-0.6042 z m 49,0 c 0.7219,-0.2889 1.5844,-0.2534 1.9167,0.079 0.3323,0.3323 -0.2584,0.5687 -1.3125,0.5253 -1.165,-0.048 -1.4019,-0.285 -0.6042,-0.6042 z M 1276.1579,1261 c 0,-1.375 0.227,-1.9375 0.5044,-1.25 0.2774,0.6875 0.2774,1.8125 0,2.5 -0.2774,0.6875 -0.5044,0.125 -0.5044,-1.25 z M 48.078947,1258.4167 c 0.04798,-1.165 0.284941,-1.4019 0.604167,-0.6042 0.288871,0.7219 0.253344,1.5844 -0.07895,1.9167 -0.332292,0.3323 -0.568641,-0.2584 -0.52522,-1.3125 z M 530.39994,1217.5 c 10e-4,-8.25 0.15629,-11.4919 0.34419,-7.2043 0.1879,4.2876 0.18676,11.0376 -0.003,15 -0.1893,3.9624 -0.34304,0.4543 -0.34164,-7.7957 z m 1471.67896,-12.0833 c 0.048,-1.165 0.285,-1.4019 0.6042,-0.6042 0.2889,0.7219 0.2534,1.5844 -0.079,1.9167 -0.3323,0.3323 -0.5687,-0.2584 -0.5253,-1.3125 z m -1956.999953,-1 c 0.04798,-1.165 0.284941,-1.4019 0.604167,-0.6042 0.288871,0.7219 0.253344,1.5844 -0.07895,1.9167 -0.332292,0.3323 -0.568641,-0.2584 -0.52522,-1.3125 z m 974.682753,-11.124 c 1.2439,-0.2392 3.0439,-0.2301 4,0.02 0.956,0.2503 -0.062,0.446 -2.2617,0.4349 -2.2,-0.011 -2.9823,-0.2159 -1.7383,-0.4551 z m 22.4883,0.018 c 0.9625,-0.2516 2.5375,-0.2516 3.5,0 0.9625,0.2515 0.175,0.4573 -1.75,0.4573 -1.925,0 -2.7125,-0.2058 -1.75,-0.4573 z M 2003.1579,1176 c 0,-1.375 0.227,-1.9375 0.5044,-1.25 0.2774,0.6875 0.2774,1.8125 0,2.5 -0.2774,0.6875 -0.5044,0.125 -0.5044,-1.25 z M 44.157895,1174 c 0,-1.375 0.226973,-1.9375 0.504386,-1.25 0.277412,0.6875 0.277412,1.8125 0,2.5 -0.277413,0.6875 -0.504386,0.125 -0.504386,-1.25 z m -0.962946,-41.5 c 0.02038,-1.65 0.244498,-2.2039 0.498042,-1.231 0.253543,0.973 0.236869,2.323 -0.03705,3 -0.273923,0.6771 -0.481368,-0.119 -0.460988,-1.769 z M 2004.2724,1130 c 0,-2.475 0.195,-3.4875 0.4333,-2.25 0.2384,1.2375 0.2384,3.2625 0,4.5 -0.2383,1.2375 -0.4333,0.225 -0.4333,-2.25 z m -984.4599,-49.6831 c 0.7219,-0.2889 1.5844,-0.2534 1.9167,0.079 0.3323,0.3323 -0.2584,0.5687 -1.3125,0.5253 -1.165,-0.048 -1.4019,-0.285 -0.6042,-0.6042 z m 19,-1 c 0.7219,-0.2889 1.5844,-0.2534 1.9167,0.079 0.3323,0.3323 -0.2584,0.5687 -1.3125,0.5253 -1.165,-0.048 -1.4019,-0.285 -0.6042,-0.6042 z M 42.272364,1072 c 0,-2.475 0.195016,-3.4875 0.433369,-2.25 0.238353,1.2375 0.238353,3.2625 0,4.5 -0.238353,1.2375 -0.433369,0.225 -0.433369,-2.25 z m 0.01365,-101.5 c 0.0075,-2.75 0.201713,-3.75631 0.431567,-2.23625 0.229855,1.52006 0.223712,3.77006 -0.01365,5 -0.237362,1.22994 -0.425424,-0.0137 -0.417917,-2.76375 z m 631.999996,-7 c 0.008,-2.75 0.20172,-3.75631 0.43157,-2.23625 0.22986,1.52006 0.22371,3.77006 -0.0136,5 -0.23736,1.22994 -0.42542,-0.0137 -0.41792,-2.76375 z m -259.20706,-0.0833 c 0.048,-1.16495 0.28494,-1.4019 0.60416,-0.60417 0.28887,0.72187 0.25335,1.58438 -0.0789,1.91667 -0.33229,0.33229 -0.56864,-0.25834 -0.52522,-1.3125 z M 671.8125,943.31689 c 0.72187,-0.28887 1.58438,-0.25335 1.91667,0.0789 0.33229,0.33229 -0.25834,0.56864 -1.3125,0.52522 -1.16495,-0.048 -1.4019,-0.28494 -0.60417,-0.60416 z M 2004.2522,920.5 c 0.011,-2.2 0.2159,-2.98225 0.4551,-1.73834 0.2392,1.24391 0.2301,3.04391 -0.02,4 -0.2503,0.95609 -0.446,-0.0617 -0.4349,-2.26166 z M 43.194949,909.5 c 0.02038,-1.65 0.244498,-2.20394 0.498042,-1.23097 0.253543,0.97297 0.236869,2.32297 -0.03705,3 C 43.382014,911.94606 43.174569,911.15 43.194949,909.5 Z M 333.26903,875.30701 c 0.97297,-0.25354 2.32297,-0.23687 3,0.0371 0.67703,0.27393 -0.11903,0.48137 -1.76903,0.46099 -1.65,-0.0204 -2.20394,-0.2445 -1.23097,-0.49804 z M 2003.1579,874 c 0,-1.375 0.227,-1.9375 0.5044,-1.25 0.2774,0.6875 0.2774,1.8125 0,2.5 -0.2774,0.6875 -0.5044,0.125 -0.5044,-1.25 z M 44.157895,871 c 0,-1.375 0.226973,-1.9375 0.504386,-1.25 0.277412,0.6875 0.277412,1.8125 0,2.5 -0.277413,0.6875 -0.504386,0.125 -0.504386,-1.25 z m 0.921052,-26.58333 c 0.04798,-1.16495 0.284941,-1.4019 0.604167,-0.60417 0.288871,0.72187 0.253344,1.58438 -0.07895,1.91667 -0.332292,0.33229 -0.568641,-0.25834 -0.52522,-1.3125 z m 1956.999953,-1 c 0.048,-1.16495 0.285,-1.4019 0.6042,-0.60417 0.2889,0.72187 0.2534,1.58438 -0.079,1.91667 -0.3323,0.33229 -0.5687,-0.25834 -0.5253,-1.3125 z m -1955.999953,-19 c 0.04798,-1.16495 0.284941,-1.4019 0.604167,-0.60417 0.288871,0.72187 0.253344,1.58438 -0.07895,1.91667 -0.332292,0.33229 -0.568641,-0.25834 -0.52522,-1.3125 z m 1952.999953,-40 c 0.048,-1.16495 0.285,-1.4019 0.6042,-0.60417 0.2889,0.72187 0.2534,1.58438 -0.079,1.91667 -0.3323,0.33229 -0.5687,-0.25834 -0.5253,-1.3125 z M 734.8125,50.316886 c 0.72187,-0.288871 1.58438,-0.253344 1.91667,0.07895 0.33229,0.332292 -0.25834,0.568641 -1.3125,0.52522 -1.16495,-0.04798 -1.4019,-0.284941 -0.60417,-0.604167 z m 71,-4 c 0.72187,-0.288871 1.58438,-0.253344 1.91667,0.07895 0.33229,0.332292 -0.25834,0.568641 -1.3125,0.52522 -1.16495,-0.04798 -1.4019,-0.284941 -0.60417,-0.604167 z m 22,-1 c 0.72187,-0.288871 1.58438,-0.253344 1.91667,0.07895 0.33229,0.332292 -0.25834,0.568641 -1.3125,0.52522 -1.16495,-0.04798 -1.4019,-0.284941 -0.60417,-0.604167 z m 391.9375,0.02083 c 0.6875,-0.277412 1.8125,-0.277412 2.5,0 0.6875,0.277413 0.125,0.504386 -1.25,0.504386 -1.375,0 -1.9375,-0.226973 -1.25,-0.504386 z m -366.9375,-1.02083 c 0.72187,-0.288871 1.58438,-0.253344 1.91667,0.07895 0.33229,0.332292 -0.25834,0.568641 -1.3125,0.52522 -1.16495,-0.04798 -1.4019,-0.284941 -0.60417,-0.604167 z m 340,0 c 0.7219,-0.288871 1.5844,-0.253344 1.9167,0.07895 0.3323,0.332292 -0.2584,0.568641 -1.3125,0.52522 -1.165,-0.04798 -1.4019,-0.284941 -0.6042,-0.604167 z M 885.75,43.337719 c 0.6875,-0.277412 1.8125,-0.277412 2.5,0 0.6875,0.277413 0.125,0.504386 -1.25,0.504386 -1.375,0 -1.9375,-0.226973 -1.25,-0.504386 z m 268.519,-0.03071 c 0.973,-0.253543 2.323,-0.236869 3,0.03705 0.6771,0.273923 -0.119,0.481368 -1.769,0.460988 -1.65,-0.02038 -2.2039,-0.244498 -1.231,-0.498042 z m -220.50109,-1.03174 c 1.79735,-0.222562 4.49735,-0.217969 6,0.0102 1.50265,0.228174 0.0321,0.41027 -3.26791,0.404657 -3.3,-0.0056 -4.52944,-0.192301 -2.73209,-0.414862 z m 156.98209,0.0013 c 1.7875,-0.221826 4.7125,-0.221826 6.5,0 1.7875,0.221827 0.325,0.403322 -3.25,0.403322 -3.575,0 -5.0375,-0.181495 -3.25,-0.403322 z"
         id="path7" />
      <path
         style="fill:#fea671"
         d="m 950.76791,2004.2753 c 1.79735,-0.2226 4.49735,-0.218 6,0.01 1.50265,0.2281 0.0321,0.4102 -3.26791,0.4046 -3.3,-0.01 -4.52944,-0.1923 -2.73209,-0.4148 z m 141.99999,0 c 1.7974,-0.2226 4.4974,-0.218 6,0.01 1.5027,0.2281 0.032,0.4102 -3.2679,0.4046 -3.3,-0.01 -4.5294,-0.1923 -2.7321,-0.4148 z M 881.25,2003.3107 c 0.9625,-0.2516 2.5375,-0.2516 3.5,0 0.9625,0.2515 0.175,0.4573 -1.75,0.4573 -1.925,0 -2.7125,-0.2058 -1.75,-0.4573 z m 283,0 c 0.9625,-0.2516 2.5375,-0.2516 3.5,0 0.9625,0.2515 0.175,0.4573 -1.75,0.4573 -1.925,0 -2.7125,-0.2058 -1.75,-0.4573 z m -319.4375,-0.9938 c 0.72187,-0.2889 1.58438,-0.2534 1.91667,0.079 0.33229,0.3323 -0.25834,0.5687 -1.3125,0.5253 -1.16495,-0.048 -1.4019,-0.285 -0.60417,-0.6042 z m 356.9375,0.021 c 0.6875,-0.2774 1.8125,-0.2774 2.5,0 0.6875,0.2774 0.125,0.5044 -1.25,0.5044 -1.375,0 -1.9375,-0.227 -1.25,-0.5044 z m -381.9375,-1.0208 c 0.72187,-0.2889 1.58438,-0.2534 1.91667,0.079 0.33229,0.3323 -0.25834,0.5687 -1.3125,0.5253 -1.16495,-0.048 -1.4019,-0.285 -0.60417,-0.6042 z m 407,0 c 0.7219,-0.2889 1.5844,-0.2534 1.9167,0.079 0.3323,0.3323 -0.2584,0.5687 -1.3125,0.5253 -1.165,-0.048 -1.4019,-0.285 -0.6042,-0.6042 z m 38,-2 c 0.7219,-0.2889 1.5844,-0.2534 1.9167,0.079 0.3323,0.3323 -0.2584,0.5687 -1.3125,0.5253 -1.165,-0.048 -1.4019,-0.285 -0.6042,-0.6042 z M 174.87244,1876.25 c -1.24387,-1.5861 -1.2085,-1.6214 0.37756,-0.3776 1.66575,1.3064 2.19548,2.1276 1.37244,2.1276 -0.20765,0 -0.99515,-0.7875 -1.75,-1.75 z m -6,-6 c -1.24387,-1.5861 -1.2085,-1.6214 0.37756,-0.3776 1.66575,1.3064 2.19548,2.1276 1.37244,2.1276 -0.20765,0 -0.99515,-0.7875 -1.75,-1.75 z M 990.8125,1593.3169 c 0.72187,-0.2889 1.58438,-0.2534 1.91667,0.079 0.33229,0.3323 -0.25834,0.5687 -1.3125,0.5253 -1.16495,-0.048 -1.4019,-0.285 -0.60417,-0.6042 z m 39,0 c 0.7219,-0.2889 1.5844,-0.2534 1.9167,0.079 0.3323,0.3323 -0.2584,0.5687 -1.3125,0.5253 -1.165,-0.048 -1.4019,-0.285 -0.6042,-0.6042 z m 506,0 c 0.7219,-0.2889 1.5844,-0.2534 1.9167,0.079 0.3323,0.3323 -0.2584,0.5687 -1.3125,0.5253 -1.165,-0.048 -1.4019,-0.285 -0.6042,-0.6042 z m 125.9375,-10.9792 c 0.6875,-0.2774 1.8125,-0.2774 2.5,0 0.6875,0.2774 0.125,0.5044 -1.25,0.5044 -1.375,0 -1.9375,-0.227 -1.25,-0.5044 z M 403.49202,1337 c 0,-135.025 0.11608,-190.2625 0.25794,-122.75 0.14187,67.5125 0.14187,177.9875 0,245.5 -0.14186,67.5125 -0.25794,12.275 -0.25794,-122.75 z m 739.79398,234.5 c 0.01,-2.75 0.2017,-3.7563 0.4316,-2.2363 0.2298,1.5201 0.2237,3.7701 -0.014,5 -0.2373,1.23 -0.4254,-0.014 -0.4179,-2.7637 z m -16.3278,-22.75 c 4.144,-4.4152 5.0418,-5.2091 5.0418,-4.4582 0,0.1605 -2.1375,2.298 -4.75,4.75 l -4.75,4.4582 z m 522.2367,-0.25 c 0.02,-1.65 0.2445,-2.2039 0.4981,-1.231 0.2535,0.973 0.2369,2.323 -0.037,3 -0.2739,0.6771 -0.4813,-0.119 -0.461,-1.769 z m -15.1949,-2 c 1.2917,-1.375 2.5736,-2.5 2.8486,-2.5 0.275,0 -0.5569,1.125 -1.8486,2.5 -1.2917,1.375 -2.5736,2.5 -2.8486,2.5 -0.275,0 0.5569,-1.125 1.8486,-2.5 z m -896.75,-68.2163 c 1.5125,-0.2291 3.9875,-0.2291 5.5,0 1.5125,0.2292 0.275,0.4166 -2.75,0.4166 -3.025,0 -4.2625,-0.1874 -2.75,-0.4166 z m 13.01375,0 c 1.52006,-0.2298 3.77006,-0.2237 5,0.014 1.22994,0.2373 -0.0137,0.4254 -2.76375,0.4179 -2.75,-0.01 -3.75631,-0.2017 -2.23625,-0.4316 z m 812.98625,-0.011 c 2.0625,-0.2157 5.4375,-0.2157 7.5,0 2.0625,0.2158 0.375,0.3923 -3.75,0.3923 -4.125,0 -5.8125,-0.1765 -3.75,-0.3923 z M 531.29966,1415 c 0,-3.025 0.18747,-4.2625 0.41659,-2.75 0.22913,1.5125 0.22913,3.9875 0,5.5 -0.22912,1.5125 -0.41659,0.275 -0.41659,-2.75 z m 608.77924,-1.5833 c 0.048,-1.165 0.285,-1.4019 0.6042,-0.6042 0.2889,0.7219 0.2534,1.5844 -0.079,1.9167 -0.3323,0.3323 -0.5687,-0.2584 -0.5253,-1.3125 z M 1350.2997,1403 c 0,-3.025 0.1874,-4.2625 0.4166,-2.75 0.2291,1.5125 0.2291,3.9875 0,5.5 -0.2292,1.5125 -0.4166,0.275 -0.4166,-2.75 z m 292.7792,-7.5833 c 0.048,-1.165 0.285,-1.4019 0.6042,-0.6042 0.2889,0.7219 0.2534,1.5844 -0.079,1.9167 -0.3323,0.3323 -0.5687,-0.2584 -0.5253,-1.3125 z M 675.39739,1371 c 0,-7.975 0.1553,-11.2375 0.34512,-7.25 0.18981,3.9875 0.18981,10.5125 0,14.5 -0.18982,3.9875 -0.34512,0.725 -0.34512,-7.25 z m 818.88861,-4.5 c 0.01,-2.75 0.2017,-3.7563 0.4316,-2.2363 0.2298,1.5201 0.2237,3.7701 -0.014,5 -0.2373,1.23 -0.4254,-0.014 -0.4179,-2.7637 z m -216.9042,-24 c 0,-6.6 0.1638,-9.1699 0.3596,-5.7108 0.1958,3.459 0.1942,8.859 0,12 -0.1978,3.1409 -0.358,0.3108 -0.356,-6.2892 z M 1644.4809,1191 c 0,-54.725 0.121,-77.1125 0.2689,-49.75 0.1479,27.3625 0.1479,72.1375 0,99.5 -0.1479,27.3625 -0.2689,4.975 -0.2689,-49.75 z m -522.6684,83.3169 c 0.7219,-0.2889 1.5844,-0.2534 1.9167,0.079 0.3323,0.3323 -0.2584,0.5687 -1.3125,0.5253 -1.165,-0.048 -1.4019,-0.285 -0.6042,-0.6042 z M 530.39994,1246.5 c 10e-4,-8.25 0.15629,-11.4919 0.34419,-7.2043 0.1879,4.2876 0.18676,11.0376 -0.003,15 -0.1893,3.9624 -0.34304,0.4543 -0.34164,-7.7957 z m 745.75796,10.5 c 0,-1.375 0.227,-1.9375 0.5044,-1.25 0.2774,0.6875 0.2774,1.8125 0,2.5 -0.2774,0.6875 -0.5044,0.125 -0.5044,-1.25 z m -160.2117,-40.75 -3.4462,-3.75 3.75,3.4462 c 3.4904,3.2076 4.2098,4.0538 3.4462,4.0538 -0.1671,0 -1.8546,-1.6875 -3.75,-3.75 z m 886.1327,-13.8333 c 0.048,-1.165 0.285,-1.4019 0.6042,-0.6042 0.2889,0.7219 0.2534,1.5844 -0.079,1.9167 -0.3323,0.3323 -0.5687,-0.2584 -0.5253,-1.3125 z M 45.157895,1201 c 0,-1.375 0.226973,-1.9375 0.504386,-1.25 0.277412,0.6875 0.277412,1.8125 0,2.5 -0.277413,0.6875 -0.504386,0.125 -0.504386,-1.25 z M 1028.75,1193.2678 c 2.3375,-0.2105 6.1625,-0.2105 8.5,0 2.3375,0.2105 0.425,0.3828 -4.25,0.3828 -4.675,0 -6.5875,-0.1723 -4.25,-0.3828 z M 2003.1579,1172 c 0,-1.375 0.227,-1.9375 0.5044,-1.25 0.2774,0.6875 0.2774,1.8125 0,2.5 -0.2774,0.6875 -0.5044,0.125 -0.5044,-1.25 z M 44.157895,1170 c 0,-1.375 0.226973,-1.9375 0.504386,-1.25 0.277412,0.6875 0.277412,1.8125 0,2.5 -0.277413,0.6875 -0.504386,0.125 -0.504386,-1.25 z m -0.925892,-43 c 0,-1.925 0.205795,-2.7125 0.457323,-1.75 0.251527,0.9625 0.251527,2.5375 0,3.5 -0.251528,0.9625 -0.457323,0.175 -0.457323,-1.75 z m 1961.020197,-4.5 c 0.011,-2.2 0.2159,-2.9823 0.4551,-1.7383 0.2392,1.2439 0.2301,3.0439 -0.02,4 -0.2503,0.956 -0.446,-0.062 -0.4349,-2.2617 z m -654.8972,-22 c 0,-4.95 0.166,-7.1011 0.3757,-4.7802 0.2098,2.3209 0.2122,6.3709 0.01,9 -0.2067,2.6291 -0.3783,0.7302 -0.3813,-4.2198 z m -818.88477,-71 c -1.2e-4,-34.1 0.12549,-48.19495 0.27912,-31.32211 0.15364,16.87281 0.15374,44.77281 2.3e-4,62.00001 -0.15352,17.2272 -0.27922,3.4221 -0.27935,-30.6779 z m -488.160361,33 c 0.0056,-3.3 0.192301,-4.5294 0.414862,-2.7321 0.222562,1.7974 0.217969,4.4974 -0.0102,6 -0.228174,1.5027 -0.41027,0.032 -0.404657,-3.2679 z M 1696.4705,963 c 0,-34.375 0.1255,-48.4375 0.279,-31.25 0.1534,17.1875 0.1534,45.3125 0,62.5 -0.1535,17.1875 -0.279,3.125 -0.279,-31.25 z M 42.32814,981.5 c 0.0044,-3.85 0.185183,-5.30246 0.401658,-3.2277 0.216476,2.07477 0.212846,5.22477 -0.0081,7 C 42.50082,987.04754 42.323704,985.35 42.32814,981.5 Z M 674.232,956 c 0,-1.925 0.2058,-2.7125 0.45733,-1.75 0.25152,0.9625 0.25152,2.5375 0,3.5 -0.25153,0.9625 -0.45733,0.175 -0.45733,-1.75 z m 1330.0202,-28.5 c 0.011,-2.2 0.2159,-2.98225 0.4551,-1.73834 0.2392,1.24391 0.2301,3.04391 -0.02,4 -0.2503,0.95609 -0.446,-0.0617 -0.4349,-2.26166 z M 43.194949,914.5 c 0.02038,-1.65 0.244498,-2.20394 0.498042,-1.23097 0.253543,0.97297 0.236869,2.32297 -0.03705,3 C 43.382014,916.94606 43.174569,916.15 43.194949,914.5 Z M 390.87244,897.25 c -1.24387,-1.58606 -1.2085,-1.62143 0.37756,-0.37756 0.9625,0.75485 1.75,1.54235 1.75,1.75 0,0.82304 -0.82119,0.29331 -2.12756,-1.37244 z M 2003.1579,878 c 0,-1.375 0.227,-1.9375 0.5044,-1.25 0.2774,0.6875 0.2774,1.8125 0,2.5 -0.2774,0.6875 -0.5044,0.125 -0.5044,-1.25 z M 44.157895,875 c 0,-1.375 0.226973,-1.9375 0.504386,-1.25 0.277412,0.6875 0.277412,1.8125 0,2.5 -0.277413,0.6875 -0.504386,0.125 -0.504386,-1.25 z m 0.921052,-27.58333 c 0.04798,-1.16495 0.284941,-1.4019 0.604167,-0.60417 0.288871,0.72187 0.253344,1.58438 -0.07895,1.91667 -0.332292,0.33229 -0.568641,-0.25834 -0.52522,-1.3125 z m 1956.999953,-1 c 0.048,-1.16495 0.285,-1.4019 0.6042,-0.60417 0.2889,0.72187 0.2534,1.58438 -0.079,1.91667 -0.3323,0.33229 -0.5687,-0.25834 -0.5253,-1.3125 z M 788.8125,47.316886 c 0.72187,-0.288871 1.58438,-0.253344 1.91667,0.07895 0.33229,0.332292 -0.25834,0.568641 -1.3125,0.52522 -1.16495,-0.04798 -1.4019,-0.284941 -0.60417,-0.604167 z m 450,-1 c 0.7219,-0.288871 1.5844,-0.253344 1.9167,0.07895 0.3323,0.332292 -0.2584,0.568641 -1.3125,0.52522 -1.165,-0.04798 -1.4019,-0.284941 -0.6042,-0.604167 z m -408,-1 c 0.72187,-0.288871 1.58438,-0.253344 1.91667,0.07895 0.33229,0.332292 -0.25834,0.568641 -1.3125,0.52522 -1.16495,-0.04798 -1.4019,-0.284941 -0.60417,-0.604167 z m 386,0 c 0.7219,-0.288871 1.5844,-0.253344 1.9167,0.07895 0.3323,0.332292 -0.2584,0.568641 -1.3125,0.52522 -1.165,-0.04798 -1.4019,-0.284941 -0.6042,-0.604167 z M 855.75,44.337719 c 0.6875,-0.277412 1.8125,-0.277412 2.5,0 0.6875,0.277413 0.125,0.504386 -1.25,0.504386 -1.375,0 -1.9375,-0.226973 -1.25,-0.504386 z m 333,0 c 0.6875,-0.277412 1.8125,-0.277412 2.5,0 0.6875,0.277413 0.125,0.504386 -1.25,0.504386 -1.375,0 -1.9375,-0.226973 -1.25,-0.504386 z m -298.48097,-1.03071 c 0.97297,-0.253543 2.32297,-0.236869 3,0.03705 0.67703,0.273923 -0.11903,0.481368 -1.76903,0.460988 -1.65,-0.02038 -2.20394,-0.244498 -1.23097,-0.498042 z m 257.98097,0.0037 c 0.9625,-0.251527 2.5375,-0.251527 3.5,0 0.9625,0.251528 0.175,0.457323 -1.75,0.457323 -1.925,0 -2.7125,-0.205795 -1.75,-0.457323 z m -203,-1.039142 c 2.0625,-0.215745 5.4375,-0.215745 7.5,0 2.0625,0.215744 0.375,0.392262 -3.75,0.392262 -4.125,0 -5.8125,-0.176518 -3.75,-0.392262 z m 132.4777,0.0067 c 1.7752,-0.220912 4.9252,-0.224542 7,-0.0081 2.0748,0.216475 0.6223,0.397221 -3.2277,0.401658 -3.85,0.0044 -5.5475,-0.17268 -3.7723,-0.393592 z"
         id="path6" />
      <path
         style="fill:#fe924f"
         d="m 965.75,2004.2575 c 3.9875,-0.1898 10.5125,-0.1898 14.5,0 3.9875,0.1898 0.725,0.3451 -7.25,0.3451 -7.975,0 -11.2375,-0.1553 -7.25,-0.3451 z m 103,0 c 3.9875,-0.1898 10.5125,-0.1898 14.5,0 3.9875,0.1898 0.725,0.3451 -7.25,0.3451 -7.975,0 -11.2375,-0.1553 -7.25,-0.3451 z m -181.5,-0.9468 c 0.9625,-0.2516 2.5375,-0.2516 3.5,0 0.9625,0.2515 0.175,0.4573 -1.75,0.4573 -1.925,0 -2.7125,-0.2058 -1.75,-0.4573 z m 270.5117,-0.018 c 1.2439,-0.2392 3.0439,-0.2301 4,0.02 0.956,0.2503 -0.062,0.446 -2.2617,0.4349 -2.2,-0.011 -2.9823,-0.2159 -1.7383,-0.4551 z m -310.0117,-0.955 c 0.6875,-0.2774 1.8125,-0.2774 2.5,0 0.6875,0.2774 0.125,0.5044 -1.25,0.5044 -1.375,0 -1.9375,-0.227 -1.25,-0.5044 z m 351.0625,-0.021 c 0.7219,-0.2889 1.5844,-0.2534 1.9167,0.079 0.3323,0.3323 -0.2584,0.5687 -1.3125,0.5253 -1.165,-0.048 -1.4019,-0.285 -0.6042,-0.6042 z m 46,-2 c 0.7219,-0.2889 1.5844,-0.2534 1.9167,0.079 0.3323,0.3323 -0.2584,0.5687 -1.3125,0.5253 -1.165,-0.048 -1.4019,-0.285 -0.6042,-0.6042 z m -462,-1 c 0.72187,-0.2889 1.58438,-0.2534 1.91667,0.079 0.33229,0.3323 -0.25834,0.5687 -1.3125,0.5253 -1.16495,-0.048 -1.4019,-0.285 -0.60417,-0.6042 z m 500,-1 c 0.7219,-0.2889 1.5844,-0.2534 1.9167,0.079 0.3323,0.3323 -0.2584,0.5687 -1.3125,0.5253 -1.165,-0.048 -1.4019,-0.285 -0.6042,-0.6042 z m -538,-1 c 0.72187,-0.2889 1.58438,-0.2534 1.91667,0.079 0.33229,0.3323 -0.25834,0.5687 -1.3125,0.5253 -1.16495,-0.048 -1.4019,-0.285 -0.60417,-0.6042 z M 171.87244,1873.25 c -1.24387,-1.5861 -1.2085,-1.6214 0.37756,-0.3776 0.9625,0.7549 1.75,1.5424 1.75,1.75 0,0.8231 -0.82119,0.2933 -2.12756,-1.3724 z M 697.75,1592.2943 c 1.2375,-0.2384 3.2625,-0.2384 4.5,0 1.2375,0.2383 0.225,0.4333 -2.25,0.4333 -2.475,0 -3.4875,-0.195 -2.25,-0.4333 z M 1143.2522,1579.5 c 0.011,-2.2 0.2159,-2.9823 0.4551,-1.7383 0.2392,1.2439 0.2301,3.0439 -0.02,4 -0.2503,0.956 -0.446,-0.062 -0.4349,-2.2617 z m 515.5603,2.8169 c 0.7219,-0.2889 1.5844,-0.2534 1.9167,0.079 0.3323,0.3323 -0.2584,0.5687 -1.3125,0.5253 -1.165,-0.048 -1.4019,-0.285 -0.6042,-0.6042 z m -380.7336,-1.9002 c 0.048,-1.165 0.285,-1.4019 0.6042,-0.6042 0.2889,0.7219 0.2534,1.5844 -0.079,1.9167 -0.3323,0.3323 -0.5687,-0.2584 -0.5253,-1.3125 z M 1626,1554.6224 c 0,-0.2076 0.7875,-0.9951 1.75,-1.75 1.5861,-1.2438 1.6214,-1.2085 0.3776,0.3776 -1.3064,1.6657 -2.1276,2.1955 -2.1276,1.3724 z M 1649.1579,1553 c 0,-1.375 0.227,-1.9375 0.5044,-1.25 0.2774,0.6875 0.2774,1.8125 0,2.5 -0.2774,0.6875 -0.5044,0.125 -0.5044,-1.25 z m -903.3454,-74.6831 c 0.72187,-0.2889 1.58438,-0.2534 1.91667,0.079 0.33229,0.3323 -0.25834,0.5687 -1.3125,0.5253 -1.16495,-0.048 -1.4019,-0.285 -0.60417,-0.6042 z M 1621,1455.5 c 1.2917,-1.375 2.5736,-2.5 2.8486,-2.5 0.275,0 -0.5569,1.125 -1.8486,2.5 -1.2917,1.375 -2.5736,2.5 -2.8486,2.5 -0.275,0 0.5569,-1.125 1.8486,-2.5 z M 531.232,1423 c 0,-1.925 0.2058,-2.7125 0.45733,-1.75 0.25152,0.9625 0.25152,2.5375 0,3.5 -0.25153,0.9625 -0.45733,0.175 -0.45733,-1.75 z m 819.0202,-11.5 c 0.011,-2.2 0.2159,-2.9823 0.4551,-1.7383 0.2392,1.2439 0.2301,3.0439 -0.02,4 -0.2503,0.956 -0.446,-0.062 -0.4349,-2.2617 z m -210.0573,-2 c 0.02,-1.65 0.2445,-2.2039 0.4981,-1.231 0.2535,0.973 0.2369,2.323 -0.037,3 -0.2739,0.6771 -0.4813,-0.119 -0.461,-1.769 z m 502.963,-17.5 c 0,-1.375 0.227,-1.9375 0.5044,-1.25 0.2774,0.6875 0.2774,1.8125 0,2.5 -0.2774,0.6875 -0.5044,0.125 -0.5044,-1.25 z m -148.8029,-38.5 c 0,-4.95 0.166,-7.1011 0.3757,-4.7802 0.2098,2.3209 0.2122,6.3709 0.01,9 -0.2067,2.6291 -0.3783,0.7302 -0.3813,-4.2198 z M 675.40249,1342 c 0,-8.525 0.15337,-12.0125 0.34082,-7.75 0.18745,4.2625 0.18745,11.2375 0,15.5 -0.18745,4.2625 -0.34082,0.775 -0.34082,-7.75 z m 601.93371,-18 c 0,-4.125 0.1765,-5.8125 0.3923,-3.75 0.2157,2.0625 0.2157,5.4375 0,7.5 -0.2158,2.0625 -0.3923,0.375 -0.3923,-3.75 z M 50.078947,1291.4167 c 0.04798,-1.165 0.284941,-1.4019 0.604167,-0.6042 0.288871,0.7219 0.253344,1.5844 -0.07895,1.9167 -0.332292,0.3323 -0.568641,-0.2584 -0.52522,-1.3125 z M 530.39994,1275.5 c 10e-4,-8.25 0.15629,-11.4919 0.34419,-7.2043 0.1879,4.2876 0.18676,11.0376 -0.003,15 -0.1893,3.9624 -0.34304,0.4543 -0.34164,-7.7957 z m 1467.67896,0.9167 c 0.048,-1.165 0.285,-1.4019 0.6042,-0.6042 0.2889,0.7219 0.2534,1.5844 -0.079,1.9167 -0.3323,0.3323 -0.5687,-0.2584 -0.5253,-1.3125 z m -933.2664,-2.0998 c 0.7219,-0.2889 1.5844,-0.2534 1.9167,0.079 0.3323,0.3323 -0.2584,0.5687 -1.3125,0.5253 -1.165,-0.048 -1.4019,-0.285 -0.6042,-0.6042 z m 936.2664,-51.9002 c 0.048,-1.165 0.285,-1.4019 0.6042,-0.6042 0.2889,0.7219 0.2534,1.5844 -0.079,1.9167 -0.3323,0.3323 -0.5687,-0.2584 -0.5253,-1.3125 z m 1,-23 c 0.048,-1.165 0.285,-1.4019 0.6042,-0.6042 0.2889,0.7219 0.2534,1.5844 -0.079,1.9167 -0.3323,0.3323 -0.5687,-0.2584 -0.5253,-1.3125 z m -1956.999953,-2 c 0.04798,-1.165 0.284941,-1.4019 0.604167,-0.6042 0.288871,0.7219 0.253344,1.5844 -0.07895,1.9167 -0.332292,0.3323 -0.568641,-0.2584 -0.52522,-1.3125 z M 2003.1949,1167.5 c 0.02,-1.65 0.2445,-2.2039 0.4981,-1.231 0.2535,0.973 0.2369,2.323 -0.037,3 -0.2739,0.6771 -0.4813,-0.119 -0.461,-1.769 z M 44.157895,1166 c 0,-1.375 0.226973,-1.9375 0.504386,-1.25 0.277412,0.6875 0.277412,1.8125 0,2.5 -0.277413,0.6875 -0.504386,0.125 -0.504386,-1.25 z M 1349.4405,1137 c 0,-15.675 0.1383,-22.0875 0.3072,-14.25 0.169,7.8375 0.169,20.6625 0,28.5 -0.1689,7.8375 -0.3072,1.425 -0.3072,-14.25 z M 43.194949,1121.5 c 0.02038,-1.65 0.244498,-2.2039 0.498042,-1.231 0.253543,0.973 0.236869,2.323 -0.03705,3 -0.273923,0.6771 -0.481368,-0.119 -0.460988,-1.769 z M 2004.2724,1115 c 0,-2.475 0.195,-3.4875 0.4333,-2.25 0.2384,1.2375 0.2384,3.2625 0,4.5 -0.2383,1.2375 -0.4333,0.225 -0.4333,-2.25 z m -970.4599,-35.6831 c 0.7219,-0.2889 1.5844,-0.2534 1.9167,0.079 0.3323,0.3323 -0.2584,0.5687 -1.3125,0.5253 -1.165,-0.048 -1.4019,-0.285 -0.6042,-0.6042 z M 42.32814,1050.5 c 0.0044,-3.85 0.185183,-5.3025 0.401658,-3.2277 0.216476,2.0748 0.212846,5.2248 -0.0081,7 -0.220912,1.7752 -0.398028,0.078 -0.393592,-3.7723 z m 0.03709,-53 c 0.0026,-5.5 0.170532,-7.62242 0.373173,-4.71648 0.202642,2.90594 0.200512,7.40598 -0.0047,9.99998 -0.205245,2.5941 -0.371043,0.2165 -0.368439,-5.2835 z m 631.82972,-47 c 0.0204,-1.65 0.2445,-2.20394 0.49804,-1.23097 0.25354,0.97297 0.23687,2.32297 -0.0371,3 -0.27393,0.67703 -0.48137,-0.11903 -0.46099,-1.76903 z m 1330.09105,-15 c 0.01,-2.75 0.2017,-3.75631 0.4316,-2.23625 0.2298,1.52006 0.2237,3.77006 -0.014,5 -0.2373,1.22994 -0.4254,-0.0137 -0.4179,-2.76375 z M 43.232003,920 c 0,-1.925 0.205795,-2.7125 0.457323,-1.75 0.251527,0.9625 0.251527,2.5375 0,3.5 -0.251528,0.9625 -0.457323,0.175 -0.457323,-1.75 z M 2003.1949,882.5 c 0.02,-1.65 0.2445,-2.20394 0.4981,-1.23097 0.2535,0.97297 0.2369,2.32297 -0.037,3 -0.2739,0.67703 -0.4813,-0.11903 -0.461,-1.76903 z M 44.157895,879 c 0,-1.375 0.226973,-1.9375 0.504386,-1.25 0.277412,0.6875 0.277412,1.8125 0,2.5 -0.277413,0.6875 -0.504386,0.125 -0.504386,-1.25 z m 0.921052,-28.58333 c 0.04798,-1.16495 0.284941,-1.4019 0.604167,-0.60417 0.288871,0.72187 0.253344,1.58438 -0.07895,1.91667 -0.332292,0.33229 -0.568641,-0.25834 -0.52522,-1.3125 z m 1956.999953,-1 c 0.048,-1.16495 0.285,-1.4019 0.6042,-0.60417 0.2889,0.72187 0.2534,1.58438 -0.079,1.91667 -0.3323,0.33229 -0.5687,-0.25834 -0.5253,-1.3125 z m -1,-23 c 0.048,-1.16495 0.285,-1.4019 0.6042,-0.60417 0.2889,0.72187 0.2534,1.58438 -0.079,1.91667 -0.3323,0.33229 -0.5687,-0.25834 -0.5253,-1.3125 z m -1953.999953,-17 c 0.04798,-1.16495 0.284941,-1.4019 0.604167,-0.60417 0.288871,0.72187 0.253344,1.58438 -0.07895,1.91667 -0.332292,0.33229 -0.568641,-0.25834 -0.52522,-1.3125 z M 1878.8724,178.25 c -1.2438,-1.58606 -1.2085,-1.62143 0.3776,-0.37756 1.6657,1.30637 2.1955,2.12756 1.3724,2.12756 -0.2076,0 -0.9951,-0.7875 -1.75,-1.75 z m -12,-12 c -1.2438,-1.58606 -1.2085,-1.62143 0.3776,-0.37756 1.6657,1.30637 2.1955,2.12756 1.3724,2.12756 -0.2076,0 -0.9951,-0.7875 -1.75,-1.75 z M 771.8125,48.316886 c 0.72187,-0.288871 1.58438,-0.253344 1.91667,0.07895 0.33229,0.332292 -0.25834,0.568641 -1.3125,0.52522 -1.16495,-0.04798 -1.4019,-0.284941 -0.60417,-0.604167 z m 485,-1 c 0.7219,-0.288871 1.5844,-0.253344 1.9167,0.07895 0.3323,0.332292 -0.2584,0.568641 -1.3125,0.52522 -1.165,-0.04798 -1.4019,-0.284941 -0.6042,-0.604167 z m -423,-2 c 0.72187,-0.288871 1.58438,-0.253344 1.91667,0.07895 0.33229,0.332292 -0.25834,0.568641 -1.3125,0.52522 -1.16495,-0.04798 -1.4019,-0.284941 -0.60417,-0.604167 z m 378.9375,0.02083 c 0.6875,-0.277412 1.8125,-0.277412 2.5,0 0.6875,0.277413 0.125,0.504386 -1.25,0.504386 -1.375,0 -1.9375,-0.226973 -1.25,-0.504386 z m -353,-1 c 0.6875,-0.277412 1.8125,-0.277412 2.5,0 0.6875,0.277413 0.125,0.504386 -1.25,0.504386 -1.375,0 -1.9375,-0.226973 -1.25,-0.504386 z m 324.519,-0.03071 c 0.973,-0.253543 2.323,-0.236869 3,0.03705 0.6771,0.273923 -0.119,0.481368 -1.769,0.460988 -1.65,-0.02038 -2.2039,-0.244498 -1.231,-0.498042 z m -288.99997,-1 c 0.97297,-0.253543 2.32297,-0.236869 3,0.03705 0.67703,0.273923 -0.11903,0.481368 -1.76903,0.460988 -1.65,-0.02038 -2.20394,-0.244498 -1.23097,-0.498042 z M 1140.75,43.294267 c 1.2375,-0.238353 3.2625,-0.238353 4.5,0 1.2375,0.238353 0.225,0.433369 -2.25,0.433369 -2.475,0 -3.4875,-0.195016 -2.25,-0.433369 z M 958.7277,42.278268 c 1.77523,-0.220912 4.92523,-0.224542 7,-0.0081 2.07476,0.216475 0.6223,0.397221 -3.2277,0.401658 -3.85,0.0044 -5.54754,-0.17268 -3.7723,-0.393592 z m 104.0223,-0.01047 c 2.3375,-0.210535 6.1625,-0.210535 8.5,0 2.3375,0.210535 0.425,0.382791 -4.25,0.382791 -4.675,0 -6.5875,-0.172256 -4.25,-0.382791 z"
         id="path5" />
      <path
         style="fill:#fe8236"
         d="m 991.28017,2004.2637 c 2.6291,-0.2066 6.6791,-0.2042 9.00003,0.01 2.3209,0.2097 0.1698,0.3788 -4.7802,0.3757 -4.95,0 -6.84892,-0.1746 -4.21983,-0.3813 z m 58.00003,0 c 2.6291,-0.2066 6.6791,-0.2042 9,0.01 2.3209,0.2097 0.1698,0.3788 -4.7802,0.3757 -4.95,0 -6.8489,-0.1746 -4.2198,-0.3813 z m -156.5302,-0.926 c 0.6875,-0.2774 1.8125,-0.2774 2.5,0 0.6875,0.2774 0.125,0.5044 -1.25,0.5044 -1.375,0 -1.9375,-0.227 -1.25,-0.5044 z m 261.0625,-0.021 c 0.7219,-0.2889 1.5844,-0.2534 1.9167,0.079 0.3323,0.3323 -0.2584,0.5687 -1.3125,0.5253 -1.165,-0.048 -1.4019,-0.285 -0.6042,-0.6042 z m 42,-1 c 0.7219,-0.2889 1.5844,-0.2534 1.9167,0.079 0.3323,0.3323 -0.2584,0.5687 -1.3125,0.5253 -1.165,-0.048 -1.4019,-0.285 -0.6042,-0.6042 z M 691.25,1592.3107 c 0.9625,-0.2516 2.5375,-0.2516 3.5,0 0.9625,0.2515 0.175,0.4573 -1.75,0.4573 -1.925,0 -2.7125,-0.2058 -1.75,-0.4573 z m 13.5,0.027 c 0.6875,-0.2774 1.8125,-0.2774 2.5,0 0.6875,0.2774 0.125,0.5044 -1.25,0.5044 -1.375,0 -1.9375,-0.227 -1.25,-0.5044 z M 1278.3946,1565.5 c 0,-7.7 0.1585,-10.7178 0.3488,-6.7062 0.1903,4.0115 0.189,10.3115 0,14 -0.1919,3.6884 -0.3476,0.4062 -0.346,-7.2938 z m 370.6843,-9.0833 c 0.048,-1.165 0.285,-1.4019 0.6042,-0.6042 0.2889,0.7219 0.2534,1.5844 -0.079,1.9167 -0.3323,0.3323 -0.5687,-0.2584 -0.5253,-1.3125 z M 531.15789,1428 c 0,-1.375 0.22698,-1.9375 0.50439,-1.25 0.27741,0.6875 0.27741,1.8125 0,2.5 -0.27741,0.6875 -0.50439,0.125 -0.50439,-1.25 z m 144.92106,-6.5833 c 0.048,-1.165 0.28494,-1.4019 0.60416,-0.6042 0.28887,0.7219 0.25335,1.5844 -0.0789,1.9167 -0.33229,0.3323 -0.56864,-0.2584 -0.52522,-1.3125 z M 1350.1579,1417 c 0,-1.375 0.227,-1.9375 0.5044,-1.25 0.2774,0.6875 0.2774,1.8125 0,2.5 -0.2774,0.6875 -0.5044,0.125 -0.5044,-1.25 z m -210,-12 c 0,-1.375 0.227,-1.9375 0.5044,-1.25 0.2774,0.6875 0.2774,1.8125 0,2.5 -0.2774,0.6875 -0.5044,0.125 -0.5044,-1.25 z M 999.5,1392 c 0.9955,-1.1 2.035,-2 2.31,-2 0.275,0 -0.3145,0.9 -1.31,2 -0.99549,1.1 -2.03498,2 -2.30998,2 -0.275,0 0.31449,-0.9 1.30998,-2 z m 643.5789,-3.5833 c 0.048,-1.165 0.285,-1.4019 0.6042,-0.6042 0.2889,0.7219 0.2534,1.5844 -0.079,1.9167 -0.3323,0.3323 -0.5687,-0.2584 -0.5253,-1.3125 z M 1494.3494,1337 c 0,-4.675 0.1723,-6.5875 0.3828,-4.25 0.2105,2.3375 0.2105,6.1625 0,8.5 -0.2105,2.3375 -0.3828,0.425 -0.3828,-4.25 z m -818.97944,-20 c 0,-5.775 0.16528,-8.1375 0.36728,-5.25 0.202,2.8875 0.202,7.6125 0,10.5 -0.202,2.8875 -0.36728,0.525 -0.36728,-5.25 z m 601.92974,-5 c 0,-3.025 0.1874,-4.2625 0.4166,-2.75 0.2291,1.5125 0.2291,3.9875 0,5.5 -0.2292,1.5125 -0.4166,0.275 -0.4166,-2.75 z m -746.92563,-11.5 c 0.002,-6.05 0.16696,-8.3961 0.36601,-5.2135 0.19905,3.1826 0.1972,8.1326 -0.004,11 -0.20131,2.8674 -0.36417,0.2635 -0.36191,-5.7865 z M 1349.4186,1184 c 0,-10.725 0.1471,-15.1125 0.3269,-9.75 0.1798,5.3625 0.1798,14.1375 0,19.5 -0.1798,5.3625 -0.3269,0.975 -0.3269,-9.75 z m -550.95183,-37.5 c -1.5e-4,-30.25 0.12694,-42.7694 0.28242,-27.8208 0.15548,14.9486 0.15561,39.6986 2.8e-4,55 -0.15534,15.3014 -0.28255,3.0708 -0.2827,-27.1792 z m -753.387823,47.9167 c 0.04798,-1.165 0.284941,-1.4019 0.604167,-0.6042 0.288871,0.7219 0.253344,1.5844 -0.07895,1.9167 -0.332292,0.3323 -0.568641,-0.2584 -0.52522,-1.3125 z M 869.39456,1167.5 c 0.002,-7.7 0.15853,-10.7178 0.34883,-6.7062 0.1903,4.0115 0.18902,10.3115 -0.003,14 -0.19185,3.6884 -0.34755,0.4062 -0.34599,-7.2938 z m 1133.68434,-4.0833 c 0.048,-1.165 0.285,-1.4019 0.6042,-0.6042 0.2889,0.7219 0.2534,1.5844 -0.079,1.9167 -0.3323,0.3323 -0.5687,-0.2584 -0.5253,-1.3125 z M 44.157895,1162 c 0,-1.375 0.226973,-1.9375 0.504386,-1.25 0.277412,0.6875 0.277412,1.8125 0,2.5 -0.277413,0.6875 -0.504386,0.125 -0.504386,-1.25 z m -0.962946,-45.5 c 0.02038,-1.65 0.244498,-2.2039 0.498042,-1.231 0.253543,0.973 0.236869,2.323 -0.03705,3 -0.273923,0.6771 -0.481368,-0.119 -0.460988,-1.769 z M 2004.2724,1107 c 0,-2.475 0.195,-3.4875 0.4333,-2.25 0.2384,1.2375 0.2384,3.2625 0,4.5 -0.2383,1.2375 -0.4333,0.225 -0.4333,-2.25 z M 42.416832,1025.5 c 9.61e-4,-10.45 0.149144,-14.5891 0.329296,-9.1981 0.180152,5.3911 0.179366,13.9411 -0.0017,19 -0.181113,5.059 -0.32851,0.6481 -0.327549,-9.8019 z m 1474.410468,-0.2499 c 33.1801,-0.1462 87.1801,-0.1461 120,10e-5 32.82,0.1462 5.6727,0.2658 -60.3273,0.2658 -66,-10e-5 -92.8527,-0.1197 -59.6727,-0.2659 z M 2004.2522,943.5 c 0.011,-2.2 0.2159,-2.98225 0.4551,-1.73834 0.2392,1.24391 0.2301,3.04391 -0.02,4 -0.2503,0.95609 -0.446,-0.0617 -0.4349,-2.26166 z M 43.194949,925.5 c 0.02038,-1.65 0.244498,-2.20394 0.498042,-1.23097 0.253543,0.97297 0.236869,2.32297 -0.03705,3 C 43.382014,927.94606 43.174569,927.15 43.194949,925.5 Z M 2003.0789,886.41667 c 0.048,-1.16495 0.285,-1.4019 0.6042,-0.60417 0.2889,0.72187 0.2534,1.58438 -0.079,1.91667 -0.3323,0.33229 -0.5687,-0.25834 -0.5253,-1.3125 z m -1958.999953,-4 c 0.04798,-1.16495 0.284941,-1.4019 0.604167,-0.60417 0.288871,0.72187 0.253344,1.58438 -0.07895,1.91667 -0.332292,0.33229 -0.568641,-0.25834 -0.52522,-1.3125 z M 1873,172.5 c -2.429,-2.475 -4.1914,-4.5 -3.9164,-4.5 0.275,0 2.4874,2.025 4.9164,4.5 2.429,2.475 4.1914,4.5 3.9164,4.5 -0.275,0 -2.4874,-2.025 -4.9164,-4.5 z M 863.8125,44.316886 c 0.72187,-0.288871 1.58438,-0.253344 1.91667,0.07895 0.33229,0.332292 -0.25834,0.568641 -1.3125,0.52522 -1.16495,-0.04798 -1.4019,-0.284941 -0.60417,-0.604167 z m 317,0 c 0.7219,-0.288871 1.5844,-0.253344 1.9167,0.07895 0.3323,0.332292 -0.2584,0.568641 -1.3125,0.52522 -1.165,-0.04798 -1.4019,-0.284941 -0.6042,-0.604167 z M 899.75,43.337719 c 0.6875,-0.277412 1.8125,-0.277412 2.5,0 0.6875,0.277413 0.125,0.504386 -1.25,0.504386 -1.375,0 -1.9375,-0.226973 -1.25,-0.504386 z m 236,0 c 0.6875,-0.277412 1.8125,-0.277412 2.5,0 0.6875,0.277413 0.125,0.504386 -1.25,0.504386 -1.375,0 -1.9375,-0.226973 -1.25,-0.504386 z m -163.98209,-1.06245 c 1.79735,-0.222562 4.49735,-0.217969 6,0.0102 1.50265,0.228174 0.0321,0.41027 -3.26791,0.404657 -3.3,-0.0056 -4.52944,-0.192301 -2.73209,-0.414862 z m 74.98209,-0.0075 c 2.3375,-0.210535 6.1625,-0.210535 8.5,0 2.3375,0.210535 0.425,0.382791 -4.25,0.382791 -4.675,0 -6.5875,-0.172256 -4.25,-0.382791 z"
         id="path4" />
      <path
         style="fill:#fe7725"
         d="m 1008.25,2004.265 c 2.6125,-0.206 6.8875,-0.206 9.5,0 2.6125,0.206 0.475,0.3745 -4.75,0.3745 -5.225,0 -7.3625,-0.1685 -4.75,-0.3745 z m 23,0 c 2.6125,-0.206 6.8875,-0.206 9.5,0 2.6125,0.206 0.475,0.3745 -4.75,0.3745 -5.225,0 -7.3625,-0.1685 -4.75,-0.3745 z m -134.5,-0.9273 c 0.6875,-0.2774 1.8125,-0.2774 2.5,0 0.6875,0.2774 0.125,0.5044 -1.25,0.5044 -1.375,0 -1.9375,-0.227 -1.25,-0.5044 z m 253,0 c 0.6875,-0.2774 1.8125,-0.2774 2.5,0 0.6875,0.2774 0.125,0.5044 -1.25,0.5044 -1.375,0 -1.9375,-0.227 -1.25,-0.5044 z m -295.9375,-1.0208 c 0.72187,-0.2889 1.58438,-0.2534 1.91667,0.079 0.33229,0.3323 -0.25834,0.5687 -1.3125,0.5253 -1.16495,-0.048 -1.4019,-0.285 -0.60417,-0.6042 z m 339,0 c 0.7219,-0.2889 1.5844,-0.2534 1.9167,0.079 0.3323,0.3323 -0.2584,0.5687 -1.3125,0.5253 -1.165,-0.048 -1.4019,-0.285 -0.6042,-0.6042 z m -505,-410 c 0.72187,-0.2889 1.58438,-0.2534 1.91667,0.079 0.33229,0.3323 -0.25834,0.5687 -1.3125,0.5253 -1.16495,-0.048 -1.4019,-0.285 -0.60417,-0.6042 z m 20.9375,0.021 c 0.6875,-0.2774 1.8125,-0.2774 2.5,0 0.6875,0.2774 0.125,0.5044 -1.25,0.5044 -1.375,0 -1.9375,-0.227 -1.25,-0.5044 z m 940.3289,-32.921 c 0.048,-1.165 0.285,-1.4019 0.6042,-0.6042 0.2889,0.7219 0.2534,1.5844 -0.079,1.9167 -0.3323,0.3323 -0.5687,-0.2584 -0.5253,-1.3125 z M 1278.4132,1534.5 c 10e-4,-9.9 0.1507,-13.8147 0.3325,-8.6994 0.1819,5.1153 0.181,13.2153 0,18 -0.1829,4.7847 -0.3317,0.5994 -0.3306,-9.3006 z m -747.21825,-102 c 0.0204,-1.65 0.2445,-2.2039 0.49804,-1.231 0.25354,0.973 0.23687,2.323 -0.0371,3 -0.27393,0.6771 -0.48137,-0.119 -0.46099,-1.769 z M 1350.232,1422 c 0,-1.925 0.2058,-2.7125 0.4573,-1.75 0.2516,0.9625 0.2516,2.5375 0,3.5 -0.2515,0.9625 -0.4573,0.175 -0.4573,-1.75 z m -674.15305,-3.5833 c 0.048,-1.165 0.28494,-1.4019 0.60416,-0.6042 0.28887,0.7219 0.25335,1.5844 -0.0789,1.9167 -0.33229,0.3323 -0.56864,-0.2584 -0.52522,-1.3125 z M 1140.1949,1400.5 c 0.02,-1.65 0.2445,-2.2039 0.4981,-1.231 0.2535,0.973 0.2369,2.323 -0.037,3 -0.2739,0.6771 -0.4813,-0.119 -0.461,-1.769 z m 354.884,0.9167 c 0.048,-1.165 0.285,-1.4019 0.6042,-0.6042 0.2889,0.7219 0.2534,1.5844 -0.079,1.9167 -0.3323,0.3323 -0.5687,-0.2584 -0.5253,-1.3125 z M 1643.1579,1385 c 0,-1.375 0.227,-1.9375 0.5044,-1.25 0.2774,0.6875 0.2774,1.8125 0,2.5 -0.2774,0.6875 -0.5044,0.125 -0.5044,-1.25 z m -567.3454,-20.6831 c 0.7219,-0.2889 1.5844,-0.2534 1.9167,0.079 0.3323,0.3323 -0.2584,0.5687 -1.3125,0.5253 -1.165,-0.048 -1.4019,-0.285 -0.6042,-0.6042 z M 530.38176,1322.5 c 0.002,-6.6 0.16382,-9.1699 0.35965,-5.7108 0.19583,3.459 0.19422,8.859 -0.004,12 -0.19781,3.1409 -0.35803,0.3108 -0.35606,-6.2892 z M 1494.4482,1296 c 0,-18.425 0.1351,-25.9625 0.3001,-16.75 0.165,9.2125 0.165,24.2875 0,33.5 -0.165,9.2125 -0.3001,1.675 -0.3001,-16.75 z m -819.05966,-1.5 c 0.002,-7.15 0.16103,-9.9438 0.35396,-6.2084 0.19293,3.7354 0.19149,9.5854 -0.003,13 -0.19468,3.4146 -0.35253,0.3584 -0.35078,-6.7916 z m 601.93156,6.5 c 0,-3.575 0.1815,-5.0375 0.4033,-3.25 0.2218,1.7875 0.2218,4.7125 0,6.5 -0.2218,1.7875 -0.4033,0.325 -0.4033,-3.25 z m 72.1146,-73 c 0,-14.025 0.1406,-19.7625 0.3125,-12.75 0.1719,7.0125 0.1719,18.4875 0,25.5 -0.1719,7.0125 -0.3125,1.275 -0.3125,-12.75 z m -480.04616,-34.5 c 0.002,-7.15 0.16103,-9.9438 0.35396,-6.2084 0.19293,3.7354 0.19149,9.5854 -0.003,13 -0.19468,3.4146 -0.35253,0.3584 -0.35078,-6.7916 z m 1132.69036,0.9167 c 0.048,-1.165 0.285,-1.4019 0.6042,-0.6042 0.2889,0.7219 0.2534,1.5844 -0.079,1.9167 -0.3323,0.3323 -0.5687,-0.2584 -0.5253,-1.3125 z m -1956.999953,-3 c 0.04798,-1.165 0.284941,-1.4019 0.604167,-0.6042 0.288871,0.7219 0.253344,1.5844 -0.07895,1.9167 -0.332292,0.3323 -0.568641,-0.2584 -0.52522,-1.3125 z M 2003.1949,1159.5 c 0.02,-1.65 0.2445,-2.2039 0.4981,-1.231 0.2535,0.973 0.2369,2.323 -0.037,3 -0.2739,0.6771 -0.4813,-0.119 -0.461,-1.769 z m -1958.999951,-2 c 0.02038,-1.65 0.244498,-2.2039 0.498042,-1.231 0.253543,0.973 0.236869,2.323 -0.03705,3 -0.273923,0.6771 -0.481368,-0.119 -0.460988,-1.769 z M 869.34941,1146 c 0,-4.675 0.17226,-6.5875 0.3828,-4.25 0.21053,2.3375 0.21053,6.1625 0,8.5 -0.21054,2.3375 -0.3828,0.425 -0.3828,-4.25 z M 43.252183,1110.5 c 0.0111,-2.2 0.215885,-2.9823 0.455078,-1.7383 0.239193,1.2439 0.230112,3.0439 -0.02018,4 -0.250292,0.956 -0.445996,-0.062 -0.434898,-2.2617 z m 1961.033817,-12 c 0.01,-2.75 0.2017,-3.7563 0.4316,-2.2363 0.2298,1.5201 0.2237,3.7701 -0.014,5 -0.2373,1.23 -0.4254,-0.014 -0.4179,-2.7637 z M 294.75,1091.2504 c 19.9375,-0.1514 52.5625,-0.1514 72.5,0 19.9375,0.1514 3.625,0.2753 -36.25,0.2753 -39.875,0 -56.1875,-0.1239 -36.25,-0.2753 z m 182.06497,8e-4 c 10.07323,-0.1633 26.27323,-0.163 36,6e-4 9.72676,0.1636 1.48503,0.2971 -18.31497,0.2968 -19.8,-3e-4 -27.75827,-0.1342 -17.68503,-0.2974 z m 229.00714,-8e-4 c 17.22716,-0.1535 45.12716,-0.1534 62,2e-4 16.87284,0.1537 2.77789,0.2793 -31.32211,0.2792 -34.1,-2e-4 -47.90505,-0.1259 -30.67789,-0.2794 z m 679.92789,0 c 19.9375,-0.1514 52.5625,-0.1514 72.5,0 19.9375,0.1514 3.625,0.2753 -36.25,0.2753 -39.875,0 -56.1875,-0.1239 -36.25,-0.2753 z m 295,0 c 19.9375,-0.1514 52.5625,-0.1514 72.5,0 19.9375,0.1514 3.625,0.2753 -36.25,0.2753 -39.875,0 -56.1875,-0.1239 -36.25,-0.2753 z M 270.40499,1017.75 268.5,1015.5 l 2.25,1.905 c 1.2375,1.0477 2.25,2.0602 2.25,2.25 0,0.8002 -0.80479,0.2094 -2.59501,-1.905 z M 246.28601,955.5 c 0.008,-2.75 0.20172,-3.75631 0.43157,-2.23625 0.22986,1.52006 0.22371,3.77006 -0.0136,5 -0.23736,1.22994 -0.42542,-0.0137 -0.41792,-2.76375 z M 2004.2997,952 c 0,-3.025 0.1874,-4.2625 0.4166,-2.75 0.2291,1.5125 0.2291,3.9875 0,5.5 -0.2292,1.5125 -0.4166,0.275 -0.4166,-2.75 z M 43.232003,931 c 0,-1.925 0.205795,-2.7125 0.457323,-1.75 0.251527,0.9625 0.251527,2.5375 0,3.5 -0.251528,0.9625 -0.457323,0.175 -0.457323,-1.75 z M 270,897.5 c 1.86578,-1.925 3.61733,-3.5 3.89233,-3.5 0.275,0 -1.02655,1.575 -2.89233,3.5 -1.86578,1.925 -3.61733,3.5 -3.89233,3.5 -0.275,0 1.02655,-1.575 2.89233,-3.5 z m 1733.1949,-7 c 0.02,-1.65 0.2445,-2.20394 0.4981,-1.23097 0.2535,0.97297 0.2369,2.32297 -0.037,3 -0.2739,0.67703 -0.4813,-0.11903 -0.461,-1.76903 z M 44.078947,885.41667 c 0.04798,-1.16495 0.284941,-1.4019 0.604167,-0.60417 0.288871,0.72187 0.253344,1.58438 -0.07895,1.91667 -0.332292,0.33229 -0.568641,-0.25834 -0.52522,-1.3125 z m 1957.999953,-31 c 0.048,-1.16495 0.285,-1.4019 0.6042,-0.60417 0.2889,0.72187 0.2534,1.58438 -0.079,1.91667 -0.3323,0.33229 -0.5687,-0.25834 -0.5253,-1.3125 z M 179,167.62244 c 0,-0.20765 0.7875,-0.99515 1.75,-1.75 1.58606,-1.24387 1.62143,-1.2085 0.37756,0.37756 C 179.82119,167.91575 179,168.44548 179,167.62244 Z M 1307.8125,50.316886 c 0.7219,-0.288871 1.5844,-0.253344 1.9167,0.07895 0.3323,0.332292 -0.2584,0.568641 -1.3125,0.52522 -1.165,-0.04798 -1.4019,-0.284941 -0.6042,-0.604167 z m -441,-6 c 0.72187,-0.288871 1.58438,-0.253344 1.91667,0.07895 0.33229,0.332292 -0.25834,0.568641 -1.3125,0.52522 -1.16495,-0.04798 -1.4019,-0.284941 -0.60417,-0.604167 z m 309.9375,0.02083 c 0.6875,-0.277412 1.8125,-0.277412 2.5,0 0.6875,0.277413 0.125,0.504386 -1.25,0.504386 -1.375,0 -1.9375,-0.226973 -1.25,-0.504386 z m -273,-1 c 0.6875,-0.277412 1.8125,-0.277412 2.5,0 0.6875,0.277413 0.125,0.504386 -1.25,0.504386 -1.375,0 -1.9375,-0.226973 -1.25,-0.504386 z m 228,0 c 0.6875,-0.277412 1.8125,-0.277412 2.5,0 0.6875,0.277413 0.125,0.504386 -1.25,0.504386 -1.375,0 -1.9375,-0.226973 -1.25,-0.504386 z M 986.20625,42.259447 c 3.68844,-0.191858 9.98844,-0.193134 13.99995,-0.0028 4.0116,0.190298 0.9938,0.347272 -6.7062,0.348833 -7.7,0.0016 -10.98219,-0.154138 -7.29375,-0.345996 z m 44.07395,0.0043 c 2.6291,-0.206676 6.6791,-0.204183 9,0.0055 2.3209,0.209724 0.1698,0.378823 -4.7802,0.375776 -4.95,-0.003 -6.8489,-0.17464 -4.2198,-0.381317 z"
         id="path3" />
      <path
         style="fill:#fe6100"
         d="m 947.5,2003.8919 c -80.9938,-0.6567 -85.39449,-0.7801 -159.5,-4.4705 -139.86619,-6.9654 -267.56651,-20.161 -376.5,-38.9048 -53.46547,-9.1996 -124.41283,-25.0868 -147.96508,-33.1337 -21.77175,-7.4386 -43.13434,-17.4668 -57.03492,-26.7737 -32.77574,-21.9447 -54.28195,-46.2387 -71.80181,-81.1092 -13.26662,-26.4051 -18.87522,-44.6488 -30.58901,-99.5 -17.241897,-80.7372 -32.834146,-187.0092 -42.548865,-290 -1.374803,-14.575 -3.181868,-33.7 -4.015701,-42.5 -2.010079,-21.2137 -5.157205,-66.3605 -7.040589,-101 -0.837313,-15.4 -2.19472,-39.475 -3.016459,-53.5 -2.605666,-44.4721 -3.572261,-86.019 -4.164458,-179 -0.597121,-93.75409 0.40405,-162.31553 3.21986,-220.5 3.253826,-67.23543 8.900835,-154.44076 11.947355,-184.5 0.808271,-7.975 2.386982,-24.4 3.508247,-36.5 C 66.388563,565.12591 75.996041,488.57537 84.024702,437 95.203269,365.18993 112.20225,284.21674 121.49783,258.5 c 11.33566,-31.36073 25.45456,-55.7051 45.23733,-78 22.81063,-25.70726 58.47843,-47.98769 97.76484,-61.07029 15.94039,-5.30825 63.29907,-16.59329 100,-23.828886 125.51359,-24.745025 259.53896,-39.504332 441,-48.564346 119.09657,-5.94627 324.4392,-5.716994 447.5,0.499659 83.2534,4.205706 122.3986,7.102796 203,15.023809 45.9459,4.515284 58.1705,6.010284 114.6476,14.020767 88.006,12.482437 176.6021,30.718647 218.4803,44.971007 17.6118,5.99377 40.4725,17.24516 55.9137,27.51904 9.9947,6.65006 15.5328,11.36832 28.0052,23.85927 23.0148,23.04905 32.3136,36.26301 44.1632,62.75811 10.1567,22.70975 14.7746,37.82106 23.2187,75.97892 15.5467,70.25354 29.3854,154.86361 38.5724,235.83294 1.685,14.85 3.7169,32.175 4.5154,38.5 5.7299,45.38578 14.4438,166.50461 18.454,256.5 3.1648,71.02422 3.6941,248.3607 0.9985,334.5 -1.2944,41.3614 -6.2415,131.0029 -9.52,172.5 -3.945,49.9345 -8.3361,98.9355 -9.947,111 -0.8079,6.05 -3.0568,25.4 -4.9977,43 -8.5477,77.5113 -22.5659,162.717 -38.6437,234.8855 -10.1324,45.4812 -18.1161,68.0135 -33.7775,95.3305 -17.4895,30.5056 -50.0274,60.8591 -82.6586,77.1095 -26.6762,13.2848 -43.806,19.0995 -85.4358,29.0016 -107.265,25.5139 -238.2716,43.5668 -399.9887,55.119 -15.675,1.1197 -42.225,2.7228 -59,3.5625 -16.775,0.8396 -38.375,1.9499 -48,2.4674 -51.7134,2.7804 -161.2557,3.9071 -283.5,2.9159 z m 95.5,-410.8281 c 8.6299,-0.9145 15.7115,-2.7972 31,-8.2413 17.2082,-6.1278 33.4472,-16.6679 49.7629,-32.2993 6.5128,-6.2396 13.168,-13.2639 14.7893,-15.6096 l 2.9478,-4.2649 0.6325,9.9257 c 0.3479,5.4591 0.6854,16.7881 0.75,25.1756 L 1143,1583 h 67.9016 67.9016 l -0.4691,-134.25 c -0.2581,-73.8375 -0.862,-150.45 -1.3421,-170.25 -0.8611,-35.5136 -0.9154,-36.1754 -4.0174,-48.9821 -8.6619,-35.7603 -20.5633,-60.6702 -40.2073,-84.1548 -9.4178,-11.2592 -24.7998,-25.115 -35.5043,-31.9819 -16.7765,-10.762 -45.7488,-22.6343 -66.9407,-27.4309 -42.8168,-9.6913 -110.0123,-9.3364 -169.3223,0.8943 -27.35214,4.7181 -35.52419,6.8065 -69.75496,17.8262 -18.69596,6.0186 -20.31113,6.7248 -20.98487,9.1749 -0.90779,3.3011 -1.00707,112.7407 -0.1031,113.6447 0.36139,0.3614 2.00928,-0.042 3.66198,-0.8968 4.11397,-2.1274 39.1946,-13.6987 52.68095,-17.3768 44.64997,-12.177 66.01015,-15.2175 106.8952,-15.216 25.065,10e-4 42.6527,1.3577 47.0861,3.6322 1.6603,0.8518 5.2687,2.233 8.0187,3.0694 16.8383,5.1211 32.8588,18.0819 41.4683,33.5483 5.1423,9.2381 9.7162,24.017 10.5663,34.1417 l 0.6627,7.8925 -2.3486,-0.7766 c -1.2918,-0.4271 -18.0987,-0.9756 -37.3487,-1.2189 -32.7139,-0.4136 -36.5235,-0.273 -58.3248,2.1522 -46.46957,5.1695 -75.63548,12.988 -107.1752,28.7305 -19.09765,9.5322 -30.50895,16.9975 -43.5,28.4579 -6.89932,6.0864 -6.88624,6.073 -13.06676,13.37 -19.63911,23.1869 -29.47221,46.2582 -33.47544,78.543 -1.15644,9.3264 -1.8759,18.982 -1.59879,21.457 0.27711,2.475 0.99651,9.6353 1.59868,15.9118 2.29037,23.873 7.37259,39.7407 19.58654,61.1531 4.76165,8.3477 7.52386,11.5957 21.70586,25.5233 14.26403,14.0081 17.44827,16.6138 26.05576,21.3215 15.62322,8.5449 30.41063,14.6812 41.19415,17.0943 5.5,1.2307 10.75454,2.6315 11.67676,3.1128 4.77745,2.4935 58.75614,3.8615 76.82324,1.947 z m -10.6911,-103.4777 c -4.2238,-0.8079 -11.4449,-3.4101 -17.5,-6.3061 -8.3537,-3.9955 -11.3051,-6.0227 -15.56139,-10.6886 -6.93657,-7.6042 -11.74682,-17.7789 -13.69979,-28.9781 -2.01357,-11.5467 -1.95406,-14.691 0.45812,-24.2033 5.41084,-21.3375 15.47766,-32.0916 40.49416,-43.2591 8.0927,-3.6126 22.1931,-7.8126 34.5,-10.2764 6.1261,-1.2264 62.641,-2.3305 72.4136,-1.4148 l 7.8678,0.7373 -0.7279,29.5165 c -0.8263,33.5083 -1.6985,38.314 -9.668,53.2713 -8.8641,16.6362 -17.2112,25.0746 -33.1408,33.5035 -14.6013,7.7261 -18.7407,8.6737 -39.7447,9.0989 -12.9684,0.2625 -20.6502,-0.037 -25.6911,-1.0011 z M 1555.5,1592.1126 c 16.7242,-4.254 23.4811,-6.7464 37.3953,-13.7942 12.8743,-6.5211 17.1317,-9.2896 26,-16.9074 10.971,-9.4241 20.5707,-19.0852 25.5936,-25.7574 2.5035,-3.3256 2.9859,-3.5964 3.5622,-2 0.3666,1.0155 0.9868,11.6796 1.3781,23.698 0.3913,12.0183 0.9336,22.4303 1.2051,23.1377 0.2714,0.7075 1.871,1.5618 3.5546,1.8985 1.6836,0.3367 32.7049,0.6122 68.9361,0.6122 H 1789 v -246.0066 -246.0066 l -72.25,0.2566 -72.25,0.2566 -0.6437,157 c -0.3577,87.2547 -1.0495,159.2212 -1.5573,162 -0.5025,2.75 -1.387,5.9 -1.9655,7 -0.5785,1.1 -1.3331,3.4835 -1.677,5.2967 -0.3438,1.8132 -2.0137,6.4603 -3.7107,10.3269 -9.2568,21.0906 -24.5621,35.4563 -44.6211,41.8818 -8.4562,2.7087 -10.6209,2.9946 -22.6767,2.9946 -22.0432,0 -35.2578,-4.6827 -47.6634,-16.8899 -14.6477,-14.4133 -22.4144,-31.6418 -23.9422,-53.1101 -0.4892,-6.875 -1.2165,-81.0125 -1.6161,-164.75 L 1493.6997,1091 h -71.8812 c -64.9812,0 -71.9402,0.1537 -72.4955,1.6007 -0.3378,0.8803 -0.1469,79.7428 0.4242,175.25 1.0289,172.0593 1.0583,173.75 3.21,184.6493 6.883,34.8649 18.6909,63.6333 34.0784,83.0273 12.6751,15.9753 35.8819,35.404 50.9644,42.6671 6.1938,2.9828 23.4835,9.8056 24.8482,9.8056 0.4902,0 3.7624,0.9203 7.2715,2.0451 3.5092,1.1249 9.5303,2.4433 13.3803,2.93 9.1025,1.1505 66.8033,0.4594 72,-0.8625 z m -831,-0.1308 c 25.98863,-1.2872 57.60259,-5.2521 64.75,-8.1207 l 2.75,-1.1037 v -54.5168 -54.5168 l -6.59582,0.6758 c -3.62771,0.3716 -9.12225,1.3338 -12.2101,2.1381 -4.09298,1.0661 -11.50468,1.4623 -27.35256,1.4623 -20.32709,0 -22.24473,-0.16 -29.5399,-2.4646 -19.59425,-6.1898 -32.96067,-19.611 -37.71691,-37.8715 -2.04611,-7.8555 -2.47587,-26.8337 -3.1457,-138.9139 L 674.86079,1202 h 62.07807 62.07807 l -0.25846,-55.25 -0.25847,-55.25 -61.75,-0.2576 -61.75,-0.2577 v -73.5237 c 0,-62.78398 -0.20859,-73.60381 -1.42798,-74.07174 -1.97249,-0.75691 -29.2272,3.48093 -59.07202,9.18512 -4.4,0.84097 -14.525,2.60322 -22.5,3.91613 -7.975,1.31291 -17.875,3.05266 -22,3.86611 -18.45394,3.63913 -25.00439,4.82277 -32.25,5.82745 L 530,967.25869 V 1029.1293 1091 H 494.5 459 v 55.5 55.5 h 35.5 35.5 l 0.0572,54.75 c 0.0315,30.1125 0.44193,86.7 0.91214,125.75 l 0.85491,71 3.07647,13.307 c 6.04336,26.14 10.99398,39.1736 21.25055,55.9465 9.51114,15.5538 19.46254,26.6545 32.90788,36.7083 19.71619,14.7429 41.51726,24.2911 63.94083,28.0042 5.225,0.8651 12.65,2.2481 16.5,3.0732 11.48472,2.4612 26.48776,2.8547 55,1.4426 z M 403.752,1337.25 403.5,1091.5 331.25,1091.2434 259,1090.9868 V 1336.9934 1583 h 72.502 72.50201 z M 353,1037.5809 c 4.125,-0.958 12.66119,-4.2014 18.96932,-7.2077 10.62085,-5.0615 12.17438,-6.1837 21,-15.1695 7.13127,-7.2607 10.58047,-11.7178 13.70052,-17.7037 6.78788,-13.02282 8.44592,-19.2463 9.05759,-33.99794 1.24406,-30.00279 -4.81702,-46.84283 -23.61144,-65.60179 -6.87176,-6.85879 -10.33674,-9.44355 -17.11599,-12.76792 -15.66907,-7.68372 -25.93536,-9.94969 -45.57528,-10.05935 -11.83589,-0.0661 -14.06341,0.22095 -23.5,3.02815 -18.88947,5.61923 -30.7436,12.99158 -41.33611,25.70784 -6.72143,8.06904 -8.92236,11.76608 -13.41201,22.52889 -4.18064,10.02203 -5.5066,23.20231 -4.16823,41.43278 1.09175,14.87107 1.41401,16.14751 6.75888,26.77139 6.39621,12.71355 17.44019,25.41705 27.93105,32.12795 6.71371,4.2947 21.18658,9.9018 27.84952,10.7895 2.77631,0.3699 5.70131,1.0986 6.5,1.6194 2.33753,1.5241 28.50704,0.4632 36.95218,-1.498 z M 1697,963 c 0,-43.22669 -0.3287,-63 -1.0472,-63 -1.6803,0 -55.2728,8.98777 -57.229,9.59764 -0.9768,0.30456 -8.1768,1.62679 -16,2.93829 -7.8231,1.31151 -20.5238,3.54221 -28.2238,4.95713 -7.7,1.41492 -21.65,3.92681 -31,5.58199 -9.35,1.65518 -23.075,4.11708 -30.5,5.47087 -7.425,1.3538 -27.5616,4.82229 -44.748,7.70777 L 1457.0041,941.5 v 42.25 42.25 h 120 120 z"
         id="path2" />
    </g>
    <path
       style="fill:#ffffff;stroke:#160096;stroke-width:0.225055"
       d="m 268.37785,1341.6088 -1.7e-4,-245.5912 72.01775,0.2977 72.01776,0.2976 V 1341.9065 1587.2 H 340.3956 268.37802 Z"
       id="path9" />
    <path
       style="fill:#ffffff;stroke:#160096;stroke-width:0.318276"
       d="m 316.56927,1040.762 c -24.0053,-6.4753 -42.88167,-21.7748 -53.51524,-43.37462 l -5.25067,-10.66561 v -24.69984 c 0,-24.67746 0.005,-24.70948 5.21402,-35.35939 14.27825,-29.1905 41.98165,-45.83439 76.29038,-45.83439 27.04038,0 46.20974,7.41293 62.58842,24.20339 17.03557,17.46385 23.23975,35.66676 21.73956,63.78338 -0.71883,13.47248 -1.57047,17.13565 -6.29828,27.09109 -8.17988,17.22449 -21.09085,30.38349 -37.26904,37.98509 -7.15117,3.3601 -16.73751,6.8176 -21.30297,7.6835 -11.54873,2.1901 -32.56457,1.7854 -42.19618,-0.8126 z"
       id="path10" />
    <path
       style="fill:#ffffff;stroke:#160096;stroke-width:0.318276"
       d="m 690.65839,1595.7277 c -19.81723,-1.765 -45.83481,-7.9415 -60.47239,-14.3561 -44.77048,-19.6196 -72.02627,-53.8005 -84.23754,-105.6407 -3.51717,-14.9313 -3.9493,-20.8817 -4.71849,-64.9736 -0.46571,-26.6954 -0.87152,-83.806 -0.90181,-126.9125 l -0.0551,-78.3754 h -35.80603 -35.80602 v -54.8891 -54.8891 l 18.6987,1.0024 c 10.28429,0.5513 26.397,0.4764 35.80602,-0.1666 l 17.10733,-1.169 v -61.0077 c 0,-56.728 0.19536,-61.06545 2.78491,-61.83102 8.01044,-2.36819 128.61881,-23.26184 134.27871,-23.26184 3.47683,0 4.33197,0.84575 4.92236,4.86825 0.39297,2.67754 0.88668,35.43474 1.09711,72.79381 0.21043,37.359 0.68227,68.2252 1.04854,68.5914 0.36626,0.3663 27.88253,1.0071 61.14728,1.4241 l 60.48134,0.7582 0.008,38.3722 c 0.005,21.1047 0.4706,45.3543 1.03572,53.8881 l 1.02747,15.5159 h -62.3038 -62.30378 l -0.0423,9.1505 c -0.19207,41.5181 0.43152,171.773 0.91946,192.0536 0.72514,30.1403 2.33736,39.0246 9.13771,50.354 6.04582,10.0724 15.09108,17.3568 27.72899,22.3309 7.64561,3.0092 12.70734,3.6849 29.9294,3.9954 12.88818,0.2323 25.22661,-0.4843 32.62326,-1.8949 6.54264,-1.2477 12.79087,-2.2694 13.88494,-2.2704 1.55233,0 1.98923,11.8579 1.98923,53.9977 0,50.031 -0.20469,54.0645 -2.78492,54.8826 -14.4966,4.5963 -84.19098,9.6213 -106.22453,7.6589 z"
       id="path11" />
    <path
       style="fill:#ffffff;stroke:#160096;stroke-width:0.318276"
       d="m 974.89929,1594.4069 c -15.45569,-3.226 -24.85848,-6.5872 -43.14702,-15.4237 -15.40368,-7.4426 -18.14933,-9.5123 -35.13447,-26.4838 -19.74919,-19.7334 -27.37658,-31.6723 -34.63716,-54.2163 -3.61617,-11.2282 -7.17693,-31.2215 -5.92208,-33.2519 0.42877,-0.6938 0.004,-4.0587 -0.94367,-7.4776 -1.92418,-6.941 0.26458,-30.756 4.37404,-47.592 7.60861,-31.1717 26.78691,-59.5592 54.31792,-80.4007 12.65765,-9.5821 42.46921,-24.9601 61.03778,-31.4858 13.98199,-4.9138 43.67207,-11.9788 58.06187,-13.8163 37.1612,-4.7452 79.2915,-6.0066 111.722,-3.345 l 6.7927,0.5575 -1.0318,-8.1626 c -2.5452,-20.1352 -13.9553,-44.6127 -25.0035,-53.6384 -7.7885,-6.3628 -20.4516,-12.9654 -33.0648,-17.2402 l -13.3663,-4.5301 -38.9888,0.3493 c -31.7263,0.2842 -42.39767,0.9748 -57.2896,3.7075 -24.4092,4.4791 -49.91379,11.2507 -78.27038,20.781 -20.15423,6.7737 -23.50148,7.5054 -24.33989,5.3205 -1.15393,-3.0071 -0.87304,-106.5578 0.29732,-109.6077 1.02324,-2.6665 44.55288,-16.6893 67.87816,-21.8664 33.823,-7.5072 57.24749,-10.1491 102.06839,-11.512 60.5109,-1.84 95.4868,4.1991 136.0022,23.4826 32.5934,15.5131 57.3005,39.2237 74.7557,71.7408 10.6315,19.8054 19.4961,46.1727 22.3703,66.5393 0.8037,5.6949 1.9337,84.6518 2.5111,175.4599 l 1.0498,165.1055 h -67.0226 -67.0226 l -0.3179,-17.903 c -0.2925,-16.4768 -0.5261,-23.0502 -1.0696,-30.0934 -0.1326,-1.7185 -5.3491,2.4882 -14.9241,12.0352 -22.7978,22.7311 -43.5049,35.1504 -70.4661,42.2624 -11.1999,2.9545 -16.6855,3.3155 -46.8981,3.0864 -21.35496,-0.1619 -38.03487,-1.0568 -44.37881,-2.381 z m 118.37791,-101.6503 c 4.3763,-1.2731 13.7348,-5.878 20.7966,-10.2332 9.7809,-6.0321 14.196,-9.9613 18.5331,-16.4934 14.6386,-22.0474 16.8194,-30.5391 17.9883,-70.0447 l 0.7828,-26.4567 -5.9754,-1.1528 c -8.7497,-1.688 -49.7535,-1.2805 -67.2435,0.6682 -8.3149,0.9265 -21.2051,3.6132 -28.6448,5.9706 -34.4402,10.9129 -48.5451,23.376 -55.19007,48.7659 -2.41998,9.2466 -2.53027,12.1137 -0.84417,21.9463 2.14346,12.4997 7.39974,24.1538 14.58494,32.3372 5.6826,6.4722 24.317,15.3765 35.626,17.0236 11.7932,1.7177 40.2698,0.379 49.5862,-2.331 z"
       id="path12" />
    <path
       style="fill:#ffffff;stroke:#160096;stroke-width:0.318276"
       d="m 1479.7435,1593.735 c -28.3343,-7.2896 -47.7156,-18.813 -71.3814,-42.4408 -15.9573,-15.9317 -25.1958,-30.4609 -33.5898,-52.8259 -9.3152,-24.8195 -11.9211,-37.3956 -13.3933,-64.636 -1.4222,-26.3166 -2.5099,-334.5516 -1.1852,-335.8764 0.4102,-0.4101 32.2823,-0.9359 70.8269,-1.1684 l 70.0812,-0.4226 1.0032,70.0682 c 0.5518,38.5375 1.2347,111.2451 1.5177,161.5725 0.4456,79.2779 0.8657,92.7305 3.1439,100.6814 5.3197,18.566 16.786,35.5409 29.9456,44.332 19.1518,12.7941 51.4602,13.9347 73.7078,2.6021 7.473,-3.8066 23.1302,-15.396 23.1302,-17.1208 0,-0.6641 2.5318,-5.4119 5.6263,-10.5507 3.0944,-5.1387 7.4845,-15.0721 9.7557,-22.0742 l 4.1296,-12.731 0.7192,-157.545 c 0.3956,-86.6497 0.8393,-157.6369 0.9861,-157.7493 0.1467,-0.1123 32.3131,-0.5392 71.4809,-0.9486 l 71.2142,-0.7442 v 245.8793 245.8793 l -67.8535,-1.0082 c -37.3195,-0.5546 -68.1005,-1.2551 -68.4022,-1.5568 -0.3017,-0.3017 -0.9489,-8.0204 -1.4383,-17.1526 -0.4894,-9.1322 -1.2631,-20.3142 -1.7193,-24.849 l -0.8296,-8.245 -14.572,15.0235 c -16.9283,17.453 -27.8743,25.5451 -46.1035,34.0832 -24.2936,11.3785 -32.4069,12.8167 -71.2073,12.6225 -27.6227,-0.1382 -36.4069,-0.7352 -45.5931,-3.0985 z"
       id="path13" />
    <path
       style="fill:#ffffff;stroke:#160096;stroke-width:0.318276"
       d="m 1466.4556,988.15068 -10e-5,-41.47139 48.1393,-8.24685 c 26.4765,-4.53577 76.4259,-13.27928 110.9986,-19.43002 34.5727,-6.15074 66.6191,-11.62579 71.2142,-12.16679 l 8.3548,-0.98362 v 61.88503 61.88506 H 1585.809 1466.4556 Z"
       id="path14" />
  </g>
</svg>
