<?xml version="1.0" encoding="UTF-8"?>
<svg id="Camada_1" xmlns="http://www.w3.org/2000/svg" version="1.1" viewBox="0 0 2500 2500">
  <!-- Generator: Adobe Illustrator 29.6.0, SVG Export Plug-In . SVG Version: 2.1.1 Build 207)  -->
  <defs>
    <style>
      .st0, .st1 {
        fill: #00003c;
      }

      .st1 {
        fill-rule: evenodd;
      }
    </style>
  </defs>
  <path class="st1" d="M0,787.88v675.31c0,203.52,164.98,368.5,368.5,368.5s368.5-164.98,368.5-368.5-164.98-368.5-368.5-368.5h-112.28v191.92h111.46c98.87,0,179.03,81.38,179.03,180.26s-79.06,177.8-176.58,177.8-176.58-79.06-176.58-176.58v-680.21H0Z"/>
  <path class="st1" d="M518.97,787.88v270.1l.31.12c46.13,18.67,78.61,37.17,107.36,59.89,28.76,22.72,53.79,49.66,85.02,85.23l.86.98v-416.31h-193.55Z"/>
  <path class="st0" d="M947.04,1096.81h195.84c0,121.42,0,324.77-128.93,367.19,117.5,32.64,133.82,259.49,127.29,368.83h-194.2c.54-42.43-2.94-142.63-21.21-204-18.28-61.36-97.92-77.79-135.45-78.33,2.72-8.7,8.49-34.27,9.79-66.91,1.3-32.64-5.98-85.41-9.79-107.71l44.06-4.9c20.67-.54,67.89-16.32,91.39-75.07,23.5-58.75,23.93-157.22,21.21-199.1Z"/>
  <path class="st0" d="M2485.53,1191.22l-92.15,95.44,103.89,157.21h-99.58l-61.57-101.72-21.38,20.89v80.83h-82.51v-347.63h82.51v179.13l75.21-84.14h95.57Z"/>
  <path class="st0" d="M2086.59,1183.92c-30.04,0-64.07,16.1-79.09,41.9h-1.02v-34.59h-80.11v252.65h82.5v-137.8c0-27.74,13.54-54,44.6-54,41.77,0,41.52,29.97,41.24,61.84-.02,2.59-.04,5.2-.04,7.8v122.27h82.49v-162.11c0-36.53-6.82-97.84-90.8-97.84l.23-.11Z"/>
  <path class="st1" d="M1754.66,1183.92c59.74,0,117.43,13.13,117.43,84.71l.11.23v110.51c0,21.35,0,44.75,9.67,64.73h-82.95c-2.86-7.5-3.81-15.11-4.79-23.04l-.1-.82c-21.28,22.38-52.91,31.17-82.95,31.17-48.02,0-85.91-24.43-85.91-76.49,0-67.42,59.93-75.41,113.06-82.49,11.74-1.56,23.14-3.08,33.5-5.19,14.11-2.97,21.85-7.76,21.85-23.4,0-18.95-22.87-26.26-39.83-26.26-22.87,0-37.44,10.16-41.31,31.63h-77.15c1.36-33.11,16.95-54.57,39.26-67.7,22.3-12.67,51.44-17.58,80.11-17.58ZM1707.55,1371.37c0,20.44,16.04,28.77,34.48,28.77v.12c39.37,0,52.46-22.49,50.52-74.55-7.63,4.75-19.3,6.99-31.47,9.33-6.54,1.26-13.22,2.54-19.5,4.25-18.55,4.34-34.02,11.64-34.02,32.08Z"/>
  <path class="st1" d="M1488.16,1183.92c-31.07,0-54.85,11.64-71.8,35.05h-.91v-122.73h-82.5v347.63h78.63v-29.23h.91c16.05,23.86,40.28,36.53,69.41,36.53,79.09,0,112.54-68.16,112.54-139.28,0-65.76-34.93-128.09-106.28-128.09v.12ZM1462.45,1387.93c-37.32,0-49.96-28.77-49.96-73.07,0-52.06,28.11-67.7,50.53-67.7,36.41,0,49.04,35.51,49.04,67.7,0,34.59-12.63,73.07-49.5,73.07h-.11Z"/>
</svg>