<?xml version="1.0" encoding="UTF-8"?>
<svg id="Camada_1" xmlns="http://www.w3.org/2000/svg" version="1.1" viewBox="0 0 2500 2500">
  <!-- Generator: Adobe Illustrator 29.6.0, SVG Export Plug-In . SVG Version: 2.1.1 Build 207)  -->
  <defs>
    <style>
      .st0, .st1 {
        fill: #00003c;
      }

      .st1 {
        fill-rule: evenodd;
      }
    </style>
  </defs>
  <path class="st1" d="M0,107.1v1477.23c0,445.18,360.9,806.08,806.08,806.08s806.08-360.9,806.08-806.08-360.9-806.08-806.08-806.08h-245.61v419.82h243.82c216.28,0,391.62,178.02,391.62,394.31s-172.94,388.93-386.26,388.93-386.26-172.94-386.26-386.26V107.1H0Z"/>
  <path class="st1" d="M1135.23,107.1v590.83l.67.27c100.91,40.83,171.96,81.31,234.86,131.01,62.9,49.7,117.67,108.64,185.98,186.43l1.88,2.14V107.1h-423.39Z"/>
  <path class="st0" d="M2071.61,782.88h428.39c0,265.6,0,710.41-282.02,803.23,257.03,71.4,292.73,567.62,278.45,806.8h-424.82c1.19-92.82-6.42-312.01-46.41-446.24-39.98-134.23-214.19-170.16-296.3-171.35,5.95-19.04,18.56-74.97,21.42-146.37,2.85-71.4-13.09-186.82-21.42-235.61l96.38-10.71c45.22-1.19,148.51-35.7,199.92-164.21,51.41-128.52,52.35-343.9,46.41-435.53Z"/>
</svg>