<?xml version="1.0" encoding="UTF-8" standalone="no"?>
<!-- Created with Inkscape (http://www.inkscape.org/) -->

<svg
   version="1.1"
   id="svg2"
   width="2500"
   height="2500"
   viewBox="0 0 2500 2500"
   sodipodi:docname="logo-sicred-preto.svg"
   inkscape:version="1.2.2 (732a01da63, 2022-12-09)"
   xmlns:inkscape="http://www.inkscape.org/namespaces/inkscape"
   xmlns:sodipodi="http://sodipodi.sourceforge.net/DTD/sodipodi-0.dtd"
   xmlns="http://www.w3.org/2000/svg"
   xmlns:svg="http://www.w3.org/2000/svg">
  <defs
     id="defs6">
    <clipPath
       clipPathUnits="userSpaceOnUse"
       id="clipPath18">
      <path
         d="M 0,208.721 H 708.661 V 0 H 0 Z"
         id="path16" />
    </clipPath>
  </defs>
  <sodipodi:namedview
     id="namedview4"
     pagecolor="#505050"
     bordercolor="#eeeeee"
     borderopacity="1"
     inkscape:showpageshadow="0"
     inkscape:pageopacity="0"
     inkscape:pagecheckerboard="0"
     inkscape:deskcolor="#505050"
     showgrid="false"
     inkscape:zoom="0.22937084"
     inkscape:cx="2075.242"
     inkscape:cy="1159.6941"
     inkscape:window-width="1920"
     inkscape:window-height="1009"
     inkscape:window-x="-8"
     inkscape:window-y="-8"
     inkscape:window-maximized="1"
     inkscape:current-layer="g10">
    <inkscape:page
       x="0"
       y="0"
       id="page8"
       width="2500"
       height="2500" />
  </sodipodi:namedview>
  <g
     id="g10"
     inkscape:groupmode="layer"
     inkscape:label="Page 1"
     transform="matrix(1.3333333,0,0,-1.3333333,-89.331731,233.62869)">
    <g
       id="g12"
       transform="matrix(14.149701,0,0,13.210437,-881.01422,-2139.5313)">
      <g
         id="g14"
         clip-path="url(#clipPath18)">
        <g
           id="g20"
           transform="translate(167.2213,111.6688)">
          <path
             d="m 0,0 c -3.909,-3.418 -6.918,-3.996 -8.235,-2.607 -0.864,0.91 -1.037,2.668 -0.383,4.942 2.073,7.214 3.685,14.496 5.024,21.898 0.01,0.003 0.022,0.008 0.033,0.014 7.877,3.687 15.787,7.07 24.532,7.985 C 16.839,20.428 9.351,8.179 0,0 m -4.043,-24.218 c -4.935,1.091 -7.296,3.304 -7.144,5.317 0.099,1.32 1.248,2.591 3.267,3.486 6.206,2.751 12.333,5.781 18.102,9.409 0.01,-0.006 0.021,-0.012 0.031,-0.018 7.644,-3.902 14.987,-8.853 20.894,-15.124 -10.74,-4.186 -24.035,-5.53 -35.15,-3.07 m -20.412,-12.839 c -2.382,5.21 -2.204,8.744 -0.59,9.966 1.06,0.801 2.746,0.649 4.712,-0.511 6,-3.541 12.184,-6.849 18.666,-9.477 0.002,-0.012 0.004,-0.027 0.007,-0.039 2.331,-9.74 3.688,-19.962 3.089,-29.987 -10.79,7.067 -20.582,18.445 -25.884,30.048 m -23.178,9.346 c 2.676,5.696 5.533,7.837 7.501,7.24 1.291,-0.39 2.239,-1.953 2.586,-4.462 1.101,-7.924 2.696,-15.703 4.637,-23.481 -0.007,-0.011 -0.018,-0.025 -0.026,-0.036 -6.712,-9.526 -13.914,-18.698 -22.949,-26.16 -1.067,15.395 1.726,33.011 8.251,46.899 m -6.992,26.187 c 6.122,1.291 9.465,0.228 10.216,-1.793 0.494,-1.327 -0.118,-3.1 -1.852,-4.992 -5.729,-6.25 -10.981,-12.822 -16.024,-19.66 h -0.046 c -12.337,-0.912 -25.173,-0.404 -37.212,2.6 12.267,10.866 28.896,20.466 44.918,23.845 m 15.638,21.232 c 4.581,-4.103 5.835,-7.38 4.811,-9.166 -0.669,-1.17 -2.341,-1.725 -4.792,-1.435 -8.21,0.967 -16.4,1.344 -24.686,1.405 -0.008,0.01 -0.018,0.025 -0.028,0.036 -7.824,9.31 -14.9,19.798 -19.449,31.124 15.506,-3.674 32.285,-11.343 44.144,-21.964 m 24.323,-0.34 c -0.032,-5.812 -1.539,-8.739 -3.408,-8.957 -1.225,-0.144 -2.635,0.87 -3.916,2.974 -4.194,6.889 -8.788,13.457 -13.663,19.905 0.002,0.013 0.007,0.027 0.011,0.041 1.892,10.174 4.921,20.546 10.101,29.567 6.482,-13.059 10.954,-29.002 10.875,-43.53"
             style="fill:#404040;fill-opacity:1;fill-rule:nonzero;stroke:none"
             id="path22" />
        </g>
        <g
           id="g24"
           transform="translate(166.6318,165.3931)">
          <path
             d="m 0,0 c -0.462,-7.762 -1.021,-15.542 -2.072,-23.138 -0.285,-2.06 -0.608,-4.46 -0.932,-6.354 0.009,0.004 0.022,0.01 0.032,0.014 7.876,3.687 15.785,7.069 24.53,7.985 C 16.066,-12.846 8.701,-5.422 0,0 M 31.233,-44.985 C 26.182,-49.138 20.988,-53.163 15.5,-56.68 c -1.534,-0.984 -3.277,-2.172 -4.728,-3.052 0.009,-0.005 0.02,-0.011 0.03,-0.017 7.643,-3.9 14.985,-8.851 20.892,-15.121 1.4,10.363 1.289,19.575 -0.461,29.885 m -8.439,-53.664 c -6.292,1.593 -12.56,3.404 -18.578,5.777 -1.714,0.677 -3.709,1.394 -5.294,2.069 0.002,-0.012 0.005,-0.027 0.007,-0.039 2.331,-9.739 3.689,-19.96 3.09,-29.984 8.478,5.727 15.584,13.368 20.775,22.177 m -45.275,-32.264 c -2.928,7.382 -5.742,14.817 -7.976,22.312 -0.621,2.082 -1.353,4.502 -1.863,6.462 -0.007,-0.011 -0.018,-0.024 -0.025,-0.035 -6.711,-9.525 -13.912,-18.694 -22.945,-26.157 10.907,-3.194 21.501,-4.693 32.809,-2.582 m -58.087,18.723 c 4.553,8.296 9.348,16.513 14.595,24.259 1.393,2.055 2.96,4.419 4.277,6.239 -0.016,-0.001 -0.031,-0.001 -0.046,-0.001 -12.334,-0.913 -25.167,-0.405 -37.205,2.598 3.079,-12.414 9.392,-23.972 18.379,-33.095 m -19.065,66.171 c 9.676,1.184 19.4,2.264 29.031,2.591 2.488,0.085 5.311,0.21 7.538,0.215 -0.009,0.011 -0.018,0.026 -0.028,0.037 -7.823,9.308 -14.898,19.795 -19.447,31.119 -8.629,-9.536 -14.522,-21.372 -17.094,-33.962 M -24.952,9.17 c -5.179,-9.019 -8.206,-19.391 -10.099,-29.563 -0.003,-0.014 -0.007,-0.028 -0.01,-0.042 -1.3,1.69 -3.025,3.726 -4.517,5.581 -5.657,7.043 -11.906,13.634 -18.232,20.103 10.382,4.167 21.785,5.534 32.858,3.921"
             style="fill:#7f7f7f;fill-opacity:1;fill-rule:nonzero;stroke:none"
             id="path26" />
        </g>
        <g
           id="g28"
           transform="translate(639.0883,134.5962)" />
      </g>
    </g>
  </g>
</svg>
