<?xml version="1.0" encoding="UTF-8" standalone="no"?>
<!-- Created with Inkscape (http://www.inkscape.org/) -->

<svg
   version="1.1"
   id="svg2"
   width="2500"
   height="2500"
   viewBox="0 0 2500 2500"
   sodipodi:docname="uniprime.svg"
   inkscape:version="1.2.2 (732a01da63, 2022-12-09)"
   xmlns:inkscape="http://www.inkscape.org/namespaces/inkscape"
   xmlns:sodipodi="http://sodipodi.sourceforge.net/DTD/sodipodi-0.dtd"
   xmlns="http://www.w3.org/2000/svg"
   xmlns:svg="http://www.w3.org/2000/svg">
  <defs
     id="defs6" />
  <sodipodi:namedview
     id="namedview4"
     pagecolor="#505050"
     bordercolor="#eeeeee"
     borderopacity="1"
     inkscape:showpageshadow="0"
     inkscape:pageopacity="0"
     inkscape:pagecheckerboard="0"
     inkscape:deskcolor="#505050"
     showgrid="false"
     inkscape:zoom="0.125"
     inkscape:cx="-344"
     inkscape:cy="1344"
     inkscape:window-width="1920"
     inkscape:window-height="1009"
     inkscape:window-x="-8"
     inkscape:window-y="-8"
     inkscape:window-maximized="1"
     inkscape:current-layer="g8" />
  <g
     inkscape:groupmode="layer"
     inkscape:label="Image"
     id="g8">
    <g
       id="g1035"
       transform="matrix(21.990797,0,0,21.990797,-19.855322,393.66903)">
      <path
         style="fill:#d0d1d2;stroke-width:1.33333"
         d="m 12.697916,73.70029 c 0.916667,-0.369883 10.822917,-10.057383 11.739584,-9.6875 0.916666,0.369884 5.604166,7.047515 3.770833,7.047515 -1.833333,0 -16.427083,3.009869 -15.510417,2.639985 z M 29.660705,47.411358 c -0.387753,-0.627399 9.683087,1.767548 11.494227,2.113769 1.811141,0.346222 -10.519516,5.250173 -10.519516,5.531349 0,1.031667 -0.291938,-6.540367 -0.974711,-7.645118 z M 52.666666,48.305913 37.21952,49.152681 58.53075,43.30104 c 21.074428,-5.78662 37.469249,-12.51923 37.469249,-16.456614 0,-3.129309 -10.801921,-4.772292 -20.468555,-13.827992 L 65.062888,7.2691922 75.531444,6.3762965 c 5.219516,-0.4451887 8.015792,0.1798537 14.468555,3.3504791 9.79695,4.8138224 20.221361,12.2831334 22.136211,15.8610634 2.00309,3.742816 2.73151,8.983167 -1.17835,11.075658 -1.82809,0.978366 0.80074,-1.2873 1.08854,-0.821633 0.2878,0.465668 -6.58147,3.658938 -7.81096,3.747222 -1.22949,0.08828 -7.635441,2.296949 -14.235441,4.908147 -8.813196,3.486818 -12.842369,5.791421 -17.738589,5.62254 -3.666666,-0.126467 -12.994744,-1.550377 -19.594744,-1.81386 z m 25.81951,-23.899664 c -1.658495,-2.114741 -0.08008,-0.849401 2.034656,0.809094 1.283334,1.006458 6.708334,5.681458 6.708334,5.958333 0,1.097379 -7.001165,-4.546429 -8.74299,-6.767427 z M 40.190545,4.054525 c 2.396466,-0.2967486 21.215216,-1.4781256 23.21875,-1.1738933 2.003533,0.3042321 -4.20721,1.2032764 -8.607212,1.1957928 -4.4,-0.00748 -17.008005,0.274849 -14.611538,-0.021899 z"
         id="path1053"
         sodipodi:nodetypes="ssssssssscssscsssssssssssssssss" />
      <path
         style="fill:#b0b4b5;stroke-width:1.33333"
         d="m 10.227469,71.645831 c 0.05636,-1.65 2.384034,-6.797006 3.291667,-9.609689 l 1.689197,-5.23469 5.107763,7.39094 6.951512,7.109689 -5.618179,0.873497 c -7.680314,1.194111 -11.530861,2.658556 -11.42196,-0.529747 z M 29.35375,55.85813 c 0.0112,-1.755305 0.48691,-3.925721 1.057067,-4.823146 1.511325,-2.378817 17.86955,-3.538371 33.059873,-2.343451 l 13.195976,1.03804 -11.131133,5.015917 c -7.594595,3.42228 -21.72187,4.617111 -26.67187,5.101954 -8.853665,0.867199 -9.529998,-0.849738 -9.509913,-3.989314 z m 63.186233,-33.524797 -2.539984,-3 3,2.539984 c 2.81926,2.386957 3.606988,3.460016 2.539984,3.460016 -0.25301,0 -1.60301,-1.35 -3,-3 z M 64.317448,7.2260388 C 61.977666,6.2713083 55.383075,4.5691522 51.208732,4.4805886 L 39.009812,4.2217742 55.333333,1.57738 c 6.685438,-1.08303426 13.343974,0.7820626 17.999999,2.283218 l 8.520834,2.7393502 -7.422534,0.1809822 c -3.441853,0.083922 -7.774401,1.399839 -10.114184,0.4451084 z"
         id="path1051"
         sodipodi:nodetypes="sscccssssscsssscssssscsscss" />
      <path
         style="fill:#d2aa4d;stroke-width:1.33333"
         d="M 19.205349,37.554266 C 17.722916,34.866086 15.083335,35.042713 14.14984,35.246015 11.622259,35.796488 20.903694,22.066041 29.817482,12.97886 l 7.817481,-7.9695485 4.793995,5.7163385 c 2.860269,3.410573 -0.954623,2.627562 -6.763593,10.203677 -3.262924,4.255536 -7.694809,10.836759 -9.848636,14.624939 l -3.916048,6.887601 z"
         id="path1049"
         sodipodi:nodetypes="ssscssscs" />
      <path
         style="fill:#5698b0;stroke-width:1.33333"
         d="M 20.706409,64.810404 15.086972,56.848072 12.508118,49.36621 c -3.8575061,-11.191532 10.45459,-9.983638 15.044331,-4.799438 2.675787,3.022351 3.674605,5.177645 2.9379,6.339527 -0.6139,0.968201 -1.125369,3.110366 -1.136599,4.760366 -0.01731,2.543572 0.689583,3 4.64625,3 2.566666,0 4.666666,0.456131 4.666666,1.013624 0,0.557493 1.456767,2.584683 3.23726,4.504864 l 3.23726,3.49124 -8.23726,1.62047 c -4.530493,0.891259 -8.939725,1.826999 -9.798294,2.079422 -0.85857,0.252422 -3.738219,-2.702224 -6.399223,-6.565881 z"
         id="path1047"
         sodipodi:nodetypes="scssssssscsss" />
      <path
         style="fill:#cc9a19;stroke-width:1.33333"
         d="M 6.3502764,71.246242 C 1.3666072,68.542127 0.3943911,63.576798 3.2453792,55.388823 6.5108784,46.01038 14.572861,31.784646 16.090678,32.722708 c 0.693891,0.428848 2.208379,2.610555 3.365531,4.848239 1.999093,3.86582 3.073776,4.600372 -0.343626,12.215357 -1.978122,4.407843 -5.415478,11.406381 -6.234175,15.714353 -0.818697,4.30797 -1.80126,7.808652 -2.183474,7.77929 C 10.31272,73.250587 8.3576243,72.335419 6.3502764,71.246242 Z M 42.49971,12.408462 c -2.181725,-3.4934991 -7.651096,-6.09014 -4.376097,-7.8428662 2.398588,-1.2836855 6.635552,-1.8213556 8.104166,0.1870945 2.523946,3.4517003 4.820467,6.7290667 1.240695,8.3876797 -2.584513,1.197481 -3.715505,1.274878 -4.968764,-0.731908 z"
         id="path1045"
         sodipodi:nodetypes="sssssssssssss" />
      <path
         style="fill:#906b0f;stroke-width:1.33333"
         d="m 85.311954,29.843749 -5.697372,-5.036458 4.378756,3.859375 c 2.533956,2.233394 5.772377,3.915625 6.081597,4.098958 0.309219,0.183333 -0.96303,0.239583 -1.681384,0.239583 -0.718356,0 -0.674793,-1.033851 -3.081597,-3.161458 z m -12.645288,-9.32732 c -4.82012,-3.733355 -17.862351,-9.849763 -21.002995,-9.849763 -2.196746,0 -3.261677,-0.7711905 -4.338869,-3.6249995 -1.436353,-3.8053328 -6.21628,-3.5624999 -2.921456,-3.5624999 6.188423,0 23.325584,3.3610031 24.039621,5.6633581 0.373695,1.2049443 9.760909,10.3658083 11.693811,13.4824753 3.885209,6.264623 -3.612756,0.879089 -7.47011,-2.108571 z"
         id="path1043"
         sodipodi:nodetypes="scssssssssssss" />
      <path
         style="fill:#0b6f8e;stroke-width:1.33333"
         d="m 43.937499,67.247804 c -1.283333,-1.798644 -6.895833,-7.853122 -6.895833,-8.183562 0,-0.330441 3.875,-0.508541 6.625,-1.006889 2.75,-0.498348 6.25414,-1.206108 7.786976,-1.5728 1.9706,-0.471415 3.447508,0.341385 5.041919,2.774764 0.651067,2.01505 3.83461,2.797584 1.938454,3.110508 -3.715689,0.641939 -12.559394,7.592932 -14.496516,4.877979 z m -18.409136,-21.571337 -4.394845,-4.489045 6.439977,-8.694645 4.738502,-7.015266 3.007535,4.305438 2.897047,4.21705 -3.386046,7 c -1.862327,3.85 -3.779471,9.84375 -4.222129,9.84375 -0.442657,0 -3.122343,-3.167623 -5.080041,-5.167282 z"
         id="path1041"
         sodipodi:nodetypes="ssssccsscccccsss" />
      <path
         style="fill:#7a5800;stroke-width:1.33333"
         d="M 81.128371,26.282105 C 75.253368,20.965277 67.167028,9.7218593 68.360082,8.5288064 69.480763,7.4081241 85.086639,16.385881 90.784488,21.429131 l 5.882177,5.206403 -1.522712,2.869733 c -1.066107,2.009206 -5.018741,3.534179 -5.854166,3.506004 -0.835426,-0.02817 -4.748688,-3.640676 -8.161416,-6.729166 z"
         id="path1039"
         sodipodi:nodetypes="ssscsss" />
      <path
         style="fill:#014f6f;stroke-width:1.33333"
         d="m 56.745903,59.708508 c -0.6461,-1.823467 -5.056292,-3.112934 -4.82678,-3.342448 0.229513,-0.229513 9.891888,-2.131541 17.52884,-4.280747 7.636953,-2.149205 18.971329,-7.284855 24.32326,-9.468011 5.351932,-2.183157 13.734067,-4.916225 12.901367,-3.91288 -1.7243,2.07765 -30.51356,17.176336 -40.957355,21.204128 l -7.923704,2.750998 z M 35.487638,30.482351 c -1.184868,-1.691636 -3.214965,-3.774 -3.214965,-4.627474 0,-2.927807 13.637138,-16.063211 16.670273,-16.063211 1.612629,0 3.057053,1.244311 3.057053,1.695689 0,0.795145 -11.541001,20.481825 -13.483605,22.726106 -0.529561,0.611797 -1.843887,-2.039473 -3.028756,-3.73111 z"
         id="path1037"
         sodipodi:nodetypes="sssssscsssssss" />
    </g>
    <g
       id="g831"
       transform="translate(-594.40891,-328.90212)">
      <path
         style="fill:#fefefe;stroke-width:1.33333"
         d="m 29.333333,12.666666 c -3.282944,95.490304 -1.641472,47.745151 0,0 z"
         id="path935"
         sodipodi:nodetypes="cc" />
      <path
         style="fill:#e2e2e3;stroke-width:1.33333"
         d="m 90.000515,32.81878 c 7.102984,-3.095625 7.914006,-5.256809 3.80517,-10.139883 l -3.606545,-4.286136 7.442869,0.470286 C 102.33974,19.159878 104.81096,18.841567 104.3422,18 c -0.40847,-0.733334 1.44743,0.734366 4.12423,3.261555 5.24557,4.952391 6.59657,11.122739 2.75785,12.595792 -1.15998,0.445125 -7.30998,0.785833 -13.666664,0.757129 -10.690735,-0.04828 -11.257557,-0.182961 -7.557101,-1.795696 z"
         id="path931" />
      <path
         style="fill:#d9dee1;stroke-width:1.33333"
         d="m 102.34888,35.056984 c 1.65855,-0.318924 4.05855,-0.306816 5.33333,0.02691 1.27478,0.333724 -0.0822,0.594663 -3.01554,0.579864 -2.93334,-0.0148 -3.97634,-0.287847 -2.31779,-0.606771 z M 90.333332,17.783625 c 0.916667,-0.369883 2.416667,-0.369883 3.333333,0 0.916667,0.369884 0.166667,0.672515 -1.666666,0.672515 -1.833334,0 -2.583334,-0.302631 -1.666667,-0.672515 z"
         id="path929" />
      <path
         style="fill:#dadbdc;stroke-width:1.33333"
         d="m 87.999999,38.759788 c -9.844055,-0.747941 -9.929321,-0.78578 -5.467703,-2.426456 4.776715,-1.756546 14.089369,-1.959626 20.801034,-0.453608 3.92179,0.880004 3.94306,0.929062 1.08766,2.508915 -1.60179,0.886248 -3.70179,1.503265 -4.66667,1.371149 -0.964876,-0.132116 -6.254321,-0.582116 -11.754321,-1 z M 85.108477,15.811676 c -2.853078,-2.133831 -2.752302,-2.200235 4.047,-2.666666 5.69619,-0.390759 7.63255,0.0675 10.575396,2.502748 l 3.602457,2.981092 -7.649455,-0.314425 C 91.105829,18.126248 86.859592,17.121344 85.108477,15.811676 Z"
         id="path927" />
      <path
         style="fill:#d2d3d4;stroke-width:1.33333"
         d="m 72.220619,41.497899 c -2.720637,-1.724588 2.817495,-2.795181 14.446046,-2.792611 10.640351,0.0024 16.028165,1.596883 10.446047,3.091522 -4.587799,1.228405 -22.828204,1.009369 -24.892093,-0.298911 z m 7.112713,-29.417882 c -1.952304,-0.780352 -0.738002,-1.202008 4.532907,-1.574012 4.368684,-0.308327 8.038572,0.130958 9.333333,1.117198 1.765128,1.344528 0.982015,1.616457 -4.532907,1.574012 -3.666666,-0.02822 -7.866666,-0.530959 -9.333333,-1.117198 z"
         id="path925" />
      <path
         style="fill:#cdced0;stroke-width:1.33333"
         d="m 71.999999,44.084928 c -7.346083,-0.487172 -10.04464,-1.038114 -7.67036,-1.565994 5.29516,-1.177286 30.318156,0.292814 27.003312,1.586443 -1.466458,0.572291 -3.866286,0.970916 -5.332952,0.885838 -1.466667,-0.08508 -7.766667,-0.49291 -14,-0.906287 z M 79.018332,9.7098915 c 2.02675,-0.3064726 5.02675,-0.2982826 6.666667,0.0182 1.639916,0.3164825 -0.01833,0.5672325 -3.685,0.5572225 -3.666667,-0.01001 -5.008417,-0.26895 -2.981667,-0.5754225 z"
         id="path923" />
      <path
         style="fill:#cacbcc;stroke-width:1.33333"
         d="m 70.674144,46.940811 c -16.049015,-0.556212 -17.127009,-2.965006 -1.274145,-2.847099 12.780588,0.09505 20.718222,1.496215 15.195264,2.682281 -1.427395,0.306536 -7.691899,0.380704 -13.921119,0.164818 z m 5.0164,-38.5737863 c 2.396467,-0.2967485 5.996467,-0.2906255 8,0.013607 2.003533,0.3042322 0.04279,0.5470265 -4.357212,0.5395428 -4.4,-0.00748 -6.039254,-0.256401 -3.642788,-0.5531498 z"
         id="path921" />
      <path
         style="fill:#c2c3c5;stroke-width:1.33333"
         d="m 60.443535,49.342688 c -7.456054,-0.371812 -13.926154,-1.046124 -14.378001,-1.498469 -1.526928,-1.528615 9.192967,-2.161222 22.601132,-1.333744 11.3475,0.700302 12.737582,1.022834 9.333333,2.165546 -2.234093,0.749923 -9.984861,1.044242 -17.556464,0.666667 z M 73.666666,7.0449939 c 2.016666,-0.3054995 5.316666,-0.3054995 7.333333,0 2.016667,0.3054995 0.366667,0.5554536 -3.666667,0.5554536 -4.033333,0 -5.683333,-0.2499541 -3.666666,-0.5554536 z m -7.25,-1.2891461 c 0.9625,-0.3851607 2.1125,-0.3377923 2.555556,0.1052627 0.443054,0.4430556 -0.344446,0.7581872 -1.75,0.7002924 -1.553258,-0.063978 -1.8692,-0.37992 -0.805556,-0.8055551 z"
         id="path919" />
      <path
         style="fill:#b9bec0;stroke-width:1.33333"
         d="m 54.66751,50.372528 c -20.038345,-1.486696 -19.664298,-2.278444 0.665823,-1.409353 9.533333,0.407538 17.50713,0.881342 17.71955,1.052897 1.362375,1.100281 -6.345543,1.249723 -18.385373,0.356456 z M 70.416666,5.7558478 c 0.9625,-0.3851607 2.1125,-0.3377923 2.555556,0.1052627 0.443054,0.4430556 -0.344446,0.7581872 -1.75,0.7002924 -1.553258,-0.063978 -1.8692,-0.37992 -0.805556,-0.8055551 z"
         id="path917" />
      <path
         style="fill:#babcbd;stroke-width:1.33333"
         d="m 40.666666,52.088825 c -6.47214,-0.458405 -9.986646,-1.194893 -8.937377,-1.872885 0.951109,-0.614567 9.651109,-0.677273 19.333333,-0.139348 10.842944,0.602412 16.57987,1.379636 14.937377,2.023679 -2.918892,1.144534 -9.051402,1.141764 -25.333333,-0.01147 z m 27.333333,-46.6620038 -6,-0.8393287 4.870167,-0.6775213 c 2.678592,-0.3726368 6.878592,0.049531 9.333333,0.9381497 3.827308,1.3854896 3.988273,1.6015923 1.129833,1.5168501 C 75.499999,6.310619 71.299999,5.888452 67.999999,5.4268212 Z"
         id="path915" />
      <path
         style="fill:#95c5d3;stroke-width:1.33333"
         d="m 10.543598,71.670153 c 0.442183,-1.65 3.417406,-10.408762 3.447146,-11.875429 0.0452,-2.228843 7.11023,5.094329 10.334702,8.983921 4.11055,4.958436 0.0682,4.849485 -5.857032,4.887822 -2.62501,0.01698 -8.5936227,0.499332 -7.924816,-1.996314 z"
         id="path913"
         sodipodi:nodetypes="sssss" />
      <path
         style="fill:#c5b898;stroke-width:1.33333"
         d="m 46.333333,1.7836257 c 0.916666,-0.3698831 2.416666,-0.3698831 3.333333,0 0.916667,0.369883 0.166667,0.6725146 -1.666667,0.6725146 -1.833333,0 -2.583333,-0.3026316 -1.666666,-0.6725146 z"
         id="path911" />
      <path
         style="fill:#b0b2b3;stroke-width:1.33333"
         d="m 29.333333,57.538324 c 0,-4.655723 1.698107,-5.537439 10.475985,-5.439495 4.871541,0.05436 11.557348,0.539359 14.857348,1.07778 l 6,0.978951 -6,1.079419 c -9.214237,1.657671 -9.494067,1.700321 -17.666667,2.692661 -4.798242,0.582617 -7.666666,0.436957 -7.666666,-0.389316 z m 26,-54.8716574 c -5.156382,-0.9232364 -5.090024,-0.9567872 2,-1.0112196 4.033333,-0.030965 8.833333,0.4240836 10.666666,1.0112196 2.823939,0.9043834 2.518303,1.0589162 -2,1.0112196 C 63.066666,3.646921 58.266666,3.1918722 55.333333,2.6666666 Z"
         id="path909" />
      <path
         style="fill:#dfc172;stroke-width:1.33333"
         d="m 30,12 c 1.327314,-1.466667 2.7133,-2.6666669 3.079966,-2.6666669 0.366667,0 -0.419318,1.1999999 -1.746633,2.6666669 -1.327315,1.466666 -2.7133,2.666666 -3.079967,2.666666 -0.366666,0 0.419319,-1.2 1.746634,-2.666666 z"
         id="path907" />
      <path
         style="fill:#87b9ca;stroke-width:1.33333"
         d="m 17.470727,67.396646 c -1.931131,-2.531842 -3.868431,-6.159661 -3.62462,-7.381326 0.315703,-1.581896 2.734459,0.07473 5.820559,4.378086 2.383334,3.323392 6.43597,7.043114 6.43597,7.473232 0,2.13045 -5.492516,-0.354035 -8.631909,-4.469992 z"
         id="path905"
         sodipodi:nodetypes="sssss" />
      <path
         style="fill:#7bb2c5;stroke-width:1.33333"
         d="m 21.020833,66.976648 c -2.383333,-3.51565 -7.478663,-6.300179 -7.42712,-7.71562 0.07395,-2.03052 2.284939,-5.457951 3,-3.857199 0.498457,1.115856 3.356287,5.448961 5.73962,8.865233 2.383333,3.416272 5.458333,6.053299 5.458333,6.471169 0,2.216452 -2.915641,1.92321 -6.770833,-3.763583 z"
         id="path903"
         sodipodi:nodetypes="ssssss" />
      <path
         style="fill:#72acc1;stroke-width:1.33333"
         d="m 22.17488,64.579748 c -2.676815,-3.725931 -5.73029,-8.434355 -5.48689,-9.164554 0.2434,-0.730199 3.464738,1.90313 6.012694,5.393508 6.271569,8.591259 6.977093,9.857963 5.490642,9.857963 -0.700981,0 -3.339633,-2.360988 -6.016446,-6.086917 z"
         id="path901"
         sodipodi:nodetypes="sssss" />
      <path
         style="fill:#d9b055;stroke-width:1.33333"
         d="m 26.325126,27.298795 c -1.656452,-2.804149 -1.550762,-8.694882 -0.617938,-9.627706 0.932824,-0.932824 4.105721,-1.944599 5.626145,0.995577 2.937269,5.680053 -1.80815,14.049395 -5.008207,8.632129 z"
         id="path899"
         sodipodi:nodetypes="ssss" />
      <path
         style="fill:#d6ad52;stroke-width:1.33333"
         d="m 25.368268,27.944188 c -2.862068,-4.845096 -0.554326,-12.997917 2.281946,-9.317962 3.403253,4.415592 2.120431,9.873508 0.966606,10.586612 -0.600763,0.371291 -2.013997,0.821284 -3.248552,-1.26865 z m 5.949098,-1.28992 c -1.272285,-2.451483 -3.420299,-9.669956 -3.098895,-9.99136 0.982653,-0.982653 7.713103,2.729578 7.141129,4.422149 -0.29466,0.871949 -2.769949,8.020692 -4.042234,5.569211 z"
         id="path897"
         sodipodi:nodetypes="ssssssss" />
      <path
         style="fill:#69a5ba;stroke-width:1.33333"
         d="m 23.59049,62.144844 c -3.441436,-4.687002 -8.132157,-6.512001 -8.132157,-6.958333 0,-2.68957 5.175311,-2.021174 11.116208,6.146821 3.767841,5.180312 3.63138,9.020833 2.655801,9.020833 -0.966732,0 -2.198414,-3.52232 -5.639852,-8.209321 z"
         id="path895"
         sodipodi:nodetypes="sssss" />
      <path
         style="fill:#d5aa48;stroke-width:1.33333"
         d="m 23.823223,35.477589 c 0,-0.595055 -3.591996,-1.883261 -4.957369,-3.348817 -2.42563,-2.603608 0.236456,-6.366814 3.107228,-9.704285 l 2.938076,-3.415717 2.33927,4.34376 c 1.854677,3.443929 2.02679,4.927631 0.830842,7.162281 -1.479081,2.763687 -4.258047,7.097108 -4.258047,4.962778 z M 31.85388,18.171852 c -1.216243,-1.85622 -6.058591,-0.588362 -5.737374,-0.909581 0.321219,-0.321218 7.028105,-2.558998 8.314349,-0.38156 2.847257,4.820023 0.510314,6.00294 -2.576975,1.291141 z"
         id="path893"
         sodipodi:nodetypes="ssscsssssss" />
      <path
         style="fill:#cba247;stroke-width:1.33333"
         d="m 26.307534,17.32408 c -0.980579,-1.832229 5.651107,-5.727166 6.148678,-6.224737 1.060258,-1.060258 3.579655,6.12258 3.641474,8.552307 0.07053,2.772211 -7.895846,1.211973 -9.790152,-2.32757 z"
         id="path891"
         sodipodi:nodetypes="ssss" />
      <path
         style="fill:#d2a437;stroke-width:1.33333"
         d="m 18.750857,36.509928 c -0.551568,-4.045494 -3.607347,-3.121289 -2.762443,-4.460741 2.071848,-3.284561 4.652099,-5.582053 7.107899,-1.424716 2.062808,3.492056 2.126176,4.416295 0.513781,7.493659 l -3.739587,6.603905 z"
         id="path889"
         sodipodi:nodetypes="sssscs" />
      <path
         style="fill:#599ab3;stroke-width:1.33333"
         d="m 25.464034,59.926273 c -3.774989,-5.173881 -9.857508,-5.461206 -9.391706,-6.214889 0.467,-0.75562 5.756734,-3.775697 7.643386,-1.124081 2.54498,3.576867 3.734996,4.373757 4.645324,3.110722 0.850578,-1.180133 0.9796,-0.946448 0.423027,0.766189 -0.521633,1.605123 0.635671,4.277935 3.319596,7.666667 2.828957,3.571851 -0.615209,6.01495 -1.952796,6.01495 -1.071517,0 -0.91184,-5.045675 -4.686831,-10.219558 z"
         id="path887"
         sodipodi:nodetypes="ssssssss" />
      <path
         style="fill:#c59c41;stroke-width:1.33333"
         d="m 34.478164,15.946656 c -1.812507,-3.068327 -4.180533,-3.321225 -2.824538,-4.4466 1.275638,-1.058686 5.539177,-3.6802371 6.88144,-0.647855 2.431428,5.492975 -1.094619,10.109202 -4.056902,5.094455 z"
         id="path885"
         sodipodi:nodetypes="ssss" />
      <path
         style="fill:#d0a02c;stroke-width:1.33333"
         d="m 13.432949,40.783841 c -2.439657,-4.530169 1.482123,-9.964641 4.113912,-8.338106 2.279163,1.4086 3.138645,9.811428 2.374241,11.803435 -1.14968,2.996016 -3.833144,1.464725 -6.488153,-3.465329 z"
         id="path883"
         sodipodi:nodetypes="ssss" />
      <path
         style="fill:#5395ac;stroke-width:1.33333"
         d="m 27.702776,61.301849 c -8.044496,-10.951138 -5.308657,-10.09164 -4.325642,-10.09164 0.38108,0 1.869367,-1.506045 5.787364,3.810623 8.227413,11.164478 4.163849,14.312499 3.152889,14.312499 -0.404702,0 -0.70909,-2.714815 -4.614611,-8.031482 z"
         id="path881"
         sodipodi:nodetypes="sssss" />
      <path
         style="fill:#cc9c29;stroke-width:1.33333"
         d="m 13.93962,46.55978 c -1.393442,-2.587464 -3.009334,-4.634885 -3.633404,-4.634885 -0.6240689,0 -0.258524,-1.771616 0.642199,-3.213903 1.563324,-2.50328 1.758253,-2.427609 4.293367,1.666667 1.46063,2.358953 3.128714,4.624389 3.706855,5.034301 0.578141,0.409913 -2.001281,7.212812 -2.923262,8.473699 -1.514598,2.071335 0.203338,-3.075289 -2.085755,-7.325879 z"
         id="path879"
         sodipodi:nodetypes="sssssss" />
      <path
         style="fill:#4b91ab;stroke-width:1.33333"
         d="m 34.25641,64.410254 c -1.930792,-2.713652 -3.228354,-5.21609 -2.88347,-5.560973 0.344882,-0.344883 0.779088,-0.37706 0.964898,-0.07151 0.185812,0.305556 1.738647,2.552723 3.450743,4.993703 1.712096,2.440981 2.85763,4.693418 2.54563,5.005418 -0.311998,0.311999 -2.147009,-1.652989 -4.077801,-4.366641 z M 24.121212,50.545453 c -1.662483,-2.248628 -2.339742,-5.333869 -2.039742,-5.633869 0.3,-0.3 1.468168,2.294332 3.130651,4.54296 1.662483,2.248628 2.777241,4.333869 2.477241,4.633869 -0.3,0.3 -1.905668,-1.294332 -3.56815,-3.54296 z"
         id="path877"
         sodipodi:nodetypes="ssssssssssss" />
      <path
         style="fill:#bc9338;stroke-width:1.33333"
         d="m 38.691983,11.380638 c -1.427788,-2.6678446 -1.439704,-3.6764061 -0.06304,-5.3351864 2.333788,-2.8120432 3.368221,-2.5753985 5.070128,1.1598805 1.188377,2.6082034 1.022016,3.6021079 -0.893015,5.3351859 -2.177905,1.970978 -2.484796,1.884456 -4.114075,-1.15988 z"
         id="path875" />
      <path
         style="fill:#cc9a18;stroke-width:1.33333"
         d="M 10.473018,54.833075 C 8.5595484,52.075881 7.3228822,49.333332 6.5926136,49.333332 c -0.7302683,0 -0.3969446,-1.8 0.7407196,-4 1.1376643,-2.2 2.5425877,-4 3.1220518,-4 0.579465,0 2.290758,2.25 3.802875,5 2.332685,4.24232 2.521426,5.650235 1.245521,9.290956 L 14,59.915244 Z"
         id="path873"
         sodipodi:nodetypes="sssssscs" />
      <path
         style="fill:#448da8;stroke-width:1.33333"
         d="m 36.096773,64.486853 c -2.522603,-3.206969 -3.535091,-5.820188 -2.255025,-5.820188 0.279628,0 2.110162,2.1 4.067854,4.666667 1.957692,2.566666 2.972455,4.666666 2.255025,4.666666 -0.717428,0 -2.547962,-1.580914 -4.067854,-3.513145 z M 24.913528,49.246721 c -2.064227,-2.885697 -3.155084,-5.246722 -2.424127,-5.246722 1.719209,0 7.188195,7.660577 6.615231,9.266158 -0.240882,0.675007 -2.126878,-1.133738 -4.191104,-4.019436 z"
         id="path871" />
      <path
         style="fill:#3686a3;stroke-width:1.33333"
         d="m 38.129901,63.666665 c -1.86819,-2.383333 -2.773651,-4.546008 -2.012137,-4.805944 1.357889,-0.463504 3.923651,2.174992 6.618329,6.805944 2.363428,4.061681 -0.999164,2.601649 -4.606192,-2 z M 25.466669,46.561852 c -1.669151,-2.257648 -2.628204,-4.507648 -2.131229,-5 0.900265,-0.891893 7.312006,6.20282 7.324604,8.104813 0.01445,2.182802 -2.312668,0.79155 -5.193375,-3.104813 z"
         id="path869" />
      <path
         style="fill:#c89402;stroke-width:1.33333"
         d="M 9.1938148,71.104187 C 7.5761257,69.382235 1.3333333,64.923682 1.3333333,63.818249 c 0,-3.246152 3.7681999,-15.180873 4.9671476,-15.180873 0.6045883,0 4.8591101,5.867018 6.4604651,8.458064 2.487608,4.025035 1.12071,2.622436 0.141593,7.981732 -1.335327,7.309053 0.60776,10.621703 -3.7087242,6.027015 z"
         id="path867"
         sodipodi:nodetypes="ssssss" />
      <path
         style="fill:#aa8327;stroke-width:1.33333"
         d="m 44.046911,8.0876551 c -1.99912,-3.7353898 -1.702101,-5.4221513 0.953088,-5.4125584 1.283334,0.00464 3.355427,1.8046366 4.604654,3.9999999 2.25277,3.9589744 2.244988,3.9915694 -0.95309,3.9915694 -1.823269,0 -3.82418,-1.1206863 -4.604652,-2.5790109 z"
         id="path865" />
      <path
         style="fill:#2b809e;stroke-width:1.33333"
         d="m 40.999999,63.373954 c -1.283333,-1.764901 -2.333333,-3.619513 -2.333333,-4.12136 0,-1.40551 3.984225,2.226572 5.45304,4.971079 1.894311,3.539551 -0.378153,2.920597 -3.119707,-0.849719 z M 26.91741,44.053989 c -3.09569,-4.187146 -3.741432,-6.053975 -1.646158,-4.759025 2.120746,1.310694 6.993901,8.705035 5.736952,8.705035 -0.64536,0 -2.486216,-1.775704 -4.090794,-3.94601 z"
         id="path863" />
      <path
         style="fill:#a37d22;stroke-width:1.33333"
         d="M 49.925925,7.4074073 C 48.667994,5.4875611 47.938777,3.6167778 48.305443,3.2501111 48.67211,2.8834445 50.001327,4.1542278 51.259258,6.074074 52.51719,7.9939201 53.246407,9.8647033 52.879741,10.23137 52.513074,10.598037 51.183857,9.3272533 49.925925,7.4074073 Z"
         id="path861" />
      <path
         style="fill:#a17a1e;stroke-width:1.33333"
         d="M 54.086506,9.8960309 C 52.929323,8.738848 51.328203,6.569427 50.528461,5.0750952 c -2.475415,-4.62535615 1.762237,-2.1295826 4.582053,2.6986087 2.686396,4.5997471 2.285109,5.4314431 -1.024008,2.122327 z"
         id="path859" />
      <path
         style="fill:#267a96;stroke-width:1.33333"
         d="m 42.877494,62.666665 c -1.626531,-2.2 -2.4522,-4 -1.834823,-4 0.617379,0 2.453303,1.8 4.079834,4 1.62653,2.2 2.4522,4 1.834822,4 -0.617378,0 -2.453302,-1.8 -4.079833,-4 z M 28.238621,42.704258 c -1.597909,-2.161287 -2.905288,-4.693188 -2.905288,-5.626448 0,-0.93326 1.553339,0.589106 3.451863,3.383036 4.097817,6.030479 3.640646,7.906931 -0.546575,2.243412 z"
         id="path857" />
      <path
         style="fill:#937428;stroke-width:1.33333"
         d="m 83.829926,29.666666 c -1.658495,-2.114741 -1.611335,-2.161901 0.503406,-0.503407 2.220997,1.741825 2.927305,2.83674 1.829927,2.83674 -0.276875,0 -1.326875,-1.05 -2.333333,-2.333333 z"
         id="path855" />
      <path
         style="fill:#9a7417;stroke-width:1.33333"
         d="M 62.22718,14.05252 C 59.418798,12.386324 55.971001,9.1320035 54.565411,6.8206962 l -2.555617,-4.2023768 3.661769,0.8971184 c 2.013974,0.4934152 3.848803,1.3653931 4.077399,1.9377289 0.228596,0.5723357 2.18236,3.4795104 4.341697,6.4603883 2.159336,2.980878 3.772303,5.363221 3.584369,5.294094 -0.187932,-0.06912 -2.639464,-1.488933 -5.447848,-3.155129 z"
         id="path853" />
      <path
         style="fill:#177896;stroke-width:1.33333"
         d="m 44.797874,62.449374 c -1.111,-1.586176 -1.639448,-3.499705 -1.174327,-4.252286 0.465122,-0.752583 1.473499,0.0952 2.240838,1.883956 0.767338,1.788758 2.011764,3.6931 2.765388,4.23187 0.889746,0.636086 0.812309,0.986743 -0.220835,1 -0.875084,0.0112 -2.500063,-1.277362 -3.611064,-2.86354 z M 29.319493,41.313896 c -1.574151,-2.21069 -2.562375,-4.76069 -2.196056,-5.666666 0.411239,-1.017071 0.706305,-0.809168 0.7713,0.54345 0.05789,1.204875 0.922004,2.504095 1.920245,2.887156 1.551391,0.595324 4.100891,6.255496 2.817651,6.255496 -0.248077,0 -1.738989,-1.808747 -3.31314,-4.019436 z"
         id="path851" />
      <path
         style="fill:#057392;stroke-width:1.33333"
         d="m 48.513041,64.312914 c -1.998127,-1.316332 -3.693611,-6.979582 -2.089572,-6.979582 1.192089,0 5.57653,5.728812 5.57653,7.286422 0,1.003722 -1.728472,0.851622 -3.486958,-0.30684 z M 32,42.036842 c 0,-1.166295 -0.9,-2.465898 -2,-2.888008 -1.1,-0.42211 -1.99702,-2.353279 -1.993378,-4.291487 l 0.0067,-3.524015 3.27876,4 c 3.538825,4.317274 4.146539,6.698908 2.041328,8 -0.733333,0.453225 -1.333333,-0.1302 -1.333333,-1.29649 z"
         id="path849" />
      <path
         style="fill:#896406;stroke-width:1.33333"
         d="m 69.303791,17.480718 c -5.63956,-4.685457 -10.3547,-12.1473848 -7.675848,-12.1473848 0.978288,0 3.033393,0.8788169 4.566899,1.9529263 1.533506,1.0741096 3.16701,1.6741096 3.630009,1.3333333 0.462997,-0.3407761 0.542817,-0.2205961 0.177377,0.267067 -0.365441,0.4876629 0.859851,3.4876632 2.722872,6.6666662 3.954826,6.7484 3.017184,7.27662 -3.421309,1.927392 z"
         id="path847" />
      <path
         style="fill:#006787;stroke-width:1.33333"
         d="m 50.048863,60.999998 c -1.962356,-2.800236 -1.918737,-3.082057 0.655052,-4.232305 2.129807,-0.951831 3.425643,-0.562501 5.693408,1.71056 2.516898,2.522776 2.650512,3.124019 0.93601,4.211889 -3.133128,1.988004 -5.01246,1.551962 -7.28447,-1.690144 z M 32.209634,36.630332 c -3.378256,-4.294754 -3.43343,-4.692068 -1.09558,-7.889269 1.679292,-2.296569 1.93801,-2.214392 4.542106,1.442723 2.363479,3.319202 2.521347,4.326514 1.095578,6.990588 l -1.665804,3.112582 z"
         id="path845" />
      <path
         style="fill:#815d00;stroke-width:1.33333"
         d="M 81.203414,26.28327 C 78.565291,23.927471 74.5468,18.892195 72.273435,15.093769 L 68.140042,8.1875376 72.07002,9.5575355 c 2.161488,0.7534985 3.929979,1.9401245 3.929979,2.6369465 0,0.696822 1.984119,4.388127 4.409152,8.2029 7.820749,12.302668 7.798925,12.140936 0.794263,5.885888 z"
         id="path843" />
      <path
         style="fill:#7a5800;stroke-width:1.33333"
         d="m 81.595364,22.475973 c -3.155882,-5.194465 -5.503142,-9.679307 -5.216134,-9.966316 0.765532,-0.765532 15.954166,9.291142 18.244191,12.079816 1.755412,2.137649 1.637316,2.641501 -1.147712,4.896681 -1.707457,1.382614 -3.787997,2.495948 -4.623422,2.474073 -0.835426,-0.02188 -4.10104,-4.289789 -7.256923,-9.484254 z"
         id="path841" />
      <path
         style="fill:#005778;stroke-width:1.33333"
         d="m 56.920958,59.153626 c -1.308332,-1.734496 -2.196813,-3.153628 -1.974403,-3.153628 0.222411,0 2.28212,-0.538527 4.577135,-1.196729 3.662829,-1.050485 4.344954,-0.818784 5.581912,1.896043 1.244448,2.731264 0.987486,3.239769 -2.198348,4.350357 -3.050852,1.063533 -3.974569,0.770963 -5.986296,-1.896043 z M 35.567681,30.170534 C 32.776192,25.910182 32.799958,25.424351 36,21.333333 c 1.946575,-2.488555 2.614885,-2.783364 2.637018,-1.16326 0.01631,1.193541 0.929648,2.917008 2.029648,3.829926 2.520591,2.091906 2.482132,2.629443 -0.461967,6.456958 l -2.40267,3.123623 z"
         id="path839" />
      <path
         style="fill:#004767;stroke-width:1.33333"
         d="m 64.777932,56.475828 c -1.048321,-2.731884 -0.83978,-2.930127 4.127408,-3.923564 5.4538,-1.09076 7.370551,2.901911 2.315726,4.823752 -4.625467,1.758598 -5.468034,1.640881 -6.443134,-0.900188 z M 40.266666,23.733333 c -2.219785,-2.219786 -1.998396,-5.083136 0.616419,-7.972473 2.060549,-2.276882 2.386592,-2.29511 4.636241,-0.259206 2.290536,2.072907 2.299232,2.394056 0.162772,6.010795 -2.522837,4.270822 -3.120421,4.515894 -5.415432,2.220884 z"
         id="path837" />
      <path
         style="fill:#04415d;stroke-width:1.33333"
         d="m 74.077246,54.966133 c -0.409152,-0.409152 -0.743914,-1.473933 -0.743914,-2.366181 0,-2.355821 5.390975,-3.399455 7.364706,-1.425725 1.354417,1.354418 0.94549,1.960662 -2.0972,3.10915 -2.078824,0.784668 -4.11444,1.091908 -4.523592,0.682756 z M 45.248995,15.231713 c -1.445505,-1.741727 -1.41638,-2.309051 0.170074,-3.312917 4.230326,-2.676839 7.214472,-0.897073 4.848394,2.891618 -1.917188,3.069907 -2.761494,3.140786 -5.018468,0.421299 z"
         id="path835" />
      <path
         style="fill:#00354f;stroke-width:1.33333"
         d="m 80.2409,50.610629 c 0.254718,-0.764153 5.554717,-3.430888 11.777777,-5.926074 11.952933,-4.792629 11.138463,-3.100085 -1.647322,3.423277 -8.029681,4.096777 -10.897993,4.805413 -10.130455,2.502797 z"
         id="path833" />
    </g>
  </g>
</svg>
