<?xml version="1.0" encoding="UTF-8" standalone="no"?>
<!-- Created with Inkscape (http://www.inkscape.org/) -->

<svg
   version="1.1"
   id="svg483"
   width="2500"
   height="2500"
   viewBox="0 0 2500 2500"
   sodipodi:docname="BIB-logo-fundo.svg"
   inkscape:version="1.2.2 (732a01da63, 2022-12-09)"
   xmlns:inkscape="http://www.inkscape.org/namespaces/inkscape"
   xmlns:sodipodi="http://sodipodi.sourceforge.net/DTD/sodipodi-0.dtd"
   xmlns="http://www.w3.org/2000/svg"
   xmlns:svg="http://www.w3.org/2000/svg">
  <defs
     id="defs487" />
  <sodipodi:namedview
     id="namedview485"
     pagecolor="#505050"
     bordercolor="#eeeeee"
     borderopacity="1"
     inkscape:showpageshadow="0"
     inkscape:pageopacity="0"
     inkscape:pagecheckerboard="0"
     inkscape:deskcolor="#505050"
     showgrid="false"
     inkscape:zoom="0.18713471"
     inkscape:cx="2185.5914"
     inkscape:cy="1218.3737"
     inkscape:window-width="1920"
     inkscape:window-height="1009"
     inkscape:window-x="-8"
     inkscape:window-y="-8"
     inkscape:window-maximized="1"
     inkscape:current-layer="g489" />
  <g
     inkscape:groupmode="layer"
     inkscape:label="Image"
     id="g489">
    <g
       id="g1241"
       transform="matrix(4.8825711,0,0,4.8825711,0.02701573,0.02289188)">
      <path
         style="fill:#fafbfb"
         d="m 53.193498,340.22123 c -1.268576,-0.20633 -2.809232,-1.47851 -3.423679,-2.82708 -1.796453,-3.94278 1.599653,-7.65805 8.068383,-8.82664 C 60.677191,328.05464 63,327.25302 63,326.78613 c 0,-1.55711 -3.261516,-2.12589 -6.083127,-1.06085 -2.284971,0.86248 -2.899876,0.7614 -3.406962,-0.56005 C 52.607683,322.81406 55.704175,321 60.619701,321 c 7.030291,0 8.330177,2.79074 6.731756,14.45249 l -0.648543,4.73164 -3.601457,-0.44479 C 61.120656,339.49471 58.6,339.58747 57.5,339.94546 c -1.1,0.358 -3.037926,0.4821 -4.306502,0.27577 z m 8.629826,-6.58409 C 62.035904,332.56075 61.464509,332 60.155112,332 57.158481,332 55,333.05667 55,334.52366 c 0,2.95983 6.223384,2.15126 6.823324,-0.88652 z m 55.471486,6.18175 c -5.7802,-1.53802 -7.80791,-6.9922 -4.77788,-12.85162 3.12836,-6.04959 12.54844,-7.99281 17.02852,-3.51272 7.01197,7.01196 -2.02609,19.08495 -12.25064,16.36434 z m 7.655,-6.25842 c 2.01123,-2.42338 0.90513,-7.0102 -1.78228,-7.39083 -4.07168,-0.57669 -8.16559,5.49897 -5.50086,8.16369 1.20921,1.20921 6.06589,0.69384 7.28314,-0.77286 z m 81.95158,6.08383 c -2.74899,-1.36348 -3.48421,-6.03534 -2.14722,-13.6443 0.69458,-3.95294 1.13053,-4.53926 3.58601,-4.82296 l 2.7953,-0.32296 -0.69695,7.07296 L 209.74158,335 h 2.59067 c 2.15313,0 2.75582,-0.63333 3.56861,-3.75 0.53787,-2.0625 1.11771,-5.1 1.28854,-6.75 0.25215,-2.43542 0.82813,-3.05955 3.0606,-3.31642 3.23814,-0.37259 3.29809,0.0496 1.61452,11.36916 l -1.13548,7.63444 -3.61452,-0.44631 c -1.98799,-0.24547 -4.55889,-0.0996 -5.71313,0.3241 -1.21541,0.44618 -3.10923,0.26915 -4.5,-0.42067 z m 20.34861,0.15314 c -3.68006,-0.96771 -3.88597,-1.43722 -1.69307,-3.86035 1.29278,-1.4285 2.05389,-1.5328 4.48603,-0.61477 2.19034,0.82676 3.22702,0.8077 4.11029,-0.0756 0.90825,-0.90825 0.73817,-1.31697 -0.73603,-1.76882 -7.59397,-2.32759 -9.59705,-6.61811 -4.83759,-10.36191 2.81999,-2.2182 8.7529,-2.82385 11.38061,-1.16176 1.24989,0.79059 1.19201,1.22002 -0.4018,2.98116 -1.41288,1.56122 -2.18416,1.79017 -3.1975,0.94917 -1.45041,-1.2037 -4.36094,-0.53325 -4.36094,1.0046 0,0.52356 1.30334,1.23819 2.89631,1.58807 4.31229,0.94713 6.38437,3.65434 5.19379,6.78578 -0.5317,1.39849 -1.49757,2.87078 -2.14636,3.27176 -2.40342,1.48539 -7.54022,2.09192 -10.69374,1.26267 z m 22.25,0.41189 c -4.0382,-0.8572 -4.69295,-2.23886 -3.97841,-8.39535 C 246.09512,326.87243 245.95655,326 244.59819,326 243.56012,326 243,325.12382 243,323.5 c 0,-1.78557 0.54056,-2.5 1.89159,-2.5 1.18371,0 2.12641,-0.93557 2.51905,-2.5 0.48518,-1.93311 1.27197,-2.5 3.46974,-2.5 2.49254,0 2.78347,0.30762 2.36437,2.5 -0.41128,2.15147 -0.11312,2.5 2.13867,2.5 1.43912,0 2.61658,0.4132 2.61658,0.91821 0,2.41023 -1.42478,4.08179 -3.47918,4.08179 -1.88461,0 -2.37716,0.70015 -2.93156,4.16716 -0.69184,4.32655 0.51866,6.32327 3.22964,5.32728 0.88299,-0.3244 1.2135,0.22149 1,1.65166 -0.35001,2.34459 -3.1987,3.72556 -6.3189,3.06323 z m 37.6935,0.0119 c -1.26858,-0.20633 -2.80923,-1.47851 -3.42368,-2.82708 -1.79645,-3.94278 1.59965,-7.65805 8.06838,-8.82664 2.83899,-0.51287 5.1618,-1.31449 5.1618,-1.78138 0,-1.55711 -3.26152,-2.12589 -6.08313,-1.06085 -2.28497,0.86248 -2.89987,0.7614 -3.40696,-0.56005 C 286.60768,322.81406 289.70418,321 294.6197,321 c 7.03029,0 8.33018,2.79074 6.73176,14.45249 l -0.64855,4.73164 -3.60145,-0.44479 c -1.9808,-0.24463 -4.50146,-0.15187 -5.60146,0.20612 -1.1,0.358 -3.03793,0.4821 -4.3065,0.27577 z m 8.62982,-6.58409 C 296.0359,332.56075 295.46451,332 294.15511,332 291.15848,332 289,333.05667 289,334.52366 c 0,2.95983 6.22338,2.15126 6.82332,-0.88652 z m 32.43548,6.57619 c -4.89772,-0.76514 -7.01002,-9.22746 -3.55469,-14.24082 2.9403,-4.26611 4.5381,-5.0538 9.45016,-4.65878 l 4.65426,0.37429 0.66769,-5.34401 C 340.11217,311.25409 340.28313,311 343.07196,311 c 1.61042,0 2.9177,0.3375 2.90506,0.75 -0.0126,0.4125 -0.9023,6.6 -1.97702,13.75 -1.07472,7.15 -1.96438,13.3375 -1.97702,13.75 -0.0375,1.22249 -5.02298,0.85282 -5.02298,-0.37244 0,-0.7529 -0.41154,-0.80045 -1.25,-0.14444 -1.66444,1.30228 -4.74008,1.91 -7.4912,1.48021 z m 8.95854,-7.79099 c 1.4299,-3.13829 0.11476,-5.76862 -3.12451,-6.2491 -3.00098,-0.44515 -5.09283,1.51925 -5.09283,4.78254 0,3.42253 0.6438,4.04422 4.18811,4.04422 2.0976,0 3.16627,-0.68367 4.02923,-2.57766 z m 80.61708,7.18916 c -1.57104,-0.77872 -2.43539,-2.1923 -2.64319,-4.32274 -0.37347,-3.82907 2.57811,-6.17988 8.80843,-7.01554 2.35471,-0.31583 3.92126,-1.01679 3.70977,-1.65995 -0.50914,-1.54829 -4.5453,-1.99437 -6.13179,-0.6777 -0.97065,0.80556 -1.64819,0.68435 -2.60258,-0.46562 -1.89028,-2.27765 0.01,-3.67043 5.71608,-4.19043 6.82442,-0.62187 8.86344,1.12133 8.62614,7.37466 C 432.97567,337.65655 432.17786,340 429.45469,340 428.10461,340 427,339.4949 427,338.87756 c 0,-0.7529 -0.41154,-0.80045 -1.25,-0.14444 -2.17962,1.70536 -5.50313,2.07416 -7.91558,0.87838 z M 426.75,334.72232 C 428.82937,333.11337 428.16374,332 425.12244,332 c -3.42698,0 -5.639,2.08344 -3.97679,3.74565 1.12025,1.12025 3.36336,0.71067 5.60435,-1.02333 z m 11.5,5.07512 c -3.74028,-0.98355 -4.00379,-1.80529 -1.34928,-4.2076 1.24423,-1.126 2.1281,-1.35223 2.55902,-0.65498 0.91372,1.47844 5.80908,1.37159 5.31322,-0.11597 -0.21653,-0.6496 -1.94153,-1.69939 -3.83333,-2.33285 -2.80931,-0.94068 -3.49625,-1.72132 -3.74859,-4.25993 -0.44853,-4.51225 2.62603,-7.22611 8.18652,-7.22611 5.23256,0 7.92954,2.2301 4.75295,3.93015 -1.09925,0.5883 -2.9912,0.95719 -4.20434,0.81974 -3.27219,-0.37072 -3.46083,1.8991 -0.22532,2.71116 3.78582,0.95019 5.29915,2.36959 5.29915,4.97027 0,5.02361 -6.15962,8.09913 -12.75,6.36612 z M 26.359616,334.3588 c 0.363304,-3.22234 1.157783,-9.3463 1.765509,-13.6088 L 29.230082,313 h 7.303172 c 8.272969,0 10.121418,0.48623 11.476903,3.01898 1.20474,2.25108 -0.526157,7.58131 -2.737445,8.42987 -1.367545,0.52477 -1.288575,0.88771 0.569876,2.61913 2.827107,2.63385 2.733586,6.15065 -0.255989,9.62624 -2.243921,2.60871 -3.026959,2.83094 -11.150468,3.16456 l -8.737067,0.35881 z m 14.629815,-0.84607 C 43.129394,330.93424 41.432906,329 37.031385,329 34.217926,329 33,329.42846 33,330.41821 c 0,0.78002 -0.273145,2.13002 -0.606989,3 C 31.902103,334.6975 32.548026,335 35.770566,335 c 2.306703,0 4.504301,-0.62627 5.218865,-1.48727 z M 40.47135,322.64461 c 2.916488,-2.13259 1.266806,-4.84216 -2.714475,-4.45848 -2.715447,0.26169 -3.309478,0.77103 -3.573297,3.06387 -0.266598,2.31697 0.0576,2.75 2.05887,2.75 1.306411,0 3.209417,-0.60993 4.228902,-1.35539 z M 70.373202,338.25 c 0.279388,-0.9625 0.796573,-4.45 1.149302,-7.75 0.923949,-8.64414 1.288356,-9.5 4.044884,-9.5 C 76.905324,321 78,321.46583 78,322.03518 c 0,0.71358 0.600925,0.71358 1.934259,0 2.873819,-1.53802 6.702816,-1.25525 8.592631,0.63457 1.379473,1.37947 1.548652,2.80051 0.973173,8.17426 C 88.596752,339.279 88.266335,340 85.3041,340 c -2.430907,0 -2.474956,-0.13874 -2.143011,-6.75 0.319156,-6.35655 0.207856,-6.76861 -1.909477,-7.06934 -2.574473,-0.36565 -3.576322,1.57724 -4.676588,9.06934 -0.65477,4.45856 -0.882014,4.75 -3.703685,4.75 -2.389815,0 -2.901971,-0.35878 -2.498137,-1.75 z m 24.801112,-0.56445 C 91.717187,334.00561 92.217508,328.58249 96.4,324.4 c 2.836364,-2.83636 4.12941,-3.4 7.8,-3.4 5.42682,0 7.4635,1.60935 5.20082,4.1096 -1.11303,1.22988 -2.50917,1.5848 -4.78274,1.21585 -3.90616,-0.63388 -5.902396,1.33437 -5.440338,5.36408 0.275877,2.40597 0.778499,2.81927 3.492218,2.8716 1.74348,0.0336 3.88653,0.65583 4.76233,1.38268 2.58109,2.14211 0.0421,4.05619 -5.38042,4.05619 -3.623275,0 -5.202512,-0.53145 -6.877556,-2.31445 z M 146,339.53027 c 0,-1.02915 3.09053,-22.17614 3.54844,-24.28027 0.37531,-1.72452 1.1903,-2.25 3.48966,-2.25 2.59247,0 2.93214,0.30565 2.50043,2.25 -0.27477,1.2375 -0.97159,6.075 -1.54849,10.75 -1.71685,13.91263 -1.74849,14 -5.0695,14 C 147.31425,340 146,339.78862 146,339.53027 Z M 156.99872,338.75 c -7e-4,-0.6875 0.51749,-4.9625 1.15154,-9.5 1.13642,-8.13266 1.19334,-8.25 4.00128,-8.25 1.56665,0 2.84846,0.54 2.84846,1.2 0,0.93333 0.26667,0.93333 1.2,0 0.66,-0.66 2.595,-1.2 4.3,-1.2 5.42287,0 6.42633,2.96255 4.86408,14.36043 -0.58472,4.266 -0.86186,4.63957 -3.44182,4.63957 h -2.8059 l 0.58686,-7 c 0.54937,-6.55283 0.45765,-7 -1.43574,-7 -2.97702,0 -4.12823,1.96384 -4.87478,8.31586 -0.63851,5.43269 -0.79469,5.68414 -3.53038,5.68414 -1.62251,0 -2.86287,-0.54144 -2.8636,-1.25 z m 24.57421,-0.31993 c -3.75117,-3.75117 -3.1489,-10.00794 1.40136,-14.5582 3.05045,-3.05046 8.55817,-3.93941 10.76077,-1.73681 0.84675,0.84675 1.31137,-0.42327 1.82917,-5 0.67062,-5.92754 0.79121,-6.13506 3.56494,-6.13506 3.41116,0 3.38501,-0.41621 1.03668,16.5 -1.64889,11.87785 -1.69384,12.00322 -4.41585,12.31642 -1.71892,0.19779 -2.75,-0.1584 -2.75,-0.95 0,-0.98499 -0.26667,-0.99975 -1.2,-0.0664 -1.72157,1.72157 -8.37629,1.48086 -10.22707,-0.36993 z m 11.37688,-4.8696 c 2.01123,-2.42338 0.90513,-7.0102 -1.78228,-7.39083 -4.07168,-0.57669 -8.16559,5.49897 -5.50086,8.16369 1.20921,1.20921 6.06589,0.69384 7.28314,-0.77286 z m 65.43286,3.68953 c 0.29787,-1.5125 0.82145,-5 1.16351,-7.75 0.34207,-2.75 0.83944,-5.7875 1.10527,-6.75 0.55857,-2.02244 4.93959,-2.41081 5.64022,-0.5 0.36666,1 0.72333,1 1.78333,0 1.53221,-1.44548 5.925,-1.69146 5.925,-0.33179 0,2.44264 -1.43922,4.08179 -3.58394,4.08179 -3.01467,0 -5.0077,3.1412 -5.86894,9.25 -0.63013,4.46955 -0.84787,4.75 -3.68785,4.75 -2.75719,0 -2.97135,-0.2378 -2.4766,-2.75 z m 15.98177,-1.5 c 0.32533,-2.3375 0.8844,-6.6125 1.24237,-9.5 0.62253,-5.02159 0.78133,-5.25 3.64983,-5.25 2.90453,0 2.98025,0.1181 2.40434,3.75 -0.32706,2.0625 -0.89653,6.3375 -1.26549,9.5 -0.64887,5.56157 -0.76837,5.75 -3.64672,5.75 -2.92713,0 -2.96617,-0.0696 -2.38433,-4.25 z m 29.99543,2.5 c 0.27205,-0.9625 1.27125,-7.4875 2.22044,-14.5 l 1.7258,-12.75 h 2.84694 c 1.56582,0 2.84695,0.20953 2.84695,0.46562 0,1.10229 -3.10142,23.28596 -3.60482,25.78438 -0.45592,2.26279 -1.08345,2.75 -3.54202,2.75 -2.36742,0 -2.88521,-0.36343 -2.49329,-1.75 z m 43.81444,-0.56445 c -3.45712,-3.67994 -2.9568,-9.10306 1.22569,-13.28555 2.88116,-2.88116 4.10196,-3.4 8,-3.4 9.79878,0 12.84165,10.73175 4.82978,17.03389 -3.67314,2.8893 -11.18885,2.70303 -14.05547,-0.34834 z m 12.04303,-5.26321 c 1.4299,-3.13829 0.11476,-5.76862 -3.12451,-6.2491 -3.00098,-0.44515 -5.09283,1.51925 -5.09283,4.78254 0,3.42253 0.6438,4.04422 4.18811,4.04422 2.0976,0 3.16627,-0.68367 4.02923,-2.57766 z m 16.85719,5.82766 c 0.041,-0.9625 0.83398,-6.925 1.76219,-13.25 l 1.68766,-11.5 7.86015,-0.29427 c 6.28223,-0.23519 8.2371,0.0469 9.73782,1.40499 2.5489,2.30672 2.36188,5.99595 -0.4463,8.80414 -2.20693,2.20693 -2.2321,2.3813 -0.5,3.46301 2.00871,1.25446 2.45685,6.07103 0.84506,9.08269 C 396.60895,338.5992 391.69497,340 383.85078,340 c -5.88628,0 -6.84029,-0.24638 -6.77625,-1.75 z m 14.77386,-4.13514 c 0.74162,-0.46998 1.18774,-1.70059 0.99138,-2.73469 -0.27066,-1.42536 -1.383,-1.95455 -4.5984,-2.18767 -4.13074,-0.29947 -4.24137,-0.22774 -4.24137,2.75 0,2.78596 0.28863,3.05614 3.25,3.04219 1.7875,-0.008 3.85678,-0.39985 4.59839,-0.86983 z m 1.33564,-12.37992 c 1.34608,-2.12179 0.29175,-3.22381 -3.38466,-3.53775 -3.10558,-0.2652 -3.60608,0.0114 -4.02953,2.22649 -0.26593,1.39113 -0.21356,2.79927 0.11638,3.12921 0.93117,0.93117 6.42141,-0.4365 7.29781,-1.81795 z m 7.81469,17.01506 c -7e-4,-0.6875 0.51749,-4.9625 1.15154,-9.5 1.13642,-8.13266 1.19334,-8.25 4.00128,-8.25 1.56665,0 2.84846,0.46583 2.84846,1.03518 0,0.71358 0.60093,0.71358 1.93426,0 C 414.22776,320.27256 416,320.78502 416,323.5 c 0,2.10452 -0.46901,2.5 -2.96482,2.5 -3.57905,0 -4.90295,2.08787 -5.72498,9.02863 -0.55262,4.66607 -0.76446,4.97137 -3.44949,4.97137 -1.62122,0 -2.86126,-0.5416 -2.86199,-1.25 z m 52.38395,-1.5 c 0.29787,-1.5125 0.82145,-5 1.16351,-7.75 0.96384,-7.74868 1.33148,-8.5 4.1593,-8.5 2.56676,0 2.56968,0.01 1.90177,6.52921 C 459.40698,339.24452 459.11549,340 455.79554,340 c -2.68766,0 -2.90555,-0.24833 -2.41287,-2.75 z m 9.65969,1.06642 c 0.0233,-0.99903 0.82948,-7.44142 1.79151,-14.31642 1.72736,-12.34416 1.78293,-12.50394 4.45765,-12.81642 3.28835,-0.38417 3.31623,0.15237 0.87403,16.81642 -1.65808,11.31362 -1.7298,11.50513 -4.42547,11.81642 -2.10862,0.2435 -2.73032,-0.10217 -2.69772,-1.5 z M 278.25,318.33772 c -1.7131,-0.69125 -1.57356,-3.8243 0.23727,-5.32715 3.19244,-2.64949 6.28318,1.81898 3.31273,4.78943 -1.27897,1.27897 -1.59452,1.32677 -3.55,0.53772 z m 178.68043,-0.92154 c -1.77644,-2.14049 0.0104,-4.91618 3.16486,-4.91618 2.89813,0 3.64117,2.62069 1.38323,4.87862 -2.02829,2.02829 -2.89002,2.03541 -4.54809,0.0376 z M 276.28184,287.6089 c 32.16149,-20.1916 59.82068,-52.3047 80.56118,-93.53376 4.30933,-8.56633 8.33416,-17.03764 8.94405,-18.82514 l 1.10889,-3.25 h 60.05202 C 459.97659,172 487,172.18448 487,172.40995 487,173.54026 475.93991,284.16669 475.41867,288.25 L 474.81232,293 H 371.25357 267.69481 Z M 63.972457,279.34001 C 63.957309,278.878 68.567732,257.0125 74.217843,230.75 L 84.490772,183 h 27.044518 c 21.10615,0 28.3406,0.33759 32.94717,1.53745 11.58999,3.01881 16.50722,8.09655 16.5138,17.05283 0.007,9.92366 -8.80464,22.54123 -17.82054,25.51674 l -3.5333,1.1661 3.42879,1.76792 c 7.97503,4.11203 11.53238,12.13589 9.74362,21.97746 -2.23258,12.2834 -10.1749,20.70818 -23.7297,25.17118 -6.00246,1.97634 -9.17326,2.20456 -35.83513,2.57926 -16.0875,0.22609 -29.262394,0.0331 -29.277543,-0.42893 z m 53.391763,-18.71883 c 6.70734,-2.80251 10.43417,-11.22755 7.17012,-16.20912 -2.59294,-3.95732 -7.5353,-5.53702 -16.27829,-5.20294 L 100.64354,239.5 98.361847,250 c -1.254931,5.775 -2.299727,10.8375 -2.32177,11.25 -0.07214,1.3501 17.853023,0.82151 21.324143,-0.62882 z m 7.99448,-40.51907 c 6.7562,-4.45427 8.79333,-13.04099 4.18675,-17.64756 C 127.30794,200.21703 126.30573,200 118.21075,200 h -8.88015 l -2.17097,9.75 c -1.19403,5.3625 -2.16841,10.3125 -2.1653,11 0.004,0.90483 2.42183,1.24818 8.75567,1.24341 6.88593,-0.005 9.35901,-0.4081 11.6087,-1.8913 z M 153.0538,278.75 c 0.0296,-0.6875 4.66398,-22.4 10.29864,-48.25 l 10.24484,-47 13.72754,-0.27839 13.72753,-0.27839 -0.52772,2.27839 c -0.68544,2.95937 -19.11058,87.26865 -20.00281,91.52839 l -0.68073,3.25 h -13.42055 c -10.09846,0 -13.40722,-0.30942 -13.36674,-1.25 z M 190,279.58174 c 0,-0.78005 20.04525,-93.06958 20.60937,-94.88679 0.52681,-1.697 2.30601,-1.78337 29.72549,-1.44291 30.37289,0.37714 33.45843,0.76649 39.69082,5.00842 5.50975,3.75007 7.41857,7.14203 7.33344,13.03149 -0.14777,10.22297 -8.88068,22.7449 -17.94995,25.73803 l -3.42226,1.12944 4.2425,2.24349 c 3.12514,1.65262 4.97047,3.63698 7.00654,7.53448 3.26234,6.24483 3.42947,9.74642 0.85936,18.00422 -2.57863,8.28515 -7.64225,14.2196 -15.37146,18.01504 -10.45597,5.13442 -17.18249,6.00661 -46.47385,6.02599 -14.4375,0.01 -26.25,-0.17086 -26.25,-0.4009 z m 53.98007,-19.33329 c 7.48016,-3.75817 10.40168,-13.13662 5.50572,-17.67404 C 246.48439,239.79281 243.0401,239 233.95709,239 h -6.79291 l -2.15903,9.75 c -1.18747,5.3625 -2.37973,10.5375 -2.64948,11.5 -0.44185,1.57662 0.43267,1.74985 8.82694,1.74845 6.87453,-10e-4 10.2298,-0.45997 12.79746,-1.75 z m 6.99075,-39.73336 c 7.13727,-3.69082 9.66442,-14.29705 4.39432,-18.44251 C 253.16071,200.33858 251.31707,200 244.0794,200 h -8.65089 l -1.85787,9.1912 c -1.02184,5.05516 -2.07074,10.00516 -2.33089,11 -0.42947,1.64231 0.32468,1.8088 8.19328,1.8088 5.70837,0 9.64637,-0.50682 11.53779,-1.48491 z"
         id="path1245" />
      <path
         style="fill:#001d5d"
         d="M 0,256 V 0 H 256 512 V 256 512 H 256 0 Z m 63.101457,83.73934 3.601457,0.44479 0.648543,-4.73164 C 68.949878,323.79074 67.649992,321 60.619701,321 c -4.915526,0 -8.012018,1.81406 -7.10979,4.16523 0.507086,1.32145 1.121991,1.42253 3.406962,0.56005 C 59.738484,324.66024 63,325.22902 63,326.78613 c 0,0.46689 -2.322809,1.26851 -5.161798,1.78138 -6.46873,1.16859 -9.864836,4.88386 -8.068383,8.82664 1.177149,2.58356 4.381508,3.64115 7.730181,2.55131 1.1,-0.35799 3.620656,-0.45075 5.601457,-0.20612 z M 56.25,336.27074 c -1.764371,-0.6174 -1.554028,-2.9401 0.331787,-3.66375 3.053374,-1.17169 5.578379,-0.67543 5.241537,1.03015 -0.354335,1.79417 -3.595446,3.32571 -5.573324,2.6336 z m 73,-0.26767 C 134.80672,329.87124 131.40428,321 123.49579,321 c -12.33393,0 -17.54068,15.80157 -6.20098,18.81889 4.391,1.16838 8.67861,-0.20013 11.95519,-3.81582 z m -11.58333,-1.66974 c -2.66473,-2.66472 1.42918,-8.74038 5.50086,-8.16369 2.68741,0.38063 3.79351,4.96745 1.78228,7.39083 -1.21725,1.4667 -6.07393,1.98207 -7.28314,0.77286 z m 99.44785,5.40754 3.61452,0.44631 1.13548,-7.63444 c 1.68357,-11.31955 1.62362,-11.74175 -1.61452,-11.36916 -2.23247,0.25687 -2.80845,0.881 -3.0606,3.31642 -0.17083,1.65 -0.75067,4.6875 -1.28854,6.75 -0.81279,3.11667 -1.41548,3.75 -3.56861,3.75 h -2.59067 l 0.69695,-7.07296 0.69695,-7.07296 -2.7953,0.32296 c -2.45548,0.2837 -2.89143,0.87002 -3.58601,4.82296 -1.33699,7.60896 -0.60177,12.28082 2.14722,13.6443 1.39077,0.68982 3.28459,0.86685 4.5,0.42067 1.15424,-0.42373 3.72514,-0.56957 5.71313,-0.3241 z m 20.82922,-1.2061 c 0.64879,-0.40098 1.61466,-1.87327 2.14636,-3.27176 1.19058,-3.13144 -0.8815,-5.83865 -5.19379,-6.78578 C 233.30334,328.12735 232,327.41272 232,326.88916 c 0,-1.53785 2.91053,-2.2083 4.36094,-1.00457 1.01334,0.841 1.78462,0.61205 3.1975,-0.94917 1.59381,-1.76114 1.65169,-2.19057 0.4018,-2.98116 -2.62771,-1.66209 -8.56062,-1.05644 -11.38061,1.16176 -4.75946,3.7438 -2.75638,8.03432 4.83759,10.36191 1.4742,0.45185 1.64428,0.86057 0.73603,1.76882 -0.88327,0.88327 -1.91995,0.90233 -4.11029,0.0756 -2.43214,-0.91803 -3.19325,-0.81373 -4.48603,0.61477 -2.1929,2.42313 -1.98699,2.89264 1.69307,3.86035 3.15352,0.82925 8.29032,0.22272 10.69374,-1.26267 z m 17.87516,-1.38867 c 0.2135,-1.43017 -0.11701,-1.97606 -1,-1.65166 -2.71098,0.99599 -3.92148,-1.00073 -3.22964,-5.32728 C 252.14366,326.70015 252.63621,326 254.52082,326 256.57522,326 258,324.32844 258,321.91821 258,321.4132 256.82254,321 255.38342,321 c -2.25179,0 -2.54995,-0.34853 -2.13867,-2.5 0.4191,-2.19238 0.12817,-2.5 -2.36437,-2.5 -2.19777,0 -2.98456,0.56689 -3.46974,2.5 -0.39264,1.56443 -1.33534,2.5 -2.51905,2.5 -1.35103,0 -1.89159,0.71443 -1.89159,2.5 0,1.62382 0.56012,2.5 1.59819,2.5 1.35836,0 1.49693,0.87243 0.9234,5.81398 -0.71454,6.15649 -0.0598,7.53815 3.97841,8.39535 3.1202,0.66233 5.96889,-0.71864 6.3189,-3.06323 z m 41.28256,2.59324 3.60145,0.44479 0.64855,-4.73164 C 302.94988,323.79074 301.64999,321 294.6197,321 c -4.91552,0 -8.01202,1.81406 -7.10979,4.16523 0.50709,1.32145 1.12199,1.42253 3.40696,0.56005 2.82161,-1.06504 6.08313,-0.49626 6.08313,1.06085 0,0.46689 -2.32281,1.26851 -5.1618,1.78138 -6.46873,1.16859 -9.86483,4.88386 -8.06838,8.82664 1.17715,2.58356 4.38151,3.64115 7.73018,2.55131 1.1,-0.35799 3.62066,-0.45075 5.60146,-0.20612 z m -6.85146,-3.4686 c -1.76437,-0.6174 -1.55403,-2.9401 0.33179,-3.66375 3.05337,-1.17169 5.57838,-0.67543 5.24153,1.03015 -0.35433,1.79417 -3.59544,3.32571 -5.57332,2.6336 z m 45.5,2.46238 c 0.83846,-0.65601 1.25,-0.60846 1.25,0.14444 0,1.22526 4.98552,1.59493 5.02298,0.37244 0.0126,-0.4125 0.9023,-6.6 1.97702,-13.75 1.07472,-7.15 1.96438,-13.3375 1.97702,-13.75 0.0126,-0.4125 -1.29464,-0.75 -2.90506,-0.75 -2.78883,0 -2.95979,0.25409 -3.59574,5.34401 l -0.66769,5.34401 -4.65426,-0.37429 c -2.8329,-0.22782 -5.25923,0.12672 -6.20016,0.90599 -4.84863,4.01555 -6.4474,11.20329 -3.44531,15.48938 2.16054,3.0846 7.93522,3.61065 11.2412,1.02402 z m -6.08333,-4.39979 c -1.21126,-1.21125 -0.6927,-6.06684 0.77829,-7.28765 0.79472,-0.65956 2.43627,-1.05216 3.64787,-0.87244 5.49876,0.81564 4.67764,8.82676 -0.90472,8.82676 -1.57013,0 -3.15478,-0.3 -3.52144,-0.66667 z m 96.08333,4.39979 c 0.83846,-0.65601 1.25,-0.60846 1.25,0.14444 0,0.61734 1.10461,1.12244 2.45469,1.12244 2.72317,0 3.52098,-2.34345 3.86259,-11.34582 0.2373,-6.25333 -1.80172,-7.99653 -8.62614,-7.37466 -5.70649,0.52 -7.60636,1.91278 -5.71608,4.19043 0.95439,1.14997 1.63193,1.27118 2.60258,0.46562 1.58649,-1.31667 5.62265,-0.87059 6.13179,0.6777 0.21149,0.64316 -1.35506,1.34412 -3.70977,1.65995 -6.23032,0.83566 -9.1819,3.18647 -8.80843,7.01554 0.47597,4.87983 6.2971,6.77874 10.55877,3.44436 z m -4.60435,-2.98747 C 419.48344,334.08344 421.69546,332 425.12244,332 c 3.0413,0 3.70693,1.11337 1.62756,2.72232 -2.24099,1.734 -4.4841,2.14358 -5.60435,1.02333 z m 28.57757,1.61819 c 1.63024,-2.22948 1.64085,-5.8168 0.0212,-7.161 -0.69058,-0.57313 -2.51018,-1.35693 -4.04356,-1.74179 -3.23551,-0.81206 -3.04687,-3.08188 0.22532,-2.71116 1.21314,0.13745 3.10509,-0.23144 4.20434,-0.81974 C 453.3071,323.2301 450.61012,321 445.37756,321 c -5.56049,0 -8.63505,2.71386 -8.18652,7.22611 0.25234,2.53861 0.93928,3.31925 3.74859,4.25993 1.8918,0.63346 3.6168,1.68325 3.83333,2.33285 0.49586,1.48756 -4.3995,1.59441 -5.31322,0.11597 -0.43092,-0.69725 -1.31479,-0.47102 -2.55902,0.65498 -2.65451,2.40231 -2.391,3.22405 1.34928,4.2076 4.07798,1.07235 9.79656,-0.14063 11.47322,-2.4336 z M 45.586599,336.69422 c 2.989575,-3.47559 3.083096,-6.99239 0.255989,-9.62624 -1.858451,-1.73142 -1.937421,-2.09436 -0.569876,-2.61913 2.211288,-0.84856 3.942185,-6.17879 2.737445,-8.42987 C 46.654672,313.48623 44.806223,313 36.533254,313 h -7.303172 l -1.104957,7.75 c -0.607726,4.2625 -1.402205,10.38646 -1.765509,13.6088 l -0.660552,5.85879 8.737067,-0.35881 c 8.123509,-0.33362 8.906547,-0.55585 11.150468,-3.16456 z m -13.193588,-3.27601 c 0.333844,-0.86998 0.606989,-2.21998 0.606989,-3 0,-2.03654 7.858472,-1.9506 8.64326,0.0945 C 42.611317,333.03545 40.040217,335 35.770566,335 c -3.22254,0 -3.868463,-0.3025 -3.377555,-1.58179 z M 34.183578,321.25 c 0.263819,-2.29284 0.85785,-2.80218 3.573297,-3.06387 2.345471,-0.22604 3.44034,0.16423 3.91248,1.39461 C 42.471723,321.67167 39.612512,324 36.242448,324 c -2.00127,0 -2.325468,-0.43303 -2.05887,-2.75 z m 42.391446,14 c 1.100266,-7.4921 2.102115,-9.43499 4.676588,-9.06934 2.117333,0.30073 2.228633,0.71279 1.909477,7.06934 -0.331945,6.61126 -0.287896,6.75 2.143011,6.75 2.962235,0 3.292652,-0.721 4.195963,-9.15599 0.575479,-5.37375 0.4063,-6.79479 -0.973173,-8.17426 -1.889815,-1.88982 -5.718812,-2.17259 -8.592631,-0.63457 C 78.600925,322.74876 78,322.74876 78,322.03518 78,321.46583 76.905324,321 75.567388,321 c -2.756528,0 -3.120935,0.85586 -4.044884,9.5 -0.352729,3.3 -0.869914,6.7875 -1.149302,7.75 -0.403834,1.39122 0.108322,1.75 2.498137,1.75 2.821671,0 3.048915,-0.29144 3.703685,-4.75 z m 31.314866,3.38268 c 1.57717,-1.90038 -1.10463,-3.99219 -5.21993,-4.07155 -2.713719,-0.0523 -3.216341,-0.46563 -3.492218,-2.8716 -0.462058,-4.02971 1.534178,-5.99796 5.440338,-5.36408 2.27357,0.36895 3.66971,0.014 4.78274,-1.21585 C 111.6635,322.60935 109.62682,321 104.2,321 c -8.944863,0 -14.70211,10.64327 -9.025686,16.68555 1.675044,1.783 3.254281,2.31445 6.877556,2.31445 2.75787,0 5.17261,-0.56556 5.83802,-1.36732 z M 152.39111,337.25 c 0.3025,-1.5125 1.02202,-6.575 1.59893,-11.25 0.5769,-4.675 1.27372,-9.5125 1.54849,-10.75 0.43171,-1.94435 0.092,-2.25 -2.50043,-2.25 -2.29936,0 -3.11435,0.52548 -3.48966,2.25 C 149.09053,317.35413 146,338.50112 146,339.53027 c 0,0.25835 1.31425,0.46973 2.92054,0.46973 2.38605,0 3.02121,-0.50329 3.47057,-2.75 z m 11.00159,-2.93414 C 164.13925,327.96384 165.29046,326 168.26748,326 c 1.89339,0 1.98511,0.44717 1.43574,7 l -0.58686,7 h 2.8059 c 2.57996,0 2.8571,-0.37357 3.44182,-4.63957 C 176.92633,323.96255 175.92287,321 170.5,321 c -1.705,0 -3.64,0.54 -4.3,1.2 -0.93333,0.93333 -1.2,0.93333 -1.2,0 0,-0.66 -1.28181,-1.2 -2.84846,-1.2 -2.80794,0 -2.86486,0.11734 -4.00128,8.25 -1.53595,10.9919 -1.57448,10.75 1.71206,10.75 2.73569,0 2.89187,-0.25145 3.53038,-5.68414 z M 191.8,338.8 c 0.93333,-0.93333 1.2,-0.91857 1.2,0.0664 0,0.7916 1.03108,1.14779 2.75,0.95 2.72201,-0.3132 2.76696,-0.43857 4.41585,-12.31642 2.34833,-16.91621 2.37448,-16.5 -1.03668,-16.5 -2.77373,0 -2.89432,0.20752 -3.56494,6.13506 -0.5178,4.57673 -0.98242,5.84675 -1.82917,5 -2.2026,-2.2026 -7.71032,-1.31365 -10.76077,1.73681 -4.55026,4.55026 -5.15253,10.80703 -1.40136,14.5582 1.85078,1.85079 8.5055,2.0915 10.22707,0.36993 z m -6.13333,-4.46667 c -2.66473,-2.66472 1.42918,-8.74038 5.50086,-8.16369 2.68741,0.38063 3.79351,4.96745 1.78228,7.39083 -1.21725,1.4667 -6.07393,1.98207 -7.28314,0.77286 z m 78.88045,0.91667 c 0.86124,-6.1088 2.85427,-9.25 5.86894,-9.25 2.14472,0 3.58394,-1.63915 3.58394,-4.08179 0,-1.35967 -4.39279,-1.11369 -5.925,0.33179 -1.06,1 -1.41667,1 -1.78333,0 -0.70063,-1.91081 -5.08165,-1.52244 -5.64022,0.5 -0.26583,0.9625 -0.7632,4 -1.10527,6.75 -0.34206,2.75 -0.86564,6.2375 -1.16351,7.75 -0.49475,2.5122 -0.28059,2.75 2.4766,2.75 2.83998,0 3.05772,-0.28045 3.68785,-4.75 z m 15.84837,-1 c 0.36896,-3.1625 0.93843,-7.4375 1.26549,-9.5 0.57591,-3.6319 0.50019,-3.75 -2.40434,-3.75 -2.8685,0 -3.0273,0.22841 -3.64983,5.25 -0.35797,2.8875 -0.91704,7.1625 -1.24237,9.5 -0.58184,4.18041 -0.5428,4.25 2.38433,4.25 2.87835,0 2.99785,-0.18843 3.64672,-5.75 z m 29.99969,3 C 310.89858,334.75158 314,312.56791 314,311.46562 314,311.20953 312.71887,311 311.15305,311 h -2.84694 l -1.7258,12.75 c -0.94919,7.0125 -1.94839,13.5375 -2.22044,14.5 -0.39192,1.38657 0.12587,1.75 2.49329,1.75 2.45857,0 3.0861,-0.48721 3.54202,-2.75 z m 51.8346,0.78389 C 370.24165,331.73175 367.19878,321 357.4,321 c -3.89804,0 -5.11884,0.51884 -8,3.4 -4.18249,4.18249 -4.68281,9.60561 -1.22569,13.28555 2.86662,3.05137 10.38233,3.23764 14.05547,0.34834 z m -9.56311,-3.70056 c -1.21126,-1.21125 -0.6927,-6.06684 0.77829,-7.28765 0.79472,-0.65956 2.43627,-1.05216 3.64787,-0.87244 5.49876,0.81564 4.67764,8.82676 -0.90472,8.82676 -1.57013,0 -3.15478,-0.3 -3.52144,-0.66667 z m 41.20522,4.56149 c 1.74368,-0.60785 3.61083,-1.92827 4.14922,-2.93426 1.61179,-3.01166 1.16365,-7.82823 -0.84506,-9.08269 -1.7321,-1.08171 -1.70693,-1.25608 0.5,-3.46301 2.80818,-2.80819 2.9952,-6.49742 0.4463,-8.80414 -1.50072,-1.35813 -3.45559,-1.64018 -9.73782,-1.40499 L 380.52438,313.5 378.83672,325 c -2.42866,16.54938 -2.94657,15 5.01406,15 3.76792,0 8.27742,-0.49733 10.02111,-1.10518 z M 384,331.9425 c 0,-2.97774 0.11063,-3.04947 4.24137,-2.75 3.2154,0.23312 4.32774,0.76231 4.5984,2.18767 0.45049,2.37245 -1.42976,3.58492 -5.58977,3.60452 -2.96137,0.014 -3.25,-0.25623 -3.25,-3.04219 z m 1.88622,-8.38961 c -0.32994,-0.32994 -0.38231,-1.73808 -0.11638,-3.12921 0.42345,-2.21514 0.92395,-2.49169 4.02953,-2.22649 3.67641,0.31394 4.73074,1.41596 3.38466,3.53775 -0.8764,1.38145 -6.36664,2.74912 -7.29781,1.81795 z m 21.42398,11.47574 C 408.13223,328.08787 409.45613,326 413.03518,326 415.53099,326 416,325.60452 416,323.5 c 0,-2.71498 -1.77224,-3.22744 -5.06574,-1.46482 -1.33333,0.71358 -1.93426,0.71358 -1.93426,0 C 409,321.46583 407.71819,321 406.15154,321 c -2.80794,0 -2.86486,0.11734 -4.00128,8.25 -1.53587,10.99133 -1.57427,10.75 1.71045,10.75 2.68503,0 2.89687,-0.3053 3.44949,-4.97137 z m 52.03396,2.00058 c 0.32678,-1.63393 0.89518,-5.90893 1.26309,-9.5 0.66791,-6.51919 0.66499,-6.52921 -1.90177,-6.52921 -2.82782,0 -3.19546,0.75132 -4.1593,8.5 -0.34206,2.75 -0.86564,6.2375 -1.16351,7.75 -0.49268,2.50167 -0.27479,2.75 2.41287,2.75 2.47628,0 3.05063,-0.48083 3.54862,-2.97079 z M 470.16555,328 c 2.4422,-16.66405 2.41432,-17.20059 -0.87403,-16.81642 -2.67472,0.31248 -2.73029,0.47226 -4.45765,12.81642 -2.34714,16.77341 -2.38023,16.19594 0.90621,15.81642 2.69567,-0.31129 2.76739,-0.5028 4.42547,-11.81642 z M 281.8,317.8 c 2.97045,-2.97045 -0.12029,-7.43892 -3.31273,-4.78943 -1.81083,1.50285 -1.95037,4.6359 -0.23727,5.32715 1.95548,0.78905 2.27103,0.74125 3.55,-0.53772 z m 179.67852,-0.42138 c 2.25794,-2.25793 1.5149,-4.87862 -1.38323,-4.87862 -3.15441,0 -4.9413,2.77569 -3.16486,4.91618 1.65807,1.99785 2.5198,1.99073 4.54809,-0.0376 z M 475.41867,288.25 C 475.93991,284.16669 487,173.54026 487,172.40995 487,172.18448 459.97659,172 426.94798,172 h -60.05202 l -1.10889,3.25 c -0.60989,1.7875 -4.63472,10.25881 -8.94405,18.82514 -20.7405,41.22906 -48.39969,73.34216 -80.56118,93.53376 L 267.69481,293 H 371.25357 474.81232 Z M 129.08513,277.18968 c 13.5548,-4.463 21.49712,-12.88778 23.7297,-25.17118 1.78876,-9.84157 -1.76859,-17.86543 -9.74362,-21.97746 l -3.42879,-1.76792 3.5333,-1.1661 c 9.0159,-2.97551 17.82783,-15.59308 17.82054,-25.51674 -0.007,-8.95628 -4.92381,-14.03402 -16.5138,-17.05283 C 139.87589,183.33759 132.64144,183 111.53529,183 H 84.490772 l -10.272929,47.75 c -5.650111,26.2625 -10.260534,48.128 -10.245386,48.59001 0.01515,0.462 13.190043,0.65502 29.277543,0.42893 26.66187,-0.3747 29.83267,-0.60292 35.83513,-2.57926 z M 96.040077,261.25 c 0.02204,-0.4125 1.066839,-5.475 2.32177,-11.25 l 2.281693,-10.5 7.61251,-0.29088 c 8.74299,-0.33408 13.68535,1.24562 16.27829,5.20294 3.26405,4.98157 -0.46278,13.40661 -7.17012,16.20912 -3.47112,1.45033 -21.396287,1.97892 -21.324143,0.62882 z m 8.954253,-40.5 c -0.003,-0.6875 0.97127,-5.6375 2.1653,-11 L 109.3306,200 h 8.88015 c 8.09498,0 9.09719,0.21703 11.3347,2.45455 4.60658,4.60657 2.56945,13.19329 -4.18675,17.64756 -2.24969,1.4832 -4.72277,1.88612 -11.6087,1.8913 -6.33384,0.005 -8.75157,-0.33858 -8.75567,-1.24341 z m 75.52749,56 c 0.89223,-4.25974 19.31737,-88.56902 20.00281,-91.52839 l 0.52772,-2.27839 -13.72753,0.27839 -13.72754,0.27839 -10.24484,47 c -5.63466,25.85 -10.26905,47.5625 -10.29864,48.25 -0.0405,0.94058 3.26828,1.25 13.36674,1.25 h 13.42055 z M 249.5,278.48908 c 9.88923,-2.08549 18.69366,-6.66845 23.06915,-12.00817 C 276.38057,261.82958 280,252.10946 280,246.5251 c 0,-5.48354 -4.88008,-13.53602 -9.77059,-16.12219 l -4.2425,-2.24349 3.42226,-1.12944 c 9.06927,-2.99313 17.80218,-15.51506 17.94995,-25.73803 0.0851,-5.88946 -1.82369,-9.28142 -7.33344,-13.03149 -6.23239,-4.24193 -9.31793,-4.63128 -39.69082,-5.00842 -27.41948,-0.34046 -29.19868,-0.25409 -29.72549,1.44291 C 210.04525,186.51216 190,278.80169 190,279.58174 c 0,0.23004 11.8125,0.41045 26.25,0.4009 19.26003,-0.0127 28.11399,-0.41045 33.25,-1.49356 z M 222.35567,260.25 c 0.26975,-0.9625 1.46201,-6.1375 2.64948,-11.5 l 2.15903,-9.75 h 6.79291 c 9.08301,0 12.5273,0.79281 15.5287,3.57441 3.22103,2.98515 3.3174,7.92751 0.24428,12.52771 -3.56716,5.33971 -7.74879,6.89452 -18.54746,6.89633 -8.39427,0.001 -9.26879,-0.17183 -8.82694,-1.74845 z m 8.88408,-40.0588 c 0.26015,-0.99484 1.30905,-5.94484 2.33089,-11 L 235.42851,200 h 8.65089 c 7.23767,0 9.08131,0.33858 11.28574,2.07258 5.2701,4.14546 2.74295,14.75169 -4.39432,18.44251 C 249.0794,221.49318 245.1414,222 239.43303,222 c -7.8686,0 -8.62275,-0.16649 -8.19328,-1.8088 z"
         id="path1243" />
    </g>
  </g>
</svg>
