<?xml version="1.0" encoding="UTF-8"?>
<svg id="Camada_1" xmlns="http://www.w3.org/2000/svg" version="1.1" viewBox="0 0 2500 2500">
  <!-- Generator: Adobe Illustrator 29.6.0, SVG Export Plug-In . SVG Version: 2.1.1 Build 207)  -->
  <defs>
    <style>
      .st0 {
        fill-rule: evenodd;
      }
    </style>
  </defs>
  <path class="st0" d="M2040.71,1470.71c66.27-8.12,93.94-29.33,92.3-104.97-1.79-68.79-8.26-137.38-19.37-205.3-39.48-220.41-137.19-409-292.61-548.41-171.65-153.76-407.67-242.13-706.44-240.76-86.65.9-172.46-16.91-251.49-52.17-79.48-36.15-150.16-88.9-207.23-154.64l-93.55-105.96C529.66,23.64,484.63,2.75,436.73.25c-47.89-2.5-94.89,13.59-131.04,44.86-36.16,31.27-58.65,75.27-62.71,122.7-4.06,47.43,10.62,94.57,40.94,131.45l93.56,105.96c91.93,105.36,205.56,189.93,333.23,247.99,127.38,56.75,265.67,85.32,405.28,83.75,201.2-.87,353.22,52.67,457.21,146.02,100.6,90.11,161.71,222.78,182.09,383.16,21.25,167.12,128.63,223.03,285.44,204.06v.5ZM455.06,1024.89c156.93-18.97,264.07,37.45,285.57,204.06,20.37,160.38,81.48,293.05,182.08,383.16,104.12,93.36,256.27,146.9,457.08,146.02,139.66-1.59,277.99,26.98,405.41,83.75,127.67,58.05,241.3,142.62,333.23,247.99l93.55,105.96c32.27,36.62,48.55,84.45,45.29,132.98-3.27,48.53-25.82,93.79-62.71,125.82-36.88,32.02-85.08,48.2-133.97,44.95-48.9-3.24-94.5-25.63-126.77-62.24l-93.55-106.09c-57.09-65.71-127.77-118.45-207.23-154.64-79.04-35.27-164.84-53.06-251.49-52.17-298.77,1.37-534.93-87.36-706.44-240.87-155.67-139.29-252.87-327.87-292.86-548.41-11.11-67.96-17.58-136.6-19.36-205.43-1.64-75.76,26.03-96.98,92.17-104.97v.13ZM1148.55,1051.73h198.8c26,.07,50.92,10.34,69.32,28.58,18.41,18.24,28.79,42.96,28.88,68.77v197.45c-.09,25.81-10.48,50.53-28.88,68.77-18.4,18.24-43.32,28.52-69.32,28.58h-198.8c-26.01-.06-50.93-10.34-69.33-28.58-18.4-18.24-28.78-42.96-28.88-68.77v-197.45c.1-25.81,10.48-50.53,28.88-68.77,18.4-18.23,43.32-28.51,69.33-28.58Z"/>
</svg>