<?xml version="1.0" encoding="UTF-8"?>
<svg id="Camada_1" xmlns="http://www.w3.org/2000/svg" version="1.1" viewBox="0 0 2500 2500">
  <!-- Generator: Adobe Illustrator 29.6.0, SVG Export Plug-In . SVG Version: 2.1.1 Build 207)  -->
  <defs>
    <style>
      .st0 {
        fill-rule: evenodd;
      }
    </style>
  </defs>
  <path class="st0" d="M2216.86,1026.79h-36.56c-19.5.08-38.17,7.8-51.96,21.48-13.79,13.68-21.57,32.22-21.64,51.57v193.12c.81,51.23,21.89,100.09,58.68,136.04,36.79,35.94,86.35,56.09,137.97,56.09s101.18-20.15,137.97-56.09c36.79-35.94,57.87-84.8,58.69-136.04v-266.17h-36.85c-19.5.08-38.18,7.8-51.96,21.48-13.79,13.68-21.57,32.22-21.65,51.57v193.12c-.54,22.32-9.85,43.55-25.94,59.16-16.09,15.6-37.7,24.33-60.2,24.33s-44.1-8.73-60.2-24.33c-16.1-15.6-25.41-36.83-25.95-59.16v-266.17h-.39ZM1824.63,1119.86c63.35,0,88.33,47.83,88.33,108.08s-39.8,107.74-102.12,107.74c-58.59,0-88.58-41.55-88.58-106.57s45.49-109.25,102.37-109.25ZM1912.96,1418.96c0,100.48-80.43,109.73-138.68,105.5-44.28-2.29-87.41-14.74-126.02-36.38v36.58c0,68.67,76.6,97.41,161.4,97.41,125.97,0,213.8-75.69,213.8-204.13v-189.9c0-119.23-71.01-217.76-198.84-217.76s-212.87,98.58-212.87,218.93,72.77,216.3,199.08,216.3c48.38,0,80.08-15.59,102.12-37.21v10.77-.1ZM1262.66,1026.79h-36.85c-19.5.06-38.19,7.78-51.98,21.47-13.79,13.69-21.56,32.23-21.63,51.59v193.12c.81,51.23,21.89,100.09,58.68,136.04,36.79,35.94,86.35,56.09,137.97,56.09s101.18-20.15,137.97-56.09c36.79-35.94,57.87-84.8,58.68-136.04v-266.17h-36.85c-19.5.06-38.19,7.78-51.98,21.47s-21.56,32.23-21.63,51.59v193.12c0,22.69-9.08,44.45-25.24,60.49-16.16,16.05-38.09,25.06-60.95,25.06s-44.78-9.01-60.95-25.06c-16.16-16.04-25.24-37.8-25.24-60.49v-266.17ZM1069.27,1026.79h-36.85c-19.5.08-38.17,7.8-51.96,21.48-13.79,13.68-21.57,32.22-21.65,51.57v298.47c.08,19.35,7.86,37.89,21.65,51.58,13.79,13.69,32.46,21.41,51.96,21.48h36.85v-444.68.1ZM986.19,876.14h55.65c7.27.01,14.25,2.88,19.4,7.99,5.15,5.1,8.05,12.02,8.08,19.24v55.18c-.02,7.23-2.93,14.15-8.08,19.26-5.15,5.11-12.12,7.99-19.4,8.02h-55.5c-7.28-.03-14.26-2.91-19.4-8.02-5.15-5.11-8.05-12.03-8.08-19.26v-55.23c.04-7.21,2.95-14.12,8.1-19.21,5.15-5.09,12.12-7.96,19.38-7.97h-.15Z"/>
  <path class="st0" d="M701.81,1336.13c25.86-3.17,36.66-11.45,36.02-40.96-.7-26.84-3.22-53.61-7.56-80.12-15.41-86.01-53.54-159.61-114.19-214.01-66.98-60.01-159.09-94.49-275.68-93.95-33.81.35-67.3-6.6-98.14-20.36-31.02-14.11-58.6-34.69-80.87-60.35l-36.51-41.35c-12.74-13.6-30.32-21.76-49.01-22.73-18.69-.98-37.03,5.3-51.14,17.5-14.11,12.2-22.89,29.37-24.47,47.88-1.59,18.51,4.14,36.9,15.97,51.3l36.51,41.35c35.88,41.12,80.22,74.12,130.04,96.78,49.71,22.15,103.67,33.3,158.16,32.68,78.51-.34,137.84,20.56,178.42,56.98,39.26,35.16,63.11,86.94,71.06,149.53,8.29,65.22,50.2,87.04,111.39,79.63v.2ZM83.02,1162.15c61.24-7.4,103.05,14.61,111.44,79.63,7.95,62.59,31.8,114.36,71.06,149.53,40.63,36.43,100.01,57.33,178.37,56.98,54.5-.62,108.48,10.53,158.21,32.68,49.82,22.66,94.17,55.66,130.04,96.78l36.51,41.35c12.59,14.29,18.95,32.95,17.67,51.89-1.27,18.94-10.08,36.6-24.47,49.1-14.39,12.5-33.2,18.81-52.28,17.54-19.08-1.27-36.88-10-49.47-24.29l-36.51-41.4c-22.28-25.64-49.86-46.23-80.87-60.35-30.84-13.76-64.33-20.71-98.14-20.36-116.59.54-208.75-34.09-275.68-94-60.75-54.36-98.68-127.95-114.29-214.01-4.33-26.52-6.86-53.31-7.56-80.17-.64-29.56,10.16-37.84,35.97-40.96v.05ZM353.65,1172.63h77.58c10.15.03,19.87,4.04,27.05,11.15,7.18,7.12,11.23,16.77,11.27,26.84v77.05c-.04,10.07-4.09,19.72-11.27,26.84-7.18,7.12-16.91,11.13-27.05,11.15h-77.58c-10.15-.02-19.87-4.03-27.05-11.15-7.18-7.12-11.23-16.77-11.27-26.84v-77.05c.04-10.07,4.09-19.72,11.27-26.84,7.18-7.12,16.91-11.12,27.05-11.15Z"/>
</svg>