<?xml version="1.0" encoding="UTF-8"?>
<svg id="Camada_1" xmlns="http://www.w3.org/2000/svg" version="1.1" xmlns:xlink="http://www.w3.org/1999/xlink" viewBox="0 0 2500 2500">
  <!-- Generator: Adobe Illustrator 29.6.0, SVG Export Plug-In . SVG Version: 2.1.1 Build 207)  -->
  <defs>
    <style>
      .st0 {
        fill: #002fa7;
      }

      .st1 {
        fill: url(#Gradiente_sem_nome_4);
      }

      .st1, .st2 {
        isolation: isolate;
      }

      .st1, .st3 {
        opacity: .5;
      }

      .st4 {
        fill: url(#Gradiente_sem_nome);
      }

      .st4, .st5 {
        fill-rule: evenodd;
      }

      .st2 {
        fill: url(#Gradiente_sem_nome_3);
        opacity: .7;
      }

      .st5 {
        fill: url(#Gradiente_sem_nome_2);
      }
    </style>
    <linearGradient id="Gradiente_sem_nome" data-name="Gradiente sem nome" x1="658.62" y1="1575.17" x2="658.62" y2="718.67" gradientTransform="translate(0 2502) scale(1 -1)" gradientUnits="userSpaceOnUse">
      <stop offset="0" stop-color="#f47920"/>
      <stop offset=".51" stop-color="#f37720"/>
      <stop offset=".7" stop-color="#f17021"/>
      <stop offset=".84" stop-color="#ee6422"/>
      <stop offset=".95" stop-color="#e95324"/>
      <stop offset="1" stop-color="#e64925"/>
    </linearGradient>
    <linearGradient id="Gradiente_sem_nome_2" data-name="Gradiente sem nome 2" x1="1841.38" y1="1785.33" x2="1841.38" y2="928.84" gradientTransform="translate(0 2502) scale(1 -1)" gradientUnits="userSpaceOnUse">
      <stop offset="0" stop-color="#f47920"/>
      <stop offset=".51" stop-color="#f37720"/>
      <stop offset=".7" stop-color="#f17021"/>
      <stop offset=".84" stop-color="#ee6422"/>
      <stop offset=".95" stop-color="#e95324"/>
      <stop offset="1" stop-color="#e64925"/>
    </linearGradient>
    <linearGradient id="Gradiente_sem_nome_3" data-name="Gradiente sem nome 3" x1="1012.86" y1="1372.62" x2="1086.68" y2="1372.62" gradientTransform="translate(0 2502) scale(1 -1)" gradientUnits="userSpaceOnUse">
      <stop offset="0" stop-color="#000"/>
      <stop offset=".43" stop-color="#000" stop-opacity=".57"/>
      <stop offset=".82" stop-color="#000" stop-opacity=".18"/>
      <stop offset=".99" stop-color="#000" stop-opacity="0"/>
    </linearGradient>
    <linearGradient id="Gradiente_sem_nome_4" data-name="Gradiente sem nome 4" x1="1640.19" y1="1371.13" x2="1713.72" y2="1371.13" gradientTransform="translate(0 2502) scale(1 -1)" gradientUnits="userSpaceOnUse">
      <stop offset="0" stop-color="#000"/>
      <stop offset=".43" stop-color="#000" stop-opacity=".57"/>
      <stop offset=".82" stop-color="#000" stop-opacity=".18"/>
      <stop offset=".99" stop-color="#000" stop-opacity="0"/>
    </linearGradient>
  </defs>
  <path class="st4" d="M1203.59,1766.42c-566.42-50.89-1004.81-323.36-979.19-608.57,7.84-87.33,58.3-165.73,140.77-231.01C129.41,1039.69-12.48,1186.35-1.98,1337.34c20.26,290.53,597.22,486.96,1288.66,438.7,11.07-.79,22.11-1.6,33.08-2.48-38.19-1.25-76.98-3.64-116.18-7.15Z"/>
  <path class="st5" d="M2501.97,1162.65c-20.26-290.5-597.21-486.93-1288.66-438.7-11.07.78-22.11,1.6-33.08,2.48,38.26,1.25,77.01,3.64,116.21,7.15,566.42,50.89,1004.84,323.36,979.19,608.57-7.84,87.33-58.29,165.73-140.77,231.02,235.75-112.83,377.65-259.52,367.11-410.51Z"/>
  <path class="st0" d="M840.23,1274.26c0,32.64-5.02,61.71-14.99,87.24-10,25.53-24.08,46.97-42.24,64.35-18.16,17.37-39.89,30.54-65.13,39.48-25.27,8.94-53.43,13.42-84.48,13.42s-59.2-4.73-84.48-14.21c-25.27-9.47-46.97-23.02-65.13-40.67-18.16-17.62-32.24-39.07-42.24-64.35-10-25.27-14.99-53.68-14.99-85.26s4.98-59.21,14.99-84.48c10-25.27,24.08-46.69,42.24-64.35,18.16-17.62,39.89-31.2,65.13-40.67,25.27-9.47,53.4-14.21,84.48-14.21s59.21,4.86,84.48,14.61c25.27,9.75,46.97,23.42,65.13,41.05,18.16,17.66,32.24,39.07,42.24,64.35,9.97,25.24,14.99,53.15,14.99,83.7ZM563.87,1274.26c0,32.11,6.18,56.73,18.56,73.82,12.36,17.12,29.6,25.65,51.71,25.65s39.07-8.68,50.93-26.06c11.85-17.37,17.75-41.83,17.75-73.44s-6.05-55.91-18.16-73.03c-12.11-17.09-29.23-25.65-51.34-25.65s-39.23,8.56-51.33,25.65c-12.07,17.12-18.13,41.46-18.13,73.07Z"/>
  <path class="st0" d="M1062.61,1070.55c21.57,0,42.77,3.04,63.56,9.09,20.79,6.05,38.82,15.15,54.09,27.25,15.81-10.54,33.55-19.22,53.31-26.06,19.72-6.84,43.56-10.25,71.46-10.25,20.01,0,39.61,2.63,58.83,7.9,19.22,5.27,36.31,13.55,51.33,24.87,14.99,11.32,26.97,26.34,35.94,45,8.94,18.69,13.42,41.46,13.42,68.3v248.7c-5.27,1.57-13.55,3.17-24.87,4.74-11.32,1.57-23.05,2.38-35.12,2.38s-21.98-.78-31.2-2.38c-9.22-1.57-16.97-4.74-23.3-9.47-6.3-4.73-11.19-11.16-14.61-19.35-3.42-8.15-5.14-18.82-5.14-31.99v-188.71c0-15.8-4.48-27.25-13.42-34.34-8.97-7.12-21.07-10.66-36.31-10.66-7.37,0-15.27,1.72-23.68,5.14-8.44,3.42-14.74,6.99-18.94,10.66.53,2.1.79,4.08.79,5.93v268.08c-5.8,1.57-14.36,3.17-25.65,4.74-11.32,1.57-22.77,2.38-34.34,2.38s-21.98-.78-31.2-2.38c-9.22-1.57-16.96-4.74-23.3-9.47-6.3-4.73-11.2-11.16-14.61-19.35-3.42-8.15-5.14-18.82-5.14-31.99v-188.71c0-15.8-4.86-27.25-14.61-34.34-9.75-7.12-21.45-10.66-35.12-10.66-9.47,0-17.65,1.44-24.49,4.33-6.84,2.88-12.64,5.68-17.37,8.28v277.14c-5.27,1.57-13.55,3.17-24.87,4.74-11.32,1.57-23.02,2.38-35.12,2.38s-21.98-.78-31.2-2.38c-9.22-1.57-16.96-4.74-23.3-9.47-6.3-4.73-11.19-11.16-14.61-19.35-3.42-8.15-5.14-18.82-5.14-31.99v-238.45c0-14.21,3.01-25.53,9.09-33.96,6.05-8.4,14.33-16.31,24.87-23.68,17.87-12.64,40.14-22.89,66.73-30.79,26.53-7.9,54.31-11.85,83.26-11.85Z"/>
  <path class="st0" d="M1748.9,1222.95c0-16.31-4.61-28.28-13.83-35.93-9.22-7.62-21.7-11.45-37.51-11.45-10.54,0-20.91,1.32-31.2,3.95-10.26,2.64-19.1,6.59-26.44,11.85v273.98c-5.27,1.57-13.55,3.17-24.87,4.73-11.32,1.57-23.05,2.39-35.12,2.39s-21.98-.79-31.2-2.39c-9.22-1.57-16.96-4.73-23.3-9.47-6.3-4.73-11.19-11.16-14.61-19.35-3.42-8.15-5.14-18.82-5.14-31.99v-236.88c0-14.21,3.01-25.78,9.09-34.75,6.05-8.94,14.33-17.09,24.87-24.49,17.87-12.64,40.39-22.89,67.51-30.79,27.09-7.9,57.23-11.85,90.41-11.85,59.49,0,105.27,13.02,137.38,39.07,32.11,26.06,48.16,62.25,48.16,108.56v247.13c-5.27,1.57-13.55,3.17-24.87,4.73-11.32,1.57-23.02,2.39-35.12,2.39s-21.98-.79-31.2-2.39c-9.22-1.57-16.96-4.73-23.3-9.47-6.3-4.73-11.19-11.16-14.61-19.35-3.42-8.15-5.14-18.82-5.14-31.99v-186.27h.03Z"/>
  <path class="st0" d="M2059.79,1465.35c-5.8,1.03-14.36,2.48-25.65,4.33-11.32,1.85-22.77,2.76-34.34,2.76s-21.98-.78-31.2-2.38c-9.22-1.57-16.97-4.73-23.3-9.47-6.3-4.74-11.2-11.16-14.61-19.35-3.42-8.15-5.14-18.81-5.14-31.98v-321.33c5.8-1.04,14.33-2.48,25.65-4.33,11.32-1.85,22.76-2.76,34.34-2.76s21.98.78,31.2,2.38c9.22,1.57,16.96,4.74,23.3,9.47,6.3,4.74,11.16,11.19,14.61,19.35,3.42,8.15,5.14,18.81,5.14,31.98v321.33Z"/>
  <g class="st3">
    <path class="st2" d="M1062.59,1070.55c-17,0-33.55,1.53-49.74,4.26v113.39c4.74-2.63,10.54-5.39,17.37-8.28,6.83-2.89,14.99-4.33,24.49-4.33,12.26,0,22.86,3.01,31.95,8.72v-112.33c-8-.85-15.99-1.44-24.08-1.44Z"/>
  </g>
  <g class="st3">
    <path class="st1" d="M1697.58,1070.55c-20.32,0-39.32,1.66-57.39,4.61v116.03c7.31-5.17,16.02-9.06,26.19-11.66,10.25-2.64,20.66-3.95,31.2-3.95,5.89,0,11.16.72,16.15,1.79v-106.33c-5.33-.22-10.63-.47-16.15-.47Z"/>
  </g>
</svg>