<?xml version="1.0" encoding="UTF-8" standalone="no"?>
<svg
   width="2500"
   height="2500"
   viewBox="0 0 2500 2500"
   fill="none"
   version="1.1"
   id="svg31"
   sodipodi:docname="Logo Letsbank- nome .svg"
   inkscape:version="1.2.2 (732a01da63, 2022-12-09)"
   xmlns:inkscape="http://www.inkscape.org/namespaces/inkscape"
   xmlns:sodipodi="http://sodipodi.sourceforge.net/DTD/sodipodi-0.dtd"
   xmlns="http://www.w3.org/2000/svg"
   xmlns:svg="http://www.w3.org/2000/svg">
  <sodipodi:namedview
     id="namedview33"
     pagecolor="#505050"
     bordercolor="#eeeeee"
     borderopacity="1"
     inkscape:showpageshadow="0"
     inkscape:pageopacity="0"
     inkscape:pagecheckerboard="0"
     inkscape:deskcolor="#505050"
     showgrid="false"
     showguides="false"
     inkscape:zoom="0.26791958"
     inkscape:cx="1052.5546"
     inkscape:cy="1186.9233"
     inkscape:window-width="1920"
     inkscape:window-height="1009"
     inkscape:window-x="-8"
     inkscape:window-y="-8"
     inkscape:window-maximized="1"
     inkscape:current-layer="svg31">
    <sodipodi:guide
       position="32.659054,2605.4421"
       orientation="0,-1"
       id="guide1542"
       inkscape:locked="false" />
  </sodipodi:namedview>
  <g
     clip-path="url(#clip0_1321_16732)"
     id="g24"
     transform="matrix(17.469821,0,0,17.469821,0,1153.3312)">
    <path
       d="m 47.4526,16.2016 c -0.7411,2.0077 -2.9445,4.7983 -6.9707,4.7983 -4.4869,0 -7.7319,-3.2524 -7.7319,-8.0708 0,-4.79823 3.245,-8.0707 7.7319,-8.0707 4.1864,0 7.4314,3.25239 7.4314,7.5889 0,0.4618 -0.0601,0.8432 -0.1001,1.1243 l -0.0601,0.4417 H 35.8347 c 0.3406,2.63 2.1634,4.3365 4.6472,4.3365 1.8629,0 3.225,-1.0841 3.7057,-2.1683 h 3.265 z M 44.9688,11.7045 C 44.6283,9.21499 42.9657,7.50849 40.4819,7.50849 c -2.624,0 -4.1864,1.7065 -4.6472,4.19601 z"
       fill="#ffffff"
       id="path2"
       style="fill:#000000" />
    <path
       d="m 63.0574,16.0409 c 0,0.9235 1.0817,2.3289 3.5655,2.3289 2.3236,0 3.245,-1.0641 3.245,-2.0077 0,-1.0841 -0.5809,-1.7466 -2.3236,-2.0076 L 64.76,13.8927 c -2.9645,-0.5019 -4.4869,-1.8671 -4.4869,-4.49713 0,-2.48948 2.0031,-4.49713 6.1895,-4.49713 4.487,0 6.3498,3.09177 6.3498,4.79828 h -3.1048 c 0,-0.92352 -0.9214,-2.16826 -3.245,-2.16826 -2.2033,0 -3.0847,0.90344 -3.0847,1.86711 0,0.96363 0.9214,1.58603 2.3236,1.86713 l 2.7843,0.4617 c 3.0046,0.502 4.4869,2.0478 4.4869,4.6578 0,2.4895 -2.0031,4.6577 -6.3498,4.6577 -4.9476,0 -6.6502,-3.2524 -6.6502,-4.9589 h 3.0847 z"
       fill="#ffffff"
       id="path4"
       style="fill:#000000" />
    <path
       d="m 105.042,18.9922 h -0.16 c -0.301,0.4618 -1.863,2.0077 -4.788,2.0077 -4.0459,0 -7.1106,-3.0918 -7.1106,-8.0708 0,-4.95885 3.0647,-8.0707 7.1106,-8.0707 3.005,0 4.267,1.58604 4.788,2.16826 h 0.16 V 5.15955 h 3.085 V 20.6586 h -3.085 z m 0,-6.043 c 0,-3.23229 -2.003,-5.28009 -4.487,-5.28009 -2.4838,0 -4.4869,2.0478 -4.4869,5.28009 0,3.2323 2.0031,5.2801 4.4869,5.2801 2.484,-0.02 4.487,-2.0678 4.487,-5.2801 z"
       fill="#ffffff"
       id="path6"
       style="fill:#000000" />
    <path
       d="m 111.731,5.18005 h 3.085 v 1.54589 h 0.16 c 0.341,-0.3413 0.722,-0.64244 1.142,-0.92352 0.741,-0.46175 1.863,-0.92351 3.345,-0.92351 3.706,0 6.19,2.44933 6.19,6.50479 v 9.2954 h -3.085 v -9.2954 c 0,-2.00766 -1.582,-3.71416 -3.706,-3.71416 -2.323,0 -4.026,1.7065 -4.026,3.71416 v 9.2954 h -3.085 V 5.18005 Z"
       fill="#ffffff"
       id="path8"
       style="fill:#000000" />
    <path
       d="m 129.139,0 h 3.104 v 11.5239 h 2.204 l 4.567,-5.90248 h 3.545 l -5.448,6.94648 5.909,8.131 h -3.826 l -4.587,-6.3643 h -2.364 v 6.3643 h -3.104 z"
       fill="#ffffff"
       id="path10"
       style="fill:#000000" />
    <path
       d="m 83.8093,4.87847 c -3.0046,0 -4.2665,1.58604 -4.7873,2.16826 H 78.8617 V 0.0400391 h -5.889 V 2.83067 H 75.777 V 20.6987 h 3.0847 v -1.8671 h 0.1603 c 0.4607,0.6224 1.8228,2.1683 4.7873,2.1683 4.0462,0 7.111,-3.0918 7.111,-8.0708 0,-4.95885 -3.0648,-8.05063 -7.111,-8.05063 z M 83.3286,18.2093 c -2.4838,0 -4.4869,-2.0478 -4.4869,-5.2802 0,-3.23227 2.0031,-5.28008 4.4869,-5.28008 2.4838,0 4.4869,2.04781 4.4869,5.28008 0,3.2324 -2.0031,5.2802 -4.4869,5.2802 z"
       fill="#ffffff"
       id="path12"
       style="fill:#000000" />
    <path
       d="M 28.5639,17.9081 V 0.0400391 H 22.6748 V 2.83067 h 2.7843 V 17.4463 c 0,2.0077 1.2419,3.2524 3.245,3.2524 h 3.0847 v -2.7906 z"
       fill="#ffffff"
       id="path14"
       style="fill:#000000" />
    <path
       d="M 54.6838,17.9081 V 8.13086 h 3.5655 V 5.17962 H 54.6838 V 0.0400391 H 51.5991 V 5.19969 h -2.4839 v 2.95125 h 2.4839 v 9.29536 c 0,2.0077 1.2018,3.2524 3.4052,3.2524 h 3.245 v -2.7906 z"
       fill="#ffffff"
       id="path16"
       style="fill:#000000" />
    <path
       d="M 12.3586,12.4272 V 16.563 H 4.12598 v 4.1358 H 16.485 v -8.2716 z"
       fill="#ff7140"
       id="path18" />
    <path
       d="M 12.3793,4.17578 H 8.25293 v 8.27152 h 4.12637 z"
       fill="#b2f44a"
       id="path20" />
    <path
       d="M 0,0.0380859 V 12.4253 H 4.12635 V 4.17384 H 8.2527 V 0.0380859 Z"
       fill="#ff85e8"
       id="path22" />
  </g>
  <defs
     id="defs29">
    <clipPath
       id="clip0_1321_16732">
      <rect
         width="143"
         height="21"
         fill="#ffffff"
         id="rect26"
         x="0"
         y="0" />
    </clipPath>
  </defs>
</svg>
