<?xml version="1.0" encoding="UTF-8"?>
<svg id="Camada_1" xmlns="http://www.w3.org/2000/svg" version="1.1" xmlns:xlink="http://www.w3.org/1999/xlink" viewBox="0 0 2500 2500">
  <!-- Generator: Adobe Illustrator 29.6.0, SVG Export Plug-In . SVG Version: 2.1.1 Build 207)  -->
  <defs>
    <style>
      .st0 {
        fill: #fff;
      }

      .st1 {
        fill: none;
      }

      .st2 {
        fill: url(#Gradiente_sem_nome);
      }

      .st3 {
        fill: #001f1f;
        fill-rule: evenodd;
      }

      .st4 {
        clip-path: url(#clippath);
      }
    </style>
    <clipPath id="clippath">
      <rect class="st1" y="1066.86" width="2500" height="491.57"/>
    </clipPath>
    <radialGradient id="Gradiente_sem_nome" data-name="Gradiente sem nome" cx="280.09" cy="1775.71" fx="280.09" fy="1775.71" r="11.17" gradientTransform="translate(34999.04 69203.25) rotate(-36.06) scale(42.11 -42.29)" gradientUnits="userSpaceOnUse">
      <stop offset="0" stop-color="teal"/>
      <stop offset="1" stop-color="#00c4c4"/>
    </radialGradient>
  </defs>
  <g class="st4">
    <g>
      <path class="st0" d="M2074.63,1442.92v49.02h19.98c12.35,0,21.37-1.93,27.01-5.79,5.63-3.86,8.48-9.91,8.48-18.22,0-7.55-2.95-13.61-8.86-18.16-5.91-4.55-13.75-6.86-23.63-6.86h-22.98ZM2074.63,1387.41v47.42h19.65c7.84,0,14.12-2.2,18.96-6.59,4.78-4.39,7.19-10.18,7.19-17.36s-2.47-13.02-7.41-17.2c-4.95-4.18-11.71-6.27-20.3-6.27h-18.1ZM2064.91,1500.03v-120.39h28.51c11.33,0,20.3,2.79,26.9,8.25,6.61,5.52,9.94,12.97,9.94,22.29,0,6.22-1.45,11.52-4.3,16.02-2.9,4.45-7.14,8.09-12.84,10.77,9.18,2.3,16.05,6.16,20.74,11.52,4.67,5.36,6.97,12.27,6.97,20.57,0,5.14-1.23,9.86-3.7,14.14-2.41,4.29-5.97,7.88-10.58,10.82-3.39,2.2-7.36,3.75-11.98,4.66-4.57.91-11.65,1.39-21.27,1.39h-28.4v-.05ZM2174.03,1449.99h46.34l-23.09-54.65-23.25,54.65ZM2142.61,1500.03l52.63-121.46h3.87l52.63,121.46h-10.21l-17.83-41.95h-53.11l-17.77,41.95h-10.2ZM2261.35,1500.03v-120.39h10.1l88.28,105.07v-105.07h9.72v120.39h-8.97l-89.41-106.46v106.41h-9.72v.05ZM2398.46,1500.03v-120.39h9.72v59.04l57.25-59.04h12.61l-57.35,59.04,63.64,61.35h-13.53l-62.62-60.38v60.38h-9.72Z"/>
      <path class="st0" d="M707.26,1325.64v-243.67h28.09l98.76,149.16,99.24-149.16h27.66v243.67h-29.91v-190.25l-96.99,144.12-96.99-144.12v190.25h-29.86ZM1056.54,1081.97v157.79c0,25.24,4.78,42.22,14.28,50.85,9.51,8.57,28.14,12.86,56.12,12.86s46.51-4.29,55.96-12.86c9.45-8.68,14.12-25.61,14.12-50.85v-157.79h30.34v165.88c0,30-7.79,51.54-23.42,64.56-15.63,13.02-41.4,19.5-77.18,19.5s-61.54-6.48-77.16-19.5c-15.63-13.02-23.41-34.56-23.41-64.56v-165.88h30.34ZM1294.93,1325.64v-243.67h30.33v215.65h159.5v28.02h-189.84ZM1531.05,1325.64v-215.65h-102.84v-28.02h236.08v28.02h-102.84v215.65h-30.4ZM1677.88,1325.64v-245.01h30.82v245.01h-30.82ZM1811.11,1190.46h107.83c15.35,0,26.96-3.38,34.8-10.18,7.94-6.7,11.86-16.66,11.86-29.74s-3.92-22.77-11.86-29.84c-7.84-7.18-18.96-10.72-33.3-10.72h-109.33v80.47ZM1780.72,1325.64v-243.67h140.17c23.73,0,42.36,5.89,55.95,17.63,13.64,11.73,20.47,27.86,20.47,48.27s-6.56,38.36-19.76,51.38c-13.16,13.13-30.72,19.66-52.63,19.66h-113.79v106.73h-30.4ZM2047.62,1325.64v-243.67h30.34v215.65h159.49v28.02h-189.84ZM2373.16,1303.46c27.38,0,50.15-9.32,68.19-28.02,18-18.7,26.96-42.43,26.96-71.1s-8.96-52.61-26.9-71.26c-17.89-18.7-40.7-28.02-68.25-28.02s-50.16,9.43-68.21,28.18c-17.99,18.75-26.96,42.49-26.96,71.1s8.97,52.45,26.96,71.1c18.04,18.7,40.76,28.02,68.21,28.02ZM2373.11,1331.96c-36.62,0-66.87-12.05-90.59-36.11-23.8-24.06-35.72-54.54-35.72-91.56s11.92-67.67,35.87-91.67c23.84-24.06,53.97-36.11,90.49-36.11s66.8,12.05,90.92,36.22c24,24.11,36.03,54.6,36.03,91.56s-12.03,67.51-35.93,91.56c-24.05,24.06-54.4,36.11-91.08,36.11Z"/>
      <path class="st3" d="M180.17,1361.54v-66.6l-93.12-179.38,93.12,245.97Z"/>
      <path class="st3" d="M479.83,1360.89v-65.95l93.44-177.13-93.44,243.08Z"/>
      <path class="st3" d="M345.41,1198.61l-15.41,22.66,89.36,172.95-73.95-195.61Z"/>
    </g>
  </g>
  <path class="st2" d="M0,1392.14l87.88,77.65,92.11,77.47v-252l83.62,174.4h132.21l83.62-174.41v252l92.11-77.47,87.88-77.65v-325.28h-224.59l-105.11,154.65-105.12-154.65H0v325.28Z"/>
  <path class="st3" d="M179.99,1361.95v-66.67l-93.01-179.67,93.01,246.34Z"/>
  <path class="st3" d="M479.43,1361.32v-66.05l93.37-177.37-93.37,243.43Z"/>
  <path class="st3" d="M345.13,1198.82l-15.42,22.7,89.26,173.19-73.84-195.88Z"/>
</svg>