<?xml version="1.0" encoding="UTF-8" standalone="no"?>
<!-- Created with Inkscape (http://www.inkscape.org/) -->

<svg
   version="1.1"
   id="svg2"
   width="2500"
   height="2500"
   viewBox="0 0 2500 2500"
   sodipodi:docname="quality-logo-branco.svg"
   inkscape:version="1.2.2 (732a01da63, 2022-12-09)"
   xmlns:inkscape="http://www.inkscape.org/namespaces/inkscape"
   xmlns:sodipodi="http://sodipodi.sourceforge.net/DTD/sodipodi-0.dtd"
   xmlns="http://www.w3.org/2000/svg"
   xmlns:svg="http://www.w3.org/2000/svg">
  <defs
     id="defs6" />
  <sodipodi:namedview
     id="namedview4"
     pagecolor="#505050"
     bordercolor="#eeeeee"
     borderopacity="1"
     inkscape:showpageshadow="0"
     inkscape:pageopacity="0"
     inkscape:pagecheckerboard="0"
     inkscape:deskcolor="#505050"
     showgrid="false"
     inkscape:zoom="0.125"
     inkscape:cx="1640"
     inkscape:cy="2128"
     inkscape:window-width="1920"
     inkscape:window-height="1009"
     inkscape:window-x="-8"
     inkscape:window-y="-8"
     inkscape:window-maximized="1"
     inkscape:current-layer="g8" />
  <g
     inkscape:groupmode="layer"
     inkscape:label="Image"
     id="g8">
    <path
       style="fill:#6e6e70;fill-opacity:1;stroke-width:13.8465"
       d="m 1059.1861,2470.9853 c -375.38371,-80.4229 -910.23942,-548.0772 -770.97672,-674.1082 61.78657,-55.9161 103.89675,-34.6072 291.07953,147.2936 521.06879,506.366 1205.29159,470.5124 1526.42199,-79.985 90.8736,-155.7802 265.7297,-144.6652 225.8182,14.3545 -100.1338,398.9653 -754.101,703.4741 -1272.343,592.4451 z m -27.8139,-370.3031 C 886.26208,2054.5957 826.77334,2008.9577 532.8957,1718.2644 267.04088,1455.2902 237.03259,1429.8107 182.78935,1420.9954 c -223.519761,-36.3251 -216.810683,-355.8967 7.92509,-377.491 125.55529,-12.0643 210.48667,66.1772 210.5872,193.9992 0.0969,118.5211 587.84252,674.9232 712.94786,674.9232 70.3783,0 100.9143,125.6965 42.7005,175.7697 -42.0326,36.1551 -48.9013,36.838 -125.5778,12.4857 z M 268.82182,1281.4188 c 49.78894,-49.7888 11.54348,-130.5533 -61.82229,-130.5533 -59.69187,0 -95.24335,92.5681 -52.11516,135.6963 23.52573,23.5256 88.18768,20.6069 113.93745,-5.143 z m 1212.56378,828.5388 c -113.2448,-39.7616 -88.7052,-168.3034 41.5398,-217.5907 350.1795,-132.5148 496.3649,-549.3645 308.5964,-879.9671 C 1778.4179,918.90015 1232.5393,373.467 1201.824,383.21569 1085.66,420.08469 961.50115,237.39931 1015.2671,108.7191 c 77.8062,-186.216446 369.1926,-117.0019972 369.1926,87.69614 0,40.34925 32.6161,78.29985 301.658,350.99488 424.6947,430.46128 489.2231,579.85278 411.0278,951.58078 -65.8137,312.867 -431.4671,675.6743 -615.7599,610.9667 z M 1248.3653,241.7691 c 43.5681,-39.42853 31.5458,-97.18866 -26.6028,-127.81065 -59.1923,-31.171704 -126.0475,34.77281 -101.2844,99.9048 20.362,53.55622 84.161,67.47757 127.8872,27.90585 z M 1144.4347,1766.3814 C 1054.6134,1733.4361 974.17034,1663.3062 633.28332,1320.7614 280.32971,966.09125 274.37957,957.40794 333.12543,882.72466 c 69.06544,-87.80234 89.4678,-74.48489 482.26243,314.79174 422.88524,419.0979 456.87814,437.1175 631.53024,334.7722 130.7714,-76.6316 168.6784,-306.3369 55.0987,-333.8816 -211.8749,-51.3826 -197.3468,-355.75863 17.9682,-376.44768 127.4687,-12.24812 210.4895,65.95195 210.5871,198.35868 0.028,38.6254 10.1388,99.8314 22.467,136.0133 124.866,366.4614 -249.5351,741.7518 -608.6044,610.0501 z m 458.8008,-701.3647 c 27.0577,-27.0577 20.5339,-104.93203 -10.167,-121.36264 -61.43,-32.87638 -125.5294,-1.30795 -125.5294,61.82244 0,63.4209 91.6167,103.62 135.6964,59.5402 z m 690.3206,462.0775 c -18.2641,-20.1815 -22.916,-54.8669 -22.916,-170.8672 0,-308.7556 -73.0845,-468.25628 -342.2961,-747.03157 -149.6071,-154.92193 -183.8735,-197.86411 -183.8735,-230.42795 0,-296.9425 538.2412,182.76601 679.2119,605.3489 66.2149,198.49062 76.3387,489.25282 19.0299,546.56142 -30.3009,30.301 -120.4514,28.135 -149.1562,-3.5836 z M 859.97672,1034.5366 C 459.18805,634.56396 453.262,625.93645 526.07834,548.42695 c 71.75652,-76.3813 82.4613,-69.0501 480.77126,329.2599 403.5821,403.58205 416.704,423.37745 327.2797,493.71875 -75.5052,59.3925 -80.9808,55.5023 -474.15258,-336.869 z M 1197.531,820.17407 C 1113.8056,767.84355 830.59693,465.12828 830.59693,427.96636 c 0,-58.85851 49.52807,-107.89508 108.97651,-107.89508 67.99606,0 417.19306,340.85399 417.19306,407.22546 0,84.33851 -89.4357,136.5038 -159.2355,92.87733 z"
       id="path293" />
    <path
       style="fill:#622e88;fill-opacity:1;fill-rule:evenodd;stroke:none;stroke-width:6.87084;stroke-opacity:0"
       d="m 1551.7597,821.44337 c -35.8742,-0.85267 -72.5485,3.41719 -104.517,20.83935 -56.6326,30.96396 -96.5608,92.60959 -96.0409,157.91688 -5.3188,70.4094 33.0861,140.9111 94.0138,176.0529 23.8992,16.0919 53.2733,19.2492 78.5671,31.9642 35.414,21.119 45.9431,65.3364 43.6401,103.7708 -0.1385,74.7093 -35.6402,147.7057 -90.3863,197.6371 -37.6649,29.0313 -80.3524,52.0609 -125.3135,67.3037 -50.6358,16.6347 -104.7069,-1.1798 -147.8148,-29.3776 -94.4603,-61.4483 -173.4451,-143.1395 -254.94595,-220.2062 -141.35228,-135.5173 -277.2637,-276.7637 -422.48873,-408.21933 -35.58928,-29.43341 -69.95425,-64.44689 -114.98787,-78.75476 -22.63858,-7.30819 -46.32161,3.36491 -60.63924,21.20748 -21.77359,24.0641 -49.95801,49.90114 -46.24907,85.01152 8.25312,39.7455 39.12224,72.03139 63.72745,102.50439 112.91074,124.7972 235.32937,241.7423 353.75035,361.2465 101.20249,99.2141 196.55038,201.9432 306.83266,291.268 44.2973,36.4539 99.2931,63.9446 155.3308,77.2929 40.2134,11.7317 82.1151,16.2262 123.8936,12.9462 82.2998,0.288 162.6009,-28.3967 232.0724,-71.2046 148.4721,-93.0679 248.154,-267.0887 236.8151,-443.9513 -2.168,-54.4167 -19.7799,-106.137 -33.2024,-158.3819 -16.4574,-63.9475 -6.5013,-132.60634 -30.7776,-194.72916 -22.2811,-48.62163 -67.2584,-88.34863 -120.627,-98.30571 -13.2807,-3.37002 -27.0012,-4.15523 -40.653,-3.83136 z m -8.1081,111.44916 c 23.3398,-1.51278 50.3462,6.41381 63.8901,26.96828 14.9734,30.30135 16.9656,69.74219 -1.1949,99.21039 -22.0981,30.6701 -67.3333,28.786 -96.6335,10.4508 -24.5385,-13.4253 -43.3686,-39.3675 -40.4825,-68.2836 -1.1272,-37.07304 34.3102,-72.94053 72.2601,-68.33128 l 2.1514,-0.0152 z"
       id="path3706"
       sodipodi:nodetypes="ccccccccccccccccccccccccccccccccc" />
    <path
       style="fill:#ffffff;fill-opacity:1;fill-rule:evenodd;stroke:none;stroke-width:22.456;stroke-opacity:0"
       d="m 2256.5625,1756.0156 c -111.6747,9.2993 -154.6868,132.7496 -218.4284,206.4944 -150.3003,206.3021 -397.6007,341.2117 -655.0711,335.9948 -307.1027,8.8876 -593.79143,-150.5173 -808.6314,-359.5846 -71.95878,-58.1089 -132.91987,-142.7267 -225.33785,-167.7015 -62.64849,-3.3523 -100.13732,69.9202 -73,123.1407 63.7721,147.26 197.47424,249.7067 320.48437,346.0625 194.03169,143.8788 424.21258,253.7954 670.21878,253.8125 332.5151,-4.2518 677.823,-117.1928 913.1249,-359.5157 77.5883,-89.4057 161.2139,-197.9771 153.6407,-322.6875 -4.5171,-37.4999 -40.8312,-60.2086 -77,-56.0156 z"
       id="path10228" />
    <path
       style="fill:#ffffff;fill-opacity:1;fill-rule:evenodd;stroke:none;stroke-width:22.456;stroke-opacity:0"
       d="M 209.03125,1044.9531 C 97.021279,1038.0176 3.2830468,1148.1628 23.21875,1257.5 c 7.110482,86.4765 80.86059,148.8328 162.57413,164.7055 105.0081,37.4661 170.21185,135.8104 253.46008,204.7717 145.09451,132.5673 275.63728,282.8539 435.41887,398.3041 69.77304,46.8548 150.47347,78.7371 232.54687,93.6562 63.3098,-20.306 96.8845,-92.3894 68.4844,-153.25 -21.9905,-64.1269 -104.8215,-52.0009 -149.6562,-92.0938 -205.12154,-139.5279 -387.43872,-312.479 -547.45315,-501.625 -49.82192,-54.4016 -79.07218,-122.8531 -87.73438,-195.6875 -18.45201,-82.7459 -97.66127,-138.7134 -181.82812,-131.3281 z m 3.92188,106.8438 c 67.32246,0.537 108.87724,104.1655 41.29687,137.8593 -45.27538,29.3284 -129.11115,5.9585 -116.90625,-58.6718 2.01747,-40.3079 30.88213,-83.2992 75.60938,-79.1875 z"
       id="path10230" />
    <path
       style="fill:#ffffff;fill-opacity:1;fill-rule:evenodd;stroke:none;stroke-width:22.456;stroke-opacity:0"
       d="m 1169.5625,0.375 c -114.2987,4.5326456 -201.32619,137.03249 -153.8594,243.59375 21.1579,80.4014 94.111,150.9697 181.6094,141.32812 72.1137,28.44957 120.9044,97.53846 179.7383,146.0677 152.041,152.68419 313.8318,298.27927 444.2305,470.54163 115.4354,173.6937 115.6127,408.912 28.5483,594.3981 -65.9456,137.1686 -188.7626,236.8718 -326.2709,297.1162 -60.3202,27.5106 -134.6697,83.6839 -106.0431,159.1576 39.8984,80.436 151.1521,72.9427 219.7188,35.7032 199.7497,-103.4789 346.8465,-293.3209 431.5745,-498.723 49.1056,-150.0503 75.6658,-315.8969 35.0973,-470.9801 C 2030.9575,883.25607 1839.1952,714.07087 1676.9885,538.55904 1585.6393,439.32995 1482.7475,348.59792 1402.7187,240.04687 1373.982,173.31318 1375.3545,87.697351 1307.8281,43.203125 1268.5866,13.907214 1218.1457,0.2581848 1169.5625,0.375 Z m 23.75,106.89062 c 66.5795,1.2168 111.2187,98.55902 48.9062,138.45313 -47.2964,40.06457 -123.1449,6.58231 -126.9062,-54.78125 -3.2405,-40.99351 34.7976,-87.15485 78,-83.67188 z"
       id="path10232" />
    <path
       style="fill:#ffffff;fill-opacity:1;fill-rule:evenodd;stroke:none;stroke-width:22.456;stroke-opacity:0"
       d="m 1802.9844,288.25 c -66.4933,8.27187 -73.9048,105.69681 -30.2533,145.76881 165.4147,207.53828 397.1768,381.29595 466.7681,649.63149 41.4998,134.1245 23.0155,275.8835 41.0008,412.7559 18.8055,75.2486 141.2453,70.2084 176.3281,10.6563 31.4872,-97.9195 16.639,-204.9291 11.6944,-306.1592 C 2438.5354,889.66402 2249.5911,616.90001 2025.7969,409.17187 1962.8002,355.40799 1889.121,293.83915 1802.9844,288.25 Z"
       id="path10234" />
    <path
       style="fill:#ffffff;fill-opacity:1;fill-rule:evenodd;stroke:none;stroke-width:22.456;stroke-opacity:0"
       d="m 584.60937,512.03125 c -42.00054,16.10597 -93.21471,56.43841 -91.73437,105.67187 39.92286,104.02986 137.43104,171.4676 208.33322,253.60572 173.1492,170.83326 337.01008,352.74826 525.72928,506.72246 33.35,30.4377 80.9548,23.8621 109.2812,-9.7344 46.7519,-27.7689 50.4397,-92.2167 10.7344,-127.7188 C 1173.3507,1034.8829 976.77699,849.73611 785.68111,660.52624 722.60613,608.96008 668.33835,533.14337 586.71875,511.90625 Z"
       id="path10236" />
    <path
       style="fill:#ffffff;fill-opacity:1;fill-rule:evenodd;stroke:none;stroke-width:22.456;stroke-opacity:0"
       d="m 929.06249,320 c -60.81922,9.40362 -130.02732,88.25705 -76.90625,144.6875 103.62207,127.91612 216.19096,251.41054 345.46876,353.5625 64.7458,40.81906 169.7336,-10.63203 152.0937,-92.93751 C 1313.5381,618.8184 1215.5095,548.99048 1140.799,469.70604 1075.7915,415.92661 1013.7847,340.20305 929.06249,320 Z"
       id="path10238" />
  </g>
</svg>
