<?xml version="1.0" encoding="UTF-8" standalone="no"?>
<!-- Created with Inkscape (http://www.inkscape.org/) -->

<svg
   version="1.1"
   id="svg2"
   width="2500"
   height="2500"
   viewBox="0 0 2500 2500"
   sodipodi:docname="quality-logo-cinza.svg"
   inkscape:version="1.2.2 (732a01da63, 2022-12-09)"
   xmlns:inkscape="http://www.inkscape.org/namespaces/inkscape"
   xmlns:sodipodi="http://sodipodi.sourceforge.net/DTD/sodipodi-0.dtd"
   xmlns="http://www.w3.org/2000/svg"
   xmlns:svg="http://www.w3.org/2000/svg">
  <defs
     id="defs6" />
  <sodipodi:namedview
     id="namedview4"
     pagecolor="#505050"
     bordercolor="#eeeeee"
     borderopacity="1"
     inkscape:showpageshadow="0"
     inkscape:pageopacity="0"
     inkscape:pagecheckerboard="0"
     inkscape:deskcolor="#505050"
     showgrid="false"
     inkscape:zoom="0.0625"
     inkscape:cx="-2400"
     inkscape:cy="-320"
     inkscape:window-width="1920"
     inkscape:window-height="1009"
     inkscape:window-x="-8"
     inkscape:window-y="-8"
     inkscape:window-maximized="1"
     inkscape:current-layer="g8" />
  <g
     inkscape:groupmode="layer"
     inkscape:label="Image"
     id="g8">
    <path
       style="fill:#6e6e70;fill-opacity:1;stroke-width:13.8465"
       d="m 1059.1861,2470.9853 c -375.38371,-80.4229 -910.23942,-548.0772 -770.97672,-674.1082 61.78657,-55.9161 103.89675,-34.6072 291.07953,147.2936 521.06879,506.366 1205.29159,470.5124 1526.42199,-79.985 90.8736,-155.7802 265.7297,-144.6652 225.8182,14.3545 -100.1338,398.9653 -754.101,703.4741 -1272.343,592.4451 z m -27.8139,-370.3031 C 886.26208,2054.5957 826.77334,2008.9577 532.8957,1718.2644 267.04088,1455.2902 237.03259,1429.8107 182.78935,1420.9954 c -223.519761,-36.3251 -216.810683,-355.8967 7.92509,-377.491 125.55529,-12.0643 210.48667,66.1772 210.5872,193.9992 0.0969,118.5211 587.84252,674.9232 712.94786,674.9232 70.3783,0 100.9143,125.6965 42.7005,175.7697 -42.0326,36.1551 -48.9013,36.838 -125.5778,12.4857 z M 268.82182,1281.4188 c 49.78894,-49.7888 11.54348,-130.5533 -61.82229,-130.5533 -59.69187,0 -95.24335,92.5681 -52.11516,135.6963 23.52573,23.5256 88.18768,20.6069 113.93745,-5.143 z m 1212.56378,828.5388 c -113.2448,-39.7616 -88.7052,-168.3034 41.5398,-217.5907 350.1795,-132.5148 496.3649,-549.3645 308.5964,-879.9671 C 1778.4179,918.90015 1232.5393,373.467 1201.824,383.21569 1085.66,420.08469 961.50115,237.39931 1015.2671,108.7191 c 77.8062,-186.216446 369.1926,-117.0019972 369.1926,87.69614 0,40.34925 32.6161,78.29985 301.658,350.99488 424.6947,430.46128 489.2231,579.85278 411.0278,951.58078 -65.8137,312.867 -431.4671,675.6743 -615.7599,610.9667 z M 1248.3653,241.7691 c 43.5681,-39.42853 31.5458,-97.18866 -26.6028,-127.81065 -59.1923,-31.171704 -126.0475,34.77281 -101.2844,99.9048 20.362,53.55622 84.161,67.47757 127.8872,27.90585 z M 1144.4347,1766.3814 C 1054.6134,1733.4361 974.17034,1663.3062 633.28332,1320.7614 280.32971,966.09125 274.37957,957.40794 333.12543,882.72466 c 69.06544,-87.80234 89.4678,-74.48489 482.26243,314.79174 422.88524,419.0979 456.87814,437.1175 631.53024,334.7722 130.7714,-76.6316 168.6784,-306.3369 55.0987,-333.8816 -211.8749,-51.3826 -197.3468,-355.75863 17.9682,-376.44768 127.4687,-12.24812 210.4895,65.95195 210.5871,198.35868 0.028,38.6254 10.1388,99.8314 22.467,136.0133 124.866,366.4614 -249.5351,741.7518 -608.6044,610.0501 z m 458.8008,-701.3647 c 27.0577,-27.0577 20.5339,-104.93203 -10.167,-121.36264 -61.43,-32.87638 -125.5294,-1.30795 -125.5294,61.82244 0,63.4209 91.6167,103.62 135.6964,59.5402 z m 690.3206,462.0775 c -18.2641,-20.1815 -22.916,-54.8669 -22.916,-170.8672 0,-308.7556 -73.0845,-468.25628 -342.2961,-747.03157 -149.6071,-154.92193 -183.8735,-197.86411 -183.8735,-230.42795 0,-296.9425 538.2412,182.76601 679.2119,605.3489 66.2149,198.49062 76.3387,489.25282 19.0299,546.56142 -30.3009,30.301 -120.4514,28.135 -149.1562,-3.5836 z M 859.97672,1034.5366 C 459.18805,634.56396 453.262,625.93645 526.07834,548.42695 c 71.75652,-76.3813 82.4613,-69.0501 480.77126,329.2599 403.5821,403.58205 416.704,423.37745 327.2797,493.71875 -75.5052,59.3925 -80.9808,55.5023 -474.15258,-336.869 z M 1197.531,820.17407 C 1113.8056,767.84355 830.59693,465.12828 830.59693,427.96636 c 0,-58.85851 49.52807,-107.89508 108.97651,-107.89508 67.99606,0 417.19306,340.85399 417.19306,407.22546 0,84.33851 -89.4357,136.5038 -159.2355,92.87733 z"
       id="path293" />
    <path
       style="fill:#622e88;fill-opacity:1;fill-rule:evenodd;stroke:none;stroke-width:6.87084;stroke-opacity:0"
       d="m 1551.7597,821.44337 c -35.8742,-0.85267 -72.5485,3.41719 -104.517,20.83935 -56.6326,30.96396 -96.5608,92.60959 -96.0409,157.91688 -5.3188,70.4094 33.0861,140.9111 94.0138,176.0529 23.8992,16.0919 53.2733,19.2492 78.5671,31.9642 35.414,21.119 45.9431,65.3364 43.6401,103.7708 -0.1385,74.7093 -35.6402,147.7057 -90.3863,197.6371 -37.6649,29.0313 -80.3524,52.0609 -125.3135,67.3037 -50.6358,16.6347 -104.7069,-1.1798 -147.8148,-29.3776 -94.4603,-61.4483 -173.4451,-143.1395 -254.94595,-220.2062 -141.35228,-135.5173 -277.2637,-276.7637 -422.48873,-408.21933 -35.58928,-29.43341 -69.95425,-64.44689 -114.98787,-78.75476 -22.63858,-7.30819 -46.32161,3.36491 -60.63924,21.20748 -21.77359,24.0641 -49.95801,49.90114 -46.24907,85.01152 8.25312,39.7455 39.12224,72.03139 63.72745,102.50439 112.91074,124.7972 235.32937,241.7423 353.75035,361.2465 101.20249,99.2141 196.55038,201.9432 306.83266,291.268 44.2973,36.4539 99.2931,63.9446 155.3308,77.2929 40.2134,11.7317 82.1151,16.2262 123.8936,12.9462 82.2998,0.288 162.6009,-28.3967 232.0724,-71.2046 148.4721,-93.0679 248.154,-267.0887 236.8151,-443.9513 -2.168,-54.4167 -19.7799,-106.137 -33.2024,-158.3819 -16.4574,-63.9475 -6.5013,-132.60634 -30.7776,-194.72916 -22.2811,-48.62163 -67.2584,-88.34863 -120.627,-98.30571 -13.2807,-3.37002 -27.0012,-4.15523 -40.653,-3.83136 z m -8.1081,111.44916 c 23.3398,-1.51278 50.3462,6.41381 63.8901,26.96828 14.9734,30.30135 16.9656,69.74219 -1.1949,99.21039 -22.0981,30.6701 -67.3333,28.786 -96.6335,10.4508 -24.5385,-13.4253 -43.3686,-39.3675 -40.4825,-68.2836 -1.1272,-37.07304 34.3102,-72.94053 72.2601,-68.33128 l 2.1514,-0.0152 z"
       id="path3706"
       sodipodi:nodetypes="ccccccccccccccccccccccccccccccccc" />
  </g>
</svg>
