<?xml version="1.0" encoding="UTF-8" standalone="no"?>
<svg
   width="2500"
   height="2500"
   fill="none"
   version="1.1"
   id="svg16"
   sodipodi:docname="logo-pagbank.svg"
   inkscape:version="1.2.2 (732a01da63, 2022-12-09)"
   xmlns:inkscape="http://www.inkscape.org/namespaces/inkscape"
   xmlns:sodipodi="http://sodipodi.sourceforge.net/DTD/sodipodi-0.dtd"
   xmlns="http://www.w3.org/2000/svg"
   xmlns:svg="http://www.w3.org/2000/svg">
  <defs
     id="defs20" />
  <sodipodi:namedview
     id="namedview18"
     pagecolor="#505050"
     bordercolor="#eeeeee"
     borderopacity="1"
     inkscape:showpageshadow="0"
     inkscape:pageopacity="0"
     inkscape:pagecheckerboard="0"
     inkscape:deskcolor="#505050"
     showgrid="false"
     inkscape:zoom="0.18060686"
     inkscape:cx="2452.8415"
     inkscape:cy="1494.9598"
     inkscape:window-width="1920"
     inkscape:window-height="1009"
     inkscape:window-x="-8"
     inkscape:window-y="-8"
     inkscape:window-maximized="1"
     inkscape:current-layer="svg16" />
  <path
     fill="#000000"
     d="m 954.81073,1401.9962 h -52.90746 l -21.54894,102.1764 h -60.34506 l 58.71683,-275.7338 h 113.71484 c 46.35426,0 77.99426,32.4038 77.99426,69.6521 0,74.0141 -58.9581,103.9053 -115.62447,103.9053 z m 7.43759,-133.1934 h -32.22289 l -19.9006,92.6685 h 20.72477 c 40.54496,0 77.7128,-9.086 77.7128,-57.4907 0.2814,-22.0112 -22.71477,-35.2984 -46.29398,-35.2984 v 0.1206 z M 1271.2102,1430.44 a 385.04649,385.04649 0 0 0 -9.9101,73.612 h -58.3551 c 0.8443,-10.3522 4.543,-29.7704 7.8999,-48.8066 -14.875,26.8758 -39.198,53.3496 -79.8234,53.3496 -41.7712,0 -62.8778,-28.0015 -62.8778,-66.1745 0,-93.0705 83.1402,-150.5611 162.3606,-150.5611 23.9612,0 54.9781,4.161 69.4713,9.5281 z m -51.6813,-100.1061 c -47.5805,0 -90.9799,50.3948 -90.9799,105.8752 0,18.6342 6.6134,33.9315 28.0016,33.9315 28.9462,0 56.6463,-39.7006 68.2449,-89.5929 l 11.1967,-47.9825 a 45.731181,45.731181 0 0 0 -16.4834,-2.2313 z m 281.2417,146.0181 c -18.6543,83.5222 -49.249,121.6148 -141.0531,121.6148 -24.4435,0 -48.7262,-3.9198 -71.9436,-11.5986 l 11.1966,-40.9269 a 124.34861,124.34861 0 0 0 59.5812,14.051 c 51.6611,0 71.5617,-27.2779 81.0698,-66.1343 l 6.5933,-27.3181 c -19.8805,26.4939 -40.5248,38.0725 -74.8584,38.0725 -42.6154,0 -63.2598,-26.4739 -63.2598,-61.5913 0,-93.4324 85.1505,-150.0989 164.6121,-150.0989 a 258.90884,258.90884 0 0 1 67.1796,9.0659 l -39.1378,174.8639 z m -40.5449,-145.5758 c -47.6007,0 -91.8243,48.8267 -91.8243,106.7193 0,18.6343 6.5934,32.2431 26.8759,32.2431 38.9167,0 60.4055,-49.6108 69.0894,-86.3766 l 11.9805,-50.0531 a 53.872336,53.872336 0 0 0 -16.1215,-2.5931 z m 260.9591,30.5745 c 29.7706,6.6134 48.8067,25.6496 48.8067,54.596 0,71.1596 -67.8629,88.1053 -124.9113,88.1053 h -102.1765 l 58.7369,-275.6132 h 110.4583 c 36.786,0 76.4866,16.7848 76.4866,57.8926 0,41.0878 -27.2577,67.5616 -67.4007,75.0193 z m -67.8027,19.0361 h -26.0918 l -18.5941,86.8391 h 28.5444 c 34.7153,0 70.7174,-10.7544 70.7174,-53.3498 0,-28.6849 -32.2429,-33.4893 -54.5759,-33.4893 z m 32.243,-115.3832 h -34.3135 l -16.8049,78.9994 h 29.3885 c 32.2632,0 63.6619,-12.4429 63.6619,-49.2289 0.2211,-23.1772 -22.9158,-29.7705 -41.932,-29.7705 z m 312.2586,165.4364 a 384.72486,384.72486 0 0 0 -9.9303,73.612 h -58.3349 c 0.8443,-10.3522 4.5229,-29.7704 7.8397,-48.8066 -14.8351,26.8758 -39.1982,53.3496 -79.8035,53.3496 -41.7511,0 -62.8577,-28.0015 -62.8577,-66.1745 0,-93.0705 83.1403,-150.5611 162.3608,-150.5611 23.961,0 54.9779,4.161 69.4913,9.5281 l -28.7856,129.0525 z m -51.7015,-100.1061 c -47.5805,0 -90.9799,50.3948 -90.9799,105.8752 0,18.6342 6.6134,33.9315 28.0016,33.9315 28.9463,0 56.6664,-39.7006 68.245,-89.5929 l 11.1966,-47.9825 a 45.731181,45.731181 0 0 0 -16.4633,-2.2313 z m 300.66,36.3839 -28.665,137.3342 h -57.1087 l 26.092,-124.8912 c 1.8493,-7.0356 2.9549,-14.2521 3.2966,-21.5088 0,-15.7396 -7.4375,-26.9362 -27.3181,-26.9362 -31.0168,0 -45.9121,27.7402 -51.6812,54.6564 l -25.2477,118.6798 h -57.7117 l 33.8712,-161.2953 c 3.4374,-15.2973 6.0708,-30.7555 7.8798,-46.3544 h 53.7518 l -6.2114,36.8464 c 19.8805,-27.7202 40.545,-40.9269 74.8584,-40.9269 34.3135,0 56.6665,16.7848 56.6665,50.8368 a 122.19773,122.19773 0 0 1 -2.4725,23.5592 z m 149.7168,24.0817 65.3302,113.3129 h -65.3302 l -56.2845,-108.8302 -22.3932,108.7698 h -57.37 l 62.8577,-298.0064 h 57.1691 l -36.7861,176.1303 88.9095,-85.6127 h 67.1796 z M 485.37765,1703.7013 C 664.08102,1629.647 748.95006,1424.7712 674.9359,1246.0478 600.90165,1067.3444 396.02596,982.4553 217.30247,1056.4896 38.578992,1130.5238 -46.290038,1335.3995 27.724119,1514.1432 101.75837,1692.8464 306.63407,1777.7356 485.35754,1703.7013 Z"
     id="path2"
     style="stroke-width:20.1016" />
  <path
     fill="#dde05b"
     d="m 351.31996,1623.8778 c 160.85315,0 291.27244,-130.3992 291.27244,-291.2523 0,-160.8532 -130.41929,-291.2524 -291.29254,-291.2524 -160.79285,0 -291.212137,130.3992 -291.212137,291.2724 0,160.8331 130.399187,291.2323 291.252337,291.2323 z"
     id="path4"
     style="stroke-width:20.1016" />
  <path
     fill="#000000"
     d="m 351.31996,1631.5365 a 302.32834,302.32834 0 1 1 0,-604.6566 302.32834,302.32834 0 0 1 0,604.6566 z m 0,-582.2634 a 280.33716,280.33716 0 1 0 280.33716,279.9351 280.61859,280.61859 0 0 0 -280.29696,-280.4176 v 0.5026 z"
     id="path6"
     style="stroke-width:20.1016" />
  <path
     fill="#9ed5d6"
     d="m 302.57354,1707.7417 c 133.51493,0 241.74206,-108.2271 241.74206,-241.7621 0,-133.5149 -108.22713,-241.742 -241.74206,-241.742 -133.53505,0 -241.762159,108.2271 -241.762159,241.7621 0,133.5149 108.227109,241.742 241.762159,241.742 z"
     id="path8"
     style="stroke-width:20.1016" />
  <path
     fill="#000000"
     d="M 303.07608,1718.7774 A 252.73764,252.73764 0 1 1 549.76314,1518.9675 252.87835,252.87835 0 0 1 303.3977,1718.7774 Z m -0.56285,-483.6448 a 230.84698,230.84698 0 1 0 0.0603,461.6738 230.84698,230.84698 0 0 0 -0.0603,-461.6537 z"
     id="path10"
     style="stroke-width:20.1016" />
  <path
     fill="#ffe72d"
     d="m 513.74103,1626.1693 a 149.99827,149.99827 0 1 0 0,-299.9764 149.99827,149.99827 0 0 0 0,299.9764 z"
     id="path12"
     style="stroke-width:20.1016" />
  <path
     fill="#000000"
     d="m 513.74103,1637.1448 a 160.95365,160.95365 0 1 1 160.97376,-160.9737 161.13457,161.13457 0 0 1 -160.97376,160.9737 z m 0,-299.9764 a 139.06301,139.06301 0 1 0 -0.10051,278.126 139.06301,139.06301 0 0 0 0.10051,-278.126 z"
     id="path14"
     style="stroke-width:20.1016" />
</svg>
