<?xml version="1.0" encoding="UTF-8"?>
<svg id="Capa_1" xmlns="http://www.w3.org/2000/svg" version="1.1" viewBox="0 0 2500 2500">
  <!-- Generator: Adobe Illustrator 29.6.0, SVG Export Plug-In . SVG Version: 2.1.1 Build 207)  -->
  <defs>
    <style>
      .st0 {
        fill: #fff;
      }
    </style>
  </defs>
  <g>
    <path class="st0" d="M273.91,965.57c23.26-.05,44.69,2.16,64.29,6.64,19.6,4.48,36.54,11.88,50.76,22.2,14.23,10.32,25.35,24.1,33.36,41.32,8,17.24,12.05,38.58,12.1,64.02.06,25.46-4.72,48.22-14.37,68.3-9.64,20.08-22.74,37.05-39.28,50.9-16.56,13.84-35.59,24.45-57.09,31.84-21.52,7.38-44.33,11.1-68.46,11.15l-125.31.3-34.47,165.53-100.77.24,94.49-462.01,184.74-.44ZM250.07,1183.06c25.84-.06,46.17-6.69,60.99-19.88,14.83-13.2,22.2-33.62,22.14-61.23-.03-11.65-2.11-21.27-6.21-28.81-4.11-7.54-9.62-13.36-16.52-17.43-6.89-4.08-14.55-6.98-22.95-8.68-8.4-1.7-17.13-2.55-26.17-2.54l-86.56.2-28.1,138.6,103.37-.23Z"/>
    <path class="st0" d="M449.76,1142.27c9.84-13.97,21.81-25.25,35.94-33.86,14.13-8.61,29.97-14.77,47.55-18.45,17.57-3.69,35.78-5.56,54.66-5.6,15.01-.04,30.65,1,46.95,3.1,16.28,2.11,31.28,6.25,45.01,12.43,13.7,6.18,24.96,14.94,33.76,26.27,8.81,11.34,13.01,26.43,12.63,45.27.04,15.84-2.27,34.51-6.93,55.92l-29.21,133.76c-1.69,6.01-2.87,13.41-3.49,22.18-.61,8.79-.91,16.39-.9,22.83.01,5.56,1.1,12,3.26,19.27l-91.49.14-.08-32.79c-12.42,14.22-27.61,24.67-45.63,31.37-17.99,6.69-36.67,10.07-55.96,10.12-18.02.04-33.8-2.27-47.32-6.94-13.53-4.68-24.82-10.97-33.85-18.88-9.04-7.91-15.7-17.11-20.02-27.6-4.32-10.49-6.49-21.52-6.51-33.09-.08-32.15,10.92-57.89,33-77.23,22.08-19.34,53.27-31.42,93.63-36.23,21.46-2.62,40.14-4.6,56.03-5.93,15.88-1.32,29.09-3.39,39.6-6.2,10.51-2.82,18.35-6.91,23.47-12.28,5.14-5.37,7.71-13.42,7.68-24.12-.03-8.56-1.97-15.41-5.85-20.55-3.86-5.13-8.7-9.18-14.49-12.18-5.8-3-12.02-5.01-18.68-6.06-6.64-1.07-12.98-1.57-18.97-1.56-16.29.04-30.86,4.05-43.71,12.02-12.85,7.99-20.74,20.36-23.72,37.14l-85.54.2c2.96-21.04,9.34-38.52,19.18-52.48M586.14,1278.7c-13.33,1.54-26.64,2.74-39.95,3.63-8.58.88-16.96,2.29-25.11,4.23-8.15,1.94-15.35,4.86-21.57,8.73s-11.26,9.13-15.11,15.77c-3.86,6.65-5.76,15.12-5.74,25.39.03,12.42,5.09,21.72,15.21,27.91,10.12,6.18,21.84,9.27,35.14,9.23,14.18-.04,26.09-2.31,35.76-6.83,9.66-4.52,17.8-10.32,24.45-17.41,6.64-7.07,11.88-15.12,15.73-24.13,3.85-9,7.05-18,9.6-26.99l8.95-32.15c-11.59,6.88-24.05,11.1-37.36,12.62"/>
    <path class="st0" d="M831.32,1502.87c-8.13,9.23-17.11,16.43-26.97,21.6-9.85,5.15-21.1,8.72-33.75,10.69-12.64,1.94-27.55,2.95-44.69,2.98-7.72.01-15.64-.37-23.8-1.19-8.14-.81-16.29-1.41-24.45-1.82l15.26-76.21c6.01-.01,12.11.63,18.33,1.97,6.22,1.31,12.33,1.97,18.33,1.96,10.72-.03,19.28-1.65,25.72-4.88,6.41-3.24,11.65-7.1,15.73-11.6,4.05-4.51,7.48-9.33,10.25-14.49s5.66-9.66,8.65-13.51l-59.96-328.82,93.9-.23,29.52,237.6h1.29l114.54-237.94,96.48-.23-210.66,379.04c-7.69,14.16-15.6,25.85-23.72,35.08"/>
  </g>
  <path class="st0" d="M1371.08,1066.2c-14.96-13.99-34.39-20.96-58.34-20.91-25.21.06-47.15,5.87-65.81,17.43-18.69,11.55-33.97,26.47-45.91,44.71-11.93,18.24-20.81,38.58-26.64,60.99-5.84,22.42-8.72,44.32-8.67,65.68.04,15.5,2.06,30.17,6.08,43.97,4.01,13.81,10.14,26.05,18.35,36.72,8.21,10.65,18.73,19.11,31.55,25.37,12.81,6.25,28.25,9.36,46.29,9.31,13.42-.04,26.12-2.48,38.06-7.33,11.96-4.84,22.55-11.35,31.76-19.54,9.2-8.19,16.95-17.74,23.22-28.64,6.27-10.91,10.44-22.22,12.52-33.95l98.84-.24c-9.99,31.43-21.77,58.06-35.36,79.88-13.58,21.81-28.84,39.55-45.79,53.2-16.96,13.66-35.81,23.56-56.55,29.68-20.74,6.12-43.29,9.22-67.62,9.28-63.76.15-112.99-16.68-147.66-50.52-34.68-33.83-52.1-82.79-52.26-146.85-.09-36.44,5.48-70.98,16.72-103.67,11.25-32.69,27.44-61.51,48.55-86.48,21.13-24.96,46.86-44.8,77.23-59.53,30.37-14.73,64.44-22.14,102.18-22.24,26-.06,50.12,3.44,72.37,10.5,22.26,7.05,41.46,17.56,57.64,31.52,16.19,13.98,28.71,31.3,37.57,52,8.86,20.69,13.11,44.66,12.75,71.88l-98.58.24c-.01-27.64-7.53-48.46-22.47-62.45"/>
  <path class="st0" d="M1525.83,1139.72c9.81-13.97,21.8-25.25,35.92-33.86,14.13-8.61,29.97-14.77,47.56-18.45,17.57-3.69,35.78-5.56,54.66-5.6,15.01-.04,30.66,1,46.95,3.1,16.28,2.11,31.27,6.25,44.99,12.43,13.71,6.18,24.96,14.94,33.77,26.27,8.8,11.34,13,26.43,12.63,45.27.04,15.84-2.29,34.51-6.93,55.92l-29.2,133.76c-1.7,6.01-2.88,13.41-3.49,22.18-.62,8.79-.93,16.39-.91,22.83.01,5.56,1.1,12,3.26,19.27l-91.45.04-.1-32.68c-12.42,14.22-27.63,24.67-45.63,31.37-18,6.69-36.67,10.07-55.96,10.12-18.02.04-33.8-2.27-47.33-6.94-13.53-4.68-24.81-10.97-33.85-18.88-9.03-7.91-15.7-17.11-20.02-27.6-4.3-10.49-6.47-21.52-6.5-33.09-.08-32.15,10.91-57.89,33-77.23,22.08-19.34,53.27-31.42,93.63-36.23,21.46-2.62,40.13-4.6,56.03-5.93,15.88-1.32,29.09-3.39,39.6-6.2,10.51-2.82,18.33-6.91,23.47-12.28s7.71-13.42,7.68-24.12c-.03-8.56-1.97-15.41-5.84-20.55-3.87-5.13-8.71-9.18-14.5-12.18-5.79-3-12.01-5.01-18.68-6.06-6.64-1.07-12.98-1.57-18.98-1.56-16.29.04-30.85,4.05-43.71,12.02-12.84,7.99-20.74,20.36-23.7,37.14l-85.54.2c2.95-21.04,9.33-38.53,19.18-52.5M1662.19,1276.16c-13.33,1.54-26.64,2.74-39.95,3.63-8.58.88-16.97,2.29-25.12,4.23s-15.35,4.86-21.56,8.73c-6.22,3.87-11.26,9.13-15.12,15.77-3.85,6.65-5.76,15.12-5.74,25.39.03,12.42,5.1,21.72,15.21,27.91,10.11,6.18,21.84,9.27,35.14,9.23,14.18-.04,26.09-2.31,35.75-6.83,9.66-4.52,17.8-10.32,24.45-17.41,6.65-7.07,11.9-15.12,15.73-24.13,3.85-9,7.05-18,9.6-26.99l8.95-32.15c-11.58,6.88-24.02,11.08-37.34,12.62"/>
  <path class="st0" d="M2010.93,1153.89c-7.95-7.91-20.94-11.85-38.93-11.81-16.29.04-29.7,2.54-40.17,7.49-10.5,4.95-15.73,13.43-15.69,25.43.01,7.29,3.14,13.5,9.36,18.62,6.23,5.14,17.05,10.04,32.5,14.7l45.67,14.68c12.44,3.82,23.92,8.3,34.42,13.41,10.51,5.13,19.74,11.43,27.69,18.9,7.95,7.48,14.17,16.35,18.7,26.64,4.53,10.27,6.82,22.27,6.84,35.98.05,20.58-4.53,38.06-13.72,52.43-9.19,14.38-21.28,26.09-36.27,35.13-14.99,9.03-31.93,15.5-50.81,19.41-18.87,3.9-37.95,5.87-57.26,5.92-16.3.04-32.82-1.64-49.58-5.01-16.73-3.39-31.88-9.03-45.4-16.91-13.55-7.9-24.62-18.35-33.22-31.4-8.61-13.03-12.94-29.42-12.99-49.11l-.04-13.48,84.29-.2.03,10.88c.01,7.68,1.96,14.3,5.84,19.82,3.88,5.54,8.93,10.12,15.16,13.74,6.22,3.61,13.31,6.36,21.25,8.26,7.93,1.9,15.77,2.84,23.49,2.82,6.87-.01,13.72-.67,20.59-1.98,6.87-1.29,13.08-3.55,18.65-6.79,5.56-3.22,10.07-7.3,13.48-12.24,3.43-4.94,5.12-11.26,5.1-18.97-.03-11.55-3.03-19.69-9.05-24.39-6.01-4.7-13.94-8.75-23.8-12.15l-70.13-22.32c-11.58-3.82-21.76-7.86-30.56-12.12-8.8-4.27-16.3-9.6-22.53-16-6.25-6.41-10.97-14.12-14.21-23.09-3.22-8.99-4.88-20.12-4.9-33.4-.05-19.69,4.53-36.2,13.72-49.5,9.2-13.31,21.09-24.15,35.65-32.54,14.57-8.39,30.55-14.42,47.91-18.1s33.99-5.55,49.84-5.59c18-.04,35.37,1.42,52.1,4.37,16.73,2.96,31.42,8.39,44.09,16.29,12.66,7.9,22.66,18.69,29.99,32.37,7.33,13.7,10.8,31.24,10.41,52.66l-84.9.2c-.46-14.13-4.67-25.14-12.62-33.05"/>
  <path class="st0" d="M2276.06,961.86l-33.9,166.26h1.3c3.44-4.76,8.39-9.95,14.84-15.58,6.46-5.64,14.22-10.84,23.27-15.62,9.04-4.76,19.6-8.79,31.68-12.05,12.07-3.28,25.66-4.94,40.75-4.96,65.14-.15,97.8,29.71,97.94,89.58.01,3.44-.41,7.86-1.27,13.25-.84,5.38-1.8,10.87-2.86,16.48-1.08,5.6-2.13,10.88-3.2,15.84-1.07,4.95-1.82,8.95-2.25,11.95l-40.94,195.87h-91.94s40.35-195.51,40.35-195.51c.84-5.17,2.01-12.05,3.5-20.67,1.49-8.61,2.22-15.29,2.21-20.02-.03-9.89-4.68-18.07-13.98-24.5-9.28-6.42-19.32-9.64-30.11-9.61-13.8.04-25.99,2.77-36.54,8.16-10.56,5.4-19.6,12.42-27.14,21.05-7.54,8.62-13.76,18.55-18.69,29.75-4.94,11.2-8.68,22.61-11.25,34.24l-37.07,177.12h-91.33l94.72-460.81,91.92-.23Z"/>
  <path class="st0" d="M2500.93,1400.96c0,12.3-9.97,22.37-22.32,22.37s-22.22-10.08-22.22-22.37,9.92-22.17,22.22-22.17,22.32,9.92,22.32,22.17ZM2466.93,1415.75h4.62v-12.2h2.75c3.55,0,4.99,1.27,8.53,7.69l2.6,4.51h5.62l-3.45-5.62c-2.39-3.82-4.24-6.21-6.73-7.05v-.22c4.88-.22,8.21-3.61,8.21-8.21,0-3.19-2.39-7.58-9.43-7.58h-12.72v28.68h-.01ZM2471.55,1399.64v-8.6h7.48c3.02,0,5.14,1.59,5.14,4.19,0,3.02-2.44,4.41-5.94,4.41,0,0-6.68,0-6.68,0ZM2505.32,1400.96c0-14.74-11.93-26.62-26.72-26.62s-26.67,11.88-26.67,26.62,11.87,26.72,26.67,26.72,26.72-11.93,26.72-26.72Z"/>
</svg>