<?xml version="1.0" encoding="UTF-8"?>
<svg id="Camada_1" xmlns="http://www.w3.org/2000/svg" version="1.1" xmlns:xlink="http://www.w3.org/1999/xlink" viewBox="0 0 2500 2500">
  <!-- Generator: Adobe Illustrator 29.6.0, SVG Export Plug-In . SVG Version: 2.1.1 Build 207)  -->
  <defs>
    <style>
      .st0 {
        fill: #fff;
      }

      .st1 {
        fill: none;
      }

      .st2 {
        fill: #1089ff;
      }

      .st3 {
        fill: #8087a0;
      }

      .st4 {
        clip-path: url(#clippath);
      }
    </style>
    <clipPath id="clippath">
      <rect class="st1" x="1829.27" y="1251.16" width="670.73" height="203.25"/>
    </clipPath>
  </defs>
  <path class="st0" d="M214.09,1437.23h152.21v106.26H0l170.49-254.82H23.24v-106.26h359.78l-168.92,254.82Z"/>
  <path class="st2" d="M125.02,1698.32h132.89l-27.67-111.48h-77.8l-27.41,111.48Z"/>
  <path class="st2" d="M257.92,1027.59H125.03l27.41,111.75h77.8l27.67-111.75Z"/>
  <path class="st0" d="M592.65,1460.46c30.03,0,55.87-11.75,70.49-27.94l87.99,50.65c-36.03,49.87-90.34,75.72-160.05,75.72-125.58,0-203.39-84.33-203.39-193.73s79.37-193.99,195.29-193.99c107.05,0,186.42,83.03,186.42,193.73,0,15.4-1.57,30.03-4.44,44.12h-260.56c14.1,38.12,47.78,51.43,88.25,51.43ZM660.27,1326.79c-11.75-42.56-44.65-57.96-77.8-57.96-41.77,0-69.71,20.63-79.89,57.96h157.7Z"/>
  <path class="st0" d="M1352.99,1323.13v225.32h-110.18v-215.66c0-36.81-17.49-60.05-52.74-60.05s-57.18,25.59-57.18,68.93v207.04h-110.18v-215.66c0-36.81-17.49-60.05-52.74-60.05s-57.18,25.59-57.18,68.93v207.04h-110.18v-367.35h110.18v33.68c16.71-25.07,49.08-44.12,98.17-44.12,43.34,0,75.71,17.49,96.08,48.56,20.63-29.24,54.31-48.56,106.52-48.56,84.33,0,139.42,60.31,139.42,151.95Z"/>
  <path class="st0" d="M1582.47,1559.72c-107.83,0-195.56-87.46-195.56-195.56s87.46-195.55,195.56-195.55,195.56,87.46,195.56,195.55-87.48,195.56-195.56,195.56ZM1666.01,1364.42c0-45.95-37.33-83.29-83.28-83.29s-83.29,37.34-83.29,83.29,37.33,83.29,83.29,83.29,83.28-37.33,83.28-83.29Z"/>
  <g class="st4">
    <g>
      <path class="st3" d="M1872.54,1319.19c26.92-17.81,52.86-16.98,76.96.85,26.3,19.45,34.13,47.31,27.17,78.53-6.54,29.29-24.97,48.4-54.84,54.43-16.57,3.35-32.49.85-46.36-9.89-.84-.64-1.79-1.14-3.84-2.42.42,3.88.75,6.72,1.14,10.12h-43.47c-.03-66.36-.03-132.77-.03-199.66h43.27v68.03ZM1872.74,1379.92c0,3.53.41,7.12-.08,10.6-1.33,10.07,4.34,15.71,12.2,19.8,8.59,4.49,17.81,5.08,26.97,2.39,18.22-5.34,27.17-24.85,20.76-44.46-5.66-17.3-24.68-25.96-43.15-19.69-12.1,4.12-16.71,10.58-16.71,23.39v7.97Z"/>
      <path class="st3" d="M2108.77,1451.25c.3-3.35.53-5.93.76-8.48-.62-.24-1.14-.61-1.34-.48-35.64,21.74-76.6,10.71-96.76-26.1-25.91-47.31,5.47-105.56,58.98-109.41,14.19-1.01,26.99,2.82,39.01,13.1-.2-4.04-.36-6.7-.58-10.66h14.79c7.94,0,15.88.13,23.82-.05,3.76-.08,5.63.82,5.6,5.13-.09,44.06-.02,88.1-.2,132.16,0,1.59-1.89,4.54-2.96,4.57-13.6.32-27.22.21-41.12.21ZM2108.73,1380.66c0-5.53.2-11.05-.11-16.56-.14-2.23-.9-4.86-2.31-6.56-15.1-18.13-48.17-13-56.87,8.72-5.85,14.54-1.78,32.18,9.47,41.11,11.06,8.77,29.79,9.01,42.16.66,5.3-3.56,8.61-7.84,7.75-14.78-.5-4.15-.08-8.4-.09-12.6Z"/>
      <path class="st3" d="M2500.01,1451.3c-17.89,0-33.68.16-49.45-.19-2.09-.05-4.52-2.39-6.15-4.28-14.44-16.72-28.76-33.57-43.13-50.33-1.37-1.6-2.9-3.06-5.79-6.11v21.45c0,11.29-.16,22.59.08,33.86.08,4.33-1.37,5.79-5.69,5.71-11-.24-22.04-.21-33.04-.03-3.95.08-5.62-1.14-5.43-5.29.27-5.98.05-11.96.05-17.94v-177.02h43.69v116.22c.53.24,1.08.45,1.61.69,1.51-1.67,3.1-3.29,4.51-5.05,13.09-16.4,26.03-32.95,39.42-49.11,2.01-2.45,6.05-4.39,9.27-4.47,14.29-.48,28.62-.21,45.28-.21-19.76,23.63-38.43,45.95-57.62,68.91,20.4,24,40.7,47.76,62.39,73.19Z"/>
      <path class="st3" d="M2318.26,1450.99h-43.11c-.14-2.66-.33-5.02-.33-7.36-.02-24.13.03-48.26-.05-72.39-.05-12.68-5.02-20.7-14.33-23.63-10.86-3.4-22.79.34-29.22,9.97-2.04,3.06-3.2,7.31-3.26,11.03-.28,24.8-.12,49.59-.12,74.39v7.79h-43.58v-141.01h43.5c-.14,3.19-.27,5.98-.45,9.97,12.2-10.58,25.72-14.11,40.54-12.86,27.86,2.34,48.01,20.3,49.98,49.25,2.06,31.25.44,62.74.44,94.88Z"/>
    </g>
  </g>
</svg>