<?xml version="1.0" encoding="UTF-8" standalone="no"?>
<!-- Created with Inkscape (http://www.inkscape.org/) -->

<svg
   version="1.1"
   id="svg2"
   width="2500"
   height="2500"
   viewBox="0 0 2500 2500"
   sodipodi:docname="credsis-nome.svg"
   inkscape:version="1.2.2 (732a01da63, 2022-12-09)"
   xmlns:inkscape="http://www.inkscape.org/namespaces/inkscape"
   xmlns:sodipodi="http://sodipodi.sourceforge.net/DTD/sodipodi-0.dtd"
   xmlns="http://www.w3.org/2000/svg"
   xmlns:svg="http://www.w3.org/2000/svg">
  <defs
     id="defs6" />
  <sodipodi:namedview
     id="namedview4"
     pagecolor="#ffffff"
     bordercolor="#000000"
     borderopacity="0.25"
     inkscape:showpageshadow="2"
     inkscape:pageopacity="0.0"
     inkscape:pagecheckerboard="0"
     inkscape:deskcolor="#d1d1d1"
     showgrid="false"
     inkscape:zoom="0.15334544"
     inkscape:cx="841.23792"
     inkscape:cy="1369.4571"
     inkscape:window-width="1920"
     inkscape:window-height="1009"
     inkscape:window-x="-8"
     inkscape:window-y="-8"
     inkscape:window-maximized="1"
     inkscape:current-layer="g8" />
  <g
     id="g8"
     inkscape:groupmode="layer"
     inkscape:label="ink_ext_XXXXXX"
     transform="matrix(1.3333333,0,0,-1.3333333,0,136)">
    <g
       id="g10"
       transform="matrix(0.64786249,0,0,0.64786249,6.6364513,-1082.2231)">
      <path
         d="M 508.785,1015.85 752.137,769.777 c -174.219,57.606 -337.149,55.953 -489.742,0 l 246.39,246.073"
         style="fill:#fbc707;fill-opacity:1;fill-rule:evenodd;stroke:none"
         id="path12" />
      <path
         d="M 0.511719,507.996 130.578,380.41 C 287.023,548.137 547.082,698.457 933.641,591.316 L 832.242,694.738 C 454.086,819.035 200.172,713.66 0.511719,507.996 Z M 176.207,332.758 328.305,180.66 c 156.843,173.832 359.574,280.125 623.586,267.688 l 61.849,59.824 C 700.063,637.961 398.625,556.164 176.207,332.758 Z M 373.926,136.047 507.766,0.148438 890.027,385.484 C 707.859,368.785 531.742,312.41 373.926,136.047"
         style="fill:#00a650;fill-opacity:1;fill-rule:evenodd;stroke:none"
         id="path14" />
      <g
         id="g16"
         transform="scale(10)">
        <text
           xml:space="preserve"
           transform="matrix(0.916037,0,0,-1,107.697,35.468)"
           style="font-variant:normal;font-weight:normal;font-size:44.993px;font-family:Humanist521BT;-inkscape-font-specification:Humanist521BT-Roman;writing-mode:lr-tb;fill:#00a650;fill-opacity:1;fill-rule:nonzero;stroke:none"
           id="text24"><tspan
             sodipodi:role="line"
             id="tspan22"
             x="0"
             y="0">CrediSIS</tspan></text>
      </g>
    </g>
  </g>
</svg>
