<?xml version="1.0" encoding="UTF-8" standalone="no"?>
<svg
   width="2500"
   height="2500"
   viewBox="0 0 192.756 192.756"
   version="1.1"
   id="svg10"
   sodipodi:docname="banco-do-brasil-sem-fundo.svg"
   inkscape:version="1.2.2 (732a01da63, 2022-12-09)"
   xmlns:inkscape="http://www.inkscape.org/namespaces/inkscape"
   xmlns:sodipodi="http://sodipodi.sourceforge.net/DTD/sodipodi-0.dtd"
   xmlns="http://www.w3.org/2000/svg"
   xmlns:svg="http://www.w3.org/2000/svg">
  <defs
     id="defs14" />
  <sodipodi:namedview
     id="namedview12"
     pagecolor="#505050"
     bordercolor="#eeeeee"
     borderopacity="1"
     inkscape:showpageshadow="0"
     inkscape:pageopacity="0"
     inkscape:pagecheckerboard="0"
     inkscape:deskcolor="#505050"
     showgrid="false"
     inkscape:zoom="0.2168"
     inkscape:cx="1250"
     inkscape:cy="1250"
     inkscape:window-width="1920"
     inkscape:window-height="1009"
     inkscape:window-x="-8"
     inkscape:window-y="-8"
     inkscape:window-maximized="1"
     inkscape:current-layer="svg10" />
  <g
     fill-rule="evenodd"
     clip-rule="evenodd"
     id="g8">
    <path
       fill="#33348e"
       d="M96.396 16.925l-78.85 52.85 32.819 21.311L89.577 64.66 74.023 54.443l21.305-14.274 46.231 30.679-75.845 50.918 16.405 10.865 94.379-62.848-.213-.213-79.889-52.645zM175.027 16.947l-32.808 21.731 16.404 11.078 16.404-11.078V16.947zM17.005 175.832l32.809-21.73-16.404-11.079-16.405 11.079v21.73z"
       id="path4" />
    <path
       fill="#33348e"
       d="M96.36 175.787l78.849-52.851-32.818-21.311-39.211 26.426 15.552 10.217-21.304 14.275-46.231-30.68 75.844-50.917-16.404-10.866-94.38 62.848.213.215 79.89 52.644z"
       id="path6" />
  </g>
</svg>
