<?xml version="1.0" encoding="UTF-8" standalone="no"?>
<svg
   width="2500"
   height="2500"
   version="1.1"
   id="svg6"
   sodipodi:docname="bankofamerica-logo.svg"
   xml:space="preserve"
   inkscape:version="1.2.2 (732a01da63, 2022-12-09)"
   xmlns:inkscape="http://www.inkscape.org/namespaces/inkscape"
   xmlns:sodipodi="http://sodipodi.sourceforge.net/DTD/sodipodi-0.dtd"
   xmlns="http://www.w3.org/2000/svg"
   xmlns:svg="http://www.w3.org/2000/svg"><defs
     id="defs10" /><sodipodi:namedview
     id="namedview8"
     pagecolor="#505050"
     bordercolor="#eeeeee"
     borderopacity="1"
     inkscape:showpageshadow="0"
     inkscape:pageopacity="0"
     inkscape:pagecheckerboard="0"
     inkscape:deskcolor="#505050"
     showgrid="false"
     inkscape:zoom="0.18713471"
     inkscape:cx="2142.8414"
     inkscape:cy="1683.2794"
     inkscape:window-width="1920"
     inkscape:window-height="1009"
     inkscape:window-x="-8"
     inkscape:window-y="-8"
     inkscape:window-maximized="1"
     inkscape:current-layer="svg6" /><path
     d="m 969.1091,483.10032 218.139,92.77888 C 959.06322,668.65812 735.9207,778.96872 525.26764,904.40642 455.45076,866.78292 379.8158,831.68052 307.12866,799.09932 520.2641,678.74272 740.92424,570.91445 969.1091,483.1779 M 695.85356,387.37361 A 3753.0455,3753.0455 0 0 0 11.337793,680.79842 c 67.683592,25.0565 137.927137,52.673 205.571937,80.2895 C 427.524,638.21012 650.70531,532.90303 881.33376,450.17002 821.13609,427.5959 758.45604,407.50415 695.77599,387.48998"
     fill="#3366cc"
     id="path2"
     style="stroke-width:38.7872" /><path
     d="M 1468.1059,475.18774 C 1280.0658,384.93002 1086.9833,309.68293 886.37609,247.00288 c -69.81689,20.05297 -140.40952,42.66588 -208.1319,65.16243 205.57194,60.19767 406.21791,137.92714 599.26161,230.66724 60.1977,-22.57413 125.3601,-47.63064 190.5613,-67.6836 m 303.432,-93.08918 C 1580.9377,299.32676 1382.8517,229.122 1179.7234,173.92788 a 2318.3085,2318.3085 0 0 0 -190.56134,45.14825 c 200.60724,57.67651 396.17204,132.88481 584.25094,221.08681 65.1625,-20.05296 132.8848,-40.10593 198.0861,-57.67651 M 2262.9324,547.487 c -481.4263,160.88912 -930.1937,391.59512 -1336.45039,682.4601 100.30359,62.68 200.60719,127.8812 298.38959,198.086 383.6438,-303.3932 809.9147,-559.19448 1268.7668,-749.75578 -77.7295,-47.6307 -152.9378,-90.2577 -230.6673,-130.40244 M 1932.0003,389.93357 c -498.9968,132.8848 -967.89475,345.98145 -1391.68324,626.87803 95.30005,47.6306 188.04014,97.7436 280.81903,150.4942 C 1234.9175,881.44442 1696.252,658.22432 2187.7241,510.25133 A 5870.0486,5870.0486 0 0 0 1931.9615,389.89478"
     fill="#e2173e"
     id="path4"
     style="stroke-width:38.7872" /><g
     id="g3412"
     transform="matrix(28.094929,0,0,28.094929,-14.484052,1088.1533)"><g
       fill="#3366cc"
       id="g3396"><path
         d="m 33.936,30.17 c 1.98,0 2.97,1.47 2.97,3.422 0,2.036 -0.933,3.45 -2.97,3.45 -2.008,0 -2.97,-1.414 -2.97,-3.45 0,-1.98 1,-3.422 2.97,-3.422 m 0,5.544 c 0.537,0 0.764,-0.48 0.764,-2.12 0,-1.527 -0.17,-2.093 -0.764,-2.093 -0.594,0 -0.764,0.566 -0.764,2.093 0,1.64 0.226,2.12 0.764,2.12 m 4.328,-3.876 h -0.85 v -1.5 h 0.85 v -0.735 c 0,-1.612 0.792,-2.206 2.206,-2.206 0.424,0 0.735,0.057 1.075,0.085 v 1.612 a 1.91,1.91 0 0 0 -0.396,-0.057 c -0.566,0 -0.764,0.226 -0.764,0.622 v 0.68 h 1.16 v 1.5 h -1.16 v 5.06 h -2.12 m -24.72,-4.75 c 0,-0.396 -0.198,-0.65 -0.566,-0.65 -0.5,0 -0.68,0.48 -0.68,0.877 l -1.838,-0.368 c 0.226,-1.3 1.414,-1.8 2.602,-1.8 1.273,0 2.602,0.537 2.602,2.008 v 3.677 c 0,0.764 0.113,0.962 0.198,1.075 h -2.178 c -0.028,-0.17 -0.057,-0.48 -0.057,-0.594 -0.396,0.3 -1.018,0.68 -1.64,0.68 -1.047,0 -1.867,-0.707 -1.8,-1.923 0.028,-1.697 1.98,-2.206 3.394,-2.376 m -0.028,1.018 c -0.735,0.085 -1.3,0.368 -1.3,1.188 0,0.453 0.226,0.707 0.622,0.707 0.255,0 0.5,-0.17 0.68,-0.396 z m 5.45,-1.568 V 36.9 h -2.12 v -6.56 h 2.065 v 0.68 h 0.028 c 0.453,-0.453 1.018,-0.82 1.867,-0.82 0.933,0 1.47,0.622 1.47,1.527 v 5.204 H 20.2 v -4.525 c 0,-0.368 -0.14,-0.594 -0.48,-0.594 -0.255,0 -0.5,0.14 -0.707,0.396"
         id="path3388" /><path
         d="m 23.613,27.596 h 2.12 v 4.723 h 0.057 l 1.556,-1.98 h 2.093 l -1.782,2.008 1.8,4.554 H 27.26 l -1.047,-2.857 h -0.028 l -0.453,0.5 V 36.9 h -2.12 M 7.887,32.065 c 1.018,0.34 1.754,1.16 1.754,2.348 0,1.584 -1.273,2.5 -3.055,2.5 H 2.994 V 27.608 H 6.67 c 1.64,0 2.744,1 2.744,2.263 0,1.216 -0.85,1.867 -1.527,2.12 m -2.602,3.196 h 0.877 c 0.5,0 1.188,-0.226 1.188,-1.188 0,-0.68 -0.424,-1.16 -1.188,-1.16 H 5.285 Z m 0,-3.903 h 0.792 c 0.85,0 1.188,-0.453 1.188,-1.018 0,-0.877 -0.594,-1.018 -1.13,-1.018 h -0.85 z m 79.223,0.866 c 0,-0.396 -0.17,-0.65 -0.537,-0.65 -0.5,0 -0.68,0.48 -0.707,0.877 l -1.838,-0.368 c 0.226,-1.3 1.414,-1.8 2.63,-1.8 1.273,0 2.602,0.537 2.602,2.008 v 3.677 c 0,0.764 0.113,0.962 0.198,1.075 h -2.178 c -0.028,-0.17 -0.057,-0.48 -0.057,-0.594 -0.368,0.396 -1,0.735 -1.612,0.735 -1.047,0 -1.867,-0.707 -1.838,-1.923 0.057,-1.697 1.98,-2.206 3.366,-2.376 m -0.028,0.962 c -0.735,0.085 -1.3,0.368 -1.3,1.188 0,0.453 0.226,0.707 0.622,0.707 0.255,0 0.5,-0.17 0.68,-0.396 z m -21.8,0.3 c -0.028,0.594 0.113,1.556 1,1.556 0.5,0 0.933,-0.368 1.047,-0.905 l 1.414,0.5 c -0.085,0.3 -0.735,1.782 -2.63,1.782 -2.036,0 -2.942,-1.64 -2.942,-3.45 0,-1.867 0.962,-3.422 2.913,-3.422 2.036,0 2.744,1.754 2.744,3.48 v 0.453 m -1.96,-1.277 c 0.028,-0.594 -0.057,-1.3 -0.792,-1.3 -0.594,0 -0.82,0.707 -0.792,1.3 z m 7.683,-2.45 h 2.12 v 6.56 h -2.12 z m 0,-2.744 h 2.12 v 1.895 h -2.12 z"
         id="path3390" /><path
         d="m 78.795,32.772 c 0,-0.255 0,-0.566 -0.113,-0.82 -0.113,-0.254 -0.283,-0.453 -0.622,-0.453 -0.707,0 -0.792,0.85 -0.792,2.178 0,1.47 0.226,1.98 0.792,1.98 0.735,0 0.82,-0.764 0.82,-1.244 l 1.64,0.226 c -0.17,1.612 -1.075,2.432 -2.63,2.432 -1.923,0 -2.913,-1.67 -2.913,-3.28 0,-1.782 1,-3.592 2.998,-3.592 2.263,0 2.602,1.952 2.602,2.602 M 45.222,27.596 h 3.083 l 1.98,9.305 h -2.3 L 47.617,35.006 H 45.45 l -0.396,1.895 h -2.036 m 2.8,-3.535 h 1.5 l -0.68,-3.8 h -0.057 z"
         id="path3392" /><path
         d="m 67.142,30.34 h 2.065 l 0.028,0.877 h 0.028 c 0.424,-0.707 1.216,-1.047 2.036,-1.047 v 2.15 c -0.226,-0.085 -0.48,-0.17 -0.877,-0.17 -0.537,0 -0.905,0.198 -1.16,0.5 v 4.24 h -2.12 M 56.365,32.196 V 36.9 h -2.093 v -4.497 c 0,-0.368 -0.113,-0.594 -0.5,-0.594 -0.226,0 -0.537,0.17 -0.707,0.396 V 36.9 h -2.093 v -6.56 h 2.065 v 0.68 h 0.028 c 0.453,-0.424 1.103,-0.82 1.895,-0.82 0.570932,-0.01911 1.087443,0.336725 1.273,0.877 h 0.028 c 0.368,-0.396 1.018,-0.877 1.895,-0.877 0.877,0 1.47,0.594 1.47,1.5 v 5.233 H 57.58 v -4.525 c 0,-0.368 -0.113,-0.594 -0.5,-0.594 -0.255,0 -0.566,0.226 -0.707,0.396 m 32.622,-3.596 2.32,0.905"
         id="path3394"
         sodipodi:nodetypes="ccccccsccccccssccccccccccssccssccc" /></g></g></svg>
