<?xml version="1.0" encoding="UTF-8"?>
<svg id="Camada_1" xmlns="http://www.w3.org/2000/svg" version="1.1" viewBox="0 0 2500 2500">
  <!-- Generator: Adobe Illustrator 29.6.0, SVG Export Plug-In . SVG Version: 2.1.1 Build 207)  -->
  <defs>
    <style>
      .st0 {
        fill-rule: evenodd;
      }

      .st0, .st1 {
        fill: #fdfdfd;
      }
    </style>
  </defs>
  <path class="st0" d="M96.93,1323.15H0l54.28-270.19h96.93l-54.28,270.19ZM159.71,1010.57H62.77l15.59-77.81h97.04l-15.7,77.81Z"/>
  <path class="st0" d="M135.04,1399.05h97.04l58.83-292.21h70.8l11.15-53.84h-71.52l2.4-12.4c4.55-23,11.97-49.88,48.54-49.88,21.69,0,42.41,2.41,62.66,10.96l11.04-56.84c-22.05-7.96-46.36-11.93-69.84-11.93-78.01,0-131.67,46.85-151.46,120.23h-33.66l-10.54,53.84h33.19l-58.88,292.19.25-.11Z"/>
  <path class="st0" d="M440.52,1328.59c114.07,0,193.26-104.55,193.26-189.96,0-62.17-58.58-89.38-114.18-89.38-125.22,0-193.26,112.51-193.26,189.96,0,62.17,59.08,89.38,114.18,89.38Z"/>
  <path class="st0" d="M745.29,1328.59c114.07,0,193.15-104.55,193.15-189.96,0-62.17-58.61-89.38-114.18-89.38-125.08,0-193.15,112.51-193.15,189.96-.03,62.17,59.16,89.38,114.18,89.38Z"/>
  <path class="st0" d="M1096.55,1322.6h96.11l77.29-384.26h-96.82l-23.01,114.18c-12.58-2.52-25.63-4.47-39.04-4.47-94.78,0-180.93,122.03-180.93,209.46,0,35.9,23.01,71.32,62.17,71.32,55.6,0,94.07-27.57,110.1-53.48h5.99l-11.87,47.32v-.08h.03Z"/>
  <path class="st0" d="M797.77,1526.54c-70.45,60.95-164.73,92.26-267.07,85.88-129.03-8.07-218.67-109.74-236.64-212.85h6.1c29,65.88,99.69,126.61,188.46,136.59,86.62,9.76,192.79-30.13,251.01-86.85l-65.42-50.24,193.98.61-41.69,208.74-28.89-81.92h.17v.03Z"/>
  <path class="st1" d="M2348.77,1257.63c18.96,0,35.24-6.77,48.82-20.33,13.96-13.57,22.93-31.82,26.92-54.76,3.95-22.58,1.33-40.83-7.81-54.73-9.16-13.9-23.03-20.86-41.63-20.86s-35.07,6.93-49.45,20.86c-13.93,13.57-22.87,31.46-26.73,53.71-4.01,22.94-1.43,41.36,7.72,55.26,9.5,13.9,23.57,20.86,42.16,20.86ZM2337.41,1322.79c-26.69,0-49.35-5.91-67.99-17.73-18.65-11.82-31.75-28.32-39.28-49.51-7.47-21.55-8.8-46.05-4.02-73.51,4.6-26.41,14.38-50.21,29.3-71.43,15.34-21.55,34.44-38.42,57.25-50.57,22.86-12.18,47.41-18.25,73.73-18.25s49.17,5.91,67.47,17.73c18.65,11.82,31.7,28.49,39.19,50.04,7.53,21.19,8.93,45.36,4.19,72.49-4.66,26.77-14.67,50.93-30.01,72.49-14.93,21.19-33.8,37.89-56.66,50.04-22.46,12.15-46.85,18.22-73.17,18.22ZM2047.84,1380.68c19.32,0,34.94-3.13,46.91-9.38,12.34-6.27,19.35-14.26,21.04-24,1.82-10.43-6.12-17.2-23.85-20.33l-90.89-16.17c-7.37,10.07-11.79,19.31-13.25,27.63-2.28,13.2,2.04,23.47,13.09,30.76,10.95,7.66,26.6,11.48,46.95,11.48ZM2077.69,1176.3c15.1,0,27.87-3.83,38.33-11.48,10.83-7.66,17.28-17.56,19.41-29.71,2.07-11.82-1.02-21.36-9.22-28.68-7.78-7.66-19.23-11.48-34.33-11.48s-27.5,3.83-38.33,11.48c-10.4,7.3-16.63,16.87-18.7,28.68-2.13,12.18.71,22.08,8.49,29.71,8.17,7.66,19.62,11.48,34.35,11.48ZM2035.84,1434.36c-25.64,0-47.57-4-65.84-11.98-18.31-7.66-31.67-18.59-40.06-32.84-8.03-14.26-10.46-30.6-7.23-49.02,2.01-11.49,6.15-23.11,12.43-34.92,6.61-11.82,15.34-24.5,26.12-38.06l41.75-52.15c-14.67-8.35-25.55-19.47-32.62-33.37-6.7-13.9-8.52-29.54-5.49-46.94,3.09-17.72,10.99-33.7,23.65-47.96,13.02-14.26,29.35-25.38,49.01-33.37,19.65-7.99,40.89-11.98,63.68-11.98,12.63,0,23.83,1.22,33.58,3.66,11.2-13.9,22.77-25.88,34.7-35.98,11.95-10.07,24.97-18.42,39.13-25.02,2.23-.69,3.7-1.05,4.39-1.05,2.1,0,3.8,1.39,5.07,4.19l16.17,40.14c.52,1.03.64,2.41.33,4.16-.36,2.08-2.28,3.99-5.74,5.74-20.28,7.63-36.8,16.87-49.59,27.63,10.77,8.68,18.45,19.11,22.99,31.29,4.62,11.82,5.71,24.69,3.28,38.59-3.14,18.09-11.26,34.43-24.33,49.02-12.66,14.26-28.86,25.55-48.57,33.9-19.65,7.99-41.05,11.98-64.2,11.98-5.64,0-9.81-.17-12.56-.53l-21.94,29.18,84.16,12.51c26.02,3.83,44.99,11.82,56.89,24,11.98,11.82,16.32,27.3,12.97,46.41-3.03,17.39-11.2,33.04-24.5,46.94-13.39,14.26-31.09,25.38-53.22,33.37-21.91,8.32-46.7,12.48-74.42,12.48ZM1770.37,1257.63c11.95,0,23.21-3.3,33.86-9.9,10.62-6.6,19.75-15.64,27.37-27.1l9.54-54.76c3.15-18.09.72-32.32-7.28-42.75-7.59-10.79-19.65-16.14-36.15-16.14-17.9,0-33.62,6.77-47.23,20.33-13.2,13.2-21.8,31.46-25.89,54.73-4.05,23.27-1.85,41.72,6.69,55.26,8.86,13.56,21.91,20.33,39.1,20.33ZM1744.26,1322.79c-21.41,0-40.09-5.55-56.07-16.67-15.53-11.46-26.73-27.8-33.58-49.02-6.82-21.19-7.75-46.05-2.78-74.57,4.96-28.49,14.39-53.34,28.28-74.57,14.23-21.19,31.29-37.53,51.21-49.02,20.25-11.48,41.24-17.2,63.02-17.2,16.49,0,30.3,3.3,41.45,9.9,11.2,6.27,19.28,15.12,24.3,26.6l3.92-22.41c.86-4.85,3.73-7.3,8.64-7.3h53.17c4.91,0,6.95,2.44,6.09,7.3l-22.93,131.38c-3.99,22.94-5.71,41.72-5.07,56.31.67,14.26,4.11,29.71,10.33,46.41l.33,4.16c-.36,2.08-2.1,4-5.22,5.74l-52.25,21.89c-1.52.69-2.83,1.03-3.88,1.03-2.46,0-4.32-1.39-5.59-4.16-6.24-12.51-10.3-26.6-12.12-42.22-11.61,14.26-25.33,25.55-41.2,33.9-15.81,8.35-32.5,12.51-50.06,12.51ZM1500.49,1130.41c22.12,0,39.9-5.38,53.36-16.14,13.82-10.79,22.32-25.38,25.55-43.8,3.15-18.09-.3-32.51-10.34-43.27-9.99-11.12-25.86-16.67-47.63-16.67h-61.09l-20.92,119.92h61.07v-.03ZM1408.29,1308.73c-.86,4.88-3.72,7.3-8.64,7.3h-61.62c-4.91,0-6.95-2.44-6.1-7.3l63.13-361.84c.86-4.88,3.72-7.3,8.64-7.3h130.05c29.82,0,54.82,5.55,75,16.67,20.16,11.12,34.5,26.6,42.99,46.41,8.48,19.81,10.52,42.41,6.07,67.77-4.41,25.38-14.32,47.96-29.72,67.77-15.38,19.81-35.28,35.29-59.67,46.41-24.07,11.12-50.83,16.67-80.33,16.67h-61.06l-18.74,107.44Z"/>
</svg>