<?xml version="1.0" encoding="UTF-8"?>
<svg id="Camada_1" xmlns="http://www.w3.org/2000/svg" version="1.1" viewBox="0 0 2500 2500">
  <!-- Generator: Adobe Illustrator 29.6.0, SVG Export Plug-In . SVG Version: 2.1.1 Build 207)  -->
  <defs>
    <style>
      .st0 {
        fill: #67666a;
      }

      .st1 {
        fill: #00dabf;
      }
    </style>
  </defs>
  <g id="Camada_11" data-name="Camada_1">
    <g id="Camada_2">
      <path class="st1" d="M2306.66,975.45c-106.75,0-193.34,86.58-193.34,193.34s0,3.51,0,5.26h0v350.28h104.56v-162.21h88.78c106.75,0,193.34-86.58,193.34-193.34s-86.58-193.34-193.34-193.34h0ZM2304.47,1251.86c-44.06,0-79.79-35.73-79.79-79.79s35.73-79.79,79.79-79.79,79.79,35.73,79.79,79.79-35.73,79.79-79.79,79.79Z"/>
      <g>
        <rect class="st0" x="1972.38" y="1008.11" width="96.45" height="100.18"/>
        <rect class="st0" x="1971.5" y="1160.46" width="97.33" height="364.09"/>
      </g>
      <path class="st0" d="M636.34,1183.91c-93.6,0-169.44,74.75-169.44,166.81s75.84,166.81,169.44,166.81,169.44-74.75,169.44-166.81-75.84-166.81-169.44-166.81h0ZM636.34,1479.18c-72.12,0-130.43-57.43-130.43-128.45s58.31-128.45,130.43-128.45,130.43,57.43,130.43,128.45-58.31,128.45-130.43,128.45h0Z"/>
      <path class="st0" d="M252.96,1069.27c57.21,0,108.94,23.02,146.43,60.06l32.44-32.44c-45.81-45.16-108.94-72.99-178.87-72.99-139.63,0-252.96,111.35-252.96,248.79s113.11,248.79,252.96,248.79,130.43-26.74,176.02-70.36l-32.44-32.44c-37.26,35.29-87.68,57.21-143.58,57.21-113.99,0-206.49-90.97-206.49-203.2s92.5-203.2,206.49-203.2h0v-.22Z"/>
      <path class="st0" d="M1394.78,1480.93c-49.32,0-54.36-46.91-54.36-46.91v-220.3h103.9v-35.07h-103.9v-76.06h-45.37v76.06h-64.23v35.07h64.23v220.3c0,46.03,40.33,89.22,99.74,89.22s69.49-30.25,69.49-30.25l-20.17-31.35s0,19.07-49.32,19.07h0v.22Z"/>
      <path class="st0" d="M1633.71,1173.61c-99.74,0-140.29,53.05-140.29,53.05l27.18,27.18c55.46-39.24,107.85-40.11,107.85-40.11,101.93,0,100.83,80.45,100.83,80.45v29.81h-112.45c-62.03,0-130.43,20.6-130.43,96.23s73.65,102.81,139.19,102.81,103.9-54.8,103.9-54.8v49.32h45.37v-223.59c0-64.88-41.43-120.56-141.17-120.56h0v.22ZM1729.5,1413.63c-25.21,63.79-86.8,68.17-101.93,68.17s-95.79,6.14-95.79-59.4,85.05-63.35,85.05-63.35h112.45v54.58h.22Z"/>
      <path class="st0" d="M1051.29,1175.36c-102.37,0-124.51,63.57-124.51,63.57v-59.4h-45.37v338.23h45.37v-199.69c0-23.67,32.22-104.12,116.4-104.12s102.37,88.56,102.37,88.56v215.26h45.37v-215.26c0-51.95-37.26-127.14-139.63-127.14h0Z"/>
    </g>
  </g>
</svg>