<?xml version="1.0" encoding="UTF-8"?>
<svg id="Camada_1" xmlns="http://www.w3.org/2000/svg" version="1.1" viewBox="0 0 2500 2500">
  <!-- Generator: Adobe Illustrator 29.6.0, SVG Export Plug-In . SVG Version: 2.1.1 Build 207)  -->
  <defs>
    <style>
      .st0 {
        fill: #fff;
      }

      .st1 {
        fill: #00dabf;
      }
    </style>
  </defs>
  <g id="Camada_11" data-name="Camada_1">
    <g>
      <polygon class="st0" points="1198.24 1365.03 1199.21 1365.03 1199.21 1364.06 1199.21 1227.98 1199.21 1227.01 1198.24 1227.01 1185.6 1227.01 1184.88 1227.01 1184.88 1227.98 1184.88 1364.06 1184.88 1365.03 1185.6 1365.03 1198.24 1365.03"/>
      <path class="st0" d="M1307.11,1288c2.43,4.86,3.65,10.94,3.89,17.98v59.05h13.85v-58.81c0-.97,1.22-15.07-5.1-26.49-3.4-6.32-7.53-10.94-12.39-14.09-5.59-3.4-12.39-5.35-20.9-5.59h-1.22c-17.01,0-27.22,10.21-29.16,12.39-1.46,1.46-2.67,3.16-3.89,4.86v-15.8h-13.61v103.76h14.34v-57.35c0-2.43.49-15.55,8.26-23.57,7.78-8.02,16.28-9.72,22.11-9.72s.49,0,.97,0h.49c1.94,0,8.51.24,14.58,4.37,3.4,2.43,6.32,5.59,8.26,9.48l-.49-.49ZM1284.99,1261.03h1.22-1.46.24Z"/>
      <path class="st0" d="M2062.35,1466.36c-5.35-3.4-11.91-5.1-20.41-5.35h-1.22c-17.74,0-28.19,10.94-29.4,12.15-2.43,2.67-4.37,5.35-6.08,8.02,0-.24-.24-.49-.49-.97-3.4-6.56-7.29-10.94-11.91-13.85-5.35-3.4-11.91-5.1-20.41-5.35h-1.22c-7.05,0-13.61,1.7-19.2,5.1-4.62,2.67-7.29,5.83-8.51,7.05h0c-1.46,1.7-2.67,3.16-3.89,4.86v-15.8h-13.61v103.76h14.34v-57.35c0-2.43.49-15.55,8.26-23.57,7.78-8.02,16.28-9.72,22.11-9.72s.49,0,.97,0h.49c1.7,0,7.53.24,13.12,4.37,3.16,2.43,5.59,5.59,7.53,9.48,2.19,4.86,3.4,10.94,3.4,17.98v58.81h13.85v-50.79h0v-6.08s0-15.07,8.26-24.06c5.83-6.56,12.88-9.72,21.63-9.72s.73,0,1.22,0h.49c2.19,0,9.72.49,15.8,6.56,5.35,5.59,8.26,13.85,8.02,25.27v.97h0v58.08h13.85v-58.81c0-1.22.97-16.04-4.62-26.73-3.4-6.56-7.29-10.94-11.91-13.85l-.49-.49ZM1970.74,1461.74h1.22-1.46.24ZM2040.48,1461.74h1.22-1.46.24ZM2066,1506.94h0ZM2078.15,1503.78v1.22-1.22Z"/>
      <path class="st0" d="M2292.23,1466.36c-5.59-3.4-12.39-5.35-20.9-5.59h-1.22c-17.01,0-27.22,10.21-29.16,12.39-1.46,1.46-2.67,3.16-3.89,4.86v-15.8h-13.61v103.76h14.34v-57.35c0-2.43.49-15.55,8.26-23.57s16.28-9.72,22.11-9.72.49,0,.97,0h.49c1.94,0,8.51.24,14.58,4.37,3.4,2.43,6.32,5.59,8.26,9.48,2.43,4.86,3.65,10.94,3.89,17.98v58.81h13.85v-58.81c0-.97,1.22-15.07-5.1-26.49-3.4-6.32-7.53-10.94-12.39-14.09l-.49-.24ZM2269.88,1461.74h1.22-1.46.24Z"/>
      <path class="st0" d="M1715.83,1353.61c1.46-1.46,2.67-3.16,3.89-4.86v15.8h13.61v-103.76h-14.34v57.35c0,2.43-.49,15.55-8.26,23.57-7.78,8.02-16.28,9.72-22.11,9.72s-.49,0-.97,0h-.49c-1.94,0-8.51-.24-14.58-4.37-3.4-2.43-6.32-5.59-8.26-9.48-2.43-4.86-3.65-10.94-3.89-17.98v-59.05h-13.85v58.81c0,.97-.73,15.07,5.35,26.49,3.16,6.08,7.53,10.94,12.88,14.09,5.59,3.4,12.39,5.35,20.17,5.35h.97c17.5,0,27.7-10.21,29.65-12.39l.24.73ZM1686.19,1365.03h-.97,1.22-.49.24Z"/>
      <path class="st0" d="M1493.73,1362.36c3.4-1.94,5.1-3.65,5.1-3.89l.49-.49v-.49c-.24,0-4.86-9.72-4.86-9.72l-.49-1.22-.97.73c-5.59,4.86-11.91,4.86-11.91,4.86h-.97c-4.62,0-8.26-1.46-10.69-4.13-4.62-4.86-4.37-12.88-4.37-12.88h0v-60.99h27.95v-12.88h-27.95v-22.84h-14.09v22.84h-16.52v12.88h16.52v60.99c0,15.07,6.08,21.87,8.02,23.57h0c6.08,5.83,14.09,7.05,19.68,7.05s9.48-.73,14.82-3.89l.24.49Z"/>
      <path class="st0" d="M1584.13,1358.96h0c6.08,5.83,14.09,7.05,19.68,7.05s9.48-.73,14.82-3.89c3.4-1.94,5.1-3.65,5.1-3.89l.49-.49v-.49c-.24,0-4.86-9.72-4.86-9.72l-.49-1.22-.97.73c-5.59,4.86-11.91,4.86-11.91,4.86h-.97c-4.62,0-8.26-1.46-10.69-4.13-4.62-4.86-4.37-12.88-4.37-12.88h0v-60.99h27.95v-12.88h-27.95v-22.84h-14.09v22.84h-16.52v12.88h16.52v60.99c0,15.07,6.08,21.87,8.02,23.57l.24.49Z"/>
      <path class="st0" d="M2390.65,1548.25l-.49-1.22-.97.73c-5.59,4.62-11.91,4.86-11.91,4.86h-.97c-4.62,0-8.26-1.46-10.69-4.13-4.86-5.1-4.37-12.88-4.37-12.88h0v-60.99h27.95v-12.88h-27.95v-22.84h-14.09v22.84h-16.52v12.88h16.52v60.99c0,15.07,6.08,21.87,8.02,23.57h0c6.08,5.83,14.09,7.05,19.68,7.05s9.48-.73,14.82-3.89c3.4-1.94,5.1-3.65,5.1-3.89l.49-.49v-.49c-.24,0-4.86-9.72-4.86-9.72l.24.49Z"/>
      <polygon class="st0" points="1524.35 1261.51 1523.38 1261.51 1523.38 1262.48 1523.38 1364.06 1523.38 1365.03 1524.35 1365.03 1536.5 1365.03 1537.47 1365.03 1537.47 1364.06 1537.47 1262.48 1537.47 1261.51 1536.5 1261.51 1524.35 1261.51"/>
      <ellipse class="st0" cx="1530.18" cy="1229.68" rx="9.96" ry="10.69"/>
      <polygon class="st0" points="1770.75 1261.51 1769.78 1261.51 1769.78 1262.48 1769.78 1364.06 1769.78 1365.03 1770.75 1365.03 1782.9 1365.03 1783.87 1365.03 1783.87 1364.06 1783.87 1262.48 1783.87 1261.51 1782.9 1261.51 1770.75 1261.51"/>
      <ellipse class="st0" cx="1776.58" cy="1229.68" rx="9.96" ry="10.69"/>
      <path class="st0" d="M1390.7,1306.95c-11.66-2.67-22.84-5.1-25.27-12.64,0,0-2.19-7.05,1.94-12.88,3.16-4.62,9.48-7.05,18.71-7.53h.73c2.92,0,18.23.49,27.7,8.75l.97.73.49-1.22,5.59-11.18v-.73c.24,0-.24-.49-.24-.49,0,0-3.16-2.43-8.99-4.86-5.35-2.19-13.85-4.86-25.27-4.86s-17.25,2.19-23.81,6.8c-5.35,3.65-7.78,7.78-8.26,8.02-2.67,4.62-4.13,9.23-4.13,13.61h0c0,6.8,0,12.88,6.08,19.68,6.08,6.56,14.58,9.23,25.76,11.42h1.22c9.72,1.94,20.9,4.13,24.3,9.23,1.94,2.67,2.19,5.83,2.19,8.26,0,2.67-.49,4.62-.73,5.1h0c-3.16,6.08-9.48,9.48-17.74,9.72h-2.92c-11.91,0-20.66-.73-34.02-11.18l-.97-.73-.49.97-5.59,10.94v.73c-.24,0,0,.49,0,.49,0,0,3.4,3.4,9.72,6.56,5.83,2.92,15.8,6.56,29.16,6.56s19.2-2.19,25.76-6.56c3.4-2.19,6.08-5.1,7.78-8.02h0s10.21-16.04,0-31.1c-5.35-8.02-17.74-10.94-29.65-13.61h0ZM1414.75,1281.92l2.67-5.59-2.67,5.59c-.24,0-.49-.49-.73-.73.24,0,.49.49.73.73ZM1366.64,1280.95c0,.24-.49.73-.73.97,0-.24.49-.73.73-.97ZM1399.93,1351.42c-.49,0-.97.24-1.46.49.49,0,.97-.24,1.46-.49ZM1391.43,1352.88c2.43,0,4.62-.24,6.32-.73-1.94.49-3.89.73-6.32.73h-1.46,1.46ZM1386.57,1365.27c-4.37,0-8.26-.49-11.91-.97,3.65.73,7.53.97,11.91.97s9.23-.49,13.12-1.46c-3.65.97-8.02,1.46-13.12,1.46ZM1406.98,1361.39c.73-.24,1.46-.73,2.19-1.22-.73.49-1.46.73-2.19,1.22ZM1417.67,1318.86c.73.73,1.22,1.46,1.7,2.19-.49-.73-.97-1.46-1.7-2.19Z"/>
      <path class="st0" d="M1858.72,1274.39c11.18,0,20.66,5.1,26.73,14.34l.49.73.73-.49,9.23-6.8.73-.49-.49-.73c-3.89-6.56-8.75-11.66-15.07-15.07-6.56-3.65-14.09-5.59-22.6-5.59-13.37,0-25.76,5.35-34.51,15.07-8.75,9.48-13.37,22.84-13.37,37.18s.97,13.12,2.67,19.2c1.7,6.08,4.37,11.42,7.78,16.04,7.05,9.72,17.01,15.8,28.67,17.74l-3.89,15.31v1.22c-.24,0,.97,0,.97,0h3.4c3.89,0,10.69.97,10.69,8.02s-2.43,8.26-9.48,8.26-11.42-3.65-11.42-3.65l-.97-.97-.49,1.22-2.92,7.29v.73c-.24,0,.24.49.24.49,4.62,3.16,9.23,4.62,14.34,4.62s6.08-.49,8.51-1.22h.97c3.65-.73,7.29-3.4,9.48-7.29,1.7-2.92,3.65-7.53,1.94-13.85-1.22-4.62-4.13-8.26-8.75-10.45-2.19-.97-4.13-1.46-5.35-1.7l1.7-7.29c16.28-.24,28.92-7.29,36.45-20.41l.49-.73-.73-.49-9.23-6.8-.73-.49-.49.73c-6.08,9.23-15.55,14.34-26.49,14.34s-17.5-3.65-23.57-10.45c-6.32-7.05-9.72-17.01-9.72-28.43s3.4-21.14,9.72-28.43c6.08-6.8,14.34-10.45,23.57-10.45l.73-.24ZM1850.7,1406.83h0Z"/>
      <path class="st0" d="M1926.76,1244.99h9.48v-.97c0-6.56,3.4-9.48,4.37-10.21.97-.73,1.94-1.22,3.16-1.22,2.67,0,5.83,1.94,8.99,5.35,2.92,3.16,5.83,5.35,8.75,6.56,2.43.97,4.37,1.22,5.1,1.22s.49,0,.49,0c7.05-.24,12.15-4.37,14.82-11.42,1.94-5.35,1.94-10.21,1.94-10.45v-.97h-9.48v.97c.24,5.35-2.92,10.45-6.8,10.94h-.97c-3.16,0-4.62-1.46-7.29-4.13,0,0-.49-.49-.73-.73-3.65-3.4-7.29-6.8-10.45-7.78-1.46-.49-3.16-.73-4.86-.73h0c-4.37,0-8.26,1.7-11.18,5.1-2.43,2.67-4.13,6.32-4.86,10.94-.73,3.4-.73,6.08-.73,6.08v.97l.24.49ZM1966.85,1245.23h0ZM1943.53,1222.87h0Z"/>
      <path class="st0" d="M1963.94,1363.33c6.32-2.19,11.66-6.32,15.31-11.91v13.61h13.61v-65.61c0-.49.24-4.37-.49-9.48-.73-4.86-2.92-12.15-8.26-18.23-9.96-11.42-25.27-11.42-31.1-11.42h-.97c-6.8,0-23.09,2.92-35.48,14.09l-.49.49v.73c.24,0,6.08,10.45,6.08,10.45l.73,1.22.97-.97s2.92-2.92,7.78-6.08c4.62-2.67,12.39-5.83,22.36-5.83h1.22c5.35,0,23.33,1.94,23.57,26.49v5.1h-32.08c-2.19,0-22.36.49-29.65,16.28-4.13,8.99-3.16,17.25-1.46,22.84,1.94,6.08,5.35,10.94,7.78,12.88,2.67,2.19,11.18,8.75,24.54,8.75s10.69-.97,16.28-2.92l-.24-.49ZM1952.76,1261.03h.24c.24,0,0,0,0,0h-.49.24ZM1953.98,1273.18h0ZM1954.7,1353.85h1.46-1.46ZM1946.69,1306.47h0ZM1930.89,1344.86c-1.94-2.92-2.92-6.32-2.92-9.72,0-8.51,4.86-12.64,8.51-14.82.97-.73,4.86-2.67,13.85-2.67s.49,0,.49,0h27.7v15.8c-2.19,5.83-5.35,10.69-9.48,13.85-3.65,2.92-8.02,4.86-13.37,5.59-1.94.24-3.89.49-5.83.49-6.08,0-9.96-1.46-13.61-3.16-1.94-.97-4.13-2.92-5.59-5.1l.24-.24ZM1947.9,1365.27h.24-.24Z"/>
      <path class="st0" d="M1651.2,1472.44c-9.96-11.42-25.27-11.42-31.1-11.42h-.97c-6.8,0-23.09,2.92-35.48,14.09l-.49.49v.73c.24,0,6.08,10.45,6.08,10.45l.73,1.22.97-.97s2.92-2.92,7.78-6.08c4.62-2.67,12.39-5.83,22.36-5.83h1.22c5.35,0,23.33,1.94,23.57,26.49v5.1h-32.08c-2.19,0-22.36.49-29.65,16.28-4.13,8.99-3.16,17.25-1.46,22.84,1.94,6.08,5.35,10.94,7.78,12.88,2.67,2.19,11.18,8.75,24.54,8.75s10.69-.97,16.28-2.92c6.32-2.19,11.66-6.32,15.31-11.91v13.61h13.61v-65.61c0-.49.24-4.37-.49-9.48-.73-4.86-2.92-12.15-8.26-18.23l-.24-.49ZM1619.61,1461.99h.24c.24,0,0,0,0,0h-.49.24ZM1613.53,1507.19h0ZM1614.75,1565.99h0ZM1645.61,1534.16c-2.19,5.83-5.35,10.69-9.48,13.85-3.65,2.92-8.02,4.86-13.37,5.59-1.94.24-3.89.49-5.83.49-6.08,0-9.96-1.46-13.61-3.16-1.94-.97-4.13-2.92-5.59-5.1-1.94-2.92-2.92-6.32-2.92-9.72,0-8.51,4.86-12.64,8.51-14.82.97-.73,4.86-2.67,13.85-2.67s.49,0,.49,0h27.7v15.8l.24-.24Z"/>
      <path class="st0" d="M1881.07,1472.44c-9.96-11.42-25.27-11.42-31.1-11.42h-.97c-6.8,0-23.09,2.92-35.48,14.09l-.49.49v.73c.24,0,6.08,10.45,6.08,10.45l.73,1.22.97-.97s2.92-2.92,7.78-6.08c4.62-2.67,12.39-5.83,22.36-5.83h1.22c5.35,0,23.33,1.94,23.57,26.49v5.1h-32.08c-2.19,0-22.36.49-29.65,16.28-4.13,8.99-3.16,17.25-1.46,22.84,1.94,6.08,5.35,10.94,7.78,12.88,2.67,2.19,11.18,8.75,24.54,8.75s10.69-.97,16.28-2.92c6.32-2.19,11.66-6.32,15.31-11.91v13.61h13.61v-65.61c0-.49.24-4.37-.49-9.48-.73-4.86-2.92-12.15-8.26-18.23l-.24-.49ZM1849.73,1461.99h.24c.24,0,0,0,0,0h-.49.24ZM1843.41,1507.19h0ZM1844.62,1565.99h0ZM1875.73,1534.16c-2.19,5.83-5.35,10.69-9.48,13.85-3.65,2.92-8.02,4.86-13.37,5.59-1.94.24-3.89.49-5.83.49-6.08,0-9.96-1.46-13.61-3.16-1.94-.97-4.13-2.92-5.59-5.1-1.94-2.92-2.92-6.32-2.92-9.72,0-8.51,4.86-12.64,8.51-14.82.97-.73,4.86-2.67,13.85-2.67s.49,0,.49,0h27.7v15.8l.24-.24Z"/>
      <path class="st0" d="M2114.6,1313.03c0-7.78-1.22-15.31-3.65-21.87-2.43-6.32-5.83-11.91-10.21-16.77-8.75-9.23-20.66-14.34-33.78-14.34s-25.03,5.1-33.78,14.58c-4.37,4.62-7.78,10.45-10.21,16.77-2.43,6.56-3.65,14.09-3.65,21.87s1.22,15.07,3.65,21.63c2.43,6.32,5.83,11.91,10.21,16.77,8.75,9.48,20.66,14.58,33.78,14.58s25.03-5.1,33.78-14.58c4.37-4.62,7.78-10.45,10.21-16.77,2.43-6.56,3.65-14.09,3.65-21.87ZM2091.51,1340.49c-6.08,7.29-14.34,11.18-24.3,11.18s-9.48-.97-13.61-2.92c-3.89-1.94-7.53-4.62-10.45-8.26-5.83-7.05-8.99-16.77-8.99-27.46s3.16-20.41,8.99-27.46c2.92-3.65,6.56-6.32,10.45-8.26,4.13-1.94,8.75-2.92,13.61-2.92,9.72,0,18.23,3.89,24.3,11.18,5.83,7.05,8.99,16.77,8.99,27.46s-3.16,20.41-8.75,27.46h-.24Z"/>
      <path class="st0" d="M2498.78,1491.88c-2.43-6.32-5.83-11.91-10.21-16.77-8.75-9.23-20.66-14.34-33.78-14.34s-25.03,5.1-33.78,14.58c-4.37,4.62-7.78,10.45-10.21,16.77-2.43,6.56-3.65,14.09-3.65,21.87s1.22,15.07,3.65,21.63c2.43,6.32,5.83,11.91,10.21,16.77,8.75,9.48,20.66,14.58,33.78,14.58s25.03-5.1,33.78-14.58c4.37-4.62,7.78-10.45,10.21-16.77,2.43-6.56,3.65-14.09,3.65-21.87s-1.22-15.31-3.65-21.87ZM2479.34,1541.21c-6.08,7.29-14.34,11.18-24.3,11.18s-9.48-.97-13.61-2.92c-3.89-1.94-7.53-4.62-10.45-8.26-5.83-7.05-8.99-16.77-8.99-27.46s3.16-20.41,8.99-27.46c2.92-3.65,6.56-6.32,10.45-8.26,4.13-1.94,8.75-2.92,13.61-2.92,9.72,0,18.23,3.89,24.3,11.18,5.83,7.05,8.99,16.77,8.99,27.46s-3.16,20.41-8.75,27.46h-.24Z"/>
      <path class="st0" d="M1544.76,1436.96c-8.51-6.08-19.68-9.23-33.29-9.23h-46.41v138.27h14.58v-42.77h34.51c4.86,0,21.38-.97,35.24-13.12,8.99-8.02,11.91-19.44,12.88-27.46,1.22-10.69-.73-20.66-2.92-26.49-2.92-8.02-8.02-14.34-14.58-19.2h0ZM1514.39,1522.01h0ZM1545.49,1489.45s0,.24-.24.49c-6.8,15.07-21.14,18.23-32.08,18.23h-33.53v-66.1h33.05c2.43,0,8.75,0,15.07,2.43,7.78,2.67,13.37,7.29,16.04,13.61,7.78,18.23,2.43,29.89,1.7,31.1v.24Z"/>
      <path class="st0" d="M1769.78,1461.99h-.97v17.25c-3.89-5.1-8.51-9.48-13.85-12.39-6.56-3.65-14.09-5.59-22.36-5.59s-13.37,1.22-19.2,3.89c-5.59,2.43-10.45,6.08-14.58,10.94-8.02,9.23-12.39,21.87-12.39,35.48s4.37,26.49,12.15,35.48c4.13,4.62,8.99,8.26,14.58,10.94,5.83,2.67,12.39,3.89,19.44,3.89s15.31-1.7,21.87-5.35c5.35-2.92,9.96-7.05,13.85-11.91v14.09h0s.49,14.34-8.75,23.57c-5.35,5.59-12.88,8.26-22.36,8.26s-.49,0-.73,0c-7.53,0-14.09-1.22-19.93-3.16-6.56-2.19-11.91-5.83-17.01-10.69l-.73-.73-.73.97-6.32,10.45v.49c-.24,0,0,.49,0,.49,0,0,3.4,4.13,10.69,8.26,6.56,3.65,17.74,8.02,33.78,8.02s13.37-.97,18.71-2.92c4.62-1.46,8.51-3.65,11.91-6.32,5.35-4.37,7.78-8.99,8.51-10.69h0c1.94-3.4,6.56-13.37,6.56-29.4v-93.07h-12.64l.49-.24ZM1759.33,1537.32c-2.92,3.4-6.56,6.08-10.69,7.78-4.37,1.94-8.99,2.92-14.09,2.92-10.21,0-18.71-3.65-25.03-10.69-5.83-6.56-8.99-15.8-8.99-26s3.16-19.2,9.23-26c6.32-7.05,14.82-10.69,24.79-10.69s9.72.97,13.85,2.92c4.13,1.7,7.78,4.37,10.69,7.78,6.08,6.8,9.23,15.8,9.23,26s-3.4,19.2-9.23,26h.24Z"/>
      <path class="st0" d="M2196.73,1513.99c0-14.58-4.37-27.95-12.15-37.42-8.26-10.21-19.93-15.55-33.78-15.55s-24.06,5.35-32.56,14.82c-8.75,9.72-13.37,23.33-13.37,38.15s4.62,27.7,13.37,37.42c8.75,9.96,20.9,15.55,34.26,15.55s16.52-1.46,23.09-4.62c6.32-2.92,11.42-7.29,15.31-12.64l.49-.49-.49-.49-7.05-8.75-.73-.97-.73.97c-3.16,4.37-7.53,7.53-12.64,9.96-4.62,1.94-9.96,2.92-15.31,2.92-9.48,0-17.74-3.16-23.81-9.23-5.83-5.83-9.48-14.34-10.45-24.54h77.03v-5.1h-.49ZM2119.95,1506.94c.97-9.48,4.13-17.5,9.23-23.09,5.59-6.08,13.12-9.23,22.36-9.23s15.8,3.4,21.63,9.48c5.35,5.83,8.75,13.85,9.96,22.84h-63.18Z"/>
      <path class="st0" d="M1385.84,1513.99c0-14.58-4.37-27.95-12.15-37.42-8.26-10.21-19.93-15.55-33.78-15.55s-24.06,5.35-32.56,14.82c-8.75,9.72-13.37,23.33-13.37,38.15s4.62,27.7,13.37,37.42c8.75,9.96,20.9,15.55,34.26,15.55s16.52-1.46,23.09-4.62c6.32-2.92,11.42-7.29,15.31-12.64l.49-.49-.49-.49-7.05-8.75-.73-.97-.73.97c-3.16,4.37-7.53,7.53-12.64,9.96-4.62,1.94-9.96,2.92-15.31,2.92-9.48,0-17.74-3.16-23.81-9.23-5.83-5.83-9.48-14.34-10.45-24.54h77.03v-5.1h-.49ZM1309.05,1506.94c.97-9.48,4.13-17.5,9.23-23.09,5.59-6.08,13.12-9.23,22.36-9.23s15.8,3.4,21.63,9.48c5.35,5.83,8.75,13.85,9.96,22.84h-63.18Z"/>
      <path class="st0" d="M1266.28,1419.95h-12.88v58.56c-3.65-5.1-8.02-8.99-12.88-11.91-6.32-3.65-13.61-5.35-21.63-5.35s-13.12,1.46-18.95,4.13c-5.59,2.67-10.45,6.56-14.58,11.42-8.02,9.72-12.64,22.84-12.64,37.42s4.37,27.7,12.64,37.42c4.13,4.86,8.99,8.75,14.58,11.42,5.83,2.67,12.15,4.13,18.95,4.13s15.8-1.94,22.11-5.83c5.1-3.16,9.48-7.29,13.12-12.39v17.25h13.85v-146.04h-1.46l-.24-.24ZM1210.39,1475.35c-.49,0-.97.49-1.46.49.49,0,.97-.49,1.46-.49ZM1205.53,1477.3c-.49.24-.97.49-1.46.73.49-.24.97-.49,1.46-.73ZM1244.9,1540.96c-5.83,7.53-14.34,11.42-24.54,11.42s-18.23-3.89-24.3-11.42c-5.59-7.05-8.75-16.77-8.75-27.7s.97-10.94,2.67-16.04c1.7-4.62,4.13-8.75,7.05-12.15,6.08-6.8,14.34-10.69,23.33-10.69s17.25,3.65,23.33,10.45c3.16,3.4,5.35,7.53,7.05,12.15,1.7,4.86,2.67,10.21,2.67,16.04,0,10.94-3.16,20.66-8.51,27.7v.24ZM1254.86,1565.02h0v-19.68h0v19.68Z"/>
    </g>
    <path class="st0" d="M1023.04,1614.11c-3.65,0-6.56-2.92-6.56-6.56v-400.95c0-3.65,2.92-6.56,6.56-6.56s6.56,2.92,6.56,6.56v400.95c0,3.65-2.92,6.56-6.56,6.56Z"/>
    <path class="st1" d="M260.01,1184.97c-82.13,0-148.47,66.58-148.47,148.47s0,2.67,0,4.13h0v269h80.19v-124.66h68.28c82.13,0,148.47-66.58,148.47-148.47s-66.58-148.47-148.47-148.47ZM258.31,1397.35c-33.78,0-61.24-27.46-61.24-61.24s27.46-61.24,61.24-61.24,61.24,27.46,61.24,61.24-27.46,61.24-61.24,61.24Z"/>
    <g>
      <rect class="st0" x="3.16" y="1224.58" width="74.12" height="74.12"/>
      <rect class="st0" x="2.43" y="1337.33" width="74.84" height="269.49"/>
      <path class="st0" d="M792.91,1296.26l-63.18,153.33-63.18-153.33h-66.58l53.95,125.63h-174.23l142.64-196.59h-78.98l-153.82,207.52v50.3h290.39l16.77,39.12s-4.86,13.37-13.37,21.38c-8.51,8.26-19.68,8.51-24.06,8.51s-20.41-.24-36.94-14.09l-23.81,46.41s21.14,20.17,62.69,20.17,58.81-17.01,70.71-30.62c11.91-13.61,27.95-52.73,27.95-52.73l96.23-225.51h-63.18v.49Z"/>
    </g>
  </g>
</svg>