<?xml version="1.0" encoding="UTF-8"?>
<svg id="Camada_1" xmlns="http://www.w3.org/2000/svg" version="1.1" viewBox="0 0 2500 2500">
  <!-- Generator: Adobe Illustrator 29.6.0, SVG Export Plug-In . SVG Version: 2.1.1 Build 207)  -->
  <defs>
    <style>
      .st0 {
        fill: #fff;
      }

      .st1 {
        fill: #00dabf;
      }
    </style>
  </defs>
  <g id="Camada_11" data-name="Camada_1">
    <path class="st1" d="M754.82,632.89c-240.3,0-434.39,194.8-434.39,434.39s0,7.82,0,12.09h0v787.02h234.61v-364.72h199.78c240.3,0,434.39-194.8,434.39-434.39s-194.8-434.39-434.39-434.39ZM749.85,1254.27c-98.82,0-179.16-80.34-179.16-179.16s80.34-179.16,179.16-179.16,179.16,80.34,179.16,179.16-80.34,179.16-179.16,179.16Z"/>
    <g>
      <rect class="st0" x="3.35" y="748.78" width="216.84" height="216.84"/>
      <rect class="st0" x="1.21" y="1078.66" width="218.97" height="788.44"/>
      <path class="st0" d="M2313.94,958.51l-184.85,448.61-184.85-448.61h-194.8l157.83,367.56h-509.75l417.33-575.16h-231.06l-450.03,607.15v147.17h849.59l49.06,114.46s-14.22,39.1-39.1,62.56c-24.88,24.17-57.59,24.88-70.38,24.88s-59.72-.71-108.06-41.24l-69.67,135.79s61.85,59.01,183.43,59.01,172.05-49.77,206.89-89.58c34.84-39.81,81.76-154.28,81.76-154.28l281.54-659.76h-184.85v1.42Z"/>
    </g>
  </g>
</svg>