<?xml version="1.0" encoding="UTF-8" standalone="no"?>
<svg
   id="a"
   viewBox="0 0 2500 2500"
   version="1.1"
   sodipodi:docname="Icone-original.svg"
   width="2500"
   height="2500"
   inkscape:version="1.2.2 (732a01da63, 2022-12-09)"
   xmlns:inkscape="http://www.inkscape.org/namespaces/inkscape"
   xmlns:sodipodi="http://sodipodi.sourceforge.net/DTD/sodipodi-0.dtd"
   xmlns="http://www.w3.org/2000/svg"
   xmlns:svg="http://www.w3.org/2000/svg">
  <sodipodi:namedview
     id="namedview15935"
     pagecolor="#505050"
     bordercolor="#eeeeee"
     borderopacity="1"
     inkscape:showpageshadow="0"
     inkscape:pageopacity="0"
     inkscape:pagecheckerboard="0"
     inkscape:deskcolor="#505050"
     showgrid="false"
     inkscape:zoom="0.088715712"
     inkscape:cx="-78.903723"
     inkscape:cy="2581.279"
     inkscape:window-width="1920"
     inkscape:window-height="1009"
     inkscape:window-x="-8"
     inkscape:window-y="-8"
     inkscape:window-maximized="1"
     inkscape:current-layer="a" />
  <defs
     id="defs15928">
    <style
       id="style15926">.b{fill:#005c46;}.c{fill:#ef8124;}</style>
  </defs>
  <path
     class="c"
     d="M 2498.7454,1249.3727 C 2498.7454,560.4362 1938.3092,0 1249.3727,0 560.4362,0 0,560.4362 0,1249.3727 c 0,688.9365 560.4362,1249.3727 1249.3727,1249.3727 688.9365,0 1249.3727,-560.5056 1249.3727,-1249.3727 m -203.2313,0 c 0,576.8631 -469.3246,1046.1183 -1046.1414,1046.1183 -576.81687,0 -1046.11827,-469.232 -1046.11827,-1046.1183 0,-576.88628 469.3014,-1046.11827 1046.11827,-1046.11827 576.8168,0 1046.1414,469.25512 1046.1414,1046.11827"
     id="path15930"
     style="stroke-width:2.31365" />
  <path
     class="b"
     d="M 1993.1427,1034.0872 1580.6878,627.62469 c -8.3523,-8.1672 -25.7972,-8.23661 -34.1495,0 L 1250.784,919.67712 955.37679,627.99487 c -8.72248,-8.65307 -25.40391,-8.58365 -34.05697,0 L 508.79546,1034.4112 c -55.85159,55.0418 -86.66944,128.3614 -86.66944,206.401 0,78.0395 30.81785,151.3129 86.66944,206.2853 l 412.52436,406.4857 c 8.28287,8.2135 25.10314,8.8845 34.05697,0 l 295.77741,-292.0755 295.4072,291.6822 c 9.995,9.9256 23.9001,10.1107 34.0801,0 l 412.5244,-406.4163 c 55.8516,-55.0418 86.6695,-128.3615 86.6695,-206.401 0,-78.0395 -30.8411,-151.313 -86.6695,-206.2854 m -135.7652,278.6333 -293.7876,289.2992 -176.6474,-174.6114 69.2245,-68.3453 c 113.6929,-124.6828 -31.7896,-233.5864 -31.7896,-233.5864 -0.9487,-0.2314 -1.5965,-0.6247 -2.2443,-1.0643 l -483.78486,478.047 -293.62572,-289.2992 c -40.46579,-39.8411 -40.51207,-104.7391 -0.11569,-144.6959 l 293.74141,-289.36855 176.67056,174.63455 -69.317,68.4147 c -113.6467,124.6827 31.9052,233.5864 31.9052,233.5864 0.8792,0.2314 1.4576,0.6247 2.2443,1.0411 L 1563.59,878.67919 1857.262,1167.9784 c 40.4194,39.8411 40.4657,104.8316 0.1156,144.7421"
     id="path15932"
     style="stroke-width:2.31365" />
</svg>
