<?xml version="1.0" encoding="UTF-8" standalone="no"?>
<svg
   id="a"
   viewBox="0 0 2500 2500"
   version="1.1"
   sodipodi:docname="Icone-laranja-e-branco.svg"
   width="2500"
   height="2500"
   inkscape:version="1.2.2 (732a01da63, 2022-12-09)"
   xmlns:inkscape="http://www.inkscape.org/namespaces/inkscape"
   xmlns:sodipodi="http://sodipodi.sourceforge.net/DTD/sodipodi-0.dtd"
   xmlns="http://www.w3.org/2000/svg"
   xmlns:svg="http://www.w3.org/2000/svg">
  <sodipodi:namedview
     id="namedview14349"
     pagecolor="#505050"
     bordercolor="#eeeeee"
     borderopacity="1"
     inkscape:showpageshadow="0"
     inkscape:pageopacity="0"
     inkscape:pagecheckerboard="0"
     inkscape:deskcolor="#505050"
     showgrid="false"
     inkscape:zoom="0.12546296"
     inkscape:cx="-1235.4244"
     inkscape:cy="1044.1328"
     inkscape:window-width="1920"
     inkscape:window-height="1009"
     inkscape:window-x="-8"
     inkscape:window-y="-8"
     inkscape:window-maximized="1"
     inkscape:current-layer="a" />
  <defs
     id="defs14342">
    <style
       id="style14340">.b{fill:#fff;}.c{fill:#ef8124;}</style>
  </defs>
  <path
     class="c"
     d="M 2498.7454,1249.3727 C 2498.7454,560.4362 1938.3092,0 1249.3727,0 560.4362,0 0,560.4362 0,1249.3727 c 0,688.9365 560.4362,1249.3727 1249.3727,1249.3727 688.9365,0 1249.3727,-560.5056 1249.3727,-1249.3727 m -203.2313,0 c 0,576.8631 -469.3245,1046.1183 -1046.1414,1046.1183 -576.81687,0 -1046.11827,-469.232 -1046.11827,-1046.1183 0,-576.88628 469.3014,-1046.11827 1046.11827,-1046.11827 576.8169,0 1046.1414,469.25513 1046.1414,1046.11827"
     id="path14344"
     style="stroke-width:2.31365" />
  <path
     class="b"
     d="m 1993.1428,1034.0873 -412.455,-406.46261 c -8.3523,-8.1672 -25.7972,-8.23661 -34.1495,0 L 1250.784,919.67712 955.37679,627.99487 c -8.72247,-8.65306 -25.40391,-8.58365 -34.05698,0 L 508.79546,1034.4112 c -55.85159,55.0418 -86.66945,128.3615 -86.66945,206.401 0,78.0395 30.81786,151.3129 86.66945,206.2853 l 412.52435,406.4857 c 8.28288,8.2135 25.10314,8.8844 34.05698,0 l 295.77741,-292.0756 295.4072,291.6823 c 9.995,9.9256 23.9001,10.1107 34.0801,0 l 412.5244,-406.4163 c 55.8516,-55.0418 86.6694,-128.3615 86.6694,-206.401 0,-78.0395 -30.8409,-151.3129 -86.6694,-206.2853 m -135.7652,278.6332 -293.7876,289.2992 -176.6475,-174.6114 69.2245,-68.3453 c 113.693,-124.6828 -31.7895,-233.5864 -31.7895,-233.5864 -0.9486,-0.2314 -1.5965,-0.6247 -2.2443,-1.0643 l -483.78486,478.047 -293.62572,-289.2992 c -40.46579,-39.8411 -40.51207,-104.7391 -0.11568,-144.6959 l 293.7414,-289.36855 176.67056,174.63455 -69.3171,68.4147 c -113.6466,124.6828 31.9053,233.5864 31.9053,233.5864 0.8792,0.2314 1.4576,0.6247 2.2443,1.0412 l 483.7154,-478.09331 293.672,289.29921 c 40.4195,39.8411 40.4658,104.8316 0.1157,144.7421"
     id="path14346"
     style="stroke-width:2.31365" />
</svg>
