<?xml version="1.0" encoding="UTF-8" standalone="no"?>
<svg
   id="a"
   viewBox="0 0 2499.9999 2500"
   version="1.1"
   sodipodi:docname="Logo-vertical-branco.svg"
   width="2500"
   height="2500"
   inkscape:version="1.2.2 (732a01da63, 2022-12-09)"
   xmlns:inkscape="http://www.inkscape.org/namespaces/inkscape"
   xmlns:sodipodi="http://sodipodi.sourceforge.net/DTD/sodipodi-0.dtd"
   xmlns="http://www.w3.org/2000/svg"
   xmlns:svg="http://www.w3.org/2000/svg">
  <sodipodi:namedview
     id="namedview17170"
     pagecolor="#505050"
     bordercolor="#eeeeee"
     borderopacity="1"
     inkscape:showpageshadow="0"
     inkscape:pageopacity="0"
     inkscape:pagecheckerboard="0"
     inkscape:deskcolor="#505050"
     showgrid="false"
     inkscape:zoom="0.12546296"
     inkscape:cx="-1323.0996"
     inkscape:cy="1896.9742"
     inkscape:window-width="1920"
     inkscape:window-height="1009"
     inkscape:window-x="-8"
     inkscape:window-y="-8"
     inkscape:window-maximized="1"
     inkscape:current-layer="a" />
  <defs
     id="defs17151">
    <style
       id="style17149">.b{fill:#fff;}</style>
  </defs>
  <path
     class="b"
     d="m 1900.3213,1634.9835 c -135.5767,0 -219.8083,86.5989 -219.8083,225.9662 0,139.3673 84.2316,226.5954 219.8083,226.5954 135.5768,0 219.0743,-86.8386 219.0743,-226.5954 0,-139.7569 -83.947,-225.9662 -219.0743,-225.9662 m 0,373.7536 c -72.2157,0 -117.1032,-56.6338 -117.1032,-147.7874 0,-91.1536 43.7938,-146.529 117.1032,-146.529 73.3094,0 116.3392,54.7761 116.3392,146.529 0,91.7529 -44.573,147.7874 -116.3392,147.7874"
     id="path17153"
     style="stroke-width:1.49825" />
  <path
     class="b"
     d="M 1224.9099,2006.4148 H 982.64266 v -110.3162 h 149.78024 c 15.6717,-1.9926 34.1301,-8.4501 34.1301,-27.9873 l 0.5244,-48.9478 H 982.62768 v -96.9519 h 192.57022 c 20.0916,-1.5431 32.0925,-17.2298 36.9169,-27.6726 6.0679,-13.1397 16.7505,-55.3454 16.7505,-55.3604 0,0 -307.24639,0.1049 -307.72583,0.1049 -22.60861,0 -41.02211,16.1661 -41.02211,36.0329 v 372.0157 c -0.015,19.8668 18.39852,36.0329 41.02211,36.0329 h 266.04443 c 21.2003,-1.4833 37.7709,-17.1999 37.7709,-35.8531 0,-0.5844 -0.06,-41.0821 -0.06,-41.0821"
     id="path17155"
     style="stroke-width:1.49825" />
  <path
     class="b"
     d="m 2459.079,2083.6347 c 20.9455,-1.5882 37.0517,-16.6006 37.5162,-35.0441 v -41.7263 l -216.4523,-0.1798 V 1638.864 h -102.7201 v 444.8156 z"
     id="path17157"
     style="stroke-width:1.49825" />
  <path
     class="b"
     d="m 1318.8352,2066.7794 c 59.6454,17.2898 97.4013,20.7657 138.9778,20.7657 82.7484,0 181.3932,-22.0842 181.3932,-127.2614 0,-65.099 -31.7479,-96.5623 -130.5876,-129.5238 l -60.0049,-19.7319 c -39.404,-12.9599 -67.3164,-24.2268 -67.3164,-51.9444 0,-27.7176 29.5904,-44.6479 73.624,-44.6479 31.5532,0 60.3346,6.5324 86.7338,13.6041 l 13.7689,3.7307 c 20.1814,3.0115 35.6284,-5.7083 45.2771,-25.665 l 16.3759,-40.0333 -49.7119,-14.8177 c -36.3626,-10.8024 -74.1934,-16.286 -112.4438,-16.286 -110.8705,0 -177.0932,46.3859 -177.0932,124.1001 0,64.1701 31.3883,95.1689 129.1642,127.5911 l 60.0499,20.3762 c 31.9727,10.9072 68.6798,26.7737 68.6798,53.2478 0,48.4534 -58.6565,48.4534 -77.939,48.4534 -33.8755,0 -66.5673,-4.7794 -106.0012,-15.5069 l -19.0728,-5.124 c -3.1163,-0.5993 -6.5773,-0.9589 -9.8735,-0.9589 -21.1553,0 -32.512,14.8927 -38.3102,27.418 l -15.3421,38.0706 49.637,14.1435 z"
     id="path17159"
     style="stroke-width:1.49825" />
  <path
     class="b"
     d="m 683.96636,2012.2131 15.82153,34.2949 c 13.94872,27.418 34.02528,36.4974 56.0196,36.4974 l 71.61639,-0.1348 c 0,0 -51.61474,-104.7277 -53.06804,-108.0389 -14.23339,-27.418 -40.04825,-66.3126 -59.37568,-73.9836 -2.08257,-0.839 -13.19959,-5.2139 -13.19959,-5.2139 0,0 11.89611,-5.0491 14.35324,-6.1578 37.29146,-14.7129 80.516,-55.0458 80.516,-113.4176 0,-83.7373 -63.27113,-136.5506 -173.61731,-136.5506 0,0 -160.74732,0.09 -161.66126,0.09 -20.04659,0 -40.55765,22.249 -40.55765,39.3441 v 404.0932 h 102.82496 v -361.1983 h 99.39395 c 41.92106,0 70.11814,24.856 70.11814,61.8628 0,41.6214 -28.85631,61.8627 -85.11563,61.8627 -17.90409,0 -26.48907,3.461 -33.1413,10.5927 -14.17346,15.2072 -15.56683,44.0785 -14.0536,66.6871 77.20487,2.622 98.85459,37.0967 123.12625,89.3557"
     id="path17161"
     style="stroke-width:1.49825" />
  <path
     class="b"
     d="m 310.18276,1998.9386 c 0,0 -48.75309,10.0083 -81.32506,10.0083 -76.02124,0 -121.43322,-54.7611 -121.43322,-146.499 v -2.3223 c 0,-91.7379 45.39699,-146.4989 121.43322,-146.4989 32.55699,0 81.32506,9.9933 81.32506,9.9933 17.03511,2.0526 33.98032,-5.3787 43.08969,-24.4215 4.77942,-9.9783 14.84766,-41.6364 14.84766,-41.6364 l -34.65454,-10.278 c -33.05141,-9.424 -62.40214,-13.0947 -104.60787,-13.0947 -138.693074,-0.015 -224.8724602,86.539 -224.8724602,225.9213 v 2.3222 c 0,139.3823 86.1793862,225.9363 224.8724602,225.9363 42.20573,0 71.55646,-3.6708 104.60787,-13.0947 l 34.65454,-10.2781 c 0,0 -10.08322,-31.658 -14.84766,-41.6363 -9.10937,-19.0428 -26.05458,-26.4891 -43.08969,-24.4365"
     id="path17163"
     style="stroke-width:1.49825" />
  <path
     class="b"
     d="m 1748.0391,941.02368 c 0,-259.58693 -211.1784,-470.76538 -470.7654,-470.76538 -259.5869,0 -470.7654,211.17845 -470.7654,470.76538 0,259.58692 211.1785,470.76532 470.7654,470.76532 259.587,0 470.7654,-211.1934 470.7654,-470.76532 m -76.5756,0 c 0,217.36622 -176.8385,394.18972 -394.1898,394.18972 -217.3512,0 -394.17482,-176.8085 -394.17482,-394.18972 0,-217.3812 176.83862,-394.1748 394.17482,-394.1748 217.3363,0 394.1898,176.80858 394.1898,394.18979"
     id="path17165"
     style="stroke-width:1.49825" />
  <path
     class="b"
     d="M 1557.5216,859.90839 1402.108,706.75719 c -3.1463,-3.07142 -9.7237,-3.10138 -12.87,0 l -111.4399,110.04652 -111.305,-109.91168 c -3.2812,-3.26619 -9.5738,-3.23622 -12.84,0 L 998.20946,860.02825 c -21.03541,20.73579 -32.64686,48.36353 -32.64686,77.77419 0,29.41067 11.61145,57.00845 32.64686,77.72926 l 155.44364,153.1661 c 3.1163,3.0864 9.4539,3.3411 12.84,0 l 111.4549,-110.0465 111.305,109.8967 c 3.7606,3.7307 9.0045,3.8056 12.84,0 l 155.4435,-153.1362 c 21.0355,-20.73576 32.6619,-48.3635 32.6619,-77.77416 0,-29.41067 -11.6114,-57.00845 -32.6619,-77.72925 m -51.1652,104.99741 -110.7058,108.9977 -66.5673,-65.8031 26.0846,-25.75496 c 42.835,-46.98514 -11.971,-88.00725 -11.971,-88.00725 -0.3596,-0.0899 -0.5993,-0.23972 -0.8391,-0.40453 L 1160.0806,1074.0683 1049.4497,965.05563 c -15.2522,-15.01248 -15.2672,-39.46393 -0.045,-54.52135 l 110.6758,-109.04269 66.5672,65.80317 -26.1145,25.7849 c -42.82,46.97016 12.016,88.00725 12.016,88.00725 0.3296,0.0899 0.5544,0.23972 0.839,0.38954 l 182.2622,-180.14967 110.6459,109.01273 c 15.2222,15.01247 15.2522,39.50887 0.045,54.53633"
     id="path17167"
     style="stroke-width:1.49825" />
</svg>
