<?xml version="1.0" encoding="UTF-8" standalone="no"?>
<svg
   id="a"
   viewBox="0 0 2499.9999 2500"
   version="1.1"
   sodipodi:docname="Logo-vertical-laranja-e-branco.svg"
   width="2500"
   height="2500"
   inkscape:version="1.2.2 (732a01da63, 2022-12-09)"
   xmlns:inkscape="http://www.inkscape.org/namespaces/inkscape"
   xmlns:sodipodi="http://sodipodi.sourceforge.net/DTD/sodipodi-0.dtd"
   xmlns="http://www.w3.org/2000/svg"
   xmlns:svg="http://www.w3.org/2000/svg">
  <sodipodi:namedview
     id="namedview21631"
     pagecolor="#505050"
     bordercolor="#eeeeee"
     borderopacity="1"
     inkscape:showpageshadow="0"
     inkscape:pageopacity="0"
     inkscape:pagecheckerboard="0"
     inkscape:deskcolor="#505050"
     showgrid="false"
     inkscape:zoom="0.25092593"
     inkscape:cx="928.56089"
     inkscape:cy="1402.8044"
     inkscape:window-width="1920"
     inkscape:window-height="1009"
     inkscape:window-x="-8"
     inkscape:window-y="-8"
     inkscape:window-maximized="1"
     inkscape:current-layer="a" />
  <defs
     id="defs21612">
    <style
       id="style21610">.b{fill:#fff;}.c{fill:#ef8124;}</style>
  </defs>
  <path
     class="b"
     d="m 1900.3212,1649.5262 c -135.5766,0 -219.8083,86.5989 -219.8083,225.9662 0,139.3673 84.2317,226.5955 219.8083,226.5955 135.5768,0 219.0743,-86.8387 219.0743,-226.5955 0,-139.7568 -83.9471,-225.9662 -219.0743,-225.9662 m 0,373.7537 c -72.2156,0 -117.1032,-56.6339 -117.1032,-147.7875 0,-91.1535 43.7938,-146.5289 117.1032,-146.5289 73.3094,0 116.3392,54.7761 116.3392,146.5289 0,91.7529 -44.573,147.7875 -116.3392,147.7875"
     id="path21614"
     style="stroke-width:1.49825" />
  <path
     class="b"
     d="M 1224.9098,2020.9576 H 982.64265 v -110.3162 h 149.78015 c 15.6717,-1.9927 34.1301,-8.4501 34.1301,-27.9873 l 0.5244,-48.9479 H 982.62767 v -96.9518 h 192.57013 c 20.0916,-1.5432 32.0926,-17.2299 36.9169,-27.6727 6.068,-13.1396 16.7505,-55.3454 16.7505,-55.3603 0,0 -307.24631,0.1049 -307.72574,0.1049 -22.60861,0 -41.02211,16.1661 -41.02211,36.0329 v 372.0157 c -0.015,19.8667 18.39852,36.0328 41.02211,36.0328 h 266.04434 c 21.2003,-1.4832 37.7709,-17.1999 37.7709,-35.853 0,-0.5845 -0.06,-41.0822 -0.06,-41.0822"
     id="path21616"
     style="stroke-width:1.49825" />
  <path
     class="b"
     d="m 2459.0789,2098.1775 c 20.9455,-1.5883 37.0517,-16.6006 37.5163,-35.0442 v -41.7261 l -216.4524,-0.18 v -367.8205 h -102.72 v 444.8157 z"
     id="path21618"
     style="stroke-width:1.49825" />
  <path
     class="b"
     d="m 1318.8352,2081.3222 c 59.6453,17.2898 97.4012,20.7657 138.9777,20.7657 82.7484,0 181.3932,-22.0842 181.3932,-127.2614 0,-65.099 -31.7479,-96.5623 -130.5875,-129.5238 l -60.005,-19.732 c -39.404,-12.9598 -67.3164,-24.2267 -67.3164,-51.9443 0,-27.7177 29.5905,-44.6479 73.6241,-44.6479 31.5531,0 60.3345,6.5324 86.7337,13.6041 l 13.7689,3.7306 c 20.1815,3.0115 35.6285,-5.7083 45.2772,-25.665 l 16.3758,-40.0333 -49.7119,-14.8176 c -36.3625,-10.8024 -74.1934,-16.286 -112.4437,-16.286 -110.8706,0 -177.0933,46.3858 -177.0933,124.1001 0,64.1701 31.3884,95.1689 129.1642,127.591 l 60.0499,20.3762 c 31.9727,10.9073 68.6798,26.7738 68.6798,53.2479 0,48.4534 -58.6565,48.4534 -77.939,48.4534 -33.8754,0 -66.5673,-4.7795 -106.0012,-15.507 l -19.0728,-5.124 c -3.1163,-0.5991 -6.5773,-0.9588 -9.8734,-0.9588 -21.1553,0 -32.5121,14.8926 -38.3103,27.4179 l -15.3421,38.0707 49.6371,14.1435 z"
     id="path21620"
     style="stroke-width:1.49825" />
  <path
     class="b"
     d="m 683.96636,2026.7558 15.82153,34.295 c 13.94872,27.418 34.02527,36.4974 56.01959,36.4974 l 71.6164,-0.1355 c 0,0 -51.61475,-104.7277 -53.06805,-108.0388 -14.23339,-27.418 -40.04824,-66.3126 -59.37568,-73.9837 -2.08257,-0.839 -13.19959,-5.2139 -13.19959,-5.2139 0,0 11.89611,-5.0491 14.35324,-6.1578 37.29147,-14.7128 80.516,-55.0457 80.516,-113.4176 0,-83.7372 -63.27113,-136.5505 -173.6173,-136.5505 0,0 -160.74733,0.09 -161.66126,0.09 -20.0466,0 -40.55765,22.2491 -40.55765,39.3441 v 404.0939 h 102.82495 v -361.1983 h 99.39396 c 41.92106,0 70.11813,24.8559 70.11813,61.8627 0,41.6214 -28.8563,61.8628 -85.11563,61.8628 -17.90409,0 -26.48906,3.461 -33.14129,10.5926 -14.17346,15.2073 -15.56684,44.0786 -14.05359,66.6872 77.20485,2.6219 98.85457,37.0967 123.12624,89.3557"
     id="path21622"
     style="stroke-width:1.49825" />
  <path
     class="b"
     d="m 310.18275,2013.4813 c 0,0 -48.75308,10.0084 -81.32505,10.0084 -76.02124,0 -121.43323,-54.7611 -121.43323,-146.499 v -2.3223 c 0,-91.7379 45.397,-146.499 121.43323,-146.499 32.55699,0 81.32505,9.9934 81.32505,9.9934 17.03512,2.0526 33.98033,-5.3787 43.08969,-24.4215 4.77942,-9.9784 14.84768,-41.6364 14.84768,-41.6364 l -34.65455,-10.278 c -33.05141,-9.424 -62.40214,-13.0947 -104.60787,-13.0947 -138.693075,-0.015 -224.8724601,86.5389 -224.8724601,225.9212 v 2.3223 c 0,139.3823 86.1793851,225.9362 224.8724601,225.9362 42.20573,0 71.55646,-3.6706 104.60787,-13.0947 l 34.65455,-10.2779 c 0,0 -10.08323,-31.6581 -14.84768,-41.6365 -9.10936,-19.0427 -26.05457,-26.4891 -43.08969,-24.4365"
     id="path21624"
     style="stroke-width:1.49825" />
  <path
     class="c"
     d="m 1748.0391,955.56647 c 0,-259.58693 -211.1786,-470.76538 -470.7654,-470.76538 -259.587,0 -470.7654,211.17845 -470.7654,470.76538 0,259.58693 211.1784,470.76543 470.7654,470.76543 259.5868,0 470.7654,-211.1935 470.7654,-470.76543 m -76.5757,0 c 0,217.36623 -176.8385,394.18983 -394.1897,394.18983 -217.3513,0 -394.17482,-176.8086 -394.17482,-394.18983 0,-217.3812 176.83852,-394.1748 394.17482,-394.1748 217.3362,0 394.1897,176.80858 394.1897,394.18978"
     id="path21626"
     style="stroke-width:1.49825" />
  <path
     class="b"
     d="m 1557.5215,874.45117 -155.4136,-153.1512 c -3.1463,-3.07141 -9.7236,-3.10137 -12.87,0 L 1277.7981,831.34649 1166.493,721.43482 c -3.2812,-3.26618 -9.5738,-3.23622 -12.84,0 L 998.20947,874.57104 c -21.03543,20.73578 -32.64687,48.36353 -32.64687,77.77419 0,29.41067 11.61144,57.00847 32.64687,77.72927 l 155.44353,153.1662 c 3.1164,3.0864 9.454,3.3411 12.84,0 l 111.4549,-110.0466 111.305,109.8967 c 3.7606,3.7307 9.0045,3.8056 12.84,0 l 155.4435,-153.1362 c 21.0355,-20.7358 32.6619,-48.36352 32.6619,-77.77417 0,-29.41067 -11.6114,-57.00845 -32.6619,-77.72926 m -51.1653,104.99741 -110.7057,108.99772 -66.5672,-65.8031 26.0845,-25.75497 c 42.835,-46.98515 -11.971,-88.00726 -11.971,-88.00726 -0.3596,-0.0899 -0.5993,-0.23972 -0.839,-0.40452 L 1160.0805,1088.6111 1049.4497,979.59842 c -15.2522,-15.01248 -15.2672,-39.46393 -0.045,-54.52135 l 110.6758,-109.04269 66.5673,65.80317 -26.1145,25.7849 c -42.82,46.97017 12.016,88.00724 12.016,88.00724 0.3296,0.0899 0.5543,0.23973 0.839,0.38956 l 182.2622,-180.14969 110.6459,109.01274 c 15.2222,15.01246 15.2522,39.50886 0.045,54.53632"
     id="path21628"
     style="stroke-width:1.49825" />
</svg>
