<?xml version="1.0" encoding="UTF-8" standalone="no"?>
<svg
   id="a"
   viewBox="0 0 2500 2500.0001"
   version="1.1"
   sodipodi:docname="Logo-horizontal-laranja-e-branco.svg"
   width="2500"
   height="2500"
   inkscape:version="1.2.2 (732a01da63, 2022-12-09)"
   xmlns:inkscape="http://www.inkscape.org/namespaces/inkscape"
   xmlns:sodipodi="http://sodipodi.sourceforge.net/DTD/sodipodi-0.dtd"
   xmlns="http://www.w3.org/2000/svg"
   xmlns:svg="http://www.w3.org/2000/svg">
  <sodipodi:namedview
     id="namedview22872"
     pagecolor="#505050"
     bordercolor="#eeeeee"
     borderopacity="1"
     inkscape:showpageshadow="0"
     inkscape:pageopacity="0"
     inkscape:pagecheckerboard="0"
     inkscape:deskcolor="#505050"
     showgrid="false"
     inkscape:zoom="0.125"
     inkscape:cx="-616"
     inkscape:cy="2680"
     inkscape:window-width="1920"
     inkscape:window-height="1009"
     inkscape:window-x="-8"
     inkscape:window-y="-8"
     inkscape:window-maximized="1"
     inkscape:current-layer="a" />
  <defs
     id="defs22853">
    <style
       id="style22851">.b{fill:#fff;}.c{fill:#ee7d00;}</style>
  </defs>
  <path
     class="c"
     d="m 455.07782,1355.1123 c 0,114.3619 -93.03617,207.3851 -207.398,207.3851 -114.36184,0 -207.38498,-93.0232 -207.38498,-207.3851 0,-114.3618 93.03617,-207.385 207.38498,-207.385 114.34881,0 207.398,93.0232 207.398,207.385 m 40.29483,0 c 0,-136.5727 -111.107,-247.6797 -247.69283,-247.6797 C 111.09398,1107.4326 0,1218.5396 0,1355.1123 c 0,136.5728 111.107,247.6798 247.67982,247.6798 136.57282,0 247.67982,-111.1199 247.67982,-247.6798"
     id="path22855"
     style="stroke-width:1.30193" />
  <path
     class="b"
     d="m 368.21282,1367.676 -58.24851,57.3502 -35.02201,-34.6184 13.72238,-13.5532 c 22.53647,-24.7236 -6.30135,-46.3098 -6.30135,-46.3098 -0.18227,-0.052 -0.31246,-0.1301 -0.44267,-0.2082 l -49.51252,48.9917 v 0 l -3.02049,3.0335 -43.3674,42.7425 -58.20944,-57.3502 c -8.01991,-7.9027 -8.03293,-20.7658 -0.026,-28.6815 l 58.23548,-57.3632 35.02201,34.6184 -13.7354,13.5661 c -22.53647,24.7237 6.3274,46.3097 6.3274,46.3097 0.16925,0.052 0.28643,0.1303 0.44265,0.2084 l 95.90042,-94.7808 58.22246,57.3502 c 8.0069,7.8897 8.01992,20.7789 0.026,28.6946 m 26.91096,-55.241 -81.77444,-80.5767 c -1.65345,-1.6144 -5.1166,-1.6274 -6.77005,0 l -58.63908,57.897 -58.56097,-57.8189 c -1.73158,-1.7185 -5.03848,-1.7055 -6.75703,0 l -81.78747,80.5766 c -11.06643,10.9103 -17.185517,25.4529 -17.185517,40.9199 0,15.4669 6.106068,29.9965 17.185517,40.8937 l 81.78747,80.5897 c 1.64043,1.6274 4.97337,1.7576 6.75703,0 l 58.63908,-57.897 58.56097,57.8189 c 1.97893,1.9658 4.73903,2.0049 6.75703,0 l 81.78746,-80.5767 c 11.06644,-10.9103 17.18552,-25.4528 17.18552,-40.9198 0,-15.467 -6.10607,-29.9966 -17.18552,-40.8937"
     id="path22857"
     style="stroke-width:1.30193" />
  <path
     class="b"
     d="m 2061.8199,1462.8603 c -53.0277,0 -85.9926,-41.5837 -85.9926,-108.5291 0,-66.9454 32.1576,-107.5918 85.9926,-107.5918 53.835,0 85.4329,40.2167 85.4329,107.5918 0,67.375 -32.7307,108.5291 -85.4329,108.5291 m 0,-274.4736 c -99.5588,0 -161.4267,63.5995 -161.4267,165.9445 0,102.345 61.8679,166.4001 161.4267,166.4001 99.5589,0 160.88,-63.7687 160.88,-166.4001 0,-102.6314 -61.6466,-165.9445 -160.88,-165.9445"
     id="path22859"
     style="stroke-width:1.30193" />
  <path
     class="b"
     d="m 1565.8354,1461.1548 h -177.9092 v -81.0193 h 109.9873 c 11.5091,-1.4712 25.0622,-6.2103 25.0622,-20.5445 l 0.3906,-35.9464 h -135.4531 v -71.1897 h 141.416 c 14.7639,-1.1327 23.5649,-12.6548 27.1061,-20.3232 4.4527,-9.6473 12.3033,-40.6464 12.3033,-40.6594 0,0 -225.638,0.078 -225.9895,0.078 -16.6127,0 -30.1267,11.8737 -30.1267,26.4554 v 273.1977 c -0.013,14.5946 13.514,26.4552 30.1267,26.4552 h 195.3811 c 15.5712,-1.0936 27.7443,-12.6287 27.7443,-26.3251 0,-0.4296 -0.039,-30.1658 -0.039,-30.1658"
     id="path22861"
     style="stroke-width:1.30193" />
  <path
     class="b"
     d="m 2472.1633,1517.8541 c 15.3888,-1.1588 27.2104,-12.1991 27.5489,-25.7393 v -30.6345 l -158.9531,-0.1302 V 1191.225 h -75.434 v 326.655 z"
     id="path22863"
     style="stroke-width:1.30193" />
  <path
     class="b"
     d="m 1634.7988,1505.4857 c 43.797,12.6938 71.5281,15.2586 102.0585,15.2586 60.7743,0 133.2139,-16.2221 133.2139,-93.4528 0,-47.807 -23.3047,-70.9163 -95.9005,-95.1192 l -44.0574,-14.4905 c -28.9289,-9.5172 -49.4344,-17.7975 -49.4344,-38.1467 0,-20.3493 21.7293,-32.7827 54.0693,-32.7827 23.1614,0 44.3048,4.8041 63.6905,9.9859 l 10.1161,2.7471 c 14.829,2.2132 26.1689,-4.1923 33.2513,-18.839 l 12.017,-29.3977 -36.5062,-10.8841 c -26.7027,-7.9289 -54.486,-11.9518 -82.5687,-11.9518 -81.4229,0 -130.0501,34.0716 -130.0501,91.1353 0,47.117 23.0442,69.8879 94.8588,93.7002 l 44.1096,14.9592 c 23.4738,8.0069 50.4368,19.6722 50.4368,39.097 0,35.5819 -43.081,35.5819 -57.2329,35.5819 -24.88,0 -48.8877,-3.5022 -77.8427,-11.3919 l -14.0088,-3.7626 c -2.2914,-0.4427 -4.8301,-0.7031 -7.2518,-0.7031 -15.532,0 -23.8774,10.9363 -28.1347,20.141 l -11.2747,27.9525 36.4541,10.3764 z"
     id="path22865"
     style="stroke-width:1.30193" />
  <path
     class="b"
     d="m 1168.5764,1465.3992 11.6263,25.1793 c 10.2462,20.1409 24.997,26.8069 41.1411,26.8069 l 52.585,-0.1042 c 0,0 -37.8992,-76.9052 -38.9798,-79.3398 -10.4545,-20.128 -29.4107,-48.6924 -43.6018,-54.3297 -1.5362,-0.612 -9.6863,-3.8278 -9.6863,-3.8278 0,0 8.7359,-3.7104 10.5456,-4.5307 27.3797,-10.806 59.1208,-40.425 59.1208,-83.2976 0,-61.4904 -46.466,-100.275 -127.4983,-100.275 0,0 -118.0464,0.078 -118.7233,0.078 -14.72493,0 -29.7883,16.3393 -29.7883,28.8899 v 296.7627 h 75.5121 v -265.2429 h 72.9995 c 30.7907,0 51.4914,18.2531 51.4914,45.4244 0,30.5564 -21.1954,45.4245 -62.5058,45.4245 -13.1496,0 -19.4509,2.5518 -24.3331,7.7856 -10.4025,11.1706 -11.4311,32.366 -10.3244,48.9787 56.6862,1.9269 72.5958,27.2365 90.4193,65.6175"
     id="path22867"
     style="stroke-width:1.30193" />
  <path
     class="b"
     d="m 894.07675,1455.6606 c 0,0 -35.80317,7.343 -59.71968,7.343 -55.83993,0 -89.18245,-40.2168 -89.18245,-107.5918 v -1.7056 c 0,-67.375 33.34252,-107.5918 89.18245,-107.5918 23.91651,0 59.71968,7.343 59.71968,7.343 12.51158,1.5102 24.95806,-3.9579 31.65,-17.9407 3.5022,-7.3299 10.9102,-30.5693 10.9102,-30.5693 l -25.45279,-7.5513 c -24.26804,-6.9132 -45.82806,-9.6212 -76.82709,-9.6212 -101.86328,0 -165.13724,63.5603 -165.13724,165.9183 v 1.7055 c 0,102.3581 63.28698,165.9185 165.13724,165.9185 30.99903,0 52.54603,-2.708 76.82709,-9.6213 l 25.45279,-7.5512 c 0,0 -7.39498,-23.2526 -10.9102,-30.5694 -6.69194,-13.9828 -19.12539,-19.4509 -31.65,-17.9407"
     id="path22869"
     style="stroke-width:1.30193" />
</svg>
