<?xml version="1.0" encoding="UTF-8" standalone="no"?>
<svg
   id="a"
   viewBox="0 0 2499.9999 2500"
   version="1.1"
   sodipodi:docname="Logo-vertical-original.svg"
   width="2500"
   height="2500"
   inkscape:version="1.2.2 (732a01da63, 2022-12-09)"
   xmlns:inkscape="http://www.inkscape.org/namespaces/inkscape"
   xmlns:sodipodi="http://sodipodi.sourceforge.net/DTD/sodipodi-0.dtd"
   xmlns="http://www.w3.org/2000/svg"
   xmlns:svg="http://www.w3.org/2000/svg">
  <sodipodi:namedview
     id="namedview18411"
     pagecolor="#505050"
     bordercolor="#eeeeee"
     borderopacity="1"
     inkscape:showpageshadow="0"
     inkscape:pageopacity="0"
     inkscape:pagecheckerboard="0"
     inkscape:deskcolor="#505050"
     showgrid="false"
     inkscape:zoom="0.12546296"
     inkscape:cx="-71.734317"
     inkscape:cy="1020.2214"
     inkscape:window-width="1920"
     inkscape:window-height="1009"
     inkscape:window-x="-8"
     inkscape:window-y="-8"
     inkscape:window-maximized="1"
     inkscape:current-layer="a" />
  <defs
     id="defs18392">
    <style
       id="style18390">.b{fill:#005c46;}.c{fill:#ef8124;}</style>
  </defs>
  <path
     class="b"
     d="m 1901.134,1631.4975 c -135.6348,0 -219.9026,86.636 -219.9026,226.0631 0,139.427 84.2678,226.6925 219.9026,226.6925 135.6349,0 219.1682,-86.8758 219.1682,-226.6925 0,-139.8167 -83.9829,-226.0631 -219.1682,-226.0631 m 0,373.9138 c -72.2466,0 -117.1534,-56.6581 -117.1534,-147.8507 0,-91.1927 43.8126,-146.5918 117.1534,-146.5918 73.3409,0 116.3891,54.7996 116.3891,146.5918 0,91.7921 -44.5921,147.8507 -116.3891,147.8507"
     id="path18394"
     style="stroke-width:1.49889" />
  <path
     class="b"
     d="M 1225.4331,2003.0881 H 983.06214 v -110.3635 h 149.84436 c 15.6784,-1.9935 34.1448,-8.4537 34.1448,-27.9993 l 0.5245,-48.9689 H 983.04715 v -96.9933 h 192.65265 c 20.1002,-1.5439 32.1063,-17.2373 36.9328,-27.6846 6.0704,-13.1453 16.7576,-55.3691 16.7576,-55.3841 0,0 -307.37798,0.105 -307.85762,0.105 -22.6183,0 -41.03969,16.173 -41.03969,36.0483 v 372.1751 c -0.015,19.8754 18.40641,36.0484 41.03969,36.0484 H 1187.691 c 21.2093,-1.4839 37.7871,-17.2072 37.7871,-35.8685 0,-0.5846 -0.061,-41.0996 -0.061,-41.0996"
     id="path18396"
     style="stroke-width:1.49889" />
  <path
     class="b"
     d="m 2460.1312,2080.341 c 20.9545,-1.5888 37.0676,-16.6077 37.5323,-35.0591 v -41.7442 l -216.5451,-0.1798 v -367.9782 h -102.7641 v 445.0063 z"
     id="path18398"
     style="stroke-width:1.49889" />
  <path
     class="b"
     d="m 1319.3987,2063.4785 c 59.6709,17.2971 97.443,20.7746 139.0373,20.7746 82.7839,0 181.4709,-22.0936 181.4709,-127.316 0,-65.1269 -31.7614,-96.6036 -130.6434,-129.5793 l -60.0307,-19.7404 c -39.4209,-12.9654 -67.3453,-24.2371 -67.3453,-51.9666 0,-27.7295 29.6032,-44.667 73.6556,-44.667 31.5668,0 60.3605,6.5352 86.771,13.61 l 13.7748,3.7322 c 20.1901,3.0128 35.6436,-5.7108 45.2965,-25.676 l 16.3829,-40.0505 -49.7333,-14.824 c -36.378,-10.807 -74.2252,-16.293 -112.4919,-16.293 -110.9181,0 -177.1691,46.4057 -177.1691,124.1533 0,64.1977 31.4018,95.2097 129.2196,127.6458 l 60.0756,20.3849 c 31.9864,10.9119 68.7092,26.7852 68.7092,53.2706 0,48.4742 -58.6817,48.4742 -77.9723,48.4742 -33.89,0 -66.5959,-4.7814 -106.0467,-15.5135 l -19.081,-5.1262 c -3.1177,-0.5995 -6.5801,-0.9593 -9.8776,-0.9593 -21.1644,0 -32.526,14.899 -38.3268,27.4297 l -15.3486,38.0869 49.6583,14.1496 z"
     id="path18400"
     style="stroke-width:1.49889" />
  <path
     class="b"
     d="m 684.25782,2008.8888 15.82831,34.3096 c 13.95469,27.4298 34.03986,36.5131 56.04361,36.5131 l 71.64708,-0.1349 c 0,0 -51.63686,-104.7726 -53.09079,-108.0852 -14.23948,-27.4298 -40.0654,-66.341 -59.40113,-74.0153 -2.08346,-0.8394 -13.20525,-5.2161 -13.20525,-5.2161 0,0 11.90122,-5.0513 14.35941,-6.1605 37.30744,-14.7191 80.5505,-55.0694 80.5505,-113.4662 0,-83.7732 -63.29825,-136.6092 -173.69172,-136.6092 0,0 -160.81622,0.09 -161.73055,0.09 -20.05518,0 -40.57503,22.2586 -40.57503,39.3609 v 404.2665 h 102.86902 v -361.3532 h 99.43656 c 41.93903,0 70.14819,24.8667 70.14819,61.8893 0,41.6392 -28.86867,61.8893 -85.1521,61.8893 -17.91178,0 -26.50043,3.4625 -33.15551,10.5972 -14.17954,15.2137 -15.5735,44.0974 -14.05962,66.7157 77.23795,2.6231 98.89695,37.1126 123.17902,89.394"
     id="path18402"
     style="stroke-width:1.49889" />
  <path
     class="b"
     d="m 310.314,1995.6086 c 0,0 -48.77398,10.0126 -81.35992,10.0126 -76.05382,0 -121.48527,-54.7845 -121.48527,-146.5617 v -2.3233 c 0,-91.7772 45.41645,-146.5618 121.48527,-146.5618 32.57096,0 81.35992,9.9976 81.35992,9.9976 17.04242,2.0535 33.99489,-5.381 43.10816,-24.4319 4.78147,-9.9827 14.85403,-41.6543 14.85403,-41.6543 l -34.66939,-10.2824 c -33.06558,-9.4281 -62.42889,-13.1003 -104.65272,-13.1003 -138.752515,-0.015 -224.9688401,86.576 -224.9688401,226.0181 v 2.3232 c 0,139.4421 86.2163251,226.0331 224.9688401,226.0331 42.22383,0 71.58714,-3.6723 104.65272,-13.1003 l 34.66939,-10.2824 c 0,0 -10.08755,-31.6716 -14.85403,-41.6542 -9.11327,-19.051 -26.06574,-26.5004 -43.10816,-24.447"
     id="path18404"
     style="stroke-width:1.49889" />
  <path
     class="c"
     d="m 1748.7866,937.24022 c 0,-259.6982 -211.269,-470.96716 -470.9672,-470.96716 -259.6982,0 -470.96713,211.26896 -470.96713,470.96716 0,259.69818 211.26893,470.96718 470.96713,470.96718 259.6982,0 470.9672,-211.284 470.9672,-470.96718 m -76.6084,0 c 0,217.45938 -176.9144,394.35878 -394.3588,394.35878 -217.4444,0 -394.34371,-176.8844 -394.34371,-394.35878 0,-217.47438 176.91431,-394.34375 394.34371,-394.34375 217.4295,0 394.3588,176.88436 394.3588,394.35874"
     id="path18406"
     style="stroke-width:1.49889" />
  <path
     class="b"
     d="M 1558.1873,856.09015 1402.7072,702.87332 c -3.1478,-3.07274 -9.7278,-3.10271 -12.8755,0 L 1278.344,812.96701 1166.9912,703.00821 c -3.2825,-3.26758 -9.5778,-3.2376 -12.8455,0 L 998.63563,856.21007 c -21.04445,20.74468 -32.66087,48.38426 -32.66087,77.80754 0,29.42327 11.61642,57.03288 32.66087,77.76259 l 155.51007,153.2318 c 3.1178,3.0877 9.4581,3.3425 12.8455,0 l 111.5027,-110.0937 111.3527,109.9438 c 3.7623,3.7323 9.0084,3.8072 12.8456,0 l 155.5101,-153.2018 c 21.0444,-20.74472 32.6759,-48.3843 32.6759,-77.80758 0,-29.42327 -11.6165,-57.03288 -32.6759,-77.76257 m -51.1871,105.04243 -110.7533,109.04442 -66.5958,-65.8313 26.0958,-25.76601 c 42.8533,-47.00529 -11.9762,-88.04498 -11.9762,-88.04498 -0.3597,-0.09 -0.5996,-0.23982 -0.8394,-0.40469 L 1160.576,1070.3419 1049.8977,961.28246 c -15.2587,-15.0189 -15.2737,-39.48083 -0.045,-54.54471 l 110.7232,-109.08943 66.5958,65.83138 -26.1257,25.79595 c -42.8384,46.99029 12.0211,88.04497 12.0211,88.04497 0.3297,0.09 0.5546,0.23983 0.8394,0.38971 l 182.3404,-180.22689 110.6932,109.05945 c 15.2288,15.01892 15.2587,39.52581 0.045,54.55971"
     id="path18408"
     style="stroke-width:1.49889" />
</svg>
