<?xml version="1.0" encoding="UTF-8" standalone="no"?>
<svg
   id="a"
   viewBox="0 0 2500 2500.0001"
   version="1.1"
   sodipodi:docname="Logo-logo-branco.svg"
   width="2500"
   height="2500"
   inkscape:version="1.2.2 (732a01da63, 2022-12-09)"
   xmlns:inkscape="http://www.inkscape.org/namespaces/inkscape"
   xmlns:sodipodi="http://sodipodi.sourceforge.net/DTD/sodipodi-0.dtd"
   xmlns="http://www.w3.org/2000/svg"
   xmlns:svg="http://www.w3.org/2000/svg">
  <sodipodi:namedview
     id="namedview11299"
     pagecolor="#505050"
     bordercolor="#eeeeee"
     borderopacity="1"
     inkscape:showpageshadow="0"
     inkscape:pageopacity="0"
     inkscape:pagecheckerboard="0"
     inkscape:deskcolor="#505050"
     showgrid="false"
     inkscape:zoom="0.11287929"
     inkscape:cx="806.17094"
     inkscape:cy="2843.7458"
     inkscape:window-width="1920"
     inkscape:window-height="1009"
     inkscape:window-x="-8"
     inkscape:window-y="-8"
     inkscape:window-maximized="1"
     inkscape:current-layer="a" />
  <defs
     id="defs11280">
    <style
       id="style11278">.b{fill:#fff;}</style>
  </defs>
  <path
     class="b"
     d="m 2289.4374,1248.3653 c 0,574.3655 -467.2604,1041.5606 -1041.626,1041.5606 -574.36556,0 -1041.56064,-467.1951 -1041.56064,-1041.5606 0,-574.36595 467.26047,-1041.56092 1041.56064,-1041.56092 574.3001,0 1041.626,467.19497 1041.626,1041.56092 m 202.3749,0 C 2491.8123,562.44813 1933.7938,4.4295095 1247.8114,4.4295095 561.82905,4.4295095 3.8758219,562.44813 3.8758219,1248.3653 c 0,685.9167 558.0186181,1243.9356 1243.9355781,1243.9356 685.917,0 1243.9356,-558.0843 1243.9356,-1243.9356"
     id="path11282"
     style="stroke-width:6.53874" />
  <path
     class="b"
     d="m 1853.1707,1311.4641 -292.5445,288.033 -175.893,-173.8656 68.9187,-68.0692 c 113.1861,-124.1708 -31.6477,-232.5836 -31.6477,-232.5836 -0.9154,-0.2615 -1.5693,-0.654 -2.2231,-1.0462 l -248.6695,246.0538 v 0 l -15.1699,15.2353 -217.80645,214.6679 -292.34841,-288.0332 c -40.27881,-39.6899 -40.3442,-104.2931 -0.13076,-144.0489 l 292.47913,-288.09788 175.89289,173.86558 -68.984,68.1339 c -113.18606,124.1714 31.7785,232.5843 31.7785,232.5843 0.85,0.2615 1.4385,0.654 2.2231,1.0462 l 481.6458,-476.0224 292.4138,288.0325 c 40.2134,39.6251 40.2788,104.3592 0.1301,144.1145 m 135.1564,-277.4396 -410.7001,-404.68496 c -8.3042,-8.10799 -25.6974,-8.17336 -34.0016,0 L 1249.1845,920.11872 955.07061,629.73196 c -8.69654,-8.63116 -25.30504,-8.56578 -33.93619,0 L 510.36888,1034.4169 c -55.57953,54.7943 -86.31175,127.8327 -86.31175,205.5134 0,77.6806 30.66683,150.653 86.31175,205.3826 l 410.76554,404.7497 c 8.23884,8.1735 24.97808,8.8274 33.93619,0 l 294.50629,-290.7791 294.1138,290.3868 c 9.9389,9.8736 23.8011,10.0698 33.9362,0 l 410.7655,-404.6844 c 55.5795,-54.795 86.3119,-127.8328 86.3119,-205.5134 0,-77.6807 -30.667,-150.6536 -86.3119,-205.3827"
     id="path11284"
     style="stroke-width:6.53874" />
</svg>
