<?xml version="1.0" encoding="UTF-8" standalone="no"?>
<svg
   id="a"
   viewBox="0 0 2500 2500.0001"
   version="1.1"
   sodipodi:docname="Logo-horizontal-branco.svg"
   width="2500"
   height="2500"
   inkscape:version="1.2.2 (732a01da63, 2022-12-09)"
   xmlns:inkscape="http://www.inkscape.org/namespaces/inkscape"
   xmlns:sodipodi="http://sodipodi.sourceforge.net/DTD/sodipodi-0.dtd"
   xmlns="http://www.w3.org/2000/svg"
   xmlns:svg="http://www.w3.org/2000/svg">
  <sodipodi:namedview
     id="namedview11299"
     pagecolor="#505050"
     bordercolor="#eeeeee"
     borderopacity="1"
     inkscape:showpageshadow="0"
     inkscape:pageopacity="0"
     inkscape:pagecheckerboard="0"
     inkscape:deskcolor="#505050"
     showgrid="false"
     inkscape:zoom="0.11287929"
     inkscape:cx="327.78379"
     inkscape:cy="832.748"
     inkscape:window-width="1920"
     inkscape:window-height="1009"
     inkscape:window-x="-8"
     inkscape:window-y="-8"
     inkscape:window-maximized="1"
     inkscape:current-layer="a" />
  <defs
     id="defs11280">
    <style
       id="style11278">.b{fill:#fff;}</style>
  </defs>
  <path
     class="b"
     d="m 458.24803,1190.7816 c 0,114.1845 -92.89191,207.0634 -207.07642,207.0634 -114.18452,0 -207.063425,-92.8789 -207.063425,-207.0634 0,-114.1846 92.891905,-207.06347 207.063425,-207.06347 114.17151,0 207.07642,92.87887 207.07642,207.06347 m 40.23237,0 c 0,-136.3611 -110.93473,-247.29583 -247.30879,-247.29583 -136.37406,0 -247.2957881,110.93473 -247.2957881,247.29583 0,136.361 110.9347281,247.2958 247.2957881,247.2958 136.36106,0 247.29579,-110.9478 247.29579,-247.2958"
     id="path11282"
     style="stroke-width:1.29991" />
  <path
     class="b"
     d="m 371.51772,1203.3257 -58.15819,57.2613 -34.96771,-34.5647 13.70111,-13.5322 c 22.50152,-24.6853 -6.29159,-46.2379 -6.29159,-46.2379 -0.18199,-0.052 -0.31198,-0.13 -0.44197,-0.208 l -49.43576,48.9158 v 0 l -3.0158,3.0288 -43.30017,42.6762 -58.11919,-57.2613 c -8.00747,-7.8904 -8.02047,-20.7336 -0.026,-28.6371 l 58.14518,-57.2742 34.96771,34.5647 -13.7141,13.5451 c -22.50152,24.6854 6.31759,46.238 6.31759,46.238 0.16899,0.052 0.28598,0.13 0.44197,0.208 l 95.75172,-94.6338 58.13219,57.2612 c 7.99448,7.8775 8.00748,20.7467 0.026,28.6501 m 26.86924,-55.1553 -81.64765,-80.4518 c -1.65089,-1.6119 -5.10867,-1.6249 -6.75956,0 l -58.54816,57.8072 -58.47017,-57.7292 c -1.72888,-1.7159 -5.03067,-1.7029 -6.74655,0 l -81.66065,80.4518 c -11.049274,10.8932 -17.158874,25.4133 -17.158874,40.8563 0,15.443 6.0966,29.95 17.158874,40.8303 l 81.66065,80.4647 c 1.63789,1.6249 4.96567,1.7549 6.74655,0 l 58.54817,-57.8072 58.47016,57.7292 c 1.97587,1.9629 4.73169,2.0019 6.74656,0 l 81.66065,-80.4517 c 11.04927,-10.8933 17.15887,-25.4133 17.15887,-40.8563 0,-15.443 -6.0966,-29.9501 -17.15887,-40.8303"
     id="path11284"
     style="stroke-width:1.29991" />
  <path
     class="b"
     d="m 2062.4988,1298.3625 c -52.9455,0 -85.8593,-41.5193 -85.8593,-108.3609 0,-66.8416 32.1079,-107.4249 85.8593,-107.4249 53.7515,0 85.3005,40.1543 85.3005,107.4249 0,67.2706 -32.6799,108.3609 -85.3005,108.3609 m 0,-274.048 c -99.4044,0 -161.1764,63.5008 -161.1764,165.6871 0,102.1863 61.772,166.1421 161.1764,166.1421 99.4045,0 160.6305,-63.6698 160.6305,-166.1421 0,-102.4723 -61.5509,-165.6871 -160.6305,-165.6871"
     id="path11286"
     style="stroke-width:1.29991" />
  <path
     class="b"
     d="M 1567.2833,1296.6596 H 1389.65 v -80.8937 h 109.8168 c 11.4912,-1.4689 25.0233,-6.2006 25.0233,-20.5126 l 0.39,-35.8907 H 1389.637 v -71.0793 h 141.1967 c 14.741,-1.1309 23.5285,-12.6352 27.0642,-20.2917 4.4457,-9.6324 12.2842,-40.5833 12.2842,-40.5963 0,0 -225.2882,0.078 -225.6392,0.078 -16.5869,0 -30.08,11.8552 -30.08,26.4142 v 272.7742 c -0.013,14.572 13.4931,26.4142 30.08,26.4142 h 195.0782 c 15.547,-1.0919 27.7012,-12.6091 27.7012,-26.2843 0,-0.4289 -0.039,-30.119 -0.039,-30.119"
     id="path11288"
     style="stroke-width:1.29991" />
  <path
     class="b"
     d="m 2472.206,1353.2709 c 15.365,-1.1569 27.1682,-12.1802 27.5062,-25.6993 v -30.587 l -158.7066,-0.13 v -269.7063 h -75.3171 v 326.1486 z"
     id="path11290"
     style="stroke-width:1.29991" />
  <path
     class="b"
     d="m 1636.1398,1340.9217 c 43.7291,12.6742 71.4173,15.235 101.9003,15.235 60.68,0 133.0073,-16.1969 133.0073,-93.3079 0,-47.7328 -23.2685,-70.8063 -95.7517,-94.9717 l -43.9891,-14.4681 c -28.8841,-9.5024 -49.3578,-17.7698 -49.3578,-38.0875 0,-20.3177 21.6956,-32.7318 53.9855,-32.7318 23.1254,0 44.2361,4.7966 63.5918,9.9703 l 10.1003,2.7428 c 14.8061,2.2099 26.1283,-4.1857 33.1998,-18.8097 l 11.9983,-29.3521 -36.4496,-10.8673 c -26.6613,-7.9165 -54.4015,-11.9332 -82.4406,-11.9332 -81.2967,0 -129.8485,34.0187 -129.8485,90.994 0,47.0439 23.0085,69.7794 94.7118,93.5549 l 44.0411,14.936 c 23.4374,7.9945 50.3587,19.6417 50.3587,39.0364 0,35.5267 -43.0142,35.5267 -57.1443,35.5267 -24.8414,0 -48.8118,-3.4968 -77.7219,-11.3742 l -13.9871,-3.7568 c -2.2878,-0.442 -4.8227,-0.702 -7.2405,-0.702 -15.508,0 -23.8404,10.9193 -28.0912,20.1097 l -11.2572,27.9092 36.3976,10.3603 z"
     id="path11292"
     style="stroke-width:1.29991" />
  <path
     class="b"
     d="m 1170.6403,1300.8973 11.6083,25.1404 c 10.2303,20.1097 24.9583,26.7652 41.0773,26.7652 l 52.5035,-0.104 c 0,0 -37.8405,-76.7859 -38.9194,-79.2168 -10.4383,-20.0966 -29.3651,-48.6168 -43.5342,-54.2454 -1.5339,-0.611 -9.6713,-3.8218 -9.6713,-3.8218 0,0 8.7224,-3.7047 10.5293,-4.5237 27.3372,-10.7892 59.0291,-40.3623 59.0291,-83.1685 0,-61.395 -46.394,-100.1194 -127.3007,-100.1194 0,0 -117.8632,0.078 -118.5392,0.078 -14.702,0 -29.74202,16.3139 -29.74202,28.8451 v 296.3025 h 75.39502 v -264.8316 h 72.8862 c 30.743,0 51.4117,18.2248 51.4117,45.354 0,30.509 -21.1626,45.3541 -62.4089,45.3541 -13.1292,0 -19.4208,2.5478 -24.2954,7.7734 -10.3864,11.1533 -11.4133,32.3159 -10.3084,48.9028 56.5983,1.9239 72.4833,27.1943 90.2791,65.5157"
     id="path11294"
     style="stroke-width:1.29991" />
  <path
     class="b"
     d="m 896.5663,1291.174 c 0,0 -35.74766,7.3315 -59.62709,7.3315 -55.75335,0 -89.04416,-40.1544 -89.04416,-107.425 v -1.7028 c 0,-67.2706 33.29081,-107.425 89.04416,-107.425 23.87943,0 59.62709,7.3315 59.62709,7.3315 12.49218,1.5079 24.91937,-3.9517 31.60093,-17.9128 3.49677,-7.3185 10.89328,-30.522 10.89328,-30.522 l -25.41333,-7.5395 c -24.23041,-6.9026 -45.757,-9.6064 -76.70797,-9.6064 -101.70533,0 -164.88119,63.4619 -164.88119,165.6612 v 1.7028 c 0,102.1993 63.18886,165.6612 164.88119,165.6612 30.95097,0 52.46456,-2.7038 76.70797,-9.6064 l 25.41333,-7.5395 c 0,0 -7.38351,-23.2165 -10.89328,-30.522 -6.68156,-13.9611 -19.09575,-19.4207 -31.60093,-17.9128"
     id="path11296"
     style="stroke-width:1.29991" />
</svg>
