<?xml version="1.0" encoding="UTF-8"?>
<svg id="Camada_1" xmlns="http://www.w3.org/2000/svg" version="1.1" viewBox="0 0 2500 2500">
  <!-- Generator: Adobe Illustrator 29.6.0, SVG Export Plug-In . SVG Version: 2.1.1 Build 207)  -->
  <defs>
    <style>
      .st0 {
        fill: #fff;
      }
    </style>
  </defs>
  <path class="st0" d="M1658.62,1073.01h-37.94c-10.84,0-17.35,6.51-17.35,17.35v112.21c0,41.21-22.22,64.49-53.1,64.49-32.51,0-50.96-21.13-50.96-61.8v-114.9c0-10.84-6.51-17.35-17.34-17.35h-37.94c-10.84,0-17.35,6.51-17.35,17.35v120.32c0,76.42,39.58,119.77,99.19,119.77,35.76,0,63.44-11.93,82.94-36.3l3.24,15.17c2.18,9.75,8.65,15.17,18.98,15.17h27.65c10.84,0,17.34-6.51,17.34-17.35v-216.78c-.03-10.84-6.51-17.35-17.34-17.35Z"/>
  <path class="st0" d="M1394.13,1258.36h-68.31c-23.86,0-36.33-12.48-36.33-36.3v-131.7c0-10.84-6.52-17.35-17.35-17.35h-39.03c-10.84,0-17.34,6.51-17.34,17.35v140.91c0,58.01,35.25,93.22,93.21,93.22h85.11c10.85,0,17.35-6.51,17.35-17.35v-31.43c.03-10.84-6.47-17.35-17.31-17.35Z"/>
  <path class="st0" d="M289.54,1089.81c-1.09-11.38-7.06-16.8-17.9-16.8h-28.73c-9.2,0-15.71,3.78-20.59,11.93l-69.91,118.13-65.03-118.13c-4.33-8.15-11.38-11.93-20.59-11.93h-30.88c-10.84,0-16.8,5.42-17.9,16.8L.13,1306.59c-1.09,11.93,4.87,17.9,16.26,17.9h34.7c10.84,0,17.35-5.42,17.9-16.8l7.6-121.41,41.72,75.33c4.33,8.11,11.38,11.93,20.59,11.93h23.86c9.2,0,15.71-3.24,20.59-11.93l47.14-80.75,5.42,126.83c.55,11.39,6.51,16.8,17.35,16.8h37.39c11.39,0,17.35-5.97,16.26-17.9l-17.35-216.78Z"/>
  <path class="st0" d="M1048.88,1267.06c-38.48,0-62.85-26.55-62.85-67.76s25.46-68.85,62.85-68.85,62.89,26.55,62.89,67.76c-.04,41.76-25.5,68.85-62.89,68.85ZM1165.38,1073.01h-29.82c-10.3,0-17.35,5.42-18.95,15.71l-1.64,12.48c-16.8-17.9-41.17-34.15-81.84-34.15-68.31,0-118.68,53.65-118.68,131.16s47.14,132.25,114.35,132.25c42.26,0,69.91-17.9,86.71-36.3l2.72,15.17c1.64,9.75,8.16,15.17,18.45,15.17h28.73c10.85,0,17.35-6.51,17.35-17.35v-216.78c-.03-10.84-6.51-17.35-17.39-17.35Z"/>
  <path class="st0" d="M754.56,1258.91c-37.39,0-62.85-24.91-62.85-63.39,0-40.67,26.55-65.03,62.85-65.03s62.89,22.22,62.89,63.94c0,37.39-26.55,64.49-62.89,64.49ZM871.09,1073.01h-29.83c-10.29,0-17.35,5.42-18.95,15.71l-1.64,12.48c-16.8-17.9-41.21-34.15-81.84-34.15-68.31,0-118.68,50.41-118.68,127.92s46.59,125.74,113.81,125.74c41.72,0,66.67-17.35,83.47-35.75v12.48c0,43.35-24.41,71-75.87,71-21.68,0-41.21-4.33-61.25-13.02-10.29-4.87-18.44-2.73-23.31,7.6l-11.93,23.86c-4.87,9.75-3.24,17.9,5.97,23.31,28.73,16.26,63.94,22.77,98.09,22.77,85.11,0,139.31-53.65,139.31-128.47v-214.09c0-10.88-6.51-17.39-17.35-17.39Z"/>
  <path class="st0" d="M460.27,1267.06c-38.48,0-62.85-26.55-62.85-67.76s25.46-68.85,62.85-68.85,62.89,26.55,62.89,67.76c-.04,41.76-25.5,68.85-62.89,68.85ZM576.81,1073.01h-29.83c-10.29,0-17.35,5.42-18.95,15.71l-1.64,12.48c-16.8-17.9-41.21-34.15-81.84-34.15-68.31,0-118.68,53.65-118.68,131.16s47.14,132.25,114.35,132.25c42.26,0,69.91-17.9,86.71-36.3l2.73,15.17c1.64,9.75,8.15,15.17,18.44,15.17h28.73c10.84,0,17.35-6.51,17.35-17.35v-216.78c-.08-10.84-6.55-17.35-17.39-17.35Z"/>
  <path class="st0" d="M1925.31,1276.84c16.45-17.9,24.68-43.28,24.68-76.22s-8.07-59.42-24.17-78.37c-16.1-18.95-37.59-28.46-64.41-28.46-18.25,0-34.46,3.66-48.58,10.99-14.15,7.33-25.07,17.19-32.75,29.51-7.68,12.32-11.54,25.85-11.54,40.55v44.56c0,15.75,3.86,30.06,11.54,42.97,7.68,12.87,18.44,23,32.2,30.33,13.76,7.33,29.29,10.99,46.44,10.99,27.96,0,50.13-8.97,66.6-26.86ZM1741.16,1418.06v-334.44c0-5.73,2.85-8.58,8.58-8.58h4.83c5.38,0,8.58,2.34,9.67,6.98,1.8,9.32,3.05,22.18,3.75,38.64,9.32-16.1,22.25-28.73,38.91-37.86,16.65-9.12,35.52-13.69,56.65-13.69,22.89,0,42.97,5.46,60.12,16.38,17.19,10.92,30.41,26.12,39.73,45.62,9.31,19.49,13.95,42.15,13.95,67.92s-4.83,47.96-14.5,67.64c-9.68,19.69-23.36,34.9-41.06,45.62-17.7,10.72-37.86,16.1-60.39,16.1-20.04,0-38.29-4.41-54.74-13.14-16.45-8.77-29.16-20.66-38.12-35.71v138.49c0,5.73-2.85,8.58-8.58,8.58h-10.21c-5.69.04-8.58-2.85-8.58-8.54Z"/>
  <path class="st0" d="M2170.65,1293.22c13.96-7.33,24.8-17.27,32.48-29.79,7.69-12.51,11.54-26.12,11.54-40.82v-44.56c0-15.75-3.74-30.06-11.26-42.97-7.52-12.87-18.09-23-31.66-30.33-13.6-7.33-28.96-10.99-46.16-10.99-27.91,0-50.18,8.97-66.83,26.86-16.64,17.9-24.94,43.32-24.94,76.22s7.95,59.97,23.9,78.91c15.9,18.99,37.47,28.46,64.69,28.46,18.2.04,34.31-3.63,48.26-10.99ZM2060.05,1312.01c-17.2-10.92-30.41-26.2-39.73-45.89-9.32-19.69-13.96-42.22-13.96-67.64s4.91-48.39,14.78-67.92c9.83-19.49,23.63-34.62,41.33-45.38,17.7-10.72,37.86-16.1,60.39-16.1,19.7,0,37.67,4.37,53.96,13.14,16.31,8.77,28.9,20.66,37.86,35.71.7-15.75,2.15-27.56,4.3-35.44,1.08-5.03,4.08-7.52,9.12-7.52h5.38c5.74,0,8.58,2.89,8.58,8.58v230.31c0,5.73-2.89,8.58-8.58,8.58h-4.29c-5.03,0-8.07-2.5-9.13-7.52-2.49-12.52-3.74-25.23-3.74-38.13-9.32,16.1-22.38,28.73-39.19,37.86-16.84,9.12-35.98,13.69-57.42,13.69-22.62.08-42.47-5.38-59.65-16.3Z"/>
  <path class="st0" d="M2334.37,1423.67c-1.09-1.99-1.09-4.41,0-7.25l40.78-100.4-107.37-230.85-1.09-4.29c0-3.94,2.49-5.89,7.52-5.89h11.81c4.64,0,7.88,2.14,9.68,6.43l92.87,205.08,82.15-205.08c1.4-4.29,4.63-6.43,9.67-6.43h12.35c3.24,0,5.38.97,6.44,2.96,1.09,1.99,1.09,4.37,0,7.25l-138.49,334.99c-1.44,4.29-4.63,6.43-9.67,6.43h-10.21c-3.2,0-5.35-1.01-6.44-2.96Z"/>
</svg>