<?xml version="1.0" encoding="UTF-8"?>
<svg id="Camada_1" xmlns="http://www.w3.org/2000/svg" version="1.1" viewBox="0 0 2500 2500">
  <!-- Generator: Adobe Illustrator 29.6.0, SVG Export Plug-In . SVG Version: 2.1.1 Build 207)  -->
  <defs>
    <style>
      .st0 {
        fill: #6e7276;
      }

      .st1 {
        fill: #0086ff;
      }
    </style>
  </defs>
  <path class="st1" d="M1658.62,1074.66h-37.94c-10.84,0-17.35,6.45-17.35,17.19v111.16c0,40.83-22.22,63.89-53.1,63.89-32.51,0-50.96-20.93-50.96-61.22v-113.83c0-10.74-6.51-17.19-17.35-17.19h-37.94c-10.84,0-17.35,6.45-17.35,17.19v119.2c0,75.71,39.57,118.66,99.19,118.66,35.76,0,63.44-11.82,82.94-35.96l3.22,15.02c2.19,9.66,8.66,15.02,19,15.02h27.64c10.84,0,17.35-6.45,17.35-17.19v-214.76c-.04-10.74-6.51-17.19-17.35-17.19Z"/>
  <path class="st1" d="M1394.12,1258.28h-68.31c-23.85,0-36.34-12.36-36.34-35.96v-130.48c0-10.74-6.5-17.19-17.35-17.19h-39.02c-10.84,0-17.35,6.45-17.35,17.19v139.59c0,57.47,35.25,92.35,93.22,92.35h85.11c10.84,0,17.35-6.45,17.35-17.19v-31.13c.04-10.74-6.47-17.19-17.31-17.19Z"/>
  <path class="st1" d="M289.54,1091.31c-1.09-11.28-7.06-16.65-17.9-16.65h-28.73c-9.2,0-15.71,3.75-20.59,11.82l-69.91,117.03-65.03-117.03c-4.33-8.07-11.38-11.82-20.59-11.82h-30.88c-10.84,0-16.8,5.37-17.9,16.65L.13,1306.06c-1.09,11.82,4.87,17.73,16.26,17.73h34.7c10.84,0,17.35-5.37,17.9-16.65l7.6-120.28,41.72,74.62c4.33,8.03,11.38,11.82,20.59,11.82h23.86c9.2,0,15.71-3.2,20.59-11.82l47.14-79.99,5.42,125.65c.55,11.28,6.51,16.65,17.35,16.65h37.39c11.38,0,17.35-5.91,16.26-17.73l-17.35-214.76Z"/>
  <path class="st1" d="M1048.88,1266.9c-38.48,0-62.85-26.3-62.85-67.13s25.46-68.21,62.85-68.21,62.89,26.3,62.89,67.13c-.04,41.37-25.5,68.21-62.89,68.21ZM1165.38,1074.66h-29.83c-10.29,0-17.35,5.37-18.95,15.57l-1.64,12.36c-16.8-17.73-41.17-33.84-81.84-33.84-68.31,0-118.68,53.15-118.68,129.94s47.14,131.02,114.35,131.02c42.26,0,69.91-17.73,86.71-35.96l2.73,15.02c1.64,9.66,8.15,15.02,18.44,15.02h28.73c10.84,0,17.35-6.45,17.35-17.19v-214.76c-.04-10.74-6.51-17.19-17.39-17.19Z"/>
  <path class="st1" d="M754.56,1258.83c-37.39,0-62.85-24.68-62.85-62.8,0-40.29,26.55-64.43,62.85-64.43s62.89,22.02,62.89,63.35c0,37.04-26.55,63.89-62.89,63.89ZM871.09,1074.66h-29.83c-10.29,0-17.35,5.37-18.95,15.57l-1.64,12.36c-16.8-17.73-41.21-33.84-81.84-33.84-68.31,0-118.68,49.94-118.68,126.73s46.59,124.57,113.81,124.57c41.72,0,66.67-17.19,83.47-35.42v12.36c0,42.95-24.41,70.34-75.87,70.34-21.68,0-41.21-4.29-61.25-12.9-10.29-4.83-18.44-2.7-23.31,7.53l-11.93,23.64c-4.87,9.66-3.24,17.73,5.97,23.1,28.73,16.11,63.94,22.56,98.09,22.56,85.11,0,139.31-53.15,139.31-127.27v-212.09c0-10.78-6.51-17.23-17.35-17.23Z"/>
  <path class="st1" d="M460.27,1266.9c-38.48,0-62.85-26.3-62.85-67.13s25.46-68.21,62.85-68.21,62.89,26.3,62.89,67.13c-.04,41.37-25.5,68.21-62.89,68.21ZM576.81,1074.66h-29.83c-10.29,0-17.35,5.37-18.95,15.57l-1.64,12.36c-16.8-17.73-41.21-33.84-81.84-33.84-68.31,0-118.68,53.15-118.68,129.94s47.14,131.02,114.35,131.02c42.26,0,69.91-17.73,86.71-35.96l2.73,15.02c1.64,9.66,8.15,15.02,18.44,15.02h28.73c10.84,0,17.35-6.45,17.35-17.19v-214.76c-.08-10.74-6.55-17.19-17.39-17.19Z"/>
  <path class="st0" d="M1925.31,1276.59c16.45-17.73,24.67-42.87,24.67-75.51s-8.07-58.87-24.17-77.64c-16.1-18.77-37.59-28.2-64.41-28.2-18.24,0-34.46,3.63-48.57,10.89-14.15,7.26-25.06,17.03-32.75,29.24-7.67,12.21-11.54,25.61-11.54,40.17v44.15c0,15.6,3.86,29.78,11.54,42.56,7.69,12.75,18.44,22.79,32.2,30.05s29.29,10.89,46.44,10.89c27.96,0,50.14-8.88,66.6-26.61ZM1741.16,1416.49v-331.33c0-5.68,2.85-8.5,8.58-8.5h4.84c5.39,0,8.58,2.32,9.68,6.91,1.79,9.23,3.04,21.98,3.74,38.28,9.33-15.95,22.26-28.47,38.91-37.51,16.65-9.04,35.51-13.56,56.65-13.56,22.89,0,42.96,5.41,60.12,16.22,17.19,10.82,30.41,25.88,39.73,45.19,9.31,19.31,13.96,41.75,13.96,67.29s-4.84,47.51-14.51,67.01c-9.66,19.5-23.35,34.57-41.05,45.19-17.7,10.62-37.86,15.95-60.4,15.95-20.04,0-38.27-4.36-54.74-13.02-16.45-8.69-29.16-20.47-38.12-35.38v137.2c0,5.68-2.85,8.5-8.58,8.5h-10.22c-5.69.04-8.58-2.82-8.58-8.46Z"/>
  <path class="st0" d="M2170.66,1292.82c13.96-7.26,24.8-17.11,32.48-29.51,7.69-12.4,11.55-25.88,11.55-40.44v-44.15c0-15.6-3.75-29.78-11.28-42.57-7.52-12.75-18.09-22.79-31.66-30.05-13.6-7.26-28.96-10.89-46.16-10.89-27.91,0-50.17,8.88-66.82,26.61-16.65,17.73-24.95,42.91-24.95,75.51s7.95,59.4,23.9,78.18c15.91,18.81,37.47,28.2,64.69,28.2,18.2.04,34.3-3.59,48.26-10.89ZM2060.05,1311.43c-17.19-10.81-30.41-25.96-39.72-45.46-9.33-19.5-13.96-41.83-13.96-67.01s4.91-47.93,14.77-67.29c9.83-19.31,23.64-34.3,41.34-44.96,17.7-10.62,37.85-15.95,60.39-15.95,19.69,0,37.66,4.33,53.96,13.02,16.3,8.69,28.89,20.47,37.86,35.38.7-15.6,2.14-27.31,4.29-35.11,1.09-4.98,4.09-7.45,9.12-7.45h5.37c5.74,0,8.58,2.86,8.58,8.5v228.16c0,5.68-2.89,8.5-8.58,8.5h-4.29c-5.03,0-8.08-2.47-9.13-7.45-2.5-12.4-3.74-24.99-3.74-37.78-9.33,15.95-22.39,28.47-39.19,37.51-16.85,9.04-35.99,13.56-57.44,13.56-22.61.08-42.45-5.33-59.65-16.15Z"/>
  <path class="st0" d="M2334.37,1422.06c-1.09-1.97-1.09-4.37,0-7.18l40.79-99.46-107.37-228.7-1.1-4.25c0-3.9,2.5-5.83,7.52-5.83h11.82c4.64,0,7.88,2.12,9.66,6.37l92.87,203.17,82.15-203.17c1.4-4.25,4.64-6.37,9.66-6.37h12.36c3.24,0,5.38.97,6.44,2.94,1.09,1.97,1.09,4.33,0,7.18l-138.49,331.87c-1.45,4.25-4.65,6.37-9.68,6.37h-10.21c-3.2,0-5.34-1-6.44-2.93Z"/>
</svg>