<?xml version="1.0" encoding="UTF-8" standalone="no"?>
<!-- Generator: Adobe Illustrator 24.3.0, SVG Export Plug-In . SVG Version: 6.00 Build 0)  -->

<svg
   version="1.1"
   id="Layer_1"
   x="0px"
   y="0px"
   viewBox="0 0 2500.0001 2500"
   xml:space="preserve"
   sodipodi:docname="BEESBank_Horizontal.svg"
   width="2500"
   height="2500"
   inkscape:version="1.3.2 (091e20e, 2023-11-25, custom)"
   xmlns:inkscape="http://www.inkscape.org/namespaces/inkscape"
   xmlns:sodipodi="http://sodipodi.sourceforge.net/DTD/sodipodi-0.dtd"
   xmlns="http://www.w3.org/2000/svg"
   xmlns:svg="http://www.w3.org/2000/svg"><defs
   id="defs5" /><sodipodi:namedview
   id="namedview5"
   pagecolor="#ffffff"
   bordercolor="#000000"
   borderopacity="0.25"
   inkscape:showpageshadow="2"
   inkscape:pageopacity="0.0"
   inkscape:pagecheckerboard="0"
   inkscape:deskcolor="#d1d1d1"
   inkscape:zoom="0.28588366"
   inkscape:cx="2877.0445"
   inkscape:cy="1124.5833"
   inkscape:window-width="2400"
   inkscape:window-height="1261"
   inkscape:window-x="-9"
   inkscape:window-y="-9"
   inkscape:window-maximized="1"
   inkscape:current-layer="Layer_1" />
<g
   id="g5"
   transform="matrix(3.5715366,0,0,3.5715366,7.8364006,1137.7674)">
	<path
   d="m 248,78.7 c 0,-1.3 0.4,-2.3 1.2,-3.2 0.8,-0.8 1.9,-1.2 3.2,-1.2 h 65.9 c -0.7,3.5 -2,6.7 -3.8,9.7 -1.8,2.9 -4,5.5 -6.6,7.6 -2.6,2.1 -5.5,3.8 -8.8,5 -3.3,1.2 -6.7,1.9 -10.4,1.9 h -36.3 c -1.3,0 -2.3,-0.4 -3.2,-1.3 -0.8,-0.9 -1.2,-2 -1.2,-3.2 z M 288.7,38 c 3.7,0 7.1,0.6 10.4,1.9 3.3,1.3 6.2,2.9 8.8,5 2.6,2.1 4.8,4.7 6.6,7.7 1.8,3 3,6.2 3.8,9.6 h -42.8 c -3.7,0 -7.1,-0.6 -10.4,-1.9 -3.3,-1.2 -6.2,-2.9 -8.8,-5 -2.6,-2.1 -4.8,-4.6 -6.6,-7.6 -1.8,-2.9 -3,-6.2 -3.8,-9.7 z M 313.9,1.7 c 1.3,0 2.3,0.4 3.2,1.2 0.8,0.8 1.2,1.9 1.2,3.2 v 15.2 c 0,1.3 -0.4,2.4 -1.2,3.2 -0.8,0.9 -1.9,1.3 -3.2,1.3 H 246 c 0.7,-3.4 2,-6.6 3.8,-9.6 1.8,-3 4,-5.5 6.6,-7.7 2.6,-2.1 5.5,-3.8 8.8,-5 3.3,-1.2 6.7,-1.9 10.4,-1.9 h 38.3 z m -89.6,55.9 c 0,1.3 -0.4,2.4 -1.3,3.2 -0.9,0.9 -1.9,1.3 -3.2,1.3 H 167.9 V 38 h 51.9 c 1.3,0 2.4,0.4 3.2,1.2 0.9,0.8 1.3,1.9 1.3,3.2 z m 7.2,16.7 c 1.3,0 2.3,0.4 3.2,1.2 0.8,0.8 1.2,1.9 1.2,3.2 v 15.2 c 0,1.3 -0.4,2.4 -1.2,3.2 -0.8,0.9 -1.9,1.3 -3.2,1.3 h -59.4 c -1.3,0 -2.3,-0.4 -3.2,-1.3 -0.8,-0.9 -1.2,-2 -1.2,-3.2 V 74.3 Z m 0,-72.6 c 1.3,0 2.3,0.4 3.2,1.2 0.8,0.8 1.2,1.9 1.2,3.2 v 15.2 c 0,1.3 -0.4,2.4 -1.2,3.2 -0.8,0.9 -1.9,1.3 -3.2,1.3 H 167.7 V 6.1 c 0,-1.3 0.4,-2.3 1.2,-3.2 0.8,-0.8 1.9,-1.2 3.2,-1.2 z m -87.6,55.9 c 0,1.3 -0.4,2.4 -1.2,3.2 -0.8,0.9 -1.9,1.3 -3.2,1.3 H 87.6 V 38 h 51.9 c 1.3,0 2.3,0.4 3.2,1.2 0.8,0.8 1.2,1.9 1.2,3.2 z m 7.1,16.7 c 1.3,0 2.4,0.4 3.2,1.2 0.9,0.8 1.3,1.9 1.3,3.2 v 15.2 c 0,1.3 -0.4,2.4 -1.3,3.2 -0.9,0.9 -1.9,1.3 -3.2,1.3 H 91.7 c -1.3,0 -2.4,-0.4 -3.2,-1.3 -0.9,-0.9 -1.3,-2 -1.3,-3.2 V 74.3 Z M 154.3,2.9 C 153.4,2.1 152.4,1.7 151.1,1.7 H 91.7 c -1.3,0 -2.4,0.4 -3.2,1.2 -0.9,0.8 -1.3,1.9 -1.3,3.2 V 25.9 H 151 c 1.3,0 2.4,-0.4 3.2,-1.3 0.9,-0.9 1.3,-2 1.3,-3.2 V 6.1 c 0.1,-1.3 -0.4,-2.4 -1.2,-3.2 M 0.8,74.3 h 74.4 c -0.7,3.5 -2,6.7 -3.8,9.7 -1.8,2.9 -4,5.5 -6.6,7.6 -2.6,2.1 -5.5,3.8 -8.8,5 -3.3,1.2 -6.7,1.9 -10.4,1.9 H 5.4 C 4.1,98.5 3,98.1 2.2,97.2 1.3,96.3 0.9,95.2 0.9,94 V 74.3 Z M 45.7,38 c 3.7,0 7.1,0.6 10.4,1.9 3.3,1.2 6.2,2.9 8.8,5 2.6,2.1 4.8,4.7 6.6,7.7 1.8,3 3,6.2 3.8,9.6 H 0.8 V 38 Z M 39.3,1.7 c 3.3,0 6.4,0.6 9.3,1.9 2.9,1.3 5.4,3 7.6,5.2 2.2,2.2 3.9,4.8 5.1,7.7 1.2,2.9 1.9,6 1.9,9.3 H 0.8 V 6.1 C 0.8,4.8 1.2,3.8 2.1,2.9 3,2.1 4.1,1.7 5.4,1.7 Z"
   id="path1" />
	<path
   d="m 404.7,85.4 c 2.2,-0.9 3.9,-2 5.3,-3.5 1.4,-1.5 2.4,-3.2 3,-5.1 0.6,-1.9 1,-4 1,-6.2 0,-4.7 -1.4,-8.6 -4.2,-11.6 -2.8,-3 -7.1,-4.6 -12.9,-4.6 h -28.4 c -0.5,0 -0.7,0.3 -0.7,0.8 v 30.7 c 0,0.6 0.2,0.8 0.7,0.8 h 28.4 c 3,0 5.6,-0.4 7.8,-1.3 M 367.8,42.1 c 0,0.6 0.2,0.8 0.7,0.8 h 26.8 c 5.2,0 9.3,-1.3 12.2,-3.9 2.9,-2.6 4.3,-6.2 4.3,-10.9 0,-4.7 -1.4,-8.3 -4.3,-10.9 -2.9,-2.6 -6.9,-3.9 -12.2,-3.9 h -26.8 c -0.5,0 -0.7,0.3 -0.7,0.8 z m 45.7,6.7 c 5.2,2.1 8.9,5.1 10.9,8.9 2.1,3.8 3.1,8.7 3.1,14.6 0,8.2 -2.6,14.6 -7.8,19.3 -5.4,4.6 -12.4,6.9 -20.9,6.9 h -42.6 c -1.3,0 -1.9,-0.6 -1.9,-1.9 V 3.5 c 0,-1.2 0.6,-1.8 1.9,-1.8 h 38.3 c 5.2,0 9.5,0.5 12.8,1.5 3.3,1 6.3,2.5 8.9,4.6 2.8,2.3 5.1,5 6.7,8.2 1.6,3.2 2.4,6.7 2.4,10.4 0,5.2 -1,9.4 -2.9,12.8 -1.9,3.4 -4.9,6.3 -8.9,8.7 -0.8,0.4 -0.8,0.7 0,0.9"
   id="path2" />
	<path
   d="m 497.2,79.4 c 0.9,-1.2 1.7,-2.5 2.5,-3.9 0.7,-1.4 1.4,-2.9 1.9,-4.7 0.5,-1.7 0.9,-3.7 1.2,-5.9 0.3,-2.2 0.4,-4.7 0.4,-7.5 0,-0.7 0,-1.8 0.1,-3.2 0,-1.4 0.1,-2.8 0.1,-4.3 0,-1.5 0,-2.9 -0.1,-4.2 0,-1.3 -0.1,-2.4 -0.1,-3.2 -0.1,-4.4 -0.5,-8.4 -1.3,-12 -0.8,-3.6 -2.3,-6.9 -4.6,-9.8 -2.2,-2.8 -4.9,-4.9 -8.2,-6.6 -3.3,-1.6 -7.2,-2.4 -11.9,-2.4 -4.5,0 -8.4,0.8 -11.7,2.4 -3.3,1.6 -6,3.8 -8.2,6.7 -1,1.3 -1.9,2.6 -2.6,4.1 -0.7,1.4 -1.3,3 -1.7,4.7 -0.5,1.7 -0.8,3.6 -1,5.7 -0.2,2.1 -0.4,4.5 -0.5,7 0,0.7 0,1.8 -0.1,3.1 0,1.3 -0.1,2.7 -0.1,4.2 0,1.5 0,2.9 0.1,4.3 0,1.4 0.1,2.6 0.1,3.4 0.1,5.3 0.6,9.6 1.4,12.9 0.9,3.4 2.3,6.3 4.3,8.8 2.5,3.2 5.4,5.5 8.7,7 3.3,1.4 7,2.1 11.2,2.1 4.5,0 8.4,-0.7 11.7,-2.2 3.2,-1.3 6,-3.5 8.4,-6.5 M 516.6,3.5 v 93.1 c 0,1.3 -0.6,1.9 -1.8,1.9 H 505 c -1.3,0 -1.9,-0.6 -1.9,-1.9 v -6.4 c 0,-0.6 -0.2,-0.9 -0.7,-1.1 -0.5,-0.2 -0.9,-0.1 -1.2,0.3 -3.2,3.5 -6.8,6.1 -10.7,7.9 -3.9,1.8 -8.7,2.7 -14.4,2.7 -6.1,0 -11.6,-1 -16.3,-3 -4.7,-2 -9,-5.2 -12.9,-9.7 -2.9,-3.4 -5.1,-7.5 -6.6,-12.2 -1.5,-4.7 -2.3,-10.6 -2.5,-17.6 v -15 c 0.2,-7.9 1.2,-14.2 3,-18.9 1.8,-4.7 4,-8.5 6.7,-11.5 3.9,-4.4 8.1,-7.5 12.8,-9.4 4.7,-1.8 10,-2.7 15.9,-2.7 5.8,0 10.6,0.9 14.4,2.7 3.9,1.8 7.4,4.4 10.6,7.9 0.4,0.4 0.8,0.5 1.2,0.3 0.5,-0.2 0.7,-0.5 0.7,-1 V 3.5 c 0,-1.3 0.6,-1.9 1.9,-1.9 h 9.8 c 1.2,-0.1 1.8,0.6 1.8,1.9"
   id="path3" />
	<path
   d="m 595.4,9 c 3.4,3.3 5.9,7.2 7.5,11.7 1.6,4.5 2.4,10 2.4,16.6 v 59.3 c 0,1.3 -0.6,1.9 -1.9,1.9 h -9.8 c -1.2,0 -1.8,-0.6 -1.8,-1.9 v -59 c 0,-3.9 -0.6,-7.5 -1.7,-10.8 -1.1,-3.3 -2.7,-6.1 -4.8,-8.3 -4.2,-4.5 -9.7,-6.8 -16.5,-6.8 -6.9,0 -12.4,2.1 -16.5,6.4 -2.4,2.4 -4.1,5.2 -5.3,8.5 -1.1,3.3 -1.7,6.9 -1.7,11 v 59 c 0,1.3 -0.6,1.9 -1.8,1.9 h -9.8 c -1.3,0 -1.9,-0.6 -1.9,-1.9 V 3.5 c 0,-1.3 0.6,-1.9 1.9,-1.9 h 9.8 c 1.2,0 1.8,0.6 1.8,1.9 v 6.2 c 0,0.6 0.2,1 0.7,1.1 0.5,0.1 1,-0.2 1.7,-1 3.1,-3.4 6.6,-5.9 10.5,-7.5 3.9,-1.6 8.5,-2.3 13.7,-2.3 9.8,0 17.7,3 23.5,9"
   id="path4" />
	<path
   d="m 693.1,96.1 c 0.3,0.6 0.3,1.1 0,1.7 -0.3,0.5 -0.8,0.7 -1.5,0.7 h -10.9 c -1,0 -1.7,-0.5 -2.2,-1.5 L 650.9,49.6 c -0.3,-0.5 -0.6,-0.5 -1,-0.1 l -15.3,17.3 c -0.4,0.4 -0.6,0.9 -0.6,1.5 v 28.3 c 0,1.3 -0.6,1.9 -1.9,1.9 h -9.6 c -1.3,0 -1.9,-0.6 -1.9,-1.9 V 5.4 c 0,-1.6 0.1,-2.6 0.4,-3 0.3,-0.5 0.8,-0.7 1.5,-0.7 h 9.6 c 1.3,0 1.9,0.6 1.9,1.8 v 44.8 c 0,0.4 0.1,0.6 0.3,0.6 0.3,0.2 0.5,0.1 0.7,-0.3 l 40.3,-46 c 0.6,-0.6 1.3,-0.8 2.2,-0.8 h 11.6 c 0.7,0 1.2,0.2 1.5,0.7 0.2,0.4 0,0.9 -0.4,1.5 l -30,33.7 c -0.2,0.5 -0.2,0.8 -0.1,1 4.1,7.2 7.7,13.5 10.9,19 3.1,5.5 5.8,10.2 8.2,14.2 2.3,4 4.3,7.4 5.9,10.2 1.6,2.8 2.9,5.1 3.9,6.8 2.4,4.1 3.7,6.6 4.1,7.2"
   id="path5" />
</g>
</svg>
