<?xml version="1.0" encoding="UTF-8" standalone="no"?>
<svg
   width="2500"
   height="2500"
   viewBox="0 0 2500 2500"
   fill="none"
   version="1.1"
   id="svg10408"
   sodipodi:docname="conta-simples_logo-novo.svg"
   inkscape:version="1.2.2 (732a01da63, 2022-12-09)"
   xmlns:inkscape="http://www.inkscape.org/namespaces/inkscape"
   xmlns:sodipodi="http://sodipodi.sourceforge.net/DTD/sodipodi-0.dtd"
   xmlns="http://www.w3.org/2000/svg"
   xmlns:svg="http://www.w3.org/2000/svg">
  <sodipodi:namedview
     id="namedview10410"
     pagecolor="#505050"
     bordercolor="#eeeeee"
     borderopacity="1"
     inkscape:showpageshadow="0"
     inkscape:pageopacity="0"
     inkscape:pagecheckerboard="0"
     inkscape:deskcolor="#505050"
     showgrid="false"
     inkscape:zoom="0.125"
     inkscape:cx="4184"
     inkscape:cy="672"
     inkscape:window-width="1920"
     inkscape:window-height="1009"
     inkscape:window-x="-8"
     inkscape:window-y="-8"
     inkscape:window-maximized="1"
     inkscape:current-layer="svg10408" />
  <g
     clip-path="url(#clip0_19_109)"
     id="g10401"
     transform="matrix(16.660685,0,0,16.660685,0.0078125,916.80004)">
    <path
       d="m 25.8459,11.455 -15.424,15.5478 c -0.2683,0.2711 -0.70359,0.2711 -0.97057,0 L 0.2,17.6812 c -0.2683758,-0.2711 -0.2683758,-0.7089 0,-0.9772 L 15.6198,1.16185 c 0.2684,-0.271137 0.7036,-0.271137 0.9706,0 l 9.2555,9.32865 c 0.2642,0.2669 0.2642,0.6976 0,0.9645 z"
       fill="#2dcd69"
       id="path10369" />
    <path
       d="M 26.0617,22.015 9.42378,26.9745 0.187744,17.667 16.9216,12.7993 Z"
       fill="#f7f8fc"
       id="path10371" />
    <path
       d="M 26.5873,23.2916 11.1619,38.838 c -0.2683,0.2711 -0.7036,0.2711 -0.9706,0 L 0.941394,29.5164 c -0.268376,-0.2711 -0.268376,-0.7089 0,-0.9772 L 16.3612,12.9971 c 0.2684,-0.2712 0.7036,-0.2712 0.9706,0 l 9.2555,9.3286 c 0.2642,0.2669 0.2642,0.699 0,0.9659 z"
       fill="#2dcd69"
       id="path10373" />
    <path
       d="m 82.7057,21.7792 h 2.3904 c 0,1.0958 0.7579,1.744 2.0413,1.744 1.2835,0 1.9635,-0.4702 1.9635,-1.2921 0,-1.0379 -1.1458,-1.2342 -2.4293,-1.4503 -1.6909,-0.2754 -3.7128,-0.6072 -3.7128,-2.8582 0,-1.8612 1.5547,-2.9768 4.1786,-2.9768 2.624,0 4.1606,1.1947 4.1606,3.231 h -2.3904 c 0,-1.0379 -0.641,-1.6254 -1.7688,-1.6254 -1.0693,0 -1.7104,0.4307 -1.7104,1.1566 0,0.8812 1.0694,1.0577 2.3125,1.2723 1.7299,0.2937 3.8296,0.6454 3.8296,2.9571 0,2.0165 -1.6534,3.231 -4.4317,3.231 -2.7992,0 -4.4317,-1.254 -4.4317,-3.3892 z"
       fill="#2dcd69"
       id="path10375" />
    <path
       d="m 93.0278,10.811 h 2.5656 v 2.4487 h -2.5656 z m 0,4.3283 h 2.5656 v 9.8314 h -2.5656 z"
       fill="#2dcd69"
       id="path10377" />
    <path
       d="m 126.56,9.89038 h 2.565 V 24.9707 h -2.565 z"
       fill="#2dcd69"
       id="path10379" />
    <path
       d="m 140.263,20.3489 h -7.114 c 0.098,1.8019 0.953,2.8582 2.334,2.8582 1.205,0 2.041,-0.6666 2.294,-1.744 h 2.489 c -0.349,2.3314 -2.139,3.7026 -4.781,3.7026 -3.032,0 -4.819,-1.8993 -4.819,-5.1105 0,-3.2113 1.788,-5.1106 4.819,-5.1106 3.032,0 4.781,1.8796 4.781,5.1106 v 0.2937 z m -7.096,-0.8812 h 4.588 c -0.156,-1.6452 -0.992,-2.5856 -2.274,-2.5856 -1.301,0 -2.137,0.9404 -2.312,2.5856 z"
       fill="#2dcd69"
       id="path10381" />
    <path
       d="m 141.137,21.7792 h 2.39 c 0,1.0958 0.758,1.744 2.041,1.744 1.284,0 1.964,-0.4702 1.964,-1.2921 0,-1.0379 -1.146,-1.2342 -2.43,-1.4503 -1.69,-0.2754 -3.712,-0.6072 -3.712,-2.8582 0,-1.8612 1.554,-2.9768 4.178,-2.9768 2.624,0 4.161,1.1947 4.161,3.231 h -2.391 c 0,-1.0379 -0.641,-1.6254 -1.768,-1.6254 -1.07,0 -1.711,0.4307 -1.711,1.1566 0,0.8812 1.07,1.0577 2.313,1.2723 1.73,0.2937 3.829,0.6454 3.829,2.9571 0,2.0165 -1.653,3.231 -4.431,3.231 -2.799,0 -4.432,-1.254 -4.432,-3.3892 z"
       fill="#2dcd69"
       id="path10383" />
    <path
       d="m 121.115,14.9431 c -1.779,0 -2.974,0.8911 -3.352,2.436 h -0.167 v -2.2397 h -2.563 v 14.3362 h 2.566 v -7.8925 h 0.039 c 0,2.2523 1.301,3.584 3.479,3.584 2.45,0 3.906,-1.8993 3.906,-5.1106 0,-3.2126 -1.459,-5.112 -3.908,-5.112 z m -1.184,8.1679 c -1.555,0 -2.468,-1.254 -2.468,-3.0545 0,-1.8005 0.913,-3.0545 2.468,-3.0545 1.554,0 2.468,1.1354 2.468,3.0545 0,1.9191 -0.914,3.0545 -2.468,3.0545 z"
       fill="#2dcd69"
       id="path10385" />
    <path
       d="m 109.744,14.9431 c -1.687,0 -2.761,1.0224 -3,2.8045 h -0.147 c -0.262,-1.744 -1.406,-2.8045 -3.189,-2.8045 -1.598,0 -2.681,0.8826 -3.028,2.436 h -0.16 v -2.2397 h -2.5659 v 9.8314 h 2.5659 v -5.4255 c 0,-1.6056 0.758,-2.5644 2.06,-2.5644 1.146,0 1.808,0.7442 1.808,2.0165 v 5.9734 h 2.566 v -5.4255 c 0,-1.6056 0.758,-2.5644 2.041,-2.5644 1.146,0 1.827,0.7442 1.827,2.0165 v 5.9734 h 2.566 v -6.0906 c -0.003,-2.4882 -1.247,-3.9371 -3.346,-3.9371 z"
       fill="#2dcd69"
       id="path10387" />
    <path
       d="m 117.632,21.542 h -0.304 v 1.0859 h 0.543 z"
       fill="#2dcd69"
       id="path10389" />
    <path
       d="m 34.2854,19.9972 c 0,-3.1533 1.7493,-5.0343 4.6653,-5.0343 2.3514,0 3.945,1.2342 4.4136,3.4089 h -1.5936 c -0.4269,-1.3316 -1.3989,-2.0956 -2.8186,-2.0956 -1.9051,0 -3.0328,1.3896 -3.0328,3.721 0,2.3315 1.1277,3.721 3.0328,3.721 1.4976,0 2.5071,-0.8416 2.877,-2.2919 h 1.5936 c -0.4269,2.2919 -2.0205,3.6236 -4.4706,3.6236 -2.916,0 -4.6653,-1.881 -4.6653,-5.0527 z"
       fill="#f7f8fc"
       id="path10391" />
    <path
       d="m 44.1027,19.9972 c 0,-3.1533 1.7687,-5.0343 4.7237,-5.0343 2.9549,0 4.7042,1.8796 4.7042,5.0343 0,3.1548 -1.7493,5.0527 -4.7042,5.0527 -2.955,0 -4.7237,-1.881 -4.7237,-5.0527 z m 7.8135,0 c 0,-2.3314 -1.1459,-3.721 -3.0912,-3.721 -1.9454,0 -3.0912,1.3896 -3.0912,3.721 0,2.3315 1.1458,3.721 3.0912,3.721 1.9453,0 3.0912,-1.3712 3.0912,-3.721 z"
       fill="#f7f8fc"
       id="path10393" />
    <path
       d="m 67.3318,16.3539 v 5.6613 c 0,1.0775 0.6411,1.7045 1.7493,1.7045 0.4867,0 0.9915,-0.1173 1.3795,-0.3135 v 1.2539 c -0.5048,0.2359 -1.2057,0.3912 -1.8856,0.3912 -1.7883,0 -2.8381,-1.0775 -2.8381,-2.9373 v -5.7587 h -1.5547 v -1.1947 h 1.6715 v -3.3708 h 1.4753 l 0.0042,3.3694 h 3.2831 v 1.1947 z"
       fill="#f7f8fc"
       id="path10395" />
    <path
       d="m 59.9258,14.9629 c -1.6659,0 -2.7881,0.8755 -3.1441,2.4006 h -0.1613 v -2.2043 h -1.5935 v 9.6944 h 1.5935 v -5.3069 c 0,-2.0561 1.011,-3.2705 2.7408,-3.2705 1.5546,0 2.4501,0.9603 2.4501,2.5856 v 5.9932 h 1.5936 v -6.0313 c 0,-2.4289 -1.2821,-3.858 -3.4777,-3.858 z"
       fill="#f7f8fc"
       id="path10397" />
    <path
       d="m 78.5869,15.1592 v 2.2043 h -0.1446 c -0.356,-1.5251 -1.5977,-2.4006 -3.4513,-2.4006 -2.5656,0 -4.0827,1.8796 -4.0827,5.0343 0,3.1548 1.5157,5.0527 4.0827,5.0527 1.848,0 3.087,-0.8854 3.4472,-2.4063 h 0.1487 v 2.21 h 1.5936 v -9.6944 z m -0.0347,3.1731 H 78.548 v -0.0141 z m -2.9396,5.3859 c -1.944,0 -3.0704,-1.3712 -3.0704,-3.721 0,-2.3498 1.1278,-3.721 3.0704,-3.721 1.9426,0 3.0911,1.4291 3.0911,3.721 0,2.2919 -1.1277,3.721 -3.0911,3.721 z"
       fill="#f7f8fc"
       id="path10399" />
  </g>
  <defs
     id="defs10406">
    <clipPath
       id="clip0_19_109">
      <rect
         width="150"
         height="38.082901"
         fill="#ffffff"
         transform="translate(0,0.958496)"
         id="rect10403"
         x="0"
         y="0" />
    </clipPath>
  </defs>
</svg>
