<?xml version="1.0" encoding="UTF-8" standalone="no"?>
<svg
   width="2500"
   height="2500"
   viewBox="0 0 2500 2500"
   fill="none"
   version="1.1"
   id="svg10408"
   sodipodi:docname="conta-simples_logo-novo.svg"
   inkscape:version="1.2.2 (732a01da63, 2022-12-09)"
   xmlns:inkscape="http://www.inkscape.org/namespaces/inkscape"
   xmlns:sodipodi="http://sodipodi.sourceforge.net/DTD/sodipodi-0.dtd"
   xmlns="http://www.w3.org/2000/svg"
   xmlns:svg="http://www.w3.org/2000/svg">
  <sodipodi:namedview
     id="namedview10410"
     pagecolor="#505050"
     bordercolor="#eeeeee"
     borderopacity="1"
     inkscape:showpageshadow="0"
     inkscape:pageopacity="0"
     inkscape:pagecheckerboard="0"
     inkscape:deskcolor="#505050"
     showgrid="false"
     inkscape:zoom="1.4142136"
     inkscape:cx="1851.9127"
     inkscape:cy="-31.819805"
     inkscape:window-width="1920"
     inkscape:window-height="1009"
     inkscape:window-x="-8"
     inkscape:window-y="-8"
     inkscape:window-maximized="1"
     inkscape:current-layer="svg10408" />
  <g
     clip-path="url(#clip0_19_109)"
     id="g10401"
     transform="matrix(65.62477,0,0,65.62477,360.81259,-62.099065)">
    <path
       d="m 25.8459,11.455 -15.424,15.5478 c -0.2683,0.2711 -0.70359,0.2711 -0.97057,0 L 0.2,17.6812 c -0.2683758,-0.2711 -0.2683758,-0.7089 0,-0.9772 L 15.6198,1.16185 c 0.2684,-0.271137 0.7036,-0.271137 0.9706,0 l 9.2555,9.32865 c 0.2642,0.2669 0.2642,0.6976 0,0.9645 z"
       fill="#2dcd69"
       id="path10369" />
    <path
       d="M 26.0617,22.015 9.42378,26.9745 0.187744,17.667 16.9216,12.7993 Z"
       fill="#f7f8fc"
       id="path10371" />
    <path
       d="M 26.5873,23.2916 11.1619,38.838 c -0.2683,0.2711 -0.7036,0.2711 -0.9706,0 L 0.941394,29.5164 c -0.268376,-0.2711 -0.268376,-0.7089 0,-0.9772 L 16.3612,12.9971 c 0.2684,-0.2712 0.7036,-0.2712 0.9706,0 l 9.2555,9.3286 c 0.2642,0.2669 0.2642,0.699 0,0.9659 z"
       fill="#2dcd69"
       id="path10373" />
  </g>
  <defs
     id="defs10406">
    <clipPath
       id="clip0_19_109">
      <rect
         width="150"
         height="38.082901"
         fill="#ffffff"
         transform="translate(0,0.958496)"
         id="rect10403"
         x="0"
         y="0" />
    </clipPath>
  </defs>
</svg>
