<?xml version="1.0" encoding="UTF-8"?>
<svg id="Camada_1" xmlns="http://www.w3.org/2000/svg" version="1.1" xmlns:xlink="http://www.w3.org/1999/xlink" viewBox="0 0 2500 2500">
  <!-- Generator: Adobe Illustrator 29.6.0, SVG Export Plug-In . SVG Version: 2.1.1 Build 207)  -->
  <defs>
    <style>
      .st0 {
        fill: #0f92ff;
      }

      .st1 {
        fill: none;
      }

      .st2 {
        clip-path: url(#clippath);
      }
    </style>
    <clipPath id="clippath">
      <rect class="st1" y="988.26" width="2500" height="543.48"/>
    </clipPath>
  </defs>
  <g class="st2">
    <g>
      <path class="st0" d="M1524.12,988.29c-153.7,0-278.74,121.9-278.74,271.73s125.04,271.72,278.74,271.72,278.75-121.89,278.75-271.72-125.05-271.73-278.75-271.73ZM1524.12,1403.53c-81.18,0-147.22-64.37-147.22-143.51s66.04-143.52,147.22-143.52,147.23,64.39,147.23,143.52-66.05,143.51-147.23,143.51Z"/>
      <path class="st0" d="M2184.6,988.29c-173.9,0-315.39,137.92-315.39,307.45,0,81.98,32.77,159.11,92.27,217.19,6.1,5.96,13.35,10.68,21.32,13.91,7.98,3.23,16.53,4.89,25.16,4.9,8.64,0,17.19-1.65,25.17-4.86,7.98-3.21,15.23-7.93,21.35-13.88,25.7-25.02,25.73-65.61.06-90.66-34.7-33.87-53.81-78.83-53.81-126.59,0-98.85,82.48-179.24,183.87-179.24s183.87,80.41,183.87,179.24c0,47.76-19.11,92.73-53.8,126.6-25.66,25.05-25.63,65.64.07,90.65,25.7,25.01,67.34,24.98,92.99-.07,59.49-58.08,92.26-135.21,92.26-217.19,0-169.53-141.49-307.45-315.39-307.45Z"/>
      <path class="st0" d="M315.39,988.29C141.49,988.29,0,1126.21,0,1295.74c0,81.98,32.76,159.11,92.26,217.2,25.66,25.05,67.3,25.08,93,.06,25.7-25.02,25.73-65.61.06-90.66-34.7-33.87-53.81-78.83-53.81-126.59,0-98.85,82.48-179.24,183.87-179.24s183.87,80.41,183.87,179.24c0,47.76-19.11,92.73-53.81,126.59-25.66,25.05-25.63,65.64.07,90.66,6.11,5.95,13.36,10.67,21.34,13.88,7.98,3.22,16.54,4.87,25.17,4.86,8.64,0,17.19-1.67,25.16-4.9,7.98-3.23,15.22-7.95,21.33-13.91,59.5-58.08,92.26-135.21,92.26-217.2,0-169.53-141.49-307.45-315.39-307.45Z"/>
      <path class="st0" d="M1173.43,1154.42c25.12-25.57,24.22-66.14-2.01-90.63-52.16-48.7-120.62-75.53-192.77-75.53-153.7,0-278.75,121.9-278.75,271.73s125.05,271.72,278.75,271.72c72.14,0,140.61-26.82,192.77-75.53,26.23-24.49,27.13-65.07,2.01-90.63s-66.76-26.44-92.98-1.95c-27.56,25.74-63.71,39.91-101.79,39.91-81.18,0-147.23-64.37-147.23-143.51s66.05-143.52,147.23-143.52c38.08,0,74.23,14.17,101.79,39.91,26.22,24.49,67.85,23.62,92.98-1.96Z"/>
      <path class="st0" d="M978.66,1324.06c36.29,0,65.71-28.68,65.71-64.05s-29.42-64.05-65.71-64.05-65.71,28.68-65.71,64.05,29.42,64.05,65.71,64.05Z"/>
    </g>
  </g>
</svg>